<?xml version="1.0" encoding="utf-8" standalone="no"?>
<!DOCTYPE svg PUBLIC "-//W3C//DTD SVG 1.1//EN"
  "http://www.w3.org/Graphics/SVG/1.1/DTD/svg11.dtd">
<svg xmlns:xlink="http://www.w3.org/1999/xlink" width="390.351238pt" height="334.665854pt" viewBox="0 0 390.351238 334.665854" xmlns="http://www.w3.org/2000/svg" version="1.1">
 <metadata>
  <rdf:RDF xmlns:dc="http://purl.org/dc/elements/1.1/" xmlns:cc="http://creativecommons.org/ns#" xmlns:rdf="http://www.w3.org/1999/02/22-rdf-syntax-ns#">
   <cc:Work>
    <dc:type rdf:resource="http://purl.org/dc/dcmitype/StillImage"/>
    <dc:date>2026-02-26T09:46:22.940458</dc:date>
    <dc:format>image/svg+xml</dc:format>
    <dc:creator>
     <cc:Agent>
      <dc:title>Matplotlib v3.8.0, https://matplotlib.org/</dc:title>
     </cc:Agent>
    </dc:creator>
   </cc:Work>
  </rdf:RDF>
 </metadata>
 <defs>
  <style type="text/css">*{stroke-linejoin: round; stroke-linecap: butt}</style>
 </defs>
 <g id="figure_1">
  <g id="patch_1">
   <path d="M 0 334.665854 
L 390.351238 334.665854 
L 390.351238 0 
L 0 0 
z
" style="fill: #ffffff"/>
  </g>
  <g id="axes_1">
   <g id="patch_2">
    <path d="M 12.88841 327.465854 
L 348.444234 327.465854 
L 348.444234 11.840277 
L 12.88841 11.840277 
z
" style="fill: #ffffff"/>
   </g>
   <g id="PathCollection_1">
    <defs>
     <path id="C0_0_922827d10b" d="M 0 3.535534 
C 0.937635 3.535534 1.836992 3.163008 2.5 2.5 
C 3.163008 1.836992 3.535534 0.937635 3.535534 -0 
C 3.535534 -0.937635 3.163008 -1.836992 2.5 -2.5 
C 1.836992 -3.163008 0.937635 -3.535534 0 -3.535534 
C -0.937635 -3.535534 -1.836992 -3.163008 -2.5 -2.5 
C -3.163008 -1.836992 -3.535534 -0.937635 -3.535534 0 
C -3.535534 0.937635 -3.163008 1.836992 -2.5 2.5 
C -1.836992 3.163008 -0.937635 3.535534 0 3.535534 
z
"/>
    </defs>
    <g clip-path="url(#pd6f38c2e74)">
     <use xlink:href="#C0_0_922827d10b" x="314.659508" y="173.737081" style="fill: #ff0000"/>
    </g>
    <g clip-path="url(#pd6f38c2e74)">
     <use xlink:href="#C0_0_922827d10b" x="294.876946" y="99.907556" style="fill: #ff0000"/>
    </g>
    <g clip-path="url(#pd6f38c2e74)">
     <use xlink:href="#C0_0_922827d10b" x="240.829982" y="45.860592" style="fill: #ff0000"/>
    </g>
    <g clip-path="url(#pd6f38c2e74)">
     <use xlink:href="#C0_0_922827d10b" x="167.000457" y="26.07803" style="fill: #ff0000"/>
    </g>
    <g clip-path="url(#pd6f38c2e74)">
     <use xlink:href="#C0_0_922827d10b" x="93.170932" y="45.860592" style="fill: #ff0000"/>
    </g>
    <g clip-path="url(#pd6f38c2e74)">
     <use xlink:href="#C0_0_922827d10b" x="39.123968" y="99.907556" style="fill: #ff0000"/>
    </g>
    <g clip-path="url(#pd6f38c2e74)">
     <use xlink:href="#C0_0_922827d10b" x="19.341406" y="173.737081" style="fill: #ff0000"/>
    </g>
    <g clip-path="url(#pd6f38c2e74)">
     <use xlink:href="#C0_0_922827d10b" x="39.123968" y="247.566606" style="fill: #ff0000"/>
    </g>
    <g clip-path="url(#pd6f38c2e74)">
     <use xlink:href="#C0_0_922827d10b" x="93.170932" y="301.61357" style="fill: #ff0000"/>
    </g>
    <g clip-path="url(#pd6f38c2e74)">
     <use xlink:href="#C0_0_922827d10b" x="167.000457" y="321.396132" style="fill: #ff0000"/>
    </g>
    <g clip-path="url(#pd6f38c2e74)">
     <use xlink:href="#C0_0_922827d10b" x="240.829982" y="301.61357" style="fill: #ff0000"/>
    </g>
    <g clip-path="url(#pd6f38c2e74)">
     <use xlink:href="#C0_0_922827d10b" x="294.876946" y="247.566606" style="fill: #ff0000"/>
    </g>
    <g clip-path="url(#pd6f38c2e74)">
     <use xlink:href="#C0_0_922827d10b" x="314.659508" y="173.737081" style="fill: #ff0000"/>
    </g>
   </g>
   <g id="PathCollection_2">
    <defs>
     <path id="C1_0_9c2dbab8c8" d="M 0 3.535534 
C 0.937635 3.535534 1.836992 3.163008 2.5 2.5 
C 3.163008 1.836992 3.535534 0.937635 3.535534 -0 
C 3.535534 -0.937635 3.163008 -1.836992 2.5 -2.5 
C 1.836992 -3.163008 0.937635 -3.535534 0 -3.535534 
C -0.937635 -3.535534 -1.836992 -3.163008 -2.5 -2.5 
C -3.163008 -1.836992 -3.535534 -0.937635 -3.535534 0 
C -3.535534 0.937635 -3.163008 1.836992 -2.5 2.5 
C -1.836992 3.163008 -0.937635 3.535534 0 3.535534 
z
"/>
    </defs>
    <g clip-path="url(#pd6f38c2e74)">
     <use xlink:href="#C1_0_9c2dbab8c8" x="314.659508" y="173.737081" style="fill: #ff0000"/>
    </g>
    <g clip-path="url(#pd6f38c2e74)">
     <use xlink:href="#C1_0_9c2dbab8c8" x="271.411173" y="69.326365" style="fill: #ff0000"/>
    </g>
    <g clip-path="url(#pd6f38c2e74)">
     <use xlink:href="#C1_0_9c2dbab8c8" x="167.000457" y="26.07803" style="fill: #ff0000"/>
    </g>
    <g clip-path="url(#pd6f38c2e74)">
     <use xlink:href="#C1_0_9c2dbab8c8" x="62.589741" y="69.326365" style="fill: #ff0000"/>
    </g>
    <g clip-path="url(#pd6f38c2e74)">
     <use xlink:href="#C1_0_9c2dbab8c8" x="19.341406" y="173.737081" style="fill: #ff0000"/>
    </g>
    <g clip-path="url(#pd6f38c2e74)">
     <use xlink:href="#C1_0_9c2dbab8c8" x="62.589741" y="278.147797" style="fill: #ff0000"/>
    </g>
    <g clip-path="url(#pd6f38c2e74)">
     <use xlink:href="#C1_0_9c2dbab8c8" x="167.000457" y="321.396132" style="fill: #ff0000"/>
    </g>
    <g clip-path="url(#pd6f38c2e74)">
     <use xlink:href="#C1_0_9c2dbab8c8" x="271.411173" y="278.147797" style="fill: #ff0000"/>
    </g>
    <g clip-path="url(#pd6f38c2e74)">
     <use xlink:href="#C1_0_9c2dbab8c8" x="314.659508" y="173.737081" style="fill: #ff0000"/>
    </g>
   </g>
   <g id="matplotlib.axis_1">
    <g id="xtick_1">
     <g id="line2d_1">
      <defs>
       <path id="m916ced8287" d="M 0 0 
L 0 3.5 
" style="stroke: #000000; stroke-width: 0.8"/>
      </defs>
      <g>
       <use xlink:href="#m916ced8287" x="19.341406" y="173.737081" style="stroke: #000000; stroke-width: 0.8"/>
      </g>
     </g>
     <g id="text_1">
      <!-- −1.0 -->
      <g transform="translate(7.2 188.335519) scale(0.1 -0.1)">
       <defs>
        <path id="DejaVuSans-2212" d="M 678 2272 
L 4684 2272 
L 4684 1741 
L 678 1741 
L 678 2272 
z
" transform="scale(0.015625)"/>
        <path id="DejaVuSans-31" d="M 794 531 
L 1825 531 
L 1825 4091 
L 703 3866 
L 703 4441 
L 1819 4666 
L 2450 4666 
L 2450 531 
L 3481 531 
L 3481 0 
L 794 0 
L 794 531 
z
" transform="scale(0.015625)"/>
        <path id="DejaVuSans-2e" d="M 684 794 
L 1344 794 
L 1344 0 
L 684 0 
L 684 794 
z
" transform="scale(0.015625)"/>
        <path id="DejaVuSans-30" d="M 2034 4250 
Q 1547 4250 1301 3770 
Q 1056 3291 1056 2328 
Q 1056 1369 1301 889 
Q 1547 409 2034 409 
Q 2525 409 2770 889 
Q 3016 1369 3016 2328 
Q 3016 3291 2770 3770 
Q 2525 4250 2034 4250 
z
M 2034 4750 
Q 2819 4750 3233 4129 
Q 3647 3509 3647 2328 
Q 3647 1150 3233 529 
Q 2819 -91 2034 -91 
Q 1250 -91 836 529 
Q 422 1150 422 2328 
Q 422 3509 836 4129 
Q 1250 4750 2034 4750 
z
" transform="scale(0.015625)"/>
       </defs>
       <use xlink:href="#DejaVuSans-2212"/>
       <use xlink:href="#DejaVuSans-31" x="83.789062"/>
       <use xlink:href="#DejaVuSans-2e" x="147.412109"/>
       <use xlink:href="#DejaVuSans-30" x="179.199219"/>
      </g>
     </g>
    </g>
    <g id="xtick_2">
     <g id="line2d_2">
      <g>
       <use xlink:href="#m916ced8287" x="93.170932" y="173.737081" style="stroke: #000000; stroke-width: 0.8"/>
      </g>
     </g>
     <g id="text_2">
      <!-- −0.5 -->
      <g transform="translate(81.029525 188.335519) scale(0.1 -0.1)">
       <defs>
        <path id="DejaVuSans-35" d="M 691 4666 
L 3169 4666 
L 3169 4134 
L 1269 4134 
L 1269 2991 
Q 1406 3038 1543 3061 
Q 1681 3084 1819 3084 
Q 2600 3084 3056 2656 
Q 3513 2228 3513 1497 
Q 3513 744 3044 326 
Q 2575 -91 1722 -91 
Q 1428 -91 1123 -41 
Q 819 9 494 109 
L 494 744 
Q 775 591 1075 516 
Q 1375 441 1709 441 
Q 2250 441 2565 725 
Q 2881 1009 2881 1497 
Q 2881 1984 2565 2268 
Q 2250 2553 1709 2553 
Q 1456 2553 1204 2497 
Q 953 2441 691 2322 
L 691 4666 
z
" transform="scale(0.015625)"/>
       </defs>
       <use xlink:href="#DejaVuSans-2212"/>
       <use xlink:href="#DejaVuSans-30" x="83.789062"/>
       <use xlink:href="#DejaVuSans-2e" x="147.412109"/>
       <use xlink:href="#DejaVuSans-35" x="179.199219"/>
      </g>
     </g>
    </g>
    <g id="xtick_3">
     <g id="line2d_3">
      <g>
       <use xlink:href="#m916ced8287" x="240.829982" y="173.737081" style="stroke: #000000; stroke-width: 0.8"/>
      </g>
     </g>
     <g id="text_3">
      <!-- 0.5 -->
      <g transform="translate(232.87842 188.335519) scale(0.1 -0.1)">
       <use xlink:href="#DejaVuSans-30"/>
       <use xlink:href="#DejaVuSans-2e" x="63.623047"/>
       <use xlink:href="#DejaVuSans-35" x="95.410156"/>
      </g>
     </g>
    </g>
    <g id="xtick_4">
     <g id="line2d_4">
      <g>
       <use xlink:href="#m916ced8287" x="314.659508" y="173.737081" style="stroke: #000000; stroke-width: 0.8"/>
      </g>
     </g>
     <g id="text_4">
      <!-- 1.0 -->
      <g transform="translate(306.707945 188.335519) scale(0.1 -0.1)">
       <use xlink:href="#DejaVuSans-31"/>
       <use xlink:href="#DejaVuSans-2e" x="63.623047"/>
       <use xlink:href="#DejaVuSans-30" x="95.410156"/>
      </g>
     </g>
    </g>
   </g>
   <g id="matplotlib.axis_2">
    <g id="ytick_1">
     <g id="line2d_5">
      <defs>
       <path id="me130f013d6" d="M 0 0 
L -3.5 0 
" style="stroke: #000000; stroke-width: 0.8"/>
      </defs>
      <g>
       <use xlink:href="#me130f013d6" x="167.000457" y="321.396132" style="stroke: #000000; stroke-width: 0.8"/>
      </g>
     </g>
     <g id="text_5">
      <!-- −1.0 -->
      <g transform="translate(135.717644 325.19535) scale(0.1 -0.1)">
       <use xlink:href="#DejaVuSans-2212"/>
       <use xlink:href="#DejaVuSans-31" x="83.789062"/>
       <use xlink:href="#DejaVuSans-2e" x="147.412109"/>
       <use xlink:href="#DejaVuSans-30" x="179.199219"/>
      </g>
     </g>
    </g>
    <g id="ytick_2">
     <g id="line2d_6">
      <g>
       <use xlink:href="#me130f013d6" x="167.000457" y="247.566606" style="stroke: #000000; stroke-width: 0.8"/>
      </g>
     </g>
     <g id="text_6">
      <!-- −0.5 -->
      <g transform="translate(135.717644 251.365825) scale(0.1 -0.1)">
       <use xlink:href="#DejaVuSans-2212"/>
       <use xlink:href="#DejaVuSans-30" x="83.789062"/>
       <use xlink:href="#DejaVuSans-2e" x="147.412109"/>
       <use xlink:href="#DejaVuSans-35" x="179.199219"/>
      </g>
     </g>
    </g>
    <g id="ytick_3">
     <g id="line2d_7">
      <g>
       <use xlink:href="#me130f013d6" x="167.000457" y="99.907556" style="stroke: #000000; stroke-width: 0.8"/>
      </g>
     </g>
     <g id="text_7">
      <!-- 0.5 -->
      <g transform="translate(144.097332 103.706774) scale(0.1 -0.1)">
       <use xlink:href="#DejaVuSans-30"/>
       <use xlink:href="#DejaVuSans-2e" x="63.623047"/>
       <use xlink:href="#DejaVuSans-35" x="95.410156"/>
      </g>
     </g>
    </g>
    <g id="ytick_4">
     <g id="line2d_8">
      <g>
       <use xlink:href="#me130f013d6" x="167.000457" y="26.07803" style="stroke: #000000; stroke-width: 0.8"/>
      </g>
     </g>
     <g id="text_8">
      <!-- 1.0 -->
      <g transform="translate(144.097332 29.877249) scale(0.1 -0.1)">
       <use xlink:href="#DejaVuSans-31"/>
       <use xlink:href="#DejaVuSans-2e" x="63.623047"/>
       <use xlink:href="#DejaVuSans-30" x="95.410156"/>
      </g>
     </g>
    </g>
   </g>
   <g id="line2d_9">
    <path d="M 314.659508 173.737081 
L 314.489846 166.660696 
L 314.223583 162.399248 
L 313.834218 158.14728 
L 313.325393 153.932834 
L 312.490704 148.522337 
L 310.939542 140.801764 
L 309.22285 134.038391 
L 306.87342 126.421655 
L 305.014553 121.246086 
L 302.296448 114.591583 
L 300.278034 110.173863 
L 296.186719 102.224111 
L 294.282011 98.886556 
L 289.634751 91.493388 
L 285.438611 85.557724 
L 281.325275 80.286392 
L 276.345421 74.505664 
L 271.480905 69.396144 
L 265.748909 63.95576 
L 259.187903 58.39121 
L 253.30688 53.927246 
L 250.824111 52.17726 
L 245.853883 48.895852 
L 238.41954 44.498891 
L 234.262194 42.287265 
L 230.455652 40.408039 
L 224.895541 37.901318 
L 219.023123 35.545774 
L 214.786519 34.024206 
L 209.201113 32.236905 
L 204.675824 30.965368 
L 196.059574 28.965665 
L 190.943233 28.03211 
L 185.066184 27.187346 
L 179.888277 26.641536 
L 175.164111 26.303876 
L 168.082755 26.081997 
L 163.116196 26.129128 
L 157.236813 26.401184 
L 149.302049 27.142533 
L 140.043748 28.559496 
L 135.369137 29.505826 
L 130.856242 30.570077 
L 125.365232 32.069501 
L 120.096183 33.725709 
L 115.50973 35.34669 
L 109.200439 37.860839 
L 103.140224 40.601564 
L 100.167056 42.068969 
L 91.677049 46.7348 
L 85.924807 50.327461 
L 80.99584 53.710413 
L 76.332273 57.193202 
L 70.234242 62.204598 
L 65.307568 66.677511 
L 61.522258 70.404875 
L 57.854816 74.286469 
L 52.2257 80.839555 
L 49.799958 83.919275 
L 45.805416 89.386874 
L 43.77644 92.379618 
L 40.279744 97.940932 
L 36.236593 105.151316 
L 33.210291 111.25999 
L 31.267604 115.601138 
L 29.76876 119.233352 
L 27.558217 125.166958 
L 25.6411 131.067099 
L 23.827957 137.614643 
L 22.131222 145.169617 
L 21.441332 148.923042 
L 20.354653 156.468514 
L 19.690557 163.588749 
L 19.493636 167.033879 
L 19.345181 172.681303 
L 19.521484 181.027344 
L 20.179841 189.450196 
L 20.538009 192.49732 
L 21.606433 199.500873 
L 22.929326 206.089892 
L 24.716829 213.215739 
L 26.054541 217.753487 
L 27.395588 221.837765 
L 30.115833 229.106702 
L 33.275024 236.352606 
L 35.848406 241.577591 
L 37.910582 245.423895 
L 40.867309 250.507024 
L 46.436624 258.987051 
L 48.764081 262.18681 
L 52.993667 267.575491 
L 56.920252 272.152241 
L 59.84618 275.330172 
L 64.185952 279.71997 
L 67.245399 282.60454 
L 73.144657 287.729555 
L 78.48272 291.922552 
L 83.558923 295.559516 
L 86.803491 297.719507 
L 90.407397 299.977718 
L 96.272577 303.354835 
L 101.591385 306.118532 
L 106.521983 308.442498 
L 112.371808 310.919099 
L 119.435689 313.52545 
L 122.480851 314.524864 
L 127.157016 315.918991 
L 133.648292 317.580149 
L 137.456365 318.410305 
L 141.936866 319.253443 
L 150.003549 320.41462 
L 158.322547 321.140911 
L 166.161854 321.39375 
L 171.572244 321.325339 
L 176.036452 321.119394 
L 182.334978 320.597721 
L 188.017537 319.892743 
L 193.464365 319.005305 
L 200.459975 317.555216 
L 207.13749 315.836391 
L 211.688263 314.471566 
L 219.397413 311.786906 
L 228.314336 308.064306 
L 235.455235 304.569564 
L 243.759268 299.877004 
L 251.899269 294.54845 
L 259.972762 288.451273 
L 267.255373 282.144401 
L 269.379871 280.140327 
L 274.069439 275.420061 
L 277.573867 271.597779 
L 281.414319 267.078729 
L 284.213345 263.538718 
L 288.92924 257.023137 
L 290.618517 254.494561 
L 294.181771 248.757802 
L 297.449154 242.920407 
L 299.684749 238.529627 
L 302.086949 233.359516 
L 304.562137 227.40252 
L 306.785118 221.312744 
L 308.095812 217.272078 
L 309.480439 212.501109 
L 310.80947 207.235784 
L 311.907999 202.109593 
L 313.217689 194.321453 
L 313.758647 190.022927 
L 314.173265 185.71038 
L 314.457814 181.452206 
L 314.659508 173.737081 
L 314.659508 173.737081 
" clip-path="url(#pd6f38c2e74)" style="fill: none; stroke: #0000ff; stroke-linecap: square"/>
   </g>
   <g id="line2d_10">
    <path d="M 167.000457 173.737081 
L 294.876946 99.907556 
" clip-path="url(#pd6f38c2e74)" style="fill: none; stroke-dasharray: 3.7,1.6; stroke-dashoffset: 0; stroke: #000000"/>
   </g>
   <g id="patch_3">
    <path d="M 167.000457 327.465854 
L 167.000457 11.840277 
" style="fill: none; stroke: #000000; stroke-width: 0.8; stroke-linejoin: miter; stroke-linecap: square"/>
   </g>
   <g id="patch_4">
    <path d="M 12.88841 173.737081 
L 348.444234 173.737081 
" style="fill: none; stroke: #000000; stroke-width: 0.8; stroke-linejoin: miter; stroke-linecap: square"/>
   </g>
   <g id="text_9">
    <!-- $P_{\pi/6}=(\frac{\sqrt{3}}{2},\frac{1}{2})$ -->
    <g transform="translate(300.831238 99.804441) scale(0.14 -0.14)">
     <defs>
      <path id="Cmmi10-50" d="M 313 0 
Q 250 0 250 84 
Q 253 100 262 139 
Q 272 178 289 201 
Q 306 225 331 225 
Q 722 225 878 269 
Q 959 297 997 441 
L 1875 3956 
Q 1888 4019 1888 4044 
Q 1888 4113 1813 4122 
Q 1691 4147 1350 4147 
Q 1288 4147 1288 4231 
Q 1291 4247 1300 4286 
Q 1309 4325 1326 4348 
Q 1344 4372 1369 4372 
L 3578 4372 
Q 3881 4372 4165 4264 
Q 4450 4156 4631 3934 
Q 4813 3713 4813 3397 
Q 4813 2991 4527 2672 
Q 4241 2353 3814 2175 
Q 3388 1997 2988 1997 
L 1947 1997 
L 1556 416 
Q 1544 353 1544 325 
Q 1544 300 1551 283 
Q 1559 266 1573 261 
Q 1588 256 1619 250 
Q 1741 225 2081 225 
Q 2144 225 2144 141 
Q 2122 50 2109 25 
Q 2097 0 2034 0 
L 313 0 
z
M 1978 2188 
L 2875 2188 
Q 3497 2188 3822 2522 
Q 3988 2688 4092 3000 
Q 4197 3313 4197 3566 
Q 4197 3881 3956 4014 
Q 3716 4147 3359 4147 
L 2747 4147 
Q 2572 4147 2515 4117 
Q 2459 4088 2413 3928 
L 1978 2188 
z
" transform="scale(0.015625)"/>
      <path id="Cmmi10-bc" d="M 647 109 
Q 647 144 672 213 
Q 850 584 1004 942 
Q 1159 1300 1282 1639 
Q 1406 1978 1509 2363 
L 1100 2363 
Q 866 2363 662 2216 
Q 459 2069 325 1844 
Q 313 1819 288 1819 
L 213 1819 
Q 153 1819 153 1881 
Q 153 1894 166 1919 
Q 375 2275 614 2517 
Q 853 2759 1153 2759 
L 3475 2759 
Q 3541 2759 3587 2715 
Q 3634 2672 3634 2597 
Q 3634 2503 3567 2433 
Q 3500 2363 3406 2363 
L 2591 2363 
Q 2488 1859 2478 1381 
Q 2478 766 2694 269 
Q 2713 231 2713 191 
Q 2713 122 2672 62 
Q 2631 3 2567 -34 
Q 2503 -72 2431 -72 
Q 2263 -72 2200 203 
Q 2138 478 2138 738 
Q 2138 1103 2200 1442 
Q 2263 1781 2400 2363 
L 1703 2363 
Q 1197 313 1094 103 
Q 1003 -72 844 -72 
Q 766 -72 706 -20 
Q 647 31 647 109 
z
" transform="scale(0.015625)"/>
      <path id="Cmmi10-3d" d="M 359 -1472 
Q 359 -1453 366 -1447 
L 2591 4722 
Q 2603 4759 2634 4779 
Q 2666 4800 2706 4800 
Q 2763 4800 2798 4765 
Q 2834 4731 2834 4672 
L 2834 4647 
L 609 -1522 
Q 572 -1600 488 -1600 
Q 434 -1600 396 -1562 
Q 359 -1525 359 -1472 
z
" transform="scale(0.015625)"/>
      <path id="Cmr10-36" d="M 1600 -141 
Q 1203 -141 937 70 
Q 672 281 526 617 
Q 381 953 325 1322 
Q 269 1691 269 2069 
Q 269 2575 466 3084 
Q 663 3594 1045 3928 
Q 1428 4263 1953 4263 
Q 2172 4263 2361 4180 
Q 2550 4097 2658 3936 
Q 2766 3775 2766 3547 
Q 2766 3416 2677 3327 
Q 2588 3238 2456 3238 
Q 2331 3238 2240 3328 
Q 2150 3419 2150 3547 
Q 2150 3672 2240 3762 
Q 2331 3853 2456 3853 
L 2491 3853 
Q 2409 3969 2261 4023 
Q 2113 4078 1953 4078 
Q 1759 4078 1595 3993 
Q 1431 3909 1300 3765 
Q 1169 3622 1081 3448 
Q 994 3275 945 3053 
Q 897 2831 884 2637 
Q 872 2444 872 2150 
Q 984 2413 1190 2580 
Q 1397 2747 1656 2747 
Q 1941 2747 2175 2631 
Q 2409 2516 2578 2311 
Q 2747 2106 2836 1843 
Q 2925 1581 2925 1313 
Q 2925 938 2758 598 
Q 2591 259 2287 59 
Q 1984 -141 1600 -141 
z
M 1600 63 
Q 1847 63 1997 175 
Q 2147 288 2217 473 
Q 2288 659 2305 848 
Q 2322 1038 2322 1313 
Q 2322 1675 2287 1931 
Q 2253 2188 2100 2383 
Q 1947 2578 1631 2578 
Q 1372 2578 1205 2403 
Q 1038 2228 961 1961 
Q 884 1694 884 1447 
Q 884 1363 891 1319 
Q 891 1309 889 1303 
Q 888 1297 884 1288 
Q 884 1013 940 731 
Q 997 450 1156 256 
Q 1316 63 1600 63 
z
" transform="scale(0.015625)"/>
      <path id="Cmr10-3d" d="M 481 850 
Q 428 850 393 890 
Q 359 931 359 978 
Q 359 1031 393 1068 
Q 428 1106 481 1106 
L 4500 1106 
Q 4547 1106 4581 1068 
Q 4616 1031 4616 978 
Q 4616 931 4581 890 
Q 4547 850 4500 850 
L 481 850 
z
M 481 2094 
Q 428 2094 393 2131 
Q 359 2169 359 2222 
Q 359 2269 393 2309 
Q 428 2350 481 2350 
L 4500 2350 
Q 4547 2350 4581 2309 
Q 4616 2269 4616 2222 
Q 4616 2169 4581 2131 
Q 4547 2094 4500 2094 
L 481 2094 
z
" transform="scale(0.015625)"/>
      <path id="Cmr10-28" d="M 1984 -1588 
Q 1628 -1306 1370 -942 
Q 1113 -578 948 -165 
Q 784 247 703 697 
Q 622 1147 622 1600 
Q 622 2059 703 2509 
Q 784 2959 951 3375 
Q 1119 3791 1378 4153 
Q 1638 4516 1984 4788 
Q 1984 4800 2016 4800 
L 2075 4800 
Q 2094 4800 2109 4783 
Q 2125 4766 2125 4744 
Q 2125 4716 2113 4703 
Q 1800 4397 1592 4047 
Q 1384 3697 1257 3301 
Q 1131 2906 1075 2482 
Q 1019 2059 1019 1600 
Q 1019 -434 2106 -1491 
Q 2125 -1509 2125 -1544 
Q 2125 -1559 2108 -1579 
Q 2091 -1600 2075 -1600 
L 2016 -1600 
Q 1984 -1600 1984 -1588 
z
" transform="scale(0.015625)"/>
      <path id="Cmex10-70" d="M 2713 -7425 
L 1269 -4063 
L 819 -4409 
L 703 -4294 
L 1619 -3584 
L 2969 -6725 
L 6291 197 
Q 6322 256 6400 256 
Q 6453 256 6490 218 
Q 6528 181 6528 128 
Q 6528 97 6522 84 
L 2950 -7366 
Q 2925 -7425 2853 -7425 
L 2713 -7425 
z
" transform="scale(0.015625)"/>
      <path id="Cmr10-33" d="M 609 494 
Q 759 275 1012 169 
Q 1266 63 1556 63 
Q 1928 63 2084 380 
Q 2241 697 2241 1100 
Q 2241 1281 2208 1462 
Q 2175 1644 2097 1800 
Q 2019 1956 1883 2050 
Q 1747 2144 1550 2144 
L 1125 2144 
Q 1069 2144 1069 2203 
L 1069 2259 
Q 1069 2309 1125 2309 
L 1478 2338 
Q 1703 2338 1851 2506 
Q 2000 2675 2069 2917 
Q 2138 3159 2138 3378 
Q 2138 3684 1994 3881 
Q 1850 4078 1556 4078 
Q 1313 4078 1091 3986 
Q 869 3894 738 3706 
Q 750 3709 759 3711 
Q 769 3713 781 3713 
Q 925 3713 1022 3613 
Q 1119 3513 1119 3372 
Q 1119 3234 1022 3134 
Q 925 3034 781 3034 
Q 641 3034 541 3134 
Q 441 3234 441 3372 
Q 441 3647 606 3850 
Q 772 4053 1033 4158 
Q 1294 4263 1556 4263 
Q 1750 4263 1965 4205 
Q 2181 4147 2356 4039 
Q 2531 3931 2642 3762 
Q 2753 3594 2753 3378 
Q 2753 3109 2633 2881 
Q 2513 2653 2303 2487 
Q 2094 2322 1844 2241 
Q 2122 2188 2372 2031 
Q 2622 1875 2773 1631 
Q 2925 1388 2925 1106 
Q 2925 753 2731 467 
Q 2538 181 2222 20 
Q 1906 -141 1556 -141 
Q 1256 -141 954 -26 
Q 653 88 461 316 
Q 269 544 269 863 
Q 269 1022 375 1128 
Q 481 1234 641 1234 
Q 744 1234 830 1186 
Q 916 1138 964 1050 
Q 1013 963 1013 863 
Q 1013 706 903 600 
Q 794 494 641 494 
L 609 494 
z
" transform="scale(0.015625)"/>
      <path id="Cmr10-32" d="M 319 0 
L 319 172 
Q 319 188 331 206 
L 1325 1306 
Q 1550 1550 1690 1715 
Q 1831 1881 1968 2097 
Q 2106 2313 2186 2536 
Q 2266 2759 2266 3009 
Q 2266 3272 2169 3511 
Q 2072 3750 1880 3894 
Q 1688 4038 1416 4038 
Q 1138 4038 916 3870 
Q 694 3703 603 3438 
Q 628 3444 672 3444 
Q 816 3444 917 3347 
Q 1019 3250 1019 3097 
Q 1019 2950 917 2848 
Q 816 2747 672 2747 
Q 522 2747 420 2851 
Q 319 2956 319 3097 
Q 319 3338 409 3548 
Q 500 3759 670 3923 
Q 841 4088 1055 4175 
Q 1269 4263 1509 4263 
Q 1875 4263 2190 4108 
Q 2506 3953 2690 3670 
Q 2875 3388 2875 3009 
Q 2875 2731 2753 2481 
Q 2631 2231 2440 2026 
Q 2250 1822 1953 1562 
Q 1656 1303 1563 1216 
L 838 519 
L 1453 519 
Q 1906 519 2211 526 
Q 2516 534 2534 550 
Q 2609 631 2688 1141 
L 2875 1141 
L 2694 0 
L 319 0 
z
" transform="scale(0.015625)"/>
      <path id="Cmmi10-3b" d="M 634 -1153 
Q 634 -1125 659 -1100 
Q 891 -878 1019 -587 
Q 1147 -297 1147 25 
L 1147 103 
Q 1044 0 891 0 
Q 744 0 641 103 
Q 538 206 538 353 
Q 538 503 641 603 
Q 744 703 891 703 
Q 1119 703 1216 492 
Q 1313 281 1313 25 
Q 1313 -331 1170 -651 
Q 1028 -972 769 -1228 
Q 744 -1241 728 -1241 
Q 697 -1241 665 -1212 
Q 634 -1184 634 -1153 
z
" transform="scale(0.015625)"/>
      <path id="Cmr10-31" d="M 594 0 
L 594 225 
Q 1394 225 1394 428 
L 1394 3788 
Q 1063 3628 556 3628 
L 556 3853 
Q 1341 3853 1741 4263 
L 1831 4263 
Q 1853 4263 1873 4245 
Q 1894 4228 1894 4206 
L 1894 428 
Q 1894 225 2694 225 
L 2694 0 
L 594 0 
z
" transform="scale(0.015625)"/>
      <path id="Cmr10-29" d="M 416 -1600 
Q 359 -1600 359 -1544 
Q 359 -1516 372 -1503 
Q 1466 -434 1466 1600 
Q 1466 3634 384 4691 
Q 359 4706 359 4744 
Q 359 4766 376 4783 
Q 394 4800 416 4800 
L 475 4800 
Q 494 4800 506 4788 
Q 966 4425 1272 3906 
Q 1578 3388 1720 2800 
Q 1863 2213 1863 1600 
Q 1863 1147 1786 708 
Q 1709 269 1542 -157 
Q 1375 -584 1119 -945 
Q 863 -1306 506 -1588 
Q 494 -1600 475 -1600 
L 416 -1600 
z
" transform="scale(0.015625)"/>
     </defs>
     <use xlink:href="#Cmmi10-50" transform="translate(0 0.267188)"/>
     <use xlink:href="#Cmmi10-bc" transform="translate(64.208984 -16.739062) scale(0.7)"/>
     <use xlink:href="#Cmmi10-3d" transform="translate(104.09668 -16.739062) scale(0.7)"/>
     <use xlink:href="#Cmr10-36" transform="translate(139.09668 -16.739062) scale(0.7)"/>
     <use xlink:href="#Cmr10-3d" transform="translate(198.032617 0.267188)"/>
     <use xlink:href="#Cmr10-28" transform="translate(293.276758 0.267188)"/>
     <use xlink:href="#Cmex10-70" transform="translate(332.095117 105.466406) scale(0.583622)"/>
     <use xlink:href="#Cmr10-33" transform="translate(399.19668 38.998437) scale(0.7)"/>
     <use xlink:href="#Cmr10-32" transform="translate(370.095117 -40.109375) scale(0.7)"/>
     <use xlink:href="#Cmmi10-3b" transform="translate(455.44668 0.267188)"/>
     <use xlink:href="#Cmr10-31" transform="translate(500.69082 37.767188) scale(0.7)"/>
     <use xlink:href="#Cmr10-32" transform="translate(500.69082 -40.109375) scale(0.7)"/>
     <use xlink:href="#Cmr10-29" transform="translate(548.19082 0.267188)"/>
     <path d="M 390.44668 103.25 
L 390.44668 107.625 
L 442.94668 107.625 
L 442.94668 103.25 
L 390.44668 103.25 
z
"/>
     <path d="M 332.095117 12.767188 
L 332.095117 19.017188 
L 442.94668 19.017188 
L 442.94668 12.767188 
L 332.095117 12.767188 
z
"/>
     <path d="M 500.69082 12.767188 
L 500.69082 19.017188 
L 535.69082 19.017188 
L 535.69082 12.767188 
L 500.69082 12.767188 
z
"/>
    </g>
   </g>
   <g id="text_10">
    <!-- $P_{\pi/4}=(\frac{\sqrt{2}}{2},\frac{\sqrt{2}}{2})$ -->
    <g transform="translate(269.337066 57.132037) scale(0.14 -0.14)">
     <defs>
      <path id="Cmr10-34" d="M 178 1056 
L 178 1281 
L 2156 4231 
Q 2178 4263 2222 4263 
L 2316 4263 
Q 2388 4263 2388 4191 
L 2388 1281 
L 3016 1281 
L 3016 1056 
L 2388 1056 
L 2388 428 
Q 2388 297 2575 261 
Q 2763 225 3009 225 
L 3009 0 
L 1247 0 
L 1247 225 
Q 1494 225 1681 261 
Q 1869 297 1869 428 
L 1869 1056 
L 178 1056 
z
M 391 1281 
L 1906 1281 
L 1906 3547 
L 391 1281 
z
" transform="scale(0.015625)"/>
     </defs>
     <use xlink:href="#Cmmi10-50" transform="translate(0 0.798438)"/>
     <use xlink:href="#Cmmi10-bc" transform="translate(64.208984 -16.207812) scale(0.7)"/>
     <use xlink:href="#Cmmi10-3d" transform="translate(104.09668 -16.207812) scale(0.7)"/>
     <use xlink:href="#Cmr10-34" transform="translate(139.09668 -16.207812) scale(0.7)"/>
     <use xlink:href="#Cmr10-3d" transform="translate(198.032617 0.798438)"/>
     <use xlink:href="#Cmr10-28" transform="translate(293.276758 0.798438)"/>
     <use xlink:href="#Cmex10-70" transform="translate(332.095117 104.505469) scale(0.570772)"/>
     <use xlink:href="#Cmr10-32" transform="translate(397.916992 37.998437) scale(0.7)"/>
     <use xlink:href="#Cmr10-32" transform="translate(369.095117 -39.578125) scale(0.7)"/>
     <use xlink:href="#Cmmi10-3b" transform="translate(454.166992 0.798438)"/>
     <use xlink:href="#Cmex10-70" transform="translate(499.411133 104.505469) scale(0.570772)"/>
     <use xlink:href="#Cmr10-32" transform="translate(565.233008 37.998437) scale(0.7)"/>
     <use xlink:href="#Cmr10-32" transform="translate(536.411133 -39.578125) scale(0.7)"/>
     <use xlink:href="#Cmr10-29" transform="translate(621.483008 0.798438)"/>
     <path d="M 389.166992 102.25 
L 389.166992 106.625 
L 441.666992 106.625 
L 441.666992 102.25 
L 389.166992 102.25 
z
"/>
     <path d="M 332.095117 13.298438 
L 332.095117 19.548438 
L 441.666992 19.548438 
L 441.666992 13.298438 
L 332.095117 13.298438 
z
"/>
     <path d="M 556.483008 102.25 
L 556.483008 106.625 
L 608.983008 106.625 
L 608.983008 102.25 
L 556.483008 102.25 
z
"/>
     <path d="M 499.411133 13.298438 
L 499.411133 19.548438 
L 608.983008 19.548438 
L 608.983008 13.298438 
L 499.411133 13.298438 
z
"/>
    </g>
   </g>
   <g id="text_11">
    <!-- $P_{\pi/3}=(\frac{1}{2},\frac{\sqrt{3}}{2})$ -->
    <g transform="translate(237.935599 22.88) scale(0.14 -0.14)">
     <use xlink:href="#Cmmi10-50" transform="translate(0 0.267188)"/>
     <use xlink:href="#Cmmi10-bc" transform="translate(64.208984 -16.739062) scale(0.7)"/>
     <use xlink:href="#Cmmi10-3d" transform="translate(104.09668 -16.739062) scale(0.7)"/>
     <use xlink:href="#Cmr10-33" transform="translate(139.09668 -16.739062) scale(0.7)"/>
     <use xlink:href="#Cmr10-3d" transform="translate(198.032617 0.267188)"/>
     <use xlink:href="#Cmr10-28" transform="translate(293.276758 0.267188)"/>
     <use xlink:href="#Cmr10-31" transform="translate(332.095117 37.767188) scale(0.7)"/>
     <use xlink:href="#Cmr10-32" transform="translate(332.095117 -40.109375) scale(0.7)"/>
     <use xlink:href="#Cmmi10-3b" transform="translate(379.595117 0.267188)"/>
     <use xlink:href="#Cmex10-70" transform="translate(424.839258 105.466406) scale(0.583622)"/>
     <use xlink:href="#Cmr10-33" transform="translate(491.94082 38.998437) scale(0.7)"/>
     <use xlink:href="#Cmr10-32" transform="translate(462.839258 -40.109375) scale(0.7)"/>
     <use xlink:href="#Cmr10-29" transform="translate(548.19082 0.267188)"/>
     <path d="M 332.095117 12.767188 
L 332.095117 19.017188 
L 367.095117 19.017188 
L 367.095117 12.767188 
L 332.095117 12.767188 
z
"/>
     <path d="M 483.19082 103.25 
L 483.19082 107.625 
L 535.69082 107.625 
L 535.69082 103.25 
L 483.19082 103.25 
z
"/>
     <path d="M 424.839258 12.767188 
L 424.839258 19.017188 
L 535.69082 19.017188 
L 535.69082 12.767188 
L 424.839258 12.767188 
z
"/>
    </g>
   </g>
  </g>
 </g>
 <defs>
  <clipPath id="pd6f38c2e74">
   <rect x="12.88841" y="11.840277" width="335.555825" height="315.625577"/>
  </clipPath>
 </defs>
</svg>
