<?xml version="1.0" encoding="utf-8" standalone="no"?>
<!DOCTYPE svg PUBLIC "-//W3C//DTD SVG 1.1//EN"
  "http://www.w3.org/Graphics/SVG/1.1/DTD/svg11.dtd">
<svg xmlns:xlink="http://www.w3.org/1999/xlink" width="455.93468pt" height="333.313656pt" viewBox="0 0 455.93468 333.313656" xmlns="http://www.w3.org/2000/svg" version="1.1">
 <metadata>
  <rdf:RDF xmlns:dc="http://purl.org/dc/elements/1.1/" xmlns:cc="http://creativecommons.org/ns#" xmlns:rdf="http://www.w3.org/1999/02/22-rdf-syntax-ns#">
   <cc:Work>
    <dc:type rdf:resource="http://purl.org/dc/dcmitype/StillImage"/>
    <dc:date>2026-02-26T10:01:53.442473</dc:date>
    <dc:format>image/svg+xml</dc:format>
    <dc:creator>
     <cc:Agent>
      <dc:title>Matplotlib v3.8.0, https://matplotlib.org/</dc:title>
     </cc:Agent>
    </dc:creator>
   </cc:Work>
  </rdf:RDF>
 </metadata>
 <defs>
  <style type="text/css">*{stroke-linejoin: round; stroke-linecap: butt}</style>
 </defs>
 <g id="figure_1">
  <g id="patch_1">
   <path d="M 0 333.313656 
L 455.93468 333.313656 
L 455.93468 0 
L 0 0 
z
" style="fill: #ffffff"/>
  </g>
  <g id="axes_1">
   <g id="patch_2">
    <path d="M 47.704767 324.483929 
L 411.239913 324.483929 
L 411.239913 8.829727 
L 47.704767 8.829727 
z
" style="fill: #ffffff"/>
   </g>
   <g id="PathCollection_1">
    <defs>
     <path id="C0_0_4208c0ecc4" d="M 0 3.535534 
C 0.937635 3.535534 1.836992 3.163008 2.5 2.5 
C 3.163008 1.836992 3.535534 0.937635 3.535534 -0 
C 3.535534 -0.937635 3.163008 -1.836992 2.5 -2.5 
C 1.836992 -3.163008 0.937635 -3.535534 0 -3.535534 
C -0.937635 -3.535534 -1.836992 -3.163008 -2.5 -2.5 
C -3.163008 -1.836992 -3.535534 -0.937635 -3.535534 0 
C -3.535534 0.937635 -3.163008 1.836992 -2.5 2.5 
C -1.836992 3.163008 -0.937635 3.535534 0 3.535534 
z
"/>
    </defs>
    <g clip-path="url(#pc5b5d248d6)">
     <use xlink:href="#C0_0_4208c0ecc4" x="359.040064" y="163.709146" style="fill: #ff0000"/>
    </g>
    <g clip-path="url(#pc5b5d248d6)">
     <use xlink:href="#C0_0_4208c0ecc4" x="341.68128" y="98.925284" style="fill: #ff0000"/>
    </g>
    <g clip-path="url(#pc5b5d248d6)">
     <use xlink:href="#C0_0_4208c0ecc4" x="294.256202" y="51.500206" style="fill: #ff0000"/>
    </g>
    <g clip-path="url(#pc5b5d248d6)">
     <use xlink:href="#C0_0_4208c0ecc4" x="229.47234" y="34.141422" style="fill: #ff0000"/>
    </g>
    <g clip-path="url(#pc5b5d248d6)">
     <use xlink:href="#C0_0_4208c0ecc4" x="164.688478" y="51.500206" style="fill: #ff0000"/>
    </g>
    <g clip-path="url(#pc5b5d248d6)">
     <use xlink:href="#C0_0_4208c0ecc4" x="117.2634" y="98.925284" style="fill: #ff0000"/>
    </g>
    <g clip-path="url(#pc5b5d248d6)">
     <use xlink:href="#C0_0_4208c0ecc4" x="99.904616" y="163.709146" style="fill: #ff0000"/>
    </g>
    <g clip-path="url(#pc5b5d248d6)">
     <use xlink:href="#C0_0_4208c0ecc4" x="117.2634" y="228.493008" style="fill: #ff0000"/>
    </g>
    <g clip-path="url(#pc5b5d248d6)">
     <use xlink:href="#C0_0_4208c0ecc4" x="164.688478" y="275.918086" style="fill: #ff0000"/>
    </g>
    <g clip-path="url(#pc5b5d248d6)">
     <use xlink:href="#C0_0_4208c0ecc4" x="229.47234" y="293.27687" style="fill: #ff0000"/>
    </g>
    <g clip-path="url(#pc5b5d248d6)">
     <use xlink:href="#C0_0_4208c0ecc4" x="294.256202" y="275.918086" style="fill: #ff0000"/>
    </g>
    <g clip-path="url(#pc5b5d248d6)">
     <use xlink:href="#C0_0_4208c0ecc4" x="341.68128" y="228.493008" style="fill: #ff0000"/>
    </g>
    <g clip-path="url(#pc5b5d248d6)">
     <use xlink:href="#C0_0_4208c0ecc4" x="359.040064" y="163.709146" style="fill: #ff0000"/>
    </g>
   </g>
   <g id="PathCollection_2">
    <defs>
     <path id="C1_0_72483fd280" d="M 0 3.535534 
C 0.937635 3.535534 1.836992 3.163008 2.5 2.5 
C 3.163008 1.836992 3.535534 0.937635 3.535534 -0 
C 3.535534 -0.937635 3.163008 -1.836992 2.5 -2.5 
C 1.836992 -3.163008 0.937635 -3.535534 0 -3.535534 
C -0.937635 -3.535534 -1.836992 -3.163008 -2.5 -2.5 
C -3.163008 -1.836992 -3.535534 -0.937635 -3.535534 0 
C -3.535534 0.937635 -3.163008 1.836992 -2.5 2.5 
C -1.836992 3.163008 -0.937635 3.535534 0 3.535534 
z
"/>
    </defs>
    <g clip-path="url(#pc5b5d248d6)">
     <use xlink:href="#C1_0_72483fd280" x="359.040064" y="163.709146" style="fill: #ff0000"/>
    </g>
    <g clip-path="url(#pc5b5d248d6)">
     <use xlink:href="#C1_0_72483fd280" x="321.090556" y="72.09093" style="fill: #ff0000"/>
    </g>
    <g clip-path="url(#pc5b5d248d6)">
     <use xlink:href="#C1_0_72483fd280" x="229.47234" y="34.141422" style="fill: #ff0000"/>
    </g>
    <g clip-path="url(#pc5b5d248d6)">
     <use xlink:href="#C1_0_72483fd280" x="137.854124" y="72.09093" style="fill: #ff0000"/>
    </g>
    <g clip-path="url(#pc5b5d248d6)">
     <use xlink:href="#C1_0_72483fd280" x="99.904616" y="163.709146" style="fill: #ff0000"/>
    </g>
    <g clip-path="url(#pc5b5d248d6)">
     <use xlink:href="#C1_0_72483fd280" x="137.854124" y="255.327362" style="fill: #ff0000"/>
    </g>
    <g clip-path="url(#pc5b5d248d6)">
     <use xlink:href="#C1_0_72483fd280" x="229.47234" y="293.27687" style="fill: #ff0000"/>
    </g>
    <g clip-path="url(#pc5b5d248d6)">
     <use xlink:href="#C1_0_72483fd280" x="321.090556" y="255.327362" style="fill: #ff0000"/>
    </g>
    <g clip-path="url(#pc5b5d248d6)">
     <use xlink:href="#C1_0_72483fd280" x="359.040064" y="163.709146" style="fill: #ff0000"/>
    </g>
   </g>
   <g id="matplotlib.axis_1">
    <g id="xtick_1">
     <g id="line2d_1">
      <defs>
       <path id="m92d29e7002" d="M 0 0 
L 0 3.5 
" style="stroke: #000000; stroke-width: 0.8"/>
      </defs>
      <g>
       <use xlink:href="#m92d29e7002" x="99.904616" y="163.709146" style="stroke: #000000; stroke-width: 0.8"/>
      </g>
     </g>
     <g id="text_1">
      <!-- −1.0 -->
      <g transform="translate(87.76321 178.307583) scale(0.1 -0.1)">
       <defs>
        <path id="DejaVuSans-2212" d="M 678 2272 
L 4684 2272 
L 4684 1741 
L 678 1741 
L 678 2272 
z
" transform="scale(0.015625)"/>
        <path id="DejaVuSans-31" d="M 794 531 
L 1825 531 
L 1825 4091 
L 703 3866 
L 703 4441 
L 1819 4666 
L 2450 4666 
L 2450 531 
L 3481 531 
L 3481 0 
L 794 0 
L 794 531 
z
" transform="scale(0.015625)"/>
        <path id="DejaVuSans-2e" d="M 684 794 
L 1344 794 
L 1344 0 
L 684 0 
L 684 794 
z
" transform="scale(0.015625)"/>
        <path id="DejaVuSans-30" d="M 2034 4250 
Q 1547 4250 1301 3770 
Q 1056 3291 1056 2328 
Q 1056 1369 1301 889 
Q 1547 409 2034 409 
Q 2525 409 2770 889 
Q 3016 1369 3016 2328 
Q 3016 3291 2770 3770 
Q 2525 4250 2034 4250 
z
M 2034 4750 
Q 2819 4750 3233 4129 
Q 3647 3509 3647 2328 
Q 3647 1150 3233 529 
Q 2819 -91 2034 -91 
Q 1250 -91 836 529 
Q 422 1150 422 2328 
Q 422 3509 836 4129 
Q 1250 4750 2034 4750 
z
" transform="scale(0.015625)"/>
       </defs>
       <use xlink:href="#DejaVuSans-2212"/>
       <use xlink:href="#DejaVuSans-31" x="83.789062"/>
       <use xlink:href="#DejaVuSans-2e" x="147.412109"/>
       <use xlink:href="#DejaVuSans-30" x="179.199219"/>
      </g>
     </g>
    </g>
    <g id="xtick_2">
     <g id="line2d_2">
      <g>
       <use xlink:href="#m92d29e7002" x="164.688478" y="163.709146" style="stroke: #000000; stroke-width: 0.8"/>
      </g>
     </g>
     <g id="text_2">
      <!-- −0.5 -->
      <g transform="translate(152.547072 178.307583) scale(0.1 -0.1)">
       <defs>
        <path id="DejaVuSans-35" d="M 691 4666 
L 3169 4666 
L 3169 4134 
L 1269 4134 
L 1269 2991 
Q 1406 3038 1543 3061 
Q 1681 3084 1819 3084 
Q 2600 3084 3056 2656 
Q 3513 2228 3513 1497 
Q 3513 744 3044 326 
Q 2575 -91 1722 -91 
Q 1428 -91 1123 -41 
Q 819 9 494 109 
L 494 744 
Q 775 591 1075 516 
Q 1375 441 1709 441 
Q 2250 441 2565 725 
Q 2881 1009 2881 1497 
Q 2881 1984 2565 2268 
Q 2250 2553 1709 2553 
Q 1456 2553 1204 2497 
Q 953 2441 691 2322 
L 691 4666 
z
" transform="scale(0.015625)"/>
       </defs>
       <use xlink:href="#DejaVuSans-2212"/>
       <use xlink:href="#DejaVuSans-30" x="83.789062"/>
       <use xlink:href="#DejaVuSans-2e" x="147.412109"/>
       <use xlink:href="#DejaVuSans-35" x="179.199219"/>
      </g>
     </g>
    </g>
    <g id="xtick_3">
     <g id="line2d_3">
      <g>
       <use xlink:href="#m92d29e7002" x="294.256202" y="163.709146" style="stroke: #000000; stroke-width: 0.8"/>
      </g>
     </g>
     <g id="text_3">
      <!-- 0.5 -->
      <g transform="translate(286.304639 178.307583) scale(0.1 -0.1)">
       <use xlink:href="#DejaVuSans-30"/>
       <use xlink:href="#DejaVuSans-2e" x="63.623047"/>
       <use xlink:href="#DejaVuSans-35" x="95.410156"/>
      </g>
     </g>
    </g>
    <g id="xtick_4">
     <g id="line2d_4">
      <g>
       <use xlink:href="#m92d29e7002" x="359.040064" y="163.709146" style="stroke: #000000; stroke-width: 0.8"/>
      </g>
     </g>
     <g id="text_4">
      <!-- 1.0 -->
      <g transform="translate(351.088501 178.307583) scale(0.1 -0.1)">
       <use xlink:href="#DejaVuSans-31"/>
       <use xlink:href="#DejaVuSans-2e" x="63.623047"/>
       <use xlink:href="#DejaVuSans-30" x="95.410156"/>
      </g>
     </g>
    </g>
   </g>
   <g id="matplotlib.axis_2">
    <g id="ytick_1">
     <g id="line2d_5">
      <defs>
       <path id="m8d44f22b5e" d="M 0 0 
L -3.5 0 
" style="stroke: #000000; stroke-width: 0.8"/>
      </defs>
      <g>
       <use xlink:href="#m8d44f22b5e" x="229.47234" y="293.27687" style="stroke: #000000; stroke-width: 0.8"/>
      </g>
     </g>
     <g id="text_5">
      <!-- −1.0 -->
      <g transform="translate(198.189528 297.076088) scale(0.1 -0.1)">
       <use xlink:href="#DejaVuSans-2212"/>
       <use xlink:href="#DejaVuSans-31" x="83.789062"/>
       <use xlink:href="#DejaVuSans-2e" x="147.412109"/>
       <use xlink:href="#DejaVuSans-30" x="179.199219"/>
      </g>
     </g>
    </g>
    <g id="ytick_2">
     <g id="line2d_6">
      <g>
       <use xlink:href="#m8d44f22b5e" x="229.47234" y="228.493008" style="stroke: #000000; stroke-width: 0.8"/>
      </g>
     </g>
     <g id="text_6">
      <!-- −0.5 -->
      <g transform="translate(198.189528 232.292227) scale(0.1 -0.1)">
       <use xlink:href="#DejaVuSans-2212"/>
       <use xlink:href="#DejaVuSans-30" x="83.789062"/>
       <use xlink:href="#DejaVuSans-2e" x="147.412109"/>
       <use xlink:href="#DejaVuSans-35" x="179.199219"/>
      </g>
     </g>
    </g>
    <g id="ytick_3">
     <g id="line2d_7">
      <g>
       <use xlink:href="#m8d44f22b5e" x="229.47234" y="98.925284" style="stroke: #000000; stroke-width: 0.8"/>
      </g>
     </g>
     <g id="text_7">
      <!-- 0.5 -->
      <g transform="translate(206.569215 102.724503) scale(0.1 -0.1)">
       <use xlink:href="#DejaVuSans-30"/>
       <use xlink:href="#DejaVuSans-2e" x="63.623047"/>
       <use xlink:href="#DejaVuSans-35" x="95.410156"/>
      </g>
     </g>
    </g>
    <g id="ytick_4">
     <g id="line2d_8">
      <g>
       <use xlink:href="#m8d44f22b5e" x="229.47234" y="34.141422" style="stroke: #000000; stroke-width: 0.8"/>
      </g>
     </g>
     <g id="text_8">
      <!-- 1.0 -->
      <g transform="translate(206.569215 37.940641) scale(0.1 -0.1)">
       <use xlink:href="#DejaVuSans-31"/>
       <use xlink:href="#DejaVuSans-2e" x="63.623047"/>
       <use xlink:href="#DejaVuSans-30" x="95.410156"/>
      </g>
     </g>
    </g>
   </g>
   <g id="line2d_9">
    <path d="M 359.040064 163.709146 
L 358.870488 157.082351 
L 358.409491 150.941757 
L 357.762431 145.558452 
L 357.015019 140.891172 
L 355.891686 135.319993 
L 355.111633 132.045871 
L 353.667146 126.784286 
L 351.468931 120.067115 
L 349.203189 114.188254 
L 347.92332 111.200476 
L 346.156251 107.382775 
L 343.905334 102.940034 
L 341.138405 97.993965 
L 337.37099 91.975776 
L 334.534144 87.881628 
L 329.204159 80.996636 
L 327.242982 78.687404 
L 320.697793 71.699844 
L 318.664372 69.727358 
L 315.52577 66.845312 
L 309.591812 61.882503 
L 305.982806 59.143647 
L 300.504403 55.347524 
L 297.17896 53.239201 
L 293.873851 51.280322 
L 290.567289 49.449782 
L 286.796951 47.512399 
L 282.572694 45.522229 
L 276.426861 42.948772 
L 269.557918 40.498183 
L 262.871811 38.520207 
L 259.48057 37.664308 
L 255.042708 36.689654 
L 251.427184 36.015059 
L 246.031001 35.203871 
L 241.66314 34.716203 
L 238.041678 34.425112 
L 234.195685 34.227545 
L 228.496882 34.145094 
L 224.167026 34.250084 
L 220.144769 34.477604 
L 216.223292 34.820598 
L 211.802598 35.351929 
L 204.400291 36.590354 
L 200.10009 37.51459 
L 194.147093 39.049923 
L 190.425296 40.165132 
L 183.221047 42.677692 
L 181.076202 43.519259 
L 176.604329 45.418113 
L 171.097066 48.036667 
L 164.275254 51.739797 
L 157.975015 55.65394 
L 154.002858 58.389858 
L 148.39429 62.644094 
L 143.081942 67.145726 
L 140.88259 69.159417 
L 134.811616 75.238007 
L 129.384838 81.427392 
L 124.653965 87.545485 
L 120.111584 94.22519 
L 118.110201 97.480232 
L 115.371684 102.318306 
L 112.237188 108.539279 
L 110.14209 113.230571 
L 108.579071 117.097854 
L 107.167149 120.939586 
L 104.639097 129.003867 
L 103.531754 133.266351 
L 101.859553 141.28658 
L 100.835056 148.209336 
L 100.190691 155.103896 
L 99.980946 159.262363 
L 99.932863 166.414481 
L 100.072964 170.311901 
L 100.651269 177.598953 
L 101.500737 183.983857 
L 102.736072 190.648214 
L 103.193052 192.714944 
L 104.53263 198.029168 
L 106.543617 204.652084 
L 108.479749 210.062009 
L 110.889338 215.91898 
L 112.539956 219.51786 
L 115.567046 225.461709 
L 118.452986 230.511077 
L 122.599161 236.961576 
L 127.687811 243.882113 
L 132.899285 250.088774 
L 136.868207 254.33072 
L 139.651847 257.090483 
L 143.56627 260.703693 
L 146.220222 262.990966 
L 152.153912 267.67864 
L 155.845918 270.325022 
L 162.3703 274.547367 
L 164.287308 275.685512 
L 169.007676 278.303297 
L 175.681528 281.583416 
L 179.755352 283.358701 
L 184.68968 285.291663 
L 191.017326 287.438718 
L 199.916455 289.860819 
L 206.723477 291.26417 
L 210.158273 291.829253 
L 215.117359 292.479211 
L 221.759449 293.0471 
L 229.421911 293.27686 
L 230.689709 293.271151 
L 236.812373 293.068796 
L 243.020358 292.566611 
L 249.698777 291.688388 
L 257.036322 290.31097 
L 263.576414 288.707975 
L 268.820511 287.157582 
L 275.638667 284.773035 
L 280.273424 282.902455 
L 287.756688 279.427467 
L 293.693614 276.241021 
L 300.113004 272.326325 
L 304.654372 269.233822 
L 308.184684 266.627376 
L 313.082595 262.68955 
L 318.219421 258.111215 
L 323.383799 252.975225 
L 326.238621 249.872258 
L 330.434078 244.915812 
L 334.550987 239.513321 
L 338.092571 234.345117 
L 339.965049 231.378609 
L 342.946307 226.250763 
L 345.901164 220.560918 
L 347.678111 216.767516 
L 350.666515 209.532362 
L 352.60272 204.041571 
L 353.975749 199.579695 
L 355.178982 195.103975 
L 356.200579 190.685959 
L 357.217774 185.363222 
L 358.127127 179.063001 
L 358.590614 174.491836 
L 358.895416 169.829798 
L 359.040064 163.709146 
L 359.040064 163.709146 
" clip-path="url(#pc5b5d248d6)" style="fill: none; stroke: #0000ff; stroke-linecap: square"/>
   </g>
   <g id="line2d_10">
    <path d="M 229.47234 163.709146 
L 341.68128 98.925284 
" clip-path="url(#pc5b5d248d6)" style="fill: none; stroke-dasharray: 3.7,1.6; stroke-dashoffset: 0; stroke: #000000"/>
   </g>
   <g id="patch_3">
    <path d="M 229.47234 324.483929 
L 229.47234 8.829727 
" style="fill: none; stroke: #000000; stroke-width: 0.8; stroke-linejoin: miter; stroke-linecap: square"/>
   </g>
   <g id="patch_4">
    <path d="M 47.704767 163.709146 
L 411.239913 163.709146 
" style="fill: none; stroke: #000000; stroke-width: 0.8; stroke-linejoin: miter; stroke-linecap: square"/>
   </g>
   <g id="text_9">
    <!-- $P_{\pi/6}=(\frac{\sqrt{3}}{2},\frac{1}{2})$ -->
    <g transform="translate(341.863084 99.443732) scale(0.14 -0.14)">
     <defs>
      <path id="Cmmi10-50" d="M 313 0 
Q 250 0 250 84 
Q 253 100 262 139 
Q 272 178 289 201 
Q 306 225 331 225 
Q 722 225 878 269 
Q 959 297 997 441 
L 1875 3956 
Q 1888 4019 1888 4044 
Q 1888 4113 1813 4122 
Q 1691 4147 1350 4147 
Q 1288 4147 1288 4231 
Q 1291 4247 1300 4286 
Q 1309 4325 1326 4348 
Q 1344 4372 1369 4372 
L 3578 4372 
Q 3881 4372 4165 4264 
Q 4450 4156 4631 3934 
Q 4813 3713 4813 3397 
Q 4813 2991 4527 2672 
Q 4241 2353 3814 2175 
Q 3388 1997 2988 1997 
L 1947 1997 
L 1556 416 
Q 1544 353 1544 325 
Q 1544 300 1551 283 
Q 1559 266 1573 261 
Q 1588 256 1619 250 
Q 1741 225 2081 225 
Q 2144 225 2144 141 
Q 2122 50 2109 25 
Q 2097 0 2034 0 
L 313 0 
z
M 1978 2188 
L 2875 2188 
Q 3497 2188 3822 2522 
Q 3988 2688 4092 3000 
Q 4197 3313 4197 3566 
Q 4197 3881 3956 4014 
Q 3716 4147 3359 4147 
L 2747 4147 
Q 2572 4147 2515 4117 
Q 2459 4088 2413 3928 
L 1978 2188 
z
" transform="scale(0.015625)"/>
      <path id="Cmmi10-bc" d="M 647 109 
Q 647 144 672 213 
Q 850 584 1004 942 
Q 1159 1300 1282 1639 
Q 1406 1978 1509 2363 
L 1100 2363 
Q 866 2363 662 2216 
Q 459 2069 325 1844 
Q 313 1819 288 1819 
L 213 1819 
Q 153 1819 153 1881 
Q 153 1894 166 1919 
Q 375 2275 614 2517 
Q 853 2759 1153 2759 
L 3475 2759 
Q 3541 2759 3587 2715 
Q 3634 2672 3634 2597 
Q 3634 2503 3567 2433 
Q 3500 2363 3406 2363 
L 2591 2363 
Q 2488 1859 2478 1381 
Q 2478 766 2694 269 
Q 2713 231 2713 191 
Q 2713 122 2672 62 
Q 2631 3 2567 -34 
Q 2503 -72 2431 -72 
Q 2263 -72 2200 203 
Q 2138 478 2138 738 
Q 2138 1103 2200 1442 
Q 2263 1781 2400 2363 
L 1703 2363 
Q 1197 313 1094 103 
Q 1003 -72 844 -72 
Q 766 -72 706 -20 
Q 647 31 647 109 
z
" transform="scale(0.015625)"/>
      <path id="Cmmi10-3d" d="M 359 -1472 
Q 359 -1453 366 -1447 
L 2591 4722 
Q 2603 4759 2634 4779 
Q 2666 4800 2706 4800 
Q 2763 4800 2798 4765 
Q 2834 4731 2834 4672 
L 2834 4647 
L 609 -1522 
Q 572 -1600 488 -1600 
Q 434 -1600 396 -1562 
Q 359 -1525 359 -1472 
z
" transform="scale(0.015625)"/>
      <path id="Cmr10-36" d="M 1600 -141 
Q 1203 -141 937 70 
Q 672 281 526 617 
Q 381 953 325 1322 
Q 269 1691 269 2069 
Q 269 2575 466 3084 
Q 663 3594 1045 3928 
Q 1428 4263 1953 4263 
Q 2172 4263 2361 4180 
Q 2550 4097 2658 3936 
Q 2766 3775 2766 3547 
Q 2766 3416 2677 3327 
Q 2588 3238 2456 3238 
Q 2331 3238 2240 3328 
Q 2150 3419 2150 3547 
Q 2150 3672 2240 3762 
Q 2331 3853 2456 3853 
L 2491 3853 
Q 2409 3969 2261 4023 
Q 2113 4078 1953 4078 
Q 1759 4078 1595 3993 
Q 1431 3909 1300 3765 
Q 1169 3622 1081 3448 
Q 994 3275 945 3053 
Q 897 2831 884 2637 
Q 872 2444 872 2150 
Q 984 2413 1190 2580 
Q 1397 2747 1656 2747 
Q 1941 2747 2175 2631 
Q 2409 2516 2578 2311 
Q 2747 2106 2836 1843 
Q 2925 1581 2925 1313 
Q 2925 938 2758 598 
Q 2591 259 2287 59 
Q 1984 -141 1600 -141 
z
M 1600 63 
Q 1847 63 1997 175 
Q 2147 288 2217 473 
Q 2288 659 2305 848 
Q 2322 1038 2322 1313 
Q 2322 1675 2287 1931 
Q 2253 2188 2100 2383 
Q 1947 2578 1631 2578 
Q 1372 2578 1205 2403 
Q 1038 2228 961 1961 
Q 884 1694 884 1447 
Q 884 1363 891 1319 
Q 891 1309 889 1303 
Q 888 1297 884 1288 
Q 884 1013 940 731 
Q 997 450 1156 256 
Q 1316 63 1600 63 
z
" transform="scale(0.015625)"/>
      <path id="Cmr10-3d" d="M 481 850 
Q 428 850 393 890 
Q 359 931 359 978 
Q 359 1031 393 1068 
Q 428 1106 481 1106 
L 4500 1106 
Q 4547 1106 4581 1068 
Q 4616 1031 4616 978 
Q 4616 931 4581 890 
Q 4547 850 4500 850 
L 481 850 
z
M 481 2094 
Q 428 2094 393 2131 
Q 359 2169 359 2222 
Q 359 2269 393 2309 
Q 428 2350 481 2350 
L 4500 2350 
Q 4547 2350 4581 2309 
Q 4616 2269 4616 2222 
Q 4616 2169 4581 2131 
Q 4547 2094 4500 2094 
L 481 2094 
z
" transform="scale(0.015625)"/>
      <path id="Cmr10-28" d="M 1984 -1588 
Q 1628 -1306 1370 -942 
Q 1113 -578 948 -165 
Q 784 247 703 697 
Q 622 1147 622 1600 
Q 622 2059 703 2509 
Q 784 2959 951 3375 
Q 1119 3791 1378 4153 
Q 1638 4516 1984 4788 
Q 1984 4800 2016 4800 
L 2075 4800 
Q 2094 4800 2109 4783 
Q 2125 4766 2125 4744 
Q 2125 4716 2113 4703 
Q 1800 4397 1592 4047 
Q 1384 3697 1257 3301 
Q 1131 2906 1075 2482 
Q 1019 2059 1019 1600 
Q 1019 -434 2106 -1491 
Q 2125 -1509 2125 -1544 
Q 2125 -1559 2108 -1579 
Q 2091 -1600 2075 -1600 
L 2016 -1600 
Q 1984 -1600 1984 -1588 
z
" transform="scale(0.015625)"/>
      <path id="Cmex10-70" d="M 2713 -7425 
L 1269 -4063 
L 819 -4409 
L 703 -4294 
L 1619 -3584 
L 2969 -6725 
L 6291 197 
Q 6322 256 6400 256 
Q 6453 256 6490 218 
Q 6528 181 6528 128 
Q 6528 97 6522 84 
L 2950 -7366 
Q 2925 -7425 2853 -7425 
L 2713 -7425 
z
" transform="scale(0.015625)"/>
      <path id="Cmr10-33" d="M 609 494 
Q 759 275 1012 169 
Q 1266 63 1556 63 
Q 1928 63 2084 380 
Q 2241 697 2241 1100 
Q 2241 1281 2208 1462 
Q 2175 1644 2097 1800 
Q 2019 1956 1883 2050 
Q 1747 2144 1550 2144 
L 1125 2144 
Q 1069 2144 1069 2203 
L 1069 2259 
Q 1069 2309 1125 2309 
L 1478 2338 
Q 1703 2338 1851 2506 
Q 2000 2675 2069 2917 
Q 2138 3159 2138 3378 
Q 2138 3684 1994 3881 
Q 1850 4078 1556 4078 
Q 1313 4078 1091 3986 
Q 869 3894 738 3706 
Q 750 3709 759 3711 
Q 769 3713 781 3713 
Q 925 3713 1022 3613 
Q 1119 3513 1119 3372 
Q 1119 3234 1022 3134 
Q 925 3034 781 3034 
Q 641 3034 541 3134 
Q 441 3234 441 3372 
Q 441 3647 606 3850 
Q 772 4053 1033 4158 
Q 1294 4263 1556 4263 
Q 1750 4263 1965 4205 
Q 2181 4147 2356 4039 
Q 2531 3931 2642 3762 
Q 2753 3594 2753 3378 
Q 2753 3109 2633 2881 
Q 2513 2653 2303 2487 
Q 2094 2322 1844 2241 
Q 2122 2188 2372 2031 
Q 2622 1875 2773 1631 
Q 2925 1388 2925 1106 
Q 2925 753 2731 467 
Q 2538 181 2222 20 
Q 1906 -141 1556 -141 
Q 1256 -141 954 -26 
Q 653 88 461 316 
Q 269 544 269 863 
Q 269 1022 375 1128 
Q 481 1234 641 1234 
Q 744 1234 830 1186 
Q 916 1138 964 1050 
Q 1013 963 1013 863 
Q 1013 706 903 600 
Q 794 494 641 494 
L 609 494 
z
" transform="scale(0.015625)"/>
      <path id="Cmr10-32" d="M 319 0 
L 319 172 
Q 319 188 331 206 
L 1325 1306 
Q 1550 1550 1690 1715 
Q 1831 1881 1968 2097 
Q 2106 2313 2186 2536 
Q 2266 2759 2266 3009 
Q 2266 3272 2169 3511 
Q 2072 3750 1880 3894 
Q 1688 4038 1416 4038 
Q 1138 4038 916 3870 
Q 694 3703 603 3438 
Q 628 3444 672 3444 
Q 816 3444 917 3347 
Q 1019 3250 1019 3097 
Q 1019 2950 917 2848 
Q 816 2747 672 2747 
Q 522 2747 420 2851 
Q 319 2956 319 3097 
Q 319 3338 409 3548 
Q 500 3759 670 3923 
Q 841 4088 1055 4175 
Q 1269 4263 1509 4263 
Q 1875 4263 2190 4108 
Q 2506 3953 2690 3670 
Q 2875 3388 2875 3009 
Q 2875 2731 2753 2481 
Q 2631 2231 2440 2026 
Q 2250 1822 1953 1562 
Q 1656 1303 1563 1216 
L 838 519 
L 1453 519 
Q 1906 519 2211 526 
Q 2516 534 2534 550 
Q 2609 631 2688 1141 
L 2875 1141 
L 2694 0 
L 319 0 
z
" transform="scale(0.015625)"/>
      <path id="Cmmi10-3b" d="M 634 -1153 
Q 634 -1125 659 -1100 
Q 891 -878 1019 -587 
Q 1147 -297 1147 25 
L 1147 103 
Q 1044 0 891 0 
Q 744 0 641 103 
Q 538 206 538 353 
Q 538 503 641 603 
Q 744 703 891 703 
Q 1119 703 1216 492 
Q 1313 281 1313 25 
Q 1313 -331 1170 -651 
Q 1028 -972 769 -1228 
Q 744 -1241 728 -1241 
Q 697 -1241 665 -1212 
Q 634 -1184 634 -1153 
z
" transform="scale(0.015625)"/>
      <path id="Cmr10-31" d="M 594 0 
L 594 225 
Q 1394 225 1394 428 
L 1394 3788 
Q 1063 3628 556 3628 
L 556 3853 
Q 1341 3853 1741 4263 
L 1831 4263 
Q 1853 4263 1873 4245 
Q 1894 4228 1894 4206 
L 1894 428 
Q 1894 225 2694 225 
L 2694 0 
L 594 0 
z
" transform="scale(0.015625)"/>
      <path id="Cmr10-29" d="M 416 -1600 
Q 359 -1600 359 -1544 
Q 359 -1516 372 -1503 
Q 1466 -434 1466 1600 
Q 1466 3634 384 4691 
Q 359 4706 359 4744 
Q 359 4766 376 4783 
Q 394 4800 416 4800 
L 475 4800 
Q 494 4800 506 4788 
Q 966 4425 1272 3906 
Q 1578 3388 1720 2800 
Q 1863 2213 1863 1600 
Q 1863 1147 1786 708 
Q 1709 269 1542 -157 
Q 1375 -584 1119 -945 
Q 863 -1306 506 -1588 
Q 494 -1600 475 -1600 
L 416 -1600 
z
" transform="scale(0.015625)"/>
     </defs>
     <use xlink:href="#Cmmi10-50" transform="translate(0 0.267188)"/>
     <use xlink:href="#Cmmi10-bc" transform="translate(64.208984 -16.739062) scale(0.7)"/>
     <use xlink:href="#Cmmi10-3d" transform="translate(104.09668 -16.739062) scale(0.7)"/>
     <use xlink:href="#Cmr10-36" transform="translate(139.09668 -16.739062) scale(0.7)"/>
     <use xlink:href="#Cmr10-3d" transform="translate(198.032617 0.267188)"/>
     <use xlink:href="#Cmr10-28" transform="translate(293.276758 0.267188)"/>
     <use xlink:href="#Cmex10-70" transform="translate(332.095117 105.466406) scale(0.583622)"/>
     <use xlink:href="#Cmr10-33" transform="translate(399.19668 38.998437) scale(0.7)"/>
     <use xlink:href="#Cmr10-32" transform="translate(370.095117 -40.109375) scale(0.7)"/>
     <use xlink:href="#Cmmi10-3b" transform="translate(455.44668 0.267188)"/>
     <use xlink:href="#Cmr10-31" transform="translate(500.69082 37.767188) scale(0.7)"/>
     <use xlink:href="#Cmr10-32" transform="translate(500.69082 -40.109375) scale(0.7)"/>
     <use xlink:href="#Cmr10-29" transform="translate(548.19082 0.267188)"/>
     <path d="M 390.44668 103.25 
L 390.44668 107.625 
L 442.94668 107.625 
L 442.94668 103.25 
L 390.44668 103.25 
z
"/>
     <path d="M 332.095117 12.767188 
L 332.095117 19.017188 
L 442.94668 19.017188 
L 442.94668 12.767188 
L 332.095117 12.767188 
z
"/>
     <path d="M 500.69082 12.767188 
L 500.69082 19.017188 
L 535.69082 19.017188 
L 535.69082 12.767188 
L 500.69082 12.767188 
z
"/>
    </g>
   </g>
   <g id="text_10">
    <!-- $P_{\pi/4}=(\frac{\sqrt{2}}{2},\frac{\sqrt{2}}{2})$ -->
    <g transform="translate(313.601526 61.991015) scale(0.14 -0.14)">
     <defs>
      <path id="Cmr10-34" d="M 178 1056 
L 178 1281 
L 2156 4231 
Q 2178 4263 2222 4263 
L 2316 4263 
Q 2388 4263 2388 4191 
L 2388 1281 
L 3016 1281 
L 3016 1056 
L 2388 1056 
L 2388 428 
Q 2388 297 2575 261 
Q 2763 225 3009 225 
L 3009 0 
L 1247 0 
L 1247 225 
Q 1494 225 1681 261 
Q 1869 297 1869 428 
L 1869 1056 
L 178 1056 
z
M 391 1281 
L 1906 1281 
L 1906 3547 
L 391 1281 
z
" transform="scale(0.015625)"/>
     </defs>
     <use xlink:href="#Cmmi10-50" transform="translate(0 0.798438)"/>
     <use xlink:href="#Cmmi10-bc" transform="translate(64.208984 -16.207812) scale(0.7)"/>
     <use xlink:href="#Cmmi10-3d" transform="translate(104.09668 -16.207812) scale(0.7)"/>
     <use xlink:href="#Cmr10-34" transform="translate(139.09668 -16.207812) scale(0.7)"/>
     <use xlink:href="#Cmr10-3d" transform="translate(198.032617 0.798438)"/>
     <use xlink:href="#Cmr10-28" transform="translate(293.276758 0.798438)"/>
     <use xlink:href="#Cmex10-70" transform="translate(332.095117 104.505469) scale(0.570772)"/>
     <use xlink:href="#Cmr10-32" transform="translate(397.916992 37.998437) scale(0.7)"/>
     <use xlink:href="#Cmr10-32" transform="translate(369.095117 -39.578125) scale(0.7)"/>
     <use xlink:href="#Cmmi10-3b" transform="translate(454.166992 0.798438)"/>
     <use xlink:href="#Cmex10-70" transform="translate(499.411133 104.505469) scale(0.570772)"/>
     <use xlink:href="#Cmr10-32" transform="translate(565.233008 37.998437) scale(0.7)"/>
     <use xlink:href="#Cmr10-32" transform="translate(536.411133 -39.578125) scale(0.7)"/>
     <use xlink:href="#Cmr10-29" transform="translate(621.483008 0.798438)"/>
     <path d="M 389.166992 102.25 
L 389.166992 106.625 
L 441.666992 106.625 
L 441.666992 102.25 
L 389.166992 102.25 
z
"/>
     <path d="M 332.095117 13.298438 
L 332.095117 19.548438 
L 441.666992 19.548438 
L 441.666992 13.298438 
L 332.095117 13.298438 
z
"/>
     <path d="M 556.483008 102.25 
L 556.483008 106.625 
L 608.983008 106.625 
L 608.983008 102.25 
L 556.483008 102.25 
z
"/>
     <path d="M 499.411133 13.298438 
L 499.411133 19.548438 
L 608.983008 19.548438 
L 608.983008 13.298438 
L 499.411133 13.298438 
z
"/>
    </g>
   </g>
   <g id="text_11">
    <!-- $P_{\pi/3}=(\frac{1}{2},\frac{\sqrt{3}}{2})$ -->
    <g transform="translate(286.673479 31.944147) scale(0.14 -0.14)">
     <use xlink:href="#Cmmi10-50" transform="translate(0 0.267188)"/>
     <use xlink:href="#Cmmi10-bc" transform="translate(64.208984 -16.739062) scale(0.7)"/>
     <use xlink:href="#Cmmi10-3d" transform="translate(104.09668 -16.739062) scale(0.7)"/>
     <use xlink:href="#Cmr10-33" transform="translate(139.09668 -16.739062) scale(0.7)"/>
     <use xlink:href="#Cmr10-3d" transform="translate(198.032617 0.267188)"/>
     <use xlink:href="#Cmr10-28" transform="translate(293.276758 0.267188)"/>
     <use xlink:href="#Cmr10-31" transform="translate(332.095117 37.767188) scale(0.7)"/>
     <use xlink:href="#Cmr10-32" transform="translate(332.095117 -40.109375) scale(0.7)"/>
     <use xlink:href="#Cmmi10-3b" transform="translate(379.595117 0.267188)"/>
     <use xlink:href="#Cmex10-70" transform="translate(424.839258 105.466406) scale(0.583622)"/>
     <use xlink:href="#Cmr10-33" transform="translate(491.94082 38.998437) scale(0.7)"/>
     <use xlink:href="#Cmr10-32" transform="translate(462.839258 -40.109375) scale(0.7)"/>
     <use xlink:href="#Cmr10-29" transform="translate(548.19082 0.267188)"/>
     <path d="M 332.095117 12.767188 
L 332.095117 19.017188 
L 367.095117 19.017188 
L 367.095117 12.767188 
L 332.095117 12.767188 
z
"/>
     <path d="M 483.19082 103.25 
L 483.19082 107.625 
L 535.69082 107.625 
L 535.69082 103.25 
L 483.19082 103.25 
z
"/>
     <path d="M 424.839258 12.767188 
L 424.839258 19.017188 
L 535.69082 19.017188 
L 535.69082 12.767188 
L 424.839258 12.767188 
z
"/>
    </g>
   </g>
   <g id="text_12">
    <!-- $P_{5\pi/6}=(-\frac{\sqrt{3}}{2},\frac{1}{2})$ -->
    <g transform="translate(24.808495 88.90118) scale(0.14 -0.14)">
     <defs>
      <path id="Cmr10-35" d="M 556 728 
Q 622 541 758 387 
Q 894 234 1080 148 
Q 1266 63 1466 63 
Q 1928 63 2103 422 
Q 2278 781 2278 1294 
Q 2278 1516 2270 1667 
Q 2263 1819 2228 1959 
Q 2169 2184 2020 2353 
Q 1872 2522 1656 2522 
Q 1441 2522 1286 2456 
Q 1131 2391 1034 2303 
Q 938 2216 863 2119 
Q 788 2022 769 2016 
L 697 2016 
Q 681 2016 657 2036 
Q 634 2056 634 2075 
L 634 4213 
Q 634 4228 654 4245 
Q 675 4263 697 4263 
L 716 4263 
Q 1147 4056 1631 4056 
Q 2106 4056 2547 4263 
L 2566 4263 
Q 2588 4263 2606 4247 
Q 2625 4231 2625 4213 
L 2625 4153 
Q 2625 4122 2613 4122 
Q 2394 3831 2064 3668 
Q 1734 3506 1381 3506 
Q 1125 3506 856 3578 
L 856 2369 
Q 1069 2541 1236 2614 
Q 1403 2688 1663 2688 
Q 2016 2688 2295 2484 
Q 2575 2281 2725 1954 
Q 2875 1628 2875 1288 
Q 2875 903 2686 575 
Q 2497 247 2172 53 
Q 1847 -141 1466 -141 
Q 1150 -141 886 21 
Q 622 184 470 459 
Q 319 734 319 1044 
Q 319 1188 412 1278 
Q 506 1369 647 1369 
Q 788 1369 883 1276 
Q 978 1184 978 1044 
Q 978 906 883 811 
Q 788 716 647 716 
Q 625 716 597 720 
Q 569 725 556 728 
z
" transform="scale(0.015625)"/>
      <path id="Cmsy10-a1" d="M 653 1472 
Q 600 1472 565 1512 
Q 531 1553 531 1600 
Q 531 1647 565 1687 
Q 600 1728 653 1728 
L 4325 1728 
Q 4375 1728 4408 1687 
Q 4441 1647 4441 1600 
Q 4441 1553 4408 1512 
Q 4375 1472 4325 1472 
L 653 1472 
z
" transform="scale(0.015625)"/>
     </defs>
     <use xlink:href="#Cmmi10-50" transform="translate(0 0.267188)"/>
     <use xlink:href="#Cmr10-35" transform="translate(64.208984 -16.739062) scale(0.7)"/>
     <use xlink:href="#Cmmi10-bc" transform="translate(99.208984 -16.739062) scale(0.7)"/>
     <use xlink:href="#Cmmi10-3d" transform="translate(139.09668 -16.739062) scale(0.7)"/>
     <use xlink:href="#Cmr10-36" transform="translate(174.09668 -16.739062) scale(0.7)"/>
     <use xlink:href="#Cmr10-3d" transform="translate(233.032617 0.267188)"/>
     <use xlink:href="#Cmr10-28" transform="translate(328.276758 0.267188)"/>
     <use xlink:href="#Cmsy10-a1" transform="translate(367.095117 0.267188)"/>
     <use xlink:href="#Cmex10-70" transform="translate(444.780664 105.466406) scale(0.583622)"/>
     <use xlink:href="#Cmr10-33" transform="translate(511.882227 38.998437) scale(0.7)"/>
     <use xlink:href="#Cmr10-32" transform="translate(482.780664 -40.109375) scale(0.7)"/>
     <use xlink:href="#Cmmi10-3b" transform="translate(568.132227 0.267188)"/>
     <use xlink:href="#Cmr10-31" transform="translate(613.376367 37.767188) scale(0.7)"/>
     <use xlink:href="#Cmr10-32" transform="translate(613.376367 -40.109375) scale(0.7)"/>
     <use xlink:href="#Cmr10-29" transform="translate(660.876367 0.267188)"/>
     <path d="M 503.132227 103.25 
L 503.132227 107.625 
L 555.632227 107.625 
L 555.632227 103.25 
L 503.132227 103.25 
z
"/>
     <path d="M 444.780664 12.767188 
L 444.780664 19.017188 
L 555.632227 19.017188 
L 555.632227 12.767188 
L 444.780664 12.767188 
z
"/>
     <path d="M 613.376367 12.767188 
L 613.376367 19.017188 
L 648.376367 19.017188 
L 648.376367 12.767188 
L 613.376367 12.767188 
z
"/>
    </g>
   </g>
   <g id="text_13">
    <!-- $P_{3\pi/4}=(-\frac{\sqrt{2}}{2},\frac{\sqrt{2}}{2})$ -->
    <g transform="translate(39.947801 57.890317) scale(0.14 -0.14)">
     <use xlink:href="#Cmmi10-50" transform="translate(0 0.798438)"/>
     <use xlink:href="#Cmr10-33" transform="translate(64.208984 -16.207812) scale(0.7)"/>
     <use xlink:href="#Cmmi10-bc" transform="translate(99.208984 -16.207812) scale(0.7)"/>
     <use xlink:href="#Cmmi10-3d" transform="translate(139.09668 -16.207812) scale(0.7)"/>
     <use xlink:href="#Cmr10-34" transform="translate(174.09668 -16.207812) scale(0.7)"/>
     <use xlink:href="#Cmr10-3d" transform="translate(233.032617 0.798438)"/>
     <use xlink:href="#Cmr10-28" transform="translate(328.276758 0.798438)"/>
     <use xlink:href="#Cmsy10-a1" transform="translate(367.095117 0.798438)"/>
     <use xlink:href="#Cmex10-70" transform="translate(444.780664 104.505469) scale(0.570772)"/>
     <use xlink:href="#Cmr10-32" transform="translate(510.602539 37.998437) scale(0.7)"/>
     <use xlink:href="#Cmr10-32" transform="translate(481.780664 -39.578125) scale(0.7)"/>
     <use xlink:href="#Cmmi10-3b" transform="translate(566.852539 0.798438)"/>
     <use xlink:href="#Cmex10-70" transform="translate(612.09668 104.505469) scale(0.570772)"/>
     <use xlink:href="#Cmr10-32" transform="translate(677.918555 37.998437) scale(0.7)"/>
     <use xlink:href="#Cmr10-32" transform="translate(649.09668 -39.578125) scale(0.7)"/>
     <use xlink:href="#Cmr10-29" transform="translate(734.168555 0.798438)"/>
     <path d="M 501.852539 102.25 
L 501.852539 106.625 
L 554.352539 106.625 
L 554.352539 102.25 
L 501.852539 102.25 
z
"/>
     <path d="M 444.780664 13.298438 
L 444.780664 19.548438 
L 554.352539 19.548438 
L 554.352539 13.298438 
L 444.780664 13.298438 
z
"/>
     <path d="M 669.168555 102.25 
L 669.168555 106.625 
L 721.668555 106.625 
L 721.668555 102.25 
L 669.168555 102.25 
z
"/>
     <path d="M 612.09668 13.298438 
L 612.09668 19.548438 
L 721.668555 19.548438 
L 721.668555 13.298438 
L 612.09668 13.298438 
z
"/>
    </g>
   </g>
   <g id="text_14">
    <!-- $P_{2\pi/3}=(-\frac{1}{2},\frac{\sqrt{3}}{2})$ -->
    <g transform="translate(82.111202 31.944147) scale(0.14 -0.14)">
     <use xlink:href="#Cmmi10-50" transform="translate(0 0.267188)"/>
     <use xlink:href="#Cmr10-32" transform="translate(64.208984 -16.739062) scale(0.7)"/>
     <use xlink:href="#Cmmi10-bc" transform="translate(99.208984 -16.739062) scale(0.7)"/>
     <use xlink:href="#Cmmi10-3d" transform="translate(139.09668 -16.739062) scale(0.7)"/>
     <use xlink:href="#Cmr10-33" transform="translate(174.09668 -16.739062) scale(0.7)"/>
     <use xlink:href="#Cmr10-3d" transform="translate(233.032617 0.267188)"/>
     <use xlink:href="#Cmr10-28" transform="translate(328.276758 0.267188)"/>
     <use xlink:href="#Cmsy10-a1" transform="translate(367.095117 0.267188)"/>
     <use xlink:href="#Cmr10-31" transform="translate(444.780664 37.767188) scale(0.7)"/>
     <use xlink:href="#Cmr10-32" transform="translate(444.780664 -40.109375) scale(0.7)"/>
     <use xlink:href="#Cmmi10-3b" transform="translate(492.280664 0.267188)"/>
     <use xlink:href="#Cmex10-70" transform="translate(537.524805 105.466406) scale(0.583622)"/>
     <use xlink:href="#Cmr10-33" transform="translate(604.626367 38.998437) scale(0.7)"/>
     <use xlink:href="#Cmr10-32" transform="translate(575.524805 -40.109375) scale(0.7)"/>
     <use xlink:href="#Cmr10-29" transform="translate(660.876367 0.267188)"/>
     <path d="M 444.780664 12.767188 
L 444.780664 19.017188 
L 479.780664 19.017188 
L 479.780664 12.767188 
L 444.780664 12.767188 
z
"/>
     <path d="M 595.876367 103.25 
L 595.876367 107.625 
L 648.376367 107.625 
L 648.376367 103.25 
L 595.876367 103.25 
z
"/>
     <path d="M 537.524805 12.767188 
L 537.524805 19.017188 
L 648.376367 19.017188 
L 648.376367 12.767188 
L 537.524805 12.767188 
z
"/>
    </g>
   </g>
   <g id="text_15">
    <!-- $P_{7\pi/6}=(-\frac{\sqrt{3}}{2},-\frac{1}{2})$ -->
    <g transform="translate(7.2 243.240361) scale(0.14 -0.14)">
     <defs>
      <path id="Cmr10-37" d="M 1113 166 
Q 1113 522 1175 862 
Q 1238 1203 1358 1536 
Q 1478 1869 1648 2189 
Q 1819 2509 2022 2791 
L 2606 3603 
L 1875 3603 
Q 738 3603 703 3572 
Q 619 3469 544 2981 
L 359 2981 
L 569 4325 
L 756 4325 
L 756 4306 
Q 756 4191 1147 4156 
Q 1538 4122 1913 4122 
L 3103 4122 
L 3103 3956 
Q 3103 3950 3101 3947 
Q 3100 3944 3097 3938 
L 2216 2700 
Q 1891 2219 1809 1631 
Q 1728 1044 1728 166 
Q 1728 41 1637 -50 
Q 1547 -141 1422 -141 
Q 1294 -141 1203 -50 
Q 1113 41 1113 166 
z
" transform="scale(0.015625)"/>
     </defs>
     <use xlink:href="#Cmmi10-50" transform="translate(0 0.267188)"/>
     <use xlink:href="#Cmr10-37" transform="translate(64.208984 -16.739062) scale(0.7)"/>
     <use xlink:href="#Cmmi10-bc" transform="translate(99.208984 -16.739062) scale(0.7)"/>
     <use xlink:href="#Cmmi10-3d" transform="translate(139.09668 -16.739062) scale(0.7)"/>
     <use xlink:href="#Cmr10-36" transform="translate(174.09668 -16.739062) scale(0.7)"/>
     <use xlink:href="#Cmr10-3d" transform="translate(233.032617 0.267188)"/>
     <use xlink:href="#Cmr10-28" transform="translate(328.276758 0.267188)"/>
     <use xlink:href="#Cmsy10-a1" transform="translate(367.095117 0.267188)"/>
     <use xlink:href="#Cmex10-70" transform="translate(444.780664 105.466406) scale(0.583622)"/>
     <use xlink:href="#Cmr10-33" transform="translate(511.882227 38.998437) scale(0.7)"/>
     <use xlink:href="#Cmr10-32" transform="translate(482.780664 -40.109375) scale(0.7)"/>
     <use xlink:href="#Cmmi10-3b" transform="translate(568.132227 0.267188)"/>
     <use xlink:href="#Cmsy10-a1" transform="translate(630.934961 0.267188)"/>
     <use xlink:href="#Cmr10-31" transform="translate(726.179102 37.767188) scale(0.7)"/>
     <use xlink:href="#Cmr10-32" transform="translate(726.179102 -40.109375) scale(0.7)"/>
     <use xlink:href="#Cmr10-29" transform="translate(773.679102 0.267188)"/>
     <path d="M 503.132227 103.25 
L 503.132227 107.625 
L 555.632227 107.625 
L 555.632227 103.25 
L 503.132227 103.25 
z
"/>
     <path d="M 444.780664 12.767188 
L 444.780664 19.017188 
L 555.632227 19.017188 
L 555.632227 12.767188 
L 444.780664 12.767188 
z
"/>
     <path d="M 726.179102 12.767188 
L 726.179102 19.017188 
L 761.179102 19.017188 
L 761.179102 12.767188 
L 726.179102 12.767188 
z
"/>
    </g>
   </g>
   <g id="text_16">
    <!-- $P_{5\pi/4}=(-\frac{\sqrt{2}}{2},-\frac{\sqrt{2}}{2})$ -->
    <g transform="translate(27.022447 283.428672) scale(0.14 -0.14)">
     <use xlink:href="#Cmmi10-50" transform="translate(0 0.798438)"/>
     <use xlink:href="#Cmr10-35" transform="translate(64.208984 -16.207812) scale(0.7)"/>
     <use xlink:href="#Cmmi10-bc" transform="translate(99.208984 -16.207812) scale(0.7)"/>
     <use xlink:href="#Cmmi10-3d" transform="translate(139.09668 -16.207812) scale(0.7)"/>
     <use xlink:href="#Cmr10-34" transform="translate(174.09668 -16.207812) scale(0.7)"/>
     <use xlink:href="#Cmr10-3d" transform="translate(233.032617 0.798438)"/>
     <use xlink:href="#Cmr10-28" transform="translate(328.276758 0.798438)"/>
     <use xlink:href="#Cmsy10-a1" transform="translate(367.095117 0.798438)"/>
     <use xlink:href="#Cmex10-70" transform="translate(444.780664 104.505469) scale(0.570772)"/>
     <use xlink:href="#Cmr10-32" transform="translate(510.602539 37.998437) scale(0.7)"/>
     <use xlink:href="#Cmr10-32" transform="translate(481.780664 -39.578125) scale(0.7)"/>
     <use xlink:href="#Cmmi10-3b" transform="translate(566.852539 0.798438)"/>
     <use xlink:href="#Cmsy10-a1" transform="translate(629.655273 0.798438)"/>
     <use xlink:href="#Cmex10-70" transform="translate(724.899414 104.505469) scale(0.570772)"/>
     <use xlink:href="#Cmr10-32" transform="translate(790.721289 37.998437) scale(0.7)"/>
     <use xlink:href="#Cmr10-32" transform="translate(761.899414 -39.578125) scale(0.7)"/>
     <use xlink:href="#Cmr10-29" transform="translate(846.971289 0.798438)"/>
     <path d="M 501.852539 102.25 
L 501.852539 106.625 
L 554.352539 106.625 
L 554.352539 102.25 
L 501.852539 102.25 
z
"/>
     <path d="M 444.780664 13.298438 
L 444.780664 19.548438 
L 554.352539 19.548438 
L 554.352539 13.298438 
L 444.780664 13.298438 
z
"/>
     <path d="M 781.971289 102.25 
L 781.971289 106.625 
L 834.471289 106.625 
L 834.471289 102.25 
L 781.971289 102.25 
z
"/>
     <path d="M 724.899414 13.298438 
L 724.899414 19.548438 
L 834.471289 19.548438 
L 834.471289 13.298438 
L 724.899414 13.298438 
z
"/>
    </g>
   </g>
   <g id="text_17">
    <!-- $P_{4\pi/3}=(-\frac{1}{2},-\frac{\sqrt{3}}{2})$ -->
    <g transform="translate(66.63496 315.932222) scale(0.14 -0.14)">
     <use xlink:href="#Cmmi10-50" transform="translate(0 0.267188)"/>
     <use xlink:href="#Cmr10-34" transform="translate(64.208984 -16.739062) scale(0.7)"/>
     <use xlink:href="#Cmmi10-bc" transform="translate(99.208984 -16.739062) scale(0.7)"/>
     <use xlink:href="#Cmmi10-3d" transform="translate(139.09668 -16.739062) scale(0.7)"/>
     <use xlink:href="#Cmr10-33" transform="translate(174.09668 -16.739062) scale(0.7)"/>
     <use xlink:href="#Cmr10-3d" transform="translate(233.032617 0.267188)"/>
     <use xlink:href="#Cmr10-28" transform="translate(328.276758 0.267188)"/>
     <use xlink:href="#Cmsy10-a1" transform="translate(367.095117 0.267188)"/>
     <use xlink:href="#Cmr10-31" transform="translate(444.780664 37.767188) scale(0.7)"/>
     <use xlink:href="#Cmr10-32" transform="translate(444.780664 -40.109375) scale(0.7)"/>
     <use xlink:href="#Cmmi10-3b" transform="translate(492.280664 0.267188)"/>
     <use xlink:href="#Cmsy10-a1" transform="translate(555.083398 0.267188)"/>
     <use xlink:href="#Cmex10-70" transform="translate(650.327539 105.466406) scale(0.583622)"/>
     <use xlink:href="#Cmr10-33" transform="translate(717.429102 38.998437) scale(0.7)"/>
     <use xlink:href="#Cmr10-32" transform="translate(688.327539 -40.109375) scale(0.7)"/>
     <use xlink:href="#Cmr10-29" transform="translate(773.679102 0.267188)"/>
     <path d="M 444.780664 12.767188 
L 444.780664 19.017188 
L 479.780664 19.017188 
L 479.780664 12.767188 
L 444.780664 12.767188 
z
"/>
     <path d="M 708.679102 103.25 
L 708.679102 107.625 
L 761.179102 107.625 
L 761.179102 103.25 
L 708.679102 103.25 
z
"/>
     <path d="M 650.327539 12.767188 
L 650.327539 19.017188 
L 761.179102 19.017188 
L 761.179102 12.767188 
L 650.327539 12.767188 
z
"/>
    </g>
   </g>
   <g id="text_18">
    <!-- $P_{11\pi/6}=(\frac{\sqrt{3}}{2},-\frac{1}{2})$ -->
    <g transform="translate(340.93468 243.240361) scale(0.14 -0.14)">
     <use xlink:href="#Cmmi10-50" transform="translate(0 0.267188)"/>
     <use xlink:href="#Cmr10-31" transform="translate(64.208984 -16.739062) scale(0.7)"/>
     <use xlink:href="#Cmr10-31" transform="translate(99.208984 -16.739062) scale(0.7)"/>
     <use xlink:href="#Cmmi10-bc" transform="translate(134.208984 -16.739062) scale(0.7)"/>
     <use xlink:href="#Cmmi10-3d" transform="translate(174.09668 -16.739062) scale(0.7)"/>
     <use xlink:href="#Cmr10-36" transform="translate(209.09668 -16.739062) scale(0.7)"/>
     <use xlink:href="#Cmr10-3d" transform="translate(268.032617 0.267188)"/>
     <use xlink:href="#Cmr10-28" transform="translate(363.276758 0.267188)"/>
     <use xlink:href="#Cmex10-70" transform="translate(402.095117 105.466406) scale(0.583622)"/>
     <use xlink:href="#Cmr10-33" transform="translate(469.19668 38.998437) scale(0.7)"/>
     <use xlink:href="#Cmr10-32" transform="translate(440.095117 -40.109375) scale(0.7)"/>
     <use xlink:href="#Cmmi10-3b" transform="translate(525.44668 0.267188)"/>
     <use xlink:href="#Cmsy10-a1" transform="translate(588.249414 0.267188)"/>
     <use xlink:href="#Cmr10-31" transform="translate(683.493555 37.767188) scale(0.7)"/>
     <use xlink:href="#Cmr10-32" transform="translate(683.493555 -40.109375) scale(0.7)"/>
     <use xlink:href="#Cmr10-29" transform="translate(730.993555 0.267188)"/>
     <path d="M 460.44668 103.25 
L 460.44668 107.625 
L 512.94668 107.625 
L 512.94668 103.25 
L 460.44668 103.25 
z
"/>
     <path d="M 402.095117 12.767188 
L 402.095117 19.017188 
L 512.94668 19.017188 
L 512.94668 12.767188 
L 402.095117 12.767188 
z
"/>
     <path d="M 683.493555 12.767188 
L 683.493555 19.017188 
L 718.493555 19.017188 
L 718.493555 12.767188 
L 683.493555 12.767188 
z
"/>
    </g>
   </g>
   <g id="text_19">
    <!-- $P_{3\pi/2}=(0,-1)$ -->
    <g transform="translate(198.514566 321.213656) scale(0.14 -0.14)">
     <defs>
      <path id="Cmr10-30" d="M 1600 -141 
Q 816 -141 533 504 
Q 250 1150 250 2041 
Q 250 2597 351 3087 
Q 453 3578 754 3920 
Q 1056 4263 1600 4263 
Q 2022 4263 2290 4056 
Q 2559 3850 2700 3523 
Q 2841 3197 2892 2823 
Q 2944 2450 2944 2041 
Q 2944 1491 2842 1011 
Q 2741 531 2444 195 
Q 2147 -141 1600 -141 
z
M 1600 25 
Q 1956 25 2131 390 
Q 2306 756 2347 1200 
Q 2388 1644 2388 2144 
Q 2388 2625 2347 3031 
Q 2306 3438 2132 3767 
Q 1959 4097 1600 4097 
Q 1238 4097 1063 3765 
Q 888 3434 847 3029 
Q 806 2625 806 2144 
Q 806 1788 823 1472 
Q 841 1156 916 820 
Q 991 484 1158 254 
Q 1325 25 1600 25 
z
" transform="scale(0.015625)"/>
     </defs>
     <use xlink:href="#Cmmi10-50"/>
     <use xlink:href="#Cmr10-33" transform="translate(64.208984 -17.00625) scale(0.7)"/>
     <use xlink:href="#Cmmi10-bc" transform="translate(99.208984 -17.00625) scale(0.7)"/>
     <use xlink:href="#Cmmi10-3d" transform="translate(139.09668 -17.00625) scale(0.7)"/>
     <use xlink:href="#Cmr10-32" transform="translate(174.09668 -17.00625) scale(0.7)"/>
     <use xlink:href="#Cmr10-3d" transform="translate(233.032617 0)"/>
     <use xlink:href="#Cmr10-28" transform="translate(328.276758 0)"/>
     <use xlink:href="#Cmr10-30" transform="translate(367.095117 0)"/>
     <use xlink:href="#Cmmi10-3b" transform="translate(417.095117 0)"/>
     <use xlink:href="#Cmsy10-a1" transform="translate(479.897852 0)"/>
     <use xlink:href="#Cmr10-31" transform="translate(575.141992 0)"/>
     <use xlink:href="#Cmr10-29" transform="translate(625.141992 0)"/>
    </g>
   </g>
   <g id="text_20">
    <!-- $P_{0}=(1,0)$ -->
    <g transform="translate(373.308853 160.214355) scale(0.14 -0.14)">
     <use xlink:href="#Cmmi10-50"/>
     <use xlink:href="#Cmr10-30" transform="translate(64.208984 -17.00625) scale(0.7)"/>
     <use xlink:href="#Cmr10-3d" transform="translate(123.144922 0)"/>
     <use xlink:href="#Cmr10-28" transform="translate(218.389062 0)"/>
     <use xlink:href="#Cmr10-31" transform="translate(257.207422 0)"/>
     <use xlink:href="#Cmmi10-3b" transform="translate(307.207422 0)"/>
     <use xlink:href="#Cmr10-30" transform="translate(352.451563 0)"/>
     <use xlink:href="#Cmr10-29" transform="translate(402.451563 0)"/>
    </g>
   </g>
   <g id="text_21">
    <!-- $P_{\pi}=(-1,0)$ -->
    <g transform="translate(18.015828 160.214355) scale(0.14 -0.14)">
     <use xlink:href="#Cmmi10-50"/>
     <use xlink:href="#Cmmi10-bc" transform="translate(64.208984 -17.00625) scale(0.7)"/>
     <use xlink:href="#Cmr10-3d" transform="translate(128.032617 0)"/>
     <use xlink:href="#Cmr10-28" transform="translate(223.276758 0)"/>
     <use xlink:href="#Cmsy10-a1" transform="translate(262.095117 0)"/>
     <use xlink:href="#Cmr10-31" transform="translate(339.780664 0)"/>
     <use xlink:href="#Cmmi10-3b" transform="translate(389.780664 0)"/>
     <use xlink:href="#Cmr10-30" transform="translate(435.024805 0)"/>
     <use xlink:href="#Cmr10-29" transform="translate(485.024805 0)"/>
    </g>
   </g>
   <g id="text_22">
    <!-- $P_{\pi/2}=(0,1)$ -->
    <g transform="translate(200.878193 17.7) scale(0.14 -0.14)">
     <use xlink:href="#Cmmi10-50"/>
     <use xlink:href="#Cmmi10-bc" transform="translate(64.208984 -17.00625) scale(0.7)"/>
     <use xlink:href="#Cmmi10-3d" transform="translate(104.09668 -17.00625) scale(0.7)"/>
     <use xlink:href="#Cmr10-32" transform="translate(139.09668 -17.00625) scale(0.7)"/>
     <use xlink:href="#Cmr10-3d" transform="translate(198.032617 0)"/>
     <use xlink:href="#Cmr10-28" transform="translate(293.276758 0)"/>
     <use xlink:href="#Cmr10-30" transform="translate(332.095117 0)"/>
     <use xlink:href="#Cmmi10-3b" transform="translate(382.095117 0)"/>
     <use xlink:href="#Cmr10-31" transform="translate(427.339258 0)"/>
     <use xlink:href="#Cmr10-29" transform="translate(477.339258 0)"/>
    </g>
   </g>
   <g id="text_23">
    <!-- $P_{5\pi/3}=(-\frac{1}{2},\frac{\sqrt{3}}{2})$ -->
    <g transform="translate(296.282053 299.766395) scale(0.14 -0.14)">
     <use xlink:href="#Cmmi10-50" transform="translate(0 0.267188)"/>
     <use xlink:href="#Cmr10-35" transform="translate(64.208984 -16.739062) scale(0.7)"/>
     <use xlink:href="#Cmmi10-bc" transform="translate(99.208984 -16.739062) scale(0.7)"/>
     <use xlink:href="#Cmmi10-3d" transform="translate(139.09668 -16.739062) scale(0.7)"/>
     <use xlink:href="#Cmr10-33" transform="translate(174.09668 -16.739062) scale(0.7)"/>
     <use xlink:href="#Cmr10-3d" transform="translate(233.032617 0.267188)"/>
     <use xlink:href="#Cmr10-28" transform="translate(328.276758 0.267188)"/>
     <use xlink:href="#Cmsy10-a1" transform="translate(367.095117 0.267188)"/>
     <use xlink:href="#Cmr10-31" transform="translate(444.780664 37.767188) scale(0.7)"/>
     <use xlink:href="#Cmr10-32" transform="translate(444.780664 -40.109375) scale(0.7)"/>
     <use xlink:href="#Cmmi10-3b" transform="translate(492.280664 0.267188)"/>
     <use xlink:href="#Cmex10-70" transform="translate(537.524805 105.466406) scale(0.583622)"/>
     <use xlink:href="#Cmr10-33" transform="translate(604.626367 38.998437) scale(0.7)"/>
     <use xlink:href="#Cmr10-32" transform="translate(575.524805 -40.109375) scale(0.7)"/>
     <use xlink:href="#Cmr10-29" transform="translate(660.876367 0.267188)"/>
     <path d="M 444.780664 12.767188 
L 444.780664 19.017188 
L 479.780664 19.017188 
L 479.780664 12.767188 
L 444.780664 12.767188 
z
"/>
     <path d="M 595.876367 103.25 
L 595.876367 107.625 
L 648.376367 107.625 
L 648.376367 103.25 
L 595.876367 103.25 
z
"/>
     <path d="M 537.524805 12.767188 
L 537.524805 19.017188 
L 648.376367 19.017188 
L 648.376367 12.767188 
L 537.524805 12.767188 
z
"/>
    </g>
   </g>
   <g id="text_24">
    <!-- $P_{7\pi/4}=(-\frac{\sqrt{2}}{2},-\frac{\sqrt{2}}{2})$ -->
    <g transform="translate(320.803367 270.267261) scale(0.14 -0.14)">
     <use xlink:href="#Cmmi10-50" transform="translate(0 0.798438)"/>
     <use xlink:href="#Cmr10-37" transform="translate(64.208984 -16.207812) scale(0.7)"/>
     <use xlink:href="#Cmmi10-bc" transform="translate(99.208984 -16.207812) scale(0.7)"/>
     <use xlink:href="#Cmmi10-3d" transform="translate(139.09668 -16.207812) scale(0.7)"/>
     <use xlink:href="#Cmr10-34" transform="translate(174.09668 -16.207812) scale(0.7)"/>
     <use xlink:href="#Cmr10-3d" transform="translate(233.032617 0.798438)"/>
     <use xlink:href="#Cmr10-28" transform="translate(328.276758 0.798438)"/>
     <use xlink:href="#Cmsy10-a1" transform="translate(367.095117 0.798438)"/>
     <use xlink:href="#Cmex10-70" transform="translate(444.780664 104.505469) scale(0.570772)"/>
     <use xlink:href="#Cmr10-32" transform="translate(510.602539 37.998437) scale(0.7)"/>
     <use xlink:href="#Cmr10-32" transform="translate(481.780664 -39.578125) scale(0.7)"/>
     <use xlink:href="#Cmmi10-3b" transform="translate(566.852539 0.798438)"/>
     <use xlink:href="#Cmsy10-a1" transform="translate(629.655273 0.798438)"/>
     <use xlink:href="#Cmex10-70" transform="translate(724.899414 104.505469) scale(0.570772)"/>
     <use xlink:href="#Cmr10-32" transform="translate(790.721289 37.998437) scale(0.7)"/>
     <use xlink:href="#Cmr10-32" transform="translate(761.899414 -39.578125) scale(0.7)"/>
     <use xlink:href="#Cmr10-29" transform="translate(846.971289 0.798438)"/>
     <path d="M 501.852539 102.25 
L 501.852539 106.625 
L 554.352539 106.625 
L 554.352539 102.25 
L 501.852539 102.25 
z
"/>
     <path d="M 444.780664 13.298438 
L 444.780664 19.548438 
L 554.352539 19.548438 
L 554.352539 13.298438 
L 444.780664 13.298438 
z
"/>
     <path d="M 781.971289 102.25 
L 781.971289 106.625 
L 834.471289 106.625 
L 834.471289 102.25 
L 781.971289 102.25 
z
"/>
     <path d="M 724.899414 13.298438 
L 724.899414 19.548438 
L 834.471289 19.548438 
L 834.471289 13.298438 
L 724.899414 13.298438 
z
"/>
    </g>
   </g>
  </g>
 </g>
 <defs>
  <clipPath id="pc5b5d248d6">
   <rect x="47.704767" y="8.829727" width="363.535146" height="315.654202"/>
  </clipPath>
 </defs>
</svg>
