<?xml version="1.0" encoding="utf-8" standalone="no"?>
<!DOCTYPE svg PUBLIC "-//W3C//DTD SVG 1.1//EN"
  "http://www.w3.org/Graphics/SVG/1.1/DTD/svg11.dtd">
<svg xmlns:xlink="http://www.w3.org/1999/xlink" width="453.6pt" height="288.9pt" viewBox="0 0 453.6 288.9" xmlns="http://www.w3.org/2000/svg" version="1.1">
 <metadata>
  <rdf:RDF xmlns:dc="http://purl.org/dc/elements/1.1/" xmlns:cc="http://creativecommons.org/ns#" xmlns:rdf="http://www.w3.org/1999/02/22-rdf-syntax-ns#">
   <cc:Work>
    <dc:type rdf:resource="http://purl.org/dc/dcmitype/StillImage"/>
    <dc:date>2025-10-23T14:58:32.714123</dc:date>
    <dc:format>image/svg+xml</dc:format>
    <dc:creator>
     <cc:Agent>
      <dc:title>Matplotlib v3.8.0, https://matplotlib.org/</dc:title>
     </cc:Agent>
    </dc:creator>
   </cc:Work>
  </rdf:RDF>
 </metadata>
 <defs>
  <style type="text/css">*{stroke-linejoin: round; stroke-linecap: butt}</style>
 </defs>
 <g id="figure_1">
  <g id="patch_1">
   <path d="M 0 288.9 
L 453.6 288.9 
L 453.6 0 
L 0 0 
z
" style="fill: #ffffff"/>
  </g>
  <g id="axes_1">
   <g id="patch_2">
    <path d="M 7.2 281.7 
L 446.4 281.7 
L 446.4 7.2 
L 7.2 7.2 
z
" style="fill: #ffffff"/>
   </g>
   <g id="matplotlib.axis_1"/>
   <g id="matplotlib.axis_2"/>
   <g id="line2d_1">
    <path d="M 247.915385 12.478846 
L 249.22473 42.401382 
L 250.575181 68.231405 
L 251.945854 90.309222 
L 253.376219 109.803654 
L 254.855485 126.910739 
L 256.338712 141.548507 
L 257.857529 154.417399 
L 259.388117 165.608727 
L 260.951661 175.522969 
L 262.595611 184.577861 
L 264.309849 192.780702 
L 266.072793 200.121348 
L 267.898092 206.748287 
L 269.677338 212.410631 
L 271.506173 217.540582 
L 273.512623 222.49015 
L 275.420721 226.640086 
L 277.509077 230.655931 
L 279.747066 234.443013 
L 281.846735 237.584316 
L 284.195676 240.698094 
L 286.406858 243.299307 
L 288.847096 245.853361 
L 291.565857 248.365863 
L 294.255029 250.558188 
L 297.162617 252.65149 
L 300.304965 254.640363 
L 303.934665 256.641996 
L 307.64902 258.417631 
L 311.576106 260.046955 
L 316.113103 261.668279 
L 320.605677 263.047541 
L 325.577817 264.360019 
L 331.33346 265.651634 
L 338.116156 266.924063 
L 344.864107 267.978651 
L 352.810925 269.009919 
L 362.450155 270.025773 
L 373.062372 270.920152 
L 385.981088 271.776813 
L 401.839837 272.580252 
L 419.603302 273.255393 
L 437.953846 273.781731 
L 437.953846 273.781731 
" clip-path="url(#pbdee68c121)" style="fill: none; stroke: #0000ff; stroke-linecap: square"/>
   </g>
   <g id="line2d_2">
    <path d="M 15.646154 276.421154 
L 437.953846 276.421154 
L 437.953846 276.421154 
" clip-path="url(#pbdee68c121)" style="fill: none; stroke-dasharray: 2,3.3; stroke-dashoffset: 0; stroke: #ff0000; stroke-width: 2"/>
   </g>
   <g id="line2d_3">
    <path d="M 15.646154 273.781731 
L 38.474987 273.103042 
L 57.180439 272.330854 
L 72.148691 271.500761 
L 84.197305 270.63418 
L 95.717922 269.572261 
L 104.187086 268.593447 
L 112.701253 267.381636 
L 119.567688 266.186912 
L 125.203804 265.019913 
L 130.905997 263.623684 
L 136.166867 262.094888 
L 140.85657 260.488738 
L 145.17088 258.760093 
L 148.919882 257.018828 
L 152.16916 255.292572 
L 155.327744 253.383831 
L 158.371246 251.288998 
L 161.256559 249.027591 
L 163.936557 246.642115 
L 166.356529 244.209857 
L 168.75266 241.495676 
L 171.147641 238.424981 
L 173.286099 235.327593 
L 175.447464 231.795641 
L 177.466029 228.069108 
L 179.501901 223.81705 
L 181.445943 219.210788 
L 183.358348 214.062845 
L 185.16028 208.549037 
L 186.934512 202.373241 
L 188.661685 195.514545 
L 190.269121 188.237768 
L 191.929233 179.641514 
L 193.451732 170.602941 
L 194.992057 160.106126 
L 196.528732 147.997277 
L 197.956873 134.964844 
L 199.385415 119.838501 
L 200.776594 102.649579 
L 202.113297 83.321803 
L 203.427642 60.993248 
L 204.702879 35.410837 
L 205.684615 12.478846 
L 205.684615 12.478846 
" clip-path="url(#pbdee68c121)" style="fill: none; stroke: #0000ff; stroke-linecap: square"/>
   </g>
   <g id="patch_3">
    <path d="M 226.8 281.7 
L 226.8 7.2 
" style="fill: none; stroke: #000000; stroke-width: 0.8; stroke-linejoin: miter; stroke-linecap: square"/>
   </g>
   <g id="patch_4">
    <path d="M 7.2 276.421154 
L 446.4 276.421154 
" style="fill: none; stroke: #000000; stroke-width: 0.8; stroke-linejoin: miter; stroke-linecap: square"/>
   </g>
  </g>
 </g>
 <defs>
  <clipPath id="pbdee68c121">
   <rect x="7.2" y="7.2" width="439.2" height="274.5"/>
  </clipPath>
 </defs>
</svg>
