<?xml version="1.0" encoding="utf-8" standalone="no"?>
<!DOCTYPE svg PUBLIC "-//W3C//DTD SVG 1.1//EN"
  "http://www.w3.org/Graphics/SVG/1.1/DTD/svg11.dtd">
<svg xmlns:xlink="http://www.w3.org/1999/xlink" width="338.401464pt" height="338.4pt" viewBox="0 0 338.401464 338.4" xmlns="http://www.w3.org/2000/svg" version="1.1">
 <metadata>
  <rdf:RDF xmlns:dc="http://purl.org/dc/elements/1.1/" xmlns:cc="http://creativecommons.org/ns#" xmlns:rdf="http://www.w3.org/1999/02/22-rdf-syntax-ns#">
   <cc:Work>
    <dc:type rdf:resource="http://purl.org/dc/dcmitype/StillImage"/>
    <dc:date>2026-09-14T15:37:40.573349</dc:date>
    <dc:format>image/svg+xml</dc:format>
    <dc:creator>
     <cc:Agent>
      <dc:title>Matplotlib v3.6.2, https://matplotlib.org/</dc:title>
     </cc:Agent>
    </dc:creator>
   </cc:Work>
  </rdf:RDF>
 </metadata>
 <defs>
  <style type="text/css">*{stroke-linejoin: round; stroke-linecap: butt}</style>
 </defs>
 <g id="figure_1">
  <g id="patch_1">
   <path d="M 0 338.4 
L 338.401464 338.4 
L 338.401464 0 
L 0 0 
z
" style="fill: #ffffff"/>
  </g>
  <g id="axes_1">
   <g id="patch_2">
    <path d="M 7.2 331.2 
L 331.201464 331.2 
L 331.201464 7.2 
L 7.2 7.2 
z
" style="fill: #ffffff"/>
   </g>
   <g id="PathCollection_1">
    <path d="M 240.741822 101.19374 
C 241.679457 101.19374 242.578814 100.821214 243.241822 100.158206 
C 243.90483 99.495198 244.277356 98.595841 244.277356 97.658206 
C 244.277356 96.720571 243.90483 95.821214 243.241822 95.158206 
C 242.578814 94.495198 241.679457 94.122672 240.741822 94.122672 
C 239.804188 94.122672 238.90483 94.495198 238.241822 95.158206 
C 237.578814 95.821214 237.206288 96.720571 237.206288 97.658206 
C 237.206288 98.595841 237.578814 99.495198 238.241822 100.158206 
C 238.90483 100.821214 239.804188 101.19374 240.741822 101.19374 
z
" clip-path="url(#p25aa76ba19)" style="fill: #ff0000"/>
   </g>
   <g id="PathCollection_2">
    <path d="M 156.014147 185.921415 
C 156.951782 185.921415 157.85114 185.548888 158.514147 184.885881 
C 159.177155 184.222873 159.549681 183.323515 159.549681 182.385881 
C 159.549681 181.448246 159.177155 180.548888 158.514147 179.885881 
C 157.85114 179.222873 156.951782 178.850347 156.014147 178.850347 
C 155.076513 178.850347 154.177155 179.222873 153.514147 179.885881 
C 152.85114 180.548888 152.478614 181.448246 152.478614 182.385881 
C 152.478614 183.323515 152.85114 184.222873 153.514147 184.885881 
C 154.177155 185.548888 155.076513 185.921415 156.014147 185.921415 
z
" clip-path="url(#p25aa76ba19)" style="fill: #ff0000"/>
   </g>
   <g id="matplotlib.axis_1">
    <g id="xtick_1">
     <g id="line2d_1">
      <defs>
       <path id="madb25147ce" d="M 0 0 
L 0 3.5 
" style="stroke: #000000; stroke-width: 0.8"/>
      </defs>
      <g>
       <use xlink:href="#madb25147ce" x="156.014147" y="301.004625" style="stroke: #000000; stroke-width: 0.8"/>
      </g>
     </g>
     <g id="text_1">
      <!-- $\cos\theta$ -->
      <g transform="translate(146.214147 315.603063) scale(0.1 -0.1)">
       <defs>
        <path id="Cmr10-63" d="M 1594 -72 
Q 1206 -72 890 129 
Q 575 331 394 667 
Q 213 1003 213 1381 
Q 213 1759 392 2106 
Q 572 2453 889 2661 
Q 1206 2869 1594 2869 
Q 1969 2869 2276 2722 
Q 2584 2575 2584 2241 
Q 2584 2116 2495 2023 
Q 2406 1931 2278 1931 
Q 2150 1931 2061 2023 
Q 1972 2116 1972 2241 
Q 1972 2353 2044 2436 
Q 2116 2519 2222 2541 
Q 2000 2681 1600 2681 
Q 1294 2681 1106 2478 
Q 919 2275 844 1975 
Q 769 1675 769 1381 
Q 769 1072 861 783 
Q 953 494 1158 305 
Q 1363 116 1672 116 
Q 1975 116 2187 302 
Q 2400 488 2478 788 
Q 2478 825 2528 825 
L 2606 825 
Q 2625 825 2640 808 
Q 2656 791 2656 769 
L 2656 750 
Q 2559 372 2271 150 
Q 1984 -72 1594 -72 
z
" transform="scale(0.015625)"/>
        <path id="Cmr10-6f" d="M 1600 -72 
Q 1216 -72 887 123 
Q 559 319 368 647 
Q 178 975 178 1363 
Q 178 1656 283 1928 
Q 388 2200 583 2414 
Q 778 2628 1037 2748 
Q 1297 2869 1600 2869 
Q 1994 2869 2317 2661 
Q 2641 2453 2828 2104 
Q 3016 1756 3016 1363 
Q 3016 978 2825 648 
Q 2634 319 2307 123 
Q 1981 -72 1600 -72 
z
M 1600 116 
Q 2113 116 2284 487 
Q 2456 859 2456 1434 
Q 2456 1756 2422 1967 
Q 2388 2178 2272 2350 
Q 2200 2456 2089 2536 
Q 1978 2616 1854 2658 
Q 1731 2700 1600 2700 
Q 1400 2700 1220 2609 
Q 1041 2519 922 2350 
Q 803 2169 770 1951 
Q 738 1734 738 1434 
Q 738 1075 800 789 
Q 863 503 1052 309 
Q 1241 116 1600 116 
z
" transform="scale(0.015625)"/>
        <path id="Cmr10-73" d="M 213 -19 
L 213 1025 
Q 213 1075 269 1075 
L 347 1075 
Q 384 1075 397 1025 
Q 575 97 1259 97 
Q 1563 97 1767 234 
Q 1972 372 1972 659 
Q 1972 866 1812 1011 
Q 1653 1156 1434 1209 
L 1006 1294 
Q 791 1341 614 1437 
Q 438 1534 325 1695 
Q 213 1856 213 2069 
Q 213 2350 361 2529 
Q 509 2709 746 2789 
Q 984 2869 1259 2869 
Q 1588 2869 1831 2694 
L 2016 2853 
Q 2016 2869 2047 2869 
L 2094 2869 
Q 2113 2869 2128 2851 
Q 2144 2834 2144 2816 
L 2144 1978 
Q 2144 1919 2094 1919 
L 2016 1919 
Q 1959 1919 1959 1978 
Q 1959 2313 1773 2516 
Q 1588 2719 1253 2719 
Q 966 2719 755 2612 
Q 544 2506 544 2247 
Q 544 2069 695 1955 
Q 847 1841 1050 1791 
L 1484 1709 
Q 1703 1659 1892 1540 
Q 2081 1422 2192 1240 
Q 2303 1059 2303 831 
Q 2303 600 2223 429 
Q 2144 259 2001 146 
Q 1859 34 1665 -19 
Q 1472 -72 1259 -72 
Q 859 -72 575 197 
L 341 -56 
Q 341 -72 306 -72 
L 269 -72 
Q 213 -72 213 -19 
z
" transform="scale(0.015625)"/>
        <path id="Cmmi10-b5" d="M 1031 -72 
Q 741 -72 566 140 
Q 391 353 323 653 
Q 256 953 256 1247 
L 256 1253 
Q 256 1572 317 1915 
Q 378 2259 493 2601 
Q 609 2944 744 3213 
Q 838 3400 986 3631 
Q 1134 3863 1317 4064 
Q 1500 4266 1711 4389 
Q 1922 4513 2138 4513 
L 2144 4513 
Q 2375 4513 2529 4384 
Q 2684 4256 2770 4056 
Q 2856 3856 2890 3628 
Q 2925 3400 2925 3194 
Q 2925 2709 2794 2204 
Q 2663 1700 2431 1228 
Q 2344 1050 2189 809 
Q 2034 569 1861 378 
Q 1688 188 1472 58 
Q 1256 -72 1038 -72 
L 1031 -72 
z
M 1044 97 
Q 1256 97 1451 323 
Q 1647 550 1794 873 
Q 1941 1197 2052 1536 
Q 2163 1875 2216 2113 
L 909 2113 
Q 809 1709 753 1417 
Q 697 1125 697 844 
Q 697 97 1044 97 
z
M 959 2338 
L 2272 2338 
Q 2341 2619 2381 2808 
Q 2422 2997 2450 3206 
Q 2478 3416 2478 3597 
Q 2478 4347 2138 4347 
Q 1731 4347 1436 3692 
Q 1141 3038 959 2338 
z
" transform="scale(0.015625)"/>
       </defs>
       <use xlink:href="#Cmr10-63" transform="translate(0 0.484375)"/>
       <use xlink:href="#Cmr10-6f" transform="translate(44.384766 0.484375)"/>
       <use xlink:href="#Cmr10-73" transform="translate(94.384766 0.484375)"/>
       <use xlink:href="#Cmmi10-b5" transform="translate(148.421517 0.484375)"/>
      </g>
     </g>
    </g>
    <g id="xtick_2">
     <g id="line2d_2">
      <g>
       <use xlink:href="#madb25147ce" x="240.741822" y="301.004625" style="stroke: #000000; stroke-width: 0.8"/>
      </g>
     </g>
     <g id="text_2">
      <!-- $x$ -->
      <g transform="translate(237.841822 315.603063) scale(0.1 -0.1)">
       <defs>
        <path id="Cmmi10-78" d="M 500 184 
Q 613 97 819 97 
Q 1019 97 1172 289 
Q 1325 481 1381 709 
L 1672 1844 
Q 1741 2153 1741 2266 
Q 1741 2425 1652 2544 
Q 1563 2663 1403 2663 
Q 1200 2663 1022 2536 
Q 844 2409 722 2214 
Q 600 2019 550 1819 
Q 538 1778 500 1778 
L 422 1778 
Q 372 1778 372 1838 
L 372 1856 
Q 434 2094 584 2320 
Q 734 2547 951 2687 
Q 1169 2828 1416 2828 
Q 1650 2828 1839 2703 
Q 2028 2578 2106 2363 
Q 2216 2559 2386 2693 
Q 2556 2828 2759 2828 
Q 2897 2828 3040 2779 
Q 3184 2731 3275 2631 
Q 3366 2531 3366 2381 
Q 3366 2219 3261 2101 
Q 3156 1984 2994 1984 
Q 2891 1984 2822 2050 
Q 2753 2116 2753 2216 
Q 2753 2350 2845 2451 
Q 2938 2553 3066 2572 
Q 2950 2663 2747 2663 
Q 2541 2663 2389 2472 
Q 2238 2281 2175 2047 
L 1894 916 
Q 1825 659 1825 494 
Q 1825 331 1917 214 
Q 2009 97 2163 97 
Q 2463 97 2698 361 
Q 2934 625 3009 941 
Q 3022 978 3059 978 
L 3138 978 
Q 3163 978 3178 961 
Q 3194 944 3194 922 
Q 3194 916 3188 903 
Q 3097 522 2806 225 
Q 2516 -72 2150 -72 
Q 1916 -72 1727 54 
Q 1538 181 1459 397 
Q 1359 209 1182 68 
Q 1006 -72 806 -72 
Q 669 -72 523 -23 
Q 378 25 287 125 
Q 197 225 197 378 
Q 197 528 301 651 
Q 406 775 563 775 
Q 669 775 741 711 
Q 813 647 813 544 
Q 813 409 723 309 
Q 634 209 500 184 
z
" transform="scale(0.015625)"/>
       </defs>
       <use xlink:href="#Cmmi10-78" transform="translate(0 0.8125)"/>
      </g>
     </g>
    </g>
   </g>
   <g id="matplotlib.axis_2">
    <g id="ytick_1">
     <g id="line2d_3">
      <defs>
       <path id="m72b3e65c98" d="M 0 0 
L -3.5 0 
" style="stroke: #000000; stroke-width: 0.8"/>
      </defs>
      <g>
       <use xlink:href="#m72b3e65c98" x="37.395403" y="182.385881" style="stroke: #000000; stroke-width: 0.8"/>
      </g>
     </g>
     <g id="text_3">
      <!-- $\sin\theta$ -->
      <g transform="translate(11.895403 186.185099) scale(0.1 -0.1)">
       <defs>
        <path id="Cmr10-69" d="M 197 0 
L 197 225 
Q 416 225 556 259 
Q 697 294 697 428 
L 697 2175 
Q 697 2422 601 2478 
Q 506 2534 225 2534 
L 225 2759 
L 1147 2828 
L 1147 428 
Q 1147 294 1269 259 
Q 1391 225 1594 225 
L 1594 0 
L 197 0 
z
M 469 3928 
Q 469 4069 575 4175 
Q 681 4281 819 4281 
Q 909 4281 993 4234 
Q 1078 4188 1125 4103 
Q 1172 4019 1172 3928 
Q 1172 3791 1065 3684 
Q 959 3578 819 3578 
Q 681 3578 575 3684 
Q 469 3791 469 3928 
z
" transform="scale(0.015625)"/>
        <path id="Cmr10-6e" d="M 191 0 
L 191 225 
Q 409 225 550 259 
Q 691 294 691 428 
L 691 2175 
Q 691 2347 639 2423 
Q 588 2500 491 2517 
Q 394 2534 191 2534 
L 191 2759 
L 1119 2828 
L 1119 2203 
Q 1247 2478 1498 2653 
Q 1750 2828 2047 2828 
Q 2491 2828 2714 2615 
Q 2938 2403 2938 1966 
L 2938 428 
Q 2938 294 3078 259 
Q 3219 225 3438 225 
L 3438 0 
L 1972 0 
L 1972 225 
Q 2191 225 2331 259 
Q 2472 294 2472 428 
L 2472 1947 
Q 2472 2259 2381 2461 
Q 2291 2663 2009 2663 
Q 1638 2663 1398 2366 
Q 1159 2069 1159 1691 
L 1159 428 
Q 1159 294 1300 259 
Q 1441 225 1656 225 
L 1656 0 
L 191 0 
z
" transform="scale(0.015625)"/>
       </defs>
       <use xlink:href="#Cmr10-73" transform="translate(0 0.484375)"/>
       <use xlink:href="#Cmr10-69" transform="translate(39.404297 0.484375)"/>
       <use xlink:href="#Cmr10-6e" transform="translate(67.089844 0.484375)"/>
       <use xlink:href="#Cmmi10-b5" transform="translate(137.239876 0.484375)"/>
      </g>
     </g>
    </g>
    <g id="ytick_2">
     <g id="line2d_4">
      <g>
       <use xlink:href="#m72b3e65c98" x="37.395403" y="97.658206" style="stroke: #000000; stroke-width: 0.8"/>
      </g>
     </g>
     <g id="text_4">
      <!-- $y$ -->
      <g transform="translate(25.395403 101.447268) scale(0.1 -0.1)">
       <defs>
        <path id="Cmmi10-79" d="M 538 -916 
Q 672 -1147 1006 -1147 
Q 1309 -1147 1531 -934 
Q 1753 -722 1889 -420 
Q 2025 -119 2100 197 
Q 1816 -72 1484 -72 
Q 1231 -72 1053 15 
Q 875 103 776 276 
Q 678 450 678 697 
Q 678 906 734 1126 
Q 791 1347 892 1617 
Q 994 1888 1069 2088 
Q 1153 2322 1153 2472 
Q 1153 2663 1013 2663 
Q 759 2663 595 2402 
Q 431 2141 353 1819 
Q 341 1778 300 1778 
L 225 1778 
Q 172 1778 172 1838 
L 172 1856 
Q 275 2238 487 2533 
Q 700 2828 1025 2828 
Q 1253 2828 1411 2678 
Q 1569 2528 1569 2297 
Q 1569 2178 1516 2047 
Q 1488 1969 1388 1706 
Q 1288 1444 1234 1272 
Q 1181 1100 1147 934 
Q 1113 769 1113 603 
Q 1113 391 1203 244 
Q 1294 97 1491 97 
Q 1888 97 2203 581 
L 2688 2553 
Q 2709 2638 2787 2698 
Q 2866 2759 2956 2759 
Q 3034 2759 3092 2709 
Q 3150 2659 3150 2578 
Q 3150 2541 3144 2528 
L 2509 -19 
Q 2425 -347 2200 -647 
Q 1975 -947 1658 -1130 
Q 1341 -1313 997 -1313 
Q 831 -1313 668 -1248 
Q 506 -1184 406 -1056 
Q 306 -928 306 -756 
Q 306 -581 409 -453 
Q 513 -325 684 -325 
Q 788 -325 858 -389 
Q 928 -453 928 -556 
Q 928 -703 818 -812 
Q 709 -922 563 -922 
Q 556 -919 550 -917 
Q 544 -916 538 -916 
z
" transform="scale(0.015625)"/>
       </defs>
       <use xlink:href="#Cmmi10-79" transform="translate(0 0.8125)"/>
      </g>
     </g>
    </g>
   </g>
   <g id="line2d_5">
    <path d="M 324.970667 301.004625 
L 324.835167 292.177697 
L 324.285109 281.159494 
L 323.770664 274.760723 
L 323.163711 268.817568 
L 322.345043 262.233047 
L 321.374678 255.669166 
L 320.277745 249.263801 
L 318.575735 240.695809 
L 316.656441 232.354752 
L 315.205037 226.698908 
L 312.069482 215.836069 
L 309.131076 206.881001 
L 306.114132 198.585011 
L 302.807809 190.298766 
L 299.246042 182.11907 
L 296.387472 176.014063 
L 291.772745 166.871482 
L 289.6383 162.899399 
L 283.68498 152.542588 
L 281.252028 148.579303 
L 277.806457 143.200767 
L 274.242276 137.900085 
L 270.159839 132.125231 
L 265.254577 125.563099 
L 260.264676 119.266298 
L 255.426333 113.48917 
L 248.653741 105.890692 
L 242.920865 99.860854 
L 237.015951 93.999385 
L 233.104389 90.297423 
L 227.956806 85.630801 
L 220.108827 78.934057 
L 214.573687 74.493283 
L 206.109863 68.120613 
L 200.506483 64.162256 
L 195.009874 60.469366 
L 189.429693 56.904017 
L 183.597839 53.367027 
L 177.191197 49.69472 
L 170.692376 46.188124 
L 163.362142 42.485935 
L 155.093439 38.618069 
L 150.502579 36.606631 
L 143.266424 33.626878 
L 135.567968 30.705384 
L 125.718276 27.328535 
L 118.896475 25.220094 
L 103.70461 21.178569 
L 98.212206 19.933729 
L 92.28933 18.717202 
L 84.49164 17.312051 
L 70.130991 15.298633 
L 59.238029 14.260084 
L 46.771493 13.582251 
L 38.295323 13.430769 
L 25.258878 13.685574 
L 12.154932 14.53918 
L -1 16.027084 
M 322.37973 339.4 
L 323.357761 331.41946 
L 324.23499 321.561474 
L 324.611858 315.365703 
L 324.854912 309.163241 
L 324.970667 301.004625 
L 324.970667 301.004625 
" clip-path="url(#p25aa76ba19)" style="fill: none; stroke: #0000ff; stroke-linecap: square"/>
   </g>
   <g id="line2d_6">
    <path d="M 205.14764 301.004625 
L 205.027779 294.664321 
L 204.665383 288.293733 
L 204.085541 282.157584 
L 203.260615 275.913899 
L 202.286639 270.155097 
L 201.028748 264.059509 
L 199.566505 258.093709 
L 197.879396 252.160987 
L 196.078545 246.594392 
L 193.831248 240.43533 
L 191.383085 234.456847 
L 188.779236 228.729123 
L 186.462056 224.063439 
L 183.268599 218.168499 
L 180.222462 213.020284 
L 177.089465 208.126306 
L 173.421103 202.832215 
L 169.903487 198.133732 
L 165.838028 193.100477 
L 161.691442 188.34892 
L 157.440883 183.829987 
L 156.014147 182.385881 
L 156.014147 182.385881 
" clip-path="url(#p25aa76ba19)" style="fill: none; stroke-dasharray: 3.7,1.6; stroke-dashoffset: 0; stroke: #0000ff"/>
   </g>
   <g id="line2d_7">
    <path d="M 37.395403 301.004625 
L 240.741822 97.658206 
" clip-path="url(#p25aa76ba19)" style="fill: none; stroke: #008000; stroke-linecap: square"/>
   </g>
   <g id="line2d_8">
    <path d="M 156.014147 301.004625 
L 156.014147 182.385881 
" clip-path="url(#p25aa76ba19)" style="fill: none; stroke-dasharray: 3.7,1.6; stroke-dashoffset: 0; stroke: #ff0000"/>
   </g>
   <g id="line2d_9">
    <path d="M 240.741822 301.004625 
L 240.741822 97.658206 
" clip-path="url(#p25aa76ba19)" style="fill: none; stroke-dasharray: 3.7,1.6; stroke-dashoffset: 0; stroke: #ff0000"/>
   </g>
   <g id="line2d_10">
    <path d="M 37.395403 182.385881 
L 156.014147 182.385881 
" clip-path="url(#p25aa76ba19)" style="fill: none; stroke-dasharray: 3.7,1.6; stroke-dashoffset: 0; stroke: #ff0000"/>
   </g>
   <g id="line2d_11">
    <path d="M 37.395403 97.658206 
L 240.741822 97.658206 
" clip-path="url(#p25aa76ba19)" style="fill: none; stroke-dasharray: 3.7,1.6; stroke-dashoffset: 0; stroke: #ff0000"/>
   </g>
   <g id="patch_3">
    <path d="M 37.395403 331.2 
L 37.395403 7.2 
" style="fill: none; stroke: #000000; stroke-width: 0.8; stroke-linejoin: miter; stroke-linecap: square"/>
   </g>
   <g id="patch_4">
    <path d="M 7.2 301.004625 
L 331.201464 301.004625 
" style="fill: none; stroke: #000000; stroke-width: 0.8; stroke-linejoin: miter; stroke-linecap: square"/>
   </g>
   <g id="text_5">
    <!-- $P_{r,\theta}=(x,y)$ -->
    <g transform="translate(240.909827 85.651527) scale(0.15 -0.15)">
     <defs>
      <path id="Cmmi10-50" d="M 313 0 
Q 250 0 250 84 
Q 253 100 262 139 
Q 272 178 289 201 
Q 306 225 331 225 
Q 722 225 878 269 
Q 959 297 997 441 
L 1875 3956 
Q 1888 4019 1888 4044 
Q 1888 4113 1813 4122 
Q 1691 4147 1350 4147 
Q 1288 4147 1288 4231 
Q 1291 4247 1300 4286 
Q 1309 4325 1326 4348 
Q 1344 4372 1369 4372 
L 3578 4372 
Q 3881 4372 4165 4264 
Q 4450 4156 4631 3934 
Q 4813 3713 4813 3397 
Q 4813 2991 4527 2672 
Q 4241 2353 3814 2175 
Q 3388 1997 2988 1997 
L 1947 1997 
L 1556 416 
Q 1544 353 1544 325 
Q 1544 300 1551 283 
Q 1559 266 1573 261 
Q 1588 256 1619 250 
Q 1741 225 2081 225 
Q 2144 225 2144 141 
Q 2122 50 2109 25 
Q 2097 0 2034 0 
L 313 0 
z
M 1978 2188 
L 2875 2188 
Q 3497 2188 3822 2522 
Q 3988 2688 4092 3000 
Q 4197 3313 4197 3566 
Q 4197 3881 3956 4014 
Q 3716 4147 3359 4147 
L 2747 4147 
Q 2572 4147 2515 4117 
Q 2459 4088 2413 3928 
L 1978 2188 
z
" transform="scale(0.015625)"/>
      <path id="Cmmi10-72" d="M 494 109 
Q 494 147 500 166 
L 978 2075 
Q 1025 2253 1025 2388 
Q 1025 2663 838 2663 
Q 638 2663 541 2423 
Q 444 2184 353 1819 
Q 353 1800 334 1789 
Q 316 1778 300 1778 
L 225 1778 
Q 203 1778 187 1801 
Q 172 1825 172 1844 
Q 241 2122 305 2315 
Q 369 2509 505 2668 
Q 641 2828 844 2828 
Q 1066 2828 1233 2700 
Q 1400 2572 1441 2363 
Q 1603 2575 1811 2701 
Q 2019 2828 2266 2828 
Q 2469 2828 2623 2709 
Q 2778 2591 2778 2388 
Q 2778 2225 2676 2104 
Q 2575 1984 2406 1984 
Q 2303 1984 2233 2048 
Q 2163 2113 2163 2216 
Q 2163 2356 2266 2467 
Q 2369 2578 2503 2578 
Q 2400 2663 2253 2663 
Q 1978 2663 1775 2467 
Q 1572 2272 1409 1972 
L 953 141 
Q 931 53 854 -9 
Q 778 -72 684 -72 
Q 606 -72 550 -22 
Q 494 28 494 109 
z
" transform="scale(0.015625)"/>
      <path id="Cmmi10-3b" d="M 634 -1153 
Q 634 -1125 659 -1100 
Q 891 -878 1019 -587 
Q 1147 -297 1147 25 
L 1147 103 
Q 1044 0 891 0 
Q 744 0 641 103 
Q 538 206 538 353 
Q 538 503 641 603 
Q 744 703 891 703 
Q 1119 703 1216 492 
Q 1313 281 1313 25 
Q 1313 -331 1170 -651 
Q 1028 -972 769 -1228 
Q 744 -1241 728 -1241 
Q 697 -1241 665 -1212 
Q 634 -1184 634 -1153 
z
" transform="scale(0.015625)"/>
      <path id="Cmr10-3d" d="M 481 850 
Q 428 850 393 890 
Q 359 931 359 978 
Q 359 1031 393 1068 
Q 428 1106 481 1106 
L 4500 1106 
Q 4547 1106 4581 1068 
Q 4616 1031 4616 978 
Q 4616 931 4581 890 
Q 4547 850 4500 850 
L 481 850 
z
M 481 2094 
Q 428 2094 393 2131 
Q 359 2169 359 2222 
Q 359 2269 393 2309 
Q 428 2350 481 2350 
L 4500 2350 
Q 4547 2350 4581 2309 
Q 4616 2269 4616 2222 
Q 4616 2169 4581 2131 
Q 4547 2094 4500 2094 
L 481 2094 
z
" transform="scale(0.015625)"/>
      <path id="Cmr10-28" d="M 1984 -1588 
Q 1628 -1306 1370 -942 
Q 1113 -578 948 -165 
Q 784 247 703 697 
Q 622 1147 622 1600 
Q 622 2059 703 2509 
Q 784 2959 951 3375 
Q 1119 3791 1378 4153 
Q 1638 4516 1984 4788 
Q 1984 4800 2016 4800 
L 2075 4800 
Q 2094 4800 2109 4783 
Q 2125 4766 2125 4744 
Q 2125 4716 2113 4703 
Q 1800 4397 1592 4047 
Q 1384 3697 1257 3301 
Q 1131 2906 1075 2482 
Q 1019 2059 1019 1600 
Q 1019 -434 2106 -1491 
Q 2125 -1509 2125 -1544 
Q 2125 -1559 2108 -1579 
Q 2091 -1600 2075 -1600 
L 2016 -1600 
Q 1984 -1600 1984 -1588 
z
" transform="scale(0.015625)"/>
      <path id="Cmr10-29" d="M 416 -1600 
Q 359 -1600 359 -1544 
Q 359 -1516 372 -1503 
Q 1466 -434 1466 1600 
Q 1466 3634 384 4691 
Q 359 4706 359 4744 
Q 359 4766 376 4783 
Q 394 4800 416 4800 
L 475 4800 
Q 494 4800 506 4788 
Q 966 4425 1272 3906 
Q 1578 3388 1720 2800 
Q 1863 2213 1863 1600 
Q 1863 1147 1786 708 
Q 1709 269 1542 -157 
Q 1375 -584 1119 -945 
Q 863 -1306 506 -1588 
Q 494 -1600 475 -1600 
L 416 -1600 
z
" transform="scale(0.015625)"/>
     </defs>
     <use xlink:href="#Cmmi10-50"/>
     <use xlink:href="#Cmmi10-72" transform="translate(64.208984 -17.00625) scale(0.7)"/>
     <use xlink:href="#Cmmi10-3b" transform="translate(95.791016 -17.00625) scale(0.7)"/>
     <use xlink:href="#Cmmi10-b5" transform="translate(127.461914 -17.00625) scale(0.7)"/>
     <use xlink:href="#Cmr10-3d" transform="translate(184.244531 0)"/>
     <use xlink:href="#Cmr10-28" transform="translate(279.488672 0)"/>
     <use xlink:href="#Cmmi10-78" transform="translate(318.307031 0)"/>
     <use xlink:href="#Cmmi10-3b" transform="translate(375.387109 0)"/>
     <use xlink:href="#Cmmi10-79" transform="translate(420.63125 0)"/>
     <use xlink:href="#Cmr10-29" transform="translate(469.654688 0)"/>
    </g>
   </g>
   <g id="text_6">
    <!-- $P_{\theta}$ -->
    <g transform="translate(152.042619 205.027316) scale(0.15 -0.15)">
     <use xlink:href="#Cmmi10-50" transform="translate(0 0.6875)"/>
     <use xlink:href="#Cmmi10-b5" transform="translate(64.208984 -16.31875) scale(0.7)"/>
    </g>
   </g>
   <g id="text_7">
    <!-- $1$ -->
    <g transform="translate(107.855837 244.467099) scale(0.15 -0.15)">
     <defs>
      <path id="Cmr10-31" d="M 594 0 
L 594 225 
Q 1394 225 1394 428 
L 1394 3788 
Q 1063 3628 556 3628 
L 556 3853 
Q 1341 3853 1741 4263 
L 1831 4263 
Q 1853 4263 1873 4245 
Q 1894 4228 1894 4206 
L 1894 428 
Q 1894 225 2694 225 
L 2694 0 
L 594 0 
z
" transform="scale(0.015625)"/>
     </defs>
     <use xlink:href="#Cmr10-31" transform="translate(0 0.390625)"/>
    </g>
   </g>
   <g id="text_8">
    <!-- $r$ -->
    <g transform="translate(146.197092 167.854385) scale(0.15 -0.15)">
     <use xlink:href="#Cmmi10-72" transform="translate(0 0.8125)"/>
    </g>
   </g>
  </g>
 </g>
 <defs>
  <clipPath id="p25aa76ba19">
   <rect x="7.2" y="7.2" width="324.001464" height="324"/>
  </clipPath>
 </defs>
</svg>
