<?xml version="1.0" encoding="utf-8" standalone="no"?>
<!DOCTYPE svg PUBLIC "-//W3C//DTD SVG 1.1//EN"
  "http://www.w3.org/Graphics/SVG/1.1/DTD/svg11.dtd">
<svg xmlns:xlink="http://www.w3.org/1999/xlink" width="453.6pt" height="288.9pt" viewBox="0 0 453.6 288.9" xmlns="http://www.w3.org/2000/svg" version="1.1">
 <metadata>
  <rdf:RDF xmlns:dc="http://purl.org/dc/elements/1.1/" xmlns:cc="http://creativecommons.org/ns#" xmlns:rdf="http://www.w3.org/1999/02/22-rdf-syntax-ns#">
   <cc:Work>
    <dc:type rdf:resource="http://purl.org/dc/dcmitype/StillImage"/>
    <dc:date>2025-10-27T11:46:07.888625</dc:date>
    <dc:format>image/svg+xml</dc:format>
    <dc:creator>
     <cc:Agent>
      <dc:title>Matplotlib v3.6.2, https://matplotlib.org/</dc:title>
     </cc:Agent>
    </dc:creator>
   </cc:Work>
  </rdf:RDF>
 </metadata>
 <defs>
  <style type="text/css">*{stroke-linejoin: round; stroke-linecap: butt}</style>
 </defs>
 <g id="figure_1">
  <g id="patch_1">
   <path d="M 0 288.9 
L 453.6 288.9 
L 453.6 0 
L 0 0 
z
" style="fill: #ffffff"/>
  </g>
  <g id="axes_1">
   <g id="patch_2">
    <path d="M 7.2 281.7 
L 446.4 281.7 
L 446.4 7.2 
L 7.2 7.2 
z
" style="fill: #ffffff"/>
   </g>
   <g id="matplotlib.axis_1"/>
   <g id="matplotlib.axis_2"/>
   <g id="line2d_1">
    <path d="M 247.915385 12.478846 
L 249.215726 42.213335 
L 250.561894 67.998512 
L 251.917662 89.8912 
L 253.308979 108.957335 
L 254.76351 125.925614 
L 256.281905 141.028244 
L 257.818564 154.110686 
L 259.364476 165.447774 
L 260.972785 175.647672 
L 262.664111 184.928366 
L 264.396389 193.165309 
L 266.15574 200.442633 
L 267.955252 206.941686 
L 269.792873 212.754201 
L 271.664921 217.956525 
L 273.562969 222.606215 
L 275.654122 227.114607 
L 277.728118 231.048754 
L 279.788049 234.507922 
L 281.9596 237.743084 
L 284.283461 240.807119 
L 286.73472 243.66069 
L 289.262398 246.25849 
L 291.714317 248.494043 
L 294.50689 250.750243 
L 297.416073 252.821812 
L 300.543793 254.781213 
L 303.619076 256.479148 
L 307.56105 258.378389 
L 311.439344 259.993996 
L 315.873148 261.588687 
L 320.91849 263.13629 
L 325.656004 264.379091 
L 331.645737 265.715691 
L 337.576078 266.831233 
L 344.855098 267.977362 
L 352.962134 269.027673 
L 362.892165 270.067248 
L 374.048341 270.993575 
L 387.055752 271.838894 
L 403.217332 272.639999 
L 422.064969 273.33471 
L 437.953846 273.781731 
L 437.953846 273.781731 
" clip-path="url(#pee4703039b)" style="fill: none; stroke: #0000ff; stroke-linecap: square"/>
   </g>
   <g id="line2d_2">
    <path d="M 15.646154 276.421154 
L 437.953846 276.421154 
L 437.953846 276.421154 
" clip-path="url(#pee4703039b)" style="fill: none; stroke-dasharray: 2,3.3; stroke-dashoffset: 0; stroke: #ff0000; stroke-width: 2"/>
   </g>
   <g id="line2d_3">
    <path d="M 15.646154 273.781731 
L 38.820529 273.090832 
L 56.386016 272.368901 
L 70.735722 271.589454 
L 83.406932 270.697799 
L 94.495869 269.698199 
L 104.479909 268.555924 
L 112.468332 267.41843 
L 119.443494 266.210577 
L 125.785916 264.888131 
L 131.419963 263.485391 
L 136.69969 261.924945 
L 141.419664 260.277892 
L 145.511059 258.611968 
L 149.448847 256.752555 
L 152.965184 254.834536 
L 156.167878 252.832536 
L 159.274441 250.612187 
L 162.054443 248.348268 
L 164.736935 245.86909 
L 167.126729 243.372992 
L 169.568258 240.493152 
L 171.846266 237.452752 
L 174.017996 234.180051 
L 176.052779 230.724703 
L 178.065518 226.872222 
L 180.038898 222.601919 
L 181.947568 217.923962 
L 183.850895 212.624373 
L 185.641347 206.95317 
L 187.419359 200.538686 
L 189.151314 193.396445 
L 190.802805 185.603627 
L 192.431082 176.794562 
L 194.021598 166.89157 
L 195.5445 155.958039 
L 197.034556 143.595407 
L 198.487517 129.612694 
L 199.893357 113.870783 
L 201.257723 96.041403 
L 202.595931 75.544139 
L 203.895315 52.106133 
L 205.166692 24.965664 
L 205.684615 12.478846 
L 205.684615 12.478846 
" clip-path="url(#pee4703039b)" style="fill: none; stroke: #0000ff; stroke-linecap: square"/>
   </g>
   <g id="patch_3">
    <path d="M 226.8 281.7 
L 226.8 7.2 
" style="fill: none; stroke: #000000; stroke-width: 0.8; stroke-linejoin: miter; stroke-linecap: square"/>
   </g>
   <g id="patch_4">
    <path d="M 7.2 276.421154 
L 446.4 276.421154 
" style="fill: none; stroke: #000000; stroke-width: 0.8; stroke-linejoin: miter; stroke-linecap: square"/>
   </g>
  </g>
 </g>
 <defs>
  <clipPath id="pee4703039b">
   <rect x="7.2" y="7.2" width="439.2" height="274.5"/>
  </clipPath>
 </defs>
</svg>
