<?xml version="1.0" encoding="utf-8" standalone="no"?>
<!DOCTYPE svg PUBLIC "-//W3C//DTD SVG 1.1//EN"
  "http://www.w3.org/Graphics/SVG/1.1/DTD/svg11.dtd">
<svg xmlns:xlink="http://www.w3.org/1999/xlink" width="419.4pt" height="338.4pt" viewBox="0 0 419.4 338.4" xmlns="http://www.w3.org/2000/svg" version="1.1">
 <metadata>
  <rdf:RDF xmlns:dc="http://purl.org/dc/elements/1.1/" xmlns:cc="http://creativecommons.org/ns#" xmlns:rdf="http://www.w3.org/1999/02/22-rdf-syntax-ns#">
   <cc:Work>
    <dc:type rdf:resource="http://purl.org/dc/dcmitype/StillImage"/>
    <dc:date>2025-11-02T21:44:51.357077</dc:date>
    <dc:format>image/svg+xml</dc:format>
    <dc:creator>
     <cc:Agent>
      <dc:title>Matplotlib v3.8.0, https://matplotlib.org/</dc:title>
     </cc:Agent>
    </dc:creator>
   </cc:Work>
  </rdf:RDF>
 </metadata>
 <defs>
  <style type="text/css">*{stroke-linejoin: round; stroke-linecap: butt}</style>
 </defs>
 <g id="figure_1">
  <g id="patch_1">
   <path d="M 0 338.4 
L 419.4 338.4 
L 419.4 0 
L 0 0 
z
" style="fill: #ffffff"/>
  </g>
  <g id="axes_1">
   <g id="patch_2">
    <path d="M 7.2 331.2 
L 412.2 331.2 
L 412.2 7.2 
L 7.2 7.2 
z
" style="fill: #ffffff"/>
   </g>
   <g id="matplotlib.axis_1"/>
   <g id="matplotlib.axis_2"/>
   <g id="line2d_1">
    <path d="M 216.828167 -1 
L 217.736394 18.236438 
L 218.770589 35.44875 
L 219.846445 49.630767 
L 221.007403 61.90722 
L 222.126614 71.570613 
L 223.435261 80.872397 
L 224.75794 88.631033 
L 226.040032 94.952736 
L 227.560821 101.274641 
L 229.127401 106.751983 
L 230.509961 110.900867 
L 232.283593 115.479468 
L 234.18086 119.642809 
L 235.903401 122.900564 
L 237.922827 126.213426 
L 240.195798 129.417383 
L 242.722847 132.461719 
L 244.973096 134.805439 
L 247.196299 136.844736 
L 249.7126 138.879484 
L 252.636251 140.944094 
L 255.828051 142.899243 
L 258.408078 144.292373 
L 262.362022 146.162475 
L 266.481302 147.833765 
L 271.213343 149.477406 
L 275.655358 150.8057 
L 280.899753 152.160578 
L 287.161349 153.537961 
L 293.902345 154.791819 
L 302.059993 156.064414 
L 310.119594 157.118666 
L 319.815851 158.182488 
L 331.629077 159.249932 
L 344.877688 160.225126 
L 361.41324 161.203317 
L 381.105284 162.122023 
L 404.411538 162.969231 
L 404.411538 162.969231 
" clip-path="url(#p06f2c542a1)" style="fill: none; stroke: #0000ff; stroke-linecap: square"/>
   </g>
   <g id="line2d_2">
    <path d="M 14.988462 169.2 
L 404.411538 169.2 
L 404.411538 169.2 
" clip-path="url(#p06f2c542a1)" style="fill: none; stroke-dasharray: 2,3.3; stroke-dashoffset: 0; stroke: #ff0000; stroke-width: 2"/>
   </g>
   <g id="line2d_3">
    <path d="M 14.988462 175.430769 
L 38.719164 176.295548 
L 59.011437 177.25106 
L 75.82717 178.262352 
L 88.375525 179.199653 
L 100.124291 180.271821 
L 111.169717 181.512993 
L 119.958663 182.718883 
L 127.736238 184.001696 
L 134.650338 185.365332 
L 140.798338 186.807742 
L 146.197534 188.304812 
L 151.398442 190.009095 
L 155.646295 191.644394 
L 158.380263 192.840079 
L 162.646823 194.98365 
L 166.121463 197.039454 
L 169.102239 199.083487 
L 171.79611 201.207339 
L 174.487479 203.653729 
L 176.732472 205.999928 
L 178.879247 208.563174 
L 180.86534 211.274457 
L 182.415832 213.665444 
L 184.534172 217.408335 
L 186.4212 221.316203 
L 187.926829 224.920072 
L 189.502626 229.267346 
L 190.886715 233.686488 
L 192.433309 239.462603 
L 193.836822 245.679168 
L 195.230097 253.043176 
L 196.550354 261.46124 
L 197.758732 270.797473 
L 198.899504 281.528422 
L 199.950812 293.641411 
L 200.976212 308.268334 
L 201.968231 326.11139 
L 202.571728 339.4 
L 202.571728 339.4 
" clip-path="url(#p06f2c542a1)" style="fill: none; stroke: #0000ff; stroke-linecap: square"/>
   </g>
   <g id="patch_3">
    <path d="M 209.7 331.2 
L 209.7 7.2 
" style="fill: none; stroke: #000000; stroke-width: 0.8; stroke-linejoin: miter; stroke-linecap: square"/>
   </g>
   <g id="patch_4">
    <path d="M 7.2 169.2 
L 412.2 169.2 
" style="fill: none; stroke: #000000; stroke-width: 0.8; stroke-linejoin: miter; stroke-linecap: square"/>
   </g>
  </g>
 </g>
 <defs>
  <clipPath id="p06f2c542a1">
   <rect x="7.2" y="7.2" width="405" height="324"/>
  </clipPath>
 </defs>
</svg>
