<?xml version="1.0" encoding="utf-8" standalone="no"?>
<!DOCTYPE svg PUBLIC "-//W3C//DTD SVG 1.1//EN"
  "http://www.w3.org/Graphics/SVG/1.1/DTD/svg11.dtd">
<svg xmlns:xlink="http://www.w3.org/1999/xlink" width="345.071948pt" height="337.380457pt" viewBox="0 0 345.071948 337.380457" xmlns="http://www.w3.org/2000/svg" version="1.1">
 <metadata>
  <rdf:RDF xmlns:dc="http://purl.org/dc/elements/1.1/" xmlns:cc="http://creativecommons.org/ns#" xmlns:rdf="http://www.w3.org/1999/02/22-rdf-syntax-ns#">
   <cc:Work>
    <dc:type rdf:resource="http://purl.org/dc/dcmitype/StillImage"/>
    <dc:date>2026-03-08T11:19:36.571614</dc:date>
    <dc:format>image/svg+xml</dc:format>
    <dc:creator>
     <cc:Agent>
      <dc:title>Matplotlib v3.8.0, https://matplotlib.org/</dc:title>
     </cc:Agent>
    </dc:creator>
   </cc:Work>
  </rdf:RDF>
 </metadata>
 <defs>
  <style type="text/css">*{stroke-linejoin: round; stroke-linecap: butt}</style>
 </defs>
 <g id="figure_1">
  <g id="patch_1">
   <path d="M 0 337.380457 
L 345.071948 337.380457 
L 345.071948 0 
L 0 0 
z
" style="fill: #ffffff"/>
  </g>
  <g id="axes_1">
   <g id="patch_2">
    <path d="M 13.135893 330.180457 
L 336.131847 330.180457 
L 336.131847 7.2 
L 13.135893 7.2 
z
" style="fill: #ffffff"/>
   </g>
   <g id="PathCollection_1">
    <path d="M 252.275641 37.751427 
C 253.213276 37.751427 254.112633 37.378901 254.775641 36.715893 
C 255.438649 36.052885 255.811175 35.153528 255.811175 34.215893 
C 255.811175 33.278259 255.438649 32.378901 254.775641 31.715893 
C 254.112633 31.052885 253.213276 30.680359 252.275641 30.680359 
C 251.338006 30.680359 250.438649 31.052885 249.775641 31.715893 
C 249.112633 32.378901 248.740107 33.278259 248.740107 34.215893 
C 248.740107 35.153528 249.112633 36.052885 249.775641 36.715893 
C 250.438649 37.378901 251.338006 37.751427 252.275641 37.751427 
z
" clip-path="url(#p5ddc61c199)" style="fill: #0000ff"/>
   </g>
   <g id="PathCollection_2">
    <path d="M 96.986151 306.720713 
C 97.923786 306.720713 98.823143 306.348187 99.486151 305.685179 
C 100.149159 305.022172 100.521685 304.122814 100.521685 303.185179 
C 100.521685 302.247545 100.149159 301.348187 99.486151 300.685179 
C 98.823143 300.022172 97.923786 299.649646 96.986151 299.649646 
C 96.048517 299.649646 95.149159 300.022172 94.486151 300.685179 
C 93.823143 301.348187 93.450617 302.247545 93.450617 303.185179 
C 93.450617 304.122814 93.823143 305.022172 94.486151 305.685179 
C 95.149159 306.348187 96.048517 306.720713 96.986151 306.720713 
z
" clip-path="url(#p5ddc61c199)" style="fill: #0000ff"/>
   </g>
   <g id="matplotlib.axis_1">
    <g id="xtick_1">
     <g id="line2d_1">
      <defs>
       <path id="mf0ae430f7d" d="M 0 0 
L 0 3.5 
" style="stroke: #000000; stroke-width: 0.8"/>
      </defs>
      <g>
       <use xlink:href="#mf0ae430f7d" x="19.341406" y="168.700536" style="stroke: #000000; stroke-width: 0.8"/>
      </g>
     </g>
     <g id="text_1">
      <!-- −1.0 -->
      <g transform="translate(7.2 183.298974) scale(0.1 -0.1)">
       <defs>
        <path id="DejaVuSans-2212" d="M 678 2272 
L 4684 2272 
L 4684 1741 
L 678 1741 
L 678 2272 
z
" transform="scale(0.015625)"/>
        <path id="DejaVuSans-31" d="M 794 531 
L 1825 531 
L 1825 4091 
L 703 3866 
L 703 4441 
L 1819 4666 
L 2450 4666 
L 2450 531 
L 3481 531 
L 3481 0 
L 794 0 
L 794 531 
z
" transform="scale(0.015625)"/>
        <path id="DejaVuSans-2e" d="M 684 794 
L 1344 794 
L 1344 0 
L 684 0 
L 684 794 
z
" transform="scale(0.015625)"/>
        <path id="DejaVuSans-30" d="M 2034 4250 
Q 1547 4250 1301 3770 
Q 1056 3291 1056 2328 
Q 1056 1369 1301 889 
Q 1547 409 2034 409 
Q 2525 409 2770 889 
Q 3016 1369 3016 2328 
Q 3016 3291 2770 3770 
Q 2525 4250 2034 4250 
z
M 2034 4750 
Q 2819 4750 3233 4129 
Q 3647 3509 3647 2328 
Q 3647 1150 3233 529 
Q 2819 -91 2034 -91 
Q 1250 -91 836 529 
Q 422 1150 422 2328 
Q 422 3509 836 4129 
Q 1250 4750 2034 4750 
z
" transform="scale(0.015625)"/>
       </defs>
       <use xlink:href="#DejaVuSans-2212"/>
       <use xlink:href="#DejaVuSans-31" x="83.789062"/>
       <use xlink:href="#DejaVuSans-2e" x="147.412109"/>
       <use xlink:href="#DejaVuSans-30" x="179.199219"/>
      </g>
     </g>
    </g>
    <g id="xtick_2">
     <g id="line2d_2">
      <g>
       <use xlink:href="#mf0ae430f7d" x="96.986151" y="168.700536" style="stroke: #000000; stroke-width: 0.8"/>
      </g>
     </g>
     <g id="text_2">
      <!-- −0.5 -->
      <g transform="translate(84.844745 183.298974) scale(0.1 -0.1)">
       <defs>
        <path id="DejaVuSans-35" d="M 691 4666 
L 3169 4666 
L 3169 4134 
L 1269 4134 
L 1269 2991 
Q 1406 3038 1543 3061 
Q 1681 3084 1819 3084 
Q 2600 3084 3056 2656 
Q 3513 2228 3513 1497 
Q 3513 744 3044 326 
Q 2575 -91 1722 -91 
Q 1428 -91 1123 -41 
Q 819 9 494 109 
L 494 744 
Q 775 591 1075 516 
Q 1375 441 1709 441 
Q 2250 441 2565 725 
Q 2881 1009 2881 1497 
Q 2881 1984 2565 2268 
Q 2250 2553 1709 2553 
Q 1456 2553 1204 2497 
Q 953 2441 691 2322 
L 691 4666 
z
" transform="scale(0.015625)"/>
       </defs>
       <use xlink:href="#DejaVuSans-2212"/>
       <use xlink:href="#DejaVuSans-30" x="83.789062"/>
       <use xlink:href="#DejaVuSans-2e" x="147.412109"/>
       <use xlink:href="#DejaVuSans-35" x="179.199219"/>
      </g>
     </g>
    </g>
    <g id="xtick_3">
     <g id="line2d_3">
      <g>
       <use xlink:href="#mf0ae430f7d" x="174.630896" y="168.700536" style="stroke: #000000; stroke-width: 0.8"/>
      </g>
     </g>
    </g>
    <g id="xtick_4">
     <g id="line2d_4">
      <g>
       <use xlink:href="#mf0ae430f7d" x="252.275641" y="168.700536" style="stroke: #000000; stroke-width: 0.8"/>
      </g>
     </g>
     <g id="text_3">
      <!-- 0.5 -->
      <g transform="translate(244.324079 183.298974) scale(0.1 -0.1)">
       <use xlink:href="#DejaVuSans-30"/>
       <use xlink:href="#DejaVuSans-2e" x="63.623047"/>
       <use xlink:href="#DejaVuSans-35" x="95.410156"/>
      </g>
     </g>
    </g>
    <g id="xtick_5">
     <g id="line2d_5">
      <g>
       <use xlink:href="#mf0ae430f7d" x="329.920386" y="168.700536" style="stroke: #000000; stroke-width: 0.8"/>
      </g>
     </g>
     <g id="text_4">
      <!-- 1.0 -->
      <g transform="translate(321.968823 183.298974) scale(0.1 -0.1)">
       <use xlink:href="#DejaVuSans-31"/>
       <use xlink:href="#DejaVuSans-2e" x="63.623047"/>
       <use xlink:href="#DejaVuSans-30" x="95.410156"/>
      </g>
     </g>
    </g>
    <g id="xtick_6">
     <g id="line2d_6">
      <defs>
       <path id="mdcbdd45667" d="M 0 0 
L 0 2 
" style="stroke: #000000; stroke-width: 0.6"/>
      </defs>
      <g>
       <use xlink:href="#mdcbdd45667" x="34.870355" y="168.700536" style="stroke: #000000; stroke-width: 0.6"/>
      </g>
     </g>
    </g>
    <g id="xtick_7">
     <g id="line2d_7">
      <g>
       <use xlink:href="#mdcbdd45667" x="50.399304" y="168.700536" style="stroke: #000000; stroke-width: 0.6"/>
      </g>
     </g>
    </g>
    <g id="xtick_8">
     <g id="line2d_8">
      <g>
       <use xlink:href="#mdcbdd45667" x="65.928253" y="168.700536" style="stroke: #000000; stroke-width: 0.6"/>
      </g>
     </g>
    </g>
    <g id="xtick_9">
     <g id="line2d_9">
      <g>
       <use xlink:href="#mdcbdd45667" x="81.457202" y="168.700536" style="stroke: #000000; stroke-width: 0.6"/>
      </g>
     </g>
    </g>
    <g id="xtick_10">
     <g id="line2d_10">
      <g>
       <use xlink:href="#mdcbdd45667" x="112.5151" y="168.700536" style="stroke: #000000; stroke-width: 0.6"/>
      </g>
     </g>
    </g>
    <g id="xtick_11">
     <g id="line2d_11">
      <g>
       <use xlink:href="#mdcbdd45667" x="128.044049" y="168.700536" style="stroke: #000000; stroke-width: 0.6"/>
      </g>
     </g>
    </g>
    <g id="xtick_12">
     <g id="line2d_12">
      <g>
       <use xlink:href="#mdcbdd45667" x="143.572998" y="168.700536" style="stroke: #000000; stroke-width: 0.6"/>
      </g>
     </g>
    </g>
    <g id="xtick_13">
     <g id="line2d_13">
      <g>
       <use xlink:href="#mdcbdd45667" x="159.101947" y="168.700536" style="stroke: #000000; stroke-width: 0.6"/>
      </g>
     </g>
    </g>
    <g id="xtick_14">
     <g id="line2d_14">
      <g>
       <use xlink:href="#mdcbdd45667" x="190.159845" y="168.700536" style="stroke: #000000; stroke-width: 0.6"/>
      </g>
     </g>
    </g>
    <g id="xtick_15">
     <g id="line2d_15">
      <g>
       <use xlink:href="#mdcbdd45667" x="205.688794" y="168.700536" style="stroke: #000000; stroke-width: 0.6"/>
      </g>
     </g>
    </g>
    <g id="xtick_16">
     <g id="line2d_16">
      <g>
       <use xlink:href="#mdcbdd45667" x="221.217743" y="168.700536" style="stroke: #000000; stroke-width: 0.6"/>
      </g>
     </g>
    </g>
    <g id="xtick_17">
     <g id="line2d_17">
      <g>
       <use xlink:href="#mdcbdd45667" x="236.746692" y="168.700536" style="stroke: #000000; stroke-width: 0.6"/>
      </g>
     </g>
    </g>
    <g id="xtick_18">
     <g id="line2d_18">
      <g>
       <use xlink:href="#mdcbdd45667" x="267.80459" y="168.700536" style="stroke: #000000; stroke-width: 0.6"/>
      </g>
     </g>
    </g>
    <g id="xtick_19">
     <g id="line2d_19">
      <g>
       <use xlink:href="#mdcbdd45667" x="283.333539" y="168.700536" style="stroke: #000000; stroke-width: 0.6"/>
      </g>
     </g>
    </g>
    <g id="xtick_20">
     <g id="line2d_20">
      <g>
       <use xlink:href="#mdcbdd45667" x="298.862488" y="168.700536" style="stroke: #000000; stroke-width: 0.6"/>
      </g>
     </g>
    </g>
    <g id="xtick_21">
     <g id="line2d_21">
      <g>
       <use xlink:href="#mdcbdd45667" x="314.391437" y="168.700536" style="stroke: #000000; stroke-width: 0.6"/>
      </g>
     </g>
    </g>
   </g>
   <g id="matplotlib.axis_2">
    <g id="ytick_1">
     <g id="line2d_22">
      <defs>
       <path id="ma9ecf0fa7e" d="M 0 0 
L -3.5 0 
" style="stroke: #000000; stroke-width: 0.8"/>
      </defs>
      <g>
       <use xlink:href="#ma9ecf0fa7e" x="174.630896" y="323.990026" style="stroke: #000000; stroke-width: 0.8"/>
      </g>
     </g>
     <g id="text_5">
      <!-- −1.0 -->
      <g transform="translate(143.348084 327.789245) scale(0.1 -0.1)">
       <use xlink:href="#DejaVuSans-2212"/>
       <use xlink:href="#DejaVuSans-31" x="83.789062"/>
       <use xlink:href="#DejaVuSans-2e" x="147.412109"/>
       <use xlink:href="#DejaVuSans-30" x="179.199219"/>
      </g>
     </g>
    </g>
    <g id="ytick_2">
     <g id="line2d_23">
      <g>
       <use xlink:href="#ma9ecf0fa7e" x="174.630896" y="246.345281" style="stroke: #000000; stroke-width: 0.8"/>
      </g>
     </g>
     <g id="text_6">
      <!-- −0.5 -->
      <g transform="translate(143.348084 250.1445) scale(0.1 -0.1)">
       <use xlink:href="#DejaVuSans-2212"/>
       <use xlink:href="#DejaVuSans-30" x="83.789062"/>
       <use xlink:href="#DejaVuSans-2e" x="147.412109"/>
       <use xlink:href="#DejaVuSans-35" x="179.199219"/>
      </g>
     </g>
    </g>
    <g id="ytick_3">
     <g id="line2d_24">
      <g>
       <use xlink:href="#ma9ecf0fa7e" x="174.630896" y="168.700536" style="stroke: #000000; stroke-width: 0.8"/>
      </g>
     </g>
    </g>
    <g id="ytick_4">
     <g id="line2d_25">
      <g>
       <use xlink:href="#ma9ecf0fa7e" x="174.630896" y="91.055791" style="stroke: #000000; stroke-width: 0.8"/>
      </g>
     </g>
     <g id="text_7">
      <!-- 0.5 -->
      <g transform="translate(151.727771 94.85501) scale(0.1 -0.1)">
       <use xlink:href="#DejaVuSans-30"/>
       <use xlink:href="#DejaVuSans-2e" x="63.623047"/>
       <use xlink:href="#DejaVuSans-35" x="95.410156"/>
      </g>
     </g>
    </g>
    <g id="ytick_5">
     <g id="line2d_26">
      <g>
       <use xlink:href="#ma9ecf0fa7e" x="174.630896" y="13.411046" style="stroke: #000000; stroke-width: 0.8"/>
      </g>
     </g>
     <g id="text_8">
      <!-- 1.0 -->
      <g transform="translate(151.727771 17.210265) scale(0.1 -0.1)">
       <use xlink:href="#DejaVuSans-31"/>
       <use xlink:href="#DejaVuSans-2e" x="63.623047"/>
       <use xlink:href="#DejaVuSans-30" x="95.410156"/>
      </g>
     </g>
    </g>
    <g id="ytick_6">
     <g id="line2d_27">
      <defs>
       <path id="m1e42fdf7f7" d="M 0 0 
L -2 0 
" style="stroke: #000000; stroke-width: 0.6"/>
      </defs>
      <g>
       <use xlink:href="#m1e42fdf7f7" x="174.630896" y="308.461077" style="stroke: #000000; stroke-width: 0.6"/>
      </g>
     </g>
    </g>
    <g id="ytick_7">
     <g id="line2d_28">
      <g>
       <use xlink:href="#m1e42fdf7f7" x="174.630896" y="292.932128" style="stroke: #000000; stroke-width: 0.6"/>
      </g>
     </g>
    </g>
    <g id="ytick_8">
     <g id="line2d_29">
      <g>
       <use xlink:href="#m1e42fdf7f7" x="174.630896" y="277.403179" style="stroke: #000000; stroke-width: 0.6"/>
      </g>
     </g>
    </g>
    <g id="ytick_9">
     <g id="line2d_30">
      <g>
       <use xlink:href="#m1e42fdf7f7" x="174.630896" y="261.87423" style="stroke: #000000; stroke-width: 0.6"/>
      </g>
     </g>
    </g>
    <g id="ytick_10">
     <g id="line2d_31">
      <g>
       <use xlink:href="#m1e42fdf7f7" x="174.630896" y="230.816332" style="stroke: #000000; stroke-width: 0.6"/>
      </g>
     </g>
    </g>
    <g id="ytick_11">
     <g id="line2d_32">
      <g>
       <use xlink:href="#m1e42fdf7f7" x="174.630896" y="215.287383" style="stroke: #000000; stroke-width: 0.6"/>
      </g>
     </g>
    </g>
    <g id="ytick_12">
     <g id="line2d_33">
      <g>
       <use xlink:href="#m1e42fdf7f7" x="174.630896" y="199.758434" style="stroke: #000000; stroke-width: 0.6"/>
      </g>
     </g>
    </g>
    <g id="ytick_13">
     <g id="line2d_34">
      <g>
       <use xlink:href="#m1e42fdf7f7" x="174.630896" y="184.229485" style="stroke: #000000; stroke-width: 0.6"/>
      </g>
     </g>
    </g>
    <g id="ytick_14">
     <g id="line2d_35">
      <g>
       <use xlink:href="#m1e42fdf7f7" x="174.630896" y="153.171587" style="stroke: #000000; stroke-width: 0.6"/>
      </g>
     </g>
    </g>
    <g id="ytick_15">
     <g id="line2d_36">
      <g>
       <use xlink:href="#m1e42fdf7f7" x="174.630896" y="137.642638" style="stroke: #000000; stroke-width: 0.6"/>
      </g>
     </g>
    </g>
    <g id="ytick_16">
     <g id="line2d_37">
      <g>
       <use xlink:href="#m1e42fdf7f7" x="174.630896" y="122.113689" style="stroke: #000000; stroke-width: 0.6"/>
      </g>
     </g>
    </g>
    <g id="ytick_17">
     <g id="line2d_38">
      <g>
       <use xlink:href="#m1e42fdf7f7" x="174.630896" y="106.58474" style="stroke: #000000; stroke-width: 0.6"/>
      </g>
     </g>
    </g>
    <g id="ytick_18">
     <g id="line2d_39">
      <g>
       <use xlink:href="#m1e42fdf7f7" x="174.630896" y="75.526842" style="stroke: #000000; stroke-width: 0.6"/>
      </g>
     </g>
    </g>
    <g id="ytick_19">
     <g id="line2d_40">
      <g>
       <use xlink:href="#m1e42fdf7f7" x="174.630896" y="59.997893" style="stroke: #000000; stroke-width: 0.6"/>
      </g>
     </g>
    </g>
    <g id="ytick_20">
     <g id="line2d_41">
      <g>
       <use xlink:href="#m1e42fdf7f7" x="174.630896" y="44.468944" style="stroke: #000000; stroke-width: 0.6"/>
      </g>
     </g>
    </g>
    <g id="ytick_21">
     <g id="line2d_42">
      <g>
       <use xlink:href="#m1e42fdf7f7" x="174.630896" y="28.939995" style="stroke: #000000; stroke-width: 0.6"/>
      </g>
     </g>
    </g>
   </g>
   <g id="line2d_43">
    <path d="M 329.920386 168.700536 
L 329.576938 158.378238 
L 329.264108 154.438856 
L 328.697189 149.247955 
L 327.322638 140.415249 
L 326.109632 134.509628 
L 324.122938 126.665371 
L 322.818546 122.275909 
L 321.3946 117.953705 
L 318.92991 111.319177 
L 317.149801 107.030549 
L 314.32606 100.876595 
L 310.418786 93.358153 
L 308.030242 89.205629 
L 303.888071 82.634234 
L 301.291338 78.85646 
L 296.759978 72.787487 
L 294.948117 70.524206 
L 291.256814 66.166538 
L 287.546914 62.094727 
L 284.434498 58.891635 
L 279.782787 54.429344 
L 275.914092 50.986731 
L 268.742742 45.178125 
L 262.745038 40.830588 
L 258.729154 38.154342 
L 253.215901 34.763153 
L 248.042402 31.859108 
L 241.337344 28.468316 
L 233.952775 25.188375 
L 226.920236 22.479298 
L 223.798973 21.400415 
L 219.267778 19.964615 
L 214.506816 18.618103 
L 203.789237 16.173107 
L 197.718116 15.136849 
L 192.881047 14.487185 
L 188.450179 14.027161 
L 180.152439 13.509241 
L 174.440948 13.411163 
L 167.556814 13.572257 
L 163.044548 13.843886 
L 155.240804 14.626366 
L 145.077874 16.249087 
L 139.799121 17.367879 
L 134.069639 18.80187 
L 130.581798 19.78948 
L 125.904072 21.25386 
L 120.68664 23.081709 
L 116.626855 24.650695 
L 107.286942 28.77335 
L 103.514964 30.652176 
L 97.694891 33.809185 
L 91.304116 37.660568 
L 86.246384 41.01732 
L 81.82295 44.195473 
L 76.062298 48.704465 
L 69.509444 54.401342 
L 65.145287 58.574576 
L 61.82222 61.981146 
L 58.385403 65.735441 
L 55.329157 69.292686 
L 51.248841 74.404756 
L 45.482 82.471839 
L 42.373909 87.319242 
L 37.931468 95.024951 
L 35.486607 99.75351 
L 31.862403 107.610579 
L 29.177705 114.311247 
L 27.717855 118.387674 
L 25.066609 126.923153 
L 23.118341 134.659807 
L 21.718317 141.634526 
L 20.99153 146.12243 
L 20.206909 152.328061 
L 19.735519 157.643961 
L 19.443091 163.08174 
L 19.347353 167.341498 
L 19.369833 171.671719 
L 19.611658 177.858121 
L 20.313464 186.048616 
L 21.073918 191.832333 
L 21.725416 195.806621 
L 23.202697 203.114575 
L 24.543249 208.556824 
L 26.093864 213.994861 
L 29.005744 222.627715 
L 31.903426 229.886277 
L 35.275676 237.220229 
L 37.844427 242.214396 
L 40.073729 246.21953 
L 42.912455 250.950629 
L 46.687181 256.707533 
L 49.931867 261.247702 
L 54.410398 266.995284 
L 57.377435 270.516309 
L 61.466249 275.042383 
L 67.553829 281.169765 
L 71.007627 284.359707 
L 77.013877 289.471986 
L 80.506778 292.213596 
L 88.216077 297.724971 
L 92.711791 300.625083 
L 97.0254 303.207832 
L 106.721396 308.354127 
L 115.904529 312.457412 
L 121.08681 314.466981 
L 129.076057 317.157878 
L 136.900994 319.336787 
L 140.488788 320.190279 
L 146.44133 321.409979 
L 151.524838 322.26139 
L 157.733704 323.067989 
L 163.146348 323.56477 
L 167.77989 323.838827 
L 172.093485 323.969294 
L 177.639514 323.960879 
L 183.262581 323.749947 
L 188.045836 323.409505 
L 194.832665 322.670385 
L 200.78998 321.770873 
L 205.921588 320.804837 
L 214.813906 318.701041 
L 225.953165 315.264005 
L 232.33614 312.870334 
L 235.774347 311.446129 
L 241.473009 308.868142 
L 244.792902 307.236158 
L 252.548921 303.027031 
L 255.273898 301.408984 
L 263.538299 296.02021 
L 271.563382 290.022088 
L 275.071701 287.133937 
L 279.97766 282.7921 
L 283.683478 279.25532 
L 289.429333 273.276559 
L 295.971646 265.608988 
L 299.408392 261.14188 
L 303.130663 255.89363 
L 306.94131 249.994939 
L 310.115389 244.587148 
L 312.091684 240.945657 
L 316.39651 232.082997 
L 318.13645 228.038396 
L 319.875912 223.643333 
L 321.360982 219.544489 
L 323.549519 212.724045 
L 325.294188 206.322315 
L 326.830348 199.525082 
L 327.875932 193.815964 
L 328.689811 188.211466 
L 329.216454 183.469793 
L 329.680237 177.333476 
L 329.920386 168.700536 
L 329.920386 168.700536 
" clip-path="url(#p5ddc61c199)" style="fill: none; stroke: #0000ff; stroke-linecap: square"/>
   </g>
   <g id="line2d_44">
    <path d="M 174.630896 168.700536 
L 252.275641 34.215893 
" clip-path="url(#p5ddc61c199)" style="fill: none; stroke: #0000ff; stroke-linecap: square"/>
   </g>
   <g id="line2d_45">
    <path d="M 174.630896 168.700536 
L 96.986151 303.185179 
" clip-path="url(#p5ddc61c199)" style="fill: none; stroke: #0000ff; stroke-linecap: square"/>
   </g>
   <g id="line2d_46">
    <path d="M 236.746692 168.700536 
L 236.626698 164.841433 
L 236.267775 161.002014 
L 235.699562 157.343154 
L 234.93296 153.799758 
L 233.911739 150.149153 
L 232.713491 146.68272 
L 231.246036 143.144753 
L 229.520771 139.623506 
L 227.604437 136.263272 
L 225.484569 133.031557 
L 223.215948 129.998278 
L 220.734441 127.073198 
L 218.197912 124.425405 
L 215.505682 121.928494 
L 212.539912 119.494046 
L 209.510638 117.302329 
L 206.371091 115.306415 
L 205.688794 114.906679 
L 205.688794 114.906679 
" clip-path="url(#p5ddc61c199)" style="fill: none; stroke: #ff0000; stroke-linecap: square"/>
   </g>
   <g id="line2d_47">
    <path d="M 205.688794 168.700536 
L 205.567869 165.962519 
L 205.295187 163.771615 
L 204.897319 161.733708 
L 204.128458 158.9801 
L 203.18764 156.489664 
L 202.170673 154.342483 
L 200.782882 151.947427 
L 199.398972 149.961928 
L 197.794622 148.011533 
L 196.333623 146.483771 
L 194.537402 144.860988 
L 192.034193 142.976651 
L 189.802286 141.600316 
L 187.622518 140.490418 
L 184.923415 139.397685 
L 182.137637 138.563485 
L 179.200294 137.980614 
L 176.263555 137.685581 
L 173.947174 137.650165 
L 171.048831 137.849899 
L 168.381518 138.277875 
L 165.793032 138.926635 
L 163.234074 139.809266 
L 160.962075 140.812253 
L 158.881896 141.93186 
L 156.551692 143.447113 
L 154.710595 144.872514 
L 152.7778 146.631662 
L 150.933027 148.625577 
L 149.198745 150.873627 
L 147.752462 153.139597 
L 146.433992 155.680259 
L 145.315535 158.443704 
L 144.512863 161.11785 
L 143.897446 164.223027 
L 143.634776 166.74258 
L 143.585518 169.582299 
L 143.825957 172.656384 
L 144.2657 175.223412 
L 144.924934 177.764137 
L 145.613937 179.773436 
L 146.383441 181.610778 
L 147.654626 184.091244 
L 148.977667 186.207817 
L 150.474549 188.221395 
L 152.409464 190.398485 
L 154.252863 192.138301 
L 156.440863 193.874247 
L 158.340301 195.143107 
L 159.101947 195.597465 
L 159.101947 195.597465 
" clip-path="url(#p5ddc61c199)" style="fill: none; stroke: #008000; stroke-linecap: square"/>
   </g>
   <g id="patch_3">
    <path d="M 174.630896 330.180457 
L 174.630896 7.2 
" style="fill: none; stroke: #000000; stroke-width: 0.8; stroke-linejoin: miter; stroke-linecap: square"/>
   </g>
   <g id="patch_4">
    <path d="M 13.135893 168.700536 
L 336.131847 168.700536 
" style="fill: none; stroke: #000000; stroke-width: 0.8; stroke-linejoin: miter; stroke-linecap: square"/>
   </g>
   <g id="text_9">
    <!-- $\theta$ -->
    <g transform="translate(231.858986 137.623526) scale(0.14 -0.14)">
     <defs>
      <path id="Cmmi10-b5" d="M 1031 -72 
Q 741 -72 566 140 
Q 391 353 323 653 
Q 256 953 256 1247 
L 256 1253 
Q 256 1572 317 1915 
Q 378 2259 493 2601 
Q 609 2944 744 3213 
Q 838 3400 986 3631 
Q 1134 3863 1317 4064 
Q 1500 4266 1711 4389 
Q 1922 4513 2138 4513 
L 2144 4513 
Q 2375 4513 2529 4384 
Q 2684 4256 2770 4056 
Q 2856 3856 2890 3628 
Q 2925 3400 2925 3194 
Q 2925 2709 2794 2204 
Q 2663 1700 2431 1228 
Q 2344 1050 2189 809 
Q 2034 569 1861 378 
Q 1688 188 1472 58 
Q 1256 -72 1038 -72 
L 1031 -72 
z
M 1044 97 
Q 1256 97 1451 323 
Q 1647 550 1794 873 
Q 1941 1197 2052 1536 
Q 2163 1875 2216 2113 
L 909 2113 
Q 809 1709 753 1417 
Q 697 1125 697 844 
Q 697 97 1044 97 
z
M 959 2338 
L 2272 2338 
Q 2341 2619 2381 2808 
Q 2422 2997 2450 3206 
Q 2478 3416 2478 3597 
Q 2478 4347 2138 4347 
Q 1731 4347 1436 3692 
Q 1141 3038 959 2338 
z
" transform="scale(0.015625)"/>
     </defs>
     <use xlink:href="#Cmmi10-b5" transform="translate(0 0.484375)"/>
    </g>
   </g>
   <g id="text_10">
    <!-- $\theta+\pi$ -->
    <g transform="translate(138.088591 135.580384) scale(0.14 -0.14)">
     <defs>
      <path id="Cmr10-2b" d="M 481 1472 
Q 428 1472 393 1512 
Q 359 1553 359 1600 
Q 359 1647 393 1687 
Q 428 1728 481 1728 
L 2363 1728 
L 2363 3616 
Q 2363 3666 2400 3698 
Q 2438 3731 2491 3731 
Q 2538 3731 2578 3698 
Q 2619 3666 2619 3616 
L 2619 1728 
L 4500 1728 
Q 4547 1728 4581 1687 
Q 4616 1647 4616 1600 
Q 4616 1553 4581 1512 
Q 4547 1472 4500 1472 
L 2619 1472 
L 2619 -416 
Q 2619 -466 2578 -498 
Q 2538 -531 2491 -531 
Q 2438 -531 2400 -498 
Q 2363 -466 2363 -416 
L 2363 1472 
L 481 1472 
z
" transform="scale(0.015625)"/>
      <path id="Cmmi10-bc" d="M 647 109 
Q 647 144 672 213 
Q 850 584 1004 942 
Q 1159 1300 1282 1639 
Q 1406 1978 1509 2363 
L 1100 2363 
Q 866 2363 662 2216 
Q 459 2069 325 1844 
Q 313 1819 288 1819 
L 213 1819 
Q 153 1819 153 1881 
Q 153 1894 166 1919 
Q 375 2275 614 2517 
Q 853 2759 1153 2759 
L 3475 2759 
Q 3541 2759 3587 2715 
Q 3634 2672 3634 2597 
Q 3634 2503 3567 2433 
Q 3500 2363 3406 2363 
L 2591 2363 
Q 2488 1859 2478 1381 
Q 2478 766 2694 269 
Q 2713 231 2713 191 
Q 2713 122 2672 62 
Q 2631 3 2567 -34 
Q 2503 -72 2431 -72 
Q 2263 -72 2200 203 
Q 2138 478 2138 738 
Q 2138 1103 2200 1442 
Q 2263 1781 2400 2363 
L 1703 2363 
Q 1197 313 1094 103 
Q 1003 -72 844 -72 
Q 766 -72 706 -20 
Q 647 31 647 109 
z
" transform="scale(0.015625)"/>
     </defs>
     <use xlink:href="#Cmmi10-b5" transform="translate(0 0.484375)"/>
     <use xlink:href="#Cmr10-2b" transform="translate(64.482422 0.484375)"/>
     <use xlink:href="#Cmmi10-bc" transform="translate(159.726562 0.484375)"/>
    </g>
   </g>
   <g id="text_11">
    <!-- $P_\theta$ -->
    <g transform="translate(252.760116 24.630554) scale(0.14 -0.14)">
     <defs>
      <path id="Cmmi10-50" d="M 313 0 
Q 250 0 250 84 
Q 253 100 262 139 
Q 272 178 289 201 
Q 306 225 331 225 
Q 722 225 878 269 
Q 959 297 997 441 
L 1875 3956 
Q 1888 4019 1888 4044 
Q 1888 4113 1813 4122 
Q 1691 4147 1350 4147 
Q 1288 4147 1288 4231 
Q 1291 4247 1300 4286 
Q 1309 4325 1326 4348 
Q 1344 4372 1369 4372 
L 3578 4372 
Q 3881 4372 4165 4264 
Q 4450 4156 4631 3934 
Q 4813 3713 4813 3397 
Q 4813 2991 4527 2672 
Q 4241 2353 3814 2175 
Q 3388 1997 2988 1997 
L 1947 1997 
L 1556 416 
Q 1544 353 1544 325 
Q 1544 300 1551 283 
Q 1559 266 1573 261 
Q 1588 256 1619 250 
Q 1741 225 2081 225 
Q 2144 225 2144 141 
Q 2122 50 2109 25 
Q 2097 0 2034 0 
L 313 0 
z
M 1978 2188 
L 2875 2188 
Q 3497 2188 3822 2522 
Q 3988 2688 4092 3000 
Q 4197 3313 4197 3566 
Q 4197 3881 3956 4014 
Q 3716 4147 3359 4147 
L 2747 4147 
Q 2572 4147 2515 4117 
Q 2459 4088 2413 3928 
L 1978 2188 
z
" transform="scale(0.015625)"/>
     </defs>
     <use xlink:href="#Cmmi10-50" transform="translate(0 0.6875)"/>
     <use xlink:href="#Cmmi10-b5" transform="translate(64.208984 -16.31875) scale(0.7)"/>
    </g>
   </g>
   <g id="text_12">
    <!-- $P_{\theta+\pi}$ -->
    <g transform="translate(73.611677 320.188331) scale(0.14 -0.14)">
     <use xlink:href="#Cmmi10-50" transform="translate(0 0.6875)"/>
     <use xlink:href="#Cmmi10-b5" transform="translate(64.208984 -16.31875) scale(0.7)"/>
     <use xlink:href="#Cmr10-2b" transform="translate(109.34668 -16.31875) scale(0.7)"/>
     <use xlink:href="#Cmmi10-bc" transform="translate(176.017578 -16.31875) scale(0.7)"/>
    </g>
   </g>
  </g>
 </g>
 <defs>
  <clipPath id="p5ddc61c199">
   <rect x="13.135893" y="7.2" width="322.995954" height="322.980457"/>
  </clipPath>
 </defs>
</svg>
