<?xml version="1.0" encoding="utf-8" standalone="no"?>
<!DOCTYPE svg PUBLIC "-//W3C//DTD SVG 1.1//EN"
  "http://www.w3.org/Graphics/SVG/1.1/DTD/svg11.dtd">
<svg xmlns:xlink="http://www.w3.org/1999/xlink" width="451.423887pt" height="337.397538pt" viewBox="0 0 451.423887 337.397538" xmlns="http://www.w3.org/2000/svg" version="1.1">
 <metadata>
  <rdf:RDF xmlns:dc="http://purl.org/dc/elements/1.1/" xmlns:cc="http://creativecommons.org/ns#" xmlns:rdf="http://www.w3.org/1999/02/22-rdf-syntax-ns#">
   <cc:Work>
    <dc:type rdf:resource="http://purl.org/dc/dcmitype/StillImage"/>
    <dc:date>2026-03-07T14:06:57.058008</dc:date>
    <dc:format>image/svg+xml</dc:format>
    <dc:creator>
     <cc:Agent>
      <dc:title>Matplotlib v3.8.0, https://matplotlib.org/</dc:title>
     </cc:Agent>
    </dc:creator>
   </cc:Work>
  </rdf:RDF>
 </metadata>
 <defs>
  <style type="text/css">*{stroke-linejoin: round; stroke-linecap: butt}</style>
 </defs>
 <g id="figure_1">
  <g id="patch_1">
   <path d="M 0 337.397538 
L 451.423887 337.397538 
L 451.423887 0 
L 0 0 
z
" style="fill: #ffffff"/>
  </g>
  <g id="axes_1">
   <g id="patch_2">
    <path d="M 8.826983 330.197538 
L 444.223887 330.197538 
L 444.223887 7.2 
L 8.826983 7.2 
z
" style="fill: #ffffff"/>
   </g>
   <g id="matplotlib.axis_1">
    <g id="xtick_1">
     <g id="line2d_1">
      <defs>
       <path id="mbf9c3ee3c8" d="M 0 0 
L 0 3.5 
" style="stroke: #000000; stroke-width: 0.8"/>
      </defs>
      <g>
       <use xlink:href="#mbf9c3ee3c8" x="17.2" y="168.698769" style="stroke: #000000; stroke-width: 0.8"/>
      </g>
     </g>
     <g id="text_1">
      <!-- $-2 \, \pi$ -->
      <g transform="translate(7.2 183.297207) scale(0.1 -0.1)">
       <defs>
        <path id="Cmsy10-a1" d="M 653 1472 
Q 600 1472 565 1512 
Q 531 1553 531 1600 
Q 531 1647 565 1687 
Q 600 1728 653 1728 
L 4325 1728 
Q 4375 1728 4408 1687 
Q 4441 1647 4441 1600 
Q 4441 1553 4408 1512 
Q 4375 1472 4325 1472 
L 653 1472 
z
" transform="scale(0.015625)"/>
        <path id="Cmr10-32" d="M 319 0 
L 319 172 
Q 319 188 331 206 
L 1325 1306 
Q 1550 1550 1690 1715 
Q 1831 1881 1968 2097 
Q 2106 2313 2186 2536 
Q 2266 2759 2266 3009 
Q 2266 3272 2169 3511 
Q 2072 3750 1880 3894 
Q 1688 4038 1416 4038 
Q 1138 4038 916 3870 
Q 694 3703 603 3438 
Q 628 3444 672 3444 
Q 816 3444 917 3347 
Q 1019 3250 1019 3097 
Q 1019 2950 917 2848 
Q 816 2747 672 2747 
Q 522 2747 420 2851 
Q 319 2956 319 3097 
Q 319 3338 409 3548 
Q 500 3759 670 3923 
Q 841 4088 1055 4175 
Q 1269 4263 1509 4263 
Q 1875 4263 2190 4108 
Q 2506 3953 2690 3670 
Q 2875 3388 2875 3009 
Q 2875 2731 2753 2481 
Q 2631 2231 2440 2026 
Q 2250 1822 1953 1562 
Q 1656 1303 1563 1216 
L 838 519 
L 1453 519 
Q 1906 519 2211 526 
Q 2516 534 2534 550 
Q 2609 631 2688 1141 
L 2875 1141 
L 2694 0 
L 319 0 
z
" transform="scale(0.015625)"/>
        <path id="Cmmi10-bc" d="M 647 109 
Q 647 144 672 213 
Q 850 584 1004 942 
Q 1159 1300 1282 1639 
Q 1406 1978 1509 2363 
L 1100 2363 
Q 866 2363 662 2216 
Q 459 2069 325 1844 
Q 313 1819 288 1819 
L 213 1819 
Q 153 1819 153 1881 
Q 153 1894 166 1919 
Q 375 2275 614 2517 
Q 853 2759 1153 2759 
L 3475 2759 
Q 3541 2759 3587 2715 
Q 3634 2672 3634 2597 
Q 3634 2503 3567 2433 
Q 3500 2363 3406 2363 
L 2591 2363 
Q 2488 1859 2478 1381 
Q 2478 766 2694 269 
Q 2713 231 2713 191 
Q 2713 122 2672 62 
Q 2631 3 2567 -34 
Q 2503 -72 2431 -72 
Q 2263 -72 2200 203 
Q 2138 478 2138 738 
Q 2138 1103 2200 1442 
Q 2263 1781 2400 2363 
L 1703 2363 
Q 1197 313 1094 103 
Q 1003 -72 844 -72 
Q 766 -72 706 -20 
Q 647 31 647 109 
z
" transform="scale(0.015625)"/>
       </defs>
       <use xlink:href="#Cmsy10-a1" transform="translate(0 0.390625)"/>
       <use xlink:href="#Cmr10-32" transform="translate(77.685547 0.390625)"/>
       <use xlink:href="#Cmmi10-bc" transform="translate(142.318001 0.390625)"/>
      </g>
     </g>
    </g>
    <g id="xtick_2">
     <g id="line2d_2">
      <g>
       <use xlink:href="#mbf9c3ee3c8" x="121.862717" y="168.698769" style="stroke: #000000; stroke-width: 0.8"/>
      </g>
     </g>
     <g id="text_2">
      <!-- $-\pi$ -->
      <g transform="translate(115.112717 183.297207) scale(0.1 -0.1)">
       <use xlink:href="#Cmsy10-a1" transform="translate(0 0.890625)"/>
       <use xlink:href="#Cmmi10-bc" transform="translate(77.685547 0.890625)"/>
      </g>
     </g>
    </g>
    <g id="xtick_3">
     <g id="line2d_3">
      <g>
       <use xlink:href="#mbf9c3ee3c8" x="226.525435" y="168.698769" style="stroke: #000000; stroke-width: 0.8"/>
      </g>
     </g>
    </g>
    <g id="xtick_4">
     <g id="line2d_4">
      <g>
       <use xlink:href="#mbf9c3ee3c8" x="331.188152" y="168.698769" style="stroke: #000000; stroke-width: 0.8"/>
      </g>
     </g>
     <g id="text_3">
      <!-- $\pi$ -->
      <g transform="translate(328.338152 183.297207) scale(0.1 -0.1)">
       <use xlink:href="#Cmmi10-bc" transform="translate(0 0.890625)"/>
      </g>
     </g>
    </g>
    <g id="xtick_5">
     <g id="line2d_5">
      <g>
       <use xlink:href="#mbf9c3ee3c8" x="435.85087" y="168.698769" style="stroke: #000000; stroke-width: 0.8"/>
      </g>
     </g>
     <g id="text_4">
      <!-- $2 \, \pi$ -->
      <g transform="translate(429.75087 183.297207) scale(0.1 -0.1)">
       <use xlink:href="#Cmr10-32" transform="translate(0 0.390625)"/>
       <use xlink:href="#Cmmi10-bc" transform="translate(64.632454 0.390625)"/>
      </g>
     </g>
    </g>
   </g>
   <g id="matplotlib.axis_2">
    <g id="ytick_1">
     <g id="line2d_6">
      <defs>
       <path id="mc6c4e8f5be" d="M 0 0 
L -3.5 0 
" style="stroke: #000000; stroke-width: 0.8"/>
      </defs>
      <g>
       <use xlink:href="#mc6c4e8f5be" x="226.525435" y="323.986047" style="stroke: #000000; stroke-width: 0.8"/>
      </g>
     </g>
     <g id="text_5">
      <!-- $-10$ -->
      <g transform="translate(201.725435 327.785266) scale(0.1 -0.1)">
       <defs>
        <path id="Cmr10-31" d="M 594 0 
L 594 225 
Q 1394 225 1394 428 
L 1394 3788 
Q 1063 3628 556 3628 
L 556 3853 
Q 1341 3853 1741 4263 
L 1831 4263 
Q 1853 4263 1873 4245 
Q 1894 4228 1894 4206 
L 1894 428 
Q 1894 225 2694 225 
L 2694 0 
L 594 0 
z
" transform="scale(0.015625)"/>
        <path id="Cmr10-30" d="M 1600 -141 
Q 816 -141 533 504 
Q 250 1150 250 2041 
Q 250 2597 351 3087 
Q 453 3578 754 3920 
Q 1056 4263 1600 4263 
Q 2022 4263 2290 4056 
Q 2559 3850 2700 3523 
Q 2841 3197 2892 2823 
Q 2944 2450 2944 2041 
Q 2944 1491 2842 1011 
Q 2741 531 2444 195 
Q 2147 -141 1600 -141 
z
M 1600 25 
Q 1956 25 2131 390 
Q 2306 756 2347 1200 
Q 2388 1644 2388 2144 
Q 2388 2625 2347 3031 
Q 2306 3438 2132 3767 
Q 1959 4097 1600 4097 
Q 1238 4097 1063 3765 
Q 888 3434 847 3029 
Q 806 2625 806 2144 
Q 806 1788 823 1472 
Q 841 1156 916 820 
Q 991 484 1158 254 
Q 1325 25 1600 25 
z
" transform="scale(0.015625)"/>
       </defs>
       <use xlink:href="#Cmsy10-a1" transform="translate(0 0.390625)"/>
       <use xlink:href="#Cmr10-31" transform="translate(77.685547 0.390625)"/>
       <use xlink:href="#Cmr10-30" transform="translate(127.685547 0.390625)"/>
      </g>
     </g>
    </g>
    <g id="ytick_2">
     <g id="line2d_7">
      <g>
       <use xlink:href="#mc6c4e8f5be" x="226.525435" y="246.342408" style="stroke: #000000; stroke-width: 0.8"/>
      </g>
     </g>
     <g id="text_6">
      <!-- $-5$ -->
      <g transform="translate(206.725435 250.141627) scale(0.1 -0.1)">
       <defs>
        <path id="Cmr10-35" d="M 556 728 
Q 622 541 758 387 
Q 894 234 1080 148 
Q 1266 63 1466 63 
Q 1928 63 2103 422 
Q 2278 781 2278 1294 
Q 2278 1516 2270 1667 
Q 2263 1819 2228 1959 
Q 2169 2184 2020 2353 
Q 1872 2522 1656 2522 
Q 1441 2522 1286 2456 
Q 1131 2391 1034 2303 
Q 938 2216 863 2119 
Q 788 2022 769 2016 
L 697 2016 
Q 681 2016 657 2036 
Q 634 2056 634 2075 
L 634 4213 
Q 634 4228 654 4245 
Q 675 4263 697 4263 
L 716 4263 
Q 1147 4056 1631 4056 
Q 2106 4056 2547 4263 
L 2566 4263 
Q 2588 4263 2606 4247 
Q 2625 4231 2625 4213 
L 2625 4153 
Q 2625 4122 2613 4122 
Q 2394 3831 2064 3668 
Q 1734 3506 1381 3506 
Q 1125 3506 856 3578 
L 856 2369 
Q 1069 2541 1236 2614 
Q 1403 2688 1663 2688 
Q 2016 2688 2295 2484 
Q 2575 2281 2725 1954 
Q 2875 1628 2875 1288 
Q 2875 903 2686 575 
Q 2497 247 2172 53 
Q 1847 -141 1466 -141 
Q 1150 -141 886 21 
Q 622 184 470 459 
Q 319 734 319 1044 
Q 319 1188 412 1278 
Q 506 1369 647 1369 
Q 788 1369 883 1276 
Q 978 1184 978 1044 
Q 978 906 883 811 
Q 788 716 647 716 
Q 625 716 597 720 
Q 569 725 556 728 
z
" transform="scale(0.015625)"/>
       </defs>
       <use xlink:href="#Cmsy10-a1" transform="translate(0 0.390625)"/>
       <use xlink:href="#Cmr10-35" transform="translate(77.685547 0.390625)"/>
      </g>
     </g>
    </g>
    <g id="ytick_3">
     <g id="line2d_8">
      <g>
       <use xlink:href="#mc6c4e8f5be" x="226.525435" y="91.05513" style="stroke: #000000; stroke-width: 0.8"/>
      </g>
     </g>
     <g id="text_7">
      <!-- $5$ -->
      <g transform="translate(214.525435 94.854349) scale(0.1 -0.1)">
       <use xlink:href="#Cmr10-35" transform="translate(0 0.390625)"/>
      </g>
     </g>
    </g>
    <g id="ytick_4">
     <g id="line2d_9">
      <g>
       <use xlink:href="#mc6c4e8f5be" x="226.525435" y="13.411491" style="stroke: #000000; stroke-width: 0.8"/>
      </g>
     </g>
     <g id="text_8">
      <!-- $10$ -->
      <g transform="translate(209.525435 17.21071) scale(0.1 -0.1)">
       <use xlink:href="#Cmr10-31" transform="translate(0 0.390625)"/>
       <use xlink:href="#Cmr10-30" transform="translate(50 0.390625)"/>
      </g>
     </g>
    </g>
   </g>
   <g id="line2d_10">
    <path d="M 20.252916 -1 
L 20.803053 24.834042 
L 21.45061 46.657805 
L 22.206094 64.966334 
L 22.961578 78.457834 
L 23.824988 90.09217 
L 24.751567 99.600641 
L 25.746584 107.497628 
L 26.698278 113.486867 
L 27.847615 119.27401 
L 28.966693 123.804511 
L 30.085771 127.531634 
L 31.464879 131.29956 
L 32.843986 134.381718 
L 34.246461 136.983944 
L 35.981288 139.63813 
L 37.675165 141.768316 
L 39.625841 143.790857 
L 41.595953 145.471816 
L 43.466971 146.804298 
L 45.207427 147.857561 
L 47.748925 149.135279 
L 50.214013 150.136002 
L 52.418677 150.869163 
L 55.411977 151.662835 
L 57.868912 152.167428 
L 61.289876 152.682465 
L 64.549267 152.99477 
L 68.445736 153.161793 
L 72.625156 153.102842 
L 76.142672 152.859171 
L 80.607177 152.270491 
L 84.352945 151.495435 
L 87.760688 150.515166 
L 90.96664 149.289202 
L 93.710669 147.938036 
L 95.995033 146.538732 
L 98.209031 144.875554 
L 99.733364 143.50872 
L 101.257698 141.916026 
L 103.069606 139.654433 
L 104.599876 137.345908 
L 106.186473 134.44706 
L 107.631372 131.216884 
L 108.808274 128.036561 
L 109.985176 124.205836 
L 111.212246 119.28681 
L 112.1346 114.755339 
L 113.056954 109.258647 
L 113.988004 102.386345 
L 114.919055 93.65091 
L 115.757001 83.491761 
L 116.520293 71.445867 
L 117.197861 57.433463 
L 117.875428 38.640612 
L 118.4562 16.565393 
L 118.809159 -1 
L 118.809159 -1 
" clip-path="url(#pa620d586ee)" style="fill: none; stroke: #0000ff; stroke-linecap: square"/>
   </g>
   <g id="line2d_11">
    <path d="M 124.916049 338.397538 
L 125.50078 311.184489 
L 126.194874 288.45511 
L 126.975729 270.278599 
L 127.757818 256.916427 
L 128.634395 245.625341 
L 129.599508 236.171431 
L 130.65236 228.245365 
L 131.774521 221.671373 
L 132.896683 216.453399 
L 134.137321 211.81503 
L 135.364015 208.086052 
L 136.769934 204.588639 
L 137.869179 202.297413 
L 139.582065 199.318606 
L 141.294605 196.893868 
L 142.846198 195.062369 
L 144.229482 193.662235 
L 146.073861 192.070291 
L 148.025937 190.661329 
L 150.53247 189.17958 
L 152.558888 188.196416 
L 154.956201 187.232634 
L 157.937466 186.27934 
L 161.144261 185.500053 
L 165.236936 184.806169 
L 167.894474 184.509312 
L 172.418505 184.249578 
L 176.299471 184.258558 
L 179.612958 184.435205 
L 183.734652 184.886759 
L 187.231459 185.497465 
L 190.508768 186.29565 
L 192.978626 187.071457 
L 195.663785 188.123399 
L 198.063908 189.290658 
L 200.588629 190.812145 
L 202.407861 192.144452 
L 204.435996 193.927443 
L 205.956238 195.522059 
L 207.686192 197.679705 
L 209.303565 200.119433 
L 210.612845 202.480178 
L 211.968268 205.394032 
L 213.29406 208.845562 
L 214.530962 212.776585 
L 215.691818 217.304314 
L 216.807193 222.695453 
L 217.777484 228.522557 
L 218.609162 234.669585 
L 219.57458 243.670094 
L 220.364467 253.150251 
L 221.154353 265.437253 
L 221.875323 280.314569 
L 222.536406 298.700492 
L 223.164904 322.906761 
L 223.472439 338.397538 
L 223.472439 338.397538 
" clip-path="url(#pa620d586ee)" style="fill: none; stroke: #0000ff; stroke-linecap: square"/>
   </g>
   <g id="line2d_12">
    <path d="M 229.579196 -1 
L 230.160185 26.083711 
L 230.895786 49.983123 
L 231.637111 67.0926 
L 232.41467 80.39417 
L 233.298411 91.786743 
L 234.182151 100.533135 
L 235.188396 108.30155 
L 236.236804 114.664966 
L 237.282124 119.757911 
L 238.324356 123.921987 
L 239.66292 128.28025 
L 241.025335 131.867903 
L 242.447847 134.936591 
L 243.939207 137.592763 
L 245.430568 139.807815 
L 247.358634 142.170723 
L 249.17448 143.997844 
L 250.935313 145.482608 
L 252.997803 146.937236 
L 254.984207 148.105398 
L 257.747631 149.429716 
L 260.541359 150.486428 
L 263.922048 151.467432 
L 267.016133 152.134841 
L 271.046176 152.733276 
L 275.270125 153.079613 
L 279.435624 153.167697 
L 283.449666 153.021296 
L 288.04061 152.560742 
L 291.096862 152.059604 
L 294.897436 151.178115 
L 298.119878 150.155757 
L 301.32246 148.818713 
L 303.580094 147.629976 
L 306.016543 146.052112 
L 307.631593 144.794371 
L 309.440845 143.132575 
L 310.850038 141.610196 
L 312.39298 139.657273 
L 313.670414 137.760188 
L 314.987681 135.470829 
L 316.304948 132.754909 
L 317.678387 129.334805 
L 318.849512 125.796031 
L 320.038311 121.422052 
L 321.025683 116.993483 
L 322.013055 111.594146 
L 323.043455 104.542682 
L 323.884987 97.290122 
L 324.759897 87.717773 
L 325.54125 76.643363 
L 326.235786 63.849378 
L 326.930322 46.863614 
L 327.560609 25.801494 
L 328.135054 -1 
L 328.135054 -1 
" clip-path="url(#pa620d586ee)" style="fill: none; stroke: #0000ff; stroke-linecap: square"/>
   </g>
   <g id="line2d_13">
    <path d="M 334.24114 338.397538 
L 334.762241 313.724819 
L 335.4866 289.388949 
L 336.21096 272.088646 
L 337.038799 257.579737 
L 337.928669 245.976061 
L 338.876386 236.589906 
L 339.926489 228.586853 
L 340.953271 222.443654 
L 342.060104 217.139025 
L 343.309514 212.335393 
L 344.567368 208.425652 
L 345.825223 205.206666 
L 347.24238 202.205272 
L 348.654305 199.72016 
L 350.066229 197.62659 
L 351.788008 195.487348 
L 353.86297 193.376086 
L 356.10795 191.529258 
L 358.527611 189.925174 
L 360.862927 188.670639 
L 363.146767 187.664483 
L 365.956182 186.66714 
L 369.038987 185.819438 
L 371.805204 185.239531 
L 376.011524 184.630356 
L 379.827375 184.32335 
L 383.374418 184.227644 
L 387.789189 184.355906 
L 390.949175 184.621818 
L 395.210489 185.235287 
L 398.767993 186.009275 
L 401.908189 186.935723 
L 404.856846 188.065725 
L 407.387313 189.289565 
L 409.75676 190.707037 
L 411.499417 191.960304 
L 413.73418 193.901056 
L 415.620195 195.912929 
L 417.393955 198.2154 
L 418.778121 200.369103 
L 420.04251 202.685771 
L 421.333447 205.488026 
L 422.704027 209.090029 
L 423.957288 213.134267 
L 425.126113 217.78026 
L 426.111804 222.583296 
L 427.215468 229.284387 
L 428.192778 236.852379 
L 429.047924 245.276661 
L 429.90307 256.143016 
L 430.66924 268.944077 
L 431.394212 285.128747 
L 432.0674 305.730684 
L 432.639145 330.02783 
L 432.797938 338.397538 
L 432.797938 338.397538 
" clip-path="url(#pa620d586ee)" style="fill: none; stroke: #0000ff; stroke-linecap: square"/>
   </g>
   <g id="line2d_14">
    <path d="M 17.2 323.986047 
L 17.2 13.411491 
" clip-path="url(#pa620d586ee)" style="fill: none; stroke-dasharray: 1.85,0.8; stroke-dashoffset: 0; stroke: #ff0000; stroke-width: 0.5"/>
   </g>
   <g id="line2d_15">
    <path d="M 121.862717 323.986047 
L 121.862717 13.411491 
" clip-path="url(#pa620d586ee)" style="fill: none; stroke-dasharray: 1.85,0.8; stroke-dashoffset: 0; stroke: #ff0000; stroke-width: 0.5"/>
   </g>
   <g id="line2d_16">
    <path d="M 226.525435 323.986047 
L 226.525435 13.411491 
" clip-path="url(#pa620d586ee)" style="fill: none; stroke-dasharray: 1.85,0.8; stroke-dashoffset: 0; stroke: #ff0000; stroke-width: 0.5"/>
   </g>
   <g id="line2d_17">
    <path d="M 331.188152 323.986047 
L 331.188152 13.411491 
" clip-path="url(#pa620d586ee)" style="fill: none; stroke-dasharray: 1.85,0.8; stroke-dashoffset: 0; stroke: #ff0000; stroke-width: 0.5"/>
   </g>
   <g id="line2d_18">
    <path d="M 435.85087 323.986047 
L 435.85087 13.411491 
" clip-path="url(#pa620d586ee)" style="fill: none; stroke-dasharray: 1.85,0.8; stroke-dashoffset: 0; stroke: #ff0000; stroke-width: 0.5"/>
   </g>
   <g id="patch_3">
    <path d="M 226.525435 330.197538 
L 226.525435 7.2 
" style="fill: none; stroke: #000000; stroke-width: 0.8; stroke-linejoin: miter; stroke-linecap: square"/>
   </g>
   <g id="patch_4">
    <path d="M 8.826983 168.698769 
L 444.223887 168.698769 
" style="fill: none; stroke: #000000; stroke-width: 0.8; stroke-linejoin: miter; stroke-linecap: square"/>
   </g>
  </g>
 </g>
 <defs>
  <clipPath id="pa620d586ee">
   <rect x="8.826983" y="7.2" width="435.396904" height="322.997538"/>
  </clipPath>
 </defs>
</svg>
