<?xml version="1.0" encoding="utf-8" standalone="no"?>
<!DOCTYPE svg PUBLIC "-//W3C//DTD SVG 1.1//EN"
  "http://www.w3.org/Graphics/SVG/1.1/DTD/svg11.dtd">
<svg xmlns:xlink="http://www.w3.org/1999/xlink" width="451.038322pt" height="303.257481pt" viewBox="0 0 451.038322 303.257481" xmlns="http://www.w3.org/2000/svg" version="1.1">
 <metadata>
  <rdf:RDF xmlns:dc="http://purl.org/dc/elements/1.1/" xmlns:cc="http://creativecommons.org/ns#" xmlns:rdf="http://www.w3.org/1999/02/22-rdf-syntax-ns#">
   <cc:Work>
    <dc:type rdf:resource="http://purl.org/dc/dcmitype/StillImage"/>
    <dc:date>2026-03-08T11:07:34.741537</dc:date>
    <dc:format>image/svg+xml</dc:format>
    <dc:creator>
     <cc:Agent>
      <dc:title>Matplotlib v3.8.0, https://matplotlib.org/</dc:title>
     </cc:Agent>
    </dc:creator>
   </cc:Work>
  </rdf:RDF>
 </metadata>
 <defs>
  <style type="text/css">*{stroke-linejoin: round; stroke-linecap: butt}</style>
 </defs>
 <g id="figure_1">
  <g id="patch_1">
   <path d="M 0 303.257481 
L 451.038322 303.257481 
L 451.038322 0 
L 0 0 
z
" style="fill: #ffffff"/>
  </g>
  <g id="axes_1">
   <g id="patch_2">
    <path d="M 11.017937 295.727174 
L 443.838322 295.727174 
L 443.838322 7.2 
L 11.017937 7.2 
z
" style="fill: #ffffff"/>
   </g>
   <g id="PathCollection_1">
    <path d="M 347.567055 85.627385 
C 348.50469 85.627385 349.404048 85.254859 350.067055 84.591851 
C 350.730063 83.928844 351.102589 83.029486 351.102589 82.091851 
C 351.102589 81.154217 350.730063 80.254859 350.067055 79.591851 
C 349.404048 78.928844 348.50469 78.556318 347.567055 78.556318 
C 346.629421 78.556318 345.730063 78.928844 345.067055 79.591851 
C 344.404048 80.254859 344.031521 81.154217 344.031521 82.091851 
C 344.031521 83.029486 344.404048 83.928844 345.067055 84.591851 
C 345.730063 85.254859 346.629421 85.627385 347.567055 85.627385 
z
" clip-path="url(#pe8f1e43ffd)" style="fill: #0000ff"/>
   </g>
   <g id="PathCollection_2">
    <path d="M 107.289204 85.627385 
C 108.226838 85.627385 109.126196 85.254859 109.789204 84.591851 
C 110.452212 83.928844 110.824738 83.029486 110.824738 82.091851 
C 110.824738 81.154217 110.452212 80.254859 109.789204 79.591851 
C 109.126196 78.928844 108.226838 78.556318 107.289204 78.556318 
C 106.351569 78.556318 105.452212 78.928844 104.789204 79.591851 
C 104.126196 80.254859 103.75367 81.154217 103.75367 82.091851 
C 103.75367 83.029486 104.126196 83.928844 104.789204 84.591851 
C 105.452212 85.254859 106.351569 85.627385 107.289204 85.627385 
z
" clip-path="url(#pe8f1e43ffd)" style="fill: #0000ff"/>
   </g>
   <g id="matplotlib.axis_1">
    <g id="xtick_1">
     <g id="line2d_1">
      <defs>
       <path id="m475111088d" d="M 0 0 
L 0 3.5 
" style="stroke: #000000; stroke-width: 0.8"/>
      </defs>
      <g>
       <use xlink:href="#m475111088d" x="19.341406" y="151.454093" style="stroke: #000000; stroke-width: 0.8"/>
      </g>
     </g>
     <g id="text_1">
      <!-- −1.5 -->
      <g transform="translate(7.2 166.05253) scale(0.1 -0.1)">
       <defs>
        <path id="DejaVuSans-2212" d="M 678 2272 
L 4684 2272 
L 4684 1741 
L 678 1741 
L 678 2272 
z
" transform="scale(0.015625)"/>
        <path id="DejaVuSans-31" d="M 794 531 
L 1825 531 
L 1825 4091 
L 703 3866 
L 703 4441 
L 1819 4666 
L 2450 4666 
L 2450 531 
L 3481 531 
L 3481 0 
L 794 0 
L 794 531 
z
" transform="scale(0.015625)"/>
        <path id="DejaVuSans-2e" d="M 684 794 
L 1344 794 
L 1344 0 
L 684 0 
L 684 794 
z
" transform="scale(0.015625)"/>
        <path id="DejaVuSans-35" d="M 691 4666 
L 3169 4666 
L 3169 4134 
L 1269 4134 
L 1269 2991 
Q 1406 3038 1543 3061 
Q 1681 3084 1819 3084 
Q 2600 3084 3056 2656 
Q 3513 2228 3513 1497 
Q 3513 744 3044 326 
Q 2575 -91 1722 -91 
Q 1428 -91 1123 -41 
Q 819 9 494 109 
L 494 744 
Q 775 591 1075 516 
Q 1375 441 1709 441 
Q 2250 441 2565 725 
Q 2881 1009 2881 1497 
Q 2881 1984 2565 2268 
Q 2250 2553 1709 2553 
Q 1456 2553 1204 2497 
Q 953 2441 691 2322 
L 691 4666 
z
" transform="scale(0.015625)"/>
       </defs>
       <use xlink:href="#DejaVuSans-2212"/>
       <use xlink:href="#DejaVuSans-31" x="83.789062"/>
       <use xlink:href="#DejaVuSans-2e" x="147.412109"/>
       <use xlink:href="#DejaVuSans-35" x="179.199219"/>
      </g>
     </g>
    </g>
    <g id="xtick_2">
     <g id="line2d_2">
      <g>
       <use xlink:href="#m475111088d" x="88.703647" y="151.454093" style="stroke: #000000; stroke-width: 0.8"/>
      </g>
     </g>
     <g id="text_2">
      <!-- −1.0 -->
      <g transform="translate(76.562241 166.05253) scale(0.1 -0.1)">
       <defs>
        <path id="DejaVuSans-30" d="M 2034 4250 
Q 1547 4250 1301 3770 
Q 1056 3291 1056 2328 
Q 1056 1369 1301 889 
Q 1547 409 2034 409 
Q 2525 409 2770 889 
Q 3016 1369 3016 2328 
Q 3016 3291 2770 3770 
Q 2525 4250 2034 4250 
z
M 2034 4750 
Q 2819 4750 3233 4129 
Q 3647 3509 3647 2328 
Q 3647 1150 3233 529 
Q 2819 -91 2034 -91 
Q 1250 -91 836 529 
Q 422 1150 422 2328 
Q 422 3509 836 4129 
Q 1250 4750 2034 4750 
z
" transform="scale(0.015625)"/>
       </defs>
       <use xlink:href="#DejaVuSans-2212"/>
       <use xlink:href="#DejaVuSans-31" x="83.789062"/>
       <use xlink:href="#DejaVuSans-2e" x="147.412109"/>
       <use xlink:href="#DejaVuSans-30" x="179.199219"/>
      </g>
     </g>
    </g>
    <g id="xtick_3">
     <g id="line2d_3">
      <g>
       <use xlink:href="#m475111088d" x="158.065888" y="151.454093" style="stroke: #000000; stroke-width: 0.8"/>
      </g>
     </g>
     <g id="text_3">
      <!-- −0.5 -->
      <g transform="translate(145.924482 166.05253) scale(0.1 -0.1)">
       <use xlink:href="#DejaVuSans-2212"/>
       <use xlink:href="#DejaVuSans-30" x="83.789062"/>
       <use xlink:href="#DejaVuSans-2e" x="147.412109"/>
       <use xlink:href="#DejaVuSans-35" x="179.199219"/>
      </g>
     </g>
    </g>
    <g id="xtick_4">
     <g id="line2d_4">
      <g>
       <use xlink:href="#m475111088d" x="227.42813" y="151.454093" style="stroke: #000000; stroke-width: 0.8"/>
      </g>
     </g>
    </g>
    <g id="xtick_5">
     <g id="line2d_5">
      <g>
       <use xlink:href="#m475111088d" x="296.790371" y="151.454093" style="stroke: #000000; stroke-width: 0.8"/>
      </g>
     </g>
     <g id="text_4">
      <!-- 0.5 -->
      <g transform="translate(288.838808 166.05253) scale(0.1 -0.1)">
       <use xlink:href="#DejaVuSans-30"/>
       <use xlink:href="#DejaVuSans-2e" x="63.623047"/>
       <use xlink:href="#DejaVuSans-35" x="95.410156"/>
      </g>
     </g>
    </g>
    <g id="xtick_6">
     <g id="line2d_6">
      <g>
       <use xlink:href="#m475111088d" x="366.152612" y="151.454093" style="stroke: #000000; stroke-width: 0.8"/>
      </g>
     </g>
     <g id="text_5">
      <!-- 1.0 -->
      <g transform="translate(358.201049 166.05253) scale(0.1 -0.1)">
       <use xlink:href="#DejaVuSans-31"/>
       <use xlink:href="#DejaVuSans-2e" x="63.623047"/>
       <use xlink:href="#DejaVuSans-30" x="95.410156"/>
      </g>
     </g>
    </g>
    <g id="xtick_7">
     <g id="line2d_7">
      <g>
       <use xlink:href="#m475111088d" x="435.514853" y="151.454093" style="stroke: #000000; stroke-width: 0.8"/>
      </g>
     </g>
     <g id="text_6">
      <!-- 1.5 -->
      <g transform="translate(427.56329 166.05253) scale(0.1 -0.1)">
       <use xlink:href="#DejaVuSans-31"/>
       <use xlink:href="#DejaVuSans-2e" x="63.623047"/>
       <use xlink:href="#DejaVuSans-35" x="95.410156"/>
      </g>
     </g>
    </g>
    <g id="xtick_8">
     <g id="line2d_8">
      <defs>
       <path id="mede7a67fda" d="M 0 0 
L 0 2 
" style="stroke: #000000; stroke-width: 0.6"/>
      </defs>
      <g>
       <use xlink:href="#mede7a67fda" x="33.213854" y="151.454093" style="stroke: #000000; stroke-width: 0.6"/>
      </g>
     </g>
    </g>
    <g id="xtick_9">
     <g id="line2d_9">
      <g>
       <use xlink:href="#mede7a67fda" x="47.086303" y="151.454093" style="stroke: #000000; stroke-width: 0.6"/>
      </g>
     </g>
    </g>
    <g id="xtick_10">
     <g id="line2d_10">
      <g>
       <use xlink:href="#mede7a67fda" x="60.958751" y="151.454093" style="stroke: #000000; stroke-width: 0.6"/>
      </g>
     </g>
    </g>
    <g id="xtick_11">
     <g id="line2d_11">
      <g>
       <use xlink:href="#mede7a67fda" x="74.831199" y="151.454093" style="stroke: #000000; stroke-width: 0.6"/>
      </g>
     </g>
    </g>
    <g id="xtick_12">
     <g id="line2d_12">
      <g>
       <use xlink:href="#mede7a67fda" x="102.576096" y="151.454093" style="stroke: #000000; stroke-width: 0.6"/>
      </g>
     </g>
    </g>
    <g id="xtick_13">
     <g id="line2d_13">
      <g>
       <use xlink:href="#mede7a67fda" x="116.448544" y="151.454093" style="stroke: #000000; stroke-width: 0.6"/>
      </g>
     </g>
    </g>
    <g id="xtick_14">
     <g id="line2d_14">
      <g>
       <use xlink:href="#mede7a67fda" x="130.320992" y="151.454093" style="stroke: #000000; stroke-width: 0.6"/>
      </g>
     </g>
    </g>
    <g id="xtick_15">
     <g id="line2d_15">
      <g>
       <use xlink:href="#mede7a67fda" x="144.19344" y="151.454093" style="stroke: #000000; stroke-width: 0.6"/>
      </g>
     </g>
    </g>
    <g id="xtick_16">
     <g id="line2d_16">
      <g>
       <use xlink:href="#mede7a67fda" x="171.938337" y="151.454093" style="stroke: #000000; stroke-width: 0.6"/>
      </g>
     </g>
    </g>
    <g id="xtick_17">
     <g id="line2d_17">
      <g>
       <use xlink:href="#mede7a67fda" x="185.810785" y="151.454093" style="stroke: #000000; stroke-width: 0.6"/>
      </g>
     </g>
    </g>
    <g id="xtick_18">
     <g id="line2d_18">
      <g>
       <use xlink:href="#mede7a67fda" x="199.683233" y="151.454093" style="stroke: #000000; stroke-width: 0.6"/>
      </g>
     </g>
    </g>
    <g id="xtick_19">
     <g id="line2d_19">
      <g>
       <use xlink:href="#mede7a67fda" x="213.555681" y="151.454093" style="stroke: #000000; stroke-width: 0.6"/>
      </g>
     </g>
    </g>
    <g id="xtick_20">
     <g id="line2d_20">
      <g>
       <use xlink:href="#mede7a67fda" x="241.300578" y="151.454093" style="stroke: #000000; stroke-width: 0.6"/>
      </g>
     </g>
    </g>
    <g id="xtick_21">
     <g id="line2d_21">
      <g>
       <use xlink:href="#mede7a67fda" x="255.173026" y="151.454093" style="stroke: #000000; stroke-width: 0.6"/>
      </g>
     </g>
    </g>
    <g id="xtick_22">
     <g id="line2d_22">
      <g>
       <use xlink:href="#mede7a67fda" x="269.045474" y="151.454093" style="stroke: #000000; stroke-width: 0.6"/>
      </g>
     </g>
    </g>
    <g id="xtick_23">
     <g id="line2d_23">
      <g>
       <use xlink:href="#mede7a67fda" x="282.917923" y="151.454093" style="stroke: #000000; stroke-width: 0.6"/>
      </g>
     </g>
    </g>
    <g id="xtick_24">
     <g id="line2d_24">
      <g>
       <use xlink:href="#mede7a67fda" x="310.662819" y="151.454093" style="stroke: #000000; stroke-width: 0.6"/>
      </g>
     </g>
    </g>
    <g id="xtick_25">
     <g id="line2d_25">
      <g>
       <use xlink:href="#mede7a67fda" x="324.535267" y="151.454093" style="stroke: #000000; stroke-width: 0.6"/>
      </g>
     </g>
    </g>
    <g id="xtick_26">
     <g id="line2d_26">
      <g>
       <use xlink:href="#mede7a67fda" x="338.407715" y="151.454093" style="stroke: #000000; stroke-width: 0.6"/>
      </g>
     </g>
    </g>
    <g id="xtick_27">
     <g id="line2d_27">
      <g>
       <use xlink:href="#mede7a67fda" x="352.280164" y="151.454093" style="stroke: #000000; stroke-width: 0.6"/>
      </g>
     </g>
    </g>
    <g id="xtick_28">
     <g id="line2d_28">
      <g>
       <use xlink:href="#mede7a67fda" x="380.02506" y="151.454093" style="stroke: #000000; stroke-width: 0.6"/>
      </g>
     </g>
    </g>
    <g id="xtick_29">
     <g id="line2d_29">
      <g>
       <use xlink:href="#mede7a67fda" x="393.897508" y="151.454093" style="stroke: #000000; stroke-width: 0.6"/>
      </g>
     </g>
    </g>
    <g id="xtick_30">
     <g id="line2d_30">
      <g>
       <use xlink:href="#mede7a67fda" x="407.769957" y="151.454093" style="stroke: #000000; stroke-width: 0.6"/>
      </g>
     </g>
    </g>
    <g id="xtick_31">
     <g id="line2d_31">
      <g>
       <use xlink:href="#mede7a67fda" x="421.642405" y="151.454093" style="stroke: #000000; stroke-width: 0.6"/>
      </g>
     </g>
    </g>
   </g>
   <g id="matplotlib.axis_2">
    <g id="ytick_1">
     <g id="line2d_32">
      <defs>
       <path id="m29af1e2400" d="M 0 0 
L -3.5 0 
" style="stroke: #000000; stroke-width: 0.8"/>
      </defs>
      <g>
       <use xlink:href="#m29af1e2400" x="227.42813" y="290.178575" style="stroke: #000000; stroke-width: 0.8"/>
      </g>
     </g>
     <g id="text_7">
      <!-- −1.0 -->
      <g transform="translate(196.145317 293.977794) scale(0.1 -0.1)">
       <use xlink:href="#DejaVuSans-2212"/>
       <use xlink:href="#DejaVuSans-31" x="83.789062"/>
       <use xlink:href="#DejaVuSans-2e" x="147.412109"/>
       <use xlink:href="#DejaVuSans-30" x="179.199219"/>
      </g>
     </g>
    </g>
    <g id="ytick_2">
     <g id="line2d_33">
      <g>
       <use xlink:href="#m29af1e2400" x="227.42813" y="220.816334" style="stroke: #000000; stroke-width: 0.8"/>
      </g>
     </g>
     <g id="text_8">
      <!-- −0.5 -->
      <g transform="translate(196.145317 224.615552) scale(0.1 -0.1)">
       <use xlink:href="#DejaVuSans-2212"/>
       <use xlink:href="#DejaVuSans-30" x="83.789062"/>
       <use xlink:href="#DejaVuSans-2e" x="147.412109"/>
       <use xlink:href="#DejaVuSans-35" x="179.199219"/>
      </g>
     </g>
    </g>
    <g id="ytick_3">
     <g id="line2d_34">
      <g>
       <use xlink:href="#m29af1e2400" x="227.42813" y="151.454093" style="stroke: #000000; stroke-width: 0.8"/>
      </g>
     </g>
    </g>
    <g id="ytick_4">
     <g id="line2d_35">
      <g>
       <use xlink:href="#m29af1e2400" x="227.42813" y="82.091851" style="stroke: #000000; stroke-width: 0.8"/>
      </g>
     </g>
     <g id="text_9">
      <!-- 0.5 -->
      <g transform="translate(204.525005 85.89107) scale(0.1 -0.1)">
       <use xlink:href="#DejaVuSans-30"/>
       <use xlink:href="#DejaVuSans-2e" x="63.623047"/>
       <use xlink:href="#DejaVuSans-35" x="95.410156"/>
      </g>
     </g>
    </g>
    <g id="ytick_5">
     <g id="line2d_36">
      <g>
       <use xlink:href="#m29af1e2400" x="227.42813" y="12.72961" style="stroke: #000000; stroke-width: 0.8"/>
      </g>
     </g>
     <g id="text_10">
      <!-- 1.0 -->
      <g transform="translate(204.525005 16.528829) scale(0.1 -0.1)">
       <use xlink:href="#DejaVuSans-31"/>
       <use xlink:href="#DejaVuSans-2e" x="63.623047"/>
       <use xlink:href="#DejaVuSans-30" x="95.410156"/>
      </g>
     </g>
    </g>
    <g id="ytick_6">
     <g id="line2d_37">
      <defs>
       <path id="m40a8cf034f" d="M 0 0 
L -2 0 
" style="stroke: #000000; stroke-width: 0.6"/>
      </defs>
      <g>
       <use xlink:href="#m40a8cf034f" x="227.42813" y="276.306127" style="stroke: #000000; stroke-width: 0.6"/>
      </g>
     </g>
    </g>
    <g id="ytick_7">
     <g id="line2d_38">
      <g>
       <use xlink:href="#m40a8cf034f" x="227.42813" y="262.433678" style="stroke: #000000; stroke-width: 0.6"/>
      </g>
     </g>
    </g>
    <g id="ytick_8">
     <g id="line2d_39">
      <g>
       <use xlink:href="#m40a8cf034f" x="227.42813" y="248.56123" style="stroke: #000000; stroke-width: 0.6"/>
      </g>
     </g>
    </g>
    <g id="ytick_9">
     <g id="line2d_40">
      <g>
       <use xlink:href="#m40a8cf034f" x="227.42813" y="234.688782" style="stroke: #000000; stroke-width: 0.6"/>
      </g>
     </g>
    </g>
    <g id="ytick_10">
     <g id="line2d_41">
      <g>
       <use xlink:href="#m40a8cf034f" x="227.42813" y="206.943885" style="stroke: #000000; stroke-width: 0.6"/>
      </g>
     </g>
    </g>
    <g id="ytick_11">
     <g id="line2d_42">
      <g>
       <use xlink:href="#m40a8cf034f" x="227.42813" y="193.071437" style="stroke: #000000; stroke-width: 0.6"/>
      </g>
     </g>
    </g>
    <g id="ytick_12">
     <g id="line2d_43">
      <g>
       <use xlink:href="#m40a8cf034f" x="227.42813" y="179.198989" style="stroke: #000000; stroke-width: 0.6"/>
      </g>
     </g>
    </g>
    <g id="ytick_13">
     <g id="line2d_44">
      <g>
       <use xlink:href="#m40a8cf034f" x="227.42813" y="165.326541" style="stroke: #000000; stroke-width: 0.6"/>
      </g>
     </g>
    </g>
    <g id="ytick_14">
     <g id="line2d_45">
      <g>
       <use xlink:href="#m40a8cf034f" x="227.42813" y="137.581644" style="stroke: #000000; stroke-width: 0.6"/>
      </g>
     </g>
    </g>
    <g id="ytick_15">
     <g id="line2d_46">
      <g>
       <use xlink:href="#m40a8cf034f" x="227.42813" y="123.709196" style="stroke: #000000; stroke-width: 0.6"/>
      </g>
     </g>
    </g>
    <g id="ytick_16">
     <g id="line2d_47">
      <g>
       <use xlink:href="#m40a8cf034f" x="227.42813" y="109.836748" style="stroke: #000000; stroke-width: 0.6"/>
      </g>
     </g>
    </g>
    <g id="ytick_17">
     <g id="line2d_48">
      <g>
       <use xlink:href="#m40a8cf034f" x="227.42813" y="95.9643" style="stroke: #000000; stroke-width: 0.6"/>
      </g>
     </g>
    </g>
    <g id="ytick_18">
     <g id="line2d_49">
      <g>
       <use xlink:href="#m40a8cf034f" x="227.42813" y="68.219403" style="stroke: #000000; stroke-width: 0.6"/>
      </g>
     </g>
    </g>
    <g id="ytick_19">
     <g id="line2d_50">
      <g>
       <use xlink:href="#m40a8cf034f" x="227.42813" y="54.346955" style="stroke: #000000; stroke-width: 0.6"/>
      </g>
     </g>
    </g>
    <g id="ytick_20">
     <g id="line2d_51">
      <g>
       <use xlink:href="#m40a8cf034f" x="227.42813" y="40.474507" style="stroke: #000000; stroke-width: 0.6"/>
      </g>
     </g>
    </g>
    <g id="ytick_21">
     <g id="line2d_52">
      <g>
       <use xlink:href="#m40a8cf034f" x="227.42813" y="26.602059" style="stroke: #000000; stroke-width: 0.6"/>
      </g>
     </g>
    </g>
   </g>
   <g id="line2d_53">
    <path d="M 366.152612 151.454093 
L 365.95816 144.111574 
L 365.334778 136.412869 
L 364.674153 131.254808 
L 363.323526 123.58075 
L 363.165802 122.822532 
L 361.814278 117.032514 
L 360.141431 111.060262 
L 359.028151 107.56883 
L 356.578732 100.812175 
L 354.653422 96.153036 
L 351.510337 89.421135 
L 347.737457 82.387837 
L 345.513745 78.651144 
L 341.494762 72.502934 
L 340.19217 70.653393 
L 335.032207 63.899284 
L 328.276394 56.195972 
L 326.014723 53.857138 
L 322.914689 50.822095 
L 319.463889 47.656689 
L 315.815457 44.532802 
L 311.868507 41.38909 
L 308.507837 38.890497 
L 301.607712 34.228364 
L 298.118796 32.091989 
L 294.473768 30.007131 
L 287.187904 26.261236 
L 278.739659 22.568062 
L 271.497753 19.915694 
L 265.940336 18.182595 
L 257.733053 16.08019 
L 254.273446 15.351885 
L 244.818975 13.824007 
L 240.093173 13.308956 
L 234.373844 12.9036 
L 229.72338 12.7486 
L 224.915616 12.752365 
L 217.982977 13.051524 
L 210.686187 13.743565 
L 203.200733 14.861577 
L 197.359022 16.027615 
L 191.903667 17.355269 
L 185.07057 19.354437 
L 180.120604 21.045197 
L 175.857533 22.671502 
L 172.039082 24.267083 
L 165.858589 27.141287 
L 162.942903 28.628454 
L 157.817206 31.459087 
L 151.681967 35.234469 
L 144.889996 39.95549 
L 139.169412 44.426616 
L 132.610485 50.191581 
L 127.203524 55.540015 
L 124.001074 59.002342 
L 121.434216 61.956762 
L 116.540556 68.096862 
L 114.724318 70.569404 
L 111.7787 74.840181 
L 107.809646 81.19813 
L 105.720312 84.88316 
L 103.653948 88.808791 
L 101.183016 93.950586 
L 99.320282 98.229461 
L 96.631049 105.230661 
L 94.195723 112.806869 
L 92.739842 118.234414 
L 90.756785 127.675415 
L 89.782908 134.183453 
L 89.317855 138.414381 
L 88.796019 146.392498 
L 88.703976 151.152173 
L 88.887201 158.588039 
L 89.328662 164.607758 
L 89.819296 169.012307 
L 90.433632 173.294182 
L 91.60333 179.66944 
L 93.324745 186.961335 
L 95.567949 194.551363 
L 97.061137 198.876969 
L 98.934141 203.739625 
L 102.64943 212.073875 
L 105.593425 217.792518 
L 108.411659 222.725136 
L 110.912371 226.743932 
L 115.02997 232.762983 
L 119.943398 239.155372 
L 121.302328 240.794991 
L 124.767409 244.756067 
L 128.941595 249.152018 
L 132.849495 252.939874 
L 136.707976 256.403298 
L 140.418693 259.499638 
L 144.828372 262.907051 
L 151.224809 267.374479 
L 154.657276 269.55949 
L 159.450295 272.38174 
L 165.881261 275.778125 
L 170.449221 277.936842 
L 176.577826 280.52279 
L 182.018426 282.535902 
L 189.236944 284.817938 
L 192.320805 285.662728 
L 199.41992 287.321757 
L 202.591159 287.937084 
L 209.029857 288.953131 
L 216.721765 289.764814 
L 220.723954 290.016483 
L 229.364781 290.165056 
L 236.241102 289.898354 
L 240.140194 289.59491 
L 244.704454 289.098601 
L 253.1539 287.772348 
L 260.354348 286.214421 
L 264.866392 285.031256 
L 268.582268 283.933596 
L 276.820662 281.087652 
L 280.967829 279.430585 
L 286.218436 277.105125 
L 290.220578 275.15369 
L 296.758834 271.611221 
L 305.020724 266.449185 
L 307.482288 264.749343 
L 313.656294 260.124169 
L 318.592367 256.017776 
L 323.785422 251.25266 
L 327.772003 247.243387 
L 332.82582 241.652811 
L 337.721508 235.595953 
L 340.575021 231.717802 
L 343.376769 227.614418 
L 345.608814 224.102615 
L 347.766703 220.469378 
L 350.989912 214.517298 
L 354.09737 208.017204 
L 355.546401 204.653626 
L 357.207029 200.463471 
L 358.788973 196.050177 
L 360.555371 190.462034 
L 362.534862 182.928732 
L 363.675996 177.550087 
L 364.757203 171.080799 
L 365.537406 164.504372 
L 365.854419 160.544985 
L 366.106074 155.047113 
L 366.152612 151.454093 
L 366.152612 151.454093 
" clip-path="url(#pe8f1e43ffd)" style="fill: none; stroke: #0000ff; stroke-linecap: square"/>
   </g>
   <g id="line2d_54">
    <path d="M 19.341406 82.091851 
L 435.514853 82.091851 
" clip-path="url(#pe8f1e43ffd)" style="fill: none; stroke-dasharray: 3.7,1.6; stroke-dashoffset: 0; stroke: #ff0000"/>
   </g>
   <g id="line2d_55">
    <path d="M 227.42813 151.454093 
L 347.567055 82.091851 
" clip-path="url(#pe8f1e43ffd)" style="fill: none; stroke: #0000ff; stroke-linecap: square"/>
   </g>
   <g id="line2d_56">
    <path d="M 227.42813 151.454093 
L 107.289204 82.091851 
" clip-path="url(#pe8f1e43ffd)" style="fill: none; stroke: #0000ff; stroke-linecap: square"/>
   </g>
   <g id="line2d_57">
    <path d="M 282.917923 151.454093 
L 282.806076 147.932711 
L 282.48359 144.524923 
L 281.96214 141.199396 
L 281.201563 137.759753 
L 280.240738 134.426305 
L 279.047057 131.092279 
L 277.648821 127.853259 
L 276.072328 124.754672 
L 275.4837 123.709196 
L 275.4837 123.709196 
" clip-path="url(#pe8f1e43ffd)" style="fill: none; stroke: #ff0000; stroke-linecap: square"/>
   </g>
   <g id="line2d_58">
    <path d="M 255.173026 151.454093 
L 255.063861 148.995308 
L 254.710689 146.410161 
L 254.135799 143.938796 
L 253.350276 141.563611 
L 252.487867 139.54658 
L 251.307442 137.327603 
L 250.021783 135.351108 
L 248.433501 133.328044 
L 246.74418 131.53753 
L 244.875823 129.881951 
L 242.705042 128.293885 
L 240.679894 127.07849 
L 238.316806 125.935158 
L 236.352531 125.183684 
L 234.134159 124.531826 
L 231.650209 124.032325 
L 229.010641 123.754364 
L 226.534522 123.72359 
L 224.086043 123.911222 
L 221.517509 124.346089 
L 218.9129 125.048219 
L 216.403253 125.993704 
L 214.071524 127.135779 
L 212.20739 128.25693 
L 210.219897 129.690453 
L 208.293996 131.362696 
L 206.553881 133.177194 
L 204.986944 135.1393 
L 203.619635 137.208572 
L 203.400344 137.581644 
L 203.400344 137.581644 
" clip-path="url(#pe8f1e43ffd)" style="fill: none; stroke: #008000; stroke-linecap: square"/>
   </g>
   <g id="patch_3">
    <path d="M 227.42813 295.727174 
L 227.42813 7.2 
" style="fill: none; stroke: #000000; stroke-width: 0.8; stroke-linejoin: miter; stroke-linecap: square"/>
   </g>
   <g id="patch_4">
    <path d="M 11.017937 151.454093 
L 443.838322 151.454093 
" style="fill: none; stroke: #000000; stroke-width: 0.8; stroke-linejoin: miter; stroke-linecap: square"/>
   </g>
   <g id="text_11">
    <!-- $\theta$ -->
    <g transform="translate(284.437032 139.160175) scale(0.14 -0.14)">
     <defs>
      <path id="Cmmi10-b5" d="M 1031 -72 
Q 741 -72 566 140 
Q 391 353 323 653 
Q 256 953 256 1247 
L 256 1253 
Q 256 1572 317 1915 
Q 378 2259 493 2601 
Q 609 2944 744 3213 
Q 838 3400 986 3631 
Q 1134 3863 1317 4064 
Q 1500 4266 1711 4389 
Q 1922 4513 2138 4513 
L 2144 4513 
Q 2375 4513 2529 4384 
Q 2684 4256 2770 4056 
Q 2856 3856 2890 3628 
Q 2925 3400 2925 3194 
Q 2925 2709 2794 2204 
Q 2663 1700 2431 1228 
Q 2344 1050 2189 809 
Q 2034 569 1861 378 
Q 1688 188 1472 58 
Q 1256 -72 1038 -72 
L 1031 -72 
z
M 1044 97 
Q 1256 97 1451 323 
Q 1647 550 1794 873 
Q 1941 1197 2052 1536 
Q 2163 1875 2216 2113 
L 909 2113 
Q 809 1709 753 1417 
Q 697 1125 697 844 
Q 697 97 1044 97 
z
M 959 2338 
L 2272 2338 
Q 2341 2619 2381 2808 
Q 2422 2997 2450 3206 
Q 2478 3416 2478 3597 
Q 2478 4347 2138 4347 
Q 1731 4347 1436 3692 
Q 1141 3038 959 2338 
z
" transform="scale(0.015625)"/>
     </defs>
     <use xlink:href="#Cmmi10-b5" transform="translate(0 0.484375)"/>
    </g>
   </g>
   <g id="text_12">
    <!-- $\pi-\theta$ -->
    <g transform="translate(208.147258 120.878215) scale(0.14 -0.14)">
     <defs>
      <path id="Cmmi10-bc" d="M 647 109 
Q 647 144 672 213 
Q 850 584 1004 942 
Q 1159 1300 1282 1639 
Q 1406 1978 1509 2363 
L 1100 2363 
Q 866 2363 662 2216 
Q 459 2069 325 1844 
Q 313 1819 288 1819 
L 213 1819 
Q 153 1819 153 1881 
Q 153 1894 166 1919 
Q 375 2275 614 2517 
Q 853 2759 1153 2759 
L 3475 2759 
Q 3541 2759 3587 2715 
Q 3634 2672 3634 2597 
Q 3634 2503 3567 2433 
Q 3500 2363 3406 2363 
L 2591 2363 
Q 2488 1859 2478 1381 
Q 2478 766 2694 269 
Q 2713 231 2713 191 
Q 2713 122 2672 62 
Q 2631 3 2567 -34 
Q 2503 -72 2431 -72 
Q 2263 -72 2200 203 
Q 2138 478 2138 738 
Q 2138 1103 2200 1442 
Q 2263 1781 2400 2363 
L 1703 2363 
Q 1197 313 1094 103 
Q 1003 -72 844 -72 
Q 766 -72 706 -20 
Q 647 31 647 109 
z
" transform="scale(0.015625)"/>
      <path id="Cmsy10-a1" d="M 653 1472 
Q 600 1472 565 1512 
Q 531 1553 531 1600 
Q 531 1647 565 1687 
Q 600 1728 653 1728 
L 4325 1728 
Q 4375 1728 4408 1687 
Q 4441 1647 4441 1600 
Q 4441 1553 4408 1512 
Q 4375 1472 4325 1472 
L 653 1472 
z
" transform="scale(0.015625)"/>
     </defs>
     <use xlink:href="#Cmmi10-bc" transform="translate(0 0.484375)"/>
     <use xlink:href="#Cmsy10-a1" transform="translate(74.541016 0.484375)"/>
     <use xlink:href="#Cmmi10-b5" transform="translate(169.785156 0.484375)"/>
    </g>
   </g>
   <g id="text_13">
    <!-- $P_\theta$ -->
    <g transform="translate(351.37167 75.55064) scale(0.14 -0.14)">
     <defs>
      <path id="Cmmi10-50" d="M 313 0 
Q 250 0 250 84 
Q 253 100 262 139 
Q 272 178 289 201 
Q 306 225 331 225 
Q 722 225 878 269 
Q 959 297 997 441 
L 1875 3956 
Q 1888 4019 1888 4044 
Q 1888 4113 1813 4122 
Q 1691 4147 1350 4147 
Q 1288 4147 1288 4231 
Q 1291 4247 1300 4286 
Q 1309 4325 1326 4348 
Q 1344 4372 1369 4372 
L 3578 4372 
Q 3881 4372 4165 4264 
Q 4450 4156 4631 3934 
Q 4813 3713 4813 3397 
Q 4813 2991 4527 2672 
Q 4241 2353 3814 2175 
Q 3388 1997 2988 1997 
L 1947 1997 
L 1556 416 
Q 1544 353 1544 325 
Q 1544 300 1551 283 
Q 1559 266 1573 261 
Q 1588 256 1619 250 
Q 1741 225 2081 225 
Q 2144 225 2144 141 
Q 2122 50 2109 25 
Q 2097 0 2034 0 
L 313 0 
z
M 1978 2188 
L 2875 2188 
Q 3497 2188 3822 2522 
Q 3988 2688 4092 3000 
Q 4197 3313 4197 3566 
Q 4197 3881 3956 4014 
Q 3716 4147 3359 4147 
L 2747 4147 
Q 2572 4147 2515 4117 
Q 2459 4088 2413 3928 
L 1978 2188 
z
" transform="scale(0.015625)"/>
     </defs>
     <use xlink:href="#Cmmi10-50" transform="translate(0 0.6875)"/>
     <use xlink:href="#Cmmi10-b5" transform="translate(64.208984 -16.31875) scale(0.7)"/>
    </g>
   </g>
   <g id="text_14">
    <!-- $P_{\pi-\theta}$ -->
    <g transform="translate(73.239466 72.509217) scale(0.14 -0.14)">
     <use xlink:href="#Cmmi10-50" transform="translate(0 0.6875)"/>
     <use xlink:href="#Cmmi10-bc" transform="translate(64.208984 -16.31875) scale(0.7)"/>
     <use xlink:href="#Cmsy10-a1" transform="translate(116.387695 -16.31875) scale(0.7)"/>
     <use xlink:href="#Cmmi10-b5" transform="translate(183.058594 -16.31875) scale(0.7)"/>
    </g>
   </g>
   <g id="text_15">
    <!-- $y=b$ -->
    <g transform="translate(282.440371 72.054091) scale(0.14 -0.14)">
     <defs>
      <path id="Cmmi10-79" d="M 538 -916 
Q 672 -1147 1006 -1147 
Q 1309 -1147 1531 -934 
Q 1753 -722 1889 -420 
Q 2025 -119 2100 197 
Q 1816 -72 1484 -72 
Q 1231 -72 1053 15 
Q 875 103 776 276 
Q 678 450 678 697 
Q 678 906 734 1126 
Q 791 1347 892 1617 
Q 994 1888 1069 2088 
Q 1153 2322 1153 2472 
Q 1153 2663 1013 2663 
Q 759 2663 595 2402 
Q 431 2141 353 1819 
Q 341 1778 300 1778 
L 225 1778 
Q 172 1778 172 1838 
L 172 1856 
Q 275 2238 487 2533 
Q 700 2828 1025 2828 
Q 1253 2828 1411 2678 
Q 1569 2528 1569 2297 
Q 1569 2178 1516 2047 
Q 1488 1969 1388 1706 
Q 1288 1444 1234 1272 
Q 1181 1100 1147 934 
Q 1113 769 1113 603 
Q 1113 391 1203 244 
Q 1294 97 1491 97 
Q 1888 97 2203 581 
L 2688 2553 
Q 2709 2638 2787 2698 
Q 2866 2759 2956 2759 
Q 3034 2759 3092 2709 
Q 3150 2659 3150 2578 
Q 3150 2541 3144 2528 
L 2509 -19 
Q 2425 -347 2200 -647 
Q 1975 -947 1658 -1130 
Q 1341 -1313 997 -1313 
Q 831 -1313 668 -1248 
Q 506 -1184 406 -1056 
Q 306 -928 306 -756 
Q 306 -581 409 -453 
Q 513 -325 684 -325 
Q 788 -325 858 -389 
Q 928 -453 928 -556 
Q 928 -703 818 -812 
Q 709 -922 563 -922 
Q 556 -919 550 -917 
Q 544 -916 538 -916 
z
" transform="scale(0.015625)"/>
      <path id="Cmr10-3d" d="M 481 850 
Q 428 850 393 890 
Q 359 931 359 978 
Q 359 1031 393 1068 
Q 428 1106 481 1106 
L 4500 1106 
Q 4547 1106 4581 1068 
Q 4616 1031 4616 978 
Q 4616 931 4581 890 
Q 4547 850 4500 850 
L 481 850 
z
M 481 2094 
Q 428 2094 393 2131 
Q 359 2169 359 2222 
Q 359 2269 393 2309 
Q 428 2350 481 2350 
L 4500 2350 
Q 4547 2350 4581 2309 
Q 4616 2269 4616 2222 
Q 4616 2169 4581 2131 
Q 4547 2094 4500 2094 
L 481 2094 
z
" transform="scale(0.015625)"/>
      <path id="Cmmi10-62" d="M 1106 -72 
Q 719 -72 503 231 
Q 288 534 288 941 
Q 288 1000 317 1173 
Q 347 1347 347 1388 
L 966 3872 
Q 991 3981 997 4044 
Q 997 4147 581 4147 
Q 519 4147 519 4231 
Q 522 4247 533 4287 
Q 544 4328 561 4350 
Q 578 4372 609 4372 
L 1472 4441 
Q 1550 4441 1550 4359 
L 1075 2472 
Q 1438 2828 1806 2828 
Q 2078 2828 2273 2684 
Q 2469 2541 2566 2306 
Q 2663 2072 2663 1806 
Q 2663 1497 2542 1167 
Q 2422 838 2209 555 
Q 1997 272 1712 100 
Q 1428 -72 1106 -72 
z
M 1119 97 
Q 1338 97 1528 280 
Q 1719 463 1838 691 
Q 1966 947 2077 1386 
Q 2188 1825 2188 2088 
Q 2188 2316 2092 2489 
Q 1997 2663 1791 2663 
Q 1559 2663 1348 2492 
Q 1138 2322 978 2088 
L 800 1363 
Q 697 959 691 716 
Q 691 475 795 286 
Q 900 97 1119 97 
z
" transform="scale(0.015625)"/>
     </defs>
     <use xlink:href="#Cmmi10-79" transform="translate(0 0.609375)"/>
     <use xlink:href="#Cmr10-3d" transform="translate(66.582031 0.609375)"/>
     <use xlink:href="#Cmmi10-62" transform="translate(161.826172 0.609375)"/>
    </g>
   </g>
  </g>
 </g>
 <defs>
  <clipPath id="pe8f1e43ffd">
   <rect x="11.017937" y="7.2" width="432.820385" height="288.527174"/>
  </clipPath>
 </defs>
</svg>
