<?xml version="1.0" encoding="utf-8" standalone="no"?>
<!DOCTYPE svg PUBLIC "-//W3C//DTD SVG 1.1//EN"
  "http://www.w3.org/Graphics/SVG/1.1/DTD/svg11.dtd">
<svg xmlns:xlink="http://www.w3.org/1999/xlink" width="419.4pt" height="338.4pt" viewBox="0 0 419.4 338.4" xmlns="http://www.w3.org/2000/svg" version="1.1">
 <metadata>
  <rdf:RDF xmlns:dc="http://purl.org/dc/elements/1.1/" xmlns:cc="http://creativecommons.org/ns#" xmlns:rdf="http://www.w3.org/1999/02/22-rdf-syntax-ns#">
   <cc:Work>
    <dc:type rdf:resource="http://purl.org/dc/dcmitype/StillImage"/>
    <dc:date>2025-10-27T11:46:04.942786</dc:date>
    <dc:format>image/svg+xml</dc:format>
    <dc:creator>
     <cc:Agent>
      <dc:title>Matplotlib v3.6.2, https://matplotlib.org/</dc:title>
     </cc:Agent>
    </dc:creator>
   </cc:Work>
  </rdf:RDF>
 </metadata>
 <defs>
  <style type="text/css">*{stroke-linejoin: round; stroke-linecap: butt}</style>
 </defs>
 <g id="figure_1">
  <g id="patch_1">
   <path d="M 0 338.4 
L 419.4 338.4 
L 419.4 0 
L 0 0 
z
" style="fill: #ffffff"/>
  </g>
  <g id="axes_1">
   <g id="patch_2">
    <path d="M 7.2 331.2 
L 412.2 331.2 
L 412.2 7.2 
L 7.2 7.2 
z
" style="fill: #ffffff"/>
   </g>
   <g id="matplotlib.axis_1"/>
   <g id="matplotlib.axis_2"/>
   <g id="line2d_1">
    <path d="M 216.828398 -1 
L 217.703848 17.622575 
L 218.73352 34.899891 
L 219.732881 48.277345 
L 220.910199 60.976885 
L 222.007556 70.626194 
L 223.248059 79.651923 
L 224.459436 87.001559 
L 225.954022 94.559847 
L 227.346944 100.451403 
L 228.807536 105.706587 
L 230.319106 110.36124 
L 231.862983 114.459957 
L 233.386793 117.981473 
L 235.174261 121.575354 
L 236.991052 124.745772 
L 238.816515 127.532834 
L 241.082837 130.541843 
L 243.433941 133.236142 
L 245.45919 135.272982 
L 247.82165 137.375495 
L 251.057927 139.865777 
L 254.032172 141.833809 
L 257.195466 143.656453 
L 260.452399 145.295659 
L 263.419619 146.616022 
L 267.002477 148.028094 
L 271.856929 149.681618 
L 276.936393 151.156161 
L 283.169071 152.686893 
L 289.889332 154.070772 
L 297.396284 155.36586 
L 306.019397 156.604379 
L 315.437532 157.726282 
L 325.416815 158.715762 
L 337.889122 159.735838 
L 353.395391 160.757122 
L 370.96496 161.676961 
L 391.858614 162.539856 
L 404.411538 162.969231 
L 404.411538 162.969231 
" clip-path="url(#pdf29d9b2e0)" style="fill: none; stroke: #0000ff; stroke-linecap: square"/>
   </g>
   <g id="line2d_2">
    <path d="M 14.988462 169.2 
L 404.411538 169.2 
L 404.411538 169.2 
" clip-path="url(#pdf29d9b2e0)" style="fill: none; stroke-dasharray: 2,3.3; stroke-dashoffset: 0; stroke: #ff0000; stroke-width: 2"/>
   </g>
   <g id="line2d_3">
    <path d="M 14.988462 175.430769 
L 38.964659 176.30575 
L 59.231951 177.262859 
L 75.767563 178.258318 
L 88.826491 179.236961 
L 101.00183 180.361206 
L 111.571722 181.563436 
L 119.426744 182.639226 
L 127.601951 183.977485 
L 134.572993 185.348689 
L 140.993433 186.857739 
L 146.081001 188.269817 
L 150.895681 189.831183 
L 155.856301 191.731934 
L 159.95848 193.590141 
L 163.581849 195.506403 
L 167.145206 197.709189 
L 169.851031 199.64502 
L 172.761711 202.044041 
L 175.307506 204.475217 
L 177.378355 206.7353 
L 179.530525 209.41292 
L 181.542312 212.286019 
L 183.611239 215.702886 
L 185.526209 219.386695 
L 187.122659 222.93541 
L 188.862236 227.421345 
L 190.469499 232.28742 
L 191.893145 237.331214 
L 193.361397 243.453756 
L 194.62765 249.691936 
L 195.968552 257.552127 
L 197.266613 266.776201 
L 198.385683 276.427209 
L 199.398081 286.964723 
L 200.470923 300.654385 
L 201.432289 315.939851 
L 202.308433 333.333345 
L 202.571826 339.4 
L 202.571826 339.4 
" clip-path="url(#pdf29d9b2e0)" style="fill: none; stroke: #0000ff; stroke-linecap: square"/>
   </g>
   <g id="patch_3">
    <path d="M 209.7 331.2 
L 209.7 7.2 
" style="fill: none; stroke: #000000; stroke-width: 0.8; stroke-linejoin: miter; stroke-linecap: square"/>
   </g>
   <g id="patch_4">
    <path d="M 7.2 169.2 
L 412.2 169.2 
" style="fill: none; stroke: #000000; stroke-width: 0.8; stroke-linejoin: miter; stroke-linecap: square"/>
   </g>
  </g>
 </g>
 <defs>
  <clipPath id="pdf29d9b2e0">
   <rect x="7.2" y="7.2" width="405" height="324"/>
  </clipPath>
 </defs>
</svg>
