<?xml version="1.0" encoding="utf-8" standalone="no"?>
<!DOCTYPE svg PUBLIC "-//W3C//DTD SVG 1.1//EN"
  "http://www.w3.org/Graphics/SVG/1.1/DTD/svg11.dtd">
<svg xmlns:xlink="http://www.w3.org/1999/xlink" width="453.6pt" height="337.397538pt" viewBox="0 0 453.6 337.397538" xmlns="http://www.w3.org/2000/svg" version="1.1">
 <metadata>
  <rdf:RDF xmlns:dc="http://purl.org/dc/elements/1.1/" xmlns:cc="http://creativecommons.org/ns#" xmlns:rdf="http://www.w3.org/1999/02/22-rdf-syntax-ns#">
   <cc:Work>
    <dc:type rdf:resource="http://purl.org/dc/dcmitype/StillImage"/>
    <dc:date>2025-10-23T14:58:35.096086</dc:date>
    <dc:format>image/svg+xml</dc:format>
    <dc:creator>
     <cc:Agent>
      <dc:title>Matplotlib v3.8.0, https://matplotlib.org/</dc:title>
     </cc:Agent>
    </dc:creator>
   </cc:Work>
  </rdf:RDF>
 </metadata>
 <defs>
  <style type="text/css">*{stroke-linejoin: round; stroke-linecap: butt}</style>
 </defs>
 <g id="figure_1">
  <g id="patch_1">
   <path d="M 0 337.397538 
L 453.6 337.397538 
L 453.6 0 
L 0 0 
z
" style="fill: #ffffff"/>
  </g>
  <g id="axes_1">
   <g id="patch_2">
    <path d="M 7.2 330.197538 
L 446.4 330.197538 
L 446.4 7.2 
L 7.2 7.2 
z
" style="fill: #ffffff"/>
   </g>
   <g id="matplotlib.axis_1">
    <g id="xtick_1">
     <g id="line2d_1">
      <defs>
       <path id="m034afe820d" d="M 0 0 
L 0 3.5 
" style="stroke: #000000; stroke-width: 0.8"/>
      </defs>
      <g>
       <use xlink:href="#m034afe820d" x="68.434615" y="168.698769" style="stroke: #000000; stroke-width: 0.8"/>
      </g>
     </g>
     <g id="text_1">
      <!-- $-\frac{3}{2} \, \pi$ -->
      <g transform="translate(58.584615 184.298769) scale(0.1 -0.1)">
       <defs>
        <path id="Cmsy10-a1" d="M 653 1472 
Q 600 1472 565 1512 
Q 531 1553 531 1600 
Q 531 1647 565 1687 
Q 600 1728 653 1728 
L 4325 1728 
Q 4375 1728 4408 1687 
Q 4441 1647 4441 1600 
Q 4441 1553 4408 1512 
Q 4375 1472 4325 1472 
L 653 1472 
z
" transform="scale(0.015625)"/>
        <path id="Cmr10-33" d="M 609 494 
Q 759 275 1012 169 
Q 1266 63 1556 63 
Q 1928 63 2084 380 
Q 2241 697 2241 1100 
Q 2241 1281 2208 1462 
Q 2175 1644 2097 1800 
Q 2019 1956 1883 2050 
Q 1747 2144 1550 2144 
L 1125 2144 
Q 1069 2144 1069 2203 
L 1069 2259 
Q 1069 2309 1125 2309 
L 1478 2338 
Q 1703 2338 1851 2506 
Q 2000 2675 2069 2917 
Q 2138 3159 2138 3378 
Q 2138 3684 1994 3881 
Q 1850 4078 1556 4078 
Q 1313 4078 1091 3986 
Q 869 3894 738 3706 
Q 750 3709 759 3711 
Q 769 3713 781 3713 
Q 925 3713 1022 3613 
Q 1119 3513 1119 3372 
Q 1119 3234 1022 3134 
Q 925 3034 781 3034 
Q 641 3034 541 3134 
Q 441 3234 441 3372 
Q 441 3647 606 3850 
Q 772 4053 1033 4158 
Q 1294 4263 1556 4263 
Q 1750 4263 1965 4205 
Q 2181 4147 2356 4039 
Q 2531 3931 2642 3762 
Q 2753 3594 2753 3378 
Q 2753 3109 2633 2881 
Q 2513 2653 2303 2487 
Q 2094 2322 1844 2241 
Q 2122 2188 2372 2031 
Q 2622 1875 2773 1631 
Q 2925 1388 2925 1106 
Q 2925 753 2731 467 
Q 2538 181 2222 20 
Q 1906 -141 1556 -141 
Q 1256 -141 954 -26 
Q 653 88 461 316 
Q 269 544 269 863 
Q 269 1022 375 1128 
Q 481 1234 641 1234 
Q 744 1234 830 1186 
Q 916 1138 964 1050 
Q 1013 963 1013 863 
Q 1013 706 903 600 
Q 794 494 641 494 
L 609 494 
z
" transform="scale(0.015625)"/>
        <path id="Cmr10-32" d="M 319 0 
L 319 172 
Q 319 188 331 206 
L 1325 1306 
Q 1550 1550 1690 1715 
Q 1831 1881 1968 2097 
Q 2106 2313 2186 2536 
Q 2266 2759 2266 3009 
Q 2266 3272 2169 3511 
Q 2072 3750 1880 3894 
Q 1688 4038 1416 4038 
Q 1138 4038 916 3870 
Q 694 3703 603 3438 
Q 628 3444 672 3444 
Q 816 3444 917 3347 
Q 1019 3250 1019 3097 
Q 1019 2950 917 2848 
Q 816 2747 672 2747 
Q 522 2747 420 2851 
Q 319 2956 319 3097 
Q 319 3338 409 3548 
Q 500 3759 670 3923 
Q 841 4088 1055 4175 
Q 1269 4263 1509 4263 
Q 1875 4263 2190 4108 
Q 2506 3953 2690 3670 
Q 2875 3388 2875 3009 
Q 2875 2731 2753 2481 
Q 2631 2231 2440 2026 
Q 2250 1822 1953 1562 
Q 1656 1303 1563 1216 
L 838 519 
L 1453 519 
Q 1906 519 2211 526 
Q 2516 534 2534 550 
Q 2609 631 2688 1141 
L 2875 1141 
L 2694 0 
L 319 0 
z
" transform="scale(0.015625)"/>
        <path id="Cmmi10-bc" d="M 647 109 
Q 647 144 672 213 
Q 850 584 1004 942 
Q 1159 1300 1282 1639 
Q 1406 1978 1509 2363 
L 1100 2363 
Q 866 2363 662 2216 
Q 459 2069 325 1844 
Q 313 1819 288 1819 
L 213 1819 
Q 153 1819 153 1881 
Q 153 1894 166 1919 
Q 375 2275 614 2517 
Q 853 2759 1153 2759 
L 3475 2759 
Q 3541 2759 3587 2715 
Q 3634 2672 3634 2597 
Q 3634 2503 3567 2433 
Q 3500 2363 3406 2363 
L 2591 2363 
Q 2488 1859 2478 1381 
Q 2478 766 2694 269 
Q 2713 231 2713 191 
Q 2713 122 2672 62 
Q 2631 3 2567 -34 
Q 2503 -72 2431 -72 
Q 2263 -72 2200 203 
Q 2138 478 2138 738 
Q 2138 1103 2200 1442 
Q 2263 1781 2400 2363 
L 1703 2363 
Q 1197 313 1094 103 
Q 1003 -72 844 -72 
Q 766 -72 706 -20 
Q 647 31 647 109 
z
" transform="scale(0.015625)"/>
       </defs>
       <use xlink:href="#Cmsy10-a1" transform="translate(0 0.33125)"/>
       <use xlink:href="#Cmr10-33" transform="translate(77.685547 39.373438) scale(0.7)"/>
       <use xlink:href="#Cmr10-32" transform="translate(77.685547 -40.045312) scale(0.7)"/>
       <use xlink:href="#Cmmi10-bc" transform="translate(139.818001 0.33125)"/>
       <path d="M 77.685547 12.83125 
L 77.685547 19.08125 
L 112.685547 19.08125 
L 112.685547 12.83125 
L 77.685547 12.83125 
z
"/>
      </g>
     </g>
    </g>
    <g id="xtick_2">
     <g id="line2d_2">
      <g>
       <use xlink:href="#m034afe820d" x="174.011538" y="168.698769" style="stroke: #000000; stroke-width: 0.8"/>
      </g>
     </g>
     <g id="text_2">
      <!-- $-\frac{1}{2} \, \pi$ -->
      <g transform="translate(164.161538 184.198769) scale(0.1 -0.1)">
       <defs>
        <path id="Cmr10-31" d="M 594 0 
L 594 225 
Q 1394 225 1394 428 
L 1394 3788 
Q 1063 3628 556 3628 
L 556 3853 
Q 1341 3853 1741 4263 
L 1831 4263 
Q 1853 4263 1873 4245 
Q 1894 4228 1894 4206 
L 1894 428 
Q 1894 225 2694 225 
L 2694 0 
L 594 0 
z
" transform="scale(0.015625)"/>
       </defs>
       <use xlink:href="#Cmsy10-a1" transform="translate(0 0.873437)"/>
       <use xlink:href="#Cmr10-31" transform="translate(77.685547 38.373438) scale(0.7)"/>
       <use xlink:href="#Cmr10-32" transform="translate(77.685547 -39.503125) scale(0.7)"/>
       <use xlink:href="#Cmmi10-bc" transform="translate(139.818001 0.873437)"/>
       <path d="M 77.685547 13.373437 
L 77.685547 19.623437 
L 112.685547 19.623437 
L 112.685547 13.373437 
L 77.685547 13.373437 
z
"/>
      </g>
     </g>
    </g>
    <g id="xtick_3">
     <g id="line2d_3">
      <g>
       <use xlink:href="#m034afe820d" x="279.588462" y="168.698769" style="stroke: #000000; stroke-width: 0.8"/>
      </g>
     </g>
     <g id="text_3">
      <!-- $\frac{1}{2} \, \pi$ -->
      <g transform="translate(273.588462 184.198769) scale(0.1 -0.1)">
       <use xlink:href="#Cmr10-31" transform="translate(0 38.373438) scale(0.7)"/>
       <use xlink:href="#Cmr10-32" transform="translate(0 -39.503125) scale(0.7)"/>
       <use xlink:href="#Cmmi10-bc" transform="translate(62.132454 0.873437)"/>
       <path d="M 0 13.373437 
L 0 19.623437 
L 35 19.623437 
L 35 13.373437 
L 0 13.373437 
z
"/>
      </g>
     </g>
    </g>
    <g id="xtick_4">
     <g id="line2d_4">
      <g>
       <use xlink:href="#m034afe820d" x="385.165385" y="168.698769" style="stroke: #000000; stroke-width: 0.8"/>
      </g>
     </g>
     <g id="text_4">
      <!-- $\frac{3}{2} \, \pi$ -->
      <g transform="translate(379.165385 184.298769) scale(0.1 -0.1)">
       <use xlink:href="#Cmr10-33" transform="translate(0 39.373438) scale(0.7)"/>
       <use xlink:href="#Cmr10-32" transform="translate(0 -40.045312) scale(0.7)"/>
       <use xlink:href="#Cmmi10-bc" transform="translate(62.132454 0.33125)"/>
       <path d="M 0 12.83125 
L 0 19.08125 
L 35 19.08125 
L 35 12.83125 
L 0 12.83125 
z
"/>
      </g>
     </g>
    </g>
   </g>
   <g id="matplotlib.axis_2">
    <g id="ytick_1">
     <g id="line2d_5">
      <defs>
       <path id="m3f57970d61" d="M 0 0 
L -3.5 0 
" style="stroke: #000000; stroke-width: 0.8"/>
      </defs>
      <g>
       <use xlink:href="#m3f57970d61" x="226.8" y="323.986047" style="stroke: #000000; stroke-width: 0.8"/>
      </g>
     </g>
     <g id="text_5">
      <!-- −10 -->
      <g transform="translate(198.695312 327.785266) scale(0.1 -0.1)">
       <defs>
        <path id="DejaVuSans-2212" d="M 678 2272 
L 4684 2272 
L 4684 1741 
L 678 1741 
L 678 2272 
z
" transform="scale(0.015625)"/>
        <path id="DejaVuSans-31" d="M 794 531 
L 1825 531 
L 1825 4091 
L 703 3866 
L 703 4441 
L 1819 4666 
L 2450 4666 
L 2450 531 
L 3481 531 
L 3481 0 
L 794 0 
L 794 531 
z
" transform="scale(0.015625)"/>
        <path id="DejaVuSans-30" d="M 2034 4250 
Q 1547 4250 1301 3770 
Q 1056 3291 1056 2328 
Q 1056 1369 1301 889 
Q 1547 409 2034 409 
Q 2525 409 2770 889 
Q 3016 1369 3016 2328 
Q 3016 3291 2770 3770 
Q 2525 4250 2034 4250 
z
M 2034 4750 
Q 2819 4750 3233 4129 
Q 3647 3509 3647 2328 
Q 3647 1150 3233 529 
Q 2819 -91 2034 -91 
Q 1250 -91 836 529 
Q 422 1150 422 2328 
Q 422 3509 836 4129 
Q 1250 4750 2034 4750 
z
" transform="scale(0.015625)"/>
       </defs>
       <use xlink:href="#DejaVuSans-2212"/>
       <use xlink:href="#DejaVuSans-31" x="83.789062"/>
       <use xlink:href="#DejaVuSans-30" x="147.412109"/>
      </g>
     </g>
    </g>
    <g id="ytick_2">
     <g id="line2d_6">
      <g>
       <use xlink:href="#m3f57970d61" x="226.8" y="246.342408" style="stroke: #000000; stroke-width: 0.8"/>
      </g>
     </g>
     <g id="text_6">
      <!-- −5 -->
      <g transform="translate(205.057812 250.141627) scale(0.1 -0.1)">
       <defs>
        <path id="DejaVuSans-35" d="M 691 4666 
L 3169 4666 
L 3169 4134 
L 1269 4134 
L 1269 2991 
Q 1406 3038 1543 3061 
Q 1681 3084 1819 3084 
Q 2600 3084 3056 2656 
Q 3513 2228 3513 1497 
Q 3513 744 3044 326 
Q 2575 -91 1722 -91 
Q 1428 -91 1123 -41 
Q 819 9 494 109 
L 494 744 
Q 775 591 1075 516 
Q 1375 441 1709 441 
Q 2250 441 2565 725 
Q 2881 1009 2881 1497 
Q 2881 1984 2565 2268 
Q 2250 2553 1709 2553 
Q 1456 2553 1204 2497 
Q 953 2441 691 2322 
L 691 4666 
z
" transform="scale(0.015625)"/>
       </defs>
       <use xlink:href="#DejaVuSans-2212"/>
       <use xlink:href="#DejaVuSans-35" x="83.789062"/>
      </g>
     </g>
    </g>
    <g id="ytick_3">
     <g id="line2d_7">
      <g>
       <use xlink:href="#m3f57970d61" x="226.8" y="91.05513" style="stroke: #000000; stroke-width: 0.8"/>
      </g>
     </g>
     <g id="text_7">
      <!-- 5 -->
      <g transform="translate(213.4375 94.854349) scale(0.1 -0.1)">
       <use xlink:href="#DejaVuSans-35"/>
      </g>
     </g>
    </g>
    <g id="ytick_4">
     <g id="line2d_8">
      <g>
       <use xlink:href="#m3f57970d61" x="226.8" y="13.411491" style="stroke: #000000; stroke-width: 0.8"/>
      </g>
     </g>
     <g id="text_8">
      <!-- 10 -->
      <g transform="translate(207.075 17.21071) scale(0.1 -0.1)">
       <use xlink:href="#DejaVuSans-31"/>
       <use xlink:href="#DejaVuSans-30" x="63.623047"/>
      </g>
     </g>
    </g>
   </g>
   <g id="line2d_9">
    <path d="M 15.646154 168.698769 
L 24.569887 164.475564 
L 30.000496 161.630764 
L 33.769345 159.405549 
L 36.986667 157.256769 
L 39.241463 155.562932 
L 42.369625 152.862751 
L 44.908591 150.264306 
L 47.124357 147.583883 
L 48.924715 145.025042 
L 50.574492 142.283584 
L 52.146331 139.208735 
L 53.604566 135.823763 
L 54.961997 132.061539 
L 56.108598 128.276365 
L 57.189121 124.037697 
L 58.22052 119.189529 
L 59.325556 112.818374 
L 60.307983 105.739226 
L 61.172642 97.958633 
L 62.0373 88.11148 
L 62.793877 77.052765 
L 63.587545 61.781104 
L 64.286116 43.543236 
L 64.86415 23.088559 
L 65.367402 -1 
L 65.367402 -1 
" clip-path="url(#p3b710d236c)" style="fill: none; stroke: #0000ff; stroke-linecap: square"/>
   </g>
   <g id="line2d_10">
    <path d="M 71.501972 338.397538 
L 72.119559 309.750581 
L 72.804429 287.449067 
L 73.565902 269.609001 
L 74.414596 255.043784 
L 75.26329 244.066101 
L 76.14772 235.165585 
L 77.188007 226.962549 
L 78.258353 220.299434 
L 79.379017 214.683935 
L 80.506481 210.052726 
L 81.591356 206.316199 
L 82.816545 202.74194 
L 84.45013 198.778508 
L 85.924732 195.792382 
L 87.445265 193.157182 
L 89.523904 190.107169 
L 91.799306 187.31387 
L 93.675837 185.331368 
L 96.402865 182.836965 
L 99.248242 180.599443 
L 102.369821 178.456266 
L 105.721342 176.417159 
L 110.050984 174.060144 
L 116.245636 171.01571 
L 132.333125 163.369461 
L 136.643057 161.027432 
L 140.698187 158.535713 
L 144.15707 156.078654 
L 147.070412 153.66741 
L 149.45661 151.369913 
L 151.264827 149.371998 
L 153.388655 146.653002 
L 154.945107 144.32984 
L 156.601089 141.455662 
L 158.06266 138.472143 
L 159.415712 135.221564 
L 160.686641 131.608625 
L 161.98143 127.188157 
L 163.177004 122.212794 
L 164.201781 117.020212 
L 165.17099 111.036366 
L 166.102471 103.938851 
L 166.96872 95.688393 
L 167.809397 85.514145 
L 168.556665 73.871646 
L 169.303933 58.5699 
L 169.941664 41.100882 
L 170.534399 19.15123 
L 170.944557 -1 
L 170.944557 -1 
" clip-path="url(#p3b710d236c)" style="fill: none; stroke: #0000ff; stroke-linecap: square"/>
   </g>
   <g id="line2d_11">
    <path d="M 177.078641 338.397538 
L 177.6902 309.993422 
L 178.378795 287.519389 
L 179.128218 269.901597 
L 179.971319 255.342696 
L 180.814421 244.359852 
L 181.781311 234.663305 
L 182.810144 226.649124 
L 183.87081 220.102405 
L 185.13998 213.866394 
L 186.371376 208.999969 
L 187.602772 204.979067 
L 189.030818 201.100086 
L 190.649796 197.458291 
L 192.289445 194.377831 
L 194.294232 191.225483 
L 196.109683 188.808343 
L 198.617861 185.974396 
L 201.293515 183.428012 
L 203.131417 181.8928 
L 206.627951 179.328203 
L 210.724935 176.75039 
L 215.196743 174.284129 
L 221.009482 171.401247 
L 236.981474 163.844687 
L 242.015395 161.144687 
L 245.656659 158.939078 
L 249.1595 156.513447 
L 251.810705 154.398749 
L 254.240827 152.171397 
L 256.029943 150.300439 
L 258.2882 147.570718 
L 260.413802 144.502137 
L 261.895784 141.979747 
L 263.288888 139.232751 
L 264.651753 136.092135 
L 266.073257 132.190368 
L 267.272214 128.241235 
L 268.492724 123.387773 
L 269.587768 118.06581 
L 270.607859 111.978828 
L 271.62795 104.373268 
L 272.490727 96.270234 
L 273.353504 85.962092 
L 274.184184 72.968141 
L 274.935263 57.26534 
L 275.602888 38.375681 
L 276.187061 15.797662 
L 276.521552 -1 
L 276.521552 -1 
" clip-path="url(#p3b710d236c)" style="fill: none; stroke: #0000ff; stroke-linecap: square"/>
   </g>
   <g id="line2d_12">
    <path d="M 282.655621 338.397538 
L 283.250093 310.655812 
L 283.955671 287.520688 
L 284.749446 269.019192 
L 285.567181 255.062386 
L 286.400939 244.25031 
L 287.323537 234.969985 
L 288.34651 226.930122 
L 289.369482 220.538127 
L 290.58951 214.42949 
L 291.724685 209.813308 
L 293.172757 204.999784 
L 294.505092 201.355652 
L 295.928848 198.078226 
L 297.436124 195.136387 
L 298.963721 192.58058 
L 300.948061 189.748832 
L 303.13775 187.107355 
L 305.305128 184.866647 
L 307.885585 182.561476 
L 311.114394 180.085266 
L 314.080794 178.100856 
L 318.311436 175.606273 
L 323.399574 172.948593 
L 328.937122 170.293805 
L 340.933911 164.657033 
L 345.739834 162.17662 
L 349.4702 160.040449 
L 352.215623 158.294022 
L 355.518363 155.918681 
L 358.519369 153.401005 
L 361.035567 150.922521 
L 363.163057 148.470232 
L 364.966336 146.051633 
L 366.783666 143.197942 
L 368.146664 140.702095 
L 369.456475 137.933638 
L 370.932709 134.251234 
L 372.174216 130.549518 
L 373.404531 126.152486 
L 374.420467 121.796974 
L 375.44973 116.490205 
L 376.464897 110.064219 
L 377.367267 102.982787 
L 378.269637 94.085189 
L 379.137 83.061956 
L 379.914891 70.116023 
L 380.614992 54.715642 
L 381.237304 36.450358 
L 381.841204 12.221691 
L 382.098437 -1 
L 382.098437 -1 
" clip-path="url(#p3b710d236c)" style="fill: none; stroke: #0000ff; stroke-linecap: square"/>
   </g>
   <g id="line2d_13">
    <path d="M 388.232141 338.397538 
L 388.757388 313.429232 
L 389.428368 290.458357 
L 390.211177 271.345437 
L 390.993986 257.333749 
L 391.888625 245.28092 
L 392.861134 235.320873 
L 393.890934 227.157128 
L 395.014353 220.159391 
L 396.089775 214.774432 
L 397.288437 209.862109 
L 398.746188 205.010216 
L 400.122896 201.253478 
L 401.700197 197.671258 
L 403.488087 194.300698 
L 405.068325 191.779331 
L 407.078275 189.03915 
L 409.088226 186.697556 
L 411.68844 184.108896 
L 414.326701 181.859864 
L 417.573134 179.470405 
L 421.447914 177.004714 
L 425.72733 174.611604 
L 431.774265 171.586852 
L 437.953846 168.698769 
L 437.953846 168.698769 
" clip-path="url(#p3b710d236c)" style="fill: none; stroke: #0000ff; stroke-linecap: square"/>
   </g>
   <g id="patch_3">
    <path d="M 226.8 330.197538 
L 226.8 7.2 
" style="fill: none; stroke: #000000; stroke-width: 0.8; stroke-linejoin: miter; stroke-linecap: square"/>
   </g>
   <g id="patch_4">
    <path d="M 7.2 168.698769 
L 446.4 168.698769 
" style="fill: none; stroke: #000000; stroke-width: 0.8; stroke-linejoin: miter; stroke-linecap: square"/>
   </g>
  </g>
 </g>
 <defs>
  <clipPath id="p3b710d236c">
   <rect x="7.2" y="7.2" width="439.2" height="322.997538"/>
  </clipPath>
 </defs>
</svg>
