<?xml version="1.0" encoding="utf-8" standalone="no"?>
<!DOCTYPE svg PUBLIC "-//W3C//DTD SVG 1.1//EN"
  "http://www.w3.org/Graphics/SVG/1.1/DTD/svg11.dtd">
<svg xmlns:xlink="http://www.w3.org/1999/xlink" width="453.6pt" height="338.4pt" viewBox="0 0 453.6 338.4" xmlns="http://www.w3.org/2000/svg" version="1.1">
 <metadata>
  <rdf:RDF xmlns:dc="http://purl.org/dc/elements/1.1/" xmlns:cc="http://creativecommons.org/ns#" xmlns:rdf="http://www.w3.org/1999/02/22-rdf-syntax-ns#">
   <cc:Work>
    <dc:type rdf:resource="http://purl.org/dc/dcmitype/StillImage"/>
    <dc:date>2026-03-01T21:21:44.144243</dc:date>
    <dc:format>image/svg+xml</dc:format>
    <dc:creator>
     <cc:Agent>
      <dc:title>Matplotlib v3.8.0, https://matplotlib.org/</dc:title>
     </cc:Agent>
    </dc:creator>
   </cc:Work>
  </rdf:RDF>
 </metadata>
 <defs>
  <style type="text/css">*{stroke-linejoin: round; stroke-linecap: butt}</style>
 </defs>
 <g id="figure_1">
  <g id="patch_1">
   <path d="M 0 338.4 
L 453.6 338.4 
L 453.6 0 
L 0 0 
z
" style="fill: #ffffff"/>
  </g>
  <g id="axes_1">
   <g id="patch_2">
    <path d="M 7.2 331.2 
L 446.4 331.2 
L 446.4 7.2 
L 7.2 7.2 
z
" style="fill: #ffffff"/>
   </g>
   <g id="PathCollection_1">
    <defs>
     <path id="C0_0_52def28794" d="M 0 3.535534 
C 0.937635 3.535534 1.836992 3.163008 2.5 2.5 
C 3.163008 1.836992 3.535534 0.937635 3.535534 -0 
C 3.535534 -0.937635 3.163008 -1.836992 2.5 -2.5 
C 1.836992 -3.163008 0.937635 -3.535534 0 -3.535534 
C -0.937635 -3.535534 -1.836992 -3.163008 -2.5 -2.5 
C -3.163008 -1.836992 -3.535534 -0.937635 -3.535534 0 
C -3.535534 0.937635 -3.163008 1.836992 -2.5 2.5 
C -1.836992 3.163008 -0.937635 3.535534 0 3.535534 
z
"/>
    </defs>
    <g clip-path="url(#p87f57bc0c0)">
     <use xlink:href="#C0_0_52def28794" x="86.030769" y="44.584615" style="fill: #ff0000"/>
    </g>
    <g clip-path="url(#p87f57bc0c0)">
     <use xlink:href="#C0_0_52def28794" x="109.492308" y="61.279911" style="fill: #ff0000"/>
    </g>
    <g clip-path="url(#p87f57bc0c0)">
     <use xlink:href="#C0_0_52def28794" x="132.953846" y="106.892308" style="fill: #ff0000"/>
    </g>
    <g clip-path="url(#p87f57bc0c0)">
     <use xlink:href="#C0_0_52def28794" x="156.415385" y="169.2" style="fill: #ff0000"/>
    </g>
    <g clip-path="url(#p87f57bc0c0)">
     <use xlink:href="#C0_0_52def28794" x="179.876923" y="231.507692" style="fill: #ff0000"/>
    </g>
    <g clip-path="url(#p87f57bc0c0)">
     <use xlink:href="#C0_0_52def28794" x="203.338462" y="277.120089" style="fill: #ff0000"/>
    </g>
    <g clip-path="url(#p87f57bc0c0)">
     <use xlink:href="#C0_0_52def28794" x="226.8" y="293.815385" style="fill: #ff0000"/>
    </g>
    <g clip-path="url(#p87f57bc0c0)">
     <use xlink:href="#C0_0_52def28794" x="250.261538" y="277.120089" style="fill: #ff0000"/>
    </g>
    <g clip-path="url(#p87f57bc0c0)">
     <use xlink:href="#C0_0_52def28794" x="273.723077" y="231.507692" style="fill: #ff0000"/>
    </g>
    <g clip-path="url(#p87f57bc0c0)">
     <use xlink:href="#C0_0_52def28794" x="297.184615" y="169.2" style="fill: #ff0000"/>
    </g>
    <g clip-path="url(#p87f57bc0c0)">
     <use xlink:href="#C0_0_52def28794" x="320.646154" y="106.892308" style="fill: #ff0000"/>
    </g>
    <g clip-path="url(#p87f57bc0c0)">
     <use xlink:href="#C0_0_52def28794" x="344.107692" y="61.279911" style="fill: #ff0000"/>
    </g>
    <g clip-path="url(#p87f57bc0c0)">
     <use xlink:href="#C0_0_52def28794" x="86.030769" y="44.584615" style="fill: #ff0000"/>
    </g>
    <g clip-path="url(#p87f57bc0c0)">
     <use xlink:href="#C0_0_52def28794" x="121.223077" y="81.083616" style="fill: #ff0000"/>
    </g>
    <g clip-path="url(#p87f57bc0c0)">
     <use xlink:href="#C0_0_52def28794" x="156.415385" y="169.2" style="fill: #ff0000"/>
    </g>
    <g clip-path="url(#p87f57bc0c0)">
     <use xlink:href="#C0_0_52def28794" x="191.607692" y="257.316384" style="fill: #ff0000"/>
    </g>
    <g clip-path="url(#p87f57bc0c0)">
     <use xlink:href="#C0_0_52def28794" x="226.8" y="293.815385" style="fill: #ff0000"/>
    </g>
    <g clip-path="url(#p87f57bc0c0)">
     <use xlink:href="#C0_0_52def28794" x="261.992308" y="257.316384" style="fill: #ff0000"/>
    </g>
    <g clip-path="url(#p87f57bc0c0)">
     <use xlink:href="#C0_0_52def28794" x="297.184615" y="169.2" style="fill: #ff0000"/>
    </g>
    <g clip-path="url(#p87f57bc0c0)">
     <use xlink:href="#C0_0_52def28794" x="332.376923" y="81.083616" style="fill: #ff0000"/>
    </g>
   </g>
   <g id="matplotlib.axis_1">
    <g id="xtick_1">
     <g id="line2d_1">
      <defs>
       <path id="m0a8fca25d5" d="M 0 0 
L 0 3.5 
" style="stroke: #000000; stroke-width: 0.8"/>
      </defs>
      <g>
       <use xlink:href="#m0a8fca25d5" x="15.646154" y="169.2" style="stroke: #000000; stroke-width: 0.8"/>
      </g>
     </g>
     <g id="text_1">
      <!-- $-\frac{\pi}{2}$ -->
      <g transform="translate(9.096154 183.1) scale(0.1 -0.1)">
       <defs>
        <path id="Cmsy10-a1" d="M 653 1472 
Q 600 1472 565 1512 
Q 531 1553 531 1600 
Q 531 1647 565 1687 
Q 600 1728 653 1728 
L 4325 1728 
Q 4375 1728 4408 1687 
Q 4441 1647 4441 1600 
Q 4441 1553 4408 1512 
Q 4375 1472 4325 1472 
L 653 1472 
z
" transform="scale(0.015625)"/>
        <path id="Cmmi10-bc" d="M 647 109 
Q 647 144 672 213 
Q 850 584 1004 942 
Q 1159 1300 1282 1639 
Q 1406 1978 1509 2363 
L 1100 2363 
Q 866 2363 662 2216 
Q 459 2069 325 1844 
Q 313 1819 288 1819 
L 213 1819 
Q 153 1819 153 1881 
Q 153 1894 166 1919 
Q 375 2275 614 2517 
Q 853 2759 1153 2759 
L 3475 2759 
Q 3541 2759 3587 2715 
Q 3634 2672 3634 2597 
Q 3634 2503 3567 2433 
Q 3500 2363 3406 2363 
L 2591 2363 
Q 2488 1859 2478 1381 
Q 2478 766 2694 269 
Q 2713 231 2713 191 
Q 2713 122 2672 62 
Q 2631 3 2567 -34 
Q 2503 -72 2431 -72 
Q 2263 -72 2200 203 
Q 2138 478 2138 738 
Q 2138 1103 2200 1442 
Q 2263 1781 2400 2363 
L 1703 2363 
Q 1197 313 1094 103 
Q 1003 -72 844 -72 
Q 766 -72 706 -20 
Q 647 31 647 109 
z
" transform="scale(0.015625)"/>
        <path id="Cmr10-32" d="M 319 0 
L 319 172 
Q 319 188 331 206 
L 1325 1306 
Q 1550 1550 1690 1715 
Q 1831 1881 1968 2097 
Q 2106 2313 2186 2536 
Q 2266 2759 2266 3009 
Q 2266 3272 2169 3511 
Q 2072 3750 1880 3894 
Q 1688 4038 1416 4038 
Q 1138 4038 916 3870 
Q 694 3703 603 3438 
Q 628 3444 672 3444 
Q 816 3444 917 3347 
Q 1019 3250 1019 3097 
Q 1019 2950 917 2848 
Q 816 2747 672 2747 
Q 522 2747 420 2851 
Q 319 2956 319 3097 
Q 319 3338 409 3548 
Q 500 3759 670 3923 
Q 841 4088 1055 4175 
Q 1269 4263 1509 4263 
Q 1875 4263 2190 4108 
Q 2506 3953 2690 3670 
Q 2875 3388 2875 3009 
Q 2875 2731 2753 2481 
Q 2631 2231 2440 2026 
Q 2250 1822 1953 1562 
Q 1656 1303 1563 1216 
L 838 519 
L 1453 519 
Q 1906 519 2211 526 
Q 2516 534 2534 550 
Q 2609 631 2688 1141 
L 2875 1141 
L 2694 0 
L 319 0 
z
" transform="scale(0.015625)"/>
       </defs>
       <use xlink:href="#Cmsy10-a1" transform="translate(0 0.535938)"/>
       <use xlink:href="#Cmmi10-bc" transform="translate(77.685547 38.823437) scale(0.7)"/>
       <use xlink:href="#Cmr10-32" transform="translate(79.685547 -39.840625) scale(0.7)"/>
       <path d="M 77.685547 13.035937 
L 77.685547 19.285937 
L 117.573242 19.285937 
L 117.573242 13.035937 
L 77.685547 13.035937 
z
"/>
      </g>
     </g>
    </g>
    <g id="xtick_2">
     <g id="line2d_2">
      <g>
       <use xlink:href="#m0a8fca25d5" x="50.838462" y="169.2" style="stroke: #000000; stroke-width: 0.8"/>
      </g>
     </g>
     <g id="text_2">
      <!-- $-\frac{\pi}{4}$ -->
      <g transform="translate(44.288462 183.1) scale(0.1 -0.1)">
       <defs>
        <path id="Cmr10-34" d="M 178 1056 
L 178 1281 
L 2156 4231 
Q 2178 4263 2222 4263 
L 2316 4263 
Q 2388 4263 2388 4191 
L 2388 1281 
L 3016 1281 
L 3016 1056 
L 2388 1056 
L 2388 428 
Q 2388 297 2575 261 
Q 2763 225 3009 225 
L 3009 0 
L 1247 0 
L 1247 225 
Q 1494 225 1681 261 
Q 1869 297 1869 428 
L 1869 1056 
L 178 1056 
z
M 391 1281 
L 1906 1281 
L 1906 3547 
L 391 1281 
z
" transform="scale(0.015625)"/>
       </defs>
       <use xlink:href="#Cmsy10-a1" transform="translate(0 0.535938)"/>
       <use xlink:href="#Cmmi10-bc" transform="translate(77.685547 38.823437) scale(0.7)"/>
       <use xlink:href="#Cmr10-34" transform="translate(79.685547 -39.840625) scale(0.7)"/>
       <path d="M 77.685547 13.035937 
L 77.685547 19.285937 
L 117.573242 19.285937 
L 117.573242 13.035937 
L 77.685547 13.035937 
z
"/>
      </g>
     </g>
    </g>
    <g id="xtick_3">
     <g id="line2d_3">
      <g>
       <use xlink:href="#m0a8fca25d5" x="86.030769" y="169.2" style="stroke: #000000; stroke-width: 0.8"/>
      </g>
     </g>
    </g>
    <g id="xtick_4">
     <g id="line2d_4">
      <g>
       <use xlink:href="#m0a8fca25d5" x="121.223077" y="169.2" style="stroke: #000000; stroke-width: 0.8"/>
      </g>
     </g>
     <g id="text_3">
      <!-- $\frac{\pi}{4}$ -->
      <g transform="translate(118.573077 183.1) scale(0.1 -0.1)">
       <use xlink:href="#Cmmi10-bc" transform="translate(0 38.823437) scale(0.7)"/>
       <use xlink:href="#Cmr10-34" transform="translate(2 -39.840625) scale(0.7)"/>
       <path d="M 0 13.035937 
L 0 19.285937 
L 39.887695 19.285937 
L 39.887695 13.035937 
L 0 13.035937 
z
"/>
      </g>
     </g>
    </g>
    <g id="xtick_5">
     <g id="line2d_5">
      <g>
       <use xlink:href="#m0a8fca25d5" x="156.415385" y="169.2" style="stroke: #000000; stroke-width: 0.8"/>
      </g>
     </g>
     <g id="text_4">
      <!-- $\frac{\pi}{2}$ -->
      <g transform="translate(153.765385 183.1) scale(0.1 -0.1)">
       <use xlink:href="#Cmmi10-bc" transform="translate(0 38.823437) scale(0.7)"/>
       <use xlink:href="#Cmr10-32" transform="translate(2 -39.840625) scale(0.7)"/>
       <path d="M 0 13.035937 
L 0 19.285937 
L 39.887695 19.285937 
L 39.887695 13.035937 
L 0 13.035937 
z
"/>
      </g>
     </g>
    </g>
    <g id="xtick_6">
     <g id="line2d_6">
      <g>
       <use xlink:href="#m0a8fca25d5" x="191.607692" y="169.2" style="stroke: #000000; stroke-width: 0.8"/>
      </g>
     </g>
     <g id="text_5">
      <!-- $\frac{3\pi}{4}$ -->
      <g transform="translate(187.207692 184.8) scale(0.1 -0.1)">
       <defs>
        <path id="Cmr10-33" d="M 609 494 
Q 759 275 1012 169 
Q 1266 63 1556 63 
Q 1928 63 2084 380 
Q 2241 697 2241 1100 
Q 2241 1281 2208 1462 
Q 2175 1644 2097 1800 
Q 2019 1956 1883 2050 
Q 1747 2144 1550 2144 
L 1125 2144 
Q 1069 2144 1069 2203 
L 1069 2259 
Q 1069 2309 1125 2309 
L 1478 2338 
Q 1703 2338 1851 2506 
Q 2000 2675 2069 2917 
Q 2138 3159 2138 3378 
Q 2138 3684 1994 3881 
Q 1850 4078 1556 4078 
Q 1313 4078 1091 3986 
Q 869 3894 738 3706 
Q 750 3709 759 3711 
Q 769 3713 781 3713 
Q 925 3713 1022 3613 
Q 1119 3513 1119 3372 
Q 1119 3234 1022 3134 
Q 925 3034 781 3034 
Q 641 3034 541 3134 
Q 441 3234 441 3372 
Q 441 3647 606 3850 
Q 772 4053 1033 4158 
Q 1294 4263 1556 4263 
Q 1750 4263 1965 4205 
Q 2181 4147 2356 4039 
Q 2531 3931 2642 3762 
Q 2753 3594 2753 3378 
Q 2753 3109 2633 2881 
Q 2513 2653 2303 2487 
Q 2094 2322 1844 2241 
Q 2122 2188 2372 2031 
Q 2622 1875 2773 1631 
Q 2925 1388 2925 1106 
Q 2925 753 2731 467 
Q 2538 181 2222 20 
Q 1906 -141 1556 -141 
Q 1256 -141 954 -26 
Q 653 88 461 316 
Q 269 544 269 863 
Q 269 1022 375 1128 
Q 481 1234 641 1234 
Q 744 1234 830 1186 
Q 916 1138 964 1050 
Q 1013 963 1013 863 
Q 1013 706 903 600 
Q 794 494 641 494 
L 609 494 
z
" transform="scale(0.015625)"/>
       </defs>
       <use xlink:href="#Cmr10-33" transform="translate(0 39.373438) scale(0.7)"/>
       <use xlink:href="#Cmmi10-bc" transform="translate(35 39.373438) scale(0.7)"/>
       <use xlink:href="#Cmr10-34" transform="translate(20 -40.045312) scale(0.7)"/>
       <path d="M 0 12.83125 
L 0 19.08125 
L 74.887695 19.08125 
L 74.887695 12.83125 
L 0 12.83125 
z
"/>
      </g>
     </g>
    </g>
    <g id="xtick_7">
     <g id="line2d_7">
      <g>
       <use xlink:href="#m0a8fca25d5" x="226.8" y="169.2" style="stroke: #000000; stroke-width: 0.8"/>
      </g>
     </g>
     <g id="text_6">
      <!-- $\pi$ -->
      <g transform="translate(223.95 183.798438) scale(0.1 -0.1)">
       <use xlink:href="#Cmmi10-bc" transform="translate(0 0.890625)"/>
      </g>
     </g>
    </g>
    <g id="xtick_8">
     <g id="line2d_8">
      <g>
       <use xlink:href="#m0a8fca25d5" x="261.992308" y="169.2" style="stroke: #000000; stroke-width: 0.8"/>
      </g>
     </g>
     <g id="text_7">
      <!-- $\frac{5\pi}{4}$ -->
      <g transform="translate(257.592308 184.8) scale(0.1 -0.1)">
       <defs>
        <path id="Cmr10-35" d="M 556 728 
Q 622 541 758 387 
Q 894 234 1080 148 
Q 1266 63 1466 63 
Q 1928 63 2103 422 
Q 2278 781 2278 1294 
Q 2278 1516 2270 1667 
Q 2263 1819 2228 1959 
Q 2169 2184 2020 2353 
Q 1872 2522 1656 2522 
Q 1441 2522 1286 2456 
Q 1131 2391 1034 2303 
Q 938 2216 863 2119 
Q 788 2022 769 2016 
L 697 2016 
Q 681 2016 657 2036 
Q 634 2056 634 2075 
L 634 4213 
Q 634 4228 654 4245 
Q 675 4263 697 4263 
L 716 4263 
Q 1147 4056 1631 4056 
Q 2106 4056 2547 4263 
L 2566 4263 
Q 2588 4263 2606 4247 
Q 2625 4231 2625 4213 
L 2625 4153 
Q 2625 4122 2613 4122 
Q 2394 3831 2064 3668 
Q 1734 3506 1381 3506 
Q 1125 3506 856 3578 
L 856 2369 
Q 1069 2541 1236 2614 
Q 1403 2688 1663 2688 
Q 2016 2688 2295 2484 
Q 2575 2281 2725 1954 
Q 2875 1628 2875 1288 
Q 2875 903 2686 575 
Q 2497 247 2172 53 
Q 1847 -141 1466 -141 
Q 1150 -141 886 21 
Q 622 184 470 459 
Q 319 734 319 1044 
Q 319 1188 412 1278 
Q 506 1369 647 1369 
Q 788 1369 883 1276 
Q 978 1184 978 1044 
Q 978 906 883 811 
Q 788 716 647 716 
Q 625 716 597 720 
Q 569 725 556 728 
z
" transform="scale(0.015625)"/>
       </defs>
       <use xlink:href="#Cmr10-35" transform="translate(0 39.373438) scale(0.7)"/>
       <use xlink:href="#Cmmi10-bc" transform="translate(35 39.373438) scale(0.7)"/>
       <use xlink:href="#Cmr10-34" transform="translate(20 -40.045312) scale(0.7)"/>
       <path d="M 0 12.83125 
L 0 19.08125 
L 74.887695 19.08125 
L 74.887695 12.83125 
L 0 12.83125 
z
"/>
      </g>
     </g>
    </g>
    <g id="xtick_9">
     <g id="line2d_9">
      <g>
       <use xlink:href="#m0a8fca25d5" x="297.184615" y="169.2" style="stroke: #000000; stroke-width: 0.8"/>
      </g>
     </g>
     <g id="text_8">
      <!-- $\frac{3\pi}{2}$ -->
      <g transform="translate(292.784615 184.8) scale(0.1 -0.1)">
       <use xlink:href="#Cmr10-33" transform="translate(0 39.373438) scale(0.7)"/>
       <use xlink:href="#Cmmi10-bc" transform="translate(35 39.373438) scale(0.7)"/>
       <use xlink:href="#Cmr10-32" transform="translate(20 -40.045312) scale(0.7)"/>
       <path d="M 0 12.83125 
L 0 19.08125 
L 74.887695 19.08125 
L 74.887695 12.83125 
L 0 12.83125 
z
"/>
      </g>
     </g>
    </g>
    <g id="xtick_10">
     <g id="line2d_10">
      <g>
       <use xlink:href="#m0a8fca25d5" x="332.376923" y="169.2" style="stroke: #000000; stroke-width: 0.8"/>
      </g>
     </g>
     <g id="text_9">
      <!-- $\frac{7\pi}{4}$ -->
      <g transform="translate(327.976923 184.9) scale(0.1 -0.1)">
       <defs>
        <path id="Cmr10-37" d="M 1113 166 
Q 1113 522 1175 862 
Q 1238 1203 1358 1536 
Q 1478 1869 1648 2189 
Q 1819 2509 2022 2791 
L 2606 3603 
L 1875 3603 
Q 738 3603 703 3572 
Q 619 3469 544 2981 
L 359 2981 
L 569 4325 
L 756 4325 
L 756 4306 
Q 756 4191 1147 4156 
Q 1538 4122 1913 4122 
L 3103 4122 
L 3103 3956 
Q 3103 3950 3101 3947 
Q 3100 3944 3097 3938 
L 2216 2700 
Q 1891 2219 1809 1631 
Q 1728 1044 1728 166 
Q 1728 41 1637 -50 
Q 1547 -141 1422 -141 
Q 1294 -141 1203 -50 
Q 1113 41 1113 166 
z
" transform="scale(0.015625)"/>
       </defs>
       <use xlink:href="#Cmr10-37" transform="translate(0 39.695312) scale(0.7)"/>
       <use xlink:href="#Cmmi10-bc" transform="translate(35 39.695312) scale(0.7)"/>
       <use xlink:href="#Cmr10-34" transform="translate(20 -39.723437) scale(0.7)"/>
       <path d="M 0 13.153125 
L 0 19.403125 
L 74.887695 19.403125 
L 74.887695 13.153125 
L 0 13.153125 
z
"/>
      </g>
     </g>
    </g>
    <g id="xtick_11">
     <g id="line2d_11">
      <g>
       <use xlink:href="#m0a8fca25d5" x="367.569231" y="169.2" style="stroke: #000000; stroke-width: 0.8"/>
      </g>
     </g>
     <g id="text_10">
      <!-- $2\pi$ -->
      <g transform="translate(362.219231 183.798438) scale(0.1 -0.1)">
       <use xlink:href="#Cmr10-32" transform="translate(0 0.390625)"/>
       <use xlink:href="#Cmmi10-bc" transform="translate(50 0.390625)"/>
      </g>
     </g>
    </g>
    <g id="xtick_12">
     <g id="line2d_12">
      <g>
       <use xlink:href="#m0a8fca25d5" x="402.761538" y="169.2" style="stroke: #000000; stroke-width: 0.8"/>
      </g>
     </g>
     <g id="text_11">
      <!-- $\frac{9\pi}{4}$ -->
      <g transform="translate(398.361538 184.8) scale(0.1 -0.1)">
       <defs>
        <path id="Cmr10-39" d="M 722 269 
Q 897 63 1331 63 
Q 1575 63 1786 228 
Q 1997 394 2113 634 
Q 2247 906 2284 1214 
Q 2322 1522 2322 1978 
Q 2213 1719 2008 1553 
Q 1803 1388 1538 1388 
Q 1166 1388 873 1589 
Q 581 1791 425 2120 
Q 269 2450 269 2822 
Q 269 3206 444 3539 
Q 619 3872 928 4067 
Q 1238 4263 1631 4263 
Q 2019 4263 2280 4052 
Q 2541 3841 2678 3508 
Q 2816 3175 2870 2803 
Q 2925 2431 2925 2069 
Q 2925 1575 2744 1061 
Q 2563 547 2202 203 
Q 1841 -141 1331 -141 
Q 953 -141 690 37 
Q 428 216 428 575 
Q 428 706 517 795 
Q 606 884 738 884 
Q 866 884 955 795 
Q 1044 706 1044 575 
Q 1044 450 953 359 
Q 863 269 738 269 
L 722 269 
z
M 1563 1556 
Q 1825 1556 1992 1732 
Q 2159 1909 2234 2171 
Q 2309 2434 2309 2694 
L 2309 2816 
L 2309 2841 
Q 2309 3322 2168 3700 
Q 2028 4078 1631 4078 
Q 1378 4078 1220 3967 
Q 1063 3856 988 3672 
Q 913 3488 892 3278 
Q 872 3069 872 2822 
Q 872 2459 906 2203 
Q 941 1947 1094 1751 
Q 1247 1556 1563 1556 
z
" transform="scale(0.015625)"/>
       </defs>
       <use xlink:href="#Cmr10-39" transform="translate(0 39.373438) scale(0.7)"/>
       <use xlink:href="#Cmmi10-bc" transform="translate(35 39.373438) scale(0.7)"/>
       <use xlink:href="#Cmr10-34" transform="translate(20 -40.045312) scale(0.7)"/>
       <path d="M 0 12.83125 
L 0 19.08125 
L 74.887695 19.08125 
L 74.887695 12.83125 
L 0 12.83125 
z
"/>
      </g>
     </g>
    </g>
   </g>
   <g id="matplotlib.axis_2">
    <g id="ytick_1">
     <g id="line2d_13">
      <defs>
       <path id="m087d13095e" d="M 0 0 
L -3.5 0 
" style="stroke: #000000; stroke-width: 0.8"/>
      </defs>
      <g>
       <use xlink:href="#m087d13095e" x="86.030769" y="293.815385" style="stroke: #000000; stroke-width: 0.8"/>
      </g>
     </g>
     <g id="text_12">
      <!-- $-1$ -->
      <g transform="translate(66.230769 297.614603) scale(0.1 -0.1)">
       <defs>
        <path id="Cmr10-31" d="M 594 0 
L 594 225 
Q 1394 225 1394 428 
L 1394 3788 
Q 1063 3628 556 3628 
L 556 3853 
Q 1341 3853 1741 4263 
L 1831 4263 
Q 1853 4263 1873 4245 
Q 1894 4228 1894 4206 
L 1894 428 
Q 1894 225 2694 225 
L 2694 0 
L 594 0 
z
" transform="scale(0.015625)"/>
       </defs>
       <use xlink:href="#Cmsy10-a1" transform="translate(0 0.390625)"/>
       <use xlink:href="#Cmr10-31" transform="translate(77.685547 0.390625)"/>
      </g>
     </g>
    </g>
    <g id="ytick_2">
     <g id="line2d_14">
      <g>
       <use xlink:href="#m087d13095e" x="86.030769" y="231.507692" style="stroke: #000000; stroke-width: 0.8"/>
      </g>
     </g>
     <g id="text_13">
      <!-- $-\frac{1}{2}$ -->
      <g transform="translate(66.430769 235.757692) scale(0.1 -0.1)">
       <use xlink:href="#Cmsy10-a1" transform="translate(0 0.873437)"/>
       <use xlink:href="#Cmr10-31" transform="translate(77.685547 38.373438) scale(0.7)"/>
       <use xlink:href="#Cmr10-32" transform="translate(77.685547 -39.503125) scale(0.7)"/>
       <path d="M 77.685547 13.373437 
L 77.685547 19.623437 
L 112.685547 19.623437 
L 112.685547 13.373437 
L 77.685547 13.373437 
z
"/>
      </g>
     </g>
    </g>
    <g id="ytick_3">
     <g id="line2d_15">
      <g>
       <use xlink:href="#m087d13095e" x="86.030769" y="106.892308" style="stroke: #000000; stroke-width: 0.8"/>
      </g>
     </g>
     <g id="text_14">
      <!-- $\frac{1}{2}$ -->
      <g transform="translate(74.230769 111.142308) scale(0.1 -0.1)">
       <use xlink:href="#Cmr10-31" transform="translate(0 38.373438) scale(0.7)"/>
       <use xlink:href="#Cmr10-32" transform="translate(0 -39.503125) scale(0.7)"/>
       <path d="M 0 13.373437 
L 0 19.623437 
L 35 19.623437 
L 35 13.373437 
L 0 13.373437 
z
"/>
      </g>
     </g>
    </g>
    <g id="ytick_4">
     <g id="line2d_16">
      <g>
       <use xlink:href="#m087d13095e" x="86.030769" y="44.584615" style="stroke: #000000; stroke-width: 0.8"/>
      </g>
     </g>
     <g id="text_15">
      <!-- $1$ -->
      <g transform="translate(74.030769 48.383834) scale(0.1 -0.1)">
       <use xlink:href="#Cmr10-31" transform="translate(0 0.390625)"/>
      </g>
     </g>
    </g>
   </g>
   <g id="line2d_17">
    <path d="M 15.646154 169.2 
L 26.385868 139.617126 
L 32.161707 124.301834 
L 37.381009 111.096231 
L 42.406684 99.122699 
L 46.524796 89.961446 
L 50.236991 82.274324 
L 54.181049 74.761501 
L 55.486903 72.432477 
L 58.392167 67.548461 
L 62.167144 61.843367 
L 65.101751 57.932538 
L 68.080949 54.450377 
L 70.886102 51.634908 
L 73.925459 49.104577 
L 76.611091 47.328072 
L 79.00308 46.114154 
L 81.779877 45.144967 
L 82.993711 44.870747 
L 85.333943 44.599684 
L 87.969159 44.7012 
L 89.802952 45.025937 
L 91.418005 45.484185 
L 93.033057 46.10314 
L 95.226346 47.19954 
L 97.722859 48.802985 
L 99.91135 50.516128 
L 101.523422 51.959354 
L 103.135493 53.554315 
L 104.861686 55.428066 
L 107.340977 58.413909 
L 110.648893 62.92396 
L 113.069857 66.593149 
L 116.563892 72.413655 
L 119.573894 77.90087 
L 123.017634 84.682369 
L 126.237755 91.475762 
L 131.180138 102.670279 
L 135.702844 113.626303 
L 142.184052 130.28355 
L 149.684485 150.551135 
L 170.266822 207.111385 
L 176.371963 222.884125 
L 180.794321 233.704021 
L 186.088536 245.822678 
L 189.840532 253.773606 
L 192.97684 259.967291 
L 196.834921 266.973634 
L 200.030226 272.230026 
L 202.81669 276.387243 
L 205.131653 279.526523 
L 208.091254 283.110133 
L 211.260374 286.396307 
L 213.909648 288.694343 
L 215.638257 289.969085 
L 218.833801 291.851192 
L 220.388803 292.54199 
L 221.943806 293.084257 
L 223.892533 293.553142 
L 226.097595 293.800074 
L 229.415948 293.603079 
L 230.962413 293.278101 
L 233.470106 292.437257 
L 234.942155 291.763706 
L 237.842401 290.05048 
L 239.270598 289.02031 
L 241.01298 287.5988 
L 244.822469 283.870683 
L 248.396791 279.618908 
L 250.78939 276.378618 
L 253.553135 272.256049 
L 256.995695 266.574698 
L 260.584976 260.04002 
L 264.221906 252.824576 
L 267.335778 246.20741 
L 269.878113 240.527629 
L 274.92275 228.59631 
L 280.072769 215.641109 
L 286.265588 199.267064 
L 295.366148 174.255918 
L 307.151907 141.708181 
L 312.09812 128.485839 
L 316.520368 117.079115 
L 320.932594 106.203698 
L 326.192036 94.045827 
L 328.942185 88.090245 
L 333.159004 79.559136 
L 337.273979 71.99832 
L 341.34442 65.325067 
L 344.845659 60.26842 
L 345.773545 59.038581 
L 349.610779 54.45974 
L 352.752717 51.335447 
L 354.38274 49.941938 
L 356.012764 48.70623 
L 357.567611 47.676069 
L 359.71067 46.496222 
L 362.254834 45.460052 
L 364.897292 44.806103 
L 367.233718 44.588109 
L 369.219007 44.669071 
L 371.936522 45.17605 
L 373.520924 45.682277 
L 375.792842 46.677434 
L 377.62248 47.707934 
L 379.648916 49.085577 
L 381.558765 50.60885 
L 384.170907 53.040441 
L 386.636146 55.697423 
L 389.619305 59.371074 
L 393.326379 64.612252 
L 397.564051 71.47767 
L 401.196268 78.059862 
L 403.627486 82.802869 
L 407.439298 90.745559 
L 411.557929 99.963501 
L 416.639141 112.132452 
L 421.872467 125.4303 
L 427.027915 139.114302 
L 435.882818 163.442351 
L 437.953846 169.2 
L 437.953846 169.2 
" clip-path="url(#p87f57bc0c0)" style="fill: none; stroke: #0000ff; stroke-linecap: square"/>
   </g>
   <g id="patch_3">
    <path d="M 86.030769 331.2 
L 86.030769 7.2 
" style="fill: none; stroke: #000000; stroke-width: 0.8; stroke-linejoin: miter; stroke-linecap: square"/>
   </g>
   <g id="patch_4">
    <path d="M 7.2 169.2 
L 446.4 169.2 
" style="fill: none; stroke: #000000; stroke-width: 0.8; stroke-linejoin: miter; stroke-linecap: square"/>
   </g>
  </g>
 </g>
 <defs>
  <clipPath id="p87f57bc0c0">
   <rect x="7.2" y="7.2" width="439.2" height="324"/>
  </clipPath>
 </defs>
</svg>
