<?xml version="1.0" encoding="utf-8" standalone="no"?>
<!DOCTYPE svg PUBLIC "-//W3C//DTD SVG 1.1//EN"
  "http://www.w3.org/Graphics/SVG/1.1/DTD/svg11.dtd">
<svg xmlns:xlink="http://www.w3.org/1999/xlink" width="341.143207pt" height="334.558928pt" viewBox="0 0 341.143207 334.558928" xmlns="http://www.w3.org/2000/svg" version="1.1">
 <metadata>
  <rdf:RDF xmlns:dc="http://purl.org/dc/elements/1.1/" xmlns:cc="http://creativecommons.org/ns#" xmlns:rdf="http://www.w3.org/1999/02/22-rdf-syntax-ns#">
   <cc:Work>
    <dc:type rdf:resource="http://purl.org/dc/dcmitype/StillImage"/>
    <dc:date>2026-02-28T07:54:11.883452</dc:date>
    <dc:format>image/svg+xml</dc:format>
    <dc:creator>
     <cc:Agent>
      <dc:title>Matplotlib v3.8.0, https://matplotlib.org/</dc:title>
     </cc:Agent>
    </dc:creator>
   </cc:Work>
  </rdf:RDF>
 </metadata>
 <defs>
  <style type="text/css">*{stroke-linejoin: round; stroke-linecap: butt}</style>
 </defs>
 <g id="figure_1">
  <g id="patch_1">
   <path d="M 0 334.558928 
L 341.143207 334.558928 
L 341.143207 0 
L 0 0 
z
" style="fill: #ffffff"/>
  </g>
  <g id="axes_1">
   <g id="patch_2">
    <path d="M 13.229399 327.358928 
L 332.113497 327.358928 
L 332.113497 8.444493 
L 13.229399 8.444493 
z
" style="fill: #ffffff"/>
   </g>
   <g id="PathCollection_1">
    <path d="M 96.003966 38.653051 
C 96.9416 38.653051 97.840958 38.280525 98.503966 37.617517 
C 99.166974 36.95451 99.5395 36.055152 99.5395 35.117517 
C 99.5395 34.179883 99.166974 33.280525 98.503966 32.617517 
C 97.840958 31.95451 96.9416 31.581983 96.003966 31.581983 
C 95.066331 31.581983 94.166974 31.95451 93.503966 32.617517 
C 92.840958 33.280525 92.468432 34.179883 92.468432 35.117517 
C 92.468432 36.055152 92.840958 36.95451 93.503966 37.617517 
C 94.166974 38.280525 95.066331 38.653051 96.003966 38.653051 
z
" clip-path="url(#p27334f38d0)" style="fill: #0000ff"/>
   </g>
   <g id="matplotlib.axis_1">
    <g id="xtick_1">
     <g id="line2d_1">
      <defs>
       <path id="mb229e2e3a5" d="M 0 0 
L 0 3.5 
" style="stroke: #000000; stroke-width: 0.8"/>
      </defs>
      <g>
       <use xlink:href="#mb229e2e3a5" x="19.341406" y="167.900966" style="stroke: #000000; stroke-width: 0.8"/>
      </g>
     </g>
     <g id="text_1">
      <!-- −1.0 -->
      <g transform="translate(7.2 182.499403) scale(0.1 -0.1)">
       <defs>
        <path id="DejaVuSans-2212" d="M 678 2272 
L 4684 2272 
L 4684 1741 
L 678 1741 
L 678 2272 
z
" transform="scale(0.015625)"/>
        <path id="DejaVuSans-31" d="M 794 531 
L 1825 531 
L 1825 4091 
L 703 3866 
L 703 4441 
L 1819 4666 
L 2450 4666 
L 2450 531 
L 3481 531 
L 3481 0 
L 794 0 
L 794 531 
z
" transform="scale(0.015625)"/>
        <path id="DejaVuSans-2e" d="M 684 794 
L 1344 794 
L 1344 0 
L 684 0 
L 684 794 
z
" transform="scale(0.015625)"/>
        <path id="DejaVuSans-30" d="M 2034 4250 
Q 1547 4250 1301 3770 
Q 1056 3291 1056 2328 
Q 1056 1369 1301 889 
Q 1547 409 2034 409 
Q 2525 409 2770 889 
Q 3016 1369 3016 2328 
Q 3016 3291 2770 3770 
Q 2525 4250 2034 4250 
z
M 2034 4750 
Q 2819 4750 3233 4129 
Q 3647 3509 3647 2328 
Q 3647 1150 3233 529 
Q 2819 -91 2034 -91 
Q 1250 -91 836 529 
Q 422 1150 422 2328 
Q 422 3509 836 4129 
Q 1250 4750 2034 4750 
z
" transform="scale(0.015625)"/>
       </defs>
       <use xlink:href="#DejaVuSans-2212"/>
       <use xlink:href="#DejaVuSans-31" x="83.789062"/>
       <use xlink:href="#DejaVuSans-2e" x="147.412109"/>
       <use xlink:href="#DejaVuSans-30" x="179.199219"/>
      </g>
     </g>
    </g>
    <g id="xtick_2">
     <g id="line2d_2">
      <g>
       <use xlink:href="#mb229e2e3a5" x="96.003966" y="167.900966" style="stroke: #000000; stroke-width: 0.8"/>
      </g>
     </g>
     <g id="text_2">
      <!-- −0.5 -->
      <g transform="translate(83.86256 182.499403) scale(0.1 -0.1)">
       <defs>
        <path id="DejaVuSans-35" d="M 691 4666 
L 3169 4666 
L 3169 4134 
L 1269 4134 
L 1269 2991 
Q 1406 3038 1543 3061 
Q 1681 3084 1819 3084 
Q 2600 3084 3056 2656 
Q 3513 2228 3513 1497 
Q 3513 744 3044 326 
Q 2575 -91 1722 -91 
Q 1428 -91 1123 -41 
Q 819 9 494 109 
L 494 744 
Q 775 591 1075 516 
Q 1375 441 1709 441 
Q 2250 441 2565 725 
Q 2881 1009 2881 1497 
Q 2881 1984 2565 2268 
Q 2250 2553 1709 2553 
Q 1456 2553 1204 2497 
Q 953 2441 691 2322 
L 691 4666 
z
" transform="scale(0.015625)"/>
       </defs>
       <use xlink:href="#DejaVuSans-2212"/>
       <use xlink:href="#DejaVuSans-30" x="83.789062"/>
       <use xlink:href="#DejaVuSans-2e" x="147.412109"/>
       <use xlink:href="#DejaVuSans-35" x="179.199219"/>
      </g>
     </g>
    </g>
    <g id="xtick_3">
     <g id="line2d_3">
      <g>
       <use xlink:href="#mb229e2e3a5" x="249.329085" y="167.900966" style="stroke: #000000; stroke-width: 0.8"/>
      </g>
     </g>
     <g id="text_3">
      <!-- 0.5 -->
      <g transform="translate(241.377523 182.499403) scale(0.1 -0.1)">
       <use xlink:href="#DejaVuSans-30"/>
       <use xlink:href="#DejaVuSans-2e" x="63.623047"/>
       <use xlink:href="#DejaVuSans-35" x="95.410156"/>
      </g>
     </g>
    </g>
    <g id="xtick_4">
     <g id="line2d_4">
      <g>
       <use xlink:href="#mb229e2e3a5" x="325.991645" y="167.900966" style="stroke: #000000; stroke-width: 0.8"/>
      </g>
     </g>
     <g id="text_4">
      <!-- 1.0 -->
      <g transform="translate(318.040082 182.499403) scale(0.1 -0.1)">
       <use xlink:href="#DejaVuSans-31"/>
       <use xlink:href="#DejaVuSans-2e" x="63.623047"/>
       <use xlink:href="#DejaVuSans-30" x="95.410156"/>
      </g>
     </g>
    </g>
   </g>
   <g id="matplotlib.axis_2">
    <g id="ytick_1">
     <g id="line2d_5">
      <defs>
       <path id="mc3552143f9" d="M 0 0 
L -3.5 0 
" style="stroke: #000000; stroke-width: 0.8"/>
      </defs>
      <g>
       <use xlink:href="#mc3552143f9" x="172.666526" y="321.226085" style="stroke: #000000; stroke-width: 0.8"/>
      </g>
     </g>
     <g id="text_5">
      <!-- −1.0 -->
      <g transform="translate(141.383713 325.025304) scale(0.1 -0.1)">
       <use xlink:href="#DejaVuSans-2212"/>
       <use xlink:href="#DejaVuSans-31" x="83.789062"/>
       <use xlink:href="#DejaVuSans-2e" x="147.412109"/>
       <use xlink:href="#DejaVuSans-30" x="179.199219"/>
      </g>
     </g>
    </g>
    <g id="ytick_2">
     <g id="line2d_6">
      <g>
       <use xlink:href="#mc3552143f9" x="172.666526" y="244.563525" style="stroke: #000000; stroke-width: 0.8"/>
      </g>
     </g>
     <g id="text_6">
      <!-- −0.5 -->
      <g transform="translate(141.383713 248.362744) scale(0.1 -0.1)">
       <use xlink:href="#DejaVuSans-2212"/>
       <use xlink:href="#DejaVuSans-30" x="83.789062"/>
       <use xlink:href="#DejaVuSans-2e" x="147.412109"/>
       <use xlink:href="#DejaVuSans-35" x="179.199219"/>
      </g>
     </g>
    </g>
    <g id="ytick_3">
     <g id="line2d_7">
      <g>
       <use xlink:href="#mc3552143f9" x="172.666526" y="91.238406" style="stroke: #000000; stroke-width: 0.8"/>
      </g>
     </g>
     <g id="text_7">
      <!-- 0.5 -->
      <g transform="translate(149.763401 95.037625) scale(0.1 -0.1)">
       <use xlink:href="#DejaVuSans-30"/>
       <use xlink:href="#DejaVuSans-2e" x="63.623047"/>
       <use xlink:href="#DejaVuSans-35" x="95.410156"/>
      </g>
     </g>
    </g>
    <g id="ytick_4">
     <g id="line2d_8">
      <g>
       <use xlink:href="#mc3552143f9" x="172.666526" y="14.575846" style="stroke: #000000; stroke-width: 0.8"/>
      </g>
     </g>
     <g id="text_8">
      <!-- 1.0 -->
      <g transform="translate(149.763401 18.375065) scale(0.1 -0.1)">
       <use xlink:href="#DejaVuSans-31"/>
       <use xlink:href="#DejaVuSans-2e" x="63.623047"/>
       <use xlink:href="#DejaVuSans-30" x="95.410156"/>
      </g>
     </g>
    </g>
   </g>
   <g id="line2d_9">
    <path d="M 325.151714 183.927805 
L 325.53308 179.750381 
L 325.953669 171.31329 
L 325.981111 166.103674 
L 325.712475 158.652751 
L 325.421169 154.686915 
L 324.98809 150.387163 
L 324.236193 144.765967 
L 323.582145 140.825738 
L 322.787579 136.719857 
L 320.935029 128.849166 
L 319.734885 124.547883 
L 317.164972 116.629226 
L 315.683796 112.632053 
L 312.710563 105.480939 
L 310.207934 100.144392 
L 306.812177 93.647774 
L 303.133048 87.358561 
L 299.348966 81.528797 
L 295.231988 75.779851 
L 290.341296 69.609356 
L 287.174048 65.937151 
L 282.421309 60.837995 
L 279.136204 57.570553 
L 276.240526 54.847799 
L 271.886268 51.007702 
L 264.184331 44.884367 
L 256.293722 39.389938 
L 250.030904 35.525193 
L 245.115366 32.772294 
L 237.844939 29.119243 
L 229.76194 25.603018 
L 220.959074 22.379758 
L 211.237229 19.506582 
L 205.45292 18.122314 
L 200.359196 17.097424 
L 195.266522 16.250603 
L 189.216745 15.471695 
L 184.101607 15.002859 
L 178.767266 14.697267 
L 173.370539 14.577463 
L 168.762376 14.62556 
L 161.216099 15.004007 
L 154.751782 15.626036 
L 149.918732 16.272703 
L 141.477033 17.781654 
L 136.083125 19.004199 
L 127.423948 21.402838 
L 118.26572 24.551238 
L 115.513392 25.626191 
L 111.307774 27.388704 
L 106.484197 29.595175 
L 99.02175 33.420338 
L 89.9491 38.802477 
L 84.12327 42.726351 
L 78.982822 46.525697 
L 73.758572 50.743768 
L 70.592451 53.49172 
L 65.420405 58.325139 
L 58.945592 65.060597 
L 53.091262 71.930405 
L 49.418467 76.695109 
L 47.007023 80.047215 
L 43.671655 85.022044 
L 38.908088 92.9525 
L 34.270923 101.906653 
L 30.162391 111.322138 
L 28.274508 116.330263 
L 25.612806 124.49825 
L 24.334928 129.089505 
L 22.581223 136.548226 
L 21.95044 139.736205 
L 20.793809 146.846982 
L 20.211438 151.590277 
L 19.632229 158.46189 
L 19.361786 165.401182 
L 19.42397 172.931997 
L 19.845563 180.324554 
L 20.528537 186.943675 
L 21.538664 193.765258 
L 22.679956 199.722676 
L 23.567175 203.649752 
L 25.006273 209.19312 
L 27.433099 217.052203 
L 28.973447 221.388266 
L 31.740855 228.304174 
L 33.463874 232.175486 
L 36.189332 237.77634 
L 39.283156 243.514913 
L 43.576526 250.631639 
L 45.226196 253.150919 
L 47.957963 257.099433 
L 50.729821 260.852739 
L 55.611718 266.930074 
L 59.157333 270.974995 
L 65.025744 277.089126 
L 67.920508 279.869104 
L 73.926624 285.199832 
L 77.859544 288.400876 
L 83.074092 292.326799 
L 87.580869 295.451047 
L 91.642133 298.068704 
L 99.001102 302.370284 
L 103.634811 304.806826 
L 108.950776 307.360263 
L 115.810214 310.294618 
L 123.519189 313.135712 
L 131.997385 315.734024 
L 137.339091 317.100713 
L 143.696893 318.464416 
L 154.173779 320.106782 
L 160.150449 320.714381 
L 164.762683 321.02223 
L 172.863679 321.225958 
L 178.808743 321.103007 
L 184.596175 320.76128 
L 193.499585 319.804145 
L 201.544137 318.482093 
L 205.413935 317.688146 
L 211.386693 316.25642 
L 219.357451 313.943938 
L 222.784717 312.80355 
L 230.126219 310.052208 
L 235.624007 307.704212 
L 242.709069 304.29244 
L 249.931253 300.334927 
L 258.171315 295.170456 
L 262.844781 291.902879 
L 269.234829 286.994017 
L 275.561092 281.572864 
L 280.383649 277.013813 
L 285.64669 271.554594 
L 289.018416 267.755008 
L 294.271407 261.28643 
L 299.814258 253.586707 
L 302.260911 249.83928 
L 304.904844 245.50006 
L 307.564416 240.778612 
L 309.663131 236.752417 
L 311.641712 232.665846 
L 313.8816 227.624453 
L 316.038235 222.243814 
L 318.312116 215.817083 
L 320.260215 209.430413 
L 321.600542 204.33242 
L 322.928777 198.394376 
L 324.246503 190.968315 
L 324.723442 187.580557 
L 325.701044 177.336456 
L 325.978739 169.890268 
L 325.906396 162.78879 
L 325.474338 155.316657 
L 325.151714 151.874127 
L 325.151714 151.874127 
" clip-path="url(#p27334f38d0)" style="fill: none; stroke: #0000ff; stroke-linecap: square"/>
   </g>
   <g id="line2d_10">
    <path d="M 172.666526 167.900966 
L 96.003966 35.117517 
" clip-path="url(#p27334f38d0)" style="fill: none; stroke: #0000ff; stroke-linecap: square"/>
   </g>
   <g id="line2d_11">
    <path d="M 184.16591 167.900966 
L 184.244933 166.330123 
L 184.093428 164.653128 
L 183.681436 162.940943 
L 183.186306 161.653664 
L 182.241735 159.941662 
L 181.289156 158.68146 
L 180.266696 157.624675 
L 179.216045 156.756906 
L 177.295975 155.579802 
L 175.851526 154.963037 
L 174.079077 154.463247 
L 172.416861 154.222674 
L 170.569907 154.196517 
L 168.976266 154.374212 
L 166.844673 154.912116 
L 165.448831 155.466526 
L 163.919582 156.28443 
L 162.259221 157.473703 
L 160.989293 158.658045 
L 159.787277 160.089009 
L 158.729616 161.735127 
L 157.887034 163.51738 
L 157.314431 165.259162 
L 156.905291 167.409754 
L 156.796519 169.430048 
L 156.911921 171.189115 
L 157.233083 172.981527 
L 157.685019 174.532651 
L 158.408169 176.286485 
L 159.511592 178.229765 
L 160.442462 179.503884 
L 161.960121 181.150917 
L 163.52399 182.468083 
L 165.253894 183.601372 
L 167.006129 184.477272 
L 168.787542 185.133671 
L 170.935798 185.651159 
L 172.494106 185.854743 
L 174.695517 185.908817 
L 176.778532 185.711688 
L 178.866941 185.265723 
L 180.922376 184.567326 
L 182.956421 183.592492 
L 184.73814 182.46654 
L 186.093234 181.403585 
L 187.479391 180.083717 
L 189.052258 178.200116 
L 190.228503 176.389616 
L 191.309908 174.194611 
L 191.962925 172.384907 
L 192.448964 170.460362 
L 192.75683 168.326972 
L 192.833577 166.156425 
L 192.703472 164.210817 
L 192.291728 161.860481 
L 191.818861 160.180455 
L 191.079309 158.255279 
L 190.161366 156.4292 
L 189.136113 154.797348 
L 187.919647 153.211816 
L 186.339328 151.536498 
L 184.899284 150.284781 
L 182.664006 148.731099 
L 180.484613 147.576806 
L 178.086712 146.643745 
L 175.240428 145.931255 
L 173.092229 145.651241 
L 170.406442 145.596508 
L 168.442512 145.761482 
L 165.670158 146.295607 
L 164.158532 146.742629 
L 161.931057 147.618633 
L 161.167142 147.983448 
L 161.167142 147.983448 
" clip-path="url(#p27334f38d0)" style="fill: none; stroke: #ff0000; stroke-linecap: square"/>
   </g>
   <g id="line2d_12">
    <path d="M 218.664061 167.900966 
L 218.553833 164.718469 
L 218.195807 161.354379 
L 217.634939 158.225475 
L 216.776214 154.858393 
L 215.753746 151.799266 
L 214.402554 148.565061 
L 212.944147 145.686409 
L 211.459824 143.185519 
L 209.604059 140.489437 
L 207.408374 137.755033 
L 205.092594 135.276996 
L 202.781132 133.131959 
L 200.216521 131.066592 
L 197.414907 129.12867 
L 194.683439 127.514968 
L 192.161288 126.238902 
L 189.054078 124.921652 
L 185.964591 123.867629 
L 182.796094 123.032657 
L 179.591627 122.427718 
L 176.831258 122.092361 
L 173.74257 121.916018 
L 171.021357 121.93286 
L 167.55692 122.188109 
L 164.772786 122.585823 
L 161.47226 123.286375 
L 158.678826 124.08182 
L 155.512826 125.221651 
L 152.234409 126.690507 
L 149.667758 128.065931 
L 149.667758 128.065931 
" clip-path="url(#p27334f38d0)" style="fill: none; stroke: #008000; stroke-linecap: square"/>
   </g>
   <g id="patch_3">
    <path d="M 172.666526 327.358928 
L 172.666526 8.444493 
" style="fill: none; stroke: #000000; stroke-width: 0.8; stroke-linejoin: miter; stroke-linecap: square"/>
   </g>
   <g id="patch_4">
    <path d="M 13.229399 167.900966 
L 332.113497 167.900966 
" style="fill: none; stroke: #000000; stroke-width: 0.8; stroke-linejoin: miter; stroke-linecap: square"/>
   </g>
   <g id="text_9">
    <!-- $P=(x,y)$ -->
    <g transform="translate(52.024582 19.2) scale(0.16 -0.16)">
     <defs>
      <path id="Cmmi10-50" d="M 313 0 
Q 250 0 250 84 
Q 253 100 262 139 
Q 272 178 289 201 
Q 306 225 331 225 
Q 722 225 878 269 
Q 959 297 997 441 
L 1875 3956 
Q 1888 4019 1888 4044 
Q 1888 4113 1813 4122 
Q 1691 4147 1350 4147 
Q 1288 4147 1288 4231 
Q 1291 4247 1300 4286 
Q 1309 4325 1326 4348 
Q 1344 4372 1369 4372 
L 3578 4372 
Q 3881 4372 4165 4264 
Q 4450 4156 4631 3934 
Q 4813 3713 4813 3397 
Q 4813 2991 4527 2672 
Q 4241 2353 3814 2175 
Q 3388 1997 2988 1997 
L 1947 1997 
L 1556 416 
Q 1544 353 1544 325 
Q 1544 300 1551 283 
Q 1559 266 1573 261 
Q 1588 256 1619 250 
Q 1741 225 2081 225 
Q 2144 225 2144 141 
Q 2122 50 2109 25 
Q 2097 0 2034 0 
L 313 0 
z
M 1978 2188 
L 2875 2188 
Q 3497 2188 3822 2522 
Q 3988 2688 4092 3000 
Q 4197 3313 4197 3566 
Q 4197 3881 3956 4014 
Q 3716 4147 3359 4147 
L 2747 4147 
Q 2572 4147 2515 4117 
Q 2459 4088 2413 3928 
L 1978 2188 
z
" transform="scale(0.015625)"/>
      <path id="Cmr10-3d" d="M 481 850 
Q 428 850 393 890 
Q 359 931 359 978 
Q 359 1031 393 1068 
Q 428 1106 481 1106 
L 4500 1106 
Q 4547 1106 4581 1068 
Q 4616 1031 4616 978 
Q 4616 931 4581 890 
Q 4547 850 4500 850 
L 481 850 
z
M 481 2094 
Q 428 2094 393 2131 
Q 359 2169 359 2222 
Q 359 2269 393 2309 
Q 428 2350 481 2350 
L 4500 2350 
Q 4547 2350 4581 2309 
Q 4616 2269 4616 2222 
Q 4616 2169 4581 2131 
Q 4547 2094 4500 2094 
L 481 2094 
z
" transform="scale(0.015625)"/>
      <path id="Cmr10-28" d="M 1984 -1588 
Q 1628 -1306 1370 -942 
Q 1113 -578 948 -165 
Q 784 247 703 697 
Q 622 1147 622 1600 
Q 622 2059 703 2509 
Q 784 2959 951 3375 
Q 1119 3791 1378 4153 
Q 1638 4516 1984 4788 
Q 1984 4800 2016 4800 
L 2075 4800 
Q 2094 4800 2109 4783 
Q 2125 4766 2125 4744 
Q 2125 4716 2113 4703 
Q 1800 4397 1592 4047 
Q 1384 3697 1257 3301 
Q 1131 2906 1075 2482 
Q 1019 2059 1019 1600 
Q 1019 -434 2106 -1491 
Q 2125 -1509 2125 -1544 
Q 2125 -1559 2108 -1579 
Q 2091 -1600 2075 -1600 
L 2016 -1600 
Q 1984 -1600 1984 -1588 
z
" transform="scale(0.015625)"/>
      <path id="Cmmi10-78" d="M 500 184 
Q 613 97 819 97 
Q 1019 97 1172 289 
Q 1325 481 1381 709 
L 1672 1844 
Q 1741 2153 1741 2266 
Q 1741 2425 1652 2544 
Q 1563 2663 1403 2663 
Q 1200 2663 1022 2536 
Q 844 2409 722 2214 
Q 600 2019 550 1819 
Q 538 1778 500 1778 
L 422 1778 
Q 372 1778 372 1838 
L 372 1856 
Q 434 2094 584 2320 
Q 734 2547 951 2687 
Q 1169 2828 1416 2828 
Q 1650 2828 1839 2703 
Q 2028 2578 2106 2363 
Q 2216 2559 2386 2693 
Q 2556 2828 2759 2828 
Q 2897 2828 3040 2779 
Q 3184 2731 3275 2631 
Q 3366 2531 3366 2381 
Q 3366 2219 3261 2101 
Q 3156 1984 2994 1984 
Q 2891 1984 2822 2050 
Q 2753 2116 2753 2216 
Q 2753 2350 2845 2451 
Q 2938 2553 3066 2572 
Q 2950 2663 2747 2663 
Q 2541 2663 2389 2472 
Q 2238 2281 2175 2047 
L 1894 916 
Q 1825 659 1825 494 
Q 1825 331 1917 214 
Q 2009 97 2163 97 
Q 2463 97 2698 361 
Q 2934 625 3009 941 
Q 3022 978 3059 978 
L 3138 978 
Q 3163 978 3178 961 
Q 3194 944 3194 922 
Q 3194 916 3188 903 
Q 3097 522 2806 225 
Q 2516 -72 2150 -72 
Q 1916 -72 1727 54 
Q 1538 181 1459 397 
Q 1359 209 1182 68 
Q 1006 -72 806 -72 
Q 669 -72 523 -23 
Q 378 25 287 125 
Q 197 225 197 378 
Q 197 528 301 651 
Q 406 775 563 775 
Q 669 775 741 711 
Q 813 647 813 544 
Q 813 409 723 309 
Q 634 209 500 184 
z
" transform="scale(0.015625)"/>
      <path id="Cmmi10-3b" d="M 634 -1153 
Q 634 -1125 659 -1100 
Q 891 -878 1019 -587 
Q 1147 -297 1147 25 
L 1147 103 
Q 1044 0 891 0 
Q 744 0 641 103 
Q 538 206 538 353 
Q 538 503 641 603 
Q 744 703 891 703 
Q 1119 703 1216 492 
Q 1313 281 1313 25 
Q 1313 -331 1170 -651 
Q 1028 -972 769 -1228 
Q 744 -1241 728 -1241 
Q 697 -1241 665 -1212 
Q 634 -1184 634 -1153 
z
" transform="scale(0.015625)"/>
      <path id="Cmmi10-79" d="M 538 -916 
Q 672 -1147 1006 -1147 
Q 1309 -1147 1531 -934 
Q 1753 -722 1889 -420 
Q 2025 -119 2100 197 
Q 1816 -72 1484 -72 
Q 1231 -72 1053 15 
Q 875 103 776 276 
Q 678 450 678 697 
Q 678 906 734 1126 
Q 791 1347 892 1617 
Q 994 1888 1069 2088 
Q 1153 2322 1153 2472 
Q 1153 2663 1013 2663 
Q 759 2663 595 2402 
Q 431 2141 353 1819 
Q 341 1778 300 1778 
L 225 1778 
Q 172 1778 172 1838 
L 172 1856 
Q 275 2238 487 2533 
Q 700 2828 1025 2828 
Q 1253 2828 1411 2678 
Q 1569 2528 1569 2297 
Q 1569 2178 1516 2047 
Q 1488 1969 1388 1706 
Q 1288 1444 1234 1272 
Q 1181 1100 1147 934 
Q 1113 769 1113 603 
Q 1113 391 1203 244 
Q 1294 97 1491 97 
Q 1888 97 2203 581 
L 2688 2553 
Q 2709 2638 2787 2698 
Q 2866 2759 2956 2759 
Q 3034 2759 3092 2709 
Q 3150 2659 3150 2578 
Q 3150 2541 3144 2528 
L 2509 -19 
Q 2425 -347 2200 -647 
Q 1975 -947 1658 -1130 
Q 1341 -1313 997 -1313 
Q 831 -1313 668 -1248 
Q 506 -1184 406 -1056 
Q 306 -928 306 -756 
Q 306 -581 409 -453 
Q 513 -325 684 -325 
Q 788 -325 858 -389 
Q 928 -453 928 -556 
Q 928 -703 818 -812 
Q 709 -922 563 -922 
Q 556 -919 550 -917 
Q 544 -916 538 -916 
z
" transform="scale(0.015625)"/>
      <path id="Cmr10-29" d="M 416 -1600 
Q 359 -1600 359 -1544 
Q 359 -1516 372 -1503 
Q 1466 -434 1466 1600 
Q 1466 3634 384 4691 
Q 359 4706 359 4744 
Q 359 4766 376 4783 
Q 394 4800 416 4800 
L 475 4800 
Q 494 4800 506 4788 
Q 966 4425 1272 3906 
Q 1578 3388 1720 2800 
Q 1863 2213 1863 1600 
Q 1863 1147 1786 708 
Q 1709 269 1542 -157 
Q 1375 -584 1119 -945 
Q 863 -1306 506 -1588 
Q 494 -1600 475 -1600 
L 416 -1600 
z
" transform="scale(0.015625)"/>
     </defs>
     <use xlink:href="#Cmmi10-50"/>
     <use xlink:href="#Cmr10-3d" transform="translate(81.767578 0)"/>
     <use xlink:href="#Cmr10-28" transform="translate(177.011719 0)"/>
     <use xlink:href="#Cmmi10-78" transform="translate(215.830078 0)"/>
     <use xlink:href="#Cmmi10-3b" transform="translate(272.910156 0)"/>
     <use xlink:href="#Cmmi10-79" transform="translate(318.154297 0)"/>
     <use xlink:href="#Cmr10-29" transform="translate(367.177734 0)"/>
    </g>
   </g>
   <g id="text_10">
    <!-- $\frac{16\pi}{6}$ -->
    <g transform="translate(189.383215 156.088454) scale(0.16 -0.16)">
     <defs>
      <path id="Cmr10-31" d="M 594 0 
L 594 225 
Q 1394 225 1394 428 
L 1394 3788 
Q 1063 3628 556 3628 
L 556 3853 
Q 1341 3853 1741 4263 
L 1831 4263 
Q 1853 4263 1873 4245 
Q 1894 4228 1894 4206 
L 1894 428 
Q 1894 225 2694 225 
L 2694 0 
L 594 0 
z
" transform="scale(0.015625)"/>
      <path id="Cmr10-36" d="M 1600 -141 
Q 1203 -141 937 70 
Q 672 281 526 617 
Q 381 953 325 1322 
Q 269 1691 269 2069 
Q 269 2575 466 3084 
Q 663 3594 1045 3928 
Q 1428 4263 1953 4263 
Q 2172 4263 2361 4180 
Q 2550 4097 2658 3936 
Q 2766 3775 2766 3547 
Q 2766 3416 2677 3327 
Q 2588 3238 2456 3238 
Q 2331 3238 2240 3328 
Q 2150 3419 2150 3547 
Q 2150 3672 2240 3762 
Q 2331 3853 2456 3853 
L 2491 3853 
Q 2409 3969 2261 4023 
Q 2113 4078 1953 4078 
Q 1759 4078 1595 3993 
Q 1431 3909 1300 3765 
Q 1169 3622 1081 3448 
Q 994 3275 945 3053 
Q 897 2831 884 2637 
Q 872 2444 872 2150 
Q 984 2413 1190 2580 
Q 1397 2747 1656 2747 
Q 1941 2747 2175 2631 
Q 2409 2516 2578 2311 
Q 2747 2106 2836 1843 
Q 2925 1581 2925 1313 
Q 2925 938 2758 598 
Q 2591 259 2287 59 
Q 1984 -141 1600 -141 
z
M 1600 63 
Q 1847 63 1997 175 
Q 2147 288 2217 473 
Q 2288 659 2305 848 
Q 2322 1038 2322 1313 
Q 2322 1675 2287 1931 
Q 2253 2188 2100 2383 
Q 1947 2578 1631 2578 
Q 1372 2578 1205 2403 
Q 1038 2228 961 1961 
Q 884 1694 884 1447 
Q 884 1363 891 1319 
Q 891 1309 889 1303 
Q 888 1297 884 1288 
Q 884 1013 940 731 
Q 997 450 1156 256 
Q 1316 63 1600 63 
z
" transform="scale(0.015625)"/>
      <path id="Cmmi10-bc" d="M 647 109 
Q 647 144 672 213 
Q 850 584 1004 942 
Q 1159 1300 1282 1639 
Q 1406 1978 1509 2363 
L 1100 2363 
Q 866 2363 662 2216 
Q 459 2069 325 1844 
Q 313 1819 288 1819 
L 213 1819 
Q 153 1819 153 1881 
Q 153 1894 166 1919 
Q 375 2275 614 2517 
Q 853 2759 1153 2759 
L 3475 2759 
Q 3541 2759 3587 2715 
Q 3634 2672 3634 2597 
Q 3634 2503 3567 2433 
Q 3500 2363 3406 2363 
L 2591 2363 
Q 2488 1859 2478 1381 
Q 2478 766 2694 269 
Q 2713 231 2713 191 
Q 2713 122 2672 62 
Q 2631 3 2567 -34 
Q 2503 -72 2431 -72 
Q 2263 -72 2200 203 
Q 2138 478 2138 738 
Q 2138 1103 2200 1442 
Q 2263 1781 2400 2363 
L 1703 2363 
Q 1197 313 1094 103 
Q 1003 -72 844 -72 
Q 766 -72 706 -20 
Q 647 31 647 109 
z
" transform="scale(0.015625)"/>
     </defs>
     <use xlink:href="#Cmr10-31" transform="translate(0 39.373438) scale(0.7)"/>
     <use xlink:href="#Cmr10-36" transform="translate(35 39.373438) scale(0.7)"/>
     <use xlink:href="#Cmmi10-bc" transform="translate(70 39.373438) scale(0.7)"/>
     <use xlink:href="#Cmr10-36" transform="translate(37 -40.045312) scale(0.7)"/>
     <path d="M 0 12.83125 
L 0 19.08125 
L 109.887695 19.08125 
L 109.887695 12.83125 
L 0 12.83125 
z
"/>
    </g>
   </g>
   <g id="text_11">
    <!-- $\frac{2\pi}{3}$ -->
    <g transform="translate(196.291549 118.227586) scale(0.16 -0.16)">
     <defs>
      <path id="Cmr10-32" d="M 319 0 
L 319 172 
Q 319 188 331 206 
L 1325 1306 
Q 1550 1550 1690 1715 
Q 1831 1881 1968 2097 
Q 2106 2313 2186 2536 
Q 2266 2759 2266 3009 
Q 2266 3272 2169 3511 
Q 2072 3750 1880 3894 
Q 1688 4038 1416 4038 
Q 1138 4038 916 3870 
Q 694 3703 603 3438 
Q 628 3444 672 3444 
Q 816 3444 917 3347 
Q 1019 3250 1019 3097 
Q 1019 2950 917 2848 
Q 816 2747 672 2747 
Q 522 2747 420 2851 
Q 319 2956 319 3097 
Q 319 3338 409 3548 
Q 500 3759 670 3923 
Q 841 4088 1055 4175 
Q 1269 4263 1509 4263 
Q 1875 4263 2190 4108 
Q 2506 3953 2690 3670 
Q 2875 3388 2875 3009 
Q 2875 2731 2753 2481 
Q 2631 2231 2440 2026 
Q 2250 1822 1953 1562 
Q 1656 1303 1563 1216 
L 838 519 
L 1453 519 
Q 1906 519 2211 526 
Q 2516 534 2534 550 
Q 2609 631 2688 1141 
L 2875 1141 
L 2694 0 
L 319 0 
z
" transform="scale(0.015625)"/>
      <path id="Cmr10-33" d="M 609 494 
Q 759 275 1012 169 
Q 1266 63 1556 63 
Q 1928 63 2084 380 
Q 2241 697 2241 1100 
Q 2241 1281 2208 1462 
Q 2175 1644 2097 1800 
Q 2019 1956 1883 2050 
Q 1747 2144 1550 2144 
L 1125 2144 
Q 1069 2144 1069 2203 
L 1069 2259 
Q 1069 2309 1125 2309 
L 1478 2338 
Q 1703 2338 1851 2506 
Q 2000 2675 2069 2917 
Q 2138 3159 2138 3378 
Q 2138 3684 1994 3881 
Q 1850 4078 1556 4078 
Q 1313 4078 1091 3986 
Q 869 3894 738 3706 
Q 750 3709 759 3711 
Q 769 3713 781 3713 
Q 925 3713 1022 3613 
Q 1119 3513 1119 3372 
Q 1119 3234 1022 3134 
Q 925 3034 781 3034 
Q 641 3034 541 3134 
Q 441 3234 441 3372 
Q 441 3647 606 3850 
Q 772 4053 1033 4158 
Q 1294 4263 1556 4263 
Q 1750 4263 1965 4205 
Q 2181 4147 2356 4039 
Q 2531 3931 2642 3762 
Q 2753 3594 2753 3378 
Q 2753 3109 2633 2881 
Q 2513 2653 2303 2487 
Q 2094 2322 1844 2241 
Q 2122 2188 2372 2031 
Q 2622 1875 2773 1631 
Q 2925 1388 2925 1106 
Q 2925 753 2731 467 
Q 2538 181 2222 20 
Q 1906 -141 1556 -141 
Q 1256 -141 954 -26 
Q 653 88 461 316 
Q 269 544 269 863 
Q 269 1022 375 1128 
Q 481 1234 641 1234 
Q 744 1234 830 1186 
Q 916 1138 964 1050 
Q 1013 963 1013 863 
Q 1013 706 903 600 
Q 794 494 641 494 
L 609 494 
z
" transform="scale(0.015625)"/>
     </defs>
     <use xlink:href="#Cmr10-32" transform="translate(0 38.373438) scale(0.7)"/>
     <use xlink:href="#Cmmi10-bc" transform="translate(35 38.373438) scale(0.7)"/>
     <use xlink:href="#Cmr10-33" transform="translate(20 -40.290625) scale(0.7)"/>
     <path d="M 0 12.585938 
L 0 18.835938 
L 74.887695 18.835938 
L 74.887695 12.585938 
L 0 12.585938 
z
"/>
    </g>
   </g>
  </g>
 </g>
 <defs>
  <clipPath id="p27334f38d0">
   <rect x="13.229399" y="8.444493" width="318.884098" height="318.914435"/>
  </clipPath>
 </defs>
</svg>
