<?xml version="1.0" encoding="utf-8" standalone="no"?>
<!DOCTYPE svg PUBLIC "-//W3C//DTD SVG 1.1//EN"
  "http://www.w3.org/Graphics/SVG/1.1/DTD/svg11.dtd">
<svg xmlns:xlink="http://www.w3.org/1999/xlink" width="333.689893pt" height="336.009893pt" viewBox="0 0 333.689893 336.009893" xmlns="http://www.w3.org/2000/svg" version="1.1">
 <metadata>
  <rdf:RDF xmlns:dc="http://purl.org/dc/elements/1.1/" xmlns:cc="http://creativecommons.org/ns#" xmlns:rdf="http://www.w3.org/1999/02/22-rdf-syntax-ns#">
   <cc:Work>
    <dc:type rdf:resource="http://purl.org/dc/dcmitype/StillImage"/>
    <dc:date>2026-02-25T19:18:28.371198</dc:date>
    <dc:format>image/svg+xml</dc:format>
    <dc:creator>
     <cc:Agent>
      <dc:title>Matplotlib v3.8.0, https://matplotlib.org/</dc:title>
     </cc:Agent>
    </dc:creator>
   </cc:Work>
  </rdf:RDF>
 </metadata>
 <defs>
  <style type="text/css">*{stroke-linejoin: round; stroke-linecap: butt}</style>
 </defs>
 <g id="figure_1">
  <g id="patch_1">
   <path d="M 0 336.009893 
L 333.689893 336.009893 
L 333.689893 0 
L 0 0 
z
" style="fill: #ffffff"/>
  </g>
  <g id="axes_1">
   <g id="patch_2">
    <path d="M 7.2 322.717538 
L 322.717538 322.717538 
L 322.717538 7.2 
L 7.2 7.2 
z
" style="fill: #ffffff"/>
   </g>
   <g id="patch_3">
    <path d="M 13.267645 296.614262 
L 296.614262 296.614262 
L 296.614262 13.267645 
L 13.267645 296.614262 
z
" clip-path="url(#p8cc29b6e37)" style="fill: none; stroke: #0000ff; stroke-linejoin: miter"/>
   </g>
   <g id="matplotlib.axis_1"/>
   <g id="matplotlib.axis_2"/>
   <g id="line2d_1">
    <path d="M 33.303276 296.614262 
L 33.194723 294.531454 
L 32.869621 292.468292 
L 32.316504 290.403989 
L 31.553996 288.426718 
L 30.583468 286.535135 
L 29.434443 284.779518 
L 28.08762 283.131129 
L 27.434976 282.446931 
L 27.434976 282.446931 
" clip-path="url(#p8cc29b6e37)" style="fill: none; stroke: #ff0000; stroke-linecap: square"/>
   </g>
   <g id="line2d_2">
    <path d="M 282.446931 27.434976 
L 284.024191 28.853428 
L 285.718583 30.081648 
L 287.541655 31.131417 
L 289.48135 31.990575 
L 291.454583 32.627507 
L 293.530832 33.064589 
L 295.671745 33.281095 
L 296.614262 33.303276 
L 296.614262 33.303276 
" clip-path="url(#p8cc29b6e37)" style="fill: none; stroke: #ff0000; stroke-linecap: square"/>
   </g>
   <g id="line2d_3">
    <path d="M 276.578631 296.614262 
L 276.578631 276.578631 
L 296.614262 276.578631 
" clip-path="url(#p8cc29b6e37)" style="fill: none; stroke: #ff0000; stroke-linecap: square"/>
   </g>
   <g id="text_1">
    <!-- $1$ -->
    <g transform="translate(150.940954 139.320322) scale(0.16 -0.16)">
     <defs>
      <path id="Cmr10-31" d="M 594 0 
L 594 225 
Q 1394 225 1394 428 
L 1394 3788 
Q 1063 3628 556 3628 
L 556 3853 
Q 1341 3853 1741 4263 
L 1831 4263 
Q 1853 4263 1873 4245 
Q 1894 4228 1894 4206 
L 1894 428 
Q 1894 225 2694 225 
L 2694 0 
L 594 0 
z
" transform="scale(0.015625)"/>
     </defs>
     <use xlink:href="#Cmr10-31" transform="translate(0 0.390625)"/>
    </g>
   </g>
   <g id="text_2">
    <!-- $\frac{\sqrt{2}}{2}$ -->
    <g transform="translate(306.809893 140.505322) scale(0.16 -0.16)">
     <defs>
      <path id="Cmex10-70" d="M 2713 -7425 
L 1269 -4063 
L 819 -4409 
L 703 -4294 
L 1619 -3584 
L 2969 -6725 
L 6291 197 
Q 6322 256 6400 256 
Q 6453 256 6490 218 
Q 6528 181 6528 128 
Q 6528 97 6522 84 
L 2950 -7366 
Q 2925 -7425 2853 -7425 
L 2713 -7425 
z
" transform="scale(0.015625)"/>
      <path id="Cmr10-32" d="M 319 0 
L 319 172 
Q 319 188 331 206 
L 1325 1306 
Q 1550 1550 1690 1715 
Q 1831 1881 1968 2097 
Q 2106 2313 2186 2536 
Q 2266 2759 2266 3009 
Q 2266 3272 2169 3511 
Q 2072 3750 1880 3894 
Q 1688 4038 1416 4038 
Q 1138 4038 916 3870 
Q 694 3703 603 3438 
Q 628 3444 672 3444 
Q 816 3444 917 3347 
Q 1019 3250 1019 3097 
Q 1019 2950 917 2848 
Q 816 2747 672 2747 
Q 522 2747 420 2851 
Q 319 2956 319 3097 
Q 319 3338 409 3548 
Q 500 3759 670 3923 
Q 841 4088 1055 4175 
Q 1269 4263 1509 4263 
Q 1875 4263 2190 4108 
Q 2506 3953 2690 3670 
Q 2875 3388 2875 3009 
Q 2875 2731 2753 2481 
Q 2631 2231 2440 2026 
Q 2250 1822 1953 1562 
Q 1656 1303 1563 1216 
L 838 519 
L 1453 519 
Q 1906 519 2211 526 
Q 2516 534 2534 550 
Q 2609 631 2688 1141 
L 2875 1141 
L 2694 0 
L 319 0 
z
" transform="scale(0.015625)"/>
     </defs>
     <use xlink:href="#Cmex10-70" transform="translate(0 104.505469) scale(0.570772)"/>
     <use xlink:href="#Cmr10-32" transform="translate(65.821875 37.998437) scale(0.7)"/>
     <use xlink:href="#Cmr10-32" transform="translate(37 -39.578125) scale(0.7)"/>
     <path d="M 57.071875 102.25 
L 57.071875 106.625 
L 109.571875 106.625 
L 109.571875 102.25 
L 57.071875 102.25 
z
"/>
     <path d="M 0 13.298438 
L 0 19.548438 
L 109.571875 19.548438 
L 109.571875 13.298438 
L 0 13.298438 
z
"/>
    </g>
   </g>
   <g id="text_3">
    <!-- $\frac{\sqrt{2}}{2}$ -->
    <g transform="translate(145.100954 322.249893) scale(0.16 -0.16)">
     <use xlink:href="#Cmex10-70" transform="translate(0 104.505469) scale(0.570772)"/>
     <use xlink:href="#Cmr10-32" transform="translate(65.821875 37.998437) scale(0.7)"/>
     <use xlink:href="#Cmr10-32" transform="translate(37 -39.578125) scale(0.7)"/>
     <path d="M 57.071875 102.25 
L 57.071875 106.625 
L 109.571875 106.625 
L 109.571875 102.25 
L 57.071875 102.25 
z
"/>
     <path d="M 0 13.298438 
L 0 19.548438 
L 109.571875 19.548438 
L 109.571875 13.298438 
L 0 13.298438 
z
"/>
    </g>
   </g>
   <g id="text_4">
    <!-- $45^\circ$ -->
    <g transform="translate(36.608665 285.694654) scale(0.16 -0.16)">
     <defs>
      <path id="Cmr10-34" d="M 178 1056 
L 178 1281 
L 2156 4231 
Q 2178 4263 2222 4263 
L 2316 4263 
Q 2388 4263 2388 4191 
L 2388 1281 
L 3016 1281 
L 3016 1056 
L 2388 1056 
L 2388 428 
Q 2388 297 2575 261 
Q 2763 225 3009 225 
L 3009 0 
L 1247 0 
L 1247 225 
Q 1494 225 1681 261 
Q 1869 297 1869 428 
L 1869 1056 
L 178 1056 
z
M 391 1281 
L 1906 1281 
L 1906 3547 
L 391 1281 
z
" transform="scale(0.015625)"/>
      <path id="Cmr10-35" d="M 556 728 
Q 622 541 758 387 
Q 894 234 1080 148 
Q 1266 63 1466 63 
Q 1928 63 2103 422 
Q 2278 781 2278 1294 
Q 2278 1516 2270 1667 
Q 2263 1819 2228 1959 
Q 2169 2184 2020 2353 
Q 1872 2522 1656 2522 
Q 1441 2522 1286 2456 
Q 1131 2391 1034 2303 
Q 938 2216 863 2119 
Q 788 2022 769 2016 
L 697 2016 
Q 681 2016 657 2036 
Q 634 2056 634 2075 
L 634 4213 
Q 634 4228 654 4245 
Q 675 4263 697 4263 
L 716 4263 
Q 1147 4056 1631 4056 
Q 2106 4056 2547 4263 
L 2566 4263 
Q 2588 4263 2606 4247 
Q 2625 4231 2625 4213 
L 2625 4153 
Q 2625 4122 2613 4122 
Q 2394 3831 2064 3668 
Q 1734 3506 1381 3506 
Q 1125 3506 856 3578 
L 856 2369 
Q 1069 2541 1236 2614 
Q 1403 2688 1663 2688 
Q 2016 2688 2295 2484 
Q 2575 2281 2725 1954 
Q 2875 1628 2875 1288 
Q 2875 903 2686 575 
Q 2497 247 2172 53 
Q 1847 -141 1466 -141 
Q 1150 -141 886 21 
Q 622 184 470 459 
Q 319 734 319 1044 
Q 319 1188 412 1278 
Q 506 1369 647 1369 
Q 788 1369 883 1276 
Q 978 1184 978 1044 
Q 978 906 883 811 
Q 788 716 647 716 
Q 625 716 597 720 
Q 569 725 556 728 
z
" transform="scale(0.015625)"/>
      <path id="Cmsy10-b1" d="M 1600 359 
Q 1269 359 983 526 
Q 697 694 528 984 
Q 359 1275 359 1600 
Q 359 1925 528 2215 
Q 697 2506 983 2673 
Q 1269 2841 1600 2841 
Q 1931 2841 2215 2672 
Q 2500 2503 2667 2214 
Q 2834 1925 2834 1600 
Q 2834 1275 2667 986 
Q 2500 697 2215 528 
Q 1931 359 1600 359 
z
M 1600 616 
Q 2000 616 2289 908 
Q 2578 1200 2578 1600 
Q 2578 1856 2445 2086 
Q 2313 2316 2088 2450 
Q 1863 2584 1600 2584 
Q 1403 2584 1225 2507 
Q 1047 2431 906 2290 
Q 766 2150 691 1973 
Q 616 1797 616 1600 
Q 616 1200 905 908 
Q 1194 616 1600 616 
z
" transform="scale(0.015625)"/>
     </defs>
     <use xlink:href="#Cmr10-34" transform="translate(0 0.6625)"/>
     <use xlink:href="#Cmr10-35" transform="translate(50 0.6625)"/>
     <use xlink:href="#Cmsy10-b1" transform="translate(116.755156 38.926562) scale(0.7)"/>
    </g>
   </g>
   <g id="text_5">
    <!-- $45^\circ$ -->
    <g transform="translate(267.599654 54.703665) scale(0.16 -0.16)">
     <use xlink:href="#Cmr10-34" transform="translate(0 0.6625)"/>
     <use xlink:href="#Cmr10-35" transform="translate(50 0.6625)"/>
     <use xlink:href="#Cmsy10-b1" transform="translate(116.755156 38.926562) scale(0.7)"/>
    </g>
   </g>
  </g>
 </g>
 <defs>
  <clipPath id="p8cc29b6e37">
   <rect x="7.2" y="7.2" width="315.517538" height="315.517538"/>
  </clipPath>
 </defs>
</svg>
