<?xml version="1.0" encoding="utf-8" standalone="no"?>
<!DOCTYPE svg PUBLIC "-//W3C//DTD SVG 1.1//EN"
  "http://www.w3.org/Graphics/SVG/1.1/DTD/svg11.dtd">
<svg xmlns:xlink="http://www.w3.org/1999/xlink" width="419.4pt" height="338.4pt" viewBox="0 0 419.4 338.4" xmlns="http://www.w3.org/2000/svg" version="1.1">
 <metadata>
  <rdf:RDF xmlns:dc="http://purl.org/dc/elements/1.1/" xmlns:cc="http://creativecommons.org/ns#" xmlns:rdf="http://www.w3.org/1999/02/22-rdf-syntax-ns#">
   <cc:Work>
    <dc:type rdf:resource="http://purl.org/dc/dcmitype/StillImage"/>
    <dc:date>2025-10-23T14:58:30.325512</dc:date>
    <dc:format>image/svg+xml</dc:format>
    <dc:creator>
     <cc:Agent>
      <dc:title>Matplotlib v3.8.0, https://matplotlib.org/</dc:title>
     </cc:Agent>
    </dc:creator>
   </cc:Work>
  </rdf:RDF>
 </metadata>
 <defs>
  <style type="text/css">*{stroke-linejoin: round; stroke-linecap: butt}</style>
 </defs>
 <g id="figure_1">
  <g id="patch_1">
   <path d="M 0 338.4 
L 419.4 338.4 
L 419.4 0 
L 0 0 
z
" style="fill: #ffffff"/>
  </g>
  <g id="axes_1">
   <g id="patch_2">
    <path d="M 7.2 331.2 
L 412.2 331.2 
L 412.2 7.2 
L 7.2 7.2 
z
" style="fill: #ffffff"/>
   </g>
   <g id="matplotlib.axis_1"/>
   <g id="matplotlib.axis_2"/>
   <g id="line2d_1">
    <path d="M 216.828249 -1 
L 217.711812 17.773255 
L 218.682039 34.130144 
L 219.696278 47.834559 
L 220.817428 60.073804 
L 221.936597 70.05457 
L 223.049454 78.319678 
L 224.227266 85.687889 
L 225.490093 92.366847 
L 226.922677 98.757833 
L 228.360136 104.184256 
L 229.893869 109.122227 
L 231.47708 113.489929 
L 233.156294 117.478162 
L 234.955784 121.163373 
L 236.855525 124.523911 
L 239.010272 127.808278 
L 241.014974 130.458066 
L 243.29393 133.086254 
L 245.679867 135.481069 
L 248.536165 137.961007 
L 250.615945 139.548903 
L 253.736729 141.650209 
L 256.966064 143.53248 
L 260.456746 145.297706 
L 264.96593 147.24791 
L 269.036452 148.753839 
L 274.408667 150.451311 
L 279.299489 151.768799 
L 285.536857 153.202467 
L 292.168714 154.488934 
L 300.403917 155.824584 
L 309.927203 157.095475 
L 320.294898 158.230211 
L 331.558868 159.244199 
L 345.690078 160.278741 
L 361.807089 161.224023 
L 381.196708 162.125796 
L 404.411538 162.969231 
L 404.411538 162.969231 
" clip-path="url(#pd3d444d2f4)" style="fill: none; stroke: #0000ff; stroke-linecap: square"/>
   </g>
   <g id="line2d_2">
    <path d="M 14.988462 169.2 
L 404.411538 169.2 
L 404.411538 169.2 
" clip-path="url(#pd3d444d2f4)" style="fill: none; stroke-dasharray: 2,3.3; stroke-dashoffset: 0; stroke: #ff0000; stroke-width: 2"/>
   </g>
   <g id="line2d_3">
    <path d="M 14.988462 175.430769 
L 39.273086 176.31861 
L 59.613855 177.283375 
L 76.102878 178.281054 
L 89.74866 179.314123 
L 101.046626 180.365808 
L 111.740186 181.584698 
L 120.021994 182.72843 
L 127.839126 184.020299 
L 134.431125 185.318252 
L 140.350986 186.694159 
L 146.156242 188.292397 
L 150.915097 189.837997 
L 154.990376 191.375306 
L 158.895539 193.079845 
L 162.454396 194.878636 
L 166.134282 197.047645 
L 169.275826 199.211811 
L 171.722399 201.145216 
L 173.97487 203.159363 
L 176.203614 205.418912 
L 178.582589 208.187905 
L 180.501486 210.750151 
L 182.727157 214.178673 
L 184.693845 217.716161 
L 186.527809 221.555975 
L 188.172893 225.556977 
L 189.908331 230.498654 
L 191.206137 234.800283 
L 192.691469 240.529068 
L 194.113594 247.037229 
L 195.398385 254.029769 
L 196.638609 262.084647 
L 197.814028 271.270131 
L 198.821205 280.719946 
L 199.941433 293.521801 
L 200.928114 307.5058 
L 201.904863 324.835828 
L 202.571779 339.4 
L 202.571779 339.4 
" clip-path="url(#pd3d444d2f4)" style="fill: none; stroke: #0000ff; stroke-linecap: square"/>
   </g>
   <g id="patch_3">
    <path d="M 209.7 331.2 
L 209.7 7.2 
" style="fill: none; stroke: #000000; stroke-width: 0.8; stroke-linejoin: miter; stroke-linecap: square"/>
   </g>
   <g id="patch_4">
    <path d="M 7.2 169.2 
L 412.2 169.2 
" style="fill: none; stroke: #000000; stroke-width: 0.8; stroke-linejoin: miter; stroke-linecap: square"/>
   </g>
  </g>
 </g>
 <defs>
  <clipPath id="pd3d444d2f4">
   <rect x="7.2" y="7.2" width="405" height="324"/>
  </clipPath>
 </defs>
</svg>
