<?xml version="1.0" encoding="utf-8" standalone="no"?>
<!DOCTYPE svg PUBLIC "-//W3C//DTD SVG 1.1//EN"
  "http://www.w3.org/Graphics/SVG/1.1/DTD/svg11.dtd">
<svg xmlns:xlink="http://www.w3.org/1999/xlink" width="453.6pt" height="288.9pt" viewBox="0 0 453.6 288.9" xmlns="http://www.w3.org/2000/svg" version="1.1">
 <metadata>
  <rdf:RDF xmlns:dc="http://purl.org/dc/elements/1.1/" xmlns:cc="http://creativecommons.org/ns#" xmlns:rdf="http://www.w3.org/1999/02/22-rdf-syntax-ns#">
   <cc:Work>
    <dc:type rdf:resource="http://purl.org/dc/dcmitype/StillImage"/>
    <dc:date>2025-11-02T21:44:56.336121</dc:date>
    <dc:format>image/svg+xml</dc:format>
    <dc:creator>
     <cc:Agent>
      <dc:title>Matplotlib v3.8.0, https://matplotlib.org/</dc:title>
     </cc:Agent>
    </dc:creator>
   </cc:Work>
  </rdf:RDF>
 </metadata>
 <defs>
  <style type="text/css">*{stroke-linejoin: round; stroke-linecap: butt}</style>
 </defs>
 <g id="figure_1">
  <g id="patch_1">
   <path d="M 0 288.9 
L 453.6 288.9 
L 453.6 0 
L 0 0 
z
" style="fill: #ffffff"/>
  </g>
  <g id="axes_1">
   <g id="patch_2">
    <path d="M 7.2 281.7 
L 446.4 281.7 
L 446.4 7.2 
L 7.2 7.2 
z
" style="fill: #ffffff"/>
   </g>
   <g id="matplotlib.axis_1"/>
   <g id="matplotlib.axis_2"/>
   <g id="line2d_1">
    <path d="M 247.915385 12.478846 
L 249.220953 42.322517 
L 250.54896 67.771423 
L 251.917681 89.89148 
L 253.316659 109.054319 
L 254.758317 125.869703 
L 256.207666 140.343794 
L 257.773375 153.753531 
L 259.354877 165.382324 
L 260.993747 175.771195 
L 262.666841 184.942294 
L 264.347968 192.950439 
L 266.066291 200.09608 
L 267.886411 206.708665 
L 269.715725 212.525092 
L 271.593654 217.770344 
L 273.58186 222.649669 
L 275.616048 227.037665 
L 277.72773 231.048062 
L 279.88194 234.656063 
L 282.060331 237.883965 
L 284.469436 241.036448 
L 286.789319 243.720296 
L 289.35199 246.344831 
L 292.052809 248.783028 
L 294.933368 251.070609 
L 297.987396 253.199091 
L 300.947396 255.016156 
L 304.180949 256.767699 
L 307.673482 258.428521 
L 311.878388 260.163102 
L 316.473618 261.786663 
L 321.353636 263.258285 
L 326.756441 264.642777 
L 332.402981 265.868671 
L 338.407019 266.9735 
L 346.044736 268.145 
L 354.069732 269.1558 
L 364.183661 270.186148 
L 375.750174 271.116892 
L 389.147604 271.956218 
L 404.649722 272.70066 
L 423.816463 273.389344 
L 437.953846 273.781731 
L 437.953846 273.781731 
" clip-path="url(#p304e4b6e24)" style="fill: none; stroke: #0000ff; stroke-linecap: square"/>
   </g>
   <g id="line2d_2">
    <path d="M 15.646154 276.421154 
L 437.953846 276.421154 
L 437.953846 276.421154 
" clip-path="url(#p304e4b6e24)" style="fill: none; stroke-dasharray: 2,3.3; stroke-dashoffset: 0; stroke: #ff0000; stroke-width: 2"/>
   </g>
   <g id="line2d_3">
    <path d="M 15.646154 273.781731 
L 38.204249 273.112562 
L 56.956951 272.341611 
L 71.691329 271.529735 
L 84.215068 270.632738 
L 94.878578 269.659135 
L 104.661867 268.532472 
L 112.371636 267.433639 
L 118.672281 266.35571 
L 124.771591 265.116305 
L 130.379393 263.76309 
L 135.46566 262.314019 
L 139.952416 260.81875 
L 144.106302 259.211895 
L 147.880655 257.526451 
L 151.411375 255.715194 
L 154.842748 253.69333 
L 157.812828 251.694217 
L 160.64448 249.532143 
L 163.313497 247.223753 
L 165.781509 244.814096 
L 168.24581 242.097695 
L 170.53773 239.244311 
L 172.780244 236.093611 
L 174.927906 232.685116 
L 176.872821 229.211268 
L 178.895357 225.14071 
L 180.884213 220.602041 
L 182.765203 215.731452 
L 184.597254 210.347918 
L 186.421914 204.241375 
L 188.120573 197.762421 
L 189.798538 190.466533 
L 191.463022 182.178352 
L 193.047834 173.120348 
L 194.591226 162.983143 
L 196.112225 151.45966 
L 197.588875 138.506496 
L 199.042526 123.683146 
L 200.412522 107.411602 
L 201.761104 88.715803 
L 203.047225 67.838458 
L 204.322097 43.50724 
L 205.563185 15.488628 
L 205.684615 12.478846 
L 205.684615 12.478846 
" clip-path="url(#p304e4b6e24)" style="fill: none; stroke: #0000ff; stroke-linecap: square"/>
   </g>
   <g id="patch_3">
    <path d="M 226.8 281.7 
L 226.8 7.2 
" style="fill: none; stroke: #000000; stroke-width: 0.8; stroke-linejoin: miter; stroke-linecap: square"/>
   </g>
   <g id="patch_4">
    <path d="M 7.2 276.421154 
L 446.4 276.421154 
" style="fill: none; stroke: #000000; stroke-width: 0.8; stroke-linejoin: miter; stroke-linecap: square"/>
   </g>
  </g>
 </g>
 <defs>
  <clipPath id="p304e4b6e24">
   <rect x="7.2" y="7.2" width="439.2" height="274.5"/>
  </clipPath>
 </defs>
</svg>
