<?xml version="1.0" encoding="utf-8" standalone="no"?>
<!DOCTYPE svg PUBLIC "-//W3C//DTD SVG 1.1//EN"
  "http://www.w3.org/Graphics/SVG/1.1/DTD/svg11.dtd">
<svg xmlns:xlink="http://www.w3.org/1999/xlink" width="451.423887pt" height="337.397538pt" viewBox="0 0 451.423887 337.397538" xmlns="http://www.w3.org/2000/svg" version="1.1">
 <metadata>
  <rdf:RDF xmlns:dc="http://purl.org/dc/elements/1.1/" xmlns:cc="http://creativecommons.org/ns#" xmlns:rdf="http://www.w3.org/1999/02/22-rdf-syntax-ns#">
   <cc:Work>
    <dc:type rdf:resource="http://purl.org/dc/dcmitype/StillImage"/>
    <dc:date>2026-03-07T14:04:59.023504</dc:date>
    <dc:format>image/svg+xml</dc:format>
    <dc:creator>
     <cc:Agent>
      <dc:title>Matplotlib v3.8.0, https://matplotlib.org/</dc:title>
     </cc:Agent>
    </dc:creator>
   </cc:Work>
  </rdf:RDF>
 </metadata>
 <defs>
  <style type="text/css">*{stroke-linejoin: round; stroke-linecap: butt}</style>
 </defs>
 <g id="figure_1">
  <g id="patch_1">
   <path d="M 0 337.397538 
L 451.423887 337.397538 
L 451.423887 0 
L 0 0 
z
" style="fill: #ffffff"/>
  </g>
  <g id="axes_1">
   <g id="patch_2">
    <path d="M 8.826983 330.197538 
L 444.223887 330.197538 
L 444.223887 7.2 
L 8.826983 7.2 
z
" style="fill: #ffffff"/>
   </g>
   <g id="matplotlib.axis_1">
    <g id="xtick_1">
     <g id="line2d_1">
      <defs>
       <path id="mf247dc9ac3" d="M 0 0 
L 0 3.5 
" style="stroke: #000000; stroke-width: 0.8"/>
      </defs>
      <g>
       <use xlink:href="#mf247dc9ac3" x="17.2" y="168.698769" style="stroke: #000000; stroke-width: 0.8"/>
      </g>
     </g>
     <g id="text_1">
      <!-- $-2 \, \pi$ -->
      <g transform="translate(7.2 183.297207) scale(0.1 -0.1)">
       <defs>
        <path id="Cmsy10-a1" d="M 653 1472 
Q 600 1472 565 1512 
Q 531 1553 531 1600 
Q 531 1647 565 1687 
Q 600 1728 653 1728 
L 4325 1728 
Q 4375 1728 4408 1687 
Q 4441 1647 4441 1600 
Q 4441 1553 4408 1512 
Q 4375 1472 4325 1472 
L 653 1472 
z
" transform="scale(0.015625)"/>
        <path id="Cmr10-32" d="M 319 0 
L 319 172 
Q 319 188 331 206 
L 1325 1306 
Q 1550 1550 1690 1715 
Q 1831 1881 1968 2097 
Q 2106 2313 2186 2536 
Q 2266 2759 2266 3009 
Q 2266 3272 2169 3511 
Q 2072 3750 1880 3894 
Q 1688 4038 1416 4038 
Q 1138 4038 916 3870 
Q 694 3703 603 3438 
Q 628 3444 672 3444 
Q 816 3444 917 3347 
Q 1019 3250 1019 3097 
Q 1019 2950 917 2848 
Q 816 2747 672 2747 
Q 522 2747 420 2851 
Q 319 2956 319 3097 
Q 319 3338 409 3548 
Q 500 3759 670 3923 
Q 841 4088 1055 4175 
Q 1269 4263 1509 4263 
Q 1875 4263 2190 4108 
Q 2506 3953 2690 3670 
Q 2875 3388 2875 3009 
Q 2875 2731 2753 2481 
Q 2631 2231 2440 2026 
Q 2250 1822 1953 1562 
Q 1656 1303 1563 1216 
L 838 519 
L 1453 519 
Q 1906 519 2211 526 
Q 2516 534 2534 550 
Q 2609 631 2688 1141 
L 2875 1141 
L 2694 0 
L 319 0 
z
" transform="scale(0.015625)"/>
        <path id="Cmmi10-bc" d="M 647 109 
Q 647 144 672 213 
Q 850 584 1004 942 
Q 1159 1300 1282 1639 
Q 1406 1978 1509 2363 
L 1100 2363 
Q 866 2363 662 2216 
Q 459 2069 325 1844 
Q 313 1819 288 1819 
L 213 1819 
Q 153 1819 153 1881 
Q 153 1894 166 1919 
Q 375 2275 614 2517 
Q 853 2759 1153 2759 
L 3475 2759 
Q 3541 2759 3587 2715 
Q 3634 2672 3634 2597 
Q 3634 2503 3567 2433 
Q 3500 2363 3406 2363 
L 2591 2363 
Q 2488 1859 2478 1381 
Q 2478 766 2694 269 
Q 2713 231 2713 191 
Q 2713 122 2672 62 
Q 2631 3 2567 -34 
Q 2503 -72 2431 -72 
Q 2263 -72 2200 203 
Q 2138 478 2138 738 
Q 2138 1103 2200 1442 
Q 2263 1781 2400 2363 
L 1703 2363 
Q 1197 313 1094 103 
Q 1003 -72 844 -72 
Q 766 -72 706 -20 
Q 647 31 647 109 
z
" transform="scale(0.015625)"/>
       </defs>
       <use xlink:href="#Cmsy10-a1" transform="translate(0 0.390625)"/>
       <use xlink:href="#Cmr10-32" transform="translate(77.685547 0.390625)"/>
       <use xlink:href="#Cmmi10-bc" transform="translate(142.318001 0.390625)"/>
      </g>
     </g>
    </g>
    <g id="xtick_2">
     <g id="line2d_2">
      <g>
       <use xlink:href="#mf247dc9ac3" x="121.862717" y="168.698769" style="stroke: #000000; stroke-width: 0.8"/>
      </g>
     </g>
     <g id="text_2">
      <!-- $-\pi$ -->
      <g transform="translate(115.112717 183.297207) scale(0.1 -0.1)">
       <use xlink:href="#Cmsy10-a1" transform="translate(0 0.890625)"/>
       <use xlink:href="#Cmmi10-bc" transform="translate(77.685547 0.890625)"/>
      </g>
     </g>
    </g>
    <g id="xtick_3">
     <g id="line2d_3">
      <g>
       <use xlink:href="#mf247dc9ac3" x="226.525435" y="168.698769" style="stroke: #000000; stroke-width: 0.8"/>
      </g>
     </g>
    </g>
    <g id="xtick_4">
     <g id="line2d_4">
      <g>
       <use xlink:href="#mf247dc9ac3" x="331.188152" y="168.698769" style="stroke: #000000; stroke-width: 0.8"/>
      </g>
     </g>
     <g id="text_3">
      <!-- $\pi$ -->
      <g transform="translate(328.338152 183.297207) scale(0.1 -0.1)">
       <use xlink:href="#Cmmi10-bc" transform="translate(0 0.890625)"/>
      </g>
     </g>
    </g>
    <g id="xtick_5">
     <g id="line2d_5">
      <g>
       <use xlink:href="#mf247dc9ac3" x="435.85087" y="168.698769" style="stroke: #000000; stroke-width: 0.8"/>
      </g>
     </g>
     <g id="text_4">
      <!-- $2 \, \pi$ -->
      <g transform="translate(429.75087 183.297207) scale(0.1 -0.1)">
       <use xlink:href="#Cmr10-32" transform="translate(0 0.390625)"/>
       <use xlink:href="#Cmmi10-bc" transform="translate(64.632454 0.390625)"/>
      </g>
     </g>
    </g>
   </g>
   <g id="matplotlib.axis_2">
    <g id="ytick_1">
     <g id="line2d_6">
      <defs>
       <path id="m9867773967" d="M 0 0 
L -3.5 0 
" style="stroke: #000000; stroke-width: 0.8"/>
      </defs>
      <g>
       <use xlink:href="#m9867773967" x="226.525435" y="323.986047" style="stroke: #000000; stroke-width: 0.8"/>
      </g>
     </g>
     <g id="text_5">
      <!-- $-10$ -->
      <g transform="translate(201.725435 327.785266) scale(0.1 -0.1)">
       <defs>
        <path id="Cmr10-31" d="M 594 0 
L 594 225 
Q 1394 225 1394 428 
L 1394 3788 
Q 1063 3628 556 3628 
L 556 3853 
Q 1341 3853 1741 4263 
L 1831 4263 
Q 1853 4263 1873 4245 
Q 1894 4228 1894 4206 
L 1894 428 
Q 1894 225 2694 225 
L 2694 0 
L 594 0 
z
" transform="scale(0.015625)"/>
        <path id="Cmr10-30" d="M 1600 -141 
Q 816 -141 533 504 
Q 250 1150 250 2041 
Q 250 2597 351 3087 
Q 453 3578 754 3920 
Q 1056 4263 1600 4263 
Q 2022 4263 2290 4056 
Q 2559 3850 2700 3523 
Q 2841 3197 2892 2823 
Q 2944 2450 2944 2041 
Q 2944 1491 2842 1011 
Q 2741 531 2444 195 
Q 2147 -141 1600 -141 
z
M 1600 25 
Q 1956 25 2131 390 
Q 2306 756 2347 1200 
Q 2388 1644 2388 2144 
Q 2388 2625 2347 3031 
Q 2306 3438 2132 3767 
Q 1959 4097 1600 4097 
Q 1238 4097 1063 3765 
Q 888 3434 847 3029 
Q 806 2625 806 2144 
Q 806 1788 823 1472 
Q 841 1156 916 820 
Q 991 484 1158 254 
Q 1325 25 1600 25 
z
" transform="scale(0.015625)"/>
       </defs>
       <use xlink:href="#Cmsy10-a1" transform="translate(0 0.390625)"/>
       <use xlink:href="#Cmr10-31" transform="translate(77.685547 0.390625)"/>
       <use xlink:href="#Cmr10-30" transform="translate(127.685547 0.390625)"/>
      </g>
     </g>
    </g>
    <g id="ytick_2">
     <g id="line2d_7">
      <g>
       <use xlink:href="#m9867773967" x="226.525435" y="246.342408" style="stroke: #000000; stroke-width: 0.8"/>
      </g>
     </g>
     <g id="text_6">
      <!-- $-5$ -->
      <g transform="translate(206.725435 250.141627) scale(0.1 -0.1)">
       <defs>
        <path id="Cmr10-35" d="M 556 728 
Q 622 541 758 387 
Q 894 234 1080 148 
Q 1266 63 1466 63 
Q 1928 63 2103 422 
Q 2278 781 2278 1294 
Q 2278 1516 2270 1667 
Q 2263 1819 2228 1959 
Q 2169 2184 2020 2353 
Q 1872 2522 1656 2522 
Q 1441 2522 1286 2456 
Q 1131 2391 1034 2303 
Q 938 2216 863 2119 
Q 788 2022 769 2016 
L 697 2016 
Q 681 2016 657 2036 
Q 634 2056 634 2075 
L 634 4213 
Q 634 4228 654 4245 
Q 675 4263 697 4263 
L 716 4263 
Q 1147 4056 1631 4056 
Q 2106 4056 2547 4263 
L 2566 4263 
Q 2588 4263 2606 4247 
Q 2625 4231 2625 4213 
L 2625 4153 
Q 2625 4122 2613 4122 
Q 2394 3831 2064 3668 
Q 1734 3506 1381 3506 
Q 1125 3506 856 3578 
L 856 2369 
Q 1069 2541 1236 2614 
Q 1403 2688 1663 2688 
Q 2016 2688 2295 2484 
Q 2575 2281 2725 1954 
Q 2875 1628 2875 1288 
Q 2875 903 2686 575 
Q 2497 247 2172 53 
Q 1847 -141 1466 -141 
Q 1150 -141 886 21 
Q 622 184 470 459 
Q 319 734 319 1044 
Q 319 1188 412 1278 
Q 506 1369 647 1369 
Q 788 1369 883 1276 
Q 978 1184 978 1044 
Q 978 906 883 811 
Q 788 716 647 716 
Q 625 716 597 720 
Q 569 725 556 728 
z
" transform="scale(0.015625)"/>
       </defs>
       <use xlink:href="#Cmsy10-a1" transform="translate(0 0.390625)"/>
       <use xlink:href="#Cmr10-35" transform="translate(77.685547 0.390625)"/>
      </g>
     </g>
    </g>
    <g id="ytick_3">
     <g id="line2d_8">
      <g>
       <use xlink:href="#m9867773967" x="226.525435" y="91.05513" style="stroke: #000000; stroke-width: 0.8"/>
      </g>
     </g>
     <g id="text_7">
      <!-- $5$ -->
      <g transform="translate(214.525435 94.854349) scale(0.1 -0.1)">
       <use xlink:href="#Cmr10-35" transform="translate(0 0.390625)"/>
      </g>
     </g>
    </g>
    <g id="ytick_4">
     <g id="line2d_9">
      <g>
       <use xlink:href="#m9867773967" x="226.525435" y="13.411491" style="stroke: #000000; stroke-width: 0.8"/>
      </g>
     </g>
     <g id="text_8">
      <!-- $10$ -->
      <g transform="translate(209.525435 17.21071) scale(0.1 -0.1)">
       <use xlink:href="#Cmr10-31" transform="translate(0 0.390625)"/>
       <use xlink:href="#Cmr10-30" transform="translate(50 0.390625)"/>
      </g>
     </g>
    </g>
   </g>
   <g id="line2d_10">
    <path d="M 20.240518 -1 
L 20.848734 27.479316 
L 21.556612 50.627671 
L 22.317975 68.411818 
L 23.150263 82.680803 
L 23.938847 92.978515 
L 24.832676 102.1089 
L 25.779375 109.736993 
L 26.726074 115.878954 
L 27.909448 122.067199 
L 28.977892 126.619287 
L 30.168079 130.840776 
L 31.419622 134.553122 
L 32.626975 137.595749 
L 34.075798 140.710898 
L 35.717951 143.699658 
L 37.360619 146.249371 
L 38.979554 148.429637 
L 40.937169 150.723427 
L 43.404693 153.206369 
L 45.907655 155.375737 
L 48.227147 157.149626 
L 50.509378 158.72407 
L 54.769149 161.329107 
L 60.061517 164.161873 
L 67.011422 167.521942 
L 77.619564 172.544668 
L 83.247952 175.479855 
L 87.046405 177.708626 
L 90.784905 180.211275 
L 93.648569 182.426329 
L 96.275944 184.776771 
L 98.454242 187.036764 
L 100.650876 189.699708 
L 102.399148 192.183583 
L 104.174211 195.144768 
L 105.763952 198.293178 
L 107.177095 201.61473 
L 108.292968 204.691394 
L 109.726301 209.423487 
L 111.03836 214.799289 
L 112.076723 220.035068 
L 113.032557 225.908439 
L 113.98839 233.170614 
L 114.878777 241.686464 
L 115.75882 252.504332 
L 116.576003 265.733036 
L 117.254028 280.23546 
L 117.947407 300.223035 
L 118.573281 325.461195 
L 118.822527 338.397538 
L 118.822527 338.397538 
" clip-path="url(#p1a3b6e46da)" style="fill: none; stroke: #0000ff; stroke-linecap: square"/>
   </g>
   <g id="line2d_11">
    <path d="M 124.902846 -1 
L 125.554867 29.153336 
L 126.271438 52.039346 
L 127.050817 69.789045 
L 127.830196 82.934309 
L 128.706996 94.177625 
L 129.565704 102.738622 
L 130.494695 110.112745 
L 131.565317 116.894904 
L 132.70359 122.673684 
L 133.918349 127.675515 
L 135.190103 131.973914 
L 136.518853 135.707168 
L 137.723604 138.583674 
L 139.344731 141.873355 
L 140.736618 144.285508 
L 142.542592 146.980821 
L 144.262768 149.193143 
L 146.265047 151.432607 
L 148.700469 153.784261 
L 151.559674 156.156635 
L 154.48516 158.265631 
L 158.502191 160.790903 
L 163.092459 163.323689 
L 168.465141 166.001786 
L 185.064731 173.953583 
L 190.067113 176.713266 
L 192.793905 178.397739 
L 195.540531 180.278523 
L 198.239628 182.366938 
L 200.281533 184.154746 
L 202.254889 186.102906 
L 204.256302 188.362481 
L 206.418213 191.225254 
L 208.104549 193.861147 
L 209.710551 196.807663 
L 211.298987 200.275953 
L 212.618452 203.712673 
L 213.950262 207.866105 
L 215.157507 212.427588 
L 216.337919 217.887947 
L 217.411279 224.038078 
L 218.447224 231.480389 
L 219.316605 239.340304 
L 220.198177 249.477386 
L 220.981796 261.157647 
L 221.667463 274.436383 
L 222.388056 293.096352 
L 223.022841 315.856795 
L 223.485006 338.397538 
L 223.485006 338.397538 
" clip-path="url(#p1a3b6e46da)" style="fill: none; stroke: #0000ff; stroke-linecap: square"/>
   </g>
   <g id="line2d_12">
    <path d="M 229.565838 -1 
L 230.207307 28.76064 
L 230.932459 51.993908 
L 231.631249 68.169163 
L 232.47512 82.672264 
L 233.318991 93.605314 
L 234.268345 103.091184 
L 235.11527 109.812073 
L 236.185381 116.652732 
L 237.160135 121.715808 
L 238.225918 126.316355 
L 239.563165 131.065057 
L 240.920487 135.024798 
L 242.418546 138.655052 
L 243.851243 141.580899 
L 245.664619 144.709484 
L 247.354036 147.184471 
L 248.750934 148.98202 
L 250.449977 150.926471 
L 252.419926 152.915151 
L 254.766676 154.993691 
L 257.917642 157.411782 
L 260.897574 159.410005 
L 264.587609 161.608729 
L 268.976854 163.953644 
L 276.204896 167.460061 
L 286.108537 172.133337 
L 292.095572 175.216301 
L 295.684292 177.285274 
L 298.834346 179.314639 
L 301.630045 181.348204 
L 304.76519 183.989483 
L 307.295172 186.505086 
L 309.464455 189.03845 
L 311.440566 191.753938 
L 313.282252 194.753883 
L 314.918587 197.927976 
L 316.225674 200.918126 
L 317.3894 204.021869 
L 318.74807 208.334449 
L 319.912644 212.815296 
L 321.040773 218.095166 
L 321.974807 223.411334 
L 322.998221 230.589218 
L 323.948735 239.032289 
L 324.79863 248.670864 
L 325.571261 259.929146 
L 326.34519 274.768774 
L 327.052237 293.140846 
L 327.680724 315.652465 
L 328.147928 338.397538 
L 328.147928 338.397538 
" clip-path="url(#p1a3b6e46da)" style="fill: none; stroke: #0000ff; stroke-linecap: square"/>
   </g>
   <g id="line2d_13">
    <path d="M 334.228851 -1 
L 334.766044 24.660916 
L 335.489029 49.08012 
L 336.212015 66.503523 
L 337.038284 81.177002 
L 337.944281 93.177592 
L 338.826608 102.161096 
L 339.741094 109.546471 
L 340.838478 116.59782 
L 341.857621 121.879849 
L 343.007839 126.781266 
L 344.220962 131.049288 
L 345.553266 134.945068 
L 346.862389 138.164917 
L 348.226249 141.029495 
L 349.734568 143.747246 
L 351.378053 146.291491 
L 353.300826 148.844055 
L 355.518803 151.357712 
L 358.013739 153.773356 
L 360.266748 155.673082 
L 362.765529 157.543161 
L 365.574377 159.418918 
L 368.961039 161.445126 
L 373.606658 163.936865 
L 380.875377 167.463703 
L 392.9282 173.204745 
L 397.959019 175.884975 
L 401.335277 177.896975 
L 403.967211 179.639352 
L 407.465999 182.285204 
L 410.014919 184.537963 
L 412.456832 187.052887 
L 414.422797 189.417057 
L 416.407576 192.214678 
L 417.89616 194.667295 
L 419.390222 197.527671 
L 420.941351 201.04951 
L 422.304255 204.760221 
L 423.582262 208.943087 
L 424.861407 214.055017 
L 425.996134 219.655441 
L 427.034584 226.00283 
L 428.05414 233.836693 
L 428.928046 242.350009 
L 429.803478 253.305114 
L 430.59274 266.269481 
L 431.294306 281.527749 
L 431.995872 302.299708 
L 432.58918 326.803431 
L 432.810508 338.397538 
L 432.810508 338.397538 
" clip-path="url(#p1a3b6e46da)" style="fill: none; stroke: #0000ff; stroke-linecap: square"/>
   </g>
   <g id="line2d_14">
    <path d="M 17.2 323.986047 
L 17.2 13.411491 
" clip-path="url(#p1a3b6e46da)" style="fill: none; stroke-dasharray: 1.85,0.8; stroke-dashoffset: 0; stroke: #ff0000; stroke-width: 0.5"/>
   </g>
   <g id="line2d_15">
    <path d="M 121.862717 323.986047 
L 121.862717 13.411491 
" clip-path="url(#p1a3b6e46da)" style="fill: none; stroke-dasharray: 1.85,0.8; stroke-dashoffset: 0; stroke: #ff0000; stroke-width: 0.5"/>
   </g>
   <g id="line2d_16">
    <path d="M 226.525435 323.986047 
L 226.525435 13.411491 
" clip-path="url(#p1a3b6e46da)" style="fill: none; stroke-dasharray: 1.85,0.8; stroke-dashoffset: 0; stroke: #ff0000; stroke-width: 0.5"/>
   </g>
   <g id="line2d_17">
    <path d="M 331.188152 323.986047 
L 331.188152 13.411491 
" clip-path="url(#p1a3b6e46da)" style="fill: none; stroke-dasharray: 1.85,0.8; stroke-dashoffset: 0; stroke: #ff0000; stroke-width: 0.5"/>
   </g>
   <g id="line2d_18">
    <path d="M 435.85087 323.986047 
L 435.85087 13.411491 
" clip-path="url(#p1a3b6e46da)" style="fill: none; stroke-dasharray: 1.85,0.8; stroke-dashoffset: 0; stroke: #ff0000; stroke-width: 0.5"/>
   </g>
   <g id="patch_3">
    <path d="M 226.525435 330.197538 
L 226.525435 7.2 
" style="fill: none; stroke: #000000; stroke-width: 0.8; stroke-linejoin: miter; stroke-linecap: square"/>
   </g>
   <g id="patch_4">
    <path d="M 8.826983 168.698769 
L 444.223887 168.698769 
" style="fill: none; stroke: #000000; stroke-width: 0.8; stroke-linejoin: miter; stroke-linecap: square"/>
   </g>
  </g>
 </g>
 <defs>
  <clipPath id="p1a3b6e46da">
   <rect x="8.826983" y="7.2" width="435.396904" height="322.997538"/>
  </clipPath>
 </defs>
</svg>
