<?xml version="1.0" encoding="utf-8" standalone="no"?>
<!DOCTYPE svg PUBLIC "-//W3C//DTD SVG 1.1//EN"
  "http://www.w3.org/Graphics/SVG/1.1/DTD/svg11.dtd">
<svg xmlns:xlink="http://www.w3.org/1999/xlink" width="319.2897pt" height="334.641299pt" viewBox="0 0 319.2897 334.641299" xmlns="http://www.w3.org/2000/svg" version="1.1">
 <metadata>
  <rdf:RDF xmlns:dc="http://purl.org/dc/elements/1.1/" xmlns:cc="http://creativecommons.org/ns#" xmlns:rdf="http://www.w3.org/1999/02/22-rdf-syntax-ns#">
   <cc:Work>
    <dc:type rdf:resource="http://purl.org/dc/dcmitype/StillImage"/>
    <dc:date>2026-02-28T11:29:22.724032</dc:date>
    <dc:format>image/svg+xml</dc:format>
    <dc:creator>
     <cc:Agent>
      <dc:title>Matplotlib v3.8.0, https://matplotlib.org/</dc:title>
     </cc:Agent>
    </dc:creator>
   </cc:Work>
  </rdf:RDF>
 </metadata>
 <defs>
  <style type="text/css">*{stroke-linejoin: round; stroke-linecap: butt}</style>
 </defs>
 <g id="figure_1">
  <g id="patch_1">
   <path d="M -0 334.641299 
L 319.2897 334.641299 
L 319.2897 0 
L -0 0 
z
" style="fill: #ffffff"/>
  </g>
  <g id="axes_1">
   <g id="patch_2">
    <path d="M 13.655966 327.441299 
L 309.824045 327.441299 
L 309.824045 9.077622 
L 13.655966 9.077622 
z
" style="fill: #ffffff"/>
   </g>
   <g id="PathCollection_1">
    <path d="M 161.739772 40.095289 
C 162.677406 40.095289 163.576764 39.722763 164.239772 39.059755 
C 164.902779 38.396747 165.275306 37.497389 165.275306 36.559755 
C 165.275306 35.62212 164.902779 34.722763 164.239772 34.059755 
C 163.576764 33.396747 162.677406 33.024221 161.739772 33.024221 
C 160.802137 33.024221 159.902779 33.396747 159.239772 34.059755 
C 158.576764 34.722763 158.204238 35.62212 158.204238 36.559755 
C 158.204238 37.497389 158.576764 38.396747 159.239772 39.059755 
C 159.902779 39.722763 160.802137 40.095289 161.739772 40.095289 
z
" clip-path="url(#p740ce7ca1f)" style="fill: #0000ff"/>
   </g>
   <g id="matplotlib.axis_1">
    <g id="xtick_1">
     <g id="line2d_1">
      <defs>
       <path id="m5d1f33386c" d="M 0 0 
L 0 3.5 
" style="stroke: #000000; stroke-width: 0.8"/>
      </defs>
      <g>
       <use xlink:href="#m5d1f33386c" x="19.341406" y="178.95812" style="stroke: #000000; stroke-width: 0.8"/>
      </g>
     </g>
     <g id="text_1">
      <!-- −1.0 -->
      <g transform="translate(7.2 193.556558) scale(0.1 -0.1)">
       <defs>
        <path id="DejaVuSans-2212" d="M 678 2272 
L 4684 2272 
L 4684 1741 
L 678 1741 
L 678 2272 
z
" transform="scale(0.015625)"/>
        <path id="DejaVuSans-31" d="M 794 531 
L 1825 531 
L 1825 4091 
L 703 3866 
L 703 4441 
L 1819 4666 
L 2450 4666 
L 2450 531 
L 3481 531 
L 3481 0 
L 794 0 
L 794 531 
z
" transform="scale(0.015625)"/>
        <path id="DejaVuSans-2e" d="M 684 794 
L 1344 794 
L 1344 0 
L 684 0 
L 684 794 
z
" transform="scale(0.015625)"/>
        <path id="DejaVuSans-30" d="M 2034 4250 
Q 1547 4250 1301 3770 
Q 1056 3291 1056 2328 
Q 1056 1369 1301 889 
Q 1547 409 2034 409 
Q 2525 409 2770 889 
Q 3016 1369 3016 2328 
Q 3016 3291 2770 3770 
Q 2525 4250 2034 4250 
z
M 2034 4750 
Q 2819 4750 3233 4129 
Q 3647 3509 3647 2328 
Q 3647 1150 3233 529 
Q 2819 -91 2034 -91 
Q 1250 -91 836 529 
Q 422 1150 422 2328 
Q 422 3509 836 4129 
Q 1250 4750 2034 4750 
z
" transform="scale(0.015625)"/>
       </defs>
       <use xlink:href="#DejaVuSans-2212"/>
       <use xlink:href="#DejaVuSans-31" x="83.789062"/>
       <use xlink:href="#DejaVuSans-2e" x="147.412109"/>
       <use xlink:href="#DejaVuSans-30" x="179.199219"/>
      </g>
     </g>
    </g>
    <g id="xtick_2">
     <g id="line2d_2">
      <g>
       <use xlink:href="#m5d1f33386c" x="90.540589" y="178.95812" style="stroke: #000000; stroke-width: 0.8"/>
      </g>
     </g>
     <g id="text_2">
      <!-- −0.5 -->
      <g transform="translate(78.399183 193.556558) scale(0.1 -0.1)">
       <defs>
        <path id="DejaVuSans-35" d="M 691 4666 
L 3169 4666 
L 3169 4134 
L 1269 4134 
L 1269 2991 
Q 1406 3038 1543 3061 
Q 1681 3084 1819 3084 
Q 2600 3084 3056 2656 
Q 3513 2228 3513 1497 
Q 3513 744 3044 326 
Q 2575 -91 1722 -91 
Q 1428 -91 1123 -41 
Q 819 9 494 109 
L 494 744 
Q 775 591 1075 516 
Q 1375 441 1709 441 
Q 2250 441 2565 725 
Q 2881 1009 2881 1497 
Q 2881 1984 2565 2268 
Q 2250 2553 1709 2553 
Q 1456 2553 1204 2497 
Q 953 2441 691 2322 
L 691 4666 
z
" transform="scale(0.015625)"/>
       </defs>
       <use xlink:href="#DejaVuSans-2212"/>
       <use xlink:href="#DejaVuSans-30" x="83.789062"/>
       <use xlink:href="#DejaVuSans-2e" x="147.412109"/>
       <use xlink:href="#DejaVuSans-35" x="179.199219"/>
      </g>
     </g>
    </g>
    <g id="xtick_3">
     <g id="line2d_3">
      <g>
       <use xlink:href="#m5d1f33386c" x="232.938954" y="178.95812" style="stroke: #000000; stroke-width: 0.8"/>
      </g>
     </g>
     <g id="text_3">
      <!-- 0.5 -->
      <g transform="translate(224.987392 193.556558) scale(0.1 -0.1)">
       <use xlink:href="#DejaVuSans-30"/>
       <use xlink:href="#DejaVuSans-2e" x="63.623047"/>
       <use xlink:href="#DejaVuSans-35" x="95.410156"/>
      </g>
     </g>
    </g>
    <g id="xtick_4">
     <g id="line2d_4">
      <g>
       <use xlink:href="#m5d1f33386c" x="304.138137" y="178.95812" style="stroke: #000000; stroke-width: 0.8"/>
      </g>
     </g>
     <g id="text_4">
      <!-- 1.0 -->
      <g transform="translate(296.186575 193.556558) scale(0.1 -0.1)">
       <use xlink:href="#DejaVuSans-31"/>
       <use xlink:href="#DejaVuSans-2e" x="63.623047"/>
       <use xlink:href="#DejaVuSans-30" x="95.410156"/>
      </g>
     </g>
    </g>
   </g>
   <g id="matplotlib.axis_2">
    <g id="ytick_1">
     <g id="line2d_5">
      <defs>
       <path id="m3010f4eb4e" d="M 0 0 
L -3.5 0 
" style="stroke: #000000; stroke-width: 0.8"/>
      </defs>
      <g>
       <use xlink:href="#m3010f4eb4e" x="161.739772" y="321.356486" style="stroke: #000000; stroke-width: 0.8"/>
      </g>
     </g>
     <g id="text_5">
      <!-- −1.0 -->
      <g transform="translate(130.456959 325.155704) scale(0.1 -0.1)">
       <use xlink:href="#DejaVuSans-2212"/>
       <use xlink:href="#DejaVuSans-31" x="83.789062"/>
       <use xlink:href="#DejaVuSans-2e" x="147.412109"/>
       <use xlink:href="#DejaVuSans-30" x="179.199219"/>
      </g>
     </g>
    </g>
    <g id="ytick_2">
     <g id="line2d_6">
      <g>
       <use xlink:href="#m3010f4eb4e" x="161.739772" y="250.157303" style="stroke: #000000; stroke-width: 0.8"/>
      </g>
     </g>
     <g id="text_6">
      <!-- −0.5 -->
      <g transform="translate(130.456959 253.956522) scale(0.1 -0.1)">
       <use xlink:href="#DejaVuSans-2212"/>
       <use xlink:href="#DejaVuSans-30" x="83.789062"/>
       <use xlink:href="#DejaVuSans-2e" x="147.412109"/>
       <use xlink:href="#DejaVuSans-35" x="179.199219"/>
      </g>
     </g>
    </g>
    <g id="ytick_3">
     <g id="line2d_7">
      <g>
       <use xlink:href="#m3010f4eb4e" x="161.739772" y="107.758938" style="stroke: #000000; stroke-width: 0.8"/>
      </g>
     </g>
     <g id="text_7">
      <!-- 0.5 -->
      <g transform="translate(138.836647 111.558156) scale(0.1 -0.1)">
       <use xlink:href="#DejaVuSans-30"/>
       <use xlink:href="#DejaVuSans-2e" x="63.623047"/>
       <use xlink:href="#DejaVuSans-35" x="95.410156"/>
      </g>
     </g>
    </g>
    <g id="ytick_4">
     <g id="line2d_8">
      <g>
       <use xlink:href="#m3010f4eb4e" x="161.739772" y="36.559755" style="stroke: #000000; stroke-width: 0.8"/>
      </g>
     </g>
     <g id="text_8">
      <!-- 1.0 -->
      <g transform="translate(138.836647 40.358974) scale(0.1 -0.1)">
       <use xlink:href="#DejaVuSans-31"/>
       <use xlink:href="#DejaVuSans-2e" x="63.623047"/>
       <use xlink:href="#DejaVuSans-30" x="95.410156"/>
      </g>
     </g>
    </g>
   </g>
   <g id="line2d_9">
    <path d="M 303.358064 193.842802 
L 303.587872 191.464552 
L 303.924638 186.75287 
L 304.128505 180.614341 
L 303.938058 171.412144 
L 303.710341 167.92853 
L 303.066867 161.524058 
L 302.304131 156.17753 
L 301.503882 151.694811 
L 300.430486 146.675303 
L 299.221343 141.862138 
L 297.068363 134.647097 
L 294.438952 127.303285 
L 291.39654 120.081836 
L 290.028409 117.157473 
L 286.643257 110.573811 
L 284.318065 106.488427 
L 281.424825 101.803843 
L 276.671031 94.886127 
L 272.755467 89.779592 
L 269.87139 86.303668 
L 263.693794 79.546492 
L 258.403868 74.395474 
L 253.846426 70.359508 
L 249.668369 66.949834 
L 246.382502 64.446537 
L 242.598328 61.743836 
L 238.466135 58.998295 
L 231.081791 54.583771 
L 223.746888 50.76915 
L 219.430327 48.769433 
L 215.141958 46.952435 
L 205.160045 43.341107 
L 200.859573 42.038671 
L 195.990379 40.740211 
L 190.075273 39.407435 
L 183.940797 38.301059 
L 172.782627 36.988582 
L 168.658359 36.727928 
L 158.939322 36.587295 
L 154.687483 36.734495 
L 147.610032 37.262514 
L 139.260471 38.345263 
L 134.964489 39.099696 
L 131.015595 39.913813 
L 122.907571 41.956826 
L 115.460625 44.28988 
L 110.494253 46.100334 
L 105.095661 48.310735 
L 96.919437 52.168457 
L 89.302424 56.360709 
L 85.527441 58.671067 
L 78.895268 63.138939 
L 76.260243 65.069821 
L 70.230996 69.85524 
L 64.009777 75.391028 
L 59.009346 80.349022 
L 55.69208 83.925591 
L 50.929379 89.524618 
L 48.348988 92.819717 
L 44.164037 98.626052 
L 40.372293 104.478394 
L 37.4989 109.37723 
L 35.564766 112.949314 
L 31.939896 120.398007 
L 29.235787 126.804611 
L 27.968822 130.145955 
L 26.567699 134.171903 
L 24.141613 142.296951 
L 22.69974 148.214599 
L 21.175142 156.179199 
L 20.364492 161.919204 
L 19.813126 167.377022 
L 19.387958 175.317311 
L 19.436158 184.151951 
L 19.768176 189.974488 
L 20.805514 199.325482 
L 21.495682 203.633812 
L 22.864269 210.436514 
L 23.869655 214.582907 
L 25.730638 221.134063 
L 27.938781 227.687879 
L 29.788001 232.493386 
L 31.322832 236.130809 
L 34.244909 242.380155 
L 37.112225 247.844033 
L 39.553937 252.087569 
L 43.584658 258.435561 
L 48.265033 264.985895 
L 51.491409 269.083549 
L 56.275903 274.638143 
L 59.183185 277.748003 
L 62.328168 280.912166 
L 67.725174 285.909277 
L 71.562964 289.164462 
L 76.892552 293.318269 
L 81.748762 296.766154 
L 87.949068 300.745749 
L 93.539948 303.962434 
L 98.848654 306.71571 
L 104.160413 309.196025 
L 108.08331 310.860655 
L 112.312537 312.50303 
L 122.201113 315.757202 
L 124.861803 316.498332 
L 131.812266 318.176075 
L 136.471844 319.096717 
L 140.987442 319.836207 
L 147.759526 320.668555 
L 153.141967 321.096687 
L 158.15342 321.311317 
L 167.914914 321.222529 
L 171.202379 321.041735 
L 181.189873 320.021893 
L 184.501686 319.525505 
L 191.450482 318.222502 
L 194.538682 317.527691 
L 202.540133 315.386215 
L 209.193914 313.216821 
L 212.989846 311.814149 
L 221.274173 308.314023 
L 223.958045 307.044735 
L 229.443486 304.231827 
L 235.774812 300.59737 
L 241.72553 296.769719 
L 248.552907 291.833157 
L 254.034622 287.396836 
L 257.617946 284.241881 
L 261.165162 280.898721 
L 265.765454 276.199839 
L 268.934332 272.695097 
L 272.922231 267.92865 
L 276.856965 262.775339 
L 279.284622 259.335372 
L 282.880161 253.806637 
L 286.980413 246.72298 
L 289.238222 242.372941 
L 290.967166 238.770954 
L 293.727514 232.40464 
L 295.594909 227.538948 
L 298.241598 219.51112 
L 299.498233 215.012257 
L 301.616982 205.635084 
L 302.810613 198.35689 
L 303.588385 191.458733 
L 304.083466 182.903632 
L 304.125757 177.080469 
L 304.029631 173.400199 
L 303.358064 164.073438 
L 303.358064 164.073438 
" clip-path="url(#p740ce7ca1f)" style="fill: none; stroke: #0000ff; stroke-linecap: square"/>
   </g>
   <g id="line2d_10">
    <path d="M 161.739772 178.95812 
L 161.739772 36.559755 
" clip-path="url(#p740ce7ca1f)" style="fill: none; stroke: #0000ff; stroke-width: 2; stroke-linecap: square"/>
   </g>
   <g id="line2d_11">
    <path d="M 172.419649 178.95812 
L 172.515431 180.363693 
L 172.408329 181.908437 
L 172.092527 183.396306 
L 171.396377 185.220891 
L 170.382994 186.923384 
L 169.476518 188.03583 
L 167.974485 189.40927 
L 166.476321 190.395151 
L 165.32296 190.961653 
L 163.855965 191.484564 
L 162.323253 191.824846 
L 160.842668 191.971804 
L 158.536505 191.862705 
L 157.761566 191.733734 
L 155.901252 191.225553 
L 154.440159 190.613196 
L 152.675252 189.58035 
L 151.450989 188.632002 
L 150.185857 187.387059 
L 149.020453 185.899727 
L 147.891197 183.929061 
L 147.246649 182.332704 
L 146.732639 180.380812 
L 146.480149 178.281994 
L 146.484647 176.675679 
L 146.635434 175.215999 
L 147.158534 172.936935 
L 147.578672 171.750753 
L 148.394606 170.020025 
L 149.287515 168.575134 
L 150.480685 167.056417 
L 151.821806 165.709897 
L 152.830239 164.877639 
L 154.791607 163.592336 
L 156.666726 162.690598 
L 158.668569 162.016728 
L 160.590862 161.615375 
L 162.984638 161.423872 
L 164.30112 161.458807 
L 167.196096 161.886565 
L 169.932491 162.760677 
L 171.296972 163.387117 
L 173.539758 164.742009 
L 175.17824 166.044284 
L 176.512888 167.360383 
L 177.823408 168.957432 
L 178.833516 170.486212 
L 179.748211 172.225995 
L 180.479968 174.050295 
L 181.032603 175.982782 
L 181.371204 177.868682 
L 181.524868 179.802563 
L 181.432389 182.400004 
L 181.051061 184.753138 
L 180.319567 187.252537 
L 179.65324 188.864362 
L 178.742022 190.60283 
L 177.702114 192.200749 
L 176.294219 193.951432 
L 174.621946 195.61566 
L 172.472475 197.290619 
L 170.686464 198.381116 
L 168.919409 199.241287 
L 166.37917 200.15251 
L 164.743394 200.55803 
L 161.683895 200.968731 
L 159.546226 200.999317 
L 157.598456 200.846495 
L 155.915527 200.573814 
L 153.007687 199.781018 
L 150.443786 198.712705 
L 148.297719 197.511746 
L 146.066389 195.904844 
L 143.978036 193.976614 
L 142.700199 192.5263 
L 141.234692 190.505135 
L 140.169904 188.68471 
L 139.276705 186.788405 
L 138.426882 184.40737 
L 137.908435 182.335206 
L 137.525319 179.727138 
L 137.424875 177.631186 
L 137.575603 174.80991 
L 137.96031 172.431936 
L 138.444119 170.53101 
L 139.163738 168.452819 
L 139.970271 166.63516 
L 141.299574 164.268485 
L 142.466982 162.586029 
L 143.983191 160.764226 
L 145.981073 158.807831 
L 148.244892 157.036881 
L 150.61186 155.573503 
L 152.906034 154.463661 
L 154.819234 153.738814 
L 157.59243 152.977483 
L 160.934584 152.476319 
L 163.321882 152.381539 
L 164.98997 152.442795 
L 168.455832 152.908165 
L 171.1053 153.583503 
L 173.192495 154.324789 
L 175.852942 155.564891 
L 177.865725 156.752009 
L 180.037322 158.316651 
L 182.096802 160.133255 
L 183.686136 161.817141 
L 185.408585 164.015199 
L 186.858208 166.29505 
L 188.201393 168.972845 
L 188.838863 170.56196 
L 189.600921 172.967732 
L 190.246606 176.037483 
L 190.465107 177.838783 
L 190.575484 180.855398 
L 190.485489 182.721894 
L 190.190447 185.123731 
L 189.707916 187.448085 
L 188.891245 190.148521 
L 188.00366 192.355541 
L 186.824576 194.692786 
L 185.718559 196.507139 
L 184.081026 198.752789 
L 182.114918 200.965995 
L 179.81243 203.080365 
L 178.357975 204.20976 
L 175.647465 205.971155 
L 172.986631 207.335128 
L 169.915012 208.528563 
L 167.859114 209.123785 
L 164.267665 209.805526 
L 162.596683 209.975186 
L 159.142824 210.038774 
L 156.937566 209.878377 
L 154.128456 209.443929 
L 151.834644 208.891464 
L 148.576103 207.781009 
L 146.809786 207.006207 
L 144.128167 205.570141 
L 141.972599 204.158397 
L 139.804035 202.464505 
L 137.803697 200.606676 
L 135.662832 198.215363 
L 134.161685 196.207015 
L 132.815545 194.081483 
L 131.238807 190.999647 
L 130.480237 189.151565 
L 129.473045 185.992476 
L 128.974444 183.807512 
L 128.559708 181.02559 
L 128.38978 178.527906 
L 128.444384 175.357304 
L 128.743688 172.561935 
L 129.234487 169.978128 
L 130.136682 166.791503 
L 131.144679 164.165169 
L 132.260987 161.830611 
L 133.353075 159.907662 
L 134.696557 157.877156 
L 136.714389 155.31771 
L 138.146447 153.767304 
L 140.478827 151.601768 
L 142.875366 149.747375 
L 144.777916 148.495122 
L 146.762723 147.367507 
L 149.835198 145.937973 
L 152.984481 144.825683 
L 154.582902 144.385937 
L 156.773843 143.911609 
L 158.996181 143.576352 
L 161.739772 143.358529 
L 161.739772 143.358529 
" clip-path="url(#p740ce7ca1f)" style="fill: none; stroke: #ff0000; stroke-linecap: square"/>
   </g>
   <g id="line2d_12">
    <path d="M 215.139159 178.95812 
L 215.010861 175.258725 
L 214.626817 171.578758 
L 214.038091 168.170151 
L 213.189969 164.662255 
L 212.128794 161.282121 
L 210.933616 158.186499 
L 209.443974 154.962211 
L 207.76429 151.879748 
L 205.873404 148.896233 
L 203.868399 146.145419 
L 201.708357 143.546163 
L 199.226544 140.928705 
L 196.680611 138.577032 
L 194.053126 136.445279 
L 191.24382 134.44963 
L 188.439194 132.712738 
L 185.498618 131.135408 
L 182.10908 129.596335 
L 178.833079 128.368463 
L 175.553524 127.376391 
L 172.608222 126.676466 
L 168.968559 126.050284 
L 165.30304 125.677752 
L 161.739772 125.558733 
L 161.739772 125.558733 
" clip-path="url(#p740ce7ca1f)" style="fill: none; stroke: #008000; stroke-linecap: square"/>
   </g>
   <g id="patch_3">
    <path d="M 161.739772 327.441299 
L 161.739772 9.077622 
" style="fill: none; stroke: #000000; stroke-width: 0.8; stroke-linejoin: miter; stroke-linecap: square"/>
   </g>
   <g id="patch_4">
    <path d="M 13.655966 178.95812 
L 309.824045 178.95812 
" style="fill: none; stroke: #000000; stroke-width: 0.8; stroke-linejoin: miter; stroke-linecap: square"/>
   </g>
   <g id="text_9">
    <!-- $P=(x,y)$ -->
    <g transform="translate(129.259772 19.2) scale(0.16 -0.16)">
     <defs>
      <path id="Cmmi10-50" d="M 313 0 
Q 250 0 250 84 
Q 253 100 262 139 
Q 272 178 289 201 
Q 306 225 331 225 
Q 722 225 878 269 
Q 959 297 997 441 
L 1875 3956 
Q 1888 4019 1888 4044 
Q 1888 4113 1813 4122 
Q 1691 4147 1350 4147 
Q 1288 4147 1288 4231 
Q 1291 4247 1300 4286 
Q 1309 4325 1326 4348 
Q 1344 4372 1369 4372 
L 3578 4372 
Q 3881 4372 4165 4264 
Q 4450 4156 4631 3934 
Q 4813 3713 4813 3397 
Q 4813 2991 4527 2672 
Q 4241 2353 3814 2175 
Q 3388 1997 2988 1997 
L 1947 1997 
L 1556 416 
Q 1544 353 1544 325 
Q 1544 300 1551 283 
Q 1559 266 1573 261 
Q 1588 256 1619 250 
Q 1741 225 2081 225 
Q 2144 225 2144 141 
Q 2122 50 2109 25 
Q 2097 0 2034 0 
L 313 0 
z
M 1978 2188 
L 2875 2188 
Q 3497 2188 3822 2522 
Q 3988 2688 4092 3000 
Q 4197 3313 4197 3566 
Q 4197 3881 3956 4014 
Q 3716 4147 3359 4147 
L 2747 4147 
Q 2572 4147 2515 4117 
Q 2459 4088 2413 3928 
L 1978 2188 
z
" transform="scale(0.015625)"/>
      <path id="Cmr10-3d" d="M 481 850 
Q 428 850 393 890 
Q 359 931 359 978 
Q 359 1031 393 1068 
Q 428 1106 481 1106 
L 4500 1106 
Q 4547 1106 4581 1068 
Q 4616 1031 4616 978 
Q 4616 931 4581 890 
Q 4547 850 4500 850 
L 481 850 
z
M 481 2094 
Q 428 2094 393 2131 
Q 359 2169 359 2222 
Q 359 2269 393 2309 
Q 428 2350 481 2350 
L 4500 2350 
Q 4547 2350 4581 2309 
Q 4616 2269 4616 2222 
Q 4616 2169 4581 2131 
Q 4547 2094 4500 2094 
L 481 2094 
z
" transform="scale(0.015625)"/>
      <path id="Cmr10-28" d="M 1984 -1588 
Q 1628 -1306 1370 -942 
Q 1113 -578 948 -165 
Q 784 247 703 697 
Q 622 1147 622 1600 
Q 622 2059 703 2509 
Q 784 2959 951 3375 
Q 1119 3791 1378 4153 
Q 1638 4516 1984 4788 
Q 1984 4800 2016 4800 
L 2075 4800 
Q 2094 4800 2109 4783 
Q 2125 4766 2125 4744 
Q 2125 4716 2113 4703 
Q 1800 4397 1592 4047 
Q 1384 3697 1257 3301 
Q 1131 2906 1075 2482 
Q 1019 2059 1019 1600 
Q 1019 -434 2106 -1491 
Q 2125 -1509 2125 -1544 
Q 2125 -1559 2108 -1579 
Q 2091 -1600 2075 -1600 
L 2016 -1600 
Q 1984 -1600 1984 -1588 
z
" transform="scale(0.015625)"/>
      <path id="Cmmi10-78" d="M 500 184 
Q 613 97 819 97 
Q 1019 97 1172 289 
Q 1325 481 1381 709 
L 1672 1844 
Q 1741 2153 1741 2266 
Q 1741 2425 1652 2544 
Q 1563 2663 1403 2663 
Q 1200 2663 1022 2536 
Q 844 2409 722 2214 
Q 600 2019 550 1819 
Q 538 1778 500 1778 
L 422 1778 
Q 372 1778 372 1838 
L 372 1856 
Q 434 2094 584 2320 
Q 734 2547 951 2687 
Q 1169 2828 1416 2828 
Q 1650 2828 1839 2703 
Q 2028 2578 2106 2363 
Q 2216 2559 2386 2693 
Q 2556 2828 2759 2828 
Q 2897 2828 3040 2779 
Q 3184 2731 3275 2631 
Q 3366 2531 3366 2381 
Q 3366 2219 3261 2101 
Q 3156 1984 2994 1984 
Q 2891 1984 2822 2050 
Q 2753 2116 2753 2216 
Q 2753 2350 2845 2451 
Q 2938 2553 3066 2572 
Q 2950 2663 2747 2663 
Q 2541 2663 2389 2472 
Q 2238 2281 2175 2047 
L 1894 916 
Q 1825 659 1825 494 
Q 1825 331 1917 214 
Q 2009 97 2163 97 
Q 2463 97 2698 361 
Q 2934 625 3009 941 
Q 3022 978 3059 978 
L 3138 978 
Q 3163 978 3178 961 
Q 3194 944 3194 922 
Q 3194 916 3188 903 
Q 3097 522 2806 225 
Q 2516 -72 2150 -72 
Q 1916 -72 1727 54 
Q 1538 181 1459 397 
Q 1359 209 1182 68 
Q 1006 -72 806 -72 
Q 669 -72 523 -23 
Q 378 25 287 125 
Q 197 225 197 378 
Q 197 528 301 651 
Q 406 775 563 775 
Q 669 775 741 711 
Q 813 647 813 544 
Q 813 409 723 309 
Q 634 209 500 184 
z
" transform="scale(0.015625)"/>
      <path id="Cmmi10-3b" d="M 634 -1153 
Q 634 -1125 659 -1100 
Q 891 -878 1019 -587 
Q 1147 -297 1147 25 
L 1147 103 
Q 1044 0 891 0 
Q 744 0 641 103 
Q 538 206 538 353 
Q 538 503 641 603 
Q 744 703 891 703 
Q 1119 703 1216 492 
Q 1313 281 1313 25 
Q 1313 -331 1170 -651 
Q 1028 -972 769 -1228 
Q 744 -1241 728 -1241 
Q 697 -1241 665 -1212 
Q 634 -1184 634 -1153 
z
" transform="scale(0.015625)"/>
      <path id="Cmmi10-79" d="M 538 -916 
Q 672 -1147 1006 -1147 
Q 1309 -1147 1531 -934 
Q 1753 -722 1889 -420 
Q 2025 -119 2100 197 
Q 1816 -72 1484 -72 
Q 1231 -72 1053 15 
Q 875 103 776 276 
Q 678 450 678 697 
Q 678 906 734 1126 
Q 791 1347 892 1617 
Q 994 1888 1069 2088 
Q 1153 2322 1153 2472 
Q 1153 2663 1013 2663 
Q 759 2663 595 2402 
Q 431 2141 353 1819 
Q 341 1778 300 1778 
L 225 1778 
Q 172 1778 172 1838 
L 172 1856 
Q 275 2238 487 2533 
Q 700 2828 1025 2828 
Q 1253 2828 1411 2678 
Q 1569 2528 1569 2297 
Q 1569 2178 1516 2047 
Q 1488 1969 1388 1706 
Q 1288 1444 1234 1272 
Q 1181 1100 1147 934 
Q 1113 769 1113 603 
Q 1113 391 1203 244 
Q 1294 97 1491 97 
Q 1888 97 2203 581 
L 2688 2553 
Q 2709 2638 2787 2698 
Q 2866 2759 2956 2759 
Q 3034 2759 3092 2709 
Q 3150 2659 3150 2578 
Q 3150 2541 3144 2528 
L 2509 -19 
Q 2425 -347 2200 -647 
Q 1975 -947 1658 -1130 
Q 1341 -1313 997 -1313 
Q 831 -1313 668 -1248 
Q 506 -1184 406 -1056 
Q 306 -928 306 -756 
Q 306 -581 409 -453 
Q 513 -325 684 -325 
Q 788 -325 858 -389 
Q 928 -453 928 -556 
Q 928 -703 818 -812 
Q 709 -922 563 -922 
Q 556 -919 550 -917 
Q 544 -916 538 -916 
z
" transform="scale(0.015625)"/>
      <path id="Cmr10-29" d="M 416 -1600 
Q 359 -1600 359 -1544 
Q 359 -1516 372 -1503 
Q 1466 -434 1466 1600 
Q 1466 3634 384 4691 
Q 359 4706 359 4744 
Q 359 4766 376 4783 
Q 394 4800 416 4800 
L 475 4800 
Q 494 4800 506 4788 
Q 966 4425 1272 3906 
Q 1578 3388 1720 2800 
Q 1863 2213 1863 1600 
Q 1863 1147 1786 708 
Q 1709 269 1542 -157 
Q 1375 -584 1119 -945 
Q 863 -1306 506 -1588 
Q 494 -1600 475 -1600 
L 416 -1600 
z
" transform="scale(0.015625)"/>
     </defs>
     <use xlink:href="#Cmmi10-50"/>
     <use xlink:href="#Cmr10-3d" transform="translate(81.767578 0)"/>
     <use xlink:href="#Cmr10-28" transform="translate(177.011719 0)"/>
     <use xlink:href="#Cmmi10-78" transform="translate(215.830078 0)"/>
     <use xlink:href="#Cmmi10-3b" transform="translate(272.910156 0)"/>
     <use xlink:href="#Cmmi10-79" transform="translate(318.154297 0)"/>
     <use xlink:href="#Cmr10-29" transform="translate(367.177734 0)"/>
    </g>
   </g>
   <g id="text_10">
    <!-- $\frac{-11\pi}{2}$ -->
    <g transform="translate(117.372517 212.685375) scale(0.16 -0.16)">
     <defs>
      <path id="Cmsy10-a1" d="M 653 1472 
Q 600 1472 565 1512 
Q 531 1553 531 1600 
Q 531 1647 565 1687 
Q 600 1728 653 1728 
L 4325 1728 
Q 4375 1728 4408 1687 
Q 4441 1647 4441 1600 
Q 4441 1553 4408 1512 
Q 4375 1472 4325 1472 
L 653 1472 
z
" transform="scale(0.015625)"/>
      <path id="Cmr10-31" d="M 594 0 
L 594 225 
Q 1394 225 1394 428 
L 1394 3788 
Q 1063 3628 556 3628 
L 556 3853 
Q 1341 3853 1741 4263 
L 1831 4263 
Q 1853 4263 1873 4245 
Q 1894 4228 1894 4206 
L 1894 428 
Q 1894 225 2694 225 
L 2694 0 
L 594 0 
z
" transform="scale(0.015625)"/>
      <path id="Cmmi10-bc" d="M 647 109 
Q 647 144 672 213 
Q 850 584 1004 942 
Q 1159 1300 1282 1639 
Q 1406 1978 1509 2363 
L 1100 2363 
Q 866 2363 662 2216 
Q 459 2069 325 1844 
Q 313 1819 288 1819 
L 213 1819 
Q 153 1819 153 1881 
Q 153 1894 166 1919 
Q 375 2275 614 2517 
Q 853 2759 1153 2759 
L 3475 2759 
Q 3541 2759 3587 2715 
Q 3634 2672 3634 2597 
Q 3634 2503 3567 2433 
Q 3500 2363 3406 2363 
L 2591 2363 
Q 2488 1859 2478 1381 
Q 2478 766 2694 269 
Q 2713 231 2713 191 
Q 2713 122 2672 62 
Q 2631 3 2567 -34 
Q 2503 -72 2431 -72 
Q 2263 -72 2200 203 
Q 2138 478 2138 738 
Q 2138 1103 2200 1442 
Q 2263 1781 2400 2363 
L 1703 2363 
Q 1197 313 1094 103 
Q 1003 -72 844 -72 
Q 766 -72 706 -20 
Q 647 31 647 109 
z
" transform="scale(0.015625)"/>
      <path id="Cmr10-32" d="M 319 0 
L 319 172 
Q 319 188 331 206 
L 1325 1306 
Q 1550 1550 1690 1715 
Q 1831 1881 1968 2097 
Q 2106 2313 2186 2536 
Q 2266 2759 2266 3009 
Q 2266 3272 2169 3511 
Q 2072 3750 1880 3894 
Q 1688 4038 1416 4038 
Q 1138 4038 916 3870 
Q 694 3703 603 3438 
Q 628 3444 672 3444 
Q 816 3444 917 3347 
Q 1019 3250 1019 3097 
Q 1019 2950 917 2848 
Q 816 2747 672 2747 
Q 522 2747 420 2851 
Q 319 2956 319 3097 
Q 319 3338 409 3548 
Q 500 3759 670 3923 
Q 841 4088 1055 4175 
Q 1269 4263 1509 4263 
Q 1875 4263 2190 4108 
Q 2506 3953 2690 3670 
Q 2875 3388 2875 3009 
Q 2875 2731 2753 2481 
Q 2631 2231 2440 2026 
Q 2250 1822 1953 1562 
Q 1656 1303 1563 1216 
L 838 519 
L 1453 519 
Q 1906 519 2211 526 
Q 2516 534 2534 550 
Q 2609 631 2688 1141 
L 2875 1141 
L 2694 0 
L 319 0 
z
" transform="scale(0.015625)"/>
     </defs>
     <use xlink:href="#Cmsy10-a1" transform="translate(0 38.373438) scale(0.7)"/>
     <use xlink:href="#Cmr10-31" transform="translate(54.379883 38.373438) scale(0.7)"/>
     <use xlink:href="#Cmr10-31" transform="translate(89.379883 38.373438) scale(0.7)"/>
     <use xlink:href="#Cmmi10-bc" transform="translate(124.379883 38.373438) scale(0.7)"/>
     <use xlink:href="#Cmr10-32" transform="translate(65 -40.290625) scale(0.7)"/>
     <path d="M 0 12.585938 
L 0 18.835938 
L 164.267578 18.835938 
L 164.267578 12.585938 
L 0 12.585938 
z
"/>
    </g>
   </g>
   <g id="text_11">
    <!-- $\frac{\pi}{2}$ -->
    <g transform="translate(189.539404 125.703849) scale(0.16 -0.16)">
     <use xlink:href="#Cmmi10-bc" transform="translate(0 38.823437) scale(0.7)"/>
     <use xlink:href="#Cmr10-32" transform="translate(2 -39.840625) scale(0.7)"/>
     <path d="M 0 13.035937 
L 0 19.285937 
L 39.887695 19.285937 
L 39.887695 13.035937 
L 0 13.035937 
z
"/>
    </g>
   </g>
  </g>
 </g>
 <defs>
  <clipPath id="p740ce7ca1f">
   <rect x="13.655966" y="9.077622" width="296.168079" height="318.363677"/>
  </clipPath>
 </defs>
</svg>
