<?xml version="1.0" encoding="utf-8" standalone="no"?>
<!DOCTYPE svg PUBLIC "-//W3C//DTD SVG 1.1//EN"
  "http://www.w3.org/Graphics/SVG/1.1/DTD/svg11.dtd">
<svg xmlns:xlink="http://www.w3.org/1999/xlink" width="345.067525pt" height="337.397538pt" viewBox="0 0 345.067525 337.397538" xmlns="http://www.w3.org/2000/svg" version="1.1">
 <metadata>
  <rdf:RDF xmlns:dc="http://purl.org/dc/elements/1.1/" xmlns:cc="http://creativecommons.org/ns#" xmlns:rdf="http://www.w3.org/1999/02/22-rdf-syntax-ns#">
   <cc:Work>
    <dc:type rdf:resource="http://purl.org/dc/dcmitype/StillImage"/>
    <dc:date>2026-09-14T15:38:22.639974</dc:date>
    <dc:format>image/svg+xml</dc:format>
    <dc:creator>
     <cc:Agent>
      <dc:title>Matplotlib v3.6.2, https://matplotlib.org/</dc:title>
     </cc:Agent>
    </dc:creator>
   </cc:Work>
  </rdf:RDF>
 </metadata>
 <defs>
  <style type="text/css">*{stroke-linejoin: round; stroke-linecap: butt}</style>
 </defs>
 <g id="figure_1">
  <g id="patch_1">
   <path d="M 0 337.397538 
L 345.067525 337.397538 
L 345.067525 0 
L 0 0 
z
" style="fill: #ffffff"/>
  </g>
  <g id="axes_1">
   <g id="patch_2">
    <path d="M 13.129915 330.197538 
L 336.127454 330.197538 
L 336.127454 7.2 
L 13.129915 7.2 
z
" style="fill: #ffffff"/>
   </g>
   <g id="matplotlib.axis_1">
    <g id="xtick_1">
     <g id="line2d_1">
      <defs>
       <path id="mcc741abdff" d="M 0 0 
L 0 3.5 
" style="stroke: #000000; stroke-width: 0.8"/>
      </defs>
      <g>
       <use xlink:href="#mcc741abdff" x="19.341406" y="168.698769" style="stroke: #000000; stroke-width: 0.8"/>
      </g>
     </g>
     <g id="text_1">
      <!-- −1.5 -->
      <g transform="translate(7.2 183.297207) scale(0.1 -0.1)">
       <defs>
        <path id="DejaVuSans-2212" d="M 678 2272 
L 4684 2272 
L 4684 1741 
L 678 1741 
L 678 2272 
z
" transform="scale(0.015625)"/>
        <path id="DejaVuSans-31" d="M 794 531 
L 1825 531 
L 1825 4091 
L 703 3866 
L 703 4441 
L 1819 4666 
L 2450 4666 
L 2450 531 
L 3481 531 
L 3481 0 
L 794 0 
L 794 531 
z
" transform="scale(0.015625)"/>
        <path id="DejaVuSans-2e" d="M 684 794 
L 1344 794 
L 1344 0 
L 684 0 
L 684 794 
z
" transform="scale(0.015625)"/>
        <path id="DejaVuSans-35" d="M 691 4666 
L 3169 4666 
L 3169 4134 
L 1269 4134 
L 1269 2991 
Q 1406 3038 1543 3061 
Q 1681 3084 1819 3084 
Q 2600 3084 3056 2656 
Q 3513 2228 3513 1497 
Q 3513 744 3044 326 
Q 2575 -91 1722 -91 
Q 1428 -91 1123 -41 
Q 819 9 494 109 
L 494 744 
Q 775 591 1075 516 
Q 1375 441 1709 441 
Q 2250 441 2565 725 
Q 2881 1009 2881 1497 
Q 2881 1984 2565 2268 
Q 2250 2553 1709 2553 
Q 1456 2553 1204 2497 
Q 953 2441 691 2322 
L 691 4666 
z
" transform="scale(0.015625)"/>
       </defs>
       <use xlink:href="#DejaVuSans-2212"/>
       <use xlink:href="#DejaVuSans-31" x="83.789062"/>
       <use xlink:href="#DejaVuSans-2e" x="147.412109"/>
       <use xlink:href="#DejaVuSans-35" x="179.199219"/>
      </g>
     </g>
    </g>
    <g id="xtick_2">
     <g id="line2d_2">
      <g>
       <use xlink:href="#mcc741abdff" x="71.103832" y="168.698769" style="stroke: #000000; stroke-width: 0.8"/>
      </g>
     </g>
     <g id="text_2">
      <!-- −1.0 -->
      <g transform="translate(58.962426 183.297207) scale(0.1 -0.1)">
       <defs>
        <path id="DejaVuSans-30" d="M 2034 4250 
Q 1547 4250 1301 3770 
Q 1056 3291 1056 2328 
Q 1056 1369 1301 889 
Q 1547 409 2034 409 
Q 2525 409 2770 889 
Q 3016 1369 3016 2328 
Q 3016 3291 2770 3770 
Q 2525 4250 2034 4250 
z
M 2034 4750 
Q 2819 4750 3233 4129 
Q 3647 3509 3647 2328 
Q 3647 1150 3233 529 
Q 2819 -91 2034 -91 
Q 1250 -91 836 529 
Q 422 1150 422 2328 
Q 422 3509 836 4129 
Q 1250 4750 2034 4750 
z
" transform="scale(0.015625)"/>
       </defs>
       <use xlink:href="#DejaVuSans-2212"/>
       <use xlink:href="#DejaVuSans-31" x="83.789062"/>
       <use xlink:href="#DejaVuSans-2e" x="147.412109"/>
       <use xlink:href="#DejaVuSans-30" x="179.199219"/>
      </g>
     </g>
    </g>
    <g id="xtick_3">
     <g id="line2d_3">
      <g>
       <use xlink:href="#mcc741abdff" x="122.866258" y="168.698769" style="stroke: #000000; stroke-width: 0.8"/>
      </g>
     </g>
     <g id="text_3">
      <!-- −0.5 -->
      <g transform="translate(110.724852 183.297207) scale(0.1 -0.1)">
       <use xlink:href="#DejaVuSans-2212"/>
       <use xlink:href="#DejaVuSans-30" x="83.789062"/>
       <use xlink:href="#DejaVuSans-2e" x="147.412109"/>
       <use xlink:href="#DejaVuSans-35" x="179.199219"/>
      </g>
     </g>
    </g>
    <g id="xtick_4">
     <g id="line2d_4">
      <g>
       <use xlink:href="#mcc741abdff" x="174.628684" y="168.698769" style="stroke: #000000; stroke-width: 0.8"/>
      </g>
     </g>
    </g>
    <g id="xtick_5">
     <g id="line2d_5">
      <g>
       <use xlink:href="#mcc741abdff" x="226.39111" y="168.698769" style="stroke: #000000; stroke-width: 0.8"/>
      </g>
     </g>
     <g id="text_4">
      <!-- 0.5 -->
      <g transform="translate(218.439548 183.297207) scale(0.1 -0.1)">
       <use xlink:href="#DejaVuSans-30"/>
       <use xlink:href="#DejaVuSans-2e" x="63.623047"/>
       <use xlink:href="#DejaVuSans-35" x="95.410156"/>
      </g>
     </g>
    </g>
    <g id="xtick_6">
     <g id="line2d_6">
      <g>
       <use xlink:href="#mcc741abdff" x="278.153536" y="168.698769" style="stroke: #000000; stroke-width: 0.8"/>
      </g>
     </g>
     <g id="text_5">
      <!-- 1.0 -->
      <g transform="translate(270.201974 183.297207) scale(0.1 -0.1)">
       <use xlink:href="#DejaVuSans-31"/>
       <use xlink:href="#DejaVuSans-2e" x="63.623047"/>
       <use xlink:href="#DejaVuSans-30" x="95.410156"/>
      </g>
     </g>
    </g>
    <g id="xtick_7">
     <g id="line2d_7">
      <g>
       <use xlink:href="#mcc741abdff" x="329.915962" y="168.698769" style="stroke: #000000; stroke-width: 0.8"/>
      </g>
     </g>
     <g id="text_6">
      <!-- 1.5 -->
      <g transform="translate(321.9644 183.297207) scale(0.1 -0.1)">
       <use xlink:href="#DejaVuSans-31"/>
       <use xlink:href="#DejaVuSans-2e" x="63.623047"/>
       <use xlink:href="#DejaVuSans-35" x="95.410156"/>
      </g>
     </g>
    </g>
    <g id="xtick_8">
     <g id="line2d_8">
      <defs>
       <path id="mb8c6060a23" d="M 0 0 
L 0 2 
" style="stroke: #000000; stroke-width: 0.6"/>
      </defs>
      <g>
       <use xlink:href="#mb8c6060a23" x="29.693891" y="168.698769" style="stroke: #000000; stroke-width: 0.6"/>
      </g>
     </g>
    </g>
    <g id="xtick_9">
     <g id="line2d_9">
      <g>
       <use xlink:href="#mb8c6060a23" x="40.046377" y="168.698769" style="stroke: #000000; stroke-width: 0.6"/>
      </g>
     </g>
    </g>
    <g id="xtick_10">
     <g id="line2d_10">
      <g>
       <use xlink:href="#mb8c6060a23" x="50.398862" y="168.698769" style="stroke: #000000; stroke-width: 0.6"/>
      </g>
     </g>
    </g>
    <g id="xtick_11">
     <g id="line2d_11">
      <g>
       <use xlink:href="#mb8c6060a23" x="60.751347" y="168.698769" style="stroke: #000000; stroke-width: 0.6"/>
      </g>
     </g>
    </g>
    <g id="xtick_12">
     <g id="line2d_12">
      <g>
       <use xlink:href="#mb8c6060a23" x="81.456317" y="168.698769" style="stroke: #000000; stroke-width: 0.6"/>
      </g>
     </g>
    </g>
    <g id="xtick_13">
     <g id="line2d_13">
      <g>
       <use xlink:href="#mb8c6060a23" x="91.808803" y="168.698769" style="stroke: #000000; stroke-width: 0.6"/>
      </g>
     </g>
    </g>
    <g id="xtick_14">
     <g id="line2d_14">
      <g>
       <use xlink:href="#mb8c6060a23" x="102.161288" y="168.698769" style="stroke: #000000; stroke-width: 0.6"/>
      </g>
     </g>
    </g>
    <g id="xtick_15">
     <g id="line2d_15">
      <g>
       <use xlink:href="#mb8c6060a23" x="112.513773" y="168.698769" style="stroke: #000000; stroke-width: 0.6"/>
      </g>
     </g>
    </g>
    <g id="xtick_16">
     <g id="line2d_16">
      <g>
       <use xlink:href="#mb8c6060a23" x="133.218744" y="168.698769" style="stroke: #000000; stroke-width: 0.6"/>
      </g>
     </g>
    </g>
    <g id="xtick_17">
     <g id="line2d_17">
      <g>
       <use xlink:href="#mb8c6060a23" x="143.571229" y="168.698769" style="stroke: #000000; stroke-width: 0.6"/>
      </g>
     </g>
    </g>
    <g id="xtick_18">
     <g id="line2d_18">
      <g>
       <use xlink:href="#mb8c6060a23" x="153.923714" y="168.698769" style="stroke: #000000; stroke-width: 0.6"/>
      </g>
     </g>
    </g>
    <g id="xtick_19">
     <g id="line2d_19">
      <g>
       <use xlink:href="#mb8c6060a23" x="164.276199" y="168.698769" style="stroke: #000000; stroke-width: 0.6"/>
      </g>
     </g>
    </g>
    <g id="xtick_20">
     <g id="line2d_20">
      <g>
       <use xlink:href="#mb8c6060a23" x="184.98117" y="168.698769" style="stroke: #000000; stroke-width: 0.6"/>
      </g>
     </g>
    </g>
    <g id="xtick_21">
     <g id="line2d_21">
      <g>
       <use xlink:href="#mb8c6060a23" x="195.333655" y="168.698769" style="stroke: #000000; stroke-width: 0.6"/>
      </g>
     </g>
    </g>
    <g id="xtick_22">
     <g id="line2d_22">
      <g>
       <use xlink:href="#mb8c6060a23" x="205.68614" y="168.698769" style="stroke: #000000; stroke-width: 0.6"/>
      </g>
     </g>
    </g>
    <g id="xtick_23">
     <g id="line2d_23">
      <g>
       <use xlink:href="#mb8c6060a23" x="216.038625" y="168.698769" style="stroke: #000000; stroke-width: 0.6"/>
      </g>
     </g>
    </g>
    <g id="xtick_24">
     <g id="line2d_24">
      <g>
       <use xlink:href="#mb8c6060a23" x="236.743596" y="168.698769" style="stroke: #000000; stroke-width: 0.6"/>
      </g>
     </g>
    </g>
    <g id="xtick_25">
     <g id="line2d_25">
      <g>
       <use xlink:href="#mb8c6060a23" x="247.096081" y="168.698769" style="stroke: #000000; stroke-width: 0.6"/>
      </g>
     </g>
    </g>
    <g id="xtick_26">
     <g id="line2d_26">
      <g>
       <use xlink:href="#mb8c6060a23" x="257.448566" y="168.698769" style="stroke: #000000; stroke-width: 0.6"/>
      </g>
     </g>
    </g>
    <g id="xtick_27">
     <g id="line2d_27">
      <g>
       <use xlink:href="#mb8c6060a23" x="267.801051" y="168.698769" style="stroke: #000000; stroke-width: 0.6"/>
      </g>
     </g>
    </g>
    <g id="xtick_28">
     <g id="line2d_28">
      <g>
       <use xlink:href="#mb8c6060a23" x="288.506022" y="168.698769" style="stroke: #000000; stroke-width: 0.6"/>
      </g>
     </g>
    </g>
    <g id="xtick_29">
     <g id="line2d_29">
      <g>
       <use xlink:href="#mb8c6060a23" x="298.858507" y="168.698769" style="stroke: #000000; stroke-width: 0.6"/>
      </g>
     </g>
    </g>
    <g id="xtick_30">
     <g id="line2d_30">
      <g>
       <use xlink:href="#mb8c6060a23" x="309.210992" y="168.698769" style="stroke: #000000; stroke-width: 0.6"/>
      </g>
     </g>
    </g>
    <g id="xtick_31">
     <g id="line2d_31">
      <g>
       <use xlink:href="#mb8c6060a23" x="319.563477" y="168.698769" style="stroke: #000000; stroke-width: 0.6"/>
      </g>
     </g>
    </g>
   </g>
   <g id="matplotlib.axis_2">
    <g id="ytick_1">
     <g id="line2d_32">
      <defs>
       <path id="m240ddbb93d" d="M 0 0 
L -3.5 0 
" style="stroke: #000000; stroke-width: 0.8"/>
      </defs>
      <g>
       <use xlink:href="#m240ddbb93d" x="174.628684" y="323.986047" style="stroke: #000000; stroke-width: 0.8"/>
      </g>
     </g>
     <g id="text_7">
      <!-- −1.5 -->
      <g transform="translate(143.345872 327.785266) scale(0.1 -0.1)">
       <use xlink:href="#DejaVuSans-2212"/>
       <use xlink:href="#DejaVuSans-31" x="83.789062"/>
       <use xlink:href="#DejaVuSans-2e" x="147.412109"/>
       <use xlink:href="#DejaVuSans-35" x="179.199219"/>
      </g>
     </g>
    </g>
    <g id="ytick_2">
     <g id="line2d_33">
      <g>
       <use xlink:href="#m240ddbb93d" x="174.628684" y="272.223621" style="stroke: #000000; stroke-width: 0.8"/>
      </g>
     </g>
     <g id="text_8">
      <!-- −1.0 -->
      <g transform="translate(143.345872 276.02284) scale(0.1 -0.1)">
       <use xlink:href="#DejaVuSans-2212"/>
       <use xlink:href="#DejaVuSans-31" x="83.789062"/>
       <use xlink:href="#DejaVuSans-2e" x="147.412109"/>
       <use xlink:href="#DejaVuSans-30" x="179.199219"/>
      </g>
     </g>
    </g>
    <g id="ytick_3">
     <g id="line2d_34">
      <g>
       <use xlink:href="#m240ddbb93d" x="174.628684" y="220.461195" style="stroke: #000000; stroke-width: 0.8"/>
      </g>
     </g>
     <g id="text_9">
      <!-- −0.5 -->
      <g transform="translate(143.345872 224.260414) scale(0.1 -0.1)">
       <use xlink:href="#DejaVuSans-2212"/>
       <use xlink:href="#DejaVuSans-30" x="83.789062"/>
       <use xlink:href="#DejaVuSans-2e" x="147.412109"/>
       <use xlink:href="#DejaVuSans-35" x="179.199219"/>
      </g>
     </g>
    </g>
    <g id="ytick_4">
     <g id="line2d_35">
      <g>
       <use xlink:href="#m240ddbb93d" x="174.628684" y="168.698769" style="stroke: #000000; stroke-width: 0.8"/>
      </g>
     </g>
    </g>
    <g id="ytick_5">
     <g id="line2d_36">
      <g>
       <use xlink:href="#m240ddbb93d" x="174.628684" y="116.936343" style="stroke: #000000; stroke-width: 0.8"/>
      </g>
     </g>
     <g id="text_10">
      <!-- 0.5 -->
      <g transform="translate(151.725559 120.735562) scale(0.1 -0.1)">
       <use xlink:href="#DejaVuSans-30"/>
       <use xlink:href="#DejaVuSans-2e" x="63.623047"/>
       <use xlink:href="#DejaVuSans-35" x="95.410156"/>
      </g>
     </g>
    </g>
    <g id="ytick_6">
     <g id="line2d_37">
      <g>
       <use xlink:href="#m240ddbb93d" x="174.628684" y="65.173917" style="stroke: #000000; stroke-width: 0.8"/>
      </g>
     </g>
     <g id="text_11">
      <!-- 1.0 -->
      <g transform="translate(151.725559 68.973136) scale(0.1 -0.1)">
       <use xlink:href="#DejaVuSans-31"/>
       <use xlink:href="#DejaVuSans-2e" x="63.623047"/>
       <use xlink:href="#DejaVuSans-30" x="95.410156"/>
      </g>
     </g>
    </g>
    <g id="ytick_7">
     <g id="line2d_38">
      <g>
       <use xlink:href="#m240ddbb93d" x="174.628684" y="13.411491" style="stroke: #000000; stroke-width: 0.8"/>
      </g>
     </g>
     <g id="text_12">
      <!-- 1.5 -->
      <g transform="translate(151.725559 17.21071) scale(0.1 -0.1)">
       <use xlink:href="#DejaVuSans-31"/>
       <use xlink:href="#DejaVuSans-2e" x="63.623047"/>
       <use xlink:href="#DejaVuSans-35" x="95.410156"/>
      </g>
     </g>
    </g>
    <g id="ytick_8">
     <g id="line2d_39">
      <defs>
       <path id="m4f3a9608bc" d="M 0 0 
L -2 0 
" style="stroke: #000000; stroke-width: 0.6"/>
      </defs>
      <g>
       <use xlink:href="#m4f3a9608bc" x="174.628684" y="313.633562" style="stroke: #000000; stroke-width: 0.6"/>
      </g>
     </g>
    </g>
    <g id="ytick_9">
     <g id="line2d_40">
      <g>
       <use xlink:href="#m4f3a9608bc" x="174.628684" y="303.281077" style="stroke: #000000; stroke-width: 0.6"/>
      </g>
     </g>
    </g>
    <g id="ytick_10">
     <g id="line2d_41">
      <g>
       <use xlink:href="#m4f3a9608bc" x="174.628684" y="292.928592" style="stroke: #000000; stroke-width: 0.6"/>
      </g>
     </g>
    </g>
    <g id="ytick_11">
     <g id="line2d_42">
      <g>
       <use xlink:href="#m4f3a9608bc" x="174.628684" y="282.576107" style="stroke: #000000; stroke-width: 0.6"/>
      </g>
     </g>
    </g>
    <g id="ytick_12">
     <g id="line2d_43">
      <g>
       <use xlink:href="#m4f3a9608bc" x="174.628684" y="261.871136" style="stroke: #000000; stroke-width: 0.6"/>
      </g>
     </g>
    </g>
    <g id="ytick_13">
     <g id="line2d_44">
      <g>
       <use xlink:href="#m4f3a9608bc" x="174.628684" y="251.518651" style="stroke: #000000; stroke-width: 0.6"/>
      </g>
     </g>
    </g>
    <g id="ytick_14">
     <g id="line2d_45">
      <g>
       <use xlink:href="#m4f3a9608bc" x="174.628684" y="241.166166" style="stroke: #000000; stroke-width: 0.6"/>
      </g>
     </g>
    </g>
    <g id="ytick_15">
     <g id="line2d_46">
      <g>
       <use xlink:href="#m4f3a9608bc" x="174.628684" y="230.81368" style="stroke: #000000; stroke-width: 0.6"/>
      </g>
     </g>
    </g>
    <g id="ytick_16">
     <g id="line2d_47">
      <g>
       <use xlink:href="#m4f3a9608bc" x="174.628684" y="210.10871" style="stroke: #000000; stroke-width: 0.6"/>
      </g>
     </g>
    </g>
    <g id="ytick_17">
     <g id="line2d_48">
      <g>
       <use xlink:href="#m4f3a9608bc" x="174.628684" y="199.756225" style="stroke: #000000; stroke-width: 0.6"/>
      </g>
     </g>
    </g>
    <g id="ytick_18">
     <g id="line2d_49">
      <g>
       <use xlink:href="#m4f3a9608bc" x="174.628684" y="189.40374" style="stroke: #000000; stroke-width: 0.6"/>
      </g>
     </g>
    </g>
    <g id="ytick_19">
     <g id="line2d_50">
      <g>
       <use xlink:href="#m4f3a9608bc" x="174.628684" y="179.051254" style="stroke: #000000; stroke-width: 0.6"/>
      </g>
     </g>
    </g>
    <g id="ytick_20">
     <g id="line2d_51">
      <g>
       <use xlink:href="#m4f3a9608bc" x="174.628684" y="158.346284" style="stroke: #000000; stroke-width: 0.6"/>
      </g>
     </g>
    </g>
    <g id="ytick_21">
     <g id="line2d_52">
      <g>
       <use xlink:href="#m4f3a9608bc" x="174.628684" y="147.993799" style="stroke: #000000; stroke-width: 0.6"/>
      </g>
     </g>
    </g>
    <g id="ytick_22">
     <g id="line2d_53">
      <g>
       <use xlink:href="#m4f3a9608bc" x="174.628684" y="137.641314" style="stroke: #000000; stroke-width: 0.6"/>
      </g>
     </g>
    </g>
    <g id="ytick_23">
     <g id="line2d_54">
      <g>
       <use xlink:href="#m4f3a9608bc" x="174.628684" y="127.288828" style="stroke: #000000; stroke-width: 0.6"/>
      </g>
     </g>
    </g>
    <g id="ytick_24">
     <g id="line2d_55">
      <g>
       <use xlink:href="#m4f3a9608bc" x="174.628684" y="106.583858" style="stroke: #000000; stroke-width: 0.6"/>
      </g>
     </g>
    </g>
    <g id="ytick_25">
     <g id="line2d_56">
      <g>
       <use xlink:href="#m4f3a9608bc" x="174.628684" y="96.231373" style="stroke: #000000; stroke-width: 0.6"/>
      </g>
     </g>
    </g>
    <g id="ytick_26">
     <g id="line2d_57">
      <g>
       <use xlink:href="#m4f3a9608bc" x="174.628684" y="85.878888" style="stroke: #000000; stroke-width: 0.6"/>
      </g>
     </g>
    </g>
    <g id="ytick_27">
     <g id="line2d_58">
      <g>
       <use xlink:href="#m4f3a9608bc" x="174.628684" y="75.526402" style="stroke: #000000; stroke-width: 0.6"/>
      </g>
     </g>
    </g>
    <g id="ytick_28">
     <g id="line2d_59">
      <g>
       <use xlink:href="#m4f3a9608bc" x="174.628684" y="54.821432" style="stroke: #000000; stroke-width: 0.6"/>
      </g>
     </g>
    </g>
    <g id="ytick_29">
     <g id="line2d_60">
      <g>
       <use xlink:href="#m4f3a9608bc" x="174.628684" y="44.468947" style="stroke: #000000; stroke-width: 0.6"/>
      </g>
     </g>
    </g>
    <g id="ytick_30">
     <g id="line2d_61">
      <g>
       <use xlink:href="#m4f3a9608bc" x="174.628684" y="34.116462" style="stroke: #000000; stroke-width: 0.6"/>
      </g>
     </g>
    </g>
    <g id="ytick_31">
     <g id="line2d_62">
      <g>
       <use xlink:href="#m4f3a9608bc" x="174.628684" y="23.763976" style="stroke: #000000; stroke-width: 0.6"/>
      </g>
     </g>
    </g>
   </g>
   <g id="line2d_63">
    <path d="M 278.153536 168.698769 
L 278.0646 164.408509 
L 277.57301 157.75067 
L 276.945885 152.932174 
L 276.47325 150.122455 
L 275.448044 145.18597 
L 274.142985 140.162844 
L 272.956155 136.308902 
L 271.150349 131.269326 
L 268.573355 125.204013 
L 267.43096 122.817045 
L 264.930329 118.07261 
L 262.085488 113.302899 
L 260.224185 110.468147 
L 256.342969 105.136432 
L 254.588628 102.943143 
L 252.013259 99.93088 
L 248.027316 95.691675 
L 246.007741 93.715936 
L 241.270079 89.475543 
L 237.155903 86.189728 
L 232.968832 83.177882 
L 227.033065 79.417327 
L 222.028962 76.66286 
L 215.517745 73.591043 
L 210.618147 71.630991 
L 206.600757 70.234656 
L 199.134713 68.116218 
L 197.46271 67.723514 
L 191.55979 66.567811 
L 185.051493 65.699934 
L 180.00314 65.313518 
L 175.155158 65.175256 
L 171.679942 65.215921 
L 164.554884 65.665214 
L 162.080976 65.937152 
L 156.801193 66.72046 
L 152.084929 67.658312 
L 147.506141 68.789998 
L 140.787693 70.861239 
L 135.36984 72.906608 
L 130.891542 74.866699 
L 128.008834 76.265093 
L 124.467902 78.13779 
L 118.167214 81.926093 
L 113.550206 85.111602 
L 110.014524 87.813633 
L 105.787552 91.379344 
L 99.826184 97.130753 
L 95.938177 101.42917 
L 94.562194 103.072919 
L 90.57738 108.260592 
L 89.027066 110.477142 
L 85.164671 116.606684 
L 81.884552 122.699628 
L 79.241667 128.46555 
L 76.708154 135.098698 
L 75.213707 139.818718 
L 73.77159 145.348362 
L 72.857593 149.724053 
L 72.308043 152.954523 
L 71.854088 156.257814 
L 71.27966 162.667665 
L 71.108256 169.655851 
L 71.381296 176.27319 
L 71.718433 179.962654 
L 72.781404 187.260196 
L 73.125789 189.05945 
L 74.746114 195.917645 
L 76.511745 201.720902 
L 77.60946 204.818917 
L 80.486008 211.763273 
L 81.733072 214.391222 
L 84.257891 219.20139 
L 88.351724 225.91486 
L 89.624877 227.789782 
L 92.617234 231.877223 
L 96.336099 236.431082 
L 100.013197 240.461741 
L 102.308563 242.774373 
L 105.012566 245.321161 
L 109.901955 249.493852 
L 112.643693 251.615932 
L 117.610061 255.106359 
L 122.579304 258.187634 
L 125.368702 259.752869 
L 132.118404 263.093001 
L 134.615307 264.178215 
L 138.367766 265.665469 
L 143.440918 267.414109 
L 149.671579 269.170347 
L 156.431157 270.611698 
L 162.660728 271.529519 
L 165.986962 271.862308 
L 170.699937 272.149047 
L 174.181803 272.222657 
L 177.740773 272.176834 
L 183.923487 271.805518 
L 186.621933 271.526572 
L 193.367652 270.513533 
L 199.81251 269.113758 
L 201.661888 268.631751 
L 208.568507 266.502059 
L 214.698275 264.154638 
L 219.191984 262.141304 
L 224.038712 259.671535 
L 227.286442 257.831005 
L 231.824384 254.989249 
L 237.134524 251.224008 
L 240.277644 248.746312 
L 243.544278 245.951834 
L 248.512256 241.215063 
L 251.167885 238.406343 
L 253.75348 235.457002 
L 256.031828 232.659094 
L 258.193277 229.80813 
L 260.313158 226.79839 
L 263.016176 222.59725 
L 265.658348 218.003894 
L 268.489315 212.374586 
L 270.832222 206.938466 
L 272.794355 201.575755 
L 274.858157 194.611079 
L 275.922424 190.075704 
L 276.745238 185.716539 
L 277.660723 178.788073 
L 277.924691 175.578449 
L 278.153536 168.698769 
L 278.153536 168.698769 
" clip-path="url(#pb6ba7e6a78)" style="fill: none; stroke: #0000ff; stroke-linecap: square"/>
   </g>
   <g id="line2d_64">
    <path d="M 122.866258 323.986047 
L 122.866258 13.411491 
" clip-path="url(#pb6ba7e6a78)" style="fill: none; stroke-dasharray: 3.7,1.6; stroke-dashoffset: 0; stroke: #ff0000"/>
   </g>
   <g id="patch_3">
    <path d="M 174.628684 330.197538 
L 174.628684 7.2 
" style="fill: none; stroke: #000000; stroke-width: 0.8; stroke-linejoin: miter; stroke-linecap: square"/>
   </g>
   <g id="patch_4">
    <path d="M 13.129915 168.698769 
L 336.127454 168.698769 
" style="fill: none; stroke: #000000; stroke-width: 0.8; stroke-linejoin: miter; stroke-linecap: square"/>
   </g>
   <g id="text_13">
    <!-- $x=a$ -->
    <g transform="translate(125.373107 43.155829) scale(0.14 -0.14)">
     <defs>
      <path id="Cmmi10-78" d="M 500 184 
Q 613 97 819 97 
Q 1019 97 1172 289 
Q 1325 481 1381 709 
L 1672 1844 
Q 1741 2153 1741 2266 
Q 1741 2425 1652 2544 
Q 1563 2663 1403 2663 
Q 1200 2663 1022 2536 
Q 844 2409 722 2214 
Q 600 2019 550 1819 
Q 538 1778 500 1778 
L 422 1778 
Q 372 1778 372 1838 
L 372 1856 
Q 434 2094 584 2320 
Q 734 2547 951 2687 
Q 1169 2828 1416 2828 
Q 1650 2828 1839 2703 
Q 2028 2578 2106 2363 
Q 2216 2559 2386 2693 
Q 2556 2828 2759 2828 
Q 2897 2828 3040 2779 
Q 3184 2731 3275 2631 
Q 3366 2531 3366 2381 
Q 3366 2219 3261 2101 
Q 3156 1984 2994 1984 
Q 2891 1984 2822 2050 
Q 2753 2116 2753 2216 
Q 2753 2350 2845 2451 
Q 2938 2553 3066 2572 
Q 2950 2663 2747 2663 
Q 2541 2663 2389 2472 
Q 2238 2281 2175 2047 
L 1894 916 
Q 1825 659 1825 494 
Q 1825 331 1917 214 
Q 2009 97 2163 97 
Q 2463 97 2698 361 
Q 2934 625 3009 941 
Q 3022 978 3059 978 
L 3138 978 
Q 3163 978 3178 961 
Q 3194 944 3194 922 
Q 3194 916 3188 903 
Q 3097 522 2806 225 
Q 2516 -72 2150 -72 
Q 1916 -72 1727 54 
Q 1538 181 1459 397 
Q 1359 209 1182 68 
Q 1006 -72 806 -72 
Q 669 -72 523 -23 
Q 378 25 287 125 
Q 197 225 197 378 
Q 197 528 301 651 
Q 406 775 563 775 
Q 669 775 741 711 
Q 813 647 813 544 
Q 813 409 723 309 
Q 634 209 500 184 
z
" transform="scale(0.015625)"/>
      <path id="Cmr10-3d" d="M 481 850 
Q 428 850 393 890 
Q 359 931 359 978 
Q 359 1031 393 1068 
Q 428 1106 481 1106 
L 4500 1106 
Q 4547 1106 4581 1068 
Q 4616 1031 4616 978 
Q 4616 931 4581 890 
Q 4547 850 4500 850 
L 481 850 
z
M 481 2094 
Q 428 2094 393 2131 
Q 359 2169 359 2222 
Q 359 2269 393 2309 
Q 428 2350 481 2350 
L 4500 2350 
Q 4547 2350 4581 2309 
Q 4616 2269 4616 2222 
Q 4616 2169 4581 2131 
Q 4547 2094 4500 2094 
L 481 2094 
z
" transform="scale(0.015625)"/>
      <path id="Cmmi10-61" d="M 1113 -72 
Q 709 -72 476 233 
Q 244 538 244 953 
Q 244 1363 456 1803 
Q 669 2244 1030 2536 
Q 1391 2828 1806 2828 
Q 1997 2828 2147 2725 
Q 2297 2622 2381 2444 
Q 2453 2700 2663 2700 
Q 2744 2700 2798 2651 
Q 2853 2603 2853 2522 
Q 2853 2503 2851 2493 
Q 2850 2484 2847 2472 
L 2400 684 
Q 2356 494 2356 372 
Q 2356 97 2541 97 
Q 2741 97 2845 351 
Q 2950 606 3022 941 
Q 3034 978 3072 978 
L 3150 978 
Q 3175 978 3190 956 
Q 3206 934 3206 916 
Q 3094 469 2961 198 
Q 2828 -72 2528 -72 
Q 2313 -72 2147 54 
Q 1981 181 1941 391 
Q 1528 -72 1113 -72 
z
M 1119 97 
Q 1350 97 1567 270 
Q 1784 444 1941 678 
Q 1947 684 1947 697 
L 2291 2088 
L 2297 2106 
Q 2259 2334 2132 2498 
Q 2006 2663 1791 2663 
Q 1575 2663 1389 2486 
Q 1203 2309 1075 2069 
Q 950 1813 836 1366 
Q 722 919 722 672 
Q 722 450 817 273 
Q 913 97 1119 97 
z
" transform="scale(0.015625)"/>
     </defs>
     <use xlink:href="#Cmmi10-78" transform="translate(0 0.8125)"/>
     <use xlink:href="#Cmr10-3d" transform="translate(74.638672 0.8125)"/>
     <use xlink:href="#Cmmi10-61" transform="translate(169.882812 0.8125)"/>
    </g>
   </g>
  </g>
 </g>
 <defs>
  <clipPath id="pb6ba7e6a78">
   <rect x="13.129915" y="7.2" width="322.997538" height="322.997538"/>
  </clipPath>
 </defs>
</svg>
