<?xml version="1.0" encoding="utf-8" standalone="no"?>
<!DOCTYPE svg PUBLIC "-//W3C//DTD SVG 1.1//EN"
  "http://www.w3.org/Graphics/SVG/1.1/DTD/svg11.dtd">
<svg xmlns:xlink="http://www.w3.org/1999/xlink" width="453.6pt" height="337.397538pt" viewBox="0 0 453.6 337.397538" xmlns="http://www.w3.org/2000/svg" version="1.1">
 <metadata>
  <rdf:RDF xmlns:dc="http://purl.org/dc/elements/1.1/" xmlns:cc="http://creativecommons.org/ns#" xmlns:rdf="http://www.w3.org/1999/02/22-rdf-syntax-ns#">
   <cc:Work>
    <dc:type rdf:resource="http://purl.org/dc/dcmitype/StillImage"/>
    <dc:date>2025-10-27T11:46:11.034331</dc:date>
    <dc:format>image/svg+xml</dc:format>
    <dc:creator>
     <cc:Agent>
      <dc:title>Matplotlib v3.6.2, https://matplotlib.org/</dc:title>
     </cc:Agent>
    </dc:creator>
   </cc:Work>
  </rdf:RDF>
 </metadata>
 <defs>
  <style type="text/css">*{stroke-linejoin: round; stroke-linecap: butt}</style>
 </defs>
 <g id="figure_1">
  <g id="patch_1">
   <path d="M 0 337.397538 
L 453.6 337.397538 
L 453.6 0 
L 0 0 
z
" style="fill: #ffffff"/>
  </g>
  <g id="axes_1">
   <g id="patch_2">
    <path d="M 7.2 330.197538 
L 446.4 330.197538 
L 446.4 7.2 
L 7.2 7.2 
z
" style="fill: #ffffff"/>
   </g>
   <g id="matplotlib.axis_1">
    <g id="xtick_1">
     <g id="line2d_1">
      <defs>
       <path id="m327106f026" d="M 0 0 
L 0 3.5 
" style="stroke: #000000; stroke-width: 0.8"/>
      </defs>
      <g>
       <use xlink:href="#m327106f026" x="68.434615" y="168.698769" style="stroke: #000000; stroke-width: 0.8"/>
      </g>
     </g>
     <g id="text_1">
      <!-- $-\frac{3}{2} \, \pi$ -->
      <g transform="translate(58.584615 184.298769) scale(0.1 -0.1)">
       <defs>
        <path id="Cmsy10-a1" d="M 653 1472 
Q 600 1472 565 1512 
Q 531 1553 531 1600 
Q 531 1647 565 1687 
Q 600 1728 653 1728 
L 4325 1728 
Q 4375 1728 4408 1687 
Q 4441 1647 4441 1600 
Q 4441 1553 4408 1512 
Q 4375 1472 4325 1472 
L 653 1472 
z
" transform="scale(0.015625)"/>
        <path id="Cmr10-33" d="M 609 494 
Q 759 275 1012 169 
Q 1266 63 1556 63 
Q 1928 63 2084 380 
Q 2241 697 2241 1100 
Q 2241 1281 2208 1462 
Q 2175 1644 2097 1800 
Q 2019 1956 1883 2050 
Q 1747 2144 1550 2144 
L 1125 2144 
Q 1069 2144 1069 2203 
L 1069 2259 
Q 1069 2309 1125 2309 
L 1478 2338 
Q 1703 2338 1851 2506 
Q 2000 2675 2069 2917 
Q 2138 3159 2138 3378 
Q 2138 3684 1994 3881 
Q 1850 4078 1556 4078 
Q 1313 4078 1091 3986 
Q 869 3894 738 3706 
Q 750 3709 759 3711 
Q 769 3713 781 3713 
Q 925 3713 1022 3613 
Q 1119 3513 1119 3372 
Q 1119 3234 1022 3134 
Q 925 3034 781 3034 
Q 641 3034 541 3134 
Q 441 3234 441 3372 
Q 441 3647 606 3850 
Q 772 4053 1033 4158 
Q 1294 4263 1556 4263 
Q 1750 4263 1965 4205 
Q 2181 4147 2356 4039 
Q 2531 3931 2642 3762 
Q 2753 3594 2753 3378 
Q 2753 3109 2633 2881 
Q 2513 2653 2303 2487 
Q 2094 2322 1844 2241 
Q 2122 2188 2372 2031 
Q 2622 1875 2773 1631 
Q 2925 1388 2925 1106 
Q 2925 753 2731 467 
Q 2538 181 2222 20 
Q 1906 -141 1556 -141 
Q 1256 -141 954 -26 
Q 653 88 461 316 
Q 269 544 269 863 
Q 269 1022 375 1128 
Q 481 1234 641 1234 
Q 744 1234 830 1186 
Q 916 1138 964 1050 
Q 1013 963 1013 863 
Q 1013 706 903 600 
Q 794 494 641 494 
L 609 494 
z
" transform="scale(0.015625)"/>
        <path id="Cmr10-32" d="M 319 0 
L 319 172 
Q 319 188 331 206 
L 1325 1306 
Q 1550 1550 1690 1715 
Q 1831 1881 1968 2097 
Q 2106 2313 2186 2536 
Q 2266 2759 2266 3009 
Q 2266 3272 2169 3511 
Q 2072 3750 1880 3894 
Q 1688 4038 1416 4038 
Q 1138 4038 916 3870 
Q 694 3703 603 3438 
Q 628 3444 672 3444 
Q 816 3444 917 3347 
Q 1019 3250 1019 3097 
Q 1019 2950 917 2848 
Q 816 2747 672 2747 
Q 522 2747 420 2851 
Q 319 2956 319 3097 
Q 319 3338 409 3548 
Q 500 3759 670 3923 
Q 841 4088 1055 4175 
Q 1269 4263 1509 4263 
Q 1875 4263 2190 4108 
Q 2506 3953 2690 3670 
Q 2875 3388 2875 3009 
Q 2875 2731 2753 2481 
Q 2631 2231 2440 2026 
Q 2250 1822 1953 1562 
Q 1656 1303 1563 1216 
L 838 519 
L 1453 519 
Q 1906 519 2211 526 
Q 2516 534 2534 550 
Q 2609 631 2688 1141 
L 2875 1141 
L 2694 0 
L 319 0 
z
" transform="scale(0.015625)"/>
        <path id="Cmmi10-bc" d="M 647 109 
Q 647 144 672 213 
Q 850 584 1004 942 
Q 1159 1300 1282 1639 
Q 1406 1978 1509 2363 
L 1100 2363 
Q 866 2363 662 2216 
Q 459 2069 325 1844 
Q 313 1819 288 1819 
L 213 1819 
Q 153 1819 153 1881 
Q 153 1894 166 1919 
Q 375 2275 614 2517 
Q 853 2759 1153 2759 
L 3475 2759 
Q 3541 2759 3587 2715 
Q 3634 2672 3634 2597 
Q 3634 2503 3567 2433 
Q 3500 2363 3406 2363 
L 2591 2363 
Q 2488 1859 2478 1381 
Q 2478 766 2694 269 
Q 2713 231 2713 191 
Q 2713 122 2672 62 
Q 2631 3 2567 -34 
Q 2503 -72 2431 -72 
Q 2263 -72 2200 203 
Q 2138 478 2138 738 
Q 2138 1103 2200 1442 
Q 2263 1781 2400 2363 
L 1703 2363 
Q 1197 313 1094 103 
Q 1003 -72 844 -72 
Q 766 -72 706 -20 
Q 647 31 647 109 
z
" transform="scale(0.015625)"/>
       </defs>
       <use xlink:href="#Cmsy10-a1" transform="translate(0 0.33125)"/>
       <use xlink:href="#Cmr10-33" transform="translate(77.685547 39.373438) scale(0.7)"/>
       <use xlink:href="#Cmr10-32" transform="translate(77.685547 -40.045312) scale(0.7)"/>
       <use xlink:href="#Cmmi10-bc" transform="translate(139.818001 0.33125)"/>
       <path d="M 77.685547 12.83125 
L 77.685547 19.08125 
L 112.685547 19.08125 
L 112.685547 12.83125 
L 77.685547 12.83125 
z
"/>
      </g>
     </g>
    </g>
    <g id="xtick_2">
     <g id="line2d_2">
      <g>
       <use xlink:href="#m327106f026" x="174.011538" y="168.698769" style="stroke: #000000; stroke-width: 0.8"/>
      </g>
     </g>
     <g id="text_2">
      <!-- $-\frac{1}{2} \, \pi$ -->
      <g transform="translate(164.161538 184.198769) scale(0.1 -0.1)">
       <defs>
        <path id="Cmr10-31" d="M 594 0 
L 594 225 
Q 1394 225 1394 428 
L 1394 3788 
Q 1063 3628 556 3628 
L 556 3853 
Q 1341 3853 1741 4263 
L 1831 4263 
Q 1853 4263 1873 4245 
Q 1894 4228 1894 4206 
L 1894 428 
Q 1894 225 2694 225 
L 2694 0 
L 594 0 
z
" transform="scale(0.015625)"/>
       </defs>
       <use xlink:href="#Cmsy10-a1" transform="translate(0 0.873437)"/>
       <use xlink:href="#Cmr10-31" transform="translate(77.685547 38.373438) scale(0.7)"/>
       <use xlink:href="#Cmr10-32" transform="translate(77.685547 -39.503125) scale(0.7)"/>
       <use xlink:href="#Cmmi10-bc" transform="translate(139.818001 0.873437)"/>
       <path d="M 77.685547 13.373437 
L 77.685547 19.623437 
L 112.685547 19.623437 
L 112.685547 13.373437 
L 77.685547 13.373437 
z
"/>
      </g>
     </g>
    </g>
    <g id="xtick_3">
     <g id="line2d_3">
      <g>
       <use xlink:href="#m327106f026" x="279.588462" y="168.698769" style="stroke: #000000; stroke-width: 0.8"/>
      </g>
     </g>
     <g id="text_3">
      <!-- $\frac{1}{2} \, \pi$ -->
      <g transform="translate(273.588462 184.198769) scale(0.1 -0.1)">
       <use xlink:href="#Cmr10-31" transform="translate(0 38.373438) scale(0.7)"/>
       <use xlink:href="#Cmr10-32" transform="translate(0 -39.503125) scale(0.7)"/>
       <use xlink:href="#Cmmi10-bc" transform="translate(62.132454 0.873437)"/>
       <path d="M 0 13.373437 
L 0 19.623437 
L 35 19.623437 
L 35 13.373437 
L 0 13.373437 
z
"/>
      </g>
     </g>
    </g>
    <g id="xtick_4">
     <g id="line2d_4">
      <g>
       <use xlink:href="#m327106f026" x="385.165385" y="168.698769" style="stroke: #000000; stroke-width: 0.8"/>
      </g>
     </g>
     <g id="text_4">
      <!-- $\frac{3}{2} \, \pi$ -->
      <g transform="translate(379.165385 184.298769) scale(0.1 -0.1)">
       <use xlink:href="#Cmr10-33" transform="translate(0 39.373438) scale(0.7)"/>
       <use xlink:href="#Cmr10-32" transform="translate(0 -40.045312) scale(0.7)"/>
       <use xlink:href="#Cmmi10-bc" transform="translate(62.132454 0.33125)"/>
       <path d="M 0 12.83125 
L 0 19.08125 
L 35 19.08125 
L 35 12.83125 
L 0 12.83125 
z
"/>
      </g>
     </g>
    </g>
   </g>
   <g id="matplotlib.axis_2">
    <g id="ytick_1">
     <g id="line2d_5">
      <defs>
       <path id="md77a185aa5" d="M 0 0 
L -3.5 0 
" style="stroke: #000000; stroke-width: 0.8"/>
      </defs>
      <g>
       <use xlink:href="#md77a185aa5" x="226.8" y="323.986047" style="stroke: #000000; stroke-width: 0.8"/>
      </g>
     </g>
     <g id="text_5">
      <!-- −10 -->
      <g transform="translate(198.695312 327.785266) scale(0.1 -0.1)">
       <defs>
        <path id="DejaVuSans-2212" d="M 678 2272 
L 4684 2272 
L 4684 1741 
L 678 1741 
L 678 2272 
z
" transform="scale(0.015625)"/>
        <path id="DejaVuSans-31" d="M 794 531 
L 1825 531 
L 1825 4091 
L 703 3866 
L 703 4441 
L 1819 4666 
L 2450 4666 
L 2450 531 
L 3481 531 
L 3481 0 
L 794 0 
L 794 531 
z
" transform="scale(0.015625)"/>
        <path id="DejaVuSans-30" d="M 2034 4250 
Q 1547 4250 1301 3770 
Q 1056 3291 1056 2328 
Q 1056 1369 1301 889 
Q 1547 409 2034 409 
Q 2525 409 2770 889 
Q 3016 1369 3016 2328 
Q 3016 3291 2770 3770 
Q 2525 4250 2034 4250 
z
M 2034 4750 
Q 2819 4750 3233 4129 
Q 3647 3509 3647 2328 
Q 3647 1150 3233 529 
Q 2819 -91 2034 -91 
Q 1250 -91 836 529 
Q 422 1150 422 2328 
Q 422 3509 836 4129 
Q 1250 4750 2034 4750 
z
" transform="scale(0.015625)"/>
       </defs>
       <use xlink:href="#DejaVuSans-2212"/>
       <use xlink:href="#DejaVuSans-31" x="83.789062"/>
       <use xlink:href="#DejaVuSans-30" x="147.412109"/>
      </g>
     </g>
    </g>
    <g id="ytick_2">
     <g id="line2d_6">
      <g>
       <use xlink:href="#md77a185aa5" x="226.8" y="246.342408" style="stroke: #000000; stroke-width: 0.8"/>
      </g>
     </g>
     <g id="text_6">
      <!-- −5 -->
      <g transform="translate(205.057812 250.141627) scale(0.1 -0.1)">
       <defs>
        <path id="DejaVuSans-35" d="M 691 4666 
L 3169 4666 
L 3169 4134 
L 1269 4134 
L 1269 2991 
Q 1406 3038 1543 3061 
Q 1681 3084 1819 3084 
Q 2600 3084 3056 2656 
Q 3513 2228 3513 1497 
Q 3513 744 3044 326 
Q 2575 -91 1722 -91 
Q 1428 -91 1123 -41 
Q 819 9 494 109 
L 494 744 
Q 775 591 1075 516 
Q 1375 441 1709 441 
Q 2250 441 2565 725 
Q 2881 1009 2881 1497 
Q 2881 1984 2565 2268 
Q 2250 2553 1709 2553 
Q 1456 2553 1204 2497 
Q 953 2441 691 2322 
L 691 4666 
z
" transform="scale(0.015625)"/>
       </defs>
       <use xlink:href="#DejaVuSans-2212"/>
       <use xlink:href="#DejaVuSans-35" x="83.789062"/>
      </g>
     </g>
    </g>
    <g id="ytick_3">
     <g id="line2d_7">
      <g>
       <use xlink:href="#md77a185aa5" x="226.8" y="91.05513" style="stroke: #000000; stroke-width: 0.8"/>
      </g>
     </g>
     <g id="text_7">
      <!-- 5 -->
      <g transform="translate(213.4375 94.854349) scale(0.1 -0.1)">
       <use xlink:href="#DejaVuSans-35"/>
      </g>
     </g>
    </g>
    <g id="ytick_4">
     <g id="line2d_8">
      <g>
       <use xlink:href="#md77a185aa5" x="226.8" y="13.411491" style="stroke: #000000; stroke-width: 0.8"/>
      </g>
     </g>
     <g id="text_8">
      <!-- 10 -->
      <g transform="translate(207.075 17.21071) scale(0.1 -0.1)">
       <use xlink:href="#DejaVuSans-31"/>
       <use xlink:href="#DejaVuSans-30" x="63.623047"/>
      </g>
     </g>
    </g>
   </g>
   <g id="line2d_9">
    <path d="M 15.646154 168.698769 
L 23.685675 164.911343 
L 28.343448 162.535505 
L 32.955863 159.908874 
L 36.720645 157.445333 
L 39.203037 155.593363 
L 42.068179 153.144334 
L 44.309524 150.917475 
L 46.58258 148.281841 
L 48.416112 145.788703 
L 50.249645 142.858595 
L 51.829402 139.871483 
L 53.23879 136.729462 
L 54.705002 132.827507 
L 56.105343 128.28806 
L 57.170046 124.119284 
L 58.234749 119.11602 
L 59.304532 112.953589 
L 60.310107 105.722106 
L 61.172028 97.964795 
L 62.035239 88.138075 
L 62.842665 76.238022 
L 63.576689 62.023379 
L 64.256196 44.448629 
L 64.902208 21.50798 
L 65.367877 -1 
L 65.367877 -1 
" clip-path="url(#pf041b1a807)" style="fill: none; stroke: #0000ff; stroke-linecap: square"/>
   </g>
   <g id="line2d_10">
    <path d="M 71.501892 338.397538 
L 72.124484 309.560827 
L 72.86585 285.784239 
L 73.674604 267.482416 
L 74.483357 254.041081 
L 75.381971 242.742149 
L 76.363847 233.287754 
L 77.361054 225.77977 
L 78.393796 219.555748 
L 79.551069 213.918853 
L 80.776364 209.064716 
L 81.916356 205.308336 
L 83.137313 201.898977 
L 84.786291 198.054353 
L 86.023025 195.609635 
L 87.737821 192.692992 
L 89.148002 190.61891 
L 91.313105 187.87108 
L 93.226832 185.78336 
L 95.5481 183.576623 
L 98.371465 181.255801 
L 101.508207 179.020813 
L 104.431616 177.175177 
L 108.004533 175.142583 
L 114.100408 172.040192 
L 123.15921 167.803131 
L 131.780945 163.65309 
L 136.400461 161.166396 
L 139.997558 158.991969 
L 143.877426 156.291781 
L 146.839316 153.872884 
L 149.240154 151.592886 
L 151.298846 149.33188 
L 153.450057 146.567221 
L 155.158853 143.984391 
L 156.788459 141.099115 
L 158.205638 138.153113 
L 159.764234 134.291217 
L 160.926671 130.852052 
L 162.076085 126.829175 
L 163.233023 121.953647 
L 164.381715 115.998014 
L 165.366308 109.672217 
L 166.313758 102.094876 
L 167.224065 92.861146 
L 168.058513 81.954428 
L 168.799165 69.38322 
L 169.51747 53.269584 
L 170.13316 34.740125 
L 170.74885 9.253395 
L 170.944578 -1 
L 170.944578 -1 
" clip-path="url(#pf041b1a807)" style="fill: none; stroke: #0000ff; stroke-linecap: square"/>
   </g>
   <g id="line2d_11">
    <path d="M 177.078416 338.397538 
L 177.624282 312.591983 
L 178.272411 290.519315 
L 179.028562 271.94296 
L 179.892734 256.524923 
L 180.768825 244.884548 
L 181.647898 235.857504 
L 182.52697 228.665693 
L 183.528136 222.062015 
L 184.729535 215.72679 
L 185.730701 211.40949 
L 187.097431 206.5422 
L 188.464162 202.553148 
L 189.78382 199.320216 
L 191.421151 195.943452 
L 193.120283 193.000129 
L 194.710032 190.639518 
L 196.664794 188.135998 
L 199.173235 185.410472 
L 201.839047 182.956363 
L 204.184605 181.076295 
L 207.692626 178.620835 
L 211.823221 176.116967 
L 216.245458 173.74275 
L 221.774992 171.038184 
L 237.647543 163.504686 
L 242.71557 160.740432 
L 246.943802 158.088492 
L 249.50332 156.254664 
L 252.296176 153.978573 
L 254.500809 151.913051 
L 256.865899 149.34353 
L 258.398005 147.425407 
L 260.457825 144.432263 
L 262.016028 141.758327 
L 263.390014 139.016538 
L 264.761562 135.81578 
L 266.132298 132.011555 
L 267.400223 127.775967 
L 268.528096 123.23179 
L 269.620709 117.888195 
L 270.549189 112.365165 
L 271.532178 105.167513 
L 272.451131 96.684286 
L 273.260863 87.201884 
L 274.070595 74.973579 
L 274.76465 61.258368 
L 275.477728 42.381705 
L 276.072025 20.834529 
L 276.52167 -1 
L 276.52167 -1 
" clip-path="url(#pf041b1a807)" style="fill: none; stroke: #0000ff; stroke-linecap: square"/>
   </g>
   <g id="line2d_12">
    <path d="M 282.655174 338.397538 
L 283.297381 308.831425 
L 284.021307 285.741202 
L 284.82567 267.535705 
L 285.638787 254.018242 
L 286.534286 242.758945 
L 287.511195 233.342748 
L 288.457529 226.166905 
L 289.561586 219.480297 
L 290.582132 214.462491 
L 291.676887 209.990889 
L 292.914322 205.785929 
L 294.179045 202.18966 
L 295.558651 198.878295 
L 297.005753 195.928989 
L 298.777508 192.872627 
L 300.786175 189.962488 
L 302.576327 187.744011 
L 304.769135 185.391559 
L 307.037089 183.282409 
L 309.05174 181.621913 
L 311.614502 179.733738 
L 315.541887 177.20133 
L 319.314931 175.05795 
L 325.429581 171.955521 
L 343.998024 163.104095 
L 348.933382 160.362773 
L 352.091595 158.376858 
L 355.090882 156.246588 
L 357.441277 154.35287 
L 359.467925 152.512384 
L 361.83423 150.045858 
L 364.079805 147.285397 
L 365.621635 145.076956 
L 367.340425 142.220207 
L 368.968028 139.014193 
L 370.322578 135.856051 
L 371.456542 132.766609 
L 372.590506 129.15366 
L 373.807172 124.515989 
L 374.974425 119.069906 
L 375.96015 113.431976 
L 376.922217 106.665221 
L 377.884285 98.150374 
L 378.704853 88.919497 
L 379.523392 77.073526 
L 380.273718 62.769553 
L 380.926793 46.230952 
L 381.595208 23.076713 
L 382.098647 -1 
L 382.098647 -1 
" clip-path="url(#pf041b1a807)" style="fill: none; stroke: #0000ff; stroke-linecap: square"/>
   </g>
   <g id="line2d_13">
    <path d="M 388.232262 338.397538 
L 388.867245 309.100826 
L 389.60217 285.636064 
L 390.337095 268.807817 
L 391.147523 255.011976 
L 391.978052 244.24815 
L 392.884084 235.115678 
L 393.886489 227.188306 
L 394.88245 220.899311 
L 396.059357 214.912597 
L 397.208197 210.16161 
L 398.520022 205.696966 
L 399.96543 201.649922 
L 401.570363 197.94204 
L 402.778697 195.563629 
L 404.477777 192.678619 
L 406.392118 189.923981 
L 407.918663 188.017807 
L 409.782314 185.963432 
L 412.556163 183.332797 
L 414.791946 181.494723 
L 417.116752 179.785749 
L 420.176238 177.77643 
L 424.168807 175.451614 
L 428.880425 172.996348 
L 435.697586 169.74291 
L 437.953846 168.698769 
L 437.953846 168.698769 
" clip-path="url(#pf041b1a807)" style="fill: none; stroke: #0000ff; stroke-linecap: square"/>
   </g>
   <g id="patch_3">
    <path d="M 226.8 330.197538 
L 226.8 7.2 
" style="fill: none; stroke: #000000; stroke-width: 0.8; stroke-linejoin: miter; stroke-linecap: square"/>
   </g>
   <g id="patch_4">
    <path d="M 7.2 168.698769 
L 446.4 168.698769 
" style="fill: none; stroke: #000000; stroke-width: 0.8; stroke-linejoin: miter; stroke-linecap: square"/>
   </g>
  </g>
 </g>
 <defs>
  <clipPath id="pf041b1a807">
   <rect x="7.2" y="7.2" width="439.2" height="322.997538"/>
  </clipPath>
 </defs>
</svg>
