<?xml version="1.0" encoding="utf-8" standalone="no"?>
<!DOCTYPE svg PUBLIC "-//W3C//DTD SVG 1.1//EN"
  "http://www.w3.org/Graphics/SVG/1.1/DTD/svg11.dtd">
<svg xmlns:xlink="http://www.w3.org/1999/xlink" width="451.038322pt" height="336.745806pt" viewBox="0 0 451.038322 336.745806" xmlns="http://www.w3.org/2000/svg" version="1.1">
 <metadata>
  <rdf:RDF xmlns:dc="http://purl.org/dc/elements/1.1/" xmlns:cc="http://creativecommons.org/ns#" xmlns:rdf="http://www.w3.org/1999/02/22-rdf-syntax-ns#">
   <cc:Work>
    <dc:type rdf:resource="http://purl.org/dc/dcmitype/StillImage"/>
    <dc:date>2025-12-19T10:49:01.486654</dc:date>
    <dc:format>image/svg+xml</dc:format>
    <dc:creator>
     <cc:Agent>
      <dc:title>Matplotlib v3.8.0, https://matplotlib.org/</dc:title>
     </cc:Agent>
    </dc:creator>
   </cc:Work>
  </rdf:RDF>
 </metadata>
 <defs>
  <style type="text/css">*{stroke-linejoin: round; stroke-linecap: butt}</style>
 </defs>
 <g id="figure_1">
  <g id="patch_1">
   <path d="M 0 336.745806 
L 451.038322 336.745806 
L 451.038322 0 
L 0 0 
z
" style="fill: #ffffff"/>
  </g>
  <g id="axes_1">
   <g id="patch_2">
    <path d="M 11.017937 327.379828 
L 443.838322 327.379828 
L 443.838322 7.28629 
L 11.017937 7.28629 
z
" style="fill: #ffffff"/>
   </g>
   <g id="PathCollection_1">
    <path d="M 227.42813 170.868593 
C 228.365764 170.868593 229.265122 170.496067 229.92813 169.833059 
C 230.591137 169.170052 230.963664 168.270694 230.963664 167.333059 
C 230.963664 166.395425 230.591137 165.496067 229.92813 164.833059 
C 229.265122 164.170052 228.365764 163.797525 227.42813 163.797525 
C 226.490495 163.797525 225.591137 164.170052 224.92813 164.833059 
C 224.265122 165.496067 223.892596 166.395425 223.892596 167.333059 
C 223.892596 168.270694 224.265122 169.170052 224.92813 169.833059 
C 225.591137 170.496067 226.490495 170.868593 227.42813 170.868593 
z
" clip-path="url(#pbf4d686e7a)" style="fill: #ff0000"/>
   </g>
   <g id="PathCollection_2">
    <path d="M 129.335108 138.626384 
C 130.272742 138.626384 131.1721 138.253857 131.835108 137.59085 
C 132.498115 136.927842 132.870641 136.028484 132.870641 135.09085 
C 132.870641 134.153215 132.498115 133.253857 131.835108 132.59085 
C 131.1721 131.927842 130.272742 131.555316 129.335108 131.555316 
C 128.397473 131.555316 127.498115 131.927842 126.835108 132.59085 
C 126.1721 133.253857 125.799574 134.153215 125.799574 135.09085 
C 125.799574 136.028484 126.1721 136.927842 126.835108 137.59085 
C 127.498115 138.253857 128.397473 138.626384 129.335108 138.626384 
z
" clip-path="url(#pbf4d686e7a)" style="fill: #ff0000"/>
   </g>
   <g id="PathCollection_3">
    <path d="M 325.521152 203.110803 
C 326.458786 203.110803 327.358144 202.738277 328.021152 202.075269 
C 328.684159 201.412261 329.056686 200.512903 329.056686 199.575269 
C 329.056686 198.637634 328.684159 197.738277 328.021152 197.075269 
C 327.358144 196.412261 326.458786 196.039735 325.521152 196.039735 
C 324.583517 196.039735 323.684159 196.412261 323.021152 197.075269 
C 322.358144 197.738277 321.985618 198.637634 321.985618 199.575269 
C 321.985618 200.512903 322.358144 201.412261 323.021152 202.075269 
C 323.684159 202.738277 324.583517 203.110803 325.521152 203.110803 
z
" clip-path="url(#pbf4d686e7a)" style="fill: #ff0000"/>
   </g>
   <g id="PathCollection_4">
    <path d="M 88.703647 118.757313 
C 89.641282 118.757313 90.54064 118.384787 91.203647 117.721779 
C 91.866655 117.058771 92.239181 116.159414 92.239181 115.221779 
C 92.239181 114.284145 91.866655 113.384787 91.203647 112.721779 
C 90.54064 112.058771 89.641282 111.686245 88.703647 111.686245 
C 87.766013 111.686245 86.866655 112.058771 86.203647 112.721779 
C 85.54064 113.384787 85.168113 114.284145 85.168113 115.221779 
C 85.168113 116.159414 85.54064 117.058771 86.203647 117.721779 
C 86.866655 118.384787 87.766013 118.757313 88.703647 118.757313 
z
" clip-path="url(#pbf4d686e7a)" style="fill: #ff0000"/>
   </g>
   <g id="PathCollection_5">
    <path d="M 366.152612 222.979873 
C 367.090246 222.979873 367.989604 222.607347 368.652612 221.944339 
C 369.31562 221.281332 369.688146 220.381974 369.688146 219.444339 
C 369.688146 218.506705 369.31562 217.607347 368.652612 216.944339 
C 367.989604 216.281332 367.090246 215.908806 366.152612 215.908806 
C 365.214977 215.908806 364.31562 216.281332 363.652612 216.944339 
C 362.989604 217.607347 362.617078 218.506705 362.617078 219.444339 
C 362.617078 220.381974 362.989604 221.281332 363.652612 221.944339 
C 364.31562 222.607347 365.214977 222.979873 366.152612 222.979873 
z
" clip-path="url(#pbf4d686e7a)" style="fill: #ff0000"/>
   </g>
   <g id="matplotlib.axis_1">
    <g id="xtick_1">
     <g id="line2d_1">
      <defs>
       <path id="m53ae1a3201" d="M 0 0 
L 0 3.5 
" style="stroke: #000000; stroke-width: 0.8"/>
      </defs>
      <g>
       <use xlink:href="#m53ae1a3201" x="19.341406" y="167.333059" style="stroke: #000000; stroke-width: 0.8"/>
      </g>
     </g>
     <g id="text_1">
      <!-- −1.5 -->
      <g transform="translate(7.2 181.931497) scale(0.1 -0.1)">
       <defs>
        <path id="DejaVuSans-2212" d="M 678 2272 
L 4684 2272 
L 4684 1741 
L 678 1741 
L 678 2272 
z
" transform="scale(0.015625)"/>
        <path id="DejaVuSans-31" d="M 794 531 
L 1825 531 
L 1825 4091 
L 703 3866 
L 703 4441 
L 1819 4666 
L 2450 4666 
L 2450 531 
L 3481 531 
L 3481 0 
L 794 0 
L 794 531 
z
" transform="scale(0.015625)"/>
        <path id="DejaVuSans-2e" d="M 684 794 
L 1344 794 
L 1344 0 
L 684 0 
L 684 794 
z
" transform="scale(0.015625)"/>
        <path id="DejaVuSans-35" d="M 691 4666 
L 3169 4666 
L 3169 4134 
L 1269 4134 
L 1269 2991 
Q 1406 3038 1543 3061 
Q 1681 3084 1819 3084 
Q 2600 3084 3056 2656 
Q 3513 2228 3513 1497 
Q 3513 744 3044 326 
Q 2575 -91 1722 -91 
Q 1428 -91 1123 -41 
Q 819 9 494 109 
L 494 744 
Q 775 591 1075 516 
Q 1375 441 1709 441 
Q 2250 441 2565 725 
Q 2881 1009 2881 1497 
Q 2881 1984 2565 2268 
Q 2250 2553 1709 2553 
Q 1456 2553 1204 2497 
Q 953 2441 691 2322 
L 691 4666 
z
" transform="scale(0.015625)"/>
       </defs>
       <use xlink:href="#DejaVuSans-2212"/>
       <use xlink:href="#DejaVuSans-31" x="83.789062"/>
       <use xlink:href="#DejaVuSans-2e" x="147.412109"/>
       <use xlink:href="#DejaVuSans-35" x="179.199219"/>
      </g>
     </g>
    </g>
    <g id="xtick_2">
     <g id="line2d_2">
      <g>
       <use xlink:href="#m53ae1a3201" x="88.703647" y="167.333059" style="stroke: #000000; stroke-width: 0.8"/>
      </g>
     </g>
     <g id="text_2">
      <!-- −1.0 -->
      <g transform="translate(76.562241 181.931497) scale(0.1 -0.1)">
       <defs>
        <path id="DejaVuSans-30" d="M 2034 4250 
Q 1547 4250 1301 3770 
Q 1056 3291 1056 2328 
Q 1056 1369 1301 889 
Q 1547 409 2034 409 
Q 2525 409 2770 889 
Q 3016 1369 3016 2328 
Q 3016 3291 2770 3770 
Q 2525 4250 2034 4250 
z
M 2034 4750 
Q 2819 4750 3233 4129 
Q 3647 3509 3647 2328 
Q 3647 1150 3233 529 
Q 2819 -91 2034 -91 
Q 1250 -91 836 529 
Q 422 1150 422 2328 
Q 422 3509 836 4129 
Q 1250 4750 2034 4750 
z
" transform="scale(0.015625)"/>
       </defs>
       <use xlink:href="#DejaVuSans-2212"/>
       <use xlink:href="#DejaVuSans-31" x="83.789062"/>
       <use xlink:href="#DejaVuSans-2e" x="147.412109"/>
       <use xlink:href="#DejaVuSans-30" x="179.199219"/>
      </g>
     </g>
    </g>
    <g id="xtick_3">
     <g id="line2d_3">
      <g>
       <use xlink:href="#m53ae1a3201" x="158.065888" y="167.333059" style="stroke: #000000; stroke-width: 0.8"/>
      </g>
     </g>
     <g id="text_3">
      <!-- −0.5 -->
      <g transform="translate(145.924482 181.931497) scale(0.1 -0.1)">
       <use xlink:href="#DejaVuSans-2212"/>
       <use xlink:href="#DejaVuSans-30" x="83.789062"/>
       <use xlink:href="#DejaVuSans-2e" x="147.412109"/>
       <use xlink:href="#DejaVuSans-35" x="179.199219"/>
      </g>
     </g>
    </g>
    <g id="xtick_4">
     <g id="line2d_4">
      <g>
       <use xlink:href="#m53ae1a3201" x="227.42813" y="167.333059" style="stroke: #000000; stroke-width: 0.8"/>
      </g>
     </g>
    </g>
    <g id="xtick_5">
     <g id="line2d_5">
      <g>
       <use xlink:href="#m53ae1a3201" x="296.790371" y="167.333059" style="stroke: #000000; stroke-width: 0.8"/>
      </g>
     </g>
     <g id="text_4">
      <!-- 0.5 -->
      <g transform="translate(288.838808 181.931497) scale(0.1 -0.1)">
       <use xlink:href="#DejaVuSans-30"/>
       <use xlink:href="#DejaVuSans-2e" x="63.623047"/>
       <use xlink:href="#DejaVuSans-35" x="95.410156"/>
      </g>
     </g>
    </g>
    <g id="xtick_6">
     <g id="line2d_6">
      <g>
       <use xlink:href="#m53ae1a3201" x="366.152612" y="167.333059" style="stroke: #000000; stroke-width: 0.8"/>
      </g>
     </g>
     <g id="text_5">
      <!-- 1.0 -->
      <g transform="translate(358.201049 181.931497) scale(0.1 -0.1)">
       <use xlink:href="#DejaVuSans-31"/>
       <use xlink:href="#DejaVuSans-2e" x="63.623047"/>
       <use xlink:href="#DejaVuSans-30" x="95.410156"/>
      </g>
     </g>
    </g>
    <g id="xtick_7">
     <g id="line2d_7">
      <g>
       <use xlink:href="#m53ae1a3201" x="435.514853" y="167.333059" style="stroke: #000000; stroke-width: 0.8"/>
      </g>
     </g>
     <g id="text_6">
      <!-- 1.5 -->
      <g transform="translate(427.56329 181.931497) scale(0.1 -0.1)">
       <use xlink:href="#DejaVuSans-31"/>
       <use xlink:href="#DejaVuSans-2e" x="63.623047"/>
       <use xlink:href="#DejaVuSans-35" x="95.410156"/>
      </g>
     </g>
    </g>
    <g id="xtick_8">
     <g id="line2d_8">
      <defs>
       <path id="md7e3f2f335" d="M 0 0 
L 0 2 
" style="stroke: #000000; stroke-width: 0.6"/>
      </defs>
      <g>
       <use xlink:href="#md7e3f2f335" x="33.213854" y="167.333059" style="stroke: #000000; stroke-width: 0.6"/>
      </g>
     </g>
    </g>
    <g id="xtick_9">
     <g id="line2d_9">
      <g>
       <use xlink:href="#md7e3f2f335" x="47.086303" y="167.333059" style="stroke: #000000; stroke-width: 0.6"/>
      </g>
     </g>
    </g>
    <g id="xtick_10">
     <g id="line2d_10">
      <g>
       <use xlink:href="#md7e3f2f335" x="60.958751" y="167.333059" style="stroke: #000000; stroke-width: 0.6"/>
      </g>
     </g>
    </g>
    <g id="xtick_11">
     <g id="line2d_11">
      <g>
       <use xlink:href="#md7e3f2f335" x="74.831199" y="167.333059" style="stroke: #000000; stroke-width: 0.6"/>
      </g>
     </g>
    </g>
    <g id="xtick_12">
     <g id="line2d_12">
      <g>
       <use xlink:href="#md7e3f2f335" x="102.576096" y="167.333059" style="stroke: #000000; stroke-width: 0.6"/>
      </g>
     </g>
    </g>
    <g id="xtick_13">
     <g id="line2d_13">
      <g>
       <use xlink:href="#md7e3f2f335" x="116.448544" y="167.333059" style="stroke: #000000; stroke-width: 0.6"/>
      </g>
     </g>
    </g>
    <g id="xtick_14">
     <g id="line2d_14">
      <g>
       <use xlink:href="#md7e3f2f335" x="130.320992" y="167.333059" style="stroke: #000000; stroke-width: 0.6"/>
      </g>
     </g>
    </g>
    <g id="xtick_15">
     <g id="line2d_15">
      <g>
       <use xlink:href="#md7e3f2f335" x="144.19344" y="167.333059" style="stroke: #000000; stroke-width: 0.6"/>
      </g>
     </g>
    </g>
    <g id="xtick_16">
     <g id="line2d_16">
      <g>
       <use xlink:href="#md7e3f2f335" x="171.938337" y="167.333059" style="stroke: #000000; stroke-width: 0.6"/>
      </g>
     </g>
    </g>
    <g id="xtick_17">
     <g id="line2d_17">
      <g>
       <use xlink:href="#md7e3f2f335" x="185.810785" y="167.333059" style="stroke: #000000; stroke-width: 0.6"/>
      </g>
     </g>
    </g>
    <g id="xtick_18">
     <g id="line2d_18">
      <g>
       <use xlink:href="#md7e3f2f335" x="199.683233" y="167.333059" style="stroke: #000000; stroke-width: 0.6"/>
      </g>
     </g>
    </g>
    <g id="xtick_19">
     <g id="line2d_19">
      <g>
       <use xlink:href="#md7e3f2f335" x="213.555681" y="167.333059" style="stroke: #000000; stroke-width: 0.6"/>
      </g>
     </g>
    </g>
    <g id="xtick_20">
     <g id="line2d_20">
      <g>
       <use xlink:href="#md7e3f2f335" x="241.300578" y="167.333059" style="stroke: #000000; stroke-width: 0.6"/>
      </g>
     </g>
    </g>
    <g id="xtick_21">
     <g id="line2d_21">
      <g>
       <use xlink:href="#md7e3f2f335" x="255.173026" y="167.333059" style="stroke: #000000; stroke-width: 0.6"/>
      </g>
     </g>
    </g>
    <g id="xtick_22">
     <g id="line2d_22">
      <g>
       <use xlink:href="#md7e3f2f335" x="269.045474" y="167.333059" style="stroke: #000000; stroke-width: 0.6"/>
      </g>
     </g>
    </g>
    <g id="xtick_23">
     <g id="line2d_23">
      <g>
       <use xlink:href="#md7e3f2f335" x="282.917923" y="167.333059" style="stroke: #000000; stroke-width: 0.6"/>
      </g>
     </g>
    </g>
    <g id="xtick_24">
     <g id="line2d_24">
      <g>
       <use xlink:href="#md7e3f2f335" x="310.662819" y="167.333059" style="stroke: #000000; stroke-width: 0.6"/>
      </g>
     </g>
    </g>
    <g id="xtick_25">
     <g id="line2d_25">
      <g>
       <use xlink:href="#md7e3f2f335" x="324.535267" y="167.333059" style="stroke: #000000; stroke-width: 0.6"/>
      </g>
     </g>
    </g>
    <g id="xtick_26">
     <g id="line2d_26">
      <g>
       <use xlink:href="#md7e3f2f335" x="338.407715" y="167.333059" style="stroke: #000000; stroke-width: 0.6"/>
      </g>
     </g>
    </g>
    <g id="xtick_27">
     <g id="line2d_27">
      <g>
       <use xlink:href="#md7e3f2f335" x="352.280164" y="167.333059" style="stroke: #000000; stroke-width: 0.6"/>
      </g>
     </g>
    </g>
    <g id="xtick_28">
     <g id="line2d_28">
      <g>
       <use xlink:href="#md7e3f2f335" x="380.02506" y="167.333059" style="stroke: #000000; stroke-width: 0.6"/>
      </g>
     </g>
    </g>
    <g id="xtick_29">
     <g id="line2d_29">
      <g>
       <use xlink:href="#md7e3f2f335" x="393.897508" y="167.333059" style="stroke: #000000; stroke-width: 0.6"/>
      </g>
     </g>
    </g>
    <g id="xtick_30">
     <g id="line2d_30">
      <g>
       <use xlink:href="#md7e3f2f335" x="407.769957" y="167.333059" style="stroke: #000000; stroke-width: 0.6"/>
      </g>
     </g>
    </g>
    <g id="xtick_31">
     <g id="line2d_31">
      <g>
       <use xlink:href="#md7e3f2f335" x="421.642405" y="167.333059" style="stroke: #000000; stroke-width: 0.6"/>
      </g>
     </g>
    </g>
   </g>
   <g id="matplotlib.axis_2">
    <g id="ytick_1">
     <g id="line2d_32">
      <defs>
       <path id="m364cc91394" d="M 0 0 
L -3.5 0 
" style="stroke: #000000; stroke-width: 0.8"/>
      </defs>
      <g>
       <use xlink:href="#m364cc91394" x="227.42813" y="323.6669" style="stroke: #000000; stroke-width: 0.8"/>
      </g>
     </g>
     <g id="text_7">
      <!-- −6 -->
      <g transform="translate(205.685942 327.466119) scale(0.1 -0.1)">
       <defs>
        <path id="DejaVuSans-36" d="M 2113 2584 
Q 1688 2584 1439 2293 
Q 1191 2003 1191 1497 
Q 1191 994 1439 701 
Q 1688 409 2113 409 
Q 2538 409 2786 701 
Q 3034 994 3034 1497 
Q 3034 2003 2786 2293 
Q 2538 2584 2113 2584 
z
M 3366 4563 
L 3366 3988 
Q 3128 4100 2886 4159 
Q 2644 4219 2406 4219 
Q 1781 4219 1451 3797 
Q 1122 3375 1075 2522 
Q 1259 2794 1537 2939 
Q 1816 3084 2150 3084 
Q 2853 3084 3261 2657 
Q 3669 2231 3669 1497 
Q 3669 778 3244 343 
Q 2819 -91 2113 -91 
Q 1303 -91 875 529 
Q 447 1150 447 2328 
Q 447 3434 972 4092 
Q 1497 4750 2381 4750 
Q 2619 4750 2861 4703 
Q 3103 4656 3366 4563 
z
" transform="scale(0.015625)"/>
       </defs>
       <use xlink:href="#DejaVuSans-2212"/>
       <use xlink:href="#DejaVuSans-36" x="83.789062"/>
      </g>
     </g>
    </g>
    <g id="ytick_2">
     <g id="line2d_33">
      <g>
       <use xlink:href="#m364cc91394" x="227.42813" y="271.55562" style="stroke: #000000; stroke-width: 0.8"/>
      </g>
     </g>
     <g id="text_8">
      <!-- −4 -->
      <g transform="translate(205.685942 275.354838) scale(0.1 -0.1)">
       <defs>
        <path id="DejaVuSans-34" d="M 2419 4116 
L 825 1625 
L 2419 1625 
L 2419 4116 
z
M 2253 4666 
L 3047 4666 
L 3047 1625 
L 3713 1625 
L 3713 1100 
L 3047 1100 
L 3047 0 
L 2419 0 
L 2419 1100 
L 313 1100 
L 313 1709 
L 2253 4666 
z
" transform="scale(0.015625)"/>
       </defs>
       <use xlink:href="#DejaVuSans-2212"/>
       <use xlink:href="#DejaVuSans-34" x="83.789062"/>
      </g>
     </g>
    </g>
    <g id="ytick_3">
     <g id="line2d_34">
      <g>
       <use xlink:href="#m364cc91394" x="227.42813" y="219.444339" style="stroke: #000000; stroke-width: 0.8"/>
      </g>
     </g>
     <g id="text_9">
      <!-- −2 -->
      <g transform="translate(205.685942 223.243558) scale(0.1 -0.1)">
       <defs>
        <path id="DejaVuSans-32" d="M 1228 531 
L 3431 531 
L 3431 0 
L 469 0 
L 469 531 
Q 828 903 1448 1529 
Q 2069 2156 2228 2338 
Q 2531 2678 2651 2914 
Q 2772 3150 2772 3378 
Q 2772 3750 2511 3984 
Q 2250 4219 1831 4219 
Q 1534 4219 1204 4116 
Q 875 4013 500 3803 
L 500 4441 
Q 881 4594 1212 4672 
Q 1544 4750 1819 4750 
Q 2544 4750 2975 4387 
Q 3406 4025 3406 3419 
Q 3406 3131 3298 2873 
Q 3191 2616 2906 2266 
Q 2828 2175 2409 1742 
Q 1991 1309 1228 531 
z
" transform="scale(0.015625)"/>
       </defs>
       <use xlink:href="#DejaVuSans-2212"/>
       <use xlink:href="#DejaVuSans-32" x="83.789062"/>
      </g>
     </g>
    </g>
    <g id="ytick_4">
     <g id="line2d_35">
      <g>
       <use xlink:href="#m364cc91394" x="227.42813" y="167.333059" style="stroke: #000000; stroke-width: 0.8"/>
      </g>
     </g>
    </g>
    <g id="ytick_5">
     <g id="line2d_36">
      <g>
       <use xlink:href="#m364cc91394" x="227.42813" y="115.221779" style="stroke: #000000; stroke-width: 0.8"/>
      </g>
     </g>
     <g id="text_10">
      <!-- 2 -->
      <g transform="translate(214.06563 119.020998) scale(0.1 -0.1)">
       <use xlink:href="#DejaVuSans-32"/>
      </g>
     </g>
    </g>
    <g id="ytick_6">
     <g id="line2d_37">
      <g>
       <use xlink:href="#m364cc91394" x="227.42813" y="63.110499" style="stroke: #000000; stroke-width: 0.8"/>
      </g>
     </g>
     <g id="text_11">
      <!-- 4 -->
      <g transform="translate(214.06563 66.909718) scale(0.1 -0.1)">
       <use xlink:href="#DejaVuSans-34"/>
      </g>
     </g>
    </g>
    <g id="ytick_7">
     <g id="line2d_38">
      <g>
       <use xlink:href="#m364cc91394" x="227.42813" y="10.999219" style="stroke: #000000; stroke-width: 0.8"/>
      </g>
     </g>
     <g id="text_12">
      <!-- 6 -->
      <g transform="translate(214.06563 14.798438) scale(0.1 -0.1)">
       <use xlink:href="#DejaVuSans-36"/>
      </g>
     </g>
    </g>
    <g id="ytick_8">
     <g id="line2d_39">
      <defs>
       <path id="m2669b0a035" d="M 0 0 
L -2 0 
" style="stroke: #000000; stroke-width: 0.6"/>
      </defs>
      <g>
       <use xlink:href="#m2669b0a035" x="227.42813" y="310.63908" style="stroke: #000000; stroke-width: 0.6"/>
      </g>
     </g>
    </g>
    <g id="ytick_9">
     <g id="line2d_40">
      <g>
       <use xlink:href="#m2669b0a035" x="227.42813" y="297.61126" style="stroke: #000000; stroke-width: 0.6"/>
      </g>
     </g>
    </g>
    <g id="ytick_10">
     <g id="line2d_41">
      <g>
       <use xlink:href="#m2669b0a035" x="227.42813" y="284.58344" style="stroke: #000000; stroke-width: 0.6"/>
      </g>
     </g>
    </g>
    <g id="ytick_11">
     <g id="line2d_42">
      <g>
       <use xlink:href="#m2669b0a035" x="227.42813" y="258.5278" style="stroke: #000000; stroke-width: 0.6"/>
      </g>
     </g>
    </g>
    <g id="ytick_12">
     <g id="line2d_43">
      <g>
       <use xlink:href="#m2669b0a035" x="227.42813" y="245.49998" style="stroke: #000000; stroke-width: 0.6"/>
      </g>
     </g>
    </g>
    <g id="ytick_13">
     <g id="line2d_44">
      <g>
       <use xlink:href="#m2669b0a035" x="227.42813" y="232.472159" style="stroke: #000000; stroke-width: 0.6"/>
      </g>
     </g>
    </g>
    <g id="ytick_14">
     <g id="line2d_45">
      <g>
       <use xlink:href="#m2669b0a035" x="227.42813" y="206.416519" style="stroke: #000000; stroke-width: 0.6"/>
      </g>
     </g>
    </g>
    <g id="ytick_15">
     <g id="line2d_46">
      <g>
       <use xlink:href="#m2669b0a035" x="227.42813" y="193.388699" style="stroke: #000000; stroke-width: 0.6"/>
      </g>
     </g>
    </g>
    <g id="ytick_16">
     <g id="line2d_47">
      <g>
       <use xlink:href="#m2669b0a035" x="227.42813" y="180.360879" style="stroke: #000000; stroke-width: 0.6"/>
      </g>
     </g>
    </g>
    <g id="ytick_17">
     <g id="line2d_48">
      <g>
       <use xlink:href="#m2669b0a035" x="227.42813" y="154.305239" style="stroke: #000000; stroke-width: 0.6"/>
      </g>
     </g>
    </g>
    <g id="ytick_18">
     <g id="line2d_49">
      <g>
       <use xlink:href="#m2669b0a035" x="227.42813" y="141.277419" style="stroke: #000000; stroke-width: 0.6"/>
      </g>
     </g>
    </g>
    <g id="ytick_19">
     <g id="line2d_50">
      <g>
       <use xlink:href="#m2669b0a035" x="227.42813" y="128.249599" style="stroke: #000000; stroke-width: 0.6"/>
      </g>
     </g>
    </g>
    <g id="ytick_20">
     <g id="line2d_51">
      <g>
       <use xlink:href="#m2669b0a035" x="227.42813" y="102.193959" style="stroke: #000000; stroke-width: 0.6"/>
      </g>
     </g>
    </g>
    <g id="ytick_21">
     <g id="line2d_52">
      <g>
       <use xlink:href="#m2669b0a035" x="227.42813" y="89.166139" style="stroke: #000000; stroke-width: 0.6"/>
      </g>
     </g>
    </g>
    <g id="ytick_22">
     <g id="line2d_53">
      <g>
       <use xlink:href="#m2669b0a035" x="227.42813" y="76.138319" style="stroke: #000000; stroke-width: 0.6"/>
      </g>
     </g>
    </g>
    <g id="ytick_23">
     <g id="line2d_54">
      <g>
       <use xlink:href="#m2669b0a035" x="227.42813" y="50.082679" style="stroke: #000000; stroke-width: 0.6"/>
      </g>
     </g>
    </g>
    <g id="ytick_24">
     <g id="line2d_55">
      <g>
       <use xlink:href="#m2669b0a035" x="227.42813" y="37.054859" style="stroke: #000000; stroke-width: 0.6"/>
      </g>
     </g>
    </g>
    <g id="ytick_25">
     <g id="line2d_56">
      <g>
       <use xlink:href="#m2669b0a035" x="227.42813" y="24.027039" style="stroke: #000000; stroke-width: 0.6"/>
      </g>
     </g>
    </g>
   </g>
   <g id="line2d_57">
    <path d="M 19.341406 321.224184 
L 22.263642 298.964417 
L 25.166662 278.565431 
L 27.891709 260.895428 
L 30.475033 245.402577 
L 33.273477 229.934362 
L 36.002568 216.101206 
L 38.508007 204.435435 
L 41.251999 192.736676 
L 43.820401 182.755545 
L 46.436006 173.503273 
L 48.835895 165.782182 
L 51.215244 158.815561 
L 53.645272 152.371809 
L 56.143312 146.417271 
L 58.654107 141.078539 
L 60.905386 136.812031 
L 63.18472 132.96607 
L 65.307554 129.790007 
L 67.494555 126.905131 
L 69.725869 124.344493 
L 71.966581 122.139701 
L 74.123803 120.343779 
L 76.249489 118.868991 
L 78.356666 117.678615 
L 80.578965 116.697891 
L 82.510979 116.06012 
L 84.8903 115.530858 
L 87.194999 115.268846 
L 89.644765 115.239564 
L 91.564817 115.382389 
L 93.934346 115.7433 
L 96.605458 116.373525 
L 99.480801 117.289197 
L 102.945203 118.678611 
L 106.70729 120.488678 
L 110.769672 122.731088 
L 115.215155 125.450927 
L 120.986719 129.271252 
L 130.644222 136.012689 
L 140.651152 142.931676 
L 147.749073 147.533667 
L 153.794749 151.144219 
L 159.04329 154.002442 
L 164.318468 156.590273 
L 168.720605 158.520072 
L 172.888032 160.150307 
L 177.77346 161.81794 
L 183.196311 163.367692 
L 187.59847 164.40215 
L 192.152697 165.274113 
L 197.800321 166.098649 
L 203.217214 166.653174 
L 210.430893 167.095584 
L 217.527602 167.285847 
L 231.258282 167.3358 
L 240.999274 167.454331 
L 246.805997 167.683986 
L 252.409899 168.079076 
L 258.55044 168.759687 
L 263.964462 169.614059 
L 269.332282 170.727215 
L 274.534384 172.081076 
L 279.117025 173.510832 
L 284.059952 175.310072 
L 288.750242 177.266642 
L 293.700264 179.591916 
L 298.60267 182.148994 
L 304.503828 185.538742 
L 310.119829 189.043442 
L 315.767357 192.789266 
L 324.461645 198.829136 
L 335.74211 206.661733 
L 340.73641 209.90691 
L 345.863821 212.948642 
L 350.030731 215.118531 
L 353.541492 216.677571 
L 356.704388 217.828883 
L 359.790172 218.683351 
L 362.486425 219.183202 
L 365.245039 219.427793 
L 367.302219 219.417127 
L 369.811659 219.160287 
L 371.839558 218.741532 
L 374.073702 218.044616 
L 376.256947 217.107974 
L 378.192743 216.051831 
L 380.544844 214.464017 
L 382.422616 212.94176 
L 384.623232 210.852028 
L 386.679002 208.584462 
L 388.680128 206.067695 
L 390.789654 203.065752 
L 393.185909 199.196667 
L 395.441541 195.082664 
L 397.755153 190.359811 
L 400.117506 184.982142 
L 402.383312 179.268057 
L 404.745767 172.69889 
L 406.956673 165.956524 
L 409.340078 158.010993 
L 412.05036 148.076821 
L 414.528208 138.112524 
L 417.19247 126.407277 
L 419.890943 113.448809 
L 422.459603 100.028193 
L 425.298014 83.901789 
L 428.120286 66.446758 
L 430.899737 47.799376 
L 433.676397 27.652855 
L 435.514853 13.441935 
L 435.514853 13.441935 
" clip-path="url(#pbf4d686e7a)" style="fill: none; stroke: #0000ff; stroke-linecap: square"/>
   </g>
   <g id="patch_3">
    <path d="M 227.42813 327.379828 
L 227.42813 7.28629 
" style="fill: none; stroke: #000000; stroke-width: 0.8; stroke-linejoin: miter; stroke-linecap: square"/>
   </g>
   <g id="patch_4">
    <path d="M 11.017937 167.333059 
L 443.838322 167.333059 
" style="fill: none; stroke: #000000; stroke-width: 0.8; stroke-linejoin: miter; stroke-linecap: square"/>
   </g>
  </g>
 </g>
 <defs>
  <clipPath id="pbf4d686e7a">
   <rect x="11.017937" y="7.28629" width="432.820385" height="320.093538"/>
  </clipPath>
 </defs>
</svg>
