<?xml version="1.0" encoding="utf-8" standalone="no"?>
<!DOCTYPE svg PUBLIC "-//W3C//DTD SVG 1.1//EN"
  "http://www.w3.org/Graphics/SVG/1.1/DTD/svg11.dtd">
<svg xmlns:xlink="http://www.w3.org/1999/xlink" width="451.038322pt" height="336.745806pt" viewBox="0 0 451.038322 336.745806" xmlns="http://www.w3.org/2000/svg" version="1.1">
 <metadata>
  <rdf:RDF xmlns:dc="http://purl.org/dc/elements/1.1/" xmlns:cc="http://creativecommons.org/ns#" xmlns:rdf="http://www.w3.org/1999/02/22-rdf-syntax-ns#">
   <cc:Work>
    <dc:type rdf:resource="http://purl.org/dc/dcmitype/StillImage"/>
    <dc:date>2026-01-05T08:02:41.298928</dc:date>
    <dc:format>image/svg+xml</dc:format>
    <dc:creator>
     <cc:Agent>
      <dc:title>Matplotlib v3.6.2, https://matplotlib.org/</dc:title>
     </cc:Agent>
    </dc:creator>
   </cc:Work>
  </rdf:RDF>
 </metadata>
 <defs>
  <style type="text/css">*{stroke-linejoin: round; stroke-linecap: butt}</style>
 </defs>
 <g id="figure_1">
  <g id="patch_1">
   <path d="M 0 336.745806 
L 451.038322 336.745806 
L 451.038322 0 
L 0 0 
z
" style="fill: #ffffff"/>
  </g>
  <g id="axes_1">
   <g id="patch_2">
    <path d="M 11.017937 327.379828 
L 443.838322 327.379828 
L 443.838322 7.28629 
L 11.017937 7.28629 
z
" style="fill: #ffffff"/>
   </g>
   <g id="PathCollection_1">
    <path d="M 227.42813 170.868593 
C 228.365764 170.868593 229.265122 170.496067 229.92813 169.833059 
C 230.591137 169.170052 230.963664 168.270694 230.963664 167.333059 
C 230.963664 166.395425 230.591137 165.496067 229.92813 164.833059 
C 229.265122 164.170052 228.365764 163.797525 227.42813 163.797525 
C 226.490495 163.797525 225.591137 164.170052 224.92813 164.833059 
C 224.265122 165.496067 223.892596 166.395425 223.892596 167.333059 
C 223.892596 168.270694 224.265122 169.170052 224.92813 169.833059 
C 225.591137 170.496067 226.490495 170.868593 227.42813 170.868593 
z
" clip-path="url(#pca536cbf8a)" style="fill: #ff0000"/>
   </g>
   <g id="PathCollection_2">
    <path d="M 129.335108 138.626384 
C 130.272742 138.626384 131.1721 138.253857 131.835108 137.59085 
C 132.498115 136.927842 132.870641 136.028484 132.870641 135.09085 
C 132.870641 134.153215 132.498115 133.253857 131.835108 132.59085 
C 131.1721 131.927842 130.272742 131.555316 129.335108 131.555316 
C 128.397473 131.555316 127.498115 131.927842 126.835108 132.59085 
C 126.1721 133.253857 125.799574 134.153215 125.799574 135.09085 
C 125.799574 136.028484 126.1721 136.927842 126.835108 137.59085 
C 127.498115 138.253857 128.397473 138.626384 129.335108 138.626384 
z
" clip-path="url(#pca536cbf8a)" style="fill: #ff0000"/>
   </g>
   <g id="PathCollection_3">
    <path d="M 325.521152 203.110803 
C 326.458786 203.110803 327.358144 202.738277 328.021152 202.075269 
C 328.684159 201.412261 329.056686 200.512903 329.056686 199.575269 
C 329.056686 198.637634 328.684159 197.738277 328.021152 197.075269 
C 327.358144 196.412261 326.458786 196.039735 325.521152 196.039735 
C 324.583517 196.039735 323.684159 196.412261 323.021152 197.075269 
C 322.358144 197.738277 321.985618 198.637634 321.985618 199.575269 
C 321.985618 200.512903 322.358144 201.412261 323.021152 202.075269 
C 323.684159 202.738277 324.583517 203.110803 325.521152 203.110803 
z
" clip-path="url(#pca536cbf8a)" style="fill: #ff0000"/>
   </g>
   <g id="PathCollection_4">
    <path d="M 88.703647 118.757313 
C 89.641282 118.757313 90.54064 118.384787 91.203647 117.721779 
C 91.866655 117.058771 92.239181 116.159414 92.239181 115.221779 
C 92.239181 114.284145 91.866655 113.384787 91.203647 112.721779 
C 90.54064 112.058771 89.641282 111.686245 88.703647 111.686245 
C 87.766013 111.686245 86.866655 112.058771 86.203647 112.721779 
C 85.54064 113.384787 85.168113 114.284145 85.168113 115.221779 
C 85.168113 116.159414 85.54064 117.058771 86.203647 117.721779 
C 86.866655 118.384787 87.766013 118.757313 88.703647 118.757313 
z
" clip-path="url(#pca536cbf8a)" style="fill: #ff0000"/>
   </g>
   <g id="PathCollection_5">
    <path d="M 366.152612 222.979873 
C 367.090246 222.979873 367.989604 222.607347 368.652612 221.944339 
C 369.31562 221.281332 369.688146 220.381974 369.688146 219.444339 
C 369.688146 218.506705 369.31562 217.607347 368.652612 216.944339 
C 367.989604 216.281332 367.090246 215.908806 366.152612 215.908806 
C 365.214977 215.908806 364.31562 216.281332 363.652612 216.944339 
C 362.989604 217.607347 362.617078 218.506705 362.617078 219.444339 
C 362.617078 220.381974 362.989604 221.281332 363.652612 221.944339 
C 364.31562 222.607347 365.214977 222.979873 366.152612 222.979873 
z
" clip-path="url(#pca536cbf8a)" style="fill: #ff0000"/>
   </g>
   <g id="matplotlib.axis_1">
    <g id="xtick_1">
     <g id="line2d_1">
      <defs>
       <path id="mdd1983372d" d="M 0 0 
L 0 3.5 
" style="stroke: #000000; stroke-width: 0.8"/>
      </defs>
      <g>
       <use xlink:href="#mdd1983372d" x="19.341406" y="167.333059" style="stroke: #000000; stroke-width: 0.8"/>
      </g>
     </g>
     <g id="text_1">
      <!-- −1.5 -->
      <g transform="translate(7.2 181.931497) scale(0.1 -0.1)">
       <defs>
        <path id="DejaVuSans-2212" d="M 678 2272 
L 4684 2272 
L 4684 1741 
L 678 1741 
L 678 2272 
z
" transform="scale(0.015625)"/>
        <path id="DejaVuSans-31" d="M 794 531 
L 1825 531 
L 1825 4091 
L 703 3866 
L 703 4441 
L 1819 4666 
L 2450 4666 
L 2450 531 
L 3481 531 
L 3481 0 
L 794 0 
L 794 531 
z
" transform="scale(0.015625)"/>
        <path id="DejaVuSans-2e" d="M 684 794 
L 1344 794 
L 1344 0 
L 684 0 
L 684 794 
z
" transform="scale(0.015625)"/>
        <path id="DejaVuSans-35" d="M 691 4666 
L 3169 4666 
L 3169 4134 
L 1269 4134 
L 1269 2991 
Q 1406 3038 1543 3061 
Q 1681 3084 1819 3084 
Q 2600 3084 3056 2656 
Q 3513 2228 3513 1497 
Q 3513 744 3044 326 
Q 2575 -91 1722 -91 
Q 1428 -91 1123 -41 
Q 819 9 494 109 
L 494 744 
Q 775 591 1075 516 
Q 1375 441 1709 441 
Q 2250 441 2565 725 
Q 2881 1009 2881 1497 
Q 2881 1984 2565 2268 
Q 2250 2553 1709 2553 
Q 1456 2553 1204 2497 
Q 953 2441 691 2322 
L 691 4666 
z
" transform="scale(0.015625)"/>
       </defs>
       <use xlink:href="#DejaVuSans-2212"/>
       <use xlink:href="#DejaVuSans-31" x="83.789062"/>
       <use xlink:href="#DejaVuSans-2e" x="147.412109"/>
       <use xlink:href="#DejaVuSans-35" x="179.199219"/>
      </g>
     </g>
    </g>
    <g id="xtick_2">
     <g id="line2d_2">
      <g>
       <use xlink:href="#mdd1983372d" x="88.703647" y="167.333059" style="stroke: #000000; stroke-width: 0.8"/>
      </g>
     </g>
     <g id="text_2">
      <!-- −1.0 -->
      <g transform="translate(76.562241 181.931497) scale(0.1 -0.1)">
       <defs>
        <path id="DejaVuSans-30" d="M 2034 4250 
Q 1547 4250 1301 3770 
Q 1056 3291 1056 2328 
Q 1056 1369 1301 889 
Q 1547 409 2034 409 
Q 2525 409 2770 889 
Q 3016 1369 3016 2328 
Q 3016 3291 2770 3770 
Q 2525 4250 2034 4250 
z
M 2034 4750 
Q 2819 4750 3233 4129 
Q 3647 3509 3647 2328 
Q 3647 1150 3233 529 
Q 2819 -91 2034 -91 
Q 1250 -91 836 529 
Q 422 1150 422 2328 
Q 422 3509 836 4129 
Q 1250 4750 2034 4750 
z
" transform="scale(0.015625)"/>
       </defs>
       <use xlink:href="#DejaVuSans-2212"/>
       <use xlink:href="#DejaVuSans-31" x="83.789062"/>
       <use xlink:href="#DejaVuSans-2e" x="147.412109"/>
       <use xlink:href="#DejaVuSans-30" x="179.199219"/>
      </g>
     </g>
    </g>
    <g id="xtick_3">
     <g id="line2d_3">
      <g>
       <use xlink:href="#mdd1983372d" x="158.065888" y="167.333059" style="stroke: #000000; stroke-width: 0.8"/>
      </g>
     </g>
     <g id="text_3">
      <!-- −0.5 -->
      <g transform="translate(145.924482 181.931497) scale(0.1 -0.1)">
       <use xlink:href="#DejaVuSans-2212"/>
       <use xlink:href="#DejaVuSans-30" x="83.789062"/>
       <use xlink:href="#DejaVuSans-2e" x="147.412109"/>
       <use xlink:href="#DejaVuSans-35" x="179.199219"/>
      </g>
     </g>
    </g>
    <g id="xtick_4">
     <g id="line2d_4">
      <g>
       <use xlink:href="#mdd1983372d" x="227.42813" y="167.333059" style="stroke: #000000; stroke-width: 0.8"/>
      </g>
     </g>
    </g>
    <g id="xtick_5">
     <g id="line2d_5">
      <g>
       <use xlink:href="#mdd1983372d" x="296.790371" y="167.333059" style="stroke: #000000; stroke-width: 0.8"/>
      </g>
     </g>
     <g id="text_4">
      <!-- 0.5 -->
      <g transform="translate(288.838808 181.931497) scale(0.1 -0.1)">
       <use xlink:href="#DejaVuSans-30"/>
       <use xlink:href="#DejaVuSans-2e" x="63.623047"/>
       <use xlink:href="#DejaVuSans-35" x="95.410156"/>
      </g>
     </g>
    </g>
    <g id="xtick_6">
     <g id="line2d_6">
      <g>
       <use xlink:href="#mdd1983372d" x="366.152612" y="167.333059" style="stroke: #000000; stroke-width: 0.8"/>
      </g>
     </g>
     <g id="text_5">
      <!-- 1.0 -->
      <g transform="translate(358.201049 181.931497) scale(0.1 -0.1)">
       <use xlink:href="#DejaVuSans-31"/>
       <use xlink:href="#DejaVuSans-2e" x="63.623047"/>
       <use xlink:href="#DejaVuSans-30" x="95.410156"/>
      </g>
     </g>
    </g>
    <g id="xtick_7">
     <g id="line2d_7">
      <g>
       <use xlink:href="#mdd1983372d" x="435.514853" y="167.333059" style="stroke: #000000; stroke-width: 0.8"/>
      </g>
     </g>
     <g id="text_6">
      <!-- 1.5 -->
      <g transform="translate(427.56329 181.931497) scale(0.1 -0.1)">
       <use xlink:href="#DejaVuSans-31"/>
       <use xlink:href="#DejaVuSans-2e" x="63.623047"/>
       <use xlink:href="#DejaVuSans-35" x="95.410156"/>
      </g>
     </g>
    </g>
    <g id="xtick_8">
     <g id="line2d_8">
      <defs>
       <path id="ma641d158bf" d="M 0 0 
L 0 2 
" style="stroke: #000000; stroke-width: 0.6"/>
      </defs>
      <g>
       <use xlink:href="#ma641d158bf" x="33.213854" y="167.333059" style="stroke: #000000; stroke-width: 0.6"/>
      </g>
     </g>
    </g>
    <g id="xtick_9">
     <g id="line2d_9">
      <g>
       <use xlink:href="#ma641d158bf" x="47.086303" y="167.333059" style="stroke: #000000; stroke-width: 0.6"/>
      </g>
     </g>
    </g>
    <g id="xtick_10">
     <g id="line2d_10">
      <g>
       <use xlink:href="#ma641d158bf" x="60.958751" y="167.333059" style="stroke: #000000; stroke-width: 0.6"/>
      </g>
     </g>
    </g>
    <g id="xtick_11">
     <g id="line2d_11">
      <g>
       <use xlink:href="#ma641d158bf" x="74.831199" y="167.333059" style="stroke: #000000; stroke-width: 0.6"/>
      </g>
     </g>
    </g>
    <g id="xtick_12">
     <g id="line2d_12">
      <g>
       <use xlink:href="#ma641d158bf" x="102.576096" y="167.333059" style="stroke: #000000; stroke-width: 0.6"/>
      </g>
     </g>
    </g>
    <g id="xtick_13">
     <g id="line2d_13">
      <g>
       <use xlink:href="#ma641d158bf" x="116.448544" y="167.333059" style="stroke: #000000; stroke-width: 0.6"/>
      </g>
     </g>
    </g>
    <g id="xtick_14">
     <g id="line2d_14">
      <g>
       <use xlink:href="#ma641d158bf" x="130.320992" y="167.333059" style="stroke: #000000; stroke-width: 0.6"/>
      </g>
     </g>
    </g>
    <g id="xtick_15">
     <g id="line2d_15">
      <g>
       <use xlink:href="#ma641d158bf" x="144.19344" y="167.333059" style="stroke: #000000; stroke-width: 0.6"/>
      </g>
     </g>
    </g>
    <g id="xtick_16">
     <g id="line2d_16">
      <g>
       <use xlink:href="#ma641d158bf" x="171.938337" y="167.333059" style="stroke: #000000; stroke-width: 0.6"/>
      </g>
     </g>
    </g>
    <g id="xtick_17">
     <g id="line2d_17">
      <g>
       <use xlink:href="#ma641d158bf" x="185.810785" y="167.333059" style="stroke: #000000; stroke-width: 0.6"/>
      </g>
     </g>
    </g>
    <g id="xtick_18">
     <g id="line2d_18">
      <g>
       <use xlink:href="#ma641d158bf" x="199.683233" y="167.333059" style="stroke: #000000; stroke-width: 0.6"/>
      </g>
     </g>
    </g>
    <g id="xtick_19">
     <g id="line2d_19">
      <g>
       <use xlink:href="#ma641d158bf" x="213.555681" y="167.333059" style="stroke: #000000; stroke-width: 0.6"/>
      </g>
     </g>
    </g>
    <g id="xtick_20">
     <g id="line2d_20">
      <g>
       <use xlink:href="#ma641d158bf" x="241.300578" y="167.333059" style="stroke: #000000; stroke-width: 0.6"/>
      </g>
     </g>
    </g>
    <g id="xtick_21">
     <g id="line2d_21">
      <g>
       <use xlink:href="#ma641d158bf" x="255.173026" y="167.333059" style="stroke: #000000; stroke-width: 0.6"/>
      </g>
     </g>
    </g>
    <g id="xtick_22">
     <g id="line2d_22">
      <g>
       <use xlink:href="#ma641d158bf" x="269.045474" y="167.333059" style="stroke: #000000; stroke-width: 0.6"/>
      </g>
     </g>
    </g>
    <g id="xtick_23">
     <g id="line2d_23">
      <g>
       <use xlink:href="#ma641d158bf" x="282.917923" y="167.333059" style="stroke: #000000; stroke-width: 0.6"/>
      </g>
     </g>
    </g>
    <g id="xtick_24">
     <g id="line2d_24">
      <g>
       <use xlink:href="#ma641d158bf" x="310.662819" y="167.333059" style="stroke: #000000; stroke-width: 0.6"/>
      </g>
     </g>
    </g>
    <g id="xtick_25">
     <g id="line2d_25">
      <g>
       <use xlink:href="#ma641d158bf" x="324.535267" y="167.333059" style="stroke: #000000; stroke-width: 0.6"/>
      </g>
     </g>
    </g>
    <g id="xtick_26">
     <g id="line2d_26">
      <g>
       <use xlink:href="#ma641d158bf" x="338.407715" y="167.333059" style="stroke: #000000; stroke-width: 0.6"/>
      </g>
     </g>
    </g>
    <g id="xtick_27">
     <g id="line2d_27">
      <g>
       <use xlink:href="#ma641d158bf" x="352.280164" y="167.333059" style="stroke: #000000; stroke-width: 0.6"/>
      </g>
     </g>
    </g>
    <g id="xtick_28">
     <g id="line2d_28">
      <g>
       <use xlink:href="#ma641d158bf" x="380.02506" y="167.333059" style="stroke: #000000; stroke-width: 0.6"/>
      </g>
     </g>
    </g>
    <g id="xtick_29">
     <g id="line2d_29">
      <g>
       <use xlink:href="#ma641d158bf" x="393.897508" y="167.333059" style="stroke: #000000; stroke-width: 0.6"/>
      </g>
     </g>
    </g>
    <g id="xtick_30">
     <g id="line2d_30">
      <g>
       <use xlink:href="#ma641d158bf" x="407.769957" y="167.333059" style="stroke: #000000; stroke-width: 0.6"/>
      </g>
     </g>
    </g>
    <g id="xtick_31">
     <g id="line2d_31">
      <g>
       <use xlink:href="#ma641d158bf" x="421.642405" y="167.333059" style="stroke: #000000; stroke-width: 0.6"/>
      </g>
     </g>
    </g>
   </g>
   <g id="matplotlib.axis_2">
    <g id="ytick_1">
     <g id="line2d_32">
      <defs>
       <path id="mddb5b5ed38" d="M 0 0 
L -3.5 0 
" style="stroke: #000000; stroke-width: 0.8"/>
      </defs>
      <g>
       <use xlink:href="#mddb5b5ed38" x="227.42813" y="323.6669" style="stroke: #000000; stroke-width: 0.8"/>
      </g>
     </g>
     <g id="text_7">
      <!-- −6 -->
      <g transform="translate(205.685942 327.466119) scale(0.1 -0.1)">
       <defs>
        <path id="DejaVuSans-36" d="M 2113 2584 
Q 1688 2584 1439 2293 
Q 1191 2003 1191 1497 
Q 1191 994 1439 701 
Q 1688 409 2113 409 
Q 2538 409 2786 701 
Q 3034 994 3034 1497 
Q 3034 2003 2786 2293 
Q 2538 2584 2113 2584 
z
M 3366 4563 
L 3366 3988 
Q 3128 4100 2886 4159 
Q 2644 4219 2406 4219 
Q 1781 4219 1451 3797 
Q 1122 3375 1075 2522 
Q 1259 2794 1537 2939 
Q 1816 3084 2150 3084 
Q 2853 3084 3261 2657 
Q 3669 2231 3669 1497 
Q 3669 778 3244 343 
Q 2819 -91 2113 -91 
Q 1303 -91 875 529 
Q 447 1150 447 2328 
Q 447 3434 972 4092 
Q 1497 4750 2381 4750 
Q 2619 4750 2861 4703 
Q 3103 4656 3366 4563 
z
" transform="scale(0.015625)"/>
       </defs>
       <use xlink:href="#DejaVuSans-2212"/>
       <use xlink:href="#DejaVuSans-36" x="83.789062"/>
      </g>
     </g>
    </g>
    <g id="ytick_2">
     <g id="line2d_33">
      <g>
       <use xlink:href="#mddb5b5ed38" x="227.42813" y="271.55562" style="stroke: #000000; stroke-width: 0.8"/>
      </g>
     </g>
     <g id="text_8">
      <!-- −4 -->
      <g transform="translate(205.685942 275.354838) scale(0.1 -0.1)">
       <defs>
        <path id="DejaVuSans-34" d="M 2419 4116 
L 825 1625 
L 2419 1625 
L 2419 4116 
z
M 2253 4666 
L 3047 4666 
L 3047 1625 
L 3713 1625 
L 3713 1100 
L 3047 1100 
L 3047 0 
L 2419 0 
L 2419 1100 
L 313 1100 
L 313 1709 
L 2253 4666 
z
" transform="scale(0.015625)"/>
       </defs>
       <use xlink:href="#DejaVuSans-2212"/>
       <use xlink:href="#DejaVuSans-34" x="83.789062"/>
      </g>
     </g>
    </g>
    <g id="ytick_3">
     <g id="line2d_34">
      <g>
       <use xlink:href="#mddb5b5ed38" x="227.42813" y="219.444339" style="stroke: #000000; stroke-width: 0.8"/>
      </g>
     </g>
     <g id="text_9">
      <!-- −2 -->
      <g transform="translate(205.685942 223.243558) scale(0.1 -0.1)">
       <defs>
        <path id="DejaVuSans-32" d="M 1228 531 
L 3431 531 
L 3431 0 
L 469 0 
L 469 531 
Q 828 903 1448 1529 
Q 2069 2156 2228 2338 
Q 2531 2678 2651 2914 
Q 2772 3150 2772 3378 
Q 2772 3750 2511 3984 
Q 2250 4219 1831 4219 
Q 1534 4219 1204 4116 
Q 875 4013 500 3803 
L 500 4441 
Q 881 4594 1212 4672 
Q 1544 4750 1819 4750 
Q 2544 4750 2975 4387 
Q 3406 4025 3406 3419 
Q 3406 3131 3298 2873 
Q 3191 2616 2906 2266 
Q 2828 2175 2409 1742 
Q 1991 1309 1228 531 
z
" transform="scale(0.015625)"/>
       </defs>
       <use xlink:href="#DejaVuSans-2212"/>
       <use xlink:href="#DejaVuSans-32" x="83.789062"/>
      </g>
     </g>
    </g>
    <g id="ytick_4">
     <g id="line2d_35">
      <g>
       <use xlink:href="#mddb5b5ed38" x="227.42813" y="167.333059" style="stroke: #000000; stroke-width: 0.8"/>
      </g>
     </g>
    </g>
    <g id="ytick_5">
     <g id="line2d_36">
      <g>
       <use xlink:href="#mddb5b5ed38" x="227.42813" y="115.221779" style="stroke: #000000; stroke-width: 0.8"/>
      </g>
     </g>
     <g id="text_10">
      <!-- 2 -->
      <g transform="translate(214.06563 119.020998) scale(0.1 -0.1)">
       <use xlink:href="#DejaVuSans-32"/>
      </g>
     </g>
    </g>
    <g id="ytick_6">
     <g id="line2d_37">
      <g>
       <use xlink:href="#mddb5b5ed38" x="227.42813" y="63.110499" style="stroke: #000000; stroke-width: 0.8"/>
      </g>
     </g>
     <g id="text_11">
      <!-- 4 -->
      <g transform="translate(214.06563 66.909718) scale(0.1 -0.1)">
       <use xlink:href="#DejaVuSans-34"/>
      </g>
     </g>
    </g>
    <g id="ytick_7">
     <g id="line2d_38">
      <g>
       <use xlink:href="#mddb5b5ed38" x="227.42813" y="10.999219" style="stroke: #000000; stroke-width: 0.8"/>
      </g>
     </g>
     <g id="text_12">
      <!-- 6 -->
      <g transform="translate(214.06563 14.798438) scale(0.1 -0.1)">
       <use xlink:href="#DejaVuSans-36"/>
      </g>
     </g>
    </g>
    <g id="ytick_8">
     <g id="line2d_39">
      <defs>
       <path id="ma7f6c3a11b" d="M 0 0 
L -2 0 
" style="stroke: #000000; stroke-width: 0.6"/>
      </defs>
      <g>
       <use xlink:href="#ma7f6c3a11b" x="227.42813" y="310.63908" style="stroke: #000000; stroke-width: 0.6"/>
      </g>
     </g>
    </g>
    <g id="ytick_9">
     <g id="line2d_40">
      <g>
       <use xlink:href="#ma7f6c3a11b" x="227.42813" y="297.61126" style="stroke: #000000; stroke-width: 0.6"/>
      </g>
     </g>
    </g>
    <g id="ytick_10">
     <g id="line2d_41">
      <g>
       <use xlink:href="#ma7f6c3a11b" x="227.42813" y="284.58344" style="stroke: #000000; stroke-width: 0.6"/>
      </g>
     </g>
    </g>
    <g id="ytick_11">
     <g id="line2d_42">
      <g>
       <use xlink:href="#ma7f6c3a11b" x="227.42813" y="258.5278" style="stroke: #000000; stroke-width: 0.6"/>
      </g>
     </g>
    </g>
    <g id="ytick_12">
     <g id="line2d_43">
      <g>
       <use xlink:href="#ma7f6c3a11b" x="227.42813" y="245.49998" style="stroke: #000000; stroke-width: 0.6"/>
      </g>
     </g>
    </g>
    <g id="ytick_13">
     <g id="line2d_44">
      <g>
       <use xlink:href="#ma7f6c3a11b" x="227.42813" y="232.472159" style="stroke: #000000; stroke-width: 0.6"/>
      </g>
     </g>
    </g>
    <g id="ytick_14">
     <g id="line2d_45">
      <g>
       <use xlink:href="#ma7f6c3a11b" x="227.42813" y="206.416519" style="stroke: #000000; stroke-width: 0.6"/>
      </g>
     </g>
    </g>
    <g id="ytick_15">
     <g id="line2d_46">
      <g>
       <use xlink:href="#ma7f6c3a11b" x="227.42813" y="193.388699" style="stroke: #000000; stroke-width: 0.6"/>
      </g>
     </g>
    </g>
    <g id="ytick_16">
     <g id="line2d_47">
      <g>
       <use xlink:href="#ma7f6c3a11b" x="227.42813" y="180.360879" style="stroke: #000000; stroke-width: 0.6"/>
      </g>
     </g>
    </g>
    <g id="ytick_17">
     <g id="line2d_48">
      <g>
       <use xlink:href="#ma7f6c3a11b" x="227.42813" y="154.305239" style="stroke: #000000; stroke-width: 0.6"/>
      </g>
     </g>
    </g>
    <g id="ytick_18">
     <g id="line2d_49">
      <g>
       <use xlink:href="#ma7f6c3a11b" x="227.42813" y="141.277419" style="stroke: #000000; stroke-width: 0.6"/>
      </g>
     </g>
    </g>
    <g id="ytick_19">
     <g id="line2d_50">
      <g>
       <use xlink:href="#ma7f6c3a11b" x="227.42813" y="128.249599" style="stroke: #000000; stroke-width: 0.6"/>
      </g>
     </g>
    </g>
    <g id="ytick_20">
     <g id="line2d_51">
      <g>
       <use xlink:href="#ma7f6c3a11b" x="227.42813" y="102.193959" style="stroke: #000000; stroke-width: 0.6"/>
      </g>
     </g>
    </g>
    <g id="ytick_21">
     <g id="line2d_52">
      <g>
       <use xlink:href="#ma7f6c3a11b" x="227.42813" y="89.166139" style="stroke: #000000; stroke-width: 0.6"/>
      </g>
     </g>
    </g>
    <g id="ytick_22">
     <g id="line2d_53">
      <g>
       <use xlink:href="#ma7f6c3a11b" x="227.42813" y="76.138319" style="stroke: #000000; stroke-width: 0.6"/>
      </g>
     </g>
    </g>
    <g id="ytick_23">
     <g id="line2d_54">
      <g>
       <use xlink:href="#ma7f6c3a11b" x="227.42813" y="50.082679" style="stroke: #000000; stroke-width: 0.6"/>
      </g>
     </g>
    </g>
    <g id="ytick_24">
     <g id="line2d_55">
      <g>
       <use xlink:href="#ma7f6c3a11b" x="227.42813" y="37.054859" style="stroke: #000000; stroke-width: 0.6"/>
      </g>
     </g>
    </g>
    <g id="ytick_25">
     <g id="line2d_56">
      <g>
       <use xlink:href="#ma7f6c3a11b" x="227.42813" y="24.027039" style="stroke: #000000; stroke-width: 0.6"/>
      </g>
     </g>
    </g>
   </g>
   <g id="line2d_57">
    <path d="M 19.341406 321.224184 
L 22.057041 300.480262 
L 24.943096 280.077633 
L 27.762327 261.703059 
L 30.572508 244.841188 
L 33.257366 230.01963 
L 35.864719 216.771297 
L 38.735592 203.423068 
L 41.448341 191.941244 
L 44.075351 181.813998 
L 46.638426 172.824213 
L 48.947218 165.441223 
L 51.412385 158.267993 
L 53.925867 151.66981 
L 56.178574 146.337895 
L 58.302426 141.788702 
L 60.481329 137.579355 
L 62.891953 133.434294 
L 65.094628 130.091526 
L 67.167676 127.312184 
L 69.620508 124.457036 
L 71.936174 122.167258 
L 73.991921 120.444736 
L 76.077436 118.977896 
L 78.058775 117.831117 
L 79.908589 116.965127 
L 82.226124 116.142097 
L 84.649874 115.572058 
L 86.750363 115.301098 
L 89.112126 115.225151 
L 91.736371 115.401852 
L 94.478422 115.853217 
L 97.104418 116.515575 
L 100.054108 117.498668 
L 103.301064 118.837259 
L 107.185974 120.738627 
L 111.129964 122.942198 
L 115.391976 125.563765 
L 120.808842 129.150001 
L 130.412187 135.849354 
L 141.081385 143.219865 
L 147.749909 147.534188 
L 153.069931 150.728526 
L 158.307159 153.618156 
L 163.893724 156.392894 
L 169.155539 158.69918 
L 173.539857 160.387943 
L 177.922379 161.864687 
L 182.020857 163.058088 
L 186.649375 164.19549 
L 191.292724 165.124237 
L 196.378799 165.916237 
L 201.926505 166.540157 
L 206.69023 166.903677 
L 212.073802 167.157711 
L 221.082761 167.320607 
L 243.025207 167.516813 
L 249.963269 167.882678 
L 255.575629 168.394436 
L 261.122356 169.133703 
L 266.497242 170.104701 
L 272.169818 171.43096 
L 277.436229 172.960082 
L 282.188132 174.59704 
L 286.28945 176.209879 
L 290.822131 178.207763 
L 295.553781 180.529696 
L 300.731767 183.334418 
L 306.329166 186.650311 
L 311.794568 190.133815 
L 318.633575 194.754334 
L 338.889485 208.733415 
L 343.621148 211.66197 
L 347.853792 214.023797 
L 351.315498 215.720437 
L 354.833646 217.179178 
L 357.942432 218.20567 
L 360.431674 218.824211 
L 362.967264 219.246054 
L 365.64631 219.439165 
L 367.961053 219.376466 
L 369.965389 219.135355 
L 372.140132 218.662514 
L 374.372934 217.931581 
L 376.246305 217.113181 
L 378.575071 215.816996 
L 380.841401 214.239022 
L 383.065562 212.366131 
L 385.045997 210.411184 
L 386.894541 208.328349 
L 389.168632 205.405076 
L 391.425972 202.087051 
L 393.796198 198.129854 
L 395.961757 194.066118 
L 398.027242 189.769597 
L 400.379227 184.350491 
L 402.817915 178.107369 
L 405.28194 171.117704 
L 407.597244 163.891504 
L 410.232017 154.849742 
L 412.762611 145.300922 
L 415.250567 135.042573 
L 417.894501 123.145201 
L 420.674701 109.468618 
L 423.374526 94.981983 
L 426.208442 78.42935 
L 429.045672 60.402538 
L 431.834176 41.192488 
L 434.566648 20.859962 
L 435.514853 13.441935 
L 435.514853 13.441935 
" clip-path="url(#pca536cbf8a)" style="fill: none; stroke: #0000ff; stroke-linecap: square"/>
   </g>
   <g id="patch_3">
    <path d="M 227.42813 327.379828 
L 227.42813 7.28629 
" style="fill: none; stroke: #000000; stroke-width: 0.8; stroke-linejoin: miter; stroke-linecap: square"/>
   </g>
   <g id="patch_4">
    <path d="M 11.017937 167.333059 
L 443.838322 167.333059 
" style="fill: none; stroke: #000000; stroke-width: 0.8; stroke-linejoin: miter; stroke-linecap: square"/>
   </g>
  </g>
 </g>
 <defs>
  <clipPath id="pca536cbf8a">
   <rect x="11.017937" y="7.28629" width="432.820385" height="320.093538"/>
  </clipPath>
 </defs>
</svg>
