<?xml version="1.0" encoding="utf-8" standalone="no"?>
<!DOCTYPE svg PUBLIC "-//W3C//DTD SVG 1.1//EN"
  "http://www.w3.org/Graphics/SVG/1.1/DTD/svg11.dtd">
<svg xmlns:xlink="http://www.w3.org/1999/xlink" width="375.82355pt" height="333.087574pt" viewBox="0 0 375.82355 333.087574" xmlns="http://www.w3.org/2000/svg" version="1.1">
 <metadata>
  <rdf:RDF xmlns:dc="http://purl.org/dc/elements/1.1/" xmlns:cc="http://creativecommons.org/ns#" xmlns:rdf="http://www.w3.org/1999/02/22-rdf-syntax-ns#">
   <cc:Work>
    <dc:type rdf:resource="http://purl.org/dc/dcmitype/StillImage"/>
    <dc:date>2025-07-28T15:10:13.301080</dc:date>
    <dc:format>image/svg+xml</dc:format>
    <dc:creator>
     <cc:Agent>
      <dc:title>Matplotlib v3.6.2, https://matplotlib.org/</dc:title>
     </cc:Agent>
    </dc:creator>
   </cc:Work>
  </rdf:RDF>
 </metadata>
 <defs>
  <style type="text/css">*{stroke-linejoin: round; stroke-linecap: butt}</style>
 </defs>
 <g id="figure_1">
  <g id="patch_1">
   <path d="M -0 333.087574 
L 375.82355 333.087574 
L 375.82355 0 
L -0 0 
z
" style="fill: #ffffff"/>
  </g>
  <g id="axes_1">
   <g id="patch_2">
    <path d="M 24.889929 323.941325 
L 357.173621 323.941325 
L 357.173621 9.146249 
L 24.889929 9.146249 
z
" style="fill: #ffffff"/>
   </g>
   <g id="PathCollection_1">
    <path d="M 325.559586 170.079321 
C 326.49722 170.079321 327.396578 169.706795 328.059586 169.043787 
C 328.722594 168.380779 329.09512 167.481422 329.09512 166.543787 
C 329.09512 165.606152 328.722594 164.706795 328.059586 164.043787 
C 327.396578 163.380779 326.49722 163.008253 325.559586 163.008253 
C 324.621951 163.008253 323.722594 163.380779 323.059586 164.043787 
C 322.396578 164.706795 322.024052 165.606152 322.024052 166.543787 
C 322.024052 167.481422 322.396578 168.380779 323.059586 169.043787 
C 323.722594 169.706795 324.621951 170.079321 325.559586 170.079321 
z
" clip-path="url(#p25ff8ce59a)" style="fill: #ff0000"/>
   </g>
   <g id="PathCollection_2">
    <path d="M 56.503964 170.079321 
C 57.441599 170.079321 58.340957 169.706795 59.003964 169.043787 
C 59.666972 168.380779 60.039498 167.481422 60.039498 166.543787 
C 60.039498 165.606152 59.666972 164.706795 59.003964 164.043787 
C 58.340957 163.380779 57.441599 163.008253 56.503964 163.008253 
C 55.56633 163.008253 54.666972 163.380779 54.003964 164.043787 
C 53.340957 164.706795 52.968431 165.606152 52.968431 166.543787 
C 52.968431 167.481422 53.340957 168.380779 54.003964 169.043787 
C 54.666972 169.706795 55.56633 170.079321 56.503964 170.079321 
z
" clip-path="url(#p25ff8ce59a)" style="fill: #ff0000"/>
   </g>
   <g id="PathCollection_3">
    <path d="M 191.031775 35.55151 
C 191.96941 35.55151 192.868767 35.178984 193.531775 34.515976 
C 194.194783 33.852969 194.567309 32.953611 194.567309 32.015976 
C 194.567309 31.078342 194.194783 30.178984 193.531775 29.515976 
C 192.868767 28.852969 191.96941 28.480442 191.031775 28.480442 
C 190.094141 28.480442 189.194783 28.852969 188.531775 29.515976 
C 187.868767 30.178984 187.496241 31.078342 187.496241 32.015976 
C 187.496241 32.953611 187.868767 33.852969 188.531775 34.515976 
C 189.194783 35.178984 190.094141 35.55151 191.031775 35.55151 
z
" clip-path="url(#p25ff8ce59a)" style="fill: #ff0000"/>
   </g>
   <g id="PathCollection_4">
    <path d="M 191.031775 304.607132 
C 191.96941 304.607132 192.868767 304.234605 193.531775 303.571598 
C 194.194783 302.90859 194.567309 302.009232 194.567309 301.071598 
C 194.567309 300.133963 194.194783 299.234605 193.531775 298.571598 
C 192.868767 297.90859 191.96941 297.536064 191.031775 297.536064 
C 190.094141 297.536064 189.194783 297.90859 188.531775 298.571598 
C 187.868767 299.234605 187.496241 300.133963 187.496241 301.071598 
C 187.496241 302.009232 187.868767 302.90859 188.531775 303.571598 
C 189.194783 304.234605 190.094141 304.607132 191.031775 304.607132 
z
" clip-path="url(#p25ff8ce59a)" style="fill: #ff0000"/>
   </g>
   <g id="PathCollection_5">
    <path d="M 291.927633 81.097538 
C 292.865268 81.097538 293.764625 80.725012 294.427633 80.062004 
C 295.090641 79.398996 295.463167 78.499639 295.463167 77.562004 
C 295.463167 76.62437 295.090641 75.725012 294.427633 75.062004 
C 293.764625 74.398996 292.865268 74.02647 291.927633 74.02647 
C 290.989999 74.02647 290.090641 74.398996 289.427633 75.062004 
C 288.764625 75.725012 288.392099 76.62437 288.392099 77.562004 
C 288.392099 78.499639 288.764625 79.398996 289.427633 80.062004 
C 290.090641 80.725012 290.989999 81.097538 291.927633 81.097538 
z
" clip-path="url(#p25ff8ce59a)" style="fill: #ff0000"/>
   </g>
   <g id="PathCollection_6">
    <path d="M 291.927633 259.061104 
C 292.865268 259.061104 293.764625 258.688578 294.427633 258.02557 
C 295.090641 257.362562 295.463167 256.463204 295.463167 255.52557 
C 295.463167 254.587935 295.090641 253.688578 294.427633 253.02557 
C 293.764625 252.362562 292.865268 251.990036 291.927633 251.990036 
C 290.989999 251.990036 290.090641 252.362562 289.427633 253.02557 
C 288.764625 253.688578 288.392099 254.587935 288.392099 255.52557 
C 288.392099 256.463204 288.764625 257.362562 289.427633 258.02557 
C 290.090641 258.688578 290.989999 259.061104 291.927633 259.061104 
z
" clip-path="url(#p25ff8ce59a)" style="fill: #ff0000"/>
   </g>
   <g id="matplotlib.axis_1">
    <g id="xtick_1">
     <g id="line2d_1">
      <defs>
       <path id="m75aa48bd30" d="M 0 0 
L 0 3.5 
" style="stroke: #000000; stroke-width: 0.8"/>
      </defs>
      <g>
       <use xlink:href="#m75aa48bd30" x="56.503964" y="166.543787" style="stroke: #000000; stroke-width: 0.8"/>
      </g>
     </g>
     <g id="text_1">
      <!-- −4 -->
      <g transform="translate(49.132871 181.142224) scale(0.1 -0.1)">
       <defs>
        <path id="DejaVuSans-2212" d="M 678 2272 
L 4684 2272 
L 4684 1741 
L 678 1741 
L 678 2272 
z
" transform="scale(0.015625)"/>
        <path id="DejaVuSans-34" d="M 2419 4116 
L 825 1625 
L 2419 1625 
L 2419 4116 
z
M 2253 4666 
L 3047 4666 
L 3047 1625 
L 3713 1625 
L 3713 1100 
L 3047 1100 
L 3047 0 
L 2419 0 
L 2419 1100 
L 313 1100 
L 313 1709 
L 2253 4666 
z
" transform="scale(0.015625)"/>
       </defs>
       <use xlink:href="#DejaVuSans-2212"/>
       <use xlink:href="#DejaVuSans-34" x="83.789062"/>
      </g>
     </g>
    </g>
    <g id="xtick_2">
     <g id="line2d_2">
      <g>
       <use xlink:href="#m75aa48bd30" x="123.76787" y="166.543787" style="stroke: #000000; stroke-width: 0.8"/>
      </g>
     </g>
     <g id="text_2">
      <!-- −2 -->
      <g transform="translate(116.396776 181.142224) scale(0.1 -0.1)">
       <defs>
        <path id="DejaVuSans-32" d="M 1228 531 
L 3431 531 
L 3431 0 
L 469 0 
L 469 531 
Q 828 903 1448 1529 
Q 2069 2156 2228 2338 
Q 2531 2678 2651 2914 
Q 2772 3150 2772 3378 
Q 2772 3750 2511 3984 
Q 2250 4219 1831 4219 
Q 1534 4219 1204 4116 
Q 875 4013 500 3803 
L 500 4441 
Q 881 4594 1212 4672 
Q 1544 4750 1819 4750 
Q 2544 4750 2975 4387 
Q 3406 4025 3406 3419 
Q 3406 3131 3298 2873 
Q 3191 2616 2906 2266 
Q 2828 2175 2409 1742 
Q 1991 1309 1228 531 
z
" transform="scale(0.015625)"/>
       </defs>
       <use xlink:href="#DejaVuSans-2212"/>
       <use xlink:href="#DejaVuSans-32" x="83.789062"/>
      </g>
     </g>
    </g>
    <g id="xtick_3">
     <g id="line2d_3">
      <g>
       <use xlink:href="#m75aa48bd30" x="191.031775" y="166.543787" style="stroke: #000000; stroke-width: 0.8"/>
      </g>
     </g>
    </g>
    <g id="xtick_4">
     <g id="line2d_4">
      <g>
       <use xlink:href="#m75aa48bd30" x="258.29568" y="166.543787" style="stroke: #000000; stroke-width: 0.8"/>
      </g>
     </g>
     <g id="text_3">
      <!-- 2 -->
      <g transform="translate(255.11443 181.142224) scale(0.1 -0.1)">
       <use xlink:href="#DejaVuSans-32"/>
      </g>
     </g>
    </g>
    <g id="xtick_5">
     <g id="line2d_5">
      <g>
       <use xlink:href="#m75aa48bd30" x="325.559586" y="166.543787" style="stroke: #000000; stroke-width: 0.8"/>
      </g>
     </g>
     <g id="text_4">
      <!-- 4 -->
      <g transform="translate(322.378336 181.142224) scale(0.1 -0.1)">
       <use xlink:href="#DejaVuSans-34"/>
      </g>
     </g>
    </g>
    <g id="xtick_6">
     <g id="line2d_6">
      <defs>
       <path id="meb51f6eabf" d="M 0 0 
L 0 2 
" style="stroke: #000000; stroke-width: 0.6"/>
      </defs>
      <g>
       <use xlink:href="#meb51f6eabf" x="39.687988" y="166.543787" style="stroke: #000000; stroke-width: 0.6"/>
      </g>
     </g>
    </g>
    <g id="xtick_7">
     <g id="line2d_7">
      <g>
       <use xlink:href="#meb51f6eabf" x="73.319941" y="166.543787" style="stroke: #000000; stroke-width: 0.6"/>
      </g>
     </g>
    </g>
    <g id="xtick_8">
     <g id="line2d_8">
      <g>
       <use xlink:href="#meb51f6eabf" x="90.135917" y="166.543787" style="stroke: #000000; stroke-width: 0.6"/>
      </g>
     </g>
    </g>
    <g id="xtick_9">
     <g id="line2d_9">
      <g>
       <use xlink:href="#meb51f6eabf" x="106.951893" y="166.543787" style="stroke: #000000; stroke-width: 0.6"/>
      </g>
     </g>
    </g>
    <g id="xtick_10">
     <g id="line2d_10">
      <g>
       <use xlink:href="#meb51f6eabf" x="140.583846" y="166.543787" style="stroke: #000000; stroke-width: 0.6"/>
      </g>
     </g>
    </g>
    <g id="xtick_11">
     <g id="line2d_11">
      <g>
       <use xlink:href="#meb51f6eabf" x="157.399822" y="166.543787" style="stroke: #000000; stroke-width: 0.6"/>
      </g>
     </g>
    </g>
    <g id="xtick_12">
     <g id="line2d_12">
      <g>
       <use xlink:href="#meb51f6eabf" x="174.215799" y="166.543787" style="stroke: #000000; stroke-width: 0.6"/>
      </g>
     </g>
    </g>
    <g id="xtick_13">
     <g id="line2d_13">
      <g>
       <use xlink:href="#meb51f6eabf" x="207.847751" y="166.543787" style="stroke: #000000; stroke-width: 0.6"/>
      </g>
     </g>
    </g>
    <g id="xtick_14">
     <g id="line2d_14">
      <g>
       <use xlink:href="#meb51f6eabf" x="224.663728" y="166.543787" style="stroke: #000000; stroke-width: 0.6"/>
      </g>
     </g>
    </g>
    <g id="xtick_15">
     <g id="line2d_15">
      <g>
       <use xlink:href="#meb51f6eabf" x="241.479704" y="166.543787" style="stroke: #000000; stroke-width: 0.6"/>
      </g>
     </g>
    </g>
    <g id="xtick_16">
     <g id="line2d_16">
      <g>
       <use xlink:href="#meb51f6eabf" x="275.111657" y="166.543787" style="stroke: #000000; stroke-width: 0.6"/>
      </g>
     </g>
    </g>
    <g id="xtick_17">
     <g id="line2d_17">
      <g>
       <use xlink:href="#meb51f6eabf" x="291.927633" y="166.543787" style="stroke: #000000; stroke-width: 0.6"/>
      </g>
     </g>
    </g>
    <g id="xtick_18">
     <g id="line2d_18">
      <g>
       <use xlink:href="#meb51f6eabf" x="308.743609" y="166.543787" style="stroke: #000000; stroke-width: 0.6"/>
      </g>
     </g>
    </g>
    <g id="xtick_19">
     <g id="line2d_19">
      <g>
       <use xlink:href="#meb51f6eabf" x="342.375562" y="166.543787" style="stroke: #000000; stroke-width: 0.6"/>
      </g>
     </g>
    </g>
   </g>
   <g id="matplotlib.axis_2">
    <g id="ytick_1">
     <g id="line2d_20">
      <defs>
       <path id="m02fe271f1d" d="M 0 0 
L -3.5 0 
" style="stroke: #000000; stroke-width: 0.8"/>
      </defs>
      <g>
       <use xlink:href="#m02fe271f1d" x="191.031775" y="301.071598" style="stroke: #000000; stroke-width: 0.8"/>
      </g>
     </g>
     <g id="text_5">
      <!-- −4 -->
      <g transform="translate(169.289588 304.870816) scale(0.1 -0.1)">
       <use xlink:href="#DejaVuSans-2212"/>
       <use xlink:href="#DejaVuSans-34" x="83.789062"/>
      </g>
     </g>
    </g>
    <g id="ytick_2">
     <g id="line2d_21">
      <g>
       <use xlink:href="#m02fe271f1d" x="191.031775" y="233.807692" style="stroke: #000000; stroke-width: 0.8"/>
      </g>
     </g>
     <g id="text_6">
      <!-- −2 -->
      <g transform="translate(169.289588 237.606911) scale(0.1 -0.1)">
       <use xlink:href="#DejaVuSans-2212"/>
       <use xlink:href="#DejaVuSans-32" x="83.789062"/>
      </g>
     </g>
    </g>
    <g id="ytick_3">
     <g id="line2d_22">
      <g>
       <use xlink:href="#m02fe271f1d" x="191.031775" y="166.543787" style="stroke: #000000; stroke-width: 0.8"/>
      </g>
     </g>
    </g>
    <g id="ytick_4">
     <g id="line2d_23">
      <g>
       <use xlink:href="#m02fe271f1d" x="191.031775" y="99.279882" style="stroke: #000000; stroke-width: 0.8"/>
      </g>
     </g>
     <g id="text_7">
      <!-- 2 -->
      <g transform="translate(177.669275 103.0791) scale(0.1 -0.1)">
       <use xlink:href="#DejaVuSans-32"/>
      </g>
     </g>
    </g>
    <g id="ytick_5">
     <g id="line2d_24">
      <g>
       <use xlink:href="#m02fe271f1d" x="191.031775" y="32.015976" style="stroke: #000000; stroke-width: 0.8"/>
      </g>
     </g>
     <g id="text_8">
      <!-- 4 -->
      <g transform="translate(177.669275 35.815195) scale(0.1 -0.1)">
       <use xlink:href="#DejaVuSans-34"/>
      </g>
     </g>
    </g>
    <g id="ytick_6">
     <g id="line2d_25">
      <defs>
       <path id="ma3de1890d1" d="M 0 0 
L -2 0 
" style="stroke: #000000; stroke-width: 0.6"/>
      </defs>
      <g>
       <use xlink:href="#ma3de1890d1" x="191.031775" y="317.887574" style="stroke: #000000; stroke-width: 0.6"/>
      </g>
     </g>
    </g>
    <g id="ytick_7">
     <g id="line2d_26">
      <g>
       <use xlink:href="#ma3de1890d1" x="191.031775" y="284.255621" style="stroke: #000000; stroke-width: 0.6"/>
      </g>
     </g>
    </g>
    <g id="ytick_8">
     <g id="line2d_27">
      <g>
       <use xlink:href="#ma3de1890d1" x="191.031775" y="267.439645" style="stroke: #000000; stroke-width: 0.6"/>
      </g>
     </g>
    </g>
    <g id="ytick_9">
     <g id="line2d_28">
      <g>
       <use xlink:href="#ma3de1890d1" x="191.031775" y="250.623669" style="stroke: #000000; stroke-width: 0.6"/>
      </g>
     </g>
    </g>
    <g id="ytick_10">
     <g id="line2d_29">
      <g>
       <use xlink:href="#ma3de1890d1" x="191.031775" y="216.991716" style="stroke: #000000; stroke-width: 0.6"/>
      </g>
     </g>
    </g>
    <g id="ytick_11">
     <g id="line2d_30">
      <g>
       <use xlink:href="#ma3de1890d1" x="191.031775" y="200.17574" style="stroke: #000000; stroke-width: 0.6"/>
      </g>
     </g>
    </g>
    <g id="ytick_12">
     <g id="line2d_31">
      <g>
       <use xlink:href="#ma3de1890d1" x="191.031775" y="183.359763" style="stroke: #000000; stroke-width: 0.6"/>
      </g>
     </g>
    </g>
    <g id="ytick_13">
     <g id="line2d_32">
      <g>
       <use xlink:href="#ma3de1890d1" x="191.031775" y="149.727811" style="stroke: #000000; stroke-width: 0.6"/>
      </g>
     </g>
    </g>
    <g id="ytick_14">
     <g id="line2d_33">
      <g>
       <use xlink:href="#ma3de1890d1" x="191.031775" y="132.911834" style="stroke: #000000; stroke-width: 0.6"/>
      </g>
     </g>
    </g>
    <g id="ytick_15">
     <g id="line2d_34">
      <g>
       <use xlink:href="#ma3de1890d1" x="191.031775" y="116.095858" style="stroke: #000000; stroke-width: 0.6"/>
      </g>
     </g>
    </g>
    <g id="ytick_16">
     <g id="line2d_35">
      <g>
       <use xlink:href="#ma3de1890d1" x="191.031775" y="82.463905" style="stroke: #000000; stroke-width: 0.6"/>
      </g>
     </g>
    </g>
    <g id="ytick_17">
     <g id="line2d_36">
      <g>
       <use xlink:href="#ma3de1890d1" x="191.031775" y="65.647929" style="stroke: #000000; stroke-width: 0.6"/>
      </g>
     </g>
    </g>
    <g id="ytick_18">
     <g id="line2d_37">
      <g>
       <use xlink:href="#ma3de1890d1" x="191.031775" y="48.831953" style="stroke: #000000; stroke-width: 0.6"/>
      </g>
     </g>
    </g>
    <g id="ytick_19">
     <g id="line2d_38">
      <g>
       <use xlink:href="#ma3de1890d1" x="191.031775" y="15.2" style="stroke: #000000; stroke-width: 0.6"/>
      </g>
     </g>
    </g>
   </g>
   <g id="line2d_39">
    <path d="M 56.503964 166.543787 
L 56.575763 170.938411 
L 56.865459 176.399311 
L 57.416777 182.188722 
L 58.208358 187.890253 
L 59.39206 194.269538 
L 60.679896 199.802162 
L 62.164391 205.156339 
L 63.814447 210.287167 
L 65.776575 215.623993 
L 68.337455 221.714755 
L 70.630368 226.554061 
L 73.786718 232.508387 
L 76.505176 237.122749 
L 78.517407 240.288271 
L 81.519826 244.677422 
L 84.953448 249.279029 
L 88.797619 253.984676 
L 92.172183 257.782556 
L 96.094975 261.857668 
L 101.364369 266.830816 
L 106.1553 270.916752 
L 111.33852 274.926059 
L 116.506207 278.54232 
L 120.431278 281.057112 
L 125.437637 283.996505 
L 129.547074 286.198972 
L 135.661515 289.148298 
L 140.523991 291.230176 
L 145.435206 293.10873 
L 149.461274 294.487623 
L 154.544017 296.028826 
L 162.540785 298.020003 
L 165.473141 298.62137 
L 170.485332 299.493309 
L 174.112274 300.003378 
L 179.246132 300.554348 
L 187.197547 301.016946 
L 194.523591 301.026273 
L 201.194566 300.687179 
L 209.396047 299.812258 
L 213.616163 299.162327 
L 217.397715 298.462584 
L 225.871209 296.482025 
L 232.781427 294.429276 
L 238.905762 292.264959 
L 241.815112 291.118201 
L 245.998044 289.329947 
L 252.780932 286.062712 
L 258.966548 282.658379 
L 265.15496 278.809033 
L 270.903938 274.794281 
L 276.608149 270.343672 
L 281.444843 266.159092 
L 285.385155 262.435244 
L 290.118442 257.535898 
L 294.319496 252.73763 
L 297.450879 248.840239 
L 300.766377 244.364407 
L 304.36799 239.018847 
L 307.41636 234.014967 
L 310.026235 229.297675 
L 312.525242 224.311159 
L 314.522844 219.907517 
L 316.954004 213.886411 
L 318.704782 208.938778 
L 320.136525 204.3551 
L 321.213987 200.460206 
L 322.784537 193.727268 
L 323.790664 188.287964 
L 324.69568 181.76523 
L 325.278003 175.243337 
L 325.505251 170.366881 
L 325.536337 164.042846 
L 325.390479 159.800602 
L 325.043262 154.768678 
L 324.50719 149.749579 
L 323.766474 144.652431 
L 322.500415 138.017858 
L 321.028484 131.923164 
L 320.09747 128.599378 
L 318.376013 123.171251 
L 316.540272 118.114984 
L 314.455706 113.024958 
L 311.54575 106.759896 
L 308.592919 101.144175 
L 305.486299 95.848003 
L 301.974773 90.455791 
L 299.732767 87.285815 
L 295.386567 81.644969 
L 291.452782 77.026452 
L 287.393495 72.67073 
L 283.828389 69.145017 
L 280.417954 66.006019 
L 276.09888 62.326133 
L 270.280044 57.83572 
L 264.95109 54.144202 
L 260.42517 51.294975 
L 255.492804 48.465391 
L 250.989196 46.116051 
L 247.455751 44.420625 
L 240.891888 41.596994 
L 234.19471 39.128353 
L 226.776917 36.85178 
L 223.140925 35.904075 
L 217.139182 34.573581 
L 210.867559 33.48638 
L 205.208997 32.765096 
L 201.42093 32.417737 
L 196.488142 32.126675 
L 188.49682 32.039862 
L 180.818962 32.404194 
L 174.52439 33.032596 
L 167.839416 34.030217 
L 162.481071 35.080525 
L 156.586501 36.500506 
L 149.323298 38.644863 
L 144.956595 40.152293 
L 138.557499 42.672151 
L 133.338663 45.015039 
L 128.385756 47.492503 
L 124.865567 49.412388 
L 120.583602 51.93669 
L 114.496888 55.908608 
L 110.013305 59.148539 
L 105.181233 62.970546 
L 101.0597 66.53 
L 96.969285 70.366972 
L 92.556104 74.890778 
L 88.310571 79.675576 
L 84.499181 84.3943 
L 81.889203 87.895006 
L 78.758914 92.432138 
L 74.968136 98.522 
L 72.162099 103.553852 
L 69.683128 108.472817 
L 66.948923 114.570932 
L 65.29407 118.713238 
L 63.66983 123.223276 
L 61.867674 128.935717 
L 60.401104 134.397874 
L 59.073087 140.378226 
L 58.32973 144.455351 
L 57.396557 151.072515 
L 56.883733 156.442571 
L 56.602638 161.392193 
L 56.503964 166.543787 
L 56.503964 166.543787 
" clip-path="url(#p25ff8ce59a)" style="fill: none; stroke: #0000ff; stroke-linecap: square"/>
   </g>
   <g id="patch_3">
    <path d="M 191.031775 323.941325 
L 191.031775 9.146249 
" style="fill: none; stroke: #000000; stroke-width: 0.8; stroke-linejoin: miter; stroke-linecap: square"/>
   </g>
   <g id="patch_4">
    <path d="M 24.889929 166.543787 
L 357.173621 166.543787 
" style="fill: none; stroke: #000000; stroke-width: 0.8; stroke-linejoin: miter; stroke-linecap: square"/>
   </g>
   <g id="text_9">
    <!-- $(4,0)$ -->
    <g transform="translate(332.94355 153.727811) scale(0.16 -0.16)">
     <defs>
      <path id="Cmr10-28" d="M 1984 -1588 
Q 1628 -1306 1370 -942 
Q 1113 -578 948 -165 
Q 784 247 703 697 
Q 622 1147 622 1600 
Q 622 2059 703 2509 
Q 784 2959 951 3375 
Q 1119 3791 1378 4153 
Q 1638 4516 1984 4788 
Q 1984 4800 2016 4800 
L 2075 4800 
Q 2094 4800 2109 4783 
Q 2125 4766 2125 4744 
Q 2125 4716 2113 4703 
Q 1800 4397 1592 4047 
Q 1384 3697 1257 3301 
Q 1131 2906 1075 2482 
Q 1019 2059 1019 1600 
Q 1019 -434 2106 -1491 
Q 2125 -1509 2125 -1544 
Q 2125 -1559 2108 -1579 
Q 2091 -1600 2075 -1600 
L 2016 -1600 
Q 1984 -1600 1984 -1588 
z
" transform="scale(0.015625)"/>
      <path id="Cmr10-34" d="M 178 1056 
L 178 1281 
L 2156 4231 
Q 2178 4263 2222 4263 
L 2316 4263 
Q 2388 4263 2388 4191 
L 2388 1281 
L 3016 1281 
L 3016 1056 
L 2388 1056 
L 2388 428 
Q 2388 297 2575 261 
Q 2763 225 3009 225 
L 3009 0 
L 1247 0 
L 1247 225 
Q 1494 225 1681 261 
Q 1869 297 1869 428 
L 1869 1056 
L 178 1056 
z
M 391 1281 
L 1906 1281 
L 1906 3547 
L 391 1281 
z
" transform="scale(0.015625)"/>
      <path id="Cmmi10-3b" d="M 634 -1153 
Q 634 -1125 659 -1100 
Q 891 -878 1019 -587 
Q 1147 -297 1147 25 
L 1147 103 
Q 1044 0 891 0 
Q 744 0 641 103 
Q 538 206 538 353 
Q 538 503 641 603 
Q 744 703 891 703 
Q 1119 703 1216 492 
Q 1313 281 1313 25 
Q 1313 -331 1170 -651 
Q 1028 -972 769 -1228 
Q 744 -1241 728 -1241 
Q 697 -1241 665 -1212 
Q 634 -1184 634 -1153 
z
" transform="scale(0.015625)"/>
      <path id="Cmr10-30" d="M 1600 -141 
Q 816 -141 533 504 
Q 250 1150 250 2041 
Q 250 2597 351 3087 
Q 453 3578 754 3920 
Q 1056 4263 1600 4263 
Q 2022 4263 2290 4056 
Q 2559 3850 2700 3523 
Q 2841 3197 2892 2823 
Q 2944 2450 2944 2041 
Q 2944 1491 2842 1011 
Q 2741 531 2444 195 
Q 2147 -141 1600 -141 
z
M 1600 25 
Q 1956 25 2131 390 
Q 2306 756 2347 1200 
Q 2388 1644 2388 2144 
Q 2388 2625 2347 3031 
Q 2306 3438 2132 3767 
Q 1959 4097 1600 4097 
Q 1238 4097 1063 3765 
Q 888 3434 847 3029 
Q 806 2625 806 2144 
Q 806 1788 823 1472 
Q 841 1156 916 820 
Q 991 484 1158 254 
Q 1325 25 1600 25 
z
" transform="scale(0.015625)"/>
      <path id="Cmr10-29" d="M 416 -1600 
Q 359 -1600 359 -1544 
Q 359 -1516 372 -1503 
Q 1466 -434 1466 1600 
Q 1466 3634 384 4691 
Q 359 4706 359 4744 
Q 359 4766 376 4783 
Q 394 4800 416 4800 
L 475 4800 
Q 494 4800 506 4788 
Q 966 4425 1272 3906 
Q 1578 3388 1720 2800 
Q 1863 2213 1863 1600 
Q 1863 1147 1786 708 
Q 1709 269 1542 -157 
Q 1375 -584 1119 -945 
Q 863 -1306 506 -1588 
Q 494 -1600 475 -1600 
L 416 -1600 
z
" transform="scale(0.015625)"/>
     </defs>
     <use xlink:href="#Cmr10-28"/>
     <use xlink:href="#Cmr10-34" transform="translate(38.818359 0)"/>
     <use xlink:href="#Cmmi10-3b" transform="translate(88.818359 0)"/>
     <use xlink:href="#Cmr10-30" transform="translate(134.0625 0)"/>
     <use xlink:href="#Cmr10-29" transform="translate(184.0625 0)"/>
    </g>
   </g>
   <g id="text_10">
    <!-- $(-4,0)$ -->
    <g transform="translate(7.2 153.727811) scale(0.16 -0.16)">
     <defs>
      <path id="Cmsy10-a1" d="M 653 1472 
Q 600 1472 565 1512 
Q 531 1553 531 1600 
Q 531 1647 565 1687 
Q 600 1728 653 1728 
L 4325 1728 
Q 4375 1728 4408 1687 
Q 4441 1647 4441 1600 
Q 4441 1553 4408 1512 
Q 4375 1472 4325 1472 
L 653 1472 
z
" transform="scale(0.015625)"/>
     </defs>
     <use xlink:href="#Cmr10-28"/>
     <use xlink:href="#Cmsy10-a1" transform="translate(38.818359 0)"/>
     <use xlink:href="#Cmr10-34" transform="translate(116.503906 0)"/>
     <use xlink:href="#Cmmi10-3b" transform="translate(166.503906 0)"/>
     <use xlink:href="#Cmr10-30" transform="translate(211.748047 0)"/>
     <use xlink:href="#Cmr10-29" transform="translate(261.748047 0)"/>
    </g>
   </g>
   <g id="text_11">
    <!-- $(0,4)$ -->
    <g transform="translate(198.41574 19.2) scale(0.16 -0.16)">
     <use xlink:href="#Cmr10-28"/>
     <use xlink:href="#Cmr10-30" transform="translate(38.818359 0)"/>
     <use xlink:href="#Cmmi10-3b" transform="translate(88.818359 0)"/>
     <use xlink:href="#Cmr10-34" transform="translate(134.0625 0)"/>
     <use xlink:href="#Cmr10-29" transform="translate(184.0625 0)"/>
    </g>
   </g>
   <g id="text_12">
    <!-- $(0,-4)$ -->
    <g transform="translate(189.37574 321.887574) scale(0.16 -0.16)">
     <use xlink:href="#Cmr10-28"/>
     <use xlink:href="#Cmr10-30" transform="translate(38.818359 0)"/>
     <use xlink:href="#Cmmi10-3b" transform="translate(88.818359 0)"/>
     <use xlink:href="#Cmsy10-a1" transform="translate(151.621094 0)"/>
     <use xlink:href="#Cmr10-34" transform="translate(246.865234 0)"/>
     <use xlink:href="#Cmr10-29" transform="translate(296.865234 0)"/>
    </g>
   </g>
   <g id="text_13">
    <!-- $(3,\sqrt{7})$ -->
    <g transform="translate(290.511598 61.716558) scale(0.16 -0.16)">
     <defs>
      <path id="Cmr10-33" d="M 609 494 
Q 759 275 1012 169 
Q 1266 63 1556 63 
Q 1928 63 2084 380 
Q 2241 697 2241 1100 
Q 2241 1281 2208 1462 
Q 2175 1644 2097 1800 
Q 2019 1956 1883 2050 
Q 1747 2144 1550 2144 
L 1125 2144 
Q 1069 2144 1069 2203 
L 1069 2259 
Q 1069 2309 1125 2309 
L 1478 2338 
Q 1703 2338 1851 2506 
Q 2000 2675 2069 2917 
Q 2138 3159 2138 3378 
Q 2138 3684 1994 3881 
Q 1850 4078 1556 4078 
Q 1313 4078 1091 3986 
Q 869 3894 738 3706 
Q 750 3709 759 3711 
Q 769 3713 781 3713 
Q 925 3713 1022 3613 
Q 1119 3513 1119 3372 
Q 1119 3234 1022 3134 
Q 925 3034 781 3034 
Q 641 3034 541 3134 
Q 441 3234 441 3372 
Q 441 3647 606 3850 
Q 772 4053 1033 4158 
Q 1294 4263 1556 4263 
Q 1750 4263 1965 4205 
Q 2181 4147 2356 4039 
Q 2531 3931 2642 3762 
Q 2753 3594 2753 3378 
Q 2753 3109 2633 2881 
Q 2513 2653 2303 2487 
Q 2094 2322 1844 2241 
Q 2122 2188 2372 2031 
Q 2622 1875 2773 1631 
Q 2925 1388 2925 1106 
Q 2925 753 2731 467 
Q 2538 181 2222 20 
Q 1906 -141 1556 -141 
Q 1256 -141 954 -26 
Q 653 88 461 316 
Q 269 544 269 863 
Q 269 1022 375 1128 
Q 481 1234 641 1234 
Q 744 1234 830 1186 
Q 916 1138 964 1050 
Q 1013 963 1013 863 
Q 1013 706 903 600 
Q 794 494 641 494 
L 609 494 
z
" transform="scale(0.015625)"/>
      <path id="Cmex10-70" d="M 2713 -7425 
L 1269 -4063 
L 819 -4409 
L 703 -4294 
L 1619 -3584 
L 2969 -6725 
L 6291 197 
Q 6322 256 6400 256 
Q 6453 256 6490 218 
Q 6528 181 6528 128 
Q 6528 97 6522 84 
L 2950 -7366 
Q 2925 -7425 2853 -7425 
L 2713 -7425 
z
" transform="scale(0.015625)"/>
      <path id="Cmr10-37" d="M 1113 166 
Q 1113 522 1175 862 
Q 1238 1203 1358 1536 
Q 1478 1869 1648 2189 
Q 1819 2509 2022 2791 
L 2606 3603 
L 1875 3603 
Q 738 3603 703 3572 
Q 619 3469 544 2981 
L 359 2981 
L 569 4325 
L 756 4325 
L 756 4306 
Q 756 4191 1147 4156 
Q 1538 4122 1913 4122 
L 3103 4122 
L 3103 3956 
Q 3103 3950 3101 3947 
Q 3100 3944 3097 3938 
L 2216 2700 
Q 1891 2219 1809 1631 
Q 1728 1044 1728 166 
Q 1728 41 1637 -50 
Q 1547 -141 1422 -141 
Q 1294 -141 1203 -50 
Q 1113 41 1113 166 
z
" transform="scale(0.015625)"/>
     </defs>
     <use xlink:href="#Cmr10-28" transform="translate(0 0.171875)"/>
     <use xlink:href="#Cmr10-33" transform="translate(38.818359 0.171875)"/>
     <use xlink:href="#Cmmi10-3b" transform="translate(88.818359 0.171875)"/>
     <use xlink:href="#Cmex10-70" transform="translate(134.0625 95.625) scale(0.841817)"/>
     <use xlink:href="#Cmr10-37" transform="translate(230.734375 0.171875)"/>
     <use xlink:href="#Cmr10-29" transform="translate(293.234375 0.171875)"/>
     <path d="M 218.234375 92.5 
L 218.234375 98.75 
L 293.234375 98.75 
L 293.234375 92.5 
L 218.234375 92.5 
z
"/>
    </g>
   </g>
   <g id="text_14">
    <!-- $(3,-\sqrt{7})$ -->
    <g transform="translate(281.551598 284.171016) scale(0.16 -0.16)">
     <use xlink:href="#Cmr10-28" transform="translate(0 0.171875)"/>
     <use xlink:href="#Cmr10-33" transform="translate(38.818359 0.171875)"/>
     <use xlink:href="#Cmmi10-3b" transform="translate(88.818359 0.171875)"/>
     <use xlink:href="#Cmsy10-a1" transform="translate(151.621094 0.171875)"/>
     <use xlink:href="#Cmex10-70" transform="translate(246.865234 95.625) scale(0.841817)"/>
     <use xlink:href="#Cmr10-37" transform="translate(343.537109 0.171875)"/>
     <use xlink:href="#Cmr10-29" transform="translate(406.037109 0.171875)"/>
     <path d="M 331.037109 92.5 
L 331.037109 98.75 
L 406.037109 98.75 
L 406.037109 92.5 
L 331.037109 92.5 
z
"/>
    </g>
   </g>
  </g>
 </g>
 <defs>
  <clipPath id="p25ff8ce59a">
   <rect x="24.889929" y="9.146249" width="332.283692" height="314.795077"/>
  </clipPath>
 </defs>
</svg>
