<?xml version="1.0" encoding="utf-8" standalone="no"?>
<!DOCTYPE svg PUBLIC "-//W3C//DTD SVG 1.1//EN"
  "http://www.w3.org/Graphics/SVG/1.1/DTD/svg11.dtd">
<svg xmlns:xlink="http://www.w3.org/1999/xlink" width="451.423887pt" height="337.397537pt" viewBox="0 0 451.423887 337.397537" xmlns="http://www.w3.org/2000/svg" version="1.1">
 <metadata>
  <rdf:RDF xmlns:dc="http://purl.org/dc/elements/1.1/" xmlns:cc="http://creativecommons.org/ns#" xmlns:rdf="http://www.w3.org/1999/02/22-rdf-syntax-ns#">
   <cc:Work>
    <dc:type rdf:resource="http://purl.org/dc/dcmitype/StillImage"/>
    <dc:date>2025-10-23T14:58:25.628294</dc:date>
    <dc:format>image/svg+xml</dc:format>
    <dc:creator>
     <cc:Agent>
      <dc:title>Matplotlib v3.8.0, https://matplotlib.org/</dc:title>
     </cc:Agent>
    </dc:creator>
   </cc:Work>
  </rdf:RDF>
 </metadata>
 <defs>
  <style type="text/css">*{stroke-linejoin: round; stroke-linecap: butt}</style>
 </defs>
 <g id="figure_1">
  <g id="patch_1">
   <path d="M 0 337.397537 
L 451.423887 337.397537 
L 451.423887 0 
L 0 0 
z
" style="fill: #ffffff"/>
  </g>
  <g id="axes_1">
   <g id="patch_2">
    <path d="M 8.826983 330.197537 
L 444.223887 330.197537 
L 444.223887 7.2 
L 8.826983 7.2 
z
" style="fill: #ffffff"/>
   </g>
   <g id="matplotlib.axis_1">
    <g id="xtick_1">
     <g id="line2d_1">
      <defs>
       <path id="m925f5d7b47" d="M 0 0 
L 0 3.5 
" style="stroke: #000000; stroke-width: 0.8"/>
      </defs>
      <g>
       <use xlink:href="#m925f5d7b47" x="17.2" y="168.698769" style="stroke: #000000; stroke-width: 0.8"/>
      </g>
     </g>
     <g id="text_1">
      <!-- $-4 \, \pi$ -->
      <g transform="translate(7.2 183.297207) scale(0.1 -0.1)">
       <defs>
        <path id="Cmsy10-a1" d="M 653 1472 
Q 600 1472 565 1512 
Q 531 1553 531 1600 
Q 531 1647 565 1687 
Q 600 1728 653 1728 
L 4325 1728 
Q 4375 1728 4408 1687 
Q 4441 1647 4441 1600 
Q 4441 1553 4408 1512 
Q 4375 1472 4325 1472 
L 653 1472 
z
" transform="scale(0.015625)"/>
        <path id="Cmr10-34" d="M 178 1056 
L 178 1281 
L 2156 4231 
Q 2178 4263 2222 4263 
L 2316 4263 
Q 2388 4263 2388 4191 
L 2388 1281 
L 3016 1281 
L 3016 1056 
L 2388 1056 
L 2388 428 
Q 2388 297 2575 261 
Q 2763 225 3009 225 
L 3009 0 
L 1247 0 
L 1247 225 
Q 1494 225 1681 261 
Q 1869 297 1869 428 
L 1869 1056 
L 178 1056 
z
M 391 1281 
L 1906 1281 
L 1906 3547 
L 391 1281 
z
" transform="scale(0.015625)"/>
        <path id="Cmmi10-bc" d="M 647 109 
Q 647 144 672 213 
Q 850 584 1004 942 
Q 1159 1300 1282 1639 
Q 1406 1978 1509 2363 
L 1100 2363 
Q 866 2363 662 2216 
Q 459 2069 325 1844 
Q 313 1819 288 1819 
L 213 1819 
Q 153 1819 153 1881 
Q 153 1894 166 1919 
Q 375 2275 614 2517 
Q 853 2759 1153 2759 
L 3475 2759 
Q 3541 2759 3587 2715 
Q 3634 2672 3634 2597 
Q 3634 2503 3567 2433 
Q 3500 2363 3406 2363 
L 2591 2363 
Q 2488 1859 2478 1381 
Q 2478 766 2694 269 
Q 2713 231 2713 191 
Q 2713 122 2672 62 
Q 2631 3 2567 -34 
Q 2503 -72 2431 -72 
Q 2263 -72 2200 203 
Q 2138 478 2138 738 
Q 2138 1103 2200 1442 
Q 2263 1781 2400 2363 
L 1703 2363 
Q 1197 313 1094 103 
Q 1003 -72 844 -72 
Q 766 -72 706 -20 
Q 647 31 647 109 
z
" transform="scale(0.015625)"/>
       </defs>
       <use xlink:href="#Cmsy10-a1" transform="translate(0 0.390625)"/>
       <use xlink:href="#Cmr10-34" transform="translate(77.685547 0.390625)"/>
       <use xlink:href="#Cmmi10-bc" transform="translate(142.318001 0.390625)"/>
      </g>
     </g>
    </g>
    <g id="xtick_2">
     <g id="line2d_2">
      <g>
       <use xlink:href="#m925f5d7b47" x="69.531359" y="168.698769" style="stroke: #000000; stroke-width: 0.8"/>
      </g>
     </g>
     <g id="text_2">
      <!-- $-3 \, \pi$ -->
      <g transform="translate(59.531359 183.297207) scale(0.1 -0.1)">
       <defs>
        <path id="Cmr10-33" d="M 609 494 
Q 759 275 1012 169 
Q 1266 63 1556 63 
Q 1928 63 2084 380 
Q 2241 697 2241 1100 
Q 2241 1281 2208 1462 
Q 2175 1644 2097 1800 
Q 2019 1956 1883 2050 
Q 1747 2144 1550 2144 
L 1125 2144 
Q 1069 2144 1069 2203 
L 1069 2259 
Q 1069 2309 1125 2309 
L 1478 2338 
Q 1703 2338 1851 2506 
Q 2000 2675 2069 2917 
Q 2138 3159 2138 3378 
Q 2138 3684 1994 3881 
Q 1850 4078 1556 4078 
Q 1313 4078 1091 3986 
Q 869 3894 738 3706 
Q 750 3709 759 3711 
Q 769 3713 781 3713 
Q 925 3713 1022 3613 
Q 1119 3513 1119 3372 
Q 1119 3234 1022 3134 
Q 925 3034 781 3034 
Q 641 3034 541 3134 
Q 441 3234 441 3372 
Q 441 3647 606 3850 
Q 772 4053 1033 4158 
Q 1294 4263 1556 4263 
Q 1750 4263 1965 4205 
Q 2181 4147 2356 4039 
Q 2531 3931 2642 3762 
Q 2753 3594 2753 3378 
Q 2753 3109 2633 2881 
Q 2513 2653 2303 2487 
Q 2094 2322 1844 2241 
Q 2122 2188 2372 2031 
Q 2622 1875 2773 1631 
Q 2925 1388 2925 1106 
Q 2925 753 2731 467 
Q 2538 181 2222 20 
Q 1906 -141 1556 -141 
Q 1256 -141 954 -26 
Q 653 88 461 316 
Q 269 544 269 863 
Q 269 1022 375 1128 
Q 481 1234 641 1234 
Q 744 1234 830 1186 
Q 916 1138 964 1050 
Q 1013 963 1013 863 
Q 1013 706 903 600 
Q 794 494 641 494 
L 609 494 
z
" transform="scale(0.015625)"/>
       </defs>
       <use xlink:href="#Cmsy10-a1" transform="translate(0 0.390625)"/>
       <use xlink:href="#Cmr10-33" transform="translate(77.685547 0.390625)"/>
       <use xlink:href="#Cmmi10-bc" transform="translate(142.318001 0.390625)"/>
      </g>
     </g>
    </g>
    <g id="xtick_3">
     <g id="line2d_3">
      <g>
       <use xlink:href="#m925f5d7b47" x="121.862717" y="168.698769" style="stroke: #000000; stroke-width: 0.8"/>
      </g>
     </g>
     <g id="text_3">
      <!-- $-2 \, \pi$ -->
      <g transform="translate(111.862717 183.297207) scale(0.1 -0.1)">
       <defs>
        <path id="Cmr10-32" d="M 319 0 
L 319 172 
Q 319 188 331 206 
L 1325 1306 
Q 1550 1550 1690 1715 
Q 1831 1881 1968 2097 
Q 2106 2313 2186 2536 
Q 2266 2759 2266 3009 
Q 2266 3272 2169 3511 
Q 2072 3750 1880 3894 
Q 1688 4038 1416 4038 
Q 1138 4038 916 3870 
Q 694 3703 603 3438 
Q 628 3444 672 3444 
Q 816 3444 917 3347 
Q 1019 3250 1019 3097 
Q 1019 2950 917 2848 
Q 816 2747 672 2747 
Q 522 2747 420 2851 
Q 319 2956 319 3097 
Q 319 3338 409 3548 
Q 500 3759 670 3923 
Q 841 4088 1055 4175 
Q 1269 4263 1509 4263 
Q 1875 4263 2190 4108 
Q 2506 3953 2690 3670 
Q 2875 3388 2875 3009 
Q 2875 2731 2753 2481 
Q 2631 2231 2440 2026 
Q 2250 1822 1953 1562 
Q 1656 1303 1563 1216 
L 838 519 
L 1453 519 
Q 1906 519 2211 526 
Q 2516 534 2534 550 
Q 2609 631 2688 1141 
L 2875 1141 
L 2694 0 
L 319 0 
z
" transform="scale(0.015625)"/>
       </defs>
       <use xlink:href="#Cmsy10-a1" transform="translate(0 0.390625)"/>
       <use xlink:href="#Cmr10-32" transform="translate(77.685547 0.390625)"/>
       <use xlink:href="#Cmmi10-bc" transform="translate(142.318001 0.390625)"/>
      </g>
     </g>
    </g>
    <g id="xtick_4">
     <g id="line2d_4">
      <g>
       <use xlink:href="#m925f5d7b47" x="174.194076" y="168.698769" style="stroke: #000000; stroke-width: 0.8"/>
      </g>
     </g>
     <g id="text_4">
      <!-- $-\pi$ -->
      <g transform="translate(167.444076 183.297207) scale(0.1 -0.1)">
       <use xlink:href="#Cmsy10-a1" transform="translate(0 0.890625)"/>
       <use xlink:href="#Cmmi10-bc" transform="translate(77.685547 0.890625)"/>
      </g>
     </g>
    </g>
    <g id="xtick_5">
     <g id="line2d_5">
      <g>
       <use xlink:href="#m925f5d7b47" x="278.856793" y="168.698769" style="stroke: #000000; stroke-width: 0.8"/>
      </g>
     </g>
     <g id="text_5">
      <!-- $\pi$ -->
      <g transform="translate(276.006793 183.297207) scale(0.1 -0.1)">
       <use xlink:href="#Cmmi10-bc" transform="translate(0 0.890625)"/>
      </g>
     </g>
    </g>
    <g id="xtick_6">
     <g id="line2d_6">
      <g>
       <use xlink:href="#m925f5d7b47" x="331.188152" y="168.698769" style="stroke: #000000; stroke-width: 0.8"/>
      </g>
     </g>
     <g id="text_6">
      <!-- $2 \, \pi$ -->
      <g transform="translate(325.088152 183.297207) scale(0.1 -0.1)">
       <use xlink:href="#Cmr10-32" transform="translate(0 0.390625)"/>
       <use xlink:href="#Cmmi10-bc" transform="translate(64.632454 0.390625)"/>
      </g>
     </g>
    </g>
    <g id="xtick_7">
     <g id="line2d_7">
      <g>
       <use xlink:href="#m925f5d7b47" x="383.519511" y="168.698769" style="stroke: #000000; stroke-width: 0.8"/>
      </g>
     </g>
     <g id="text_7">
      <!-- $3 \, \pi$ -->
      <g transform="translate(377.419511 183.297207) scale(0.1 -0.1)">
       <use xlink:href="#Cmr10-33" transform="translate(0 0.390625)"/>
       <use xlink:href="#Cmmi10-bc" transform="translate(64.632454 0.390625)"/>
      </g>
     </g>
    </g>
    <g id="xtick_8">
     <g id="line2d_8">
      <g>
       <use xlink:href="#m925f5d7b47" x="435.85087" y="168.698769" style="stroke: #000000; stroke-width: 0.8"/>
      </g>
     </g>
     <g id="text_8">
      <!-- $4 \, \pi$ -->
      <g transform="translate(429.75087 183.297207) scale(0.1 -0.1)">
       <use xlink:href="#Cmr10-34" transform="translate(0 0.390625)"/>
       <use xlink:href="#Cmmi10-bc" transform="translate(64.632454 0.390625)"/>
      </g>
     </g>
    </g>
   </g>
   <g id="matplotlib.axis_2">
    <g id="ytick_1">
     <g id="line2d_9">
      <defs>
       <path id="m941563e6c3" d="M 0 0 
L -3.5 0 
" style="stroke: #000000; stroke-width: 0.8"/>
      </defs>
      <g>
       <use xlink:href="#m941563e6c3" x="226.525435" y="323.986048" style="stroke: #000000; stroke-width: 0.8"/>
      </g>
     </g>
     <g id="text_9">
      <!-- −1 -->
      <g transform="translate(204.783247 327.785266) scale(0.1 -0.1)">
       <defs>
        <path id="DejaVuSans-2212" d="M 678 2272 
L 4684 2272 
L 4684 1741 
L 678 1741 
L 678 2272 
z
" transform="scale(0.015625)"/>
        <path id="DejaVuSans-31" d="M 794 531 
L 1825 531 
L 1825 4091 
L 703 3866 
L 703 4441 
L 1819 4666 
L 2450 4666 
L 2450 531 
L 3481 531 
L 3481 0 
L 794 0 
L 794 531 
z
" transform="scale(0.015625)"/>
       </defs>
       <use xlink:href="#DejaVuSans-2212"/>
       <use xlink:href="#DejaVuSans-31" x="83.789062"/>
      </g>
     </g>
    </g>
    <g id="ytick_2">
     <g id="line2d_10">
      <g>
       <use xlink:href="#m941563e6c3" x="226.525435" y="13.411491" style="stroke: #000000; stroke-width: 0.8"/>
      </g>
     </g>
     <g id="text_10">
      <!-- 1 -->
      <g transform="translate(213.162935 17.21071) scale(0.1 -0.1)">
       <use xlink:href="#DejaVuSans-31"/>
      </g>
     </g>
    </g>
   </g>
   <g id="line2d_11">
    <path d="M 17.2 13.411491 
L 18.318761 13.761592 
L 19.437522 14.810315 
L 20.54963 16.540533 
L 21.661738 18.948709 
L 22.89216 22.390029 
L 24.122582 26.629264 
L 25.681968 33.111701 
L 27.516141 42.25119 
L 28.742478 49.22382 
L 29.968815 56.843705 
L 31.920142 70.199599 
L 33.421289 81.403329 
L 35.503164 98.093424 
L 39.294411 131.121863 
L 49.41862 223.892565 
L 52.860576 252.497321 
L 55.778669 274.000312 
L 56.721648 280.289048 
L 58.295776 289.980904 
L 59.963165 299.064928 
L 61.630555 306.843828 
L 63.04496 312.361011 
L 64.945727 318.139015 
L 66.016348 320.541575 
L 67.086969 322.317099 
L 68.41718 323.638808 
L 69.747392 323.972989 
L 71.158418 323.245858 
L 72.124399 322.108362 
L 73.09038 320.45511 
L 74.056361 318.291662 
L 75.541969 313.986014 
L 77.045204 308.453963 
L 78.548439 301.784539 
L 79.510185 296.945619 
L 80.865469 289.405169 
L 82.220754 281.066122 
L 83.819604 270.277136 
L 86.83545 247.467474 
L 89.806817 222.472083 
L 95.527435 170.279833 
L 101.427169 116.327992 
L 105.39289 83.329173 
L 108.244912 62.476525 
L 109.841728 52.122261 
L 111.574634 42.099542 
L 113.322192 33.378645 
L 114.928615 26.672658 
L 116.535037 21.286528 
L 117.421214 18.898896 
L 119.047536 15.623874 
L 120.673858 13.80682 
L 122.020277 13.418438 
L 123.44592 14.112345 
L 124.871562 15.937878 
L 125.970654 18.109642 
L 127.069746 20.936766 
L 128.39804 25.21029 
L 129.776267 30.60802 
L 131.511028 38.739922 
L 133.245789 48.280038 
L 136.314584 68.279013 
L 137.471675 76.742381 
L 139.530278 92.868693 
L 141.947028 113.257342 
L 145.858166 148.524382 
L 153.369634 217.64259 
L 156.962802 248.051728 
L 159.684161 268.705152 
L 162.242845 285.703865 
L 164.437898 298.10448 
L 165.700179 304.231591 
L 166.962459 309.580801 
L 167.932729 313.144339 
L 168.902999 316.217938 
L 170.057776 319.22313 
L 171.232581 321.538341 
L 172.407386 323.093639 
L 173.302108 323.763473 
L 174.196831 323.986046 
L 175.150697 323.730046 
L 176.104564 322.965827 
L 177.058431 321.695893 
L 178.012298 319.924407 
L 179.599401 315.881832 
L 180.520238 312.921438 
L 181.441076 309.520424 
L 182.755092 303.925088 
L 185.044064 292.19309 
L 186.990007 280.378339 
L 190.107755 258.350821 
L 192.703751 237.584072 
L 194.137933 225.361272 
L 197.357222 196.538006 
L 206.351998 114.034236 
L 209.338912 88.987494 
L 212.24347 67.076122 
L 214.652204 51.216878 
L 216.875592 38.747738 
L 218.607509 30.626683 
L 219.90903 25.500991 
L 221.210552 21.249062 
L 222.283939 18.418426 
L 223.357326 16.211582 
L 224.779056 14.264121 
L 226.200787 13.440982 
L 226.772365 13.428553 
L 227.761279 13.83867 
L 228.750193 14.794426 
L 229.739108 16.292453 
L 230.728022 18.327472 
L 231.787892 21.096487 
L 233.137706 25.486091 
L 234.487521 30.815565 
L 235.664237 36.201234 
L 237.88752 48.156607 
L 238.934088 54.541067 
L 241.845382 74.585268 
L 243.742091 89.2287 
L 245.620219 104.743478 
L 249.845976 142.304267 
L 258.305821 220.055316 
L 261.571638 247.619555 
L 265.025379 273.459752 
L 266.251202 281.603923 
L 267.710239 290.497477 
L 269.005451 297.611977 
L 270.300664 303.947477 
L 271.75757 310.095487 
L 273.162597 315.001147 
L 274.567625 318.866554 
L 275.548779 320.934019 
L 276.65439 322.630725 
L 277.76 323.649556 
L 278.647262 323.973763 
L 279.534524 323.857538 
L 280.44677 323.279188 
L 281.359017 322.237341 
L 282.271264 320.735121 
L 283.183511 318.777034 
L 284.285446 315.812352 
L 285.387381 312.20412 
L 286.613067 307.453988 
L 287.799804 302.139018 
L 289.160994 295.210927 
L 290.522185 287.438521 
L 292.138226 277.186589 
L 294.015366 264.004452 
L 296.710542 243.009454 
L 300.215884 212.888076 
L 306.768408 152.452401 
L 309.827173 124.526341 
L 314.118316 88.055915 
L 316.278312 71.573097 
L 319.445275 50.425814 
L 320.628312 43.583409 
L 321.933513 36.767602 
L 323.238714 30.761367 
L 324.268526 26.618141 
L 325.298338 23.017776 
L 326.191711 20.344865 
L 327.142092 17.969865 
L 328.092474 16.085377 
L 329.366661 14.338968 
L 330.640848 13.495302 
L 332.306661 13.761434 
L 333.453285 14.844998 
L 334.59991 16.657272 
L 335.506301 18.600009 
L 336.412691 20.987046 
L 337.428305 24.180783 
L 338.443918 27.911577 
L 339.524875 32.456814 
L 340.605833 37.575575 
L 341.840828 44.09797 
L 344.173117 58.250805 
L 345.270412 65.675757 
L 348.408299 89.256663 
L 349.706072 99.882359 
L 353.238208 130.720792 
L 363.838096 227.632032 
L 365.245176 239.543378 
L 368.423727 264.465898 
L 370.721359 280.363958 
L 372.103141 288.921262 
L 374.164834 300.135679 
L 375.224042 305.124848 
L 376.28325 309.562588 
L 377.779782 314.85831 
L 379.276314 318.975117 
L 380.250288 321.004949 
L 381.52329 322.87232 
L 382.796293 323.839712 
L 384.336833 323.79916 
L 385.877373 322.43297 
L 386.488857 321.52538 
L 387.92016 318.598541 
L 389.351464 314.565657 
L 390.544976 310.378356 
L 391.738488 305.464027 
L 392.970053 299.657594 
L 394.201618 293.135632 
L 395.751806 283.964591 
L 397.153788 274.808953 
L 399.843504 255.200718 
L 402.749601 231.502542 
L 406.828546 195.198964 
L 414.306952 126.163929 
L 418.255273 92.283959 
L 420.482201 74.94695 
L 422.946871 57.721536 
L 424.411882 48.609842 
L 425.656256 41.596939 
L 426.900629 35.293005 
L 428.127409 29.806478 
L 429.354188 25.072944 
L 430.850968 20.3544 
L 432.347747 16.83279 
L 433.441375 15.033212 
L 434.535003 13.895752 
L 435.85087 13.411491 
L 435.85087 13.411491 
" clip-path="url(#p58d9821908)" style="fill: none; stroke: #0000ff; stroke-linecap: square"/>
   </g>
   <g id="patch_3">
    <path d="M 226.525435 330.197537 
L 226.525435 7.2 
" style="fill: none; stroke: #000000; stroke-width: 0.8; stroke-linejoin: miter; stroke-linecap: square"/>
   </g>
   <g id="patch_4">
    <path d="M 8.826983 168.698769 
L 444.223887 168.698769 
" style="fill: none; stroke: #000000; stroke-width: 0.8; stroke-linejoin: miter; stroke-linecap: square"/>
   </g>
  </g>
 </g>
 <defs>
  <clipPath id="p58d9821908">
   <rect x="8.826983" y="7.2" width="435.396904" height="322.997537"/>
  </clipPath>
 </defs>
</svg>
