<?xml version="1.0" encoding="utf-8" standalone="no"?>
<!DOCTYPE svg PUBLIC "-//W3C//DTD SVG 1.1//EN"
  "http://www.w3.org/Graphics/SVG/1.1/DTD/svg11.dtd">
<svg xmlns:xlink="http://www.w3.org/1999/xlink" width="339.54014pt" height="338.4pt" viewBox="0 0 339.54014 338.4" xmlns="http://www.w3.org/2000/svg" version="1.1">
 <metadata>
  <rdf:RDF xmlns:dc="http://purl.org/dc/elements/1.1/" xmlns:cc="http://creativecommons.org/ns#" xmlns:rdf="http://www.w3.org/1999/02/22-rdf-syntax-ns#">
   <cc:Work>
    <dc:type rdf:resource="http://purl.org/dc/dcmitype/StillImage"/>
    <dc:date>2025-07-28T19:32:17.585550</dc:date>
    <dc:format>image/svg+xml</dc:format>
    <dc:creator>
     <cc:Agent>
      <dc:title>Matplotlib v3.6.2, https://matplotlib.org/</dc:title>
     </cc:Agent>
    </dc:creator>
   </cc:Work>
  </rdf:RDF>
 </metadata>
 <defs>
  <style type="text/css">*{stroke-linejoin: round; stroke-linecap: butt}</style>
 </defs>
 <g id="figure_1">
  <g id="patch_1">
   <path d="M -0 338.4 
L 339.54014 338.4 
L 339.54014 0 
L -0 0 
z
" style="fill: #ffffff"/>
  </g>
  <g id="axes_1">
   <g id="patch_2">
    <path d="M 8.340328 331.2 
L 332.34014 331.2 
L 332.34014 7.2 
L 8.340328 7.2 
z
" style="fill: #ffffff"/>
   </g>
   <g id="PathCollection_1">
    <path d="M 76.878786 172.735534 
C 77.816421 172.735534 78.715778 172.363008 79.378786 171.7 
C 80.041794 171.036992 80.41432 170.137635 80.41432 169.2 
C 80.41432 168.262365 80.041794 167.363008 79.378786 166.7 
C 78.715778 166.036992 77.816421 165.664466 76.878786 165.664466 
C 75.941152 165.664466 75.041794 166.036992 74.378786 166.7 
C 73.715778 167.363008 73.343252 168.262365 73.343252 169.2 
C 73.343252 170.137635 73.715778 171.036992 74.378786 171.7 
C 75.041794 172.363008 75.941152 172.735534 76.878786 172.735534 
z
" clip-path="url(#p08f66b5417)" style="fill: #ff0000"/>
   </g>
   <g id="PathCollection_2">
    <path d="M 294.955709 90.310205 
C 295.893344 90.310205 296.792701 89.937678 297.455709 89.274671 
C 298.118717 88.611663 298.491243 87.712305 298.491243 86.774671 
C 298.491243 85.837036 298.118717 84.937678 297.455709 84.274671 
C 296.792701 83.611663 295.893344 83.239137 294.955709 83.239137 
C 294.018075 83.239137 293.118717 83.611663 292.455709 84.274671 
C 291.792701 84.937678 291.420175 85.837036 291.420175 86.774671 
C 291.420175 87.712305 291.792701 88.611663 292.455709 89.274671 
C 293.118717 89.937678 294.018075 90.310205 294.955709 90.310205 
z
" clip-path="url(#p08f66b5417)" style="fill: #ff0000"/>
   </g>
   <g id="PathCollection_3">
    <path d="M 294.955709 255.160863 
C 295.893344 255.160863 296.792701 254.788337 297.455709 254.125329 
C 298.118717 253.462322 298.491243 252.562964 298.491243 251.625329 
C 298.491243 250.687695 298.118717 249.788337 297.455709 249.125329 
C 296.792701 248.462322 295.893344 248.089795 294.955709 248.089795 
C 294.018075 248.089795 293.118717 248.462322 292.455709 249.125329 
C 291.792701 249.788337 291.420175 250.687695 291.420175 251.625329 
C 291.420175 252.562964 291.792701 253.462322 292.455709 254.125329 
C 293.118717 254.788337 294.018075 255.160863 294.955709 255.160863 
z
" clip-path="url(#p08f66b5417)" style="fill: #ff0000"/>
   </g>
   <g id="matplotlib.axis_1">
    <g id="xtick_1">
     <g id="line2d_1">
      <defs>
       <path id="m2dab34ee83" d="M 0 0 
L 0 3.5 
" style="stroke: #000000; stroke-width: 0.8"/>
      </defs>
      <g>
       <use xlink:href="#m2dab34ee83" x="14.571094" y="169.2" style="stroke: #000000; stroke-width: 0.8"/>
      </g>
     </g>
     <g id="text_1">
      <!-- −6 -->
      <g transform="translate(7.2 183.798438) scale(0.1 -0.1)">
       <defs>
        <path id="DejaVuSans-2212" d="M 678 2272 
L 4684 2272 
L 4684 1741 
L 678 1741 
L 678 2272 
z
" transform="scale(0.015625)"/>
        <path id="DejaVuSans-36" d="M 2113 2584 
Q 1688 2584 1439 2293 
Q 1191 2003 1191 1497 
Q 1191 994 1439 701 
Q 1688 409 2113 409 
Q 2538 409 2786 701 
Q 3034 994 3034 1497 
Q 3034 2003 2786 2293 
Q 2538 2584 2113 2584 
z
M 3366 4563 
L 3366 3988 
Q 3128 4100 2886 4159 
Q 2644 4219 2406 4219 
Q 1781 4219 1451 3797 
Q 1122 3375 1075 2522 
Q 1259 2794 1537 2939 
Q 1816 3084 2150 3084 
Q 2853 3084 3261 2657 
Q 3669 2231 3669 1497 
Q 3669 778 3244 343 
Q 2819 -91 2113 -91 
Q 1303 -91 875 529 
Q 447 1150 447 2328 
Q 447 3434 972 4092 
Q 1497 4750 2381 4750 
Q 2619 4750 2861 4703 
Q 3103 4656 3366 4563 
z
" transform="scale(0.015625)"/>
       </defs>
       <use xlink:href="#DejaVuSans-2212"/>
       <use xlink:href="#DejaVuSans-36" x="83.789062"/>
      </g>
     </g>
    </g>
    <g id="xtick_2">
     <g id="line2d_2">
      <g>
       <use xlink:href="#m2dab34ee83" x="76.878786" y="169.2" style="stroke: #000000; stroke-width: 0.8"/>
      </g>
     </g>
     <g id="text_2">
      <!-- −4 -->
      <g transform="translate(69.507692 183.798438) scale(0.1 -0.1)">
       <defs>
        <path id="DejaVuSans-34" d="M 2419 4116 
L 825 1625 
L 2419 1625 
L 2419 4116 
z
M 2253 4666 
L 3047 4666 
L 3047 1625 
L 3713 1625 
L 3713 1100 
L 3047 1100 
L 3047 0 
L 2419 0 
L 2419 1100 
L 313 1100 
L 313 1709 
L 2253 4666 
z
" transform="scale(0.015625)"/>
       </defs>
       <use xlink:href="#DejaVuSans-2212"/>
       <use xlink:href="#DejaVuSans-34" x="83.789062"/>
      </g>
     </g>
    </g>
    <g id="xtick_3">
     <g id="line2d_3">
      <g>
       <use xlink:href="#m2dab34ee83" x="139.186478" y="169.2" style="stroke: #000000; stroke-width: 0.8"/>
      </g>
     </g>
     <g id="text_3">
      <!-- −2 -->
      <g transform="translate(131.815385 183.798438) scale(0.1 -0.1)">
       <defs>
        <path id="DejaVuSans-32" d="M 1228 531 
L 3431 531 
L 3431 0 
L 469 0 
L 469 531 
Q 828 903 1448 1529 
Q 2069 2156 2228 2338 
Q 2531 2678 2651 2914 
Q 2772 3150 2772 3378 
Q 2772 3750 2511 3984 
Q 2250 4219 1831 4219 
Q 1534 4219 1204 4116 
Q 875 4013 500 3803 
L 500 4441 
Q 881 4594 1212 4672 
Q 1544 4750 1819 4750 
Q 2544 4750 2975 4387 
Q 3406 4025 3406 3419 
Q 3406 3131 3298 2873 
Q 3191 2616 2906 2266 
Q 2828 2175 2409 1742 
Q 1991 1309 1228 531 
z
" transform="scale(0.015625)"/>
       </defs>
       <use xlink:href="#DejaVuSans-2212"/>
       <use xlink:href="#DejaVuSans-32" x="83.789062"/>
      </g>
     </g>
    </g>
    <g id="xtick_4">
     <g id="line2d_4">
      <g>
       <use xlink:href="#m2dab34ee83" x="201.494171" y="169.2" style="stroke: #000000; stroke-width: 0.8"/>
      </g>
     </g>
    </g>
    <g id="xtick_5">
     <g id="line2d_5">
      <g>
       <use xlink:href="#m2dab34ee83" x="263.801863" y="169.2" style="stroke: #000000; stroke-width: 0.8"/>
      </g>
     </g>
     <g id="text_4">
      <!-- 2 -->
      <g transform="translate(260.620613 183.798438) scale(0.1 -0.1)">
       <use xlink:href="#DejaVuSans-32"/>
      </g>
     </g>
    </g>
    <g id="xtick_6">
     <g id="line2d_6">
      <g>
       <use xlink:href="#m2dab34ee83" x="326.109555" y="169.2" style="stroke: #000000; stroke-width: 0.8"/>
      </g>
     </g>
     <g id="text_5">
      <!-- 4 -->
      <g transform="translate(322.928305 183.798438) scale(0.1 -0.1)">
       <use xlink:href="#DejaVuSans-34"/>
      </g>
     </g>
    </g>
    <g id="xtick_7">
     <g id="line2d_7">
      <defs>
       <path id="m9f77515b70" d="M 0 0 
L 0 2 
" style="stroke: #000000; stroke-width: 0.6"/>
      </defs>
      <g>
       <use xlink:href="#m9f77515b70" x="30.148017" y="169.2" style="stroke: #000000; stroke-width: 0.6"/>
      </g>
     </g>
    </g>
    <g id="xtick_8">
     <g id="line2d_8">
      <g>
       <use xlink:href="#m9f77515b70" x="45.72494" y="169.2" style="stroke: #000000; stroke-width: 0.6"/>
      </g>
     </g>
    </g>
    <g id="xtick_9">
     <g id="line2d_9">
      <g>
       <use xlink:href="#m9f77515b70" x="61.301863" y="169.2" style="stroke: #000000; stroke-width: 0.6"/>
      </g>
     </g>
    </g>
    <g id="xtick_10">
     <g id="line2d_10">
      <g>
       <use xlink:href="#m9f77515b70" x="92.455709" y="169.2" style="stroke: #000000; stroke-width: 0.6"/>
      </g>
     </g>
    </g>
    <g id="xtick_11">
     <g id="line2d_11">
      <g>
       <use xlink:href="#m9f77515b70" x="108.032632" y="169.2" style="stroke: #000000; stroke-width: 0.6"/>
      </g>
     </g>
    </g>
    <g id="xtick_12">
     <g id="line2d_12">
      <g>
       <use xlink:href="#m9f77515b70" x="123.609555" y="169.2" style="stroke: #000000; stroke-width: 0.6"/>
      </g>
     </g>
    </g>
    <g id="xtick_13">
     <g id="line2d_13">
      <g>
       <use xlink:href="#m9f77515b70" x="154.763401" y="169.2" style="stroke: #000000; stroke-width: 0.6"/>
      </g>
     </g>
    </g>
    <g id="xtick_14">
     <g id="line2d_14">
      <g>
       <use xlink:href="#m9f77515b70" x="170.340325" y="169.2" style="stroke: #000000; stroke-width: 0.6"/>
      </g>
     </g>
    </g>
    <g id="xtick_15">
     <g id="line2d_15">
      <g>
       <use xlink:href="#m9f77515b70" x="185.917248" y="169.2" style="stroke: #000000; stroke-width: 0.6"/>
      </g>
     </g>
    </g>
    <g id="xtick_16">
     <g id="line2d_16">
      <g>
       <use xlink:href="#m9f77515b70" x="217.071094" y="169.2" style="stroke: #000000; stroke-width: 0.6"/>
      </g>
     </g>
    </g>
    <g id="xtick_17">
     <g id="line2d_17">
      <g>
       <use xlink:href="#m9f77515b70" x="232.648017" y="169.2" style="stroke: #000000; stroke-width: 0.6"/>
      </g>
     </g>
    </g>
    <g id="xtick_18">
     <g id="line2d_18">
      <g>
       <use xlink:href="#m9f77515b70" x="248.22494" y="169.2" style="stroke: #000000; stroke-width: 0.6"/>
      </g>
     </g>
    </g>
    <g id="xtick_19">
     <g id="line2d_19">
      <g>
       <use xlink:href="#m9f77515b70" x="279.378786" y="169.2" style="stroke: #000000; stroke-width: 0.6"/>
      </g>
     </g>
    </g>
    <g id="xtick_20">
     <g id="line2d_20">
      <g>
       <use xlink:href="#m9f77515b70" x="294.955709" y="169.2" style="stroke: #000000; stroke-width: 0.6"/>
      </g>
     </g>
    </g>
    <g id="xtick_21">
     <g id="line2d_21">
      <g>
       <use xlink:href="#m9f77515b70" x="310.532632" y="169.2" style="stroke: #000000; stroke-width: 0.6"/>
      </g>
     </g>
    </g>
   </g>
   <g id="matplotlib.axis_2">
    <g id="ytick_1">
     <g id="line2d_22">
      <defs>
       <path id="mcf00a1c8da" d="M 0 0 
L -3.5 0 
" style="stroke: #000000; stroke-width: 0.8"/>
      </defs>
      <g>
       <use xlink:href="#mcf00a1c8da" x="201.494171" y="293.815385" style="stroke: #000000; stroke-width: 0.8"/>
      </g>
     </g>
     <g id="text_6">
      <!-- −4 -->
      <g transform="translate(179.751983 297.614603) scale(0.1 -0.1)">
       <use xlink:href="#DejaVuSans-2212"/>
       <use xlink:href="#DejaVuSans-34" x="83.789062"/>
      </g>
     </g>
    </g>
    <g id="ytick_2">
     <g id="line2d_23">
      <g>
       <use xlink:href="#mcf00a1c8da" x="201.494171" y="231.507692" style="stroke: #000000; stroke-width: 0.8"/>
      </g>
     </g>
     <g id="text_7">
      <!-- −2 -->
      <g transform="translate(179.751983 235.306911) scale(0.1 -0.1)">
       <use xlink:href="#DejaVuSans-2212"/>
       <use xlink:href="#DejaVuSans-32" x="83.789062"/>
      </g>
     </g>
    </g>
    <g id="ytick_3">
     <g id="line2d_24">
      <g>
       <use xlink:href="#mcf00a1c8da" x="201.494171" y="169.2" style="stroke: #000000; stroke-width: 0.8"/>
      </g>
     </g>
    </g>
    <g id="ytick_4">
     <g id="line2d_25">
      <g>
       <use xlink:href="#mcf00a1c8da" x="201.494171" y="106.892308" style="stroke: #000000; stroke-width: 0.8"/>
      </g>
     </g>
     <g id="text_8">
      <!-- 2 -->
      <g transform="translate(188.131671 110.691526) scale(0.1 -0.1)">
       <use xlink:href="#DejaVuSans-32"/>
      </g>
     </g>
    </g>
    <g id="ytick_5">
     <g id="line2d_26">
      <g>
       <use xlink:href="#mcf00a1c8da" x="201.494171" y="44.584615" style="stroke: #000000; stroke-width: 0.8"/>
      </g>
     </g>
     <g id="text_9">
      <!-- 4 -->
      <g transform="translate(188.131671 48.383834) scale(0.1 -0.1)">
       <use xlink:href="#DejaVuSans-34"/>
      </g>
     </g>
    </g>
    <g id="ytick_6">
     <g id="line2d_27">
      <defs>
       <path id="m8001dcc3f6" d="M 0 0 
L -2 0 
" style="stroke: #000000; stroke-width: 0.6"/>
      </defs>
      <g>
       <use xlink:href="#m8001dcc3f6" x="201.494171" y="324.969231" style="stroke: #000000; stroke-width: 0.6"/>
      </g>
     </g>
    </g>
    <g id="ytick_7">
     <g id="line2d_28">
      <g>
       <use xlink:href="#m8001dcc3f6" x="201.494171" y="309.392308" style="stroke: #000000; stroke-width: 0.6"/>
      </g>
     </g>
    </g>
    <g id="ytick_8">
     <g id="line2d_29">
      <g>
       <use xlink:href="#m8001dcc3f6" x="201.494171" y="278.238462" style="stroke: #000000; stroke-width: 0.6"/>
      </g>
     </g>
    </g>
    <g id="ytick_9">
     <g id="line2d_30">
      <g>
       <use xlink:href="#m8001dcc3f6" x="201.494171" y="262.661538" style="stroke: #000000; stroke-width: 0.6"/>
      </g>
     </g>
    </g>
    <g id="ytick_10">
     <g id="line2d_31">
      <g>
       <use xlink:href="#m8001dcc3f6" x="201.494171" y="247.084615" style="stroke: #000000; stroke-width: 0.6"/>
      </g>
     </g>
    </g>
    <g id="ytick_11">
     <g id="line2d_32">
      <g>
       <use xlink:href="#m8001dcc3f6" x="201.494171" y="215.930769" style="stroke: #000000; stroke-width: 0.6"/>
      </g>
     </g>
    </g>
    <g id="ytick_12">
     <g id="line2d_33">
      <g>
       <use xlink:href="#m8001dcc3f6" x="201.494171" y="200.353846" style="stroke: #000000; stroke-width: 0.6"/>
      </g>
     </g>
    </g>
    <g id="ytick_13">
     <g id="line2d_34">
      <g>
       <use xlink:href="#m8001dcc3f6" x="201.494171" y="184.776923" style="stroke: #000000; stroke-width: 0.6"/>
      </g>
     </g>
    </g>
    <g id="ytick_14">
     <g id="line2d_35">
      <g>
       <use xlink:href="#m8001dcc3f6" x="201.494171" y="153.623077" style="stroke: #000000; stroke-width: 0.6"/>
      </g>
     </g>
    </g>
    <g id="ytick_15">
     <g id="line2d_36">
      <g>
       <use xlink:href="#m8001dcc3f6" x="201.494171" y="138.046154" style="stroke: #000000; stroke-width: 0.6"/>
      </g>
     </g>
    </g>
    <g id="ytick_16">
     <g id="line2d_37">
      <g>
       <use xlink:href="#m8001dcc3f6" x="201.494171" y="122.469231" style="stroke: #000000; stroke-width: 0.6"/>
      </g>
     </g>
    </g>
    <g id="ytick_17">
     <g id="line2d_38">
      <g>
       <use xlink:href="#m8001dcc3f6" x="201.494171" y="91.315385" style="stroke: #000000; stroke-width: 0.6"/>
      </g>
     </g>
    </g>
    <g id="ytick_18">
     <g id="line2d_39">
      <g>
       <use xlink:href="#m8001dcc3f6" x="201.494171" y="75.738462" style="stroke: #000000; stroke-width: 0.6"/>
      </g>
     </g>
    </g>
    <g id="ytick_19">
     <g id="line2d_40">
      <g>
       <use xlink:href="#m8001dcc3f6" x="201.494171" y="60.161538" style="stroke: #000000; stroke-width: 0.6"/>
      </g>
     </g>
    </g>
    <g id="ytick_20">
     <g id="line2d_41">
      <g>
       <use xlink:href="#m8001dcc3f6" x="201.494171" y="29.007692" style="stroke: #000000; stroke-width: 0.6"/>
      </g>
     </g>
    </g>
    <g id="ytick_21">
     <g id="line2d_42">
      <g>
       <use xlink:href="#m8001dcc3f6" x="201.494171" y="13.430769" style="stroke: #000000; stroke-width: 0.6"/>
      </g>
     </g>
    </g>
   </g>
   <g id="line2d_43">
    <path d="M 76.878786 169.2 
L 76.987849 174.41248 
L 77.394879 180.529603 
L 77.777495 184.139149 
L 78.660399 190.196636 
L 79.516559 194.704046 
L 80.632425 199.555109 
L 82.307421 205.580115 
L 83.904994 210.452631 
L 86.195807 216.478763 
L 88.597116 221.956509 
L 91.338956 227.465108 
L 94.060336 232.34242 
L 96.128003 235.735441 
L 99.801866 241.225476 
L 102.571672 244.984783 
L 105.149903 248.23655 
L 108.50367 252.156379 
L 112.462857 256.391853 
L 117.138311 260.92286 
L 121.785566 264.989 
L 125.520944 267.977846 
L 129.851025 271.162021 
L 134.798443 274.464781 
L 137.498479 276.127758 
L 141.239196 278.279476 
L 144.891309 280.218512 
L 151.149219 283.192894 
L 157.729923 285.877696 
L 158.426149 286.136477 
L 163.132135 287.763689 
L 168.531392 289.376742 
L 173.213845 290.563987 
L 179.046206 291.776845 
L 185.76111 292.818222 
L 190.413908 293.321803 
L 195.154336 293.65401 
L 202.674765 293.809792 
L 209.774787 293.539959 
L 213.997883 293.186496 
L 221.182032 292.250324 
L 226.234932 291.334716 
L 233.65403 289.594093 
L 239.521433 287.871485 
L 244.757554 286.064339 
L 249.710031 284.109638 
L 255.287401 281.606772 
L 258.713018 279.902293 
L 262.47696 277.874254 
L 269.096239 273.885025 
L 272.790467 271.404854 
L 277.441577 267.9977 
L 281.706716 264.567403 
L 285.371163 261.360969 
L 288.452957 258.458969 
L 292.463394 254.368037 
L 295.507488 250.995418 
L 298.954111 246.856643 
L 301.863968 243.05728 
L 304.564395 239.239439 
L 307.174058 235.236016 
L 310.432035 229.710626 
L 313.159999 224.514889 
L 315.664598 219.14104 
L 317.852209 213.807186 
L 319.171707 210.199897 
L 321.101156 204.17375 
L 322.095319 200.574465 
L 323.392842 195.078719 
L 324.502404 189.149151 
L 325.16934 184.478962 
L 325.753592 178.612246 
L 326.045304 173.201155 
L 326.100058 167.661502 
L 325.97412 163.3917 
L 325.558316 157.491799 
L 325.094946 153.330454 
L 324.418597 148.740786 
L 323.454767 143.614709 
L 322.183264 138.165553 
L 320.925849 133.632202 
L 319.124431 128.064662 
L 317.015038 122.467536 
L 314.767725 117.256802 
L 312.198668 111.985418 
L 309.403062 106.872916 
L 306.788241 102.550523 
L 303.893559 98.183387 
L 300.530309 93.563782 
L 296.641001 88.725937 
L 292.603197 84.181534 
L 288.721453 80.203398 
L 285.539818 77.192809 
L 280.699781 72.994671 
L 277.772585 70.657636 
L 273.618922 67.578082 
L 269.255675 64.618106 
L 264.075196 61.438182 
L 258.922473 58.60622 
L 253.798617 56.092799 
L 247.869992 53.535497 
L 245.091238 52.459734 
L 238.649398 50.252603 
L 231.674205 48.294419 
L 224.675963 46.759816 
L 218.950027 45.813262 
L 215.370295 45.35959 
L 210.760616 44.929621 
L 206.40694 44.681492 
L 199.677047 44.597865 
L 196.326431 44.691813 
L 187.904528 45.327825 
L 184.155819 45.796695 
L 177.016509 47.012283 
L 173.205628 47.837928 
L 167.750865 49.240076 
L 164.418436 50.227802 
L 159.612062 51.833552 
L 156.441624 53.013675 
L 151.957046 54.853739 
L 146.265467 57.49152 
L 140.065879 60.776944 
L 135.518911 63.482172 
L 130.991023 66.44641 
L 127.099243 69.22806 
L 121.314889 73.804629 
L 117.839885 76.836834 
L 114.756935 79.725724 
L 111.411195 83.095113 
L 108.527261 86.217184 
L 104.829043 90.556201 
L 101.180738 95.266183 
L 98.113317 99.619879 
L 95.724267 103.308258 
L 93.122549 107.681014 
L 90.06284 113.414226 
L 88.134272 117.445508 
L 86.168633 121.98756 
L 84.556885 126.134176 
L 82.935296 130.82309 
L 81.325378 136.208253 
L 80.089832 141.093406 
L 79.121371 145.66509 
L 78.199578 151.104766 
L 77.443431 157.350613 
L 77.065662 162.377957 
L 76.899774 166.913001 
L 76.878786 169.2 
L 76.878786 169.2 
" clip-path="url(#p08f66b5417)" style="fill: none; stroke: #0000ff; stroke-linecap: square"/>
   </g>
   <g id="line2d_44">
    <path d="M 14.571094 324.969231 
L 14.571094 13.430769 
" clip-path="url(#p08f66b5417)" style="fill: none; stroke: #008000; stroke-linecap: square"/>
   </g>
   <g id="line2d_45">
    <path d="M 76.878786 324.969231 
L 76.878786 13.430769 
" clip-path="url(#p08f66b5417)" style="fill: none; stroke: #008000; stroke-linecap: square"/>
   </g>
   <g id="line2d_46">
    <path d="M 294.955709 324.969231 
L 294.955709 13.430769 
" clip-path="url(#p08f66b5417)" style="fill: none; stroke: #008000; stroke-linecap: square"/>
   </g>
   <g id="patch_3">
    <path d="M 201.494171 331.2 
L 201.494171 7.2 
" style="fill: none; stroke: #000000; stroke-width: 0.8; stroke-linejoin: miter; stroke-linecap: square"/>
   </g>
   <g id="patch_4">
    <path d="M 8.340328 169.2 
L 332.34014 169.2 
" style="fill: none; stroke: #000000; stroke-width: 0.8; stroke-linejoin: miter; stroke-linecap: square"/>
   </g>
  </g>
 </g>
 <defs>
  <clipPath id="p08f66b5417">
   <rect x="8.340328" y="7.2" width="323.999812" height="324"/>
  </clipPath>
 </defs>
</svg>
