<?xml version="1.0" encoding="utf-8" standalone="no"?>
<!DOCTYPE svg PUBLIC "-//W3C//DTD SVG 1.1//EN"
  "http://www.w3.org/Graphics/SVG/1.1/DTD/svg11.dtd">
<svg xmlns:xlink="http://www.w3.org/1999/xlink" width="391.472616pt" height="338.4pt" viewBox="0 0 391.472616 338.4" xmlns="http://www.w3.org/2000/svg" version="1.1">
 <metadata>
  <rdf:RDF xmlns:dc="http://purl.org/dc/elements/1.1/" xmlns:cc="http://creativecommons.org/ns#" xmlns:rdf="http://www.w3.org/1999/02/22-rdf-syntax-ns#">
   <cc:Work>
    <dc:type rdf:resource="http://purl.org/dc/dcmitype/StillImage"/>
    <dc:date>2026-03-08T17:07:40.947412</dc:date>
    <dc:format>image/svg+xml</dc:format>
    <dc:creator>
     <cc:Agent>
      <dc:title>Matplotlib v3.8.0, https://matplotlib.org/</dc:title>
     </cc:Agent>
    </dc:creator>
   </cc:Work>
  </rdf:RDF>
 </metadata>
 <defs>
  <style type="text/css">*{stroke-linejoin: round; stroke-linecap: butt}</style>
 </defs>
 <g id="figure_1">
  <g id="patch_1">
   <path d="M 0 338.4 
L 391.472616 338.4 
L 391.472616 0 
L 0 0 
z
" style="fill: #ffffff"/>
  </g>
  <g id="axes_1">
   <g id="patch_2">
    <path d="M 23.178766 331.2 
L 383.245412 331.2 
L 383.245412 7.2 
L 23.178766 7.2 
z
" style="fill: #ffffff"/>
   </g>
   <g id="PathCollection_1">
    <defs>
     <path id="C0_0_b2c2b58496" d="M 0 3.535534 
C 0.937635 3.535534 1.836992 3.163008 2.5 2.5 
C 3.163008 1.836992 3.535534 0.937635 3.535534 -0 
C 3.535534 -0.937635 3.163008 -1.836992 2.5 -2.5 
C 1.836992 -3.163008 0.937635 -3.535534 0 -3.535534 
C -0.937635 -3.535534 -1.836992 -3.163008 -2.5 -2.5 
C -3.163008 -1.836992 -3.535534 -0.937635 -3.535534 0 
C -3.535534 0.937635 -3.163008 1.836992 -2.5 2.5 
C -1.836992 3.163008 -0.937635 3.535534 0 3.535534 
z
"/>
    </defs>
    <g clip-path="url(#p9646273ece)">
     <use xlink:href="#C0_0_b2c2b58496" x="30.103125" y="290.405112" style="fill: #0000ff"/>
    </g>
    <g clip-path="url(#p9646273ece)">
     <use xlink:href="#C0_0_b2c2b58496" x="317.972812" y="98.056737" style="fill: #0000ff"/>
    </g>
    <g clip-path="url(#p9646273ece)">
     <use xlink:href="#C0_0_b2c2b58496" x="317.972812" y="290.405112" style="fill: #0000ff"/>
    </g>
   </g>
   <g id="QuadContourSet_1">
    <path d="M 37.097427 290.405112 
L 40.594577 290.405112 
L 44.091728 290.405112 
L 47.588879 290.405112 
L 51.08603 290.405112 
L 54.583181 290.405112 
L 58.080331 290.405112 
L 61.577482 290.405112 
L 65.074633 290.405112 
L 68.571784 290.405112 
L 72.068935 290.405112 
L 75.566085 290.405112 
L 79.063236 290.405112 
L 82.560387 290.405112 
L 86.057538 290.405112 
L 89.554688 290.405112 
L 93.051839 290.405112 
L 96.54899 290.405112 
L 100.046141 290.405112 
L 103.543292 290.405112 
L 107.040442 290.405112 
L 110.537593 290.405112 
L 114.034744 290.405112 
L 117.531895 290.405112 
L 121.029046 290.405112 
L 124.526196 290.405112 
L 128.023347 290.405112 
L 131.520498 290.405112 
L 135.017649 290.405112 
L 138.5148 290.405112 
L 142.01195 290.405112 
L 145.509101 290.405112 
L 149.006252 290.405112 
L 152.503403 290.405112 
L 156.000554 290.405112 
L 159.497704 290.405112 
L 162.994855 290.405112 
L 166.492006 290.405112 
L 169.989157 290.405112 
L 173.486308 290.405112 
L 176.983458 290.405112 
L 180.480609 290.405112 
L 183.97776 290.405112 
L 187.474911 290.405112 
L 190.972061 290.405112 
L 194.469212 290.405112 
L 197.966363 290.405112 
L 201.463514 290.405112 
L 204.960665 290.405112 
L 208.457815 290.405112 
L 211.954966 290.405112 
L 215.452117 290.405112 
L 218.949268 290.405112 
L 222.446419 290.405112 
L 225.943569 290.405112 
L 229.44072 290.405112 
L 232.937871 290.405112 
L 236.435022 290.405112 
L 239.932173 290.405112 
L 243.429323 290.405112 
L 246.926474 290.405112 
L 250.423625 290.405112 
L 253.920776 290.405112 
L 257.417927 290.405112 
L 260.915077 290.405112 
L 264.412228 290.405112 
L 267.909379 290.405112 
L 271.40653 290.405112 
L 274.903681 290.405112 
L 278.400831 290.405112 
L 281.897982 290.405112 
L 285.395133 290.405112 
L 288.892284 290.405112 
L 292.389434 290.405112 
L 295.886585 290.405112 
L 299.383736 290.405112 
L 302.880887 290.405112 
L 306.378038 290.405112 
L 309.875188 290.405112 
L 313.372339 290.405112 
L 316.86949 290.405112 
L 320.366641 290.405112 
L 323.863792 290.405112 
L 327.360942 290.405112 
L 330.858093 290.405112 
L 334.355244 290.405112 
L 337.852395 290.405112 
L 341.349546 290.405112 
L 344.846696 290.405112 
L 348.343847 290.405112 
L 351.840998 290.405112 
L 355.338149 290.405112 
L 358.8353 290.405112 
L 362.33245 290.405112 
L 365.829601 290.405112 
L 369.326752 290.405112 
L 372.823903 290.405112 
L 376.303118 286.907961 
L 376.24931 283.41081 
L 376.159645 279.91366 
L 376.034163 276.416509 
L 375.872931 272.919358 
L 375.676047 269.422207 
L 375.443642 265.925057 
L 375.175881 262.427906 
L 374.872968 258.930755 
L 374.535149 255.433604 
L 374.162717 251.936453 
L 373.756013 248.439303 
L 373.31543 244.942152 
L 372.841421 241.445001 
L 372.823903 241.329698 
L 372.315789 237.94785 
L 371.755356 234.450699 
L 371.161389 230.953549 
L 370.534573 227.456398 
L 369.87568 223.959247 
L 369.326752 221.194358 
L 369.179593 220.462096 
L 368.428161 216.964945 
L 367.645301 213.467795 
L 366.832157 209.970644 
L 365.989998 206.473493 
L 365.829601 205.837421 
L 365.086634 202.976342 
L 364.147115 199.479191 
L 363.1806 195.982041 
L 362.33245 192.995638 
L 362.181539 192.48489 
L 361.113283 188.987739 
L 360.02118 185.490588 
L 358.907729 181.993437 
L 358.8353 181.770511 
L 357.714223 178.496287 
L 356.497552 174.999136 
L 355.338149 171.708958 
L 355.260618 171.501985 
L 353.935947 168.004834 
L 352.599531 164.507684 
L 351.840998 162.528875 
L 351.214457 161.010533 
L 349.770181 157.513382 
L 348.343847 154.060612 
L 348.323879 154.016231 
L 346.76817 150.51908 
L 345.220776 147.02193 
L 344.846696 146.157122 
L 343.583949 143.524779 
L 341.934417 140.027628 
L 341.349546 138.745603 
L 340.207565 136.530477 
L 338.45927 133.033326 
L 337.852395 131.756751 
L 336.628996 129.536176 
L 334.791058 126.039025 
L 334.355244 125.141177 
L 332.839046 122.541874 
L 330.932948 119.044723 
L 330.858093 118.887618 
L 328.832094 115.547572 
L 327.360942 112.825273 
L 326.785696 112.050422 
L 324.617576 108.553271 
L 323.863792 106.962897 
L 322.317122 105.05612 
L 320.366641 101.638751 
L 320.212818 101.558969 
L 316.86949 98.34058 
L 313.372339 100.957591 
L 312.914861 101.558969 
L 309.875188 103.304841 
L 307.682563 105.05612 
L 306.378038 105.73726 
L 302.880887 108.104493 
L 302.330859 108.553271 
L 299.383736 110.415838 
L 297.115695 112.050422 
L 295.886585 112.782073 
L 292.389434 115.133621 
L 291.834784 115.547572 
L 288.892284 117.454084 
L 286.61667 119.044723 
L 285.395133 119.805541 
L 281.897982 122.151339 
L 281.35426 122.541874 
L 278.400831 124.477687 
L 276.133477 126.039025 
L 274.903681 126.822963 
L 271.40653 129.165567 
L 270.879244 129.536176 
L 267.909379 131.495906 
L 265.656442 133.033326 
L 264.412228 133.837859 
L 260.915077 136.17827 
L 260.40681 136.530477 
L 257.417927 138.511575 
L 255.18243 140.027628 
L 253.920776 140.85148 
L 250.423625 143.190172 
L 249.935793 143.524779 
L 246.926474 145.525852 
L 244.710119 147.02193 
L 243.429323 147.864388 
L 239.932173 150.2016 
L 239.465639 150.51908 
L 236.435022 152.539303 
L 234.238853 154.016231 
L 232.937871 154.876874 
L 229.44072 157.212724 
L 228.996049 157.513382 
L 225.943569 159.552243 
L 223.768269 161.010533 
L 222.446419 161.88911 
L 218.949268 164.22364 
L 218.526849 164.507684 
L 215.452117 166.564862 
L 213.298147 168.004834 
L 211.954966 168.901206 
L 208.457815 171.234409 
L 208.05793 171.501985 
L 204.960665 173.577287 
L 202.828347 174.999136 
L 201.463514 175.913241 
L 197.966363 178.245068 
L 197.589221 178.496287 
L 194.469212 180.589611 
L 192.358772 181.993437 
L 190.972061 182.925279 
L 187.474911 185.255643 
L 187.120673 185.490588 
L 183.97776 187.601906 
L 181.889349 188.987739 
L 180.480609 189.937377 
L 176.983458 192.266152 
L 176.652252 192.48489 
L 173.486308 194.614239 
L 171.420024 195.982041 
L 169.989157 196.949591 
L 166.492006 199.276607 
L 166.183932 199.479191 
L 162.994855 201.626676 
L 160.950751 202.976342 
L 159.497704 203.961985 
L 156.000554 206.287018 
L 155.715696 206.473493 
L 152.503403 208.639286 
L 150.481483 209.970644 
L 149.006252 210.974634 
L 145.509101 213.297391 
L 145.247529 213.467795 
L 142.01195 215.652157 
L 140.012178 216.964945 
L 138.5148 217.987636 
L 135.017649 220.30773 
L 134.77942 220.462096 
L 131.520498 222.6654 
L 129.542781 223.959247 
L 128.023347 225.001129 
L 124.526196 227.318039 
L 124.31136 227.456398 
L 121.029046 229.679167 
L 119.073226 230.953549 
L 117.531895 232.015309 
L 114.034744 234.328318 
L 113.843343 234.450699 
L 110.537593 236.693685 
L 108.603417 237.94785 
L 107.040442 239.030481 
L 103.543292 241.338568 
L 103.375362 241.445001 
L 100.046141 243.709305 
L 98.133211 244.942152 
L 96.54899 246.047143 
L 93.051839 248.348785 
L 92.907411 248.439303 
L 89.554688 250.726614 
L 87.662362 251.936453 
L 86.057538 253.066175 
L 82.560387 255.358964 
L 82.439482 255.433604 
L 79.063236 257.746679 
L 77.190415 258.930755 
L 75.566085 260.089311 
L 72.068935 262.369091 
L 71.971564 262.427906 
L 68.571784 264.771679 
L 66.716398 265.925057 
L 65.074633 267.120487 
L 61.577482 269.379134 
L 61.503631 269.422207 
L 58.080331 271.806866 
L 56.237768 272.919358 
L 54.583181 274.171031 
L 51.08603 276.389012 
L 51.035599 276.416509 
L 47.588879 278.869068 
L 45.744999 279.91366 
L 44.091728 281.292618 
L 40.594577 283.398428 
L 40.566867 283.41081 
L 37.097427 286.061314 
L 35.13618 286.907961 
z
" clip-path="url(#p9646273ece)" style="fill: #008000; fill-opacity: 0.25"/>
    <path d="M 37.097427 290.405112 
L 40.594577 290.405112 
L 44.091728 290.405112 
L 47.588879 290.405112 
L 51.08603 290.405112 
L 54.583181 290.405112 
L 58.080331 290.405112 
L 61.577482 290.405112 
L 65.074633 290.405112 
L 68.571784 290.405112 
L 72.068935 290.405112 
L 75.566085 290.405112 
L 79.063236 290.405112 
L 82.560387 290.405112 
L 86.057538 290.405112 
L 89.554688 290.405112 
L 93.051839 290.405112 
L 96.54899 290.405112 
L 100.046141 290.405112 
L 103.543292 290.405112 
L 107.040442 290.405112 
L 110.537593 290.405112 
L 114.034744 290.405112 
L 117.531895 290.405112 
L 121.029046 290.405112 
L 124.526196 290.405112 
L 128.023347 290.405112 
L 131.520498 290.405112 
L 135.017649 290.405112 
L 138.5148 290.405112 
L 142.01195 290.405112 
L 145.509101 290.405112 
L 149.006252 290.405112 
L 152.503403 290.405112 
L 156.000554 290.405112 
L 159.497704 290.405112 
L 162.994855 290.405112 
L 166.492006 290.405112 
L 169.989157 290.405112 
L 173.486308 290.405112 
L 176.983458 290.405112 
L 180.480609 290.405112 
L 183.97776 290.405112 
L 187.474911 290.405112 
L 190.972061 290.405112 
L 194.469212 290.405112 
L 197.966363 290.405112 
L 201.463514 290.405112 
L 204.960665 290.405112 
L 208.457815 290.405112 
L 211.954966 290.405112 
L 215.452117 290.405112 
L 218.949268 290.405112 
L 222.446419 290.405112 
L 225.943569 290.405112 
L 229.44072 290.405112 
L 232.937871 290.405112 
L 236.435022 290.405112 
L 239.932173 290.405112 
L 243.429323 290.405112 
L 246.926474 290.405112 
L 250.423625 290.405112 
L 253.920776 290.405112 
L 257.417927 290.405112 
L 260.915077 290.405112 
L 264.412228 290.405112 
L 267.909379 290.405112 
L 271.40653 290.405112 
L 274.903681 290.405112 
L 278.400831 290.405112 
L 281.897982 290.405112 
L 285.395133 290.405112 
L 288.892284 290.405112 
L 292.389434 290.405112 
L 295.886585 290.405112 
L 299.383736 290.405112 
L 302.880887 290.405112 
L 306.378038 290.405112 
L 309.875188 290.405112 
L 313.372339 290.405112 
L 316.86949 290.405112 
L 320.366641 290.405112 
L 323.863792 290.405112 
L 327.360942 290.405112 
L 330.858093 290.405112 
L 334.355244 290.405112 
L 337.852395 290.405112 
L 341.349546 290.405112 
L 344.846696 290.405112 
L 348.343847 290.405112 
L 351.840998 290.405112 
L 355.338149 290.405112 
L 358.8353 290.405112 
L 362.33245 290.405112 
L 365.829601 290.405112 
L 369.326752 290.405112 
L 372.823903 290.405112 
L 376.321054 290.405112 
L 376.321054 290.405112 
L 376.303118 286.907961 
L 376.24931 283.41081 
L 376.159645 279.91366 
L 376.034163 276.416509 
L 375.872931 272.919358 
L 375.676047 269.422207 
L 375.443642 265.925057 
L 375.175881 262.427906 
L 374.872968 258.930755 
L 374.535149 255.433604 
L 374.162717 251.936453 
L 373.756013 248.439303 
L 373.31543 244.942152 
L 372.841421 241.445001 
L 372.823903 241.329698 
L 372.315789 237.94785 
L 371.755356 234.450699 
L 371.161389 230.953549 
L 370.534573 227.456398 
L 369.87568 223.959247 
L 369.326752 221.194358 
L 369.179593 220.462096 
L 368.428161 216.964945 
L 367.645301 213.467795 
L 366.832157 209.970644 
L 365.989998 206.473493 
L 365.829601 205.837421 
L 365.086634 202.976342 
L 364.147115 199.479191 
L 363.1806 195.982041 
L 362.33245 192.995638 
L 362.181539 192.48489 
L 361.113283 188.987739 
L 360.02118 185.490588 
L 358.907729 181.993437 
L 358.8353 181.770511 
L 357.714223 178.496287 
L 356.497552 174.999136 
L 355.338149 171.708958 
L 355.260618 171.501985 
L 353.935947 168.004834 
L 352.599531 164.507684 
L 351.840998 162.528875 
L 351.214457 161.010533 
L 349.770181 157.513382 
L 348.343847 154.060612 
L 348.323879 154.016231 
L 346.76817 150.51908 
L 345.220776 147.02193 
L 344.846696 146.157122 
L 343.583949 143.524779 
L 341.934417 140.027628 
L 341.349546 138.745603 
L 340.207565 136.530477 
L 338.45927 133.033326 
L 337.852395 131.756751 
L 336.628996 129.536176 
L 334.791058 126.039025 
L 334.355244 125.141177 
L 332.839046 122.541874 
L 330.932948 119.044723 
L 330.858093 118.887618 
L 328.832094 115.547572 
L 327.360942 112.825273 
L 326.785696 112.050422 
L 324.617576 108.553271 
L 323.863792 106.962897 
L 322.317122 105.05612 
L 320.366641 101.638751 
L 320.212818 101.558969 
L 316.86949 98.34058 
L 313.372339 100.957591 
L 312.914861 101.558969 
L 309.875188 103.304841 
L 307.682563 105.05612 
L 306.378038 105.73726 
L 302.880887 108.104493 
L 302.330859 108.553271 
L 299.383736 110.415838 
L 297.115695 112.050422 
L 295.886585 112.782073 
L 292.389434 115.133621 
L 291.834784 115.547572 
L 288.892284 117.454084 
L 286.61667 119.044723 
L 285.395133 119.805541 
L 281.897982 122.151339 
L 281.35426 122.541874 
L 278.400831 124.477687 
L 276.133477 126.039025 
L 274.903681 126.822963 
L 271.40653 129.165567 
L 270.879244 129.536176 
L 267.909379 131.495906 
L 265.656442 133.033326 
L 264.412228 133.837859 
L 260.915077 136.17827 
L 260.40681 136.530477 
L 257.417927 138.511575 
L 255.18243 140.027628 
L 253.920776 140.85148 
L 250.423625 143.190172 
L 249.935793 143.524779 
L 246.926474 145.525852 
L 244.710119 147.02193 
L 243.429323 147.864388 
L 239.932173 150.2016 
L 239.465639 150.51908 
L 236.435022 152.539303 
L 234.238853 154.016231 
L 232.937871 154.876874 
L 229.44072 157.212724 
L 228.996049 157.513382 
L 225.943569 159.552243 
L 223.768269 161.010533 
L 222.446419 161.88911 
L 218.949268 164.22364 
L 218.526849 164.507684 
L 215.452117 166.564862 
L 213.298147 168.004834 
L 211.954966 168.901206 
L 208.457815 171.234409 
L 208.05793 171.501985 
L 204.960665 173.577287 
L 202.828347 174.999136 
L 201.463514 175.913241 
L 197.966363 178.245068 
L 197.589221 178.496287 
L 194.469212 180.589611 
L 192.358772 181.993437 
L 190.972061 182.925279 
L 187.474911 185.255643 
L 187.120673 185.490588 
L 183.97776 187.601906 
L 181.889349 188.987739 
L 180.480609 189.937377 
L 176.983458 192.266152 
L 176.652252 192.48489 
L 173.486308 194.614239 
L 171.420024 195.982041 
L 169.989157 196.949591 
L 166.492006 199.276607 
L 166.183932 199.479191 
L 162.994855 201.626676 
L 160.950751 202.976342 
L 159.497704 203.961985 
L 156.000554 206.287018 
L 155.715696 206.473493 
L 152.503403 208.639286 
L 150.481483 209.970644 
L 149.006252 210.974634 
L 145.509101 213.297391 
L 145.247529 213.467795 
L 142.01195 215.652157 
L 140.012178 216.964945 
L 138.5148 217.987636 
L 135.017649 220.30773 
L 134.77942 220.462096 
L 131.520498 222.6654 
L 129.542781 223.959247 
L 128.023347 225.001129 
L 124.526196 227.318039 
L 124.31136 227.456398 
L 121.029046 229.679167 
L 119.073226 230.953549 
L 117.531895 232.015309 
L 114.034744 234.328318 
L 113.843343 234.450699 
L 110.537593 236.693685 
L 108.603417 237.94785 
L 107.040442 239.030481 
L 103.543292 241.338568 
L 103.375362 241.445001 
L 100.046141 243.709305 
L 98.133211 244.942152 
L 96.54899 246.047143 
L 93.051839 248.348785 
L 92.907411 248.439303 
L 89.554688 250.726614 
L 87.662362 251.936453 
L 86.057538 253.066175 
L 82.560387 255.358964 
L 82.439482 255.433604 
L 79.063236 257.746679 
L 77.190415 258.930755 
L 75.566085 260.089311 
L 72.068935 262.369091 
L 71.971564 262.427906 
L 68.571784 264.771679 
L 66.716398 265.925057 
L 65.074633 267.120487 
L 61.577482 269.379134 
L 61.503631 269.422207 
L 58.080331 271.806866 
L 56.237768 272.919358 
L 54.583181 274.171031 
L 51.08603 276.389012 
L 51.035599 276.416509 
L 47.588879 278.869068 
L 45.744999 279.91366 
L 44.091728 281.292618 
L 40.594577 283.398428 
L 40.566867 283.41081 
L 37.097427 286.061314 
L 35.13618 286.907961 
L 33.600276 290.405112 
L 33.600276 290.405112 
z
M 35.13618 286.907961 
L 37.097427 286.061314 
L 40.566867 283.41081 
L 40.594577 283.398428 
L 44.091728 281.292618 
L 45.744999 279.91366 
L 47.588879 278.869068 
L 51.035599 276.416509 
L 51.08603 276.389012 
L 54.583181 274.171031 
L 56.237768 272.919358 
L 58.080331 271.806866 
L 61.503631 269.422207 
L 61.577482 269.379134 
L 65.074633 267.120487 
L 66.716398 265.925057 
L 68.571784 264.771679 
L 71.971564 262.427906 
L 72.068935 262.369091 
L 75.566085 260.089311 
L 77.190415 258.930755 
L 79.063236 257.746679 
L 82.439482 255.433604 
L 82.560387 255.358964 
L 86.057538 253.066175 
L 87.662362 251.936453 
L 89.554688 250.726614 
L 92.907411 248.439303 
L 93.051839 248.348785 
L 96.54899 246.047143 
L 98.133211 244.942152 
L 100.046141 243.709305 
L 103.375362 241.445001 
L 103.543292 241.338568 
L 107.040442 239.030481 
L 108.603417 237.94785 
L 110.537593 236.693685 
L 113.843343 234.450699 
L 114.034744 234.328318 
L 117.531895 232.015309 
L 119.073226 230.953549 
L 121.029046 229.679167 
L 124.31136 227.456398 
L 124.526196 227.318039 
L 128.023347 225.001129 
L 129.542781 223.959247 
L 131.520498 222.6654 
L 134.77942 220.462096 
L 135.017649 220.30773 
L 138.5148 217.987636 
L 140.012178 216.964945 
L 142.01195 215.652157 
L 145.247529 213.467795 
L 145.509101 213.297391 
L 149.006252 210.974634 
L 150.481483 209.970644 
L 152.503403 208.639286 
L 155.715696 206.473493 
L 156.000554 206.287018 
L 159.497704 203.961985 
L 160.950751 202.976342 
L 162.994855 201.626676 
L 166.183932 199.479191 
L 166.492006 199.276607 
L 169.989157 196.949591 
L 171.420024 195.982041 
L 173.486308 194.614239 
L 176.652252 192.48489 
L 176.983458 192.266152 
L 180.480609 189.937377 
L 181.889349 188.987739 
L 183.97776 187.601906 
L 187.120673 185.490588 
L 187.474911 185.255643 
L 190.972061 182.925279 
L 192.358772 181.993437 
L 194.469212 180.589611 
L 197.589221 178.496287 
L 197.966363 178.245068 
L 201.463514 175.913241 
L 202.828347 174.999136 
L 204.960665 173.577287 
L 208.05793 171.501985 
L 208.457815 171.234409 
L 211.954966 168.901206 
L 213.298147 168.004834 
L 215.452117 166.564862 
L 218.526849 164.507684 
L 218.949268 164.22364 
L 222.446419 161.88911 
L 223.768269 161.010533 
L 225.943569 159.552243 
L 228.996049 157.513382 
L 229.44072 157.212724 
L 232.937871 154.876874 
L 234.238853 154.016231 
L 236.435022 152.539303 
L 239.465639 150.51908 
L 239.932173 150.2016 
L 243.429323 147.864388 
L 244.710119 147.02193 
L 246.926474 145.525852 
L 249.935793 143.524779 
L 250.423625 143.190172 
L 253.920776 140.85148 
L 255.18243 140.027628 
L 257.417927 138.511575 
L 260.40681 136.530477 
L 260.915077 136.17827 
L 264.412228 133.837859 
L 265.656442 133.033326 
L 267.909379 131.495906 
L 270.879244 129.536176 
L 271.40653 129.165567 
L 274.903681 126.822963 
L 276.133477 126.039025 
L 278.400831 124.477687 
L 281.35426 122.541874 
L 281.897982 122.151339 
L 285.395133 119.805541 
L 286.61667 119.044723 
L 288.892284 117.454084 
L 291.834784 115.547572 
L 292.389434 115.133621 
L 295.886585 112.782073 
L 297.115695 112.050422 
L 299.383736 110.415838 
L 302.330859 108.553271 
L 302.880887 108.104493 
L 306.378038 105.73726 
L 307.682563 105.05612 
L 309.875188 103.304841 
L 312.914861 101.558969 
L 313.372339 100.957591 
L 316.86949 98.34058 
L 320.212818 101.558969 
L 320.366641 101.638751 
L 322.317122 105.05612 
L 323.863792 106.962897 
L 324.617576 108.553271 
L 326.785696 112.050422 
L 327.360942 112.825273 
L 328.832094 115.547572 
L 330.858093 118.887618 
L 330.932948 119.044723 
L 332.839046 122.541874 
L 334.355244 125.141177 
L 334.791058 126.039025 
L 336.628996 129.536176 
L 337.852395 131.756751 
L 338.45927 133.033326 
L 340.207565 136.530477 
L 341.349546 138.745603 
L 341.934417 140.027628 
L 343.583949 143.524779 
L 344.846696 146.157122 
L 345.220776 147.02193 
L 346.76817 150.51908 
L 348.323879 154.016231 
L 348.343847 154.060612 
L 349.770181 157.513382 
L 351.214457 161.010533 
L 351.840998 162.528875 
L 352.599531 164.507684 
L 353.935947 168.004834 
L 355.260618 171.501985 
L 355.338149 171.708958 
L 356.497552 174.999136 
L 357.714223 178.496287 
L 358.8353 181.770511 
L 358.907729 181.993437 
L 360.02118 185.490588 
L 361.113283 188.987739 
L 362.181539 192.48489 
L 362.33245 192.995638 
L 363.1806 195.982041 
L 364.147115 199.479191 
L 365.086634 202.976342 
L 365.829601 205.837421 
L 365.989998 206.473493 
L 366.832157 209.970644 
L 367.645301 213.467795 
L 368.428161 216.964945 
L 369.179593 220.462096 
L 369.326752 221.194358 
L 369.87568 223.959247 
L 370.534573 227.456398 
L 371.161389 230.953549 
L 371.755356 234.450699 
L 372.315789 237.94785 
L 372.823903 241.329698 
L 372.841421 241.445001 
L 373.31543 244.942152 
L 373.756013 248.439303 
L 374.162717 251.936453 
L 374.535149 255.433604 
L 374.872968 258.930755 
L 375.175881 262.427906 
L 375.443642 265.925057 
L 375.676047 269.422207 
L 375.872931 272.919358 
L 376.034163 276.416509 
L 376.159645 279.91366 
L 376.24931 283.41081 
L 376.303118 286.907961 
L 372.823903 290.405112 
L 369.326752 290.405112 
L 365.829601 290.405112 
L 362.33245 290.405112 
L 358.8353 290.405112 
L 355.338149 290.405112 
L 351.840998 290.405112 
L 348.343847 290.405112 
L 344.846696 290.405112 
L 341.349546 290.405112 
L 337.852395 290.405112 
L 334.355244 290.405112 
L 330.858093 290.405112 
L 327.360942 290.405112 
L 323.863792 290.405112 
L 320.366641 290.405112 
L 316.86949 290.405112 
L 313.372339 290.405112 
L 309.875188 290.405112 
L 306.378038 290.405112 
L 302.880887 290.405112 
L 299.383736 290.405112 
L 295.886585 290.405112 
L 292.389434 290.405112 
L 288.892284 290.405112 
L 285.395133 290.405112 
L 281.897982 290.405112 
L 278.400831 290.405112 
L 274.903681 290.405112 
L 271.40653 290.405112 
L 267.909379 290.405112 
L 264.412228 290.405112 
L 260.915077 290.405112 
L 257.417927 290.405112 
L 253.920776 290.405112 
L 250.423625 290.405112 
L 246.926474 290.405112 
L 243.429323 290.405112 
L 239.932173 290.405112 
L 236.435022 290.405112 
L 232.937871 290.405112 
L 229.44072 290.405112 
L 225.943569 290.405112 
L 222.446419 290.405112 
L 218.949268 290.405112 
L 215.452117 290.405112 
L 211.954966 290.405112 
L 208.457815 290.405112 
L 204.960665 290.405112 
L 201.463514 290.405112 
L 197.966363 290.405112 
L 194.469212 290.405112 
L 190.972061 290.405112 
L 187.474911 290.405112 
L 183.97776 290.405112 
L 180.480609 290.405112 
L 176.983458 290.405112 
L 173.486308 290.405112 
L 169.989157 290.405112 
L 166.492006 290.405112 
L 162.994855 290.405112 
L 159.497704 290.405112 
L 156.000554 290.405112 
L 152.503403 290.405112 
L 149.006252 290.405112 
L 145.509101 290.405112 
L 142.01195 290.405112 
L 138.5148 290.405112 
L 135.017649 290.405112 
L 131.520498 290.405112 
L 128.023347 290.405112 
L 124.526196 290.405112 
L 121.029046 290.405112 
L 117.531895 290.405112 
L 114.034744 290.405112 
L 110.537593 290.405112 
L 107.040442 290.405112 
L 103.543292 290.405112 
L 100.046141 290.405112 
L 96.54899 290.405112 
L 93.051839 290.405112 
L 89.554688 290.405112 
L 86.057538 290.405112 
L 82.560387 290.405112 
L 79.063236 290.405112 
L 75.566085 290.405112 
L 72.068935 290.405112 
L 68.571784 290.405112 
L 65.074633 290.405112 
L 61.577482 290.405112 
L 58.080331 290.405112 
L 54.583181 290.405112 
L 51.08603 290.405112 
L 47.588879 290.405112 
L 44.091728 290.405112 
L 40.594577 290.405112 
L 37.097427 290.405112 
z
" clip-path="url(#p9646273ece)" style="fill: #008000"/>
    <path d="M 35.13618 286.907961 
L 37.097427 286.061314 
L 40.566867 283.41081 
L 40.594577 283.398428 
L 44.091728 281.292618 
L 45.744999 279.91366 
L 47.588879 278.869068 
L 51.035599 276.416509 
L 51.08603 276.389012 
L 54.583181 274.171031 
L 56.237768 272.919358 
L 58.080331 271.806866 
L 61.503631 269.422207 
L 61.577482 269.379134 
L 65.074633 267.120487 
L 66.716398 265.925057 
L 68.571784 264.771679 
L 71.971564 262.427906 
L 72.068935 262.369091 
L 75.566085 260.089311 
L 77.190415 258.930755 
L 79.063236 257.746679 
L 82.439482 255.433604 
L 82.560387 255.358964 
L 86.057538 253.066175 
L 87.662362 251.936453 
L 89.554688 250.726614 
L 92.907411 248.439303 
L 93.051839 248.348785 
L 96.54899 246.047143 
L 98.133211 244.942152 
L 100.046141 243.709305 
L 103.375362 241.445001 
L 103.543292 241.338568 
L 107.040442 239.030481 
L 108.603417 237.94785 
L 110.537593 236.693685 
L 113.843343 234.450699 
L 114.034744 234.328318 
L 117.531895 232.015309 
L 119.073226 230.953549 
L 121.029046 229.679167 
L 124.31136 227.456398 
L 124.526196 227.318039 
L 128.023347 225.001129 
L 129.542781 223.959247 
L 131.520498 222.6654 
L 134.77942 220.462096 
L 135.017649 220.30773 
L 138.5148 217.987636 
L 140.012178 216.964945 
L 142.01195 215.652157 
L 145.247529 213.467795 
L 145.509101 213.297391 
L 149.006252 210.974634 
L 150.481483 209.970644 
L 152.503403 208.639286 
L 155.715696 206.473493 
L 156.000554 206.287018 
L 159.497704 203.961985 
L 160.950751 202.976342 
L 162.994855 201.626676 
L 166.183932 199.479191 
L 166.492006 199.276607 
L 169.989157 196.949591 
L 171.420024 195.982041 
L 173.486308 194.614239 
L 176.652252 192.48489 
L 176.983458 192.266152 
L 180.480609 189.937377 
L 181.889349 188.987739 
L 183.97776 187.601906 
L 187.120673 185.490588 
L 187.474911 185.255643 
L 190.972061 182.925279 
L 192.358772 181.993437 
L 194.469212 180.589611 
L 197.589221 178.496287 
L 197.966363 178.245068 
L 201.463514 175.913241 
L 202.828347 174.999136 
L 204.960665 173.577287 
L 208.05793 171.501985 
L 208.457815 171.234409 
L 211.954966 168.901206 
L 213.298147 168.004834 
L 215.452117 166.564862 
L 218.526849 164.507684 
L 218.949268 164.22364 
L 222.446419 161.88911 
L 223.768269 161.010533 
L 225.943569 159.552243 
L 228.996049 157.513382 
L 229.44072 157.212724 
L 232.937871 154.876874 
L 234.238853 154.016231 
L 236.435022 152.539303 
L 239.465639 150.51908 
L 239.932173 150.2016 
L 243.429323 147.864388 
L 244.710119 147.02193 
L 246.926474 145.525852 
L 249.935793 143.524779 
L 250.423625 143.190172 
L 253.920776 140.85148 
L 255.18243 140.027628 
L 257.417927 138.511575 
L 260.40681 136.530477 
L 260.915077 136.17827 
L 264.412228 133.837859 
L 265.656442 133.033326 
L 267.909379 131.495906 
L 270.879244 129.536176 
L 271.40653 129.165567 
L 274.903681 126.822963 
L 276.133477 126.039025 
L 278.400831 124.477687 
L 281.35426 122.541874 
L 281.897982 122.151339 
L 285.395133 119.805541 
L 286.61667 119.044723 
L 288.892284 117.454084 
L 291.834784 115.547572 
L 292.389434 115.133621 
L 295.886585 112.782073 
L 297.115695 112.050422 
L 299.383736 110.415838 
L 302.330859 108.553271 
L 302.880887 108.104493 
L 306.378038 105.73726 
L 307.682563 105.05612 
L 309.875188 103.304841 
L 312.914861 101.558969 
L 313.372339 100.957591 
L 316.86949 98.34058 
L 320.212818 101.558969 
L 320.366641 101.638751 
L 322.317122 105.05612 
L 323.863792 106.962897 
L 324.617576 108.553271 
L 326.785696 112.050422 
L 327.360942 112.825273 
L 328.832094 115.547572 
L 330.858093 118.887618 
L 330.932948 119.044723 
L 332.839046 122.541874 
L 334.355244 125.141177 
L 334.791058 126.039025 
L 336.628996 129.536176 
L 337.852395 131.756751 
L 338.45927 133.033326 
L 340.207565 136.530477 
L 341.349546 138.745603 
L 341.934417 140.027628 
L 343.583949 143.524779 
L 344.846696 146.157122 
L 345.220776 147.02193 
L 346.76817 150.51908 
L 348.323879 154.016231 
L 348.343847 154.060612 
L 349.770181 157.513382 
L 351.214457 161.010533 
L 351.840998 162.528875 
L 352.599531 164.507684 
L 353.935947 168.004834 
L 355.260618 171.501985 
L 355.338149 171.708958 
L 356.497552 174.999136 
L 357.714223 178.496287 
L 358.8353 181.770511 
L 358.907729 181.993437 
L 360.02118 185.490588 
L 361.113283 188.987739 
L 362.181539 192.48489 
L 362.33245 192.995638 
L 363.1806 195.982041 
L 364.147115 199.479191 
L 365.086634 202.976342 
L 365.829601 205.837421 
L 365.989998 206.473493 
L 366.832157 209.970644 
L 367.645301 213.467795 
L 368.428161 216.964945 
L 369.179593 220.462096 
L 369.326752 221.194358 
L 369.87568 223.959247 
L 370.534573 227.456398 
L 371.161389 230.953549 
L 371.755356 234.450699 
L 372.315789 237.94785 
L 372.823903 241.329698 
L 372.841421 241.445001 
L 373.31543 244.942152 
L 373.756013 248.439303 
L 374.162717 251.936453 
L 374.535149 255.433604 
L 374.872968 258.930755 
L 375.175881 262.427906 
L 375.443642 265.925057 
L 375.676047 269.422207 
L 375.872931 272.919358 
L 376.034163 276.416509 
L 376.159645 279.91366 
L 376.24931 283.41081 
L 376.303118 286.907961 
L 376.321054 290.405112 
L 376.321054 290.405112 
L 376.303118 286.907961 
L 376.24931 283.41081 
L 376.159645 279.91366 
L 376.034163 276.416509 
L 375.872931 272.919358 
L 375.676047 269.422207 
L 375.443642 265.925057 
L 375.175881 262.427906 
L 374.872968 258.930755 
L 374.535149 255.433604 
L 374.162717 251.936453 
L 373.756013 248.439303 
L 373.31543 244.942152 
L 372.841421 241.445001 
L 372.823903 241.329698 
L 372.315789 237.94785 
L 371.755356 234.450699 
L 371.161389 230.953549 
L 370.534573 227.456398 
L 369.87568 223.959247 
L 369.326752 221.194358 
L 369.179593 220.462096 
L 368.428161 216.964945 
L 367.645301 213.467795 
L 366.832157 209.970644 
L 365.989998 206.473493 
L 365.829601 205.837421 
L 365.086634 202.976342 
L 364.147115 199.479191 
L 363.1806 195.982041 
L 362.33245 192.995638 
L 362.181539 192.48489 
L 361.113283 188.987739 
L 360.02118 185.490588 
L 358.907729 181.993437 
L 358.8353 181.770511 
L 357.714223 178.496287 
L 356.497552 174.999136 
L 355.338149 171.708958 
L 355.260618 171.501985 
L 353.935947 168.004834 
L 352.599531 164.507684 
L 351.840998 162.528875 
L 351.214457 161.010533 
L 349.770181 157.513382 
L 348.343847 154.060612 
L 348.323879 154.016231 
L 346.76817 150.51908 
L 345.220776 147.02193 
L 344.846696 146.157122 
L 343.583949 143.524779 
L 341.934417 140.027628 
L 341.349546 138.745603 
L 340.207565 136.530477 
L 338.45927 133.033326 
L 337.852395 131.756751 
L 336.628996 129.536176 
L 334.791058 126.039025 
L 334.355244 125.141177 
L 332.839046 122.541874 
L 330.932948 119.044723 
L 330.858093 118.887618 
L 328.832094 115.547572 
L 327.360942 112.825273 
L 326.785696 112.050422 
L 324.617576 108.553271 
L 323.863792 106.962897 
L 322.317122 105.05612 
L 320.366641 101.638751 
L 320.212818 101.558969 
L 316.86949 98.34058 
L 313.372339 100.957591 
L 312.914861 101.558969 
L 309.875188 103.304841 
L 307.682563 105.05612 
L 306.378038 105.73726 
L 302.880887 108.104493 
L 302.330859 108.553271 
L 299.383736 110.415838 
L 297.115695 112.050422 
L 295.886585 112.782073 
L 292.389434 115.133621 
L 291.834784 115.547572 
L 288.892284 117.454084 
L 286.61667 119.044723 
L 285.395133 119.805541 
L 281.897982 122.151339 
L 281.35426 122.541874 
L 278.400831 124.477687 
L 276.133477 126.039025 
L 274.903681 126.822963 
L 271.40653 129.165567 
L 270.879244 129.536176 
L 267.909379 131.495906 
L 265.656442 133.033326 
L 264.412228 133.837859 
L 260.915077 136.17827 
L 260.40681 136.530477 
L 257.417927 138.511575 
L 255.18243 140.027628 
L 253.920776 140.85148 
L 250.423625 143.190172 
L 249.935793 143.524779 
L 246.926474 145.525852 
L 244.710119 147.02193 
L 243.429323 147.864388 
L 239.932173 150.2016 
L 239.465639 150.51908 
L 236.435022 152.539303 
L 234.238853 154.016231 
L 232.937871 154.876874 
L 229.44072 157.212724 
L 228.996049 157.513382 
L 225.943569 159.552243 
L 223.768269 161.010533 
L 222.446419 161.88911 
L 218.949268 164.22364 
L 218.526849 164.507684 
L 215.452117 166.564862 
L 213.298147 168.004834 
L 211.954966 168.901206 
L 208.457815 171.234409 
L 208.05793 171.501985 
L 204.960665 173.577287 
L 202.828347 174.999136 
L 201.463514 175.913241 
L 197.966363 178.245068 
L 197.589221 178.496287 
L 194.469212 180.589611 
L 192.358772 181.993437 
L 190.972061 182.925279 
L 187.474911 185.255643 
L 187.120673 185.490588 
L 183.97776 187.601906 
L 181.889349 188.987739 
L 180.480609 189.937377 
L 176.983458 192.266152 
L 176.652252 192.48489 
L 173.486308 194.614239 
L 171.420024 195.982041 
L 169.989157 196.949591 
L 166.492006 199.276607 
L 166.183932 199.479191 
L 162.994855 201.626676 
L 160.950751 202.976342 
L 159.497704 203.961985 
L 156.000554 206.287018 
L 155.715696 206.473493 
L 152.503403 208.639286 
L 150.481483 209.970644 
L 149.006252 210.974634 
L 145.509101 213.297391 
L 145.247529 213.467795 
L 142.01195 215.652157 
L 140.012178 216.964945 
L 138.5148 217.987636 
L 135.017649 220.30773 
L 134.77942 220.462096 
L 131.520498 222.6654 
L 129.542781 223.959247 
L 128.023347 225.001129 
L 124.526196 227.318039 
L 124.31136 227.456398 
L 121.029046 229.679167 
L 119.073226 230.953549 
L 117.531895 232.015309 
L 114.034744 234.328318 
L 113.843343 234.450699 
L 110.537593 236.693685 
L 108.603417 237.94785 
L 107.040442 239.030481 
L 103.543292 241.338568 
L 103.375362 241.445001 
L 100.046141 243.709305 
L 98.133211 244.942152 
L 96.54899 246.047143 
L 93.051839 248.348785 
L 92.907411 248.439303 
L 89.554688 250.726614 
L 87.662362 251.936453 
L 86.057538 253.066175 
L 82.560387 255.358964 
L 82.439482 255.433604 
L 79.063236 257.746679 
L 77.190415 258.930755 
L 75.566085 260.089311 
L 72.068935 262.369091 
L 71.971564 262.427906 
L 68.571784 264.771679 
L 66.716398 265.925057 
L 65.074633 267.120487 
L 61.577482 269.379134 
L 61.503631 269.422207 
L 58.080331 271.806866 
L 56.237768 272.919358 
L 54.583181 274.171031 
L 51.08603 276.389012 
L 51.035599 276.416509 
L 47.588879 278.869068 
L 45.744999 279.91366 
L 44.091728 281.292618 
L 40.594577 283.398428 
L 40.566867 283.41081 
L 37.097427 286.061314 
L 35.13618 286.907961 
L 33.600276 290.405112 
L 33.600276 290.405112 
z
" clip-path="url(#p9646273ece)" style="fill: #ffffff"/>
    <path d="M 35.13618 286.907961 
L 37.097427 286.061314 
L 40.566867 283.41081 
L 40.594577 283.398428 
L 44.091728 281.292618 
L 45.744999 279.91366 
L 47.588879 278.869068 
L 51.035599 276.416509 
L 51.08603 276.389012 
L 54.583181 274.171031 
L 56.237768 272.919358 
L 58.080331 271.806866 
L 61.503631 269.422207 
L 61.577482 269.379134 
L 65.074633 267.120487 
L 66.716398 265.925057 
L 68.571784 264.771679 
L 71.971564 262.427906 
L 72.068935 262.369091 
L 75.566085 260.089311 
L 77.190415 258.930755 
L 79.063236 257.746679 
L 82.439482 255.433604 
L 82.560387 255.358964 
L 86.057538 253.066175 
L 87.662362 251.936453 
L 89.554688 250.726614 
L 92.907411 248.439303 
L 93.051839 248.348785 
L 96.54899 246.047143 
L 98.133211 244.942152 
L 100.046141 243.709305 
L 103.375362 241.445001 
L 103.543292 241.338568 
L 107.040442 239.030481 
L 108.603417 237.94785 
L 110.537593 236.693685 
L 113.843343 234.450699 
L 114.034744 234.328318 
L 117.531895 232.015309 
L 119.073226 230.953549 
L 121.029046 229.679167 
L 124.31136 227.456398 
L 124.526196 227.318039 
L 128.023347 225.001129 
L 129.542781 223.959247 
L 131.520498 222.6654 
L 134.77942 220.462096 
L 135.017649 220.30773 
L 138.5148 217.987636 
L 140.012178 216.964945 
L 142.01195 215.652157 
L 145.247529 213.467795 
L 145.509101 213.297391 
L 149.006252 210.974634 
L 150.481483 209.970644 
L 152.503403 208.639286 
L 155.715696 206.473493 
L 156.000554 206.287018 
L 159.497704 203.961985 
L 160.950751 202.976342 
L 162.994855 201.626676 
L 166.183932 199.479191 
L 166.492006 199.276607 
L 169.989157 196.949591 
L 171.420024 195.982041 
L 173.486308 194.614239 
L 176.652252 192.48489 
L 176.983458 192.266152 
L 180.480609 189.937377 
L 181.889349 188.987739 
L 183.97776 187.601906 
L 187.120673 185.490588 
L 187.474911 185.255643 
L 190.972061 182.925279 
L 192.358772 181.993437 
L 194.469212 180.589611 
L 197.589221 178.496287 
L 197.966363 178.245068 
L 201.463514 175.913241 
L 202.828347 174.999136 
L 204.960665 173.577287 
L 208.05793 171.501985 
L 208.457815 171.234409 
L 211.954966 168.901206 
L 213.298147 168.004834 
L 215.452117 166.564862 
L 218.526849 164.507684 
L 218.949268 164.22364 
L 222.446419 161.88911 
L 223.768269 161.010533 
L 225.943569 159.552243 
L 228.996049 157.513382 
L 229.44072 157.212724 
L 232.937871 154.876874 
L 234.238853 154.016231 
L 236.435022 152.539303 
L 239.465639 150.51908 
L 239.932173 150.2016 
L 243.429323 147.864388 
L 244.710119 147.02193 
L 246.926474 145.525852 
L 249.935793 143.524779 
L 250.423625 143.190172 
L 253.920776 140.85148 
L 255.18243 140.027628 
L 257.417927 138.511575 
L 260.40681 136.530477 
L 260.915077 136.17827 
L 264.412228 133.837859 
L 265.656442 133.033326 
L 267.909379 131.495906 
L 270.879244 129.536176 
L 271.40653 129.165567 
L 274.903681 126.822963 
L 276.133477 126.039025 
L 278.400831 124.477687 
L 281.35426 122.541874 
L 281.897982 122.151339 
L 285.395133 119.805541 
L 286.61667 119.044723 
L 288.892284 117.454084 
L 291.834784 115.547572 
L 292.389434 115.133621 
L 295.886585 112.782073 
L 297.115695 112.050422 
L 299.383736 110.415838 
L 302.330859 108.553271 
L 302.880887 108.104493 
L 306.378038 105.73726 
L 307.682563 105.05612 
L 309.875188 103.304841 
L 312.914861 101.558969 
L 313.372339 100.957591 
L 316.86949 98.34058 
L 320.212818 101.558969 
L 320.366641 101.638751 
L 322.317122 105.05612 
L 323.863792 106.962897 
L 324.617576 108.553271 
L 326.785696 112.050422 
L 327.360942 112.825273 
L 328.832094 115.547572 
L 330.858093 118.887618 
L 330.932948 119.044723 
L 332.839046 122.541874 
L 334.355244 125.141177 
L 334.791058 126.039025 
L 336.628996 129.536176 
L 337.852395 131.756751 
L 338.45927 133.033326 
L 340.207565 136.530477 
L 341.349546 138.745603 
L 341.934417 140.027628 
L 343.583949 143.524779 
L 344.846696 146.157122 
L 345.220776 147.02193 
L 346.76817 150.51908 
L 348.323879 154.016231 
L 348.343847 154.060612 
L 349.770181 157.513382 
L 351.214457 161.010533 
L 351.840998 162.528875 
L 352.599531 164.507684 
L 353.935947 168.004834 
L 355.260618 171.501985 
L 355.338149 171.708958 
L 356.497552 174.999136 
L 357.714223 178.496287 
L 358.8353 181.770511 
L 358.907729 181.993437 
L 360.02118 185.490588 
L 361.113283 188.987739 
L 362.181539 192.48489 
L 362.33245 192.995638 
L 363.1806 195.982041 
L 364.147115 199.479191 
L 365.086634 202.976342 
L 365.829601 205.837421 
L 365.989998 206.473493 
L 366.832157 209.970644 
L 367.645301 213.467795 
L 368.428161 216.964945 
L 369.179593 220.462096 
L 369.326752 221.194358 
L 369.87568 223.959247 
L 370.534573 227.456398 
L 371.161389 230.953549 
L 371.755356 234.450699 
L 372.315789 237.94785 
L 372.823903 241.329698 
L 372.841421 241.445001 
L 373.31543 244.942152 
L 373.756013 248.439303 
L 374.162717 251.936453 
L 374.535149 255.433604 
L 374.872968 258.930755 
L 375.175881 262.427906 
L 375.443642 265.925057 
L 375.676047 269.422207 
L 375.872931 272.919358 
L 376.034163 276.416509 
L 376.159645 279.91366 
L 376.24931 283.41081 
L 376.303118 286.907961 
L 376.321054 290.405112 
L 376.321054 286.907961 
L 376.321054 283.41081 
L 376.321054 279.91366 
L 376.321054 276.416509 
L 376.321054 272.919358 
L 376.321054 269.422207 
L 376.321054 265.925057 
L 376.321054 262.427906 
L 376.321054 258.930755 
L 376.321054 255.433604 
L 376.321054 251.936453 
L 376.321054 248.439303 
L 376.321054 244.942152 
L 376.321054 241.445001 
L 376.321054 237.94785 
L 376.321054 234.450699 
L 376.321054 230.953549 
L 376.321054 227.456398 
L 376.321054 223.959247 
L 376.321054 220.462096 
L 376.321054 216.964945 
L 376.321054 213.467795 
L 376.321054 209.970644 
L 376.321054 206.473493 
L 376.321054 202.976342 
L 376.321054 199.479191 
L 376.321054 195.982041 
L 376.321054 192.48489 
L 376.321054 188.987739 
L 376.321054 185.490588 
L 376.321054 181.993437 
L 376.321054 178.496287 
L 376.321054 174.999136 
L 376.321054 171.501985 
L 376.321054 168.004834 
L 376.321054 164.507684 
L 376.321054 161.010533 
L 376.321054 157.513382 
L 376.321054 154.016231 
L 376.321054 150.51908 
L 376.321054 147.02193 
L 376.321054 143.524779 
L 376.321054 140.027628 
L 376.321054 136.530477 
L 376.321054 133.033326 
L 376.321054 129.536176 
L 376.321054 126.039025 
L 376.321054 122.541874 
L 376.321054 119.044723 
L 376.321054 115.547572 
L 376.321054 112.050422 
L 376.321054 108.553271 
L 376.321054 105.05612 
L 376.321054 101.558969 
L 376.321054 98.061818 
L 376.321054 94.564668 
L 376.321054 91.067517 
L 376.321054 87.570366 
L 376.321054 84.073215 
L 376.321054 80.576064 
L 376.321054 77.078914 
L 376.321054 73.581763 
L 376.321054 70.084612 
L 376.321054 66.587461 
L 376.321054 63.09031 
L 376.321054 59.59316 
L 376.321054 56.096009 
L 376.321054 52.598858 
L 376.321054 49.101707 
L 376.321054 45.604557 
L 376.321054 42.107406 
L 376.321054 38.610255 
L 376.321054 35.113104 
L 376.321054 31.615953 
L 376.321054 28.118803 
L 376.321054 24.621652 
L 376.321054 21.124501 
L 376.321054 17.62735 
L 376.321054 14.130199 
L 376.321054 10.633049 
L 376.321054 7.135898 
L 376.321054 3.638747 
L 376.321054 0.141596 
L 376.321054 -1 
M 33.600276 -1 
L 33.600276 0.141596 
L 33.600276 3.638747 
L 33.600276 7.135898 
L 33.600276 10.633049 
L 33.600276 14.130199 
L 33.600276 17.62735 
L 33.600276 21.124501 
L 33.600276 24.621652 
L 33.600276 28.118803 
L 33.600276 31.615953 
L 33.600276 35.113104 
L 33.600276 38.610255 
L 33.600276 42.107406 
L 33.600276 45.604557 
L 33.600276 49.101707 
L 33.600276 52.598858 
L 33.600276 56.096009 
L 33.600276 59.59316 
L 33.600276 63.09031 
L 33.600276 66.587461 
L 33.600276 70.084612 
L 33.600276 73.581763 
L 33.600276 77.078914 
L 33.600276 80.576064 
L 33.600276 84.073215 
L 33.600276 87.570366 
L 33.600276 91.067517 
L 33.600276 94.564668 
L 33.600276 98.061818 
L 33.600276 101.558969 
L 33.600276 105.05612 
L 33.600276 108.553271 
L 33.600276 112.050422 
L 33.600276 115.547572 
L 33.600276 119.044723 
L 33.600276 122.541874 
L 33.600276 126.039025 
L 33.600276 129.536176 
L 33.600276 133.033326 
L 33.600276 136.530477 
L 33.600276 140.027628 
L 33.600276 143.524779 
L 33.600276 147.02193 
L 33.600276 150.51908 
L 33.600276 154.016231 
L 33.600276 157.513382 
L 33.600276 161.010533 
L 33.600276 164.507684 
L 33.600276 168.004834 
L 33.600276 171.501985 
L 33.600276 174.999136 
L 33.600276 178.496287 
L 33.600276 181.993437 
L 33.600276 185.490588 
L 33.600276 188.987739 
L 33.600276 192.48489 
L 33.600276 195.982041 
L 33.600276 199.479191 
L 33.600276 202.976342 
L 33.600276 206.473493 
L 33.600276 209.970644 
L 33.600276 213.467795 
L 33.600276 216.964945 
L 33.600276 220.462096 
L 33.600276 223.959247 
L 33.600276 227.456398 
L 33.600276 230.953549 
L 33.600276 234.450699 
L 33.600276 237.94785 
L 33.600276 241.445001 
L 33.600276 244.942152 
L 33.600276 248.439303 
L 33.600276 251.936453 
L 33.600276 255.433604 
L 33.600276 258.930755 
L 33.600276 262.427906 
L 33.600276 265.925057 
L 33.600276 269.422207 
L 33.600276 272.919358 
L 33.600276 276.416509 
L 33.600276 279.91366 
L 33.600276 283.41081 
L 33.600276 286.907961 
L 33.600276 290.405112 
L 35.13618 286.907961 
" clip-path="url(#p9646273ece)" style="fill: none"/>
   </g>
   <g id="matplotlib.axis_1">
    <g id="xtick_1">
     <g id="line2d_1">
      <defs>
       <path id="m46e3a6d517" d="M 0 0 
L 0 3.5 
" style="stroke: #000000; stroke-width: 0.8"/>
      </defs>
      <g>
       <use xlink:href="#m46e3a6d517" x="30.103125" y="290.405112" style="stroke: #000000; stroke-width: 0.8"/>
      </g>
     </g>
    </g>
    <g id="xtick_2">
     <g id="line2d_2">
      <g>
       <use xlink:href="#m46e3a6d517" x="99.346711" y="290.405112" style="stroke: #000000; stroke-width: 0.8"/>
      </g>
     </g>
     <g id="text_1">
      <!-- 0.2 -->
      <g transform="translate(91.395148 305.00355) scale(0.1 -0.1)">
       <defs>
        <path id="DejaVuSans-30" d="M 2034 4250 
Q 1547 4250 1301 3770 
Q 1056 3291 1056 2328 
Q 1056 1369 1301 889 
Q 1547 409 2034 409 
Q 2525 409 2770 889 
Q 3016 1369 3016 2328 
Q 3016 3291 2770 3770 
Q 2525 4250 2034 4250 
z
M 2034 4750 
Q 2819 4750 3233 4129 
Q 3647 3509 3647 2328 
Q 3647 1150 3233 529 
Q 2819 -91 2034 -91 
Q 1250 -91 836 529 
Q 422 1150 422 2328 
Q 422 3509 836 4129 
Q 1250 4750 2034 4750 
z
" transform="scale(0.015625)"/>
        <path id="DejaVuSans-2e" d="M 684 794 
L 1344 794 
L 1344 0 
L 684 0 
L 684 794 
z
" transform="scale(0.015625)"/>
        <path id="DejaVuSans-32" d="M 1228 531 
L 3431 531 
L 3431 0 
L 469 0 
L 469 531 
Q 828 903 1448 1529 
Q 2069 2156 2228 2338 
Q 2531 2678 2651 2914 
Q 2772 3150 2772 3378 
Q 2772 3750 2511 3984 
Q 2250 4219 1831 4219 
Q 1534 4219 1204 4116 
Q 875 4013 500 3803 
L 500 4441 
Q 881 4594 1212 4672 
Q 1544 4750 1819 4750 
Q 2544 4750 2975 4387 
Q 3406 4025 3406 3419 
Q 3406 3131 3298 2873 
Q 3191 2616 2906 2266 
Q 2828 2175 2409 1742 
Q 1991 1309 1228 531 
z
" transform="scale(0.015625)"/>
       </defs>
       <use xlink:href="#DejaVuSans-30"/>
       <use xlink:href="#DejaVuSans-2e" x="63.623047"/>
       <use xlink:href="#DejaVuSans-32" x="95.410156"/>
      </g>
     </g>
    </g>
    <g id="xtick_3">
     <g id="line2d_3">
      <g>
       <use xlink:href="#m46e3a6d517" x="168.590296" y="290.405112" style="stroke: #000000; stroke-width: 0.8"/>
      </g>
     </g>
     <g id="text_2">
      <!-- 0.4 -->
      <g transform="translate(160.638734 305.00355) scale(0.1 -0.1)">
       <defs>
        <path id="DejaVuSans-34" d="M 2419 4116 
L 825 1625 
L 2419 1625 
L 2419 4116 
z
M 2253 4666 
L 3047 4666 
L 3047 1625 
L 3713 1625 
L 3713 1100 
L 3047 1100 
L 3047 0 
L 2419 0 
L 2419 1100 
L 313 1100 
L 313 1709 
L 2253 4666 
z
" transform="scale(0.015625)"/>
       </defs>
       <use xlink:href="#DejaVuSans-30"/>
       <use xlink:href="#DejaVuSans-2e" x="63.623047"/>
       <use xlink:href="#DejaVuSans-34" x="95.410156"/>
      </g>
     </g>
    </g>
    <g id="xtick_4">
     <g id="line2d_4">
      <g>
       <use xlink:href="#m46e3a6d517" x="237.833882" y="290.405112" style="stroke: #000000; stroke-width: 0.8"/>
      </g>
     </g>
     <g id="text_3">
      <!-- 0.6 -->
      <g transform="translate(229.88232 305.00355) scale(0.1 -0.1)">
       <defs>
        <path id="DejaVuSans-36" d="M 2113 2584 
Q 1688 2584 1439 2293 
Q 1191 2003 1191 1497 
Q 1191 994 1439 701 
Q 1688 409 2113 409 
Q 2538 409 2786 701 
Q 3034 994 3034 1497 
Q 3034 2003 2786 2293 
Q 2538 2584 2113 2584 
z
M 3366 4563 
L 3366 3988 
Q 3128 4100 2886 4159 
Q 2644 4219 2406 4219 
Q 1781 4219 1451 3797 
Q 1122 3375 1075 2522 
Q 1259 2794 1537 2939 
Q 1816 3084 2150 3084 
Q 2853 3084 3261 2657 
Q 3669 2231 3669 1497 
Q 3669 778 3244 343 
Q 2819 -91 2113 -91 
Q 1303 -91 875 529 
Q 447 1150 447 2328 
Q 447 3434 972 4092 
Q 1497 4750 2381 4750 
Q 2619 4750 2861 4703 
Q 3103 4656 3366 4563 
z
" transform="scale(0.015625)"/>
       </defs>
       <use xlink:href="#DejaVuSans-30"/>
       <use xlink:href="#DejaVuSans-2e" x="63.623047"/>
       <use xlink:href="#DejaVuSans-36" x="95.410156"/>
      </g>
     </g>
    </g>
    <g id="xtick_5">
     <g id="line2d_5">
      <g>
       <use xlink:href="#m46e3a6d517" x="307.077468" y="290.405112" style="stroke: #000000; stroke-width: 0.8"/>
      </g>
     </g>
     <g id="text_4">
      <!-- 0.8 -->
      <g transform="translate(299.125905 305.00355) scale(0.1 -0.1)">
       <defs>
        <path id="DejaVuSans-38" d="M 2034 2216 
Q 1584 2216 1326 1975 
Q 1069 1734 1069 1313 
Q 1069 891 1326 650 
Q 1584 409 2034 409 
Q 2484 409 2743 651 
Q 3003 894 3003 1313 
Q 3003 1734 2745 1975 
Q 2488 2216 2034 2216 
z
M 1403 2484 
Q 997 2584 770 2862 
Q 544 3141 544 3541 
Q 544 4100 942 4425 
Q 1341 4750 2034 4750 
Q 2731 4750 3128 4425 
Q 3525 4100 3525 3541 
Q 3525 3141 3298 2862 
Q 3072 2584 2669 2484 
Q 3125 2378 3379 2068 
Q 3634 1759 3634 1313 
Q 3634 634 3220 271 
Q 2806 -91 2034 -91 
Q 1263 -91 848 271 
Q 434 634 434 1313 
Q 434 1759 690 2068 
Q 947 2378 1403 2484 
z
M 1172 3481 
Q 1172 3119 1398 2916 
Q 1625 2713 2034 2713 
Q 2441 2713 2670 2916 
Q 2900 3119 2900 3481 
Q 2900 3844 2670 4047 
Q 2441 4250 2034 4250 
Q 1625 4250 1398 4047 
Q 1172 3844 1172 3481 
z
" transform="scale(0.015625)"/>
       </defs>
       <use xlink:href="#DejaVuSans-30"/>
       <use xlink:href="#DejaVuSans-2e" x="63.623047"/>
       <use xlink:href="#DejaVuSans-38" x="95.410156"/>
      </g>
     </g>
    </g>
    <g id="xtick_6">
     <g id="line2d_6">
      <g>
       <use xlink:href="#m46e3a6d517" x="376.321054" y="290.405112" style="stroke: #000000; stroke-width: 0.8"/>
      </g>
     </g>
     <g id="text_5">
      <!-- 1.0 -->
      <g transform="translate(368.369491 305.00355) scale(0.1 -0.1)">
       <defs>
        <path id="DejaVuSans-31" d="M 794 531 
L 1825 531 
L 1825 4091 
L 703 3866 
L 703 4441 
L 1819 4666 
L 2450 4666 
L 2450 531 
L 3481 531 
L 3481 0 
L 794 0 
L 794 531 
z
" transform="scale(0.015625)"/>
       </defs>
       <use xlink:href="#DejaVuSans-31"/>
       <use xlink:href="#DejaVuSans-2e" x="63.623047"/>
       <use xlink:href="#DejaVuSans-30" x="95.410156"/>
      </g>
     </g>
    </g>
    <g id="xtick_7">
     <g id="line2d_7">
      <defs>
       <path id="m1f604a36c0" d="M 0 0 
L 0 2 
" style="stroke: #000000; stroke-width: 0.6"/>
      </defs>
      <g>
       <use xlink:href="#m1f604a36c0" x="47.414021" y="290.405112" style="stroke: #000000; stroke-width: 0.6"/>
      </g>
     </g>
    </g>
    <g id="xtick_8">
     <g id="line2d_8">
      <g>
       <use xlink:href="#m1f604a36c0" x="64.724918" y="290.405112" style="stroke: #000000; stroke-width: 0.6"/>
      </g>
     </g>
    </g>
    <g id="xtick_9">
     <g id="line2d_9">
      <g>
       <use xlink:href="#m1f604a36c0" x="82.035814" y="290.405112" style="stroke: #000000; stroke-width: 0.6"/>
      </g>
     </g>
    </g>
    <g id="xtick_10">
     <g id="line2d_10">
      <g>
       <use xlink:href="#m1f604a36c0" x="116.657607" y="290.405112" style="stroke: #000000; stroke-width: 0.6"/>
      </g>
     </g>
    </g>
    <g id="xtick_11">
     <g id="line2d_11">
      <g>
       <use xlink:href="#m1f604a36c0" x="133.968504" y="290.405112" style="stroke: #000000; stroke-width: 0.6"/>
      </g>
     </g>
    </g>
    <g id="xtick_12">
     <g id="line2d_12">
      <g>
       <use xlink:href="#m1f604a36c0" x="151.2794" y="290.405112" style="stroke: #000000; stroke-width: 0.6"/>
      </g>
     </g>
    </g>
    <g id="xtick_13">
     <g id="line2d_13">
      <g>
       <use xlink:href="#m1f604a36c0" x="185.901193" y="290.405112" style="stroke: #000000; stroke-width: 0.6"/>
      </g>
     </g>
    </g>
    <g id="xtick_14">
     <g id="line2d_14">
      <g>
       <use xlink:href="#m1f604a36c0" x="203.212089" y="290.405112" style="stroke: #000000; stroke-width: 0.6"/>
      </g>
     </g>
    </g>
    <g id="xtick_15">
     <g id="line2d_15">
      <g>
       <use xlink:href="#m1f604a36c0" x="220.522986" y="290.405112" style="stroke: #000000; stroke-width: 0.6"/>
      </g>
     </g>
    </g>
    <g id="xtick_16">
     <g id="line2d_16">
      <g>
       <use xlink:href="#m1f604a36c0" x="255.144779" y="290.405112" style="stroke: #000000; stroke-width: 0.6"/>
      </g>
     </g>
    </g>
    <g id="xtick_17">
     <g id="line2d_17">
      <g>
       <use xlink:href="#m1f604a36c0" x="272.455675" y="290.405112" style="stroke: #000000; stroke-width: 0.6"/>
      </g>
     </g>
    </g>
    <g id="xtick_18">
     <g id="line2d_18">
      <g>
       <use xlink:href="#m1f604a36c0" x="289.766571" y="290.405112" style="stroke: #000000; stroke-width: 0.6"/>
      </g>
     </g>
    </g>
    <g id="xtick_19">
     <g id="line2d_19">
      <g>
       <use xlink:href="#m1f604a36c0" x="324.388364" y="290.405112" style="stroke: #000000; stroke-width: 0.6"/>
      </g>
     </g>
    </g>
    <g id="xtick_20">
     <g id="line2d_20">
      <g>
       <use xlink:href="#m1f604a36c0" x="341.699261" y="290.405112" style="stroke: #000000; stroke-width: 0.6"/>
      </g>
     </g>
    </g>
    <g id="xtick_21">
     <g id="line2d_21">
      <g>
       <use xlink:href="#m1f604a36c0" x="359.010157" y="290.405112" style="stroke: #000000; stroke-width: 0.6"/>
      </g>
     </g>
    </g>
   </g>
   <g id="matplotlib.axis_2">
    <g id="ytick_1">
     <g id="line2d_22">
      <defs>
       <path id="m7487716573" d="M 0 0 
L -3.5 0 
" style="stroke: #000000; stroke-width: 0.8"/>
      </defs>
      <g>
       <use xlink:href="#m7487716573" x="30.103125" y="290.405112" style="stroke: #000000; stroke-width: 0.8"/>
      </g>
     </g>
    </g>
    <g id="ytick_2">
     <g id="line2d_23">
      <g>
       <use xlink:href="#m7487716573" x="30.103125" y="221.161526" style="stroke: #000000; stroke-width: 0.8"/>
      </g>
     </g>
     <g id="text_6">
      <!-- 0.2 -->
      <g transform="translate(7.2 224.960745) scale(0.1 -0.1)">
       <use xlink:href="#DejaVuSans-30"/>
       <use xlink:href="#DejaVuSans-2e" x="63.623047"/>
       <use xlink:href="#DejaVuSans-32" x="95.410156"/>
      </g>
     </g>
    </g>
    <g id="ytick_3">
     <g id="line2d_24">
      <g>
       <use xlink:href="#m7487716573" x="30.103125" y="151.917941" style="stroke: #000000; stroke-width: 0.8"/>
      </g>
     </g>
     <g id="text_7">
      <!-- 0.4 -->
      <g transform="translate(7.2 155.717159) scale(0.1 -0.1)">
       <use xlink:href="#DejaVuSans-30"/>
       <use xlink:href="#DejaVuSans-2e" x="63.623047"/>
       <use xlink:href="#DejaVuSans-34" x="95.410156"/>
      </g>
     </g>
    </g>
    <g id="ytick_4">
     <g id="line2d_25">
      <g>
       <use xlink:href="#m7487716573" x="30.103125" y="82.674355" style="stroke: #000000; stroke-width: 0.8"/>
      </g>
     </g>
     <g id="text_8">
      <!-- 0.6 -->
      <g transform="translate(7.2 86.473574) scale(0.1 -0.1)">
       <use xlink:href="#DejaVuSans-30"/>
       <use xlink:href="#DejaVuSans-2e" x="63.623047"/>
       <use xlink:href="#DejaVuSans-36" x="95.410156"/>
      </g>
     </g>
    </g>
    <g id="ytick_5">
     <g id="line2d_26">
      <g>
       <use xlink:href="#m7487716573" x="30.103125" y="13.430769" style="stroke: #000000; stroke-width: 0.8"/>
      </g>
     </g>
     <g id="text_9">
      <!-- 0.8 -->
      <g transform="translate(7.2 17.229988) scale(0.1 -0.1)">
       <use xlink:href="#DejaVuSans-30"/>
       <use xlink:href="#DejaVuSans-2e" x="63.623047"/>
       <use xlink:href="#DejaVuSans-38" x="95.410156"/>
      </g>
     </g>
    </g>
    <g id="ytick_6">
     <g id="line2d_27">
      <defs>
       <path id="mff8024669c" d="M 0 0 
L -2 0 
" style="stroke: #000000; stroke-width: 0.6"/>
      </defs>
      <g>
       <use xlink:href="#mff8024669c" x="30.103125" y="325.026905" style="stroke: #000000; stroke-width: 0.6"/>
      </g>
     </g>
    </g>
    <g id="ytick_7">
     <g id="line2d_28">
      <g>
       <use xlink:href="#mff8024669c" x="30.103125" y="307.716008" style="stroke: #000000; stroke-width: 0.6"/>
      </g>
     </g>
    </g>
    <g id="ytick_8">
     <g id="line2d_29">
      <g>
       <use xlink:href="#mff8024669c" x="30.103125" y="273.094216" style="stroke: #000000; stroke-width: 0.6"/>
      </g>
     </g>
    </g>
    <g id="ytick_9">
     <g id="line2d_30">
      <g>
       <use xlink:href="#mff8024669c" x="30.103125" y="255.783319" style="stroke: #000000; stroke-width: 0.6"/>
      </g>
     </g>
    </g>
    <g id="ytick_10">
     <g id="line2d_31">
      <g>
       <use xlink:href="#mff8024669c" x="30.103125" y="238.472423" style="stroke: #000000; stroke-width: 0.6"/>
      </g>
     </g>
    </g>
    <g id="ytick_11">
     <g id="line2d_32">
      <g>
       <use xlink:href="#mff8024669c" x="30.103125" y="203.85063" style="stroke: #000000; stroke-width: 0.6"/>
      </g>
     </g>
    </g>
    <g id="ytick_12">
     <g id="line2d_33">
      <g>
       <use xlink:href="#mff8024669c" x="30.103125" y="186.539733" style="stroke: #000000; stroke-width: 0.6"/>
      </g>
     </g>
    </g>
    <g id="ytick_13">
     <g id="line2d_34">
      <g>
       <use xlink:href="#mff8024669c" x="30.103125" y="169.228837" style="stroke: #000000; stroke-width: 0.6"/>
      </g>
     </g>
    </g>
    <g id="ytick_14">
     <g id="line2d_35">
      <g>
       <use xlink:href="#mff8024669c" x="30.103125" y="134.607044" style="stroke: #000000; stroke-width: 0.6"/>
      </g>
     </g>
    </g>
    <g id="ytick_15">
     <g id="line2d_36">
      <g>
       <use xlink:href="#mff8024669c" x="30.103125" y="117.296148" style="stroke: #000000; stroke-width: 0.6"/>
      </g>
     </g>
    </g>
    <g id="ytick_16">
     <g id="line2d_37">
      <g>
       <use xlink:href="#mff8024669c" x="30.103125" y="99.985251" style="stroke: #000000; stroke-width: 0.6"/>
      </g>
     </g>
    </g>
    <g id="ytick_17">
     <g id="line2d_38">
      <g>
       <use xlink:href="#mff8024669c" x="30.103125" y="65.363459" style="stroke: #000000; stroke-width: 0.6"/>
      </g>
     </g>
    </g>
    <g id="ytick_18">
     <g id="line2d_39">
      <g>
       <use xlink:href="#mff8024669c" x="30.103125" y="48.052562" style="stroke: #000000; stroke-width: 0.6"/>
      </g>
     </g>
    </g>
    <g id="ytick_19">
     <g id="line2d_40">
      <g>
       <use xlink:href="#mff8024669c" x="30.103125" y="30.741666" style="stroke: #000000; stroke-width: 0.6"/>
      </g>
     </g>
    </g>
   </g>
   <g id="QuadContourSet_2">
    <path d="M 37.097427 290.405112 
L 35.13618 286.907961 
L 37.097427 286.061314 
L 40.594577 283.398428 
L 44.091728 281.292618 
L 45.744999 279.91366 
L 47.588879 278.869068 
L 51.08603 276.389012 
L 54.583181 274.171031 
L 56.237768 272.919358 
L 58.080331 271.806866 
L 61.577482 269.379134 
L 65.074633 267.120487 
L 66.716398 265.925057 
L 68.571784 264.771679 
L 72.068935 262.369091 
L 79.063236 257.746679 
L 87.662362 251.936453 
L 89.554688 250.726614 
L 98.133211 244.942152 
L 103.543292 241.338568 
L 117.531895 232.015309 
L 124.526196 227.318039 
L 149.006252 210.974634 
L 160.950751 202.976342 
L 176.983458 192.266152 
L 234.238853 154.016231 
L 264.412228 133.837859 
L 270.879244 129.536176 
L 274.903681 126.822963 
L 278.400831 124.477687 
L 286.61667 119.044723 
L 288.892284 117.454084 
L 292.389434 115.133621 
L 306.378038 105.73726 
L 307.682563 105.05612 
L 309.875188 103.304841 
L 312.914861 101.558969 
L 313.372339 100.957591 
L 316.86949 98.34058 
L 320.366641 101.638751 
L 322.317122 105.05612 
L 323.863792 106.962897 
L 324.617576 108.553271 
L 328.832094 115.547572 
L 330.932948 119.044723 
L 338.45927 133.033326 
L 343.583949 143.524779 
L 345.220776 147.02193 
L 349.770181 157.513382 
L 352.599531 164.507684 
L 356.497552 174.999136 
L 358.907729 181.993437 
L 362.33245 192.995638 
L 365.086634 202.976342 
L 366.832157 209.970644 
L 369.179593 220.462096 
L 370.534573 227.456398 
L 372.315789 237.94785 
L 373.31543 244.942152 
L 374.535149 255.433604 
L 375.443642 265.925057 
L 376.034163 276.416509 
L 376.303118 286.907961 
L 372.823903 290.405112 
L 37.097427 290.405112 
L 37.097427 290.405112 
" clip-path="url(#p9646273ece)" style="fill: none; stroke: #008000; stroke-width: 1.5"/>
    <path d="M 33.600276 290.405112 
L 35.13618 286.907961 
L 37.097427 286.061314 
L 40.594577 283.398428 
L 44.091728 281.292618 
L 45.744999 279.91366 
L 47.588879 278.869068 
L 51.08603 276.389012 
L 54.583181 274.171031 
L 56.237768 272.919358 
L 58.080331 271.806866 
L 61.577482 269.379134 
L 65.074633 267.120487 
L 66.716398 265.925057 
L 68.571784 264.771679 
L 72.068935 262.369091 
L 79.063236 257.746679 
L 87.662362 251.936453 
L 89.554688 250.726614 
L 98.133211 244.942152 
L 103.543292 241.338568 
L 117.531895 232.015309 
L 124.526196 227.318039 
L 149.006252 210.974634 
L 160.950751 202.976342 
L 176.983458 192.266152 
L 234.238853 154.016231 
L 264.412228 133.837859 
L 270.879244 129.536176 
L 274.903681 126.822963 
L 278.400831 124.477687 
L 286.61667 119.044723 
L 288.892284 117.454084 
L 292.389434 115.133621 
L 306.378038 105.73726 
L 307.682563 105.05612 
L 309.875188 103.304841 
L 312.914861 101.558969 
L 313.372339 100.957591 
L 316.86949 98.34058 
L 320.366641 101.638751 
L 322.317122 105.05612 
L 323.863792 106.962897 
L 324.617576 108.553271 
L 328.832094 115.547572 
L 330.932948 119.044723 
L 338.45927 133.033326 
L 343.583949 143.524779 
L 345.220776 147.02193 
L 349.770181 157.513382 
L 352.599531 164.507684 
L 356.497552 174.999136 
L 358.907729 181.993437 
L 362.33245 192.995638 
L 365.086634 202.976342 
L 366.832157 209.970644 
L 369.179593 220.462096 
L 370.534573 227.456398 
L 372.315789 237.94785 
L 373.31543 244.942152 
L 374.535149 255.433604 
L 375.443642 265.925057 
L 376.034163 276.416509 
L 376.303118 286.907961 
L 376.321054 290.405112 
L 376.321054 290.405112 
" clip-path="url(#p9646273ece)" style="fill: none; stroke: #ffffff; stroke-width: 1.5"/>
    <path d="M 33.600276 290.405112 
L 35.13618 286.907961 
L 37.097427 286.061314 
L 40.594577 283.398428 
L 44.091728 281.292618 
L 45.744999 279.91366 
L 47.588879 278.869068 
L 51.08603 276.389012 
L 54.583181 274.171031 
L 56.237768 272.919358 
L 58.080331 271.806866 
L 61.577482 269.379134 
L 65.074633 267.120487 
L 66.716398 265.925057 
L 68.571784 264.771679 
L 72.068935 262.369091 
L 79.063236 257.746679 
L 87.662362 251.936453 
L 89.554688 250.726614 
L 98.133211 244.942152 
L 103.543292 241.338568 
L 117.531895 232.015309 
L 124.526196 227.318039 
L 149.006252 210.974634 
L 160.950751 202.976342 
L 176.983458 192.266152 
L 234.238853 154.016231 
L 264.412228 133.837859 
L 270.879244 129.536176 
L 274.903681 126.822963 
L 278.400831 124.477687 
L 286.61667 119.044723 
L 288.892284 117.454084 
L 292.389434 115.133621 
L 306.378038 105.73726 
L 307.682563 105.05612 
L 309.875188 103.304841 
L 312.914861 101.558969 
L 313.372339 100.957591 
L 316.86949 98.34058 
L 320.366641 101.638751 
L 322.317122 105.05612 
L 323.863792 106.962897 
L 324.617576 108.553271 
L 328.832094 115.547572 
L 330.932948 119.044723 
L 338.45927 133.033326 
L 343.583949 143.524779 
L 345.220776 147.02193 
L 349.770181 157.513382 
L 352.599531 164.507684 
L 356.497552 174.999136 
L 358.907729 181.993437 
L 362.33245 192.995638 
L 365.086634 202.976342 
L 366.832157 209.970644 
L 369.179593 220.462096 
L 370.534573 227.456398 
L 372.315789 237.94785 
L 373.31543 244.942152 
L 374.535149 255.433604 
L 375.443642 265.925057 
L 376.034163 276.416509 
L 376.303118 286.907961 
L 376.321054 290.405112 
L 376.321054 290.405112 
" clip-path="url(#p9646273ece)" style="fill: none; stroke: #ffffff; stroke-width: 1.5"/>
   </g>
   <g id="line2d_41">
    <path d="M 30.103125 290.405112 
L 317.972812 98.056737 
L 317.972812 290.405112 
L 30.103125 290.405112 
" clip-path="url(#p9646273ece)" style="fill: none; stroke: #0000ff; stroke-width: 2; stroke-linecap: square"/>
   </g>
   <g id="line2d_42">
    <path d="M 374.591406 324.969231 
L 375.377591 315.947185 
L 375.941801 306.60586 
L 376.250726 297.383104 
L 376.314001 288.195231 
L 376.145728 279.388265 
L 375.719559 270.005739 
L 375.142634 261.864064 
L 374.327346 253.303364 
L 373.376647 245.348002 
L 372.062755 236.271338 
L 370.722413 228.394186 
L 368.942891 219.310335 
L 366.842884 209.948984 
L 364.643747 201.245558 
L 362.209387 192.567058 
L 359.614843 184.155964 
L 356.862373 175.970642 
L 353.684859 167.272194 
L 350.280263 158.672601 
L 346.772161 150.449491 
L 343.12519 142.472557 
L 339.174544 134.386806 
L 334.810674 126.027 
L 330.200679 117.754274 
L 325.932034 110.538187 
L 321.931532 104.117606 
L 316.533628 95.920097 
L 311.466648 88.659178 
L 306.430665 81.814737 
L 300.790668 74.546111 
L 295.026964 67.510039 
L 289.320328 60.898477 
L 283.221957 54.189721 
L 277.350971 48.051327 
L 274.020861 44.70002 
L 274.020861 44.70002 
" clip-path="url(#p9646273ece)" style="fill: none; stroke: #0000ff; stroke-linecap: square"/>
   </g>
   <g id="line2d_43">
    <path d="M 99.346711 290.405112 
L 99.231809 286.417731 
L 98.915513 282.689585 
L 98.379495 278.872054 
L 97.602388 274.9609 
L 96.710906 271.482172 
L 95.519353 267.70288 
L 94.093408 263.949153 
L 92.455479 260.291028 
L 90.677885 256.858538 
L 88.721788 253.546918 
L 87.677062 251.935437 
L 87.677062 251.935437 
" clip-path="url(#p9646273ece)" style="fill: none; stroke: #ff0000; stroke-linecap: square"/>
   </g>
   <g id="patch_3">
    <path d="M 30.103125 331.2 
L 30.103125 7.2 
" style="fill: none; stroke: #000000; stroke-width: 0.8; stroke-linejoin: miter; stroke-linecap: square"/>
   </g>
   <g id="patch_4">
    <path d="M 23.178766 290.405112 
L 383.245412 290.405112 
" style="fill: none; stroke: #000000; stroke-width: 0.8; stroke-linejoin: miter; stroke-linecap: square"/>
   </g>
   <g id="text_10">
    <!-- $\theta$ -->
    <g transform="translate(109.6406 269.142797) scale(0.14 -0.14)">
     <defs>
      <path id="Cmmi10-b5" d="M 1031 -72 
Q 741 -72 566 140 
Q 391 353 323 653 
Q 256 953 256 1247 
L 256 1253 
Q 256 1572 317 1915 
Q 378 2259 493 2601 
Q 609 2944 744 3213 
Q 838 3400 986 3631 
Q 1134 3863 1317 4064 
Q 1500 4266 1711 4389 
Q 1922 4513 2138 4513 
L 2144 4513 
Q 2375 4513 2529 4384 
Q 2684 4256 2770 4056 
Q 2856 3856 2890 3628 
Q 2925 3400 2925 3194 
Q 2925 2709 2794 2204 
Q 2663 1700 2431 1228 
Q 2344 1050 2189 809 
Q 2034 569 1861 378 
Q 1688 188 1472 58 
Q 1256 -72 1038 -72 
L 1031 -72 
z
M 1044 97 
Q 1256 97 1451 323 
Q 1647 550 1794 873 
Q 1941 1197 2052 1536 
Q 2163 1875 2216 2113 
L 909 2113 
Q 809 1709 753 1417 
Q 697 1125 697 844 
Q 697 97 1044 97 
z
M 959 2338 
L 2272 2338 
Q 2341 2619 2381 2808 
Q 2422 2997 2450 3206 
Q 2478 3416 2478 3597 
Q 2478 4347 2138 4347 
Q 1731 4347 1436 3692 
Q 1141 3038 959 2338 
z
" transform="scale(0.015625)"/>
     </defs>
     <use xlink:href="#Cmmi10-b5" transform="translate(0 0.484375)"/>
    </g>
   </g>
   <g id="text_11">
    <!-- $S$ -->
    <g transform="translate(330.323708 198.645924) scale(0.16 -0.16)">
     <defs>
      <path id="Cmmi10-53" d="M 391 -141 
Q 372 -141 356 -119 
Q 341 -97 341 -78 
L 709 1416 
Q 722 1453 763 1453 
L 838 1453 
Q 863 1453 877 1434 
Q 891 1416 891 1388 
Q 838 1169 838 997 
Q 838 534 1156 309 
Q 1475 84 1959 84 
Q 2169 84 2372 187 
Q 2575 291 2726 456 
Q 2878 622 2968 826 
Q 3059 1031 3059 1241 
Q 3059 1466 2940 1642 
Q 2822 1819 2613 1869 
L 1831 2075 
Q 1516 2159 1328 2414 
Q 1141 2669 1141 2988 
Q 1141 3372 1369 3728 
Q 1597 4084 1964 4298 
Q 2331 4513 2713 4513 
Q 3006 4513 3251 4405 
Q 3497 4297 3628 4063 
L 3994 4494 
Q 4031 4513 4038 4513 
L 4078 4513 
Q 4103 4513 4118 4491 
Q 4134 4469 4134 4447 
L 3763 2963 
Q 3753 2919 3713 2919 
L 3634 2919 
Q 3578 2919 3578 2988 
Q 3609 3191 3609 3341 
Q 3609 3638 3507 3858 
Q 3406 4078 3201 4192 
Q 2997 4306 2694 4306 
Q 2438 4306 2184 4159 
Q 1931 4013 1775 3769 
Q 1619 3525 1619 3263 
Q 1619 3056 1739 2897 
Q 1859 2738 2059 2681 
L 2841 2478 
Q 3053 2422 3211 2280 
Q 3369 2138 3450 1942 
Q 3531 1747 3531 1516 
Q 3531 1213 3403 917 
Q 3275 622 3045 378 
Q 2816 134 2525 -3 
Q 2234 -141 1931 -141 
Q 1169 -141 838 306 
L 481 -122 
Q 444 -141 434 -141 
L 391 -141 
z
" transform="scale(0.015625)"/>
     </defs>
     <use xlink:href="#Cmmi10-53" transform="translate(0 0.484375)"/>
    </g>
   </g>
  </g>
 </g>
 <defs>
  <clipPath id="p9646273ece">
   <rect x="23.178766" y="7.2" width="360.066646" height="324"/>
  </clipPath>
 </defs>
</svg>
