<?xml version="1.0" encoding="utf-8" standalone="no"?>
<!DOCTYPE svg PUBLIC "-//W3C//DTD SVG 1.1//EN"
  "http://www.w3.org/Graphics/SVG/1.1/DTD/svg11.dtd">
<svg xmlns:xlink="http://www.w3.org/1999/xlink" width="356.58071pt" height="337.382849pt" viewBox="0 0 356.58071 337.382849" xmlns="http://www.w3.org/2000/svg" version="1.1">
 <metadata>
  <rdf:RDF xmlns:dc="http://purl.org/dc/elements/1.1/" xmlns:cc="http://creativecommons.org/ns#" xmlns:rdf="http://www.w3.org/1999/02/22-rdf-syntax-ns#">
   <cc:Work>
    <dc:type rdf:resource="http://purl.org/dc/dcmitype/StillImage"/>
    <dc:date>2026-03-01T17:12:40.596051</dc:date>
    <dc:format>image/svg+xml</dc:format>
    <dc:creator>
     <cc:Agent>
      <dc:title>Matplotlib v3.8.0, https://matplotlib.org/</dc:title>
     </cc:Agent>
    </dc:creator>
   </cc:Work>
  </rdf:RDF>
 </metadata>
 <defs>
  <style type="text/css">*{stroke-linejoin: round; stroke-linecap: butt}</style>
 </defs>
 <g id="figure_1">
  <g id="patch_1">
   <path d="M 0 337.382849 
L 356.58071 337.382849 
L 356.58071 0 
L 0 0 
z
" style="fill: #ffffff"/>
  </g>
  <g id="axes_1">
   <g id="patch_2">
    <path d="M 24.660009 330.182849 
L 347.640307 330.182849 
L 347.640307 7.2 
L 24.660009 7.2 
z
" style="fill: #ffffff"/>
   </g>
   <g id="PathCollection_1">
    <defs>
     <path id="C0_0_0c02e27647" d="M 0 3.535534 
C 0.937635 3.535534 1.836992 3.163008 2.5 2.5 
C 3.163008 1.836992 3.535534 0.937635 3.535534 -0 
C 3.535534 -0.937635 3.163008 -1.836992 2.5 -2.5 
C 1.836992 -3.163008 0.937635 -3.535534 0 -3.535534 
C -0.937635 -3.535534 -1.836992 -3.163008 -2.5 -2.5 
C -3.163008 -1.836992 -3.535534 -0.937635 -3.535534 0 
C -3.535534 0.937635 -3.163008 1.836992 -2.5 2.5 
C -1.836992 3.163008 -0.937635 3.535534 0 3.535534 
z
"/>
    </defs>
    <g clip-path="url(#p0c359245a2)">
     <use xlink:href="#C0_0_0c02e27647" x="76.331736" y="58.892057" style="fill: #0000ff"/>
    </g>
    <g clip-path="url(#p0c359245a2)">
     <use xlink:href="#C0_0_0c02e27647" x="76.331736" y="278.505944" style="fill: #0000ff"/>
    </g>
   </g>
   <g id="matplotlib.axis_1">
    <g id="xtick_1">
     <g id="line2d_1">
      <defs>
       <path id="m9602a64a81" d="M 0 0 
L 0 3.5 
" style="stroke: #000000; stroke-width: 0.8"/>
      </defs>
      <g>
       <use xlink:href="#m9602a64a81" x="30.848211" y="168.699001" style="stroke: #000000; stroke-width: 0.8"/>
      </g>
     </g>
     <g id="text_1">
      <!-- −1.0 -->
      <g transform="translate(18.706804 183.297438) scale(0.1 -0.1)">
       <defs>
        <path id="DejaVuSans-2212" d="M 678 2272 
L 4684 2272 
L 4684 1741 
L 678 1741 
L 678 2272 
z
" transform="scale(0.015625)"/>
        <path id="DejaVuSans-31" d="M 794 531 
L 1825 531 
L 1825 4091 
L 703 3866 
L 703 4441 
L 1819 4666 
L 2450 4666 
L 2450 531 
L 3481 531 
L 3481 0 
L 794 0 
L 794 531 
z
" transform="scale(0.015625)"/>
        <path id="DejaVuSans-2e" d="M 684 794 
L 1344 794 
L 1344 0 
L 684 0 
L 684 794 
z
" transform="scale(0.015625)"/>
        <path id="DejaVuSans-30" d="M 2034 4250 
Q 1547 4250 1301 3770 
Q 1056 3291 1056 2328 
Q 1056 1369 1301 889 
Q 1547 409 2034 409 
Q 2525 409 2770 889 
Q 3016 1369 3016 2328 
Q 3016 3291 2770 3770 
Q 2525 4250 2034 4250 
z
M 2034 4750 
Q 2819 4750 3233 4129 
Q 3647 3509 3647 2328 
Q 3647 1150 3233 529 
Q 2819 -91 2034 -91 
Q 1250 -91 836 529 
Q 422 1150 422 2328 
Q 422 3509 836 4129 
Q 1250 4750 2034 4750 
z
" transform="scale(0.015625)"/>
       </defs>
       <use xlink:href="#DejaVuSans-2212"/>
       <use xlink:href="#DejaVuSans-31" x="83.789062"/>
       <use xlink:href="#DejaVuSans-2e" x="147.412109"/>
       <use xlink:href="#DejaVuSans-30" x="179.199219"/>
      </g>
     </g>
    </g>
    <g id="xtick_2">
     <g id="line2d_2">
      <g>
       <use xlink:href="#m9602a64a81" x="108.493445" y="168.699001" style="stroke: #000000; stroke-width: 0.8"/>
      </g>
     </g>
     <g id="text_2">
      <!-- −0.5 -->
      <g transform="translate(96.352039 183.297438) scale(0.1 -0.1)">
       <defs>
        <path id="DejaVuSans-35" d="M 691 4666 
L 3169 4666 
L 3169 4134 
L 1269 4134 
L 1269 2991 
Q 1406 3038 1543 3061 
Q 1681 3084 1819 3084 
Q 2600 3084 3056 2656 
Q 3513 2228 3513 1497 
Q 3513 744 3044 326 
Q 2575 -91 1722 -91 
Q 1428 -91 1123 -41 
Q 819 9 494 109 
L 494 744 
Q 775 591 1075 516 
Q 1375 441 1709 441 
Q 2250 441 2565 725 
Q 2881 1009 2881 1497 
Q 2881 1984 2565 2268 
Q 2250 2553 1709 2553 
Q 1456 2553 1204 2497 
Q 953 2441 691 2322 
L 691 4666 
z
" transform="scale(0.015625)"/>
       </defs>
       <use xlink:href="#DejaVuSans-2212"/>
       <use xlink:href="#DejaVuSans-30" x="83.789062"/>
       <use xlink:href="#DejaVuSans-2e" x="147.412109"/>
       <use xlink:href="#DejaVuSans-35" x="179.199219"/>
      </g>
     </g>
    </g>
    <g id="xtick_3">
     <g id="line2d_3">
      <g>
       <use xlink:href="#m9602a64a81" x="186.138679" y="168.699001" style="stroke: #000000; stroke-width: 0.8"/>
      </g>
     </g>
    </g>
    <g id="xtick_4">
     <g id="line2d_4">
      <g>
       <use xlink:href="#m9602a64a81" x="263.783913" y="168.699001" style="stroke: #000000; stroke-width: 0.8"/>
      </g>
     </g>
     <g id="text_3">
      <!-- 0.5 -->
      <g transform="translate(255.832351 183.297438) scale(0.1 -0.1)">
       <use xlink:href="#DejaVuSans-30"/>
       <use xlink:href="#DejaVuSans-2e" x="63.623047"/>
       <use xlink:href="#DejaVuSans-35" x="95.410156"/>
      </g>
     </g>
    </g>
    <g id="xtick_5">
     <g id="line2d_5">
      <g>
       <use xlink:href="#m9602a64a81" x="341.429147" y="168.699001" style="stroke: #000000; stroke-width: 0.8"/>
      </g>
     </g>
     <g id="text_4">
      <!-- 1.0 -->
      <g transform="translate(333.477585 183.297438) scale(0.1 -0.1)">
       <use xlink:href="#DejaVuSans-31"/>
       <use xlink:href="#DejaVuSans-2e" x="63.623047"/>
       <use xlink:href="#DejaVuSans-30" x="95.410156"/>
      </g>
     </g>
    </g>
    <g id="xtick_6">
     <g id="line2d_6">
      <defs>
       <path id="m76e932629b" d="M 0 0 
L 0 2 
" style="stroke: #000000; stroke-width: 0.6"/>
      </defs>
      <g>
       <use xlink:href="#m76e932629b" x="46.377258" y="168.699001" style="stroke: #000000; stroke-width: 0.6"/>
      </g>
     </g>
    </g>
    <g id="xtick_7">
     <g id="line2d_7">
      <g>
       <use xlink:href="#m76e932629b" x="61.906304" y="168.699001" style="stroke: #000000; stroke-width: 0.6"/>
      </g>
     </g>
    </g>
    <g id="xtick_8">
     <g id="line2d_8">
      <g>
       <use xlink:href="#m76e932629b" x="77.435351" y="168.699001" style="stroke: #000000; stroke-width: 0.6"/>
      </g>
     </g>
    </g>
    <g id="xtick_9">
     <g id="line2d_9">
      <g>
       <use xlink:href="#m76e932629b" x="92.964398" y="168.699001" style="stroke: #000000; stroke-width: 0.6"/>
      </g>
     </g>
    </g>
    <g id="xtick_10">
     <g id="line2d_10">
      <g>
       <use xlink:href="#m76e932629b" x="124.022492" y="168.699001" style="stroke: #000000; stroke-width: 0.6"/>
      </g>
     </g>
    </g>
    <g id="xtick_11">
     <g id="line2d_11">
      <g>
       <use xlink:href="#m76e932629b" x="139.551539" y="168.699001" style="stroke: #000000; stroke-width: 0.6"/>
      </g>
     </g>
    </g>
    <g id="xtick_12">
     <g id="line2d_12">
      <g>
       <use xlink:href="#m76e932629b" x="155.080585" y="168.699001" style="stroke: #000000; stroke-width: 0.6"/>
      </g>
     </g>
    </g>
    <g id="xtick_13">
     <g id="line2d_13">
      <g>
       <use xlink:href="#m76e932629b" x="170.609632" y="168.699001" style="stroke: #000000; stroke-width: 0.6"/>
      </g>
     </g>
    </g>
    <g id="xtick_14">
     <g id="line2d_14">
      <g>
       <use xlink:href="#m76e932629b" x="201.667726" y="168.699001" style="stroke: #000000; stroke-width: 0.6"/>
      </g>
     </g>
    </g>
    <g id="xtick_15">
     <g id="line2d_15">
      <g>
       <use xlink:href="#m76e932629b" x="217.196773" y="168.699001" style="stroke: #000000; stroke-width: 0.6"/>
      </g>
     </g>
    </g>
    <g id="xtick_16">
     <g id="line2d_16">
      <g>
       <use xlink:href="#m76e932629b" x="232.72582" y="168.699001" style="stroke: #000000; stroke-width: 0.6"/>
      </g>
     </g>
    </g>
    <g id="xtick_17">
     <g id="line2d_17">
      <g>
       <use xlink:href="#m76e932629b" x="248.254866" y="168.699001" style="stroke: #000000; stroke-width: 0.6"/>
      </g>
     </g>
    </g>
    <g id="xtick_18">
     <g id="line2d_18">
      <g>
       <use xlink:href="#m76e932629b" x="279.31296" y="168.699001" style="stroke: #000000; stroke-width: 0.6"/>
      </g>
     </g>
    </g>
    <g id="xtick_19">
     <g id="line2d_19">
      <g>
       <use xlink:href="#m76e932629b" x="294.842007" y="168.699001" style="stroke: #000000; stroke-width: 0.6"/>
      </g>
     </g>
    </g>
    <g id="xtick_20">
     <g id="line2d_20">
      <g>
       <use xlink:href="#m76e932629b" x="310.371054" y="168.699001" style="stroke: #000000; stroke-width: 0.6"/>
      </g>
     </g>
    </g>
    <g id="xtick_21">
     <g id="line2d_21">
      <g>
       <use xlink:href="#m76e932629b" x="325.900101" y="168.699001" style="stroke: #000000; stroke-width: 0.6"/>
      </g>
     </g>
    </g>
   </g>
   <g id="matplotlib.axis_2">
    <g id="ytick_1">
     <g id="line2d_22">
      <defs>
       <path id="m758cbd871f" d="M 0 0 
L -3.5 0 
" style="stroke: #000000; stroke-width: 0.8"/>
      </defs>
      <g>
       <use xlink:href="#m758cbd871f" x="186.138679" y="323.989469" style="stroke: #000000; stroke-width: 0.8"/>
      </g>
     </g>
     <g id="text_5">
      <!-- −1.0 -->
      <g transform="translate(154.855867 327.788688) scale(0.1 -0.1)">
       <use xlink:href="#DejaVuSans-2212"/>
       <use xlink:href="#DejaVuSans-31" x="83.789062"/>
       <use xlink:href="#DejaVuSans-2e" x="147.412109"/>
       <use xlink:href="#DejaVuSans-30" x="179.199219"/>
      </g>
     </g>
    </g>
    <g id="ytick_2">
     <g id="line2d_23">
      <g>
       <use xlink:href="#m758cbd871f" x="186.138679" y="246.344235" style="stroke: #000000; stroke-width: 0.8"/>
      </g>
     </g>
     <g id="text_6">
      <!-- −0.5 -->
      <g transform="translate(154.855867 250.143454) scale(0.1 -0.1)">
       <use xlink:href="#DejaVuSans-2212"/>
       <use xlink:href="#DejaVuSans-30" x="83.789062"/>
       <use xlink:href="#DejaVuSans-2e" x="147.412109"/>
       <use xlink:href="#DejaVuSans-35" x="179.199219"/>
      </g>
     </g>
    </g>
    <g id="ytick_3">
     <g id="line2d_24">
      <g>
       <use xlink:href="#m758cbd871f" x="186.138679" y="168.699001" style="stroke: #000000; stroke-width: 0.8"/>
      </g>
     </g>
    </g>
    <g id="ytick_4">
     <g id="line2d_25">
      <g>
       <use xlink:href="#m758cbd871f" x="186.138679" y="91.053767" style="stroke: #000000; stroke-width: 0.8"/>
      </g>
     </g>
     <g id="text_7">
      <!-- 0.5 -->
      <g transform="translate(163.235554 94.852985) scale(0.1 -0.1)">
       <use xlink:href="#DejaVuSans-30"/>
       <use xlink:href="#DejaVuSans-2e" x="63.623047"/>
       <use xlink:href="#DejaVuSans-35" x="95.410156"/>
      </g>
     </g>
    </g>
    <g id="ytick_5">
     <g id="line2d_26">
      <g>
       <use xlink:href="#m758cbd871f" x="186.138679" y="13.408532" style="stroke: #000000; stroke-width: 0.8"/>
      </g>
     </g>
     <g id="text_8">
      <!-- 1.0 -->
      <g transform="translate(163.235554 17.207751) scale(0.1 -0.1)">
       <use xlink:href="#DejaVuSans-31"/>
       <use xlink:href="#DejaVuSans-2e" x="63.623047"/>
       <use xlink:href="#DejaVuSans-30" x="95.410156"/>
      </g>
     </g>
    </g>
    <g id="ytick_6">
     <g id="line2d_27">
      <defs>
       <path id="m3b328b1735" d="M 0 0 
L -2 0 
" style="stroke: #000000; stroke-width: 0.6"/>
      </defs>
      <g>
       <use xlink:href="#m3b328b1735" x="186.138679" y="308.460422" style="stroke: #000000; stroke-width: 0.6"/>
      </g>
     </g>
    </g>
    <g id="ytick_7">
     <g id="line2d_28">
      <g>
       <use xlink:href="#m3b328b1735" x="186.138679" y="292.931375" style="stroke: #000000; stroke-width: 0.6"/>
      </g>
     </g>
    </g>
    <g id="ytick_8">
     <g id="line2d_29">
      <g>
       <use xlink:href="#m3b328b1735" x="186.138679" y="277.402329" style="stroke: #000000; stroke-width: 0.6"/>
      </g>
     </g>
    </g>
    <g id="ytick_9">
     <g id="line2d_30">
      <g>
       <use xlink:href="#m3b328b1735" x="186.138679" y="261.873282" style="stroke: #000000; stroke-width: 0.6"/>
      </g>
     </g>
    </g>
    <g id="ytick_10">
     <g id="line2d_31">
      <g>
       <use xlink:href="#m3b328b1735" x="186.138679" y="230.815188" style="stroke: #000000; stroke-width: 0.6"/>
      </g>
     </g>
    </g>
    <g id="ytick_11">
     <g id="line2d_32">
      <g>
       <use xlink:href="#m3b328b1735" x="186.138679" y="215.286141" style="stroke: #000000; stroke-width: 0.6"/>
      </g>
     </g>
    </g>
    <g id="ytick_12">
     <g id="line2d_33">
      <g>
       <use xlink:href="#m3b328b1735" x="186.138679" y="199.757094" style="stroke: #000000; stroke-width: 0.6"/>
      </g>
     </g>
    </g>
    <g id="ytick_13">
     <g id="line2d_34">
      <g>
       <use xlink:href="#m3b328b1735" x="186.138679" y="184.228048" style="stroke: #000000; stroke-width: 0.6"/>
      </g>
     </g>
    </g>
    <g id="ytick_14">
     <g id="line2d_35">
      <g>
       <use xlink:href="#m3b328b1735" x="186.138679" y="153.169954" style="stroke: #000000; stroke-width: 0.6"/>
      </g>
     </g>
    </g>
    <g id="ytick_15">
     <g id="line2d_36">
      <g>
       <use xlink:href="#m3b328b1735" x="186.138679" y="137.640907" style="stroke: #000000; stroke-width: 0.6"/>
      </g>
     </g>
    </g>
    <g id="ytick_16">
     <g id="line2d_37">
      <g>
       <use xlink:href="#m3b328b1735" x="186.138679" y="122.11186" style="stroke: #000000; stroke-width: 0.6"/>
      </g>
     </g>
    </g>
    <g id="ytick_17">
     <g id="line2d_38">
      <g>
       <use xlink:href="#m3b328b1735" x="186.138679" y="106.582813" style="stroke: #000000; stroke-width: 0.6"/>
      </g>
     </g>
    </g>
    <g id="ytick_18">
     <g id="line2d_39">
      <g>
       <use xlink:href="#m3b328b1735" x="186.138679" y="75.52472" style="stroke: #000000; stroke-width: 0.6"/>
      </g>
     </g>
    </g>
    <g id="ytick_19">
     <g id="line2d_40">
      <g>
       <use xlink:href="#m3b328b1735" x="186.138679" y="59.995673" style="stroke: #000000; stroke-width: 0.6"/>
      </g>
     </g>
    </g>
    <g id="ytick_20">
     <g id="line2d_41">
      <g>
       <use xlink:href="#m3b328b1735" x="186.138679" y="44.466626" style="stroke: #000000; stroke-width: 0.6"/>
      </g>
     </g>
    </g>
    <g id="ytick_21">
     <g id="line2d_42">
      <g>
       <use xlink:href="#m3b328b1735" x="186.138679" y="28.937579" style="stroke: #000000; stroke-width: 0.6"/>
      </g>
     </g>
    </g>
   </g>
   <g id="line2d_43">
    <path d="M 341.429147 168.699001 
L 341.241032 161.057681 
L 340.380014 150.678451 
L 339.538488 144.540604 
L 338.06905 136.569701 
L 336.574235 130.172738 
L 334.84168 123.949171 
L 332.788153 117.620028 
L 331.211093 113.299323 
L 328.627594 106.957292 
L 324.952894 99.087628 
L 320.765748 91.299505 
L 314.996893 82.034762 
L 309.668861 74.595739 
L 305.511594 69.375102 
L 302.713303 66.105207 
L 299.660998 62.737628 
L 295.332926 58.282761 
L 292.78122 55.816327 
L 287.342519 50.915673 
L 281.1476 45.864012 
L 277.419411 43.06876 
L 272.994011 39.969514 
L 269.178495 37.475837 
L 264.466679 34.610023 
L 260.264701 32.242185 
L 256.152817 30.087493 
L 251.999768 28.066691 
L 244.164458 24.656859 
L 238.154281 22.379123 
L 230.718812 19.945039 
L 221.895936 17.581337 
L 215.960313 16.29887 
L 211.326091 15.464788 
L 205.310392 14.596519 
L 195.632345 13.699001 
L 187.050378 13.411209 
L 182.275899 13.456582 
L 172.651509 13.99533 
L 161.783004 15.33039 
L 157.992046 15.980643 
L 151.028581 17.429669 
L 146.117759 18.654156 
L 141.950219 19.828219 
L 137.33537 21.276592 
L 132.274281 23.049572 
L 126.064579 25.499028 
L 118.958216 28.692162 
L 111.542573 32.498595 
L 107.173362 34.984348 
L 101.831596 38.286405 
L 98.249211 40.673336 
L 91.297589 45.734383 
L 83.512772 52.152646 
L 76.317828 58.905967 
L 73.147718 62.171201 
L 68.049826 67.851828 
L 65.405448 71.03316 
L 62.476072 74.76983 
L 59.038075 79.476996 
L 56.422883 83.3237 
L 52.25483 90.020894 
L 48.410351 96.963115 
L 46.63677 100.476227 
L 42.744156 109.090777 
L 39.38204 117.928748 
L 36.977707 125.500229 
L 35.618871 130.503228 
L 33.530578 139.960577 
L 32.621892 145.295464 
L 31.543996 154.01522 
L 31.093531 159.973655 
L 30.871169 166.028813 
L 30.963729 174.687694 
L 31.191525 179.019318 
L 31.665796 184.613086 
L 32.618956 192.083272 
L 33.302406 196.198149 
L 34.217842 200.873351 
L 35.416384 206.08776 
L 36.501367 210.217724 
L 38.115387 215.648277 
L 40.950436 223.794407 
L 42.331481 227.304627 
L 44.404825 232.154844 
L 47.347804 238.356897 
L 49.138951 241.816741 
L 51.555968 246.1756 
L 54.474335 251.03751 
L 59.465695 258.527084 
L 63.632559 264.131595 
L 67.695476 269.129759 
L 71.392545 273.333863 
L 75.611241 277.780691 
L 79.55839 281.640452 
L 84.480855 286.090723 
L 89.149465 289.976459 
L 95.744351 294.968534 
L 100.182701 298.030743 
L 104.937259 301.067649 
L 113.063268 305.721312 
L 117.975244 308.229914 
L 126.330624 312.010292 
L 135.477879 315.493459 
L 142.258116 317.660827 
L 145.588057 318.601558 
L 150.70519 319.892907 
L 158.223389 321.459814 
L 163.365326 322.310537 
L 170.174686 323.166734 
L 178.484982 323.800743 
L 183.785612 323.97164 
L 190.465402 323.929182 
L 196.274542 323.65833 
L 200.849365 323.291126 
L 206.282112 322.677479 
L 212.655168 321.708822 
L 220.333444 320.177869 
L 223.417675 319.448482 
L 231.091427 317.340785 
L 238.036797 315.06059 
L 241.723277 313.700663 
L 250.988861 309.800324 
L 254.393993 308.184992 
L 259.094546 305.785 
L 262.64619 303.83497 
L 268.099319 300.598898 
L 272.966642 297.44695 
L 279.156808 293.048337 
L 285.037631 288.424215 
L 291.653702 282.636306 
L 297.039341 277.401222 
L 302.212354 271.859223 
L 304.071784 269.728265 
L 309.14086 263.491368 
L 314.369944 256.288225 
L 316.455086 253.154691 
L 320.655802 246.28942 
L 324.297233 239.602763 
L 326.013071 236.154793 
L 329.511713 228.358893 
L 332.291774 221.1814 
L 333.3698 218.076389 
L 335.965025 209.530309 
L 337.082575 205.182831 
L 338.737674 197.485737 
L 339.92132 190.286702 
L 340.633978 184.393972 
L 341.021168 179.948183 
L 341.385546 172.378661 
L 341.429147 168.699001 
L 341.429147 168.699001 
" clip-path="url(#p0c359245a2)" style="fill: none; stroke: #0000ff; stroke-linecap: square"/>
   </g>
   <g id="line2d_44">
    <path d="M 217.196773 168.699001 
L 217.069917 165.894777 
L 216.784349 163.65439 
L 216.170345 160.780402 
L 215.411205 158.319963 
L 214.368194 155.749109 
L 213.27285 153.588013 
L 211.886296 151.330484 
L 210.381252 149.285015 
L 208.558041 147.205342 
L 206.587185 145.322436 
L 204.608809 143.72983 
L 202.511292 142.306905 
L 200.303844 141.059296 
L 197.654971 139.854934 
L 195.193725 138.990226 
L 192.787365 138.360903 
L 190.208498 137.908714 
L 187.993937 137.696369 
L 185.412977 137.649387 
L 182.606981 137.84236 
L 180.082115 138.237169 
L 177.593523 138.839572 
L 175.327368 139.583357 
L 172.850488 140.627143 
L 170.632729 141.788581 
L 168.268673 143.296874 
L 166.16022 144.919464 
L 164.17729 146.737612 
L 164.17729 146.737612 
" clip-path="url(#p0c359245a2)" style="fill: none; stroke: #ff0000; stroke-linecap: square"/>
   </g>
   <g id="line2d_45">
    <path d="M 217.196773 168.699001 
L 217.100873 171.137797 
L 216.790509 173.706045 
L 216.213048 176.453837 
L 215.460523 178.937881 
L 214.637744 181.044384 
L 213.441051 183.503922 
L 212.046131 185.82819 
L 210.624848 187.80483 
L 208.835095 189.899894 
L 206.898709 191.799355 
L 204.952812 193.410002 
L 202.668867 194.99269 
L 200.245266 196.368648 
L 197.748352 197.505609 
L 195.50502 198.311107 
L 193.076527 198.97228 
L 190.335822 199.47219 
L 187.765271 199.714471 
L 185.289068 199.745471 
L 182.488429 199.541842 
L 179.952904 199.134857 
L 177.441208 198.514419 
L 174.986453 197.685774 
L 172.448071 196.576813 
L 169.980994 195.223224 
L 167.791946 193.75898 
L 165.880166 192.240408 
L 164.17729 190.660389 
L 164.17729 190.660389 
" clip-path="url(#p0c359245a2)" style="fill: none; stroke: #008000; stroke-linecap: square"/>
   </g>
   <g id="line2d_46">
    <path d="M 186.138679 168.699001 
L 76.331736 58.892057 
" clip-path="url(#p0c359245a2)" style="fill: none; stroke: #0000ff; stroke-width: 2; stroke-linecap: square"/>
   </g>
   <g id="line2d_47">
    <path d="M 186.138679 168.699001 
L 76.331736 278.505944 
" clip-path="url(#p0c359245a2)" style="fill: none; stroke: #0000ff; stroke-width: 2; stroke-linecap: square"/>
   </g>
   <g id="patch_3">
    <path d="M 186.138679 330.182849 
L 186.138679 7.2 
" style="fill: none; stroke: #000000; stroke-width: 0.8; stroke-linejoin: miter; stroke-linecap: square"/>
   </g>
   <g id="patch_4">
    <path d="M 24.660009 168.699001 
L 347.640307 168.699001 
" style="fill: none; stroke: #000000; stroke-width: 0.8; stroke-linejoin: miter; stroke-linecap: square"/>
   </g>
   <g id="text_9">
    <!-- $\theta$ -->
    <g transform="translate(200.206806 130.073095) scale(0.16 -0.16)">
     <defs>
      <path id="Cmmi10-b5" d="M 1031 -72 
Q 741 -72 566 140 
Q 391 353 323 653 
Q 256 953 256 1247 
L 256 1253 
Q 256 1572 317 1915 
Q 378 2259 493 2601 
Q 609 2944 744 3213 
Q 838 3400 986 3631 
Q 1134 3863 1317 4064 
Q 1500 4266 1711 4389 
Q 1922 4513 2138 4513 
L 2144 4513 
Q 2375 4513 2529 4384 
Q 2684 4256 2770 4056 
Q 2856 3856 2890 3628 
Q 2925 3400 2925 3194 
Q 2925 2709 2794 2204 
Q 2663 1700 2431 1228 
Q 2344 1050 2189 809 
Q 2034 569 1861 378 
Q 1688 188 1472 58 
Q 1256 -72 1038 -72 
L 1031 -72 
z
M 1044 97 
Q 1256 97 1451 323 
Q 1647 550 1794 873 
Q 1941 1197 2052 1536 
Q 2163 1875 2216 2113 
L 909 2113 
Q 809 1709 753 1417 
Q 697 1125 697 844 
Q 697 97 1044 97 
z
M 959 2338 
L 2272 2338 
Q 2341 2619 2381 2808 
Q 2422 2997 2450 3206 
Q 2478 3416 2478 3597 
Q 2478 4347 2138 4347 
Q 1731 4347 1436 3692 
Q 1141 3038 959 2338 
z
" transform="scale(0.015625)"/>
     </defs>
     <use xlink:href="#Cmmi10-b5" transform="translate(0 0.484375)"/>
    </g>
   </g>
   <g id="text_10">
    <!-- $-\theta$ -->
    <g transform="translate(193.966806 216.154906) scale(0.16 -0.16)">
     <defs>
      <path id="Cmsy10-a1" d="M 653 1472 
Q 600 1472 565 1512 
Q 531 1553 531 1600 
Q 531 1647 565 1687 
Q 600 1728 653 1728 
L 4325 1728 
Q 4375 1728 4408 1687 
Q 4441 1647 4441 1600 
Q 4441 1553 4408 1512 
Q 4375 1472 4325 1472 
L 653 1472 
z
" transform="scale(0.015625)"/>
     </defs>
     <use xlink:href="#Cmsy10-a1" transform="translate(0 0.484375)"/>
     <use xlink:href="#Cmmi10-b5" transform="translate(77.685547 0.484375)"/>
    </g>
   </g>
   <g id="text_11">
    <!-- $P=(x,y)$ -->
    <g transform="translate(16.4 35.440322) scale(0.16 -0.16)">
     <defs>
      <path id="Cmmi10-50" d="M 313 0 
Q 250 0 250 84 
Q 253 100 262 139 
Q 272 178 289 201 
Q 306 225 331 225 
Q 722 225 878 269 
Q 959 297 997 441 
L 1875 3956 
Q 1888 4019 1888 4044 
Q 1888 4113 1813 4122 
Q 1691 4147 1350 4147 
Q 1288 4147 1288 4231 
Q 1291 4247 1300 4286 
Q 1309 4325 1326 4348 
Q 1344 4372 1369 4372 
L 3578 4372 
Q 3881 4372 4165 4264 
Q 4450 4156 4631 3934 
Q 4813 3713 4813 3397 
Q 4813 2991 4527 2672 
Q 4241 2353 3814 2175 
Q 3388 1997 2988 1997 
L 1947 1997 
L 1556 416 
Q 1544 353 1544 325 
Q 1544 300 1551 283 
Q 1559 266 1573 261 
Q 1588 256 1619 250 
Q 1741 225 2081 225 
Q 2144 225 2144 141 
Q 2122 50 2109 25 
Q 2097 0 2034 0 
L 313 0 
z
M 1978 2188 
L 2875 2188 
Q 3497 2188 3822 2522 
Q 3988 2688 4092 3000 
Q 4197 3313 4197 3566 
Q 4197 3881 3956 4014 
Q 3716 4147 3359 4147 
L 2747 4147 
Q 2572 4147 2515 4117 
Q 2459 4088 2413 3928 
L 1978 2188 
z
" transform="scale(0.015625)"/>
      <path id="Cmr10-3d" d="M 481 850 
Q 428 850 393 890 
Q 359 931 359 978 
Q 359 1031 393 1068 
Q 428 1106 481 1106 
L 4500 1106 
Q 4547 1106 4581 1068 
Q 4616 1031 4616 978 
Q 4616 931 4581 890 
Q 4547 850 4500 850 
L 481 850 
z
M 481 2094 
Q 428 2094 393 2131 
Q 359 2169 359 2222 
Q 359 2269 393 2309 
Q 428 2350 481 2350 
L 4500 2350 
Q 4547 2350 4581 2309 
Q 4616 2269 4616 2222 
Q 4616 2169 4581 2131 
Q 4547 2094 4500 2094 
L 481 2094 
z
" transform="scale(0.015625)"/>
      <path id="Cmr10-28" d="M 1984 -1588 
Q 1628 -1306 1370 -942 
Q 1113 -578 948 -165 
Q 784 247 703 697 
Q 622 1147 622 1600 
Q 622 2059 703 2509 
Q 784 2959 951 3375 
Q 1119 3791 1378 4153 
Q 1638 4516 1984 4788 
Q 1984 4800 2016 4800 
L 2075 4800 
Q 2094 4800 2109 4783 
Q 2125 4766 2125 4744 
Q 2125 4716 2113 4703 
Q 1800 4397 1592 4047 
Q 1384 3697 1257 3301 
Q 1131 2906 1075 2482 
Q 1019 2059 1019 1600 
Q 1019 -434 2106 -1491 
Q 2125 -1509 2125 -1544 
Q 2125 -1559 2108 -1579 
Q 2091 -1600 2075 -1600 
L 2016 -1600 
Q 1984 -1600 1984 -1588 
z
" transform="scale(0.015625)"/>
      <path id="Cmmi10-78" d="M 500 184 
Q 613 97 819 97 
Q 1019 97 1172 289 
Q 1325 481 1381 709 
L 1672 1844 
Q 1741 2153 1741 2266 
Q 1741 2425 1652 2544 
Q 1563 2663 1403 2663 
Q 1200 2663 1022 2536 
Q 844 2409 722 2214 
Q 600 2019 550 1819 
Q 538 1778 500 1778 
L 422 1778 
Q 372 1778 372 1838 
L 372 1856 
Q 434 2094 584 2320 
Q 734 2547 951 2687 
Q 1169 2828 1416 2828 
Q 1650 2828 1839 2703 
Q 2028 2578 2106 2363 
Q 2216 2559 2386 2693 
Q 2556 2828 2759 2828 
Q 2897 2828 3040 2779 
Q 3184 2731 3275 2631 
Q 3366 2531 3366 2381 
Q 3366 2219 3261 2101 
Q 3156 1984 2994 1984 
Q 2891 1984 2822 2050 
Q 2753 2116 2753 2216 
Q 2753 2350 2845 2451 
Q 2938 2553 3066 2572 
Q 2950 2663 2747 2663 
Q 2541 2663 2389 2472 
Q 2238 2281 2175 2047 
L 1894 916 
Q 1825 659 1825 494 
Q 1825 331 1917 214 
Q 2009 97 2163 97 
Q 2463 97 2698 361 
Q 2934 625 3009 941 
Q 3022 978 3059 978 
L 3138 978 
Q 3163 978 3178 961 
Q 3194 944 3194 922 
Q 3194 916 3188 903 
Q 3097 522 2806 225 
Q 2516 -72 2150 -72 
Q 1916 -72 1727 54 
Q 1538 181 1459 397 
Q 1359 209 1182 68 
Q 1006 -72 806 -72 
Q 669 -72 523 -23 
Q 378 25 287 125 
Q 197 225 197 378 
Q 197 528 301 651 
Q 406 775 563 775 
Q 669 775 741 711 
Q 813 647 813 544 
Q 813 409 723 309 
Q 634 209 500 184 
z
" transform="scale(0.015625)"/>
      <path id="Cmmi10-3b" d="M 634 -1153 
Q 634 -1125 659 -1100 
Q 891 -878 1019 -587 
Q 1147 -297 1147 25 
L 1147 103 
Q 1044 0 891 0 
Q 744 0 641 103 
Q 538 206 538 353 
Q 538 503 641 603 
Q 744 703 891 703 
Q 1119 703 1216 492 
Q 1313 281 1313 25 
Q 1313 -331 1170 -651 
Q 1028 -972 769 -1228 
Q 744 -1241 728 -1241 
Q 697 -1241 665 -1212 
Q 634 -1184 634 -1153 
z
" transform="scale(0.015625)"/>
      <path id="Cmmi10-79" d="M 538 -916 
Q 672 -1147 1006 -1147 
Q 1309 -1147 1531 -934 
Q 1753 -722 1889 -420 
Q 2025 -119 2100 197 
Q 1816 -72 1484 -72 
Q 1231 -72 1053 15 
Q 875 103 776 276 
Q 678 450 678 697 
Q 678 906 734 1126 
Q 791 1347 892 1617 
Q 994 1888 1069 2088 
Q 1153 2322 1153 2472 
Q 1153 2663 1013 2663 
Q 759 2663 595 2402 
Q 431 2141 353 1819 
Q 341 1778 300 1778 
L 225 1778 
Q 172 1778 172 1838 
L 172 1856 
Q 275 2238 487 2533 
Q 700 2828 1025 2828 
Q 1253 2828 1411 2678 
Q 1569 2528 1569 2297 
Q 1569 2178 1516 2047 
Q 1488 1969 1388 1706 
Q 1288 1444 1234 1272 
Q 1181 1100 1147 934 
Q 1113 769 1113 603 
Q 1113 391 1203 244 
Q 1294 97 1491 97 
Q 1888 97 2203 581 
L 2688 2553 
Q 2709 2638 2787 2698 
Q 2866 2759 2956 2759 
Q 3034 2759 3092 2709 
Q 3150 2659 3150 2578 
Q 3150 2541 3144 2528 
L 2509 -19 
Q 2425 -347 2200 -647 
Q 1975 -947 1658 -1130 
Q 1341 -1313 997 -1313 
Q 831 -1313 668 -1248 
Q 506 -1184 406 -1056 
Q 306 -928 306 -756 
Q 306 -581 409 -453 
Q 513 -325 684 -325 
Q 788 -325 858 -389 
Q 928 -453 928 -556 
Q 928 -703 818 -812 
Q 709 -922 563 -922 
Q 556 -919 550 -917 
Q 544 -916 538 -916 
z
" transform="scale(0.015625)"/>
      <path id="Cmr10-29" d="M 416 -1600 
Q 359 -1600 359 -1544 
Q 359 -1516 372 -1503 
Q 1466 -434 1466 1600 
Q 1466 3634 384 4691 
Q 359 4706 359 4744 
Q 359 4766 376 4783 
Q 394 4800 416 4800 
L 475 4800 
Q 494 4800 506 4788 
Q 966 4425 1272 3906 
Q 1578 3388 1720 2800 
Q 1863 2213 1863 1600 
Q 1863 1147 1786 708 
Q 1709 269 1542 -157 
Q 1375 -584 1119 -945 
Q 863 -1306 506 -1588 
Q 494 -1600 475 -1600 
L 416 -1600 
z
" transform="scale(0.015625)"/>
     </defs>
     <use xlink:href="#Cmmi10-50"/>
     <use xlink:href="#Cmr10-3d" transform="translate(81.767578 0)"/>
     <use xlink:href="#Cmr10-28" transform="translate(177.011719 0)"/>
     <use xlink:href="#Cmmi10-78" transform="translate(215.830078 0)"/>
     <use xlink:href="#Cmmi10-3b" transform="translate(272.910156 0)"/>
     <use xlink:href="#Cmmi10-79" transform="translate(318.154297 0)"/>
     <use xlink:href="#Cmr10-29" transform="translate(367.177734 0)"/>
    </g>
   </g>
   <g id="text_12">
    <!-- $P'=(-x,y)$ -->
    <g transform="translate(7.2 310.19768) scale(0.16 -0.16)">
     <defs>
      <path id="Cmsy10-30" d="M 225 347 
Q 184 359 184 409 
L 966 3316 
Q 1003 3434 1093 3506 
Q 1184 3578 1300 3578 
Q 1450 3578 1564 3479 
Q 1678 3381 1678 3231 
Q 1678 3166 1644 3084 
L 488 319 
Q 466 275 428 275 
Q 394 275 320 306 
Q 247 338 225 347 
z
" transform="scale(0.015625)"/>
     </defs>
     <use xlink:href="#Cmmi10-50" transform="translate(0 0.601562)"/>
     <use xlink:href="#Cmsy10-30" transform="translate(75.578516 38.865625) scale(0.7)"/>
     <use xlink:href="#Cmr10-3d" transform="translate(118.757617 0.601562)"/>
     <use xlink:href="#Cmr10-28" transform="translate(214.001758 0.601562)"/>
     <use xlink:href="#Cmsy10-a1" transform="translate(252.820117 0.601562)"/>
     <use xlink:href="#Cmmi10-78" transform="translate(330.505664 0.601562)"/>
     <use xlink:href="#Cmmi10-3b" transform="translate(387.585742 0.601562)"/>
     <use xlink:href="#Cmmi10-79" transform="translate(432.829883 0.601562)"/>
     <use xlink:href="#Cmr10-29" transform="translate(481.85332 0.601562)"/>
    </g>
   </g>
  </g>
 </g>
 <defs>
  <clipPath id="p0c359245a2">
   <rect x="24.660009" y="7.2" width="322.980298" height="322.982849"/>
  </clipPath>
 </defs>
</svg>
