<svg xmlns="http://www.w3.org/2000/svg" xmlns:xlink="http://www.w3.org/1999/xlink" xmlns:inkscape="http://www.inkscape.org/namespaces/inkscape" version="1.1" width="294" height="31" viewBox="0 0 294 31">
<defs>
<path id="font_1_2" d="M.47099305 .3773346C.47200013 .3833313 .47399903 .38833619 .47399903 .39535523 .47399903 .41236878 .46199037 .42237855 .44499208 .42237855 .43499757 .42237855 .4079895 .41537477 .4039917 .3793335 .38598634 .41636659 .35099793 .4423828 .31098939 .4423828 .19699097 .4423828 .07299805 .30226136 .07299805 .15812683 .07299805 .059020997 .13398743 0 .20599365 0 .2649994 0 .31199647 .04701233 .32199098 .058029176L.32299806 .057022096C.3019867-.031982423 .2899933-.07295227 .2899933-.07495117 .28599549-.08395386 .2519989-.18309021 .1459961-.18309021 .1269989-.18309021 .09399414-.18206787 .06599426-.17297364 .09599304-.16394043 .10699463-.13793946 .10699463-.12094116 .10699463-.10494995 .09599304-.0859375 .068984989-.0859375 .04699707-.0859375 .01499939-.10394287 .01499939-.14395142 .01499939-.18508911 .051986696-.20507813 .147995-.20507813 .272995-.20507813 .34498597-.12693787 .3600006-.06695557L.47099305 .3773346M.34098817 .12809754C.33499146 .10206604 .31199647 .077041629 .2899933 .058029176 .2689972 .040008546 .23799134 .021987915 .20899964 .021987915 .15899658 .021987915 .14399719 .074035648 .14399719 .11407471 .14399719 .16212464 .17298889 .28024293 .19999695 .33128358 .22698975 .38034059 .269989 .42037965 .31199647 .42037965 .37799073 .42037965 .3919983 .33929444 .3919983 .33428956 .3919983 .32928468 .3899994 .3232727 .3889923 .3192749L.34098817 .12809754Z"/>
<path id="font_2_1" d="M.5159912 .31925965C.5159912 .42918397 .5029907 .50813296 .45700074 .5780945 .42599488 .62405398 .3639984 .6640625 .28399659 .6640625 .051986696 .6640625 .051986696 .39120484 .051986696 .31925965 .051986696 .2472992 .051986696-.01953125 .28399659-.01953125 .5159912-.01953125 .5159912 .2472992 .5159912 .31925965M.28399659 .008468628C.23799134 .008468628 .1769867 .035446168 .15699768 .117385867 .14299011 .17634583 .14299011 .25830079 .14299011 .33224488 .14299011 .40519715 .14299011 .4811554 .1579895 .53611758 .1789856 .6150665 .24299622 .63604739 .28399659 .63604739 .33799745 .63604739 .3899994 .6030731 .4079895 .545105 .42399598 .4911499 .4249878 .41918946 .4249878 .33224488 .4249878 .25830079 .4249878 .18434143 .4119873 .12138367 .3919983 .030441285 .32398988 .008468628 .28399659 .008468628Z"/>
<path id="font_3_1" d="M.6589966 .23046875C.6759949 .23046875 .69400027 .23046875 .69400027 .25045777 .69400027 .27046205 .6759949 .27046205 .6589966 .27046205H.117996219C.100997928 .27046205 .08299255 .27046205 .08299255 .25045777 .08299255 .23046875 .100997928 .23046875 .117996219 .23046875H.6589966Z"/>
<path id="font_4_3" d="M.2899933 .35191346C.37199403 .37893678 .42999269 .4490509 .42999269 .52809146 .42999269 .6100464 .34199525 .6660156 .24598694 .6660156 .14498902 .6660156 .068984989 .60606387 .068984989 .53009036 .068984989 .49710084 .09098816 .47808839 .11999512 .47808839 .15098572 .47808839 .17098999 .50009158 .17098999 .5290985 .17098999 .57910159 .12399292 .57910159 .10899353 .57910159 .13999939 .62802127 .20599365 .64100649 .24198914 .64100649 .2829895 .64100649 .33799745 .6190338 .33799745 .5290985 .33799745 .51708987 .33599855 .45906068 .30999757 .4149933 .27999879 .36691285 .24598694 .36390687 .22099304 .36291505 .21299744 .36190797 .18899536 .35990907 .18199158 .35990907 .17399597 .35890199 .16699219 .35791017 .16699219 .3479004 .16699219 .33691407 .17399597 .33691407 .19099427 .33691407H.23498535C.31698609 .33691407 .35398866 .2686615 .35398866 .17037964 .35398866 .034469606 .2849884 .0055389406 .24099732 .0055389406 .19799805 .0055389406 .12298584 .022491456 .08799744 .08137512 .12298584 .07637024 .1539917 .09837341 .1539917 .1363678 .1539917 .17237854 .1269989 .19238281 .09799194 .19238281 .07398987 .19238281 .041992189 .17837525 .041992189 .1343689 .041992189 .043441774 .1349945-.022460938 .24398804-.022460938 .3659973-.022460938 .45700074 .06838989 .45700074 .17037964 .45700074 .252594 .3939972 .33088685 .2899933 .35191346Z"/>
<path id="font_1_1" d="M.19198609 .052993776C.19198609 .08198547 .16799927 .10598755 .13899231 .10598755 .10998535 .10598755 .085998538 .08198547 .085998538 .052993776 .085998538 .023986817 .10998535 0 .13899231 0 .16799927 0 .19198609 .023986817 .19198609 .052993776Z"/>
<path id="font_4_5" d="M.16299439 .4569702C.116989139 .486969 .11299133 .52098086 .11299133 .5379791 .11299133 .598999 .17799378 .64100649 .24899292 .64100649 .32199098 .64100649 .38598634 .58898928 .38598634 .51698306 .38598634 .45996095 .34700013 .4119568 .2869873 .37695313L.16299439 .4569702M.30899049 .36193849C.3809967 .3989563 .42999269 .45095826 .42999269 .51698306 .42999269 .6090088 .34098817 .6660156 .25 .6660156 .1499939 .6660156 .068984989 .59199526 .068984989 .49897767 .068984989 .4809723 .070999149 .43595887 .11299133 .38894654 .12399292 .37695313 .16099549 .35194398 .18598938 .33494569 .12799073 .30592347 .041992189 .24984741 .041992189 .15072632 .041992189 .04458618 .14399719-.022460938 .24899292-.022460938 .3619995-.022460938 .45700074 .06060791 .45700074 .16773987 .45700074 .20379639 .44599916 .24885559 .4079895 .2909088 .3889923 .31193543 .37298585 .3219452 .30899049 .36193849M.20899964 .3199463 .33198548 .24183655C.3600006 .2228241 .40699769 .19277954 .40699769 .13169861 .40699769 .05760193 .33198548 .0055389406 .25 .0055389406 .1639862 .0055389406 .09199524 .067611698 .09199524 .15072632 .09199524 .20880127 .12399292 .27288819 .20899964 .3199463Z"/>
<path id="font_4_4" d="M.47599793 .609375C.4850006 .6213684 .4850006 .62338259 .4850006 .64437869H.24198914C.11999512 .64437869 .117996219 .65737918 .11399841 .67637637H.08898926L.055999757 .4702301H.08099365C.083999637 .48625184 .09298706 .5493469 .10598755 .56137087 .11299133 .5673828 .19099427 .5673828 .20399475 .5673828H.41099549C.3999939 .5513611 .32099916 .4421997 .29899598 .40914918 .20899964 .27394105 .17599488 .1347351 .17599488 .032577516 .17599488 .022567749 .17599488-.022460938 .22200012-.022460938 .2679901-.022460938 .2679901 .022567749 .2679901 .032577516V.08366394C.2679901 .13873291 .2709961 .19381714 .2789917 .24790955 .2829895 .27093507 .29699708 .35707093 .34098817 .41915895L.47599793 .609375Z"/>
<path id="font_4_2" d="M.45999146 .31976319C.45999146 .39982606 .45498658 .47988893 .41999818 .5539398 .37399293 .65000918 .2919922 .6660156 .25 .6660156 .18998719 .6660156 .116989139 .64001467 .07598877 .54693606 .04399109 .47789 .038986207 .39982606 .038986207 .31976319 .038986207 .24472046 .042999269 .15464783 .083999637 .07859802 .1269989-.0024719239 .19999695-.022460938 .24899292-.022460938 .30299378-.022460938 .3789978-.0014648438 .4229889 .09359741 .45498658 .16265869 .45999146 .2407074 .45999146 .31976319M.24899292-.00047302247C.20999146-.00047302247 .15098572 .024551392 .1329956 .12062073 .12199402 .18066406 .12199402 .2727356 .12199402 .3317871 .12199402 .39582826 .12199402 .46188355 .12998963 .5159149 .14898682 .63500979 .22399903 .64401248 .24899292 .64401248 .28199769 .64401248 .34799195 .6259918 .36698915 .52693179 .3769989 .47088624 .3769989 .39482118 .3769989 .3317871 .3769989 .25672914 .3769989 .18867493 .3659973 .12461853 .35099793 .029556275 .2939911-.00047302247 .24899292-.00047302247Z"/>
<path id="font_4_1" d="M.40899659 .23046875H.6879883C.70199587 .23046875 .72099307 .23046875 .72099307 .25045777 .72099307 .27046205 .70199587 .27046205 .6879883 .27046205H.40899659V.5500183C.40899659 .56399539 .40899659 .5830078 .3889923 .5830078 .36898805 .5830078 .36898805 .56399539 .36898805 .5500183V.27046205H.08898926C.07499695 .27046205 .055999757 .27046205 .055999757 .25045777 .055999757 .23046875 .07499695 .23046875 .08898926 .23046875H.36898805V-.05000305C.36898805-.06401062 .36898805-.08300781 .3889923-.08300781 .40899659-.08300781 .40899659-.06401062 .40899659-.05000305V.23046875Z"/>
</defs>
<path transform="matrix(1.00006,0,0,-1.00003,142.83649,16.539107)" stroke-width=".3985" stroke-linecap="butt" stroke-miterlimit="10" stroke-linejoin="miter" fill="none" stroke="#000000" d="M-138.1475 0H138.1475"/>
<path transform="matrix(-1.00006,-0,0,1.00003,4.6806948,16.539107)" d="M3.58653 0C2.52383 .19925 .797 .797-.3985 1.49438V-1.49438C.797-.797 2.52383-.19925 3.58653 0"/>
<path transform="matrix(1.00006,0,0,-1.00003,280.99229,16.539107)" d="M3.58653 0C2.52383 .19925 .797 .797-.3985 1.49438V-1.49438C.797-.797 2.52383-.19925 3.58653 0"/>
<use data-text="g" xlink:href="#font_1_2" transform="matrix(9.963197,0,0,-9.962899,288.09919,17.715142)"/>
<path transform="matrix(1.00006,0,0,-1.00003,142.83649,16.539107)" stroke-width=".3985" stroke-linecap="butt" stroke-miterlimit="10" stroke-linejoin="miter" fill="none" stroke="#000000" d="M-109.702 2.98883V-2.98883"/>
<use data-text="0" xlink:href="#font_2_1" transform="matrix(6.9742186,0,0,-6.9740097,30.892777,6.413803)"/>
<path transform="matrix(1.00006,0,0,-1.00003,142.83649,16.539107)" stroke-width=".3985" stroke-linecap="butt" stroke-miterlimit="10" stroke-linejoin="miter" fill="none" stroke="#000000" d="M0 2.98883V-2.98883"/>
<use data-text="0" xlink:href="#font_2_1" transform="matrix(6.9742186,0,0,-6.9740097,140.60135,6.413803)"/>
<path transform="matrix(1.00006,0,0,-1.00003,142.83649,16.539107)" stroke-width=".3985" stroke-linecap="butt" stroke-miterlimit="10" stroke-linejoin="miter" fill="none" stroke="#000000" d="M109.702 2.98883V-2.98883"/>
<use data-text="0" xlink:href="#font_2_1" transform="matrix(6.9742186,0,0,-6.9740097,250.30994,6.413803)"/>
<path transform="matrix(1.00006,0,0,-1.00003,142.83649,16.539107)" stroke-width=".3985" stroke-linecap="butt" stroke-miterlimit="10" stroke-linejoin="miter" fill="none" stroke="#000000" d="M-109.702 0V-2.98883"/>
<use data-text="&#x2212;" xlink:href="#font_3_1" transform="matrix(9.963197,0,0,-9.962899,20.397156,29.468495)"/>
<use data-text="3" xlink:href="#font_4_3" transform="matrix(9.963197,0,0,-9.962899,28.146607,29.468495)"/>
<use data-text="." xlink:href="#font_1_1" transform="matrix(9.963197,0,0,-9.962899,33.127916,29.468495)"/>
<use data-text="8" xlink:href="#font_4_5" transform="matrix(9.963197,0,0,-9.962899,35.896074,29.468495)"/>
<use data-text="7" xlink:href="#font_4_4" transform="matrix(9.963197,0,0,-9.962899,40.87767,29.468495)"/>
<path transform="matrix(1.00006,0,0,-1.00003,142.83649,16.539107)" stroke-width=".3985" stroke-linecap="butt" stroke-miterlimit="10" stroke-linejoin="miter" fill="none" stroke="#000000" d="M0 0V-2.98883"/>
<use data-text="0" xlink:href="#font_4_2" transform="matrix(9.963197,0,0,-9.962899,140.34534,29.468495)"/>
<path transform="matrix(1.00006,0,0,-1.00003,142.83649,16.539107)" stroke-width=".3985" stroke-linecap="butt" stroke-miterlimit="10" stroke-linejoin="miter" fill="none" stroke="#000000" d="M109.702 0V-2.98883"/>
<use data-text="3" xlink:href="#font_4_3" transform="matrix(9.963197,0,0,-9.962899,243.68854,29.468495)"/>
<use data-text="." xlink:href="#font_1_1" transform="matrix(9.963197,0,0,-9.962899,248.66983,29.468495)"/>
<use data-text="8" xlink:href="#font_4_5" transform="matrix(9.963197,0,0,-9.962899,251.438,29.468495)"/>
<use data-text="7" xlink:href="#font_4_4" transform="matrix(9.963197,0,0,-9.962899,256.41963,29.468495)"/>
<path transform="matrix(1.00006,0,0,-1.00003,142.83649,16.539107)" stroke-width=".3985" stroke-linecap="butt" stroke-miterlimit="10" stroke-linejoin="miter" fill="none" stroke="#ff0000" d=""/>
<use data-text="+" xlink:href="#font_4_1" transform="matrix(9.963197,0,0,-9.962899,82.26486,9.199886)" fill="#ff0000"/>
<path transform="matrix(1.00006,0,0,-1.00003,142.83649,16.539107)" stroke-width=".3985" stroke-linecap="butt" stroke-miterlimit="10" stroke-linejoin="miter" fill="none" stroke="#ff0000" d=""/>
<use data-text="+" xlink:href="#font_4_1" transform="matrix(9.963197,0,0,-9.962899,266.5299,9.199886)" fill="#ff0000"/>
<path transform="matrix(1.00006,0,0,-1.00003,142.83649,16.539107)" stroke-width=".3985" stroke-linecap="butt" stroke-miterlimit="10" stroke-linejoin="miter" fill="none" stroke="#ff0000" d=""/>
<use data-text="&#x2212;" xlink:href="#font_3_1" transform="matrix(9.963197,0,0,-9.962899,11.393616,9.199886)" fill="#ff0000"/>
<path transform="matrix(1.00006,0,0,-1.00003,142.83649,16.539107)" stroke-width=".3985" stroke-linecap="butt" stroke-miterlimit="10" stroke-linejoin="miter" fill="none" stroke="#ff0000" d=""/>
<use data-text="&#x2212;" xlink:href="#font_3_1" transform="matrix(9.963197,0,0,-9.962899,195.65866,9.199886)" fill="#ff0000"/>
</svg>
