<svg xmlns="http://www.w3.org/2000/svg" xmlns:xlink="http://www.w3.org/1999/xlink" xmlns:inkscape="http://www.inkscape.org/namespaces/inkscape" version="1.1" width="226" height="32" viewBox="0 0 226 32">
<defs>
<path id="font_1_1" d="M.47099305 .3773346C.47200013 .3833313 .47399903 .38833619 .47399903 .39535523 .47399903 .41236878 .46199037 .42237855 .44499208 .42237855 .43499757 .42237855 .4079895 .41537477 .4039917 .3793335 .38598634 .41636659 .35099793 .4423828 .31098939 .4423828 .19699097 .4423828 .07299805 .30226136 .07299805 .15812683 .07299805 .059020997 .13398743 0 .20599365 0 .2649994 0 .31199647 .04701233 .32199098 .058029176L.32299806 .057022096C.3019867-.031982423 .2899933-.07295227 .2899933-.07495117 .28599549-.08395386 .2519989-.18309021 .1459961-.18309021 .1269989-.18309021 .09399414-.18206787 .06599426-.17297364 .09599304-.16394043 .10699463-.13793946 .10699463-.12094116 .10699463-.10494995 .09599304-.0859375 .068984989-.0859375 .04699707-.0859375 .01499939-.10394287 .01499939-.14395142 .01499939-.18508911 .051986696-.20507813 .147995-.20507813 .272995-.20507813 .34498597-.12693787 .3600006-.06695557L.47099305 .3773346M.34098817 .12809754C.33499146 .10206604 .31199647 .077041629 .2899933 .058029176 .2689972 .040008546 .23799134 .021987915 .20899964 .021987915 .15899658 .021987915 .14399719 .074035648 .14399719 .11407471 .14399719 .16212464 .17298889 .28024293 .19999695 .33128358 .22698975 .38034059 .269989 .42037965 .31199647 .42037965 .37799073 .42037965 .3919983 .33929444 .3919983 .33428956 .3919983 .32928468 .3899994 .3232727 .3889923 .3192749L.34098817 .12809754Z"/>
<path id="font_2_1" d="M.2899933 .4720459C.2979889 .4890442 .29899598 .49705506 .29899598 .5040436 .29899598 .53504946 .2709961 .5590515 .23999024 .5590515 .20199585 .5590515 .18998719 .52804568 .18499756 .51205447L.052993776 .07901001C.051986696 .07701111 .04798889 .06401062 .04798889 .06300354 .04798889 .05101013 .07899475 .041015626 .08699036 .041015626 .09399414 .041015626 .09498596 .043014528 .101989749 .058013917L.2899933 .4720459Z"/>
<path id="font_3_1" d="M.6589966 .23046875C.6759949 .23046875 .69400027 .23046875 .69400027 .25045777 .69400027 .27046205 .6759949 .27046205 .6589966 .27046205H.117996219C.100997928 .27046205 .08299255 .27046205 .08299255 .25045777 .08299255 .23046875 .100997928 .23046875 .117996219 .23046875H.6589966Z"/>
<path id="font_4_3" d="M.2899933 .35191346C.37199403 .37893678 .42999269 .4490509 .42999269 .52809146 .42999269 .6100464 .34199525 .6660156 .24598694 .6660156 .14498902 .6660156 .068984989 .60606387 .068984989 .53009036 .068984989 .49710084 .09098816 .47808839 .11999512 .47808839 .15098572 .47808839 .17098999 .50009158 .17098999 .5290985 .17098999 .57910159 .12399292 .57910159 .10899353 .57910159 .13999939 .62802127 .20599365 .64100649 .24198914 .64100649 .2829895 .64100649 .33799745 .6190338 .33799745 .5290985 .33799745 .51708987 .33599855 .45906068 .30999757 .4149933 .27999879 .36691285 .24598694 .36390687 .22099304 .36291505 .21299744 .36190797 .18899536 .35990907 .18199158 .35990907 .17399597 .35890199 .16699219 .35791017 .16699219 .3479004 .16699219 .33691407 .17399597 .33691407 .19099427 .33691407H.23498535C.31698609 .33691407 .35398866 .2686615 .35398866 .17037964 .35398866 .034469606 .2849884 .0055389406 .24099732 .0055389406 .19799805 .0055389406 .12298584 .022491456 .08799744 .08137512 .12298584 .07637024 .1539917 .09837341 .1539917 .1363678 .1539917 .17237854 .1269989 .19238281 .09799194 .19238281 .07398987 .19238281 .041992189 .17837525 .041992189 .1343689 .041992189 .043441774 .1349945-.022460938 .24398804-.022460938 .3659973-.022460938 .45700074 .06838989 .45700074 .17037964 .45700074 .252594 .3939972 .33088685 .2899933 .35191346Z"/>
<path id="font_4_2" d="M.1269989 .07699585 .23298645 .18003845C.3889923 .31811524 .44898988 .3721466 .44898988 .47216798 .44898988 .5860901 .35899354 .6660156 .23699951 .6660156 .12399292 .6660156 .049987794 .57411196 .049987794 .48516847 .049987794 .4291687 .099990848 .4291687 .102996829 .4291687 .11999512 .4291687 .15499878 .44117738 .15499878 .48217774 .15499878 .5081787 .13699341 .5341797 .101989749 .5341797 .09399414 .5341797 .09199524 .5341797 .08898926 .5331726 .11199951 .59806826 .1659851 .63500979 .22399903 .63500979 .31498719 .63500979 .35798646 .5541382 .35798646 .47216798 .35798646 .39215089 .30799867 .31311036 .25299073 .25108338L.06098938 .036987306C.049987794 .025985718 .049987794 .023986817 .049987794 0H.42099L.44898988 .17404175H.42399598C.4189911 .14402771 .4119873 .1000061 .4019928 .084991458 .394989 .07699585 .32899476 .07699585 .30699159 .07699585H.1269989Z"/>
<path id="font_4_4" d="M.47599793 .609375C.4850006 .6213684 .4850006 .62338259 .4850006 .64437869H.24198914C.11999512 .64437869 .117996219 .65737918 .11399841 .67637637H.08898926L.055999757 .4702301H.08099365C.083999637 .48625184 .09298706 .5493469 .10598755 .56137087 .11299133 .5673828 .19099427 .5673828 .20399475 .5673828H.41099549C.3999939 .5513611 .32099916 .4421997 .29899598 .40914918 .20899964 .27394105 .17599488 .1347351 .17599488 .032577516 .17599488 .022567749 .17599488-.022460938 .22200012-.022460938 .2679901-.022460938 .2679901 .022567749 .2679901 .032577516V.08366394C.2679901 .13873291 .2709961 .19381714 .2789917 .24790955 .2829895 .27093507 .29699708 .35707093 .34098817 .41915895L.47599793 .609375Z"/>
<path id="font_5_1" d="M.5159912 .31925965C.5159912 .42918397 .5029907 .50813296 .45700074 .5780945 .42599488 .62405398 .3639984 .6640625 .28399659 .6640625 .051986696 .6640625 .051986696 .39120484 .051986696 .31925965 .051986696 .2472992 .051986696-.01953125 .28399659-.01953125 .5159912-.01953125 .5159912 .2472992 .5159912 .31925965M.28399659 .008468628C.23799134 .008468628 .1769867 .035446168 .15699768 .117385867 .14299011 .17634583 .14299011 .25830079 .14299011 .33224488 .14299011 .40519715 .14299011 .4811554 .1579895 .53611758 .1789856 .6150665 .24299622 .63604739 .28399659 .63604739 .33799745 .63604739 .3899994 .6030731 .4079895 .545105 .42399598 .4911499 .4249878 .41918946 .4249878 .33224488 .4249878 .25830079 .4249878 .18434143 .4119873 .12138367 .3919983 .030441285 .32398988 .008468628 .28399659 .008468628Z"/>
<path id="font_6_46" d="M.78900149 .33580018C.78900149 .52568057 .6380005 .6826172 .45199586 .6826172H.057998659V.64660647H.08198547C.15899658 .64660647 .16099549 .63661196 .16099549 .6016388V.080963138C.16099549 .04698181 .15899658 .035995485 .08198547 .035995485H.057998659V0H.45199586C.6359863 0 .78900149 .1479187 .78900149 .33580018M.6859894 .33580018C.6859894 .21987915 .6569977 .15991211 .621994 .11793518 .57699587 .066970828 .5049896 .035995485 .4249878 .035995485H.2999878C.25299073 .035614015 .2519989 .04360962 .2519989 .07461548V.607605C.2519989 .63861086 .25299073 .64660647 .2999878 .64660647H.42399598C.5089874 .64660647 .58299258 .6116028 .6289978 .5526123 .66999819 .49861146 .6859894 .42260743 .6859894 .3356018V.33580018Z"/>
<path id="font_6_76" d="M.7859955 .64660647V.6826172C.7449951 .6796112 .7049866 .6786041 .6639862 .6786041 .6230011 .6786041 .58299258 .6796112 .5419922 .6826172V.64660647C.644989 .64660647 .644989 .6016388 .644989 .57466128V.15092469L.26098634 .66760256C.25 .6816101 .24899292 .6826172 .22898865 .6826172H.055999757V.64660647H.085998538C.1289978 .64660647 .1539917 .6416168 .15899658 .64060977V.107940677C.15899658 .080963138 .15899658 .035995485 .055999757 .035995485V0C.09700012 .0029907227 .13699341 .0039978029 .17799378 .0039978029 .21899414 .0039978029 .25898744 .0029907227 .2999878 0V.035995485C.19699097 .035995485 .19699097 .080963138 .19699097 .107940677V.6126251L.6409912 .01499939C.651001 .0009918213 .6519928 0 .6639862 0 .68299868 0 .68299868 .008987427 .68299868 .027999878V.57466128C.68299868 .6016388 .68299868 .64660647 .7859955 .64660647Z"/>
<path id="font_6_49" d="M.7279968 .26296998H.69400027C.66799929 .11198425 .644989 .035995485 .45999146 .035995485H.3019867C.25498963 .035995485 .2539978 .04399109 .2539978 .07498169V.33496095H.35499574C.45599366 .33496095 .47099305 .30496217 .47099305 .2179718H.5049896V.48783876H.47099305C.47099305 .40092469 .45599366 .37095643 .35499574 .37095643H.2539978V.6037445C.2539978 .6347046 .25498963 .6427002 .3019867 .6427002H.45199586C.6159973 .6427002 .644989 .58872988 .6629944 .4487915H.69699099L.6669922 .67871096H.055999757V.6427002H.07998657C.15699768 .6427002 .15899658 .6327057 .15899658 .59773257V.08097839C.15899658 .04698181 .15699768 .035995485 .07998657 .035995485H.055999757V0H.68299868L.7279968 .26296998Z"/>
<path id="font_4_1" d="M.40899659 .23046875H.6879883C.70199587 .23046875 .72099307 .23046875 .72099307 .25045777 .72099307 .27046205 .70199587 .27046205 .6879883 .27046205H.40899659V.5500183C.40899659 .56399539 .40899659 .5830078 .3889923 .5830078 .36898805 .5830078 .36898805 .56399539 .36898805 .5500183V.27046205H.08898926C.07499695 .27046205 .055999757 .27046205 .055999757 .25045777 .055999757 .23046875 .07499695 .23046875 .08898926 .23046875H.36898805V-.05000305C.36898805-.06401062 .36898805-.08300781 .3889923-.08300781 .40899659-.08300781 .40899659-.06401062 .40899659-.05000305V.23046875Z"/>
</defs>
<path transform="matrix(1.00002,0,0,-1.00003,71.96309,16.808114)" stroke-width=".3985" stroke-linecap="butt" stroke-miterlimit="10" stroke-linejoin="miter" fill="none" stroke="#000000" d="M-67.28047 0H138.1475"/>
<path transform="matrix(-1.00002,-0,0,1.00003,4.681267,16.808114)" d="M3.58653 0C2.52383 .19925 .797 .797-.3985 1.49438V-1.49438C.797-.797 2.52383-.19925 3.58653 0"/>
<path transform="matrix(1.00002,0,0,-1.00003,210.11336,16.808114)" d="M3.58653 0C2.52383 .19925 .797 .797-.3985 1.49438V-1.49438C.797-.797 2.52383-.19925 3.58653 0"/>
<use data-text="g" xlink:href="#font_1_1" transform="matrix(9.962799,0,0,-9.962899,217.22,19.584197)"/>
<use data-text="&#x2032;" xlink:href="#font_2_1" transform="matrix(6.97394,0,0,-6.9740097,222.3291,15.968087)"/>
<path transform="matrix(1.00002,0,0,-1.00003,71.96309,16.808114)" stroke-width=".3985" stroke-linecap="butt" stroke-miterlimit="10" stroke-linejoin="miter" fill="none" stroke="#000000" d="M-42.5202 2.98883V-2.98883"/>
<path transform="matrix(1.00002,0,0,-1.00003,71.96309,16.808114)" stroke-width=".3985" stroke-linecap="butt" stroke-miterlimit="10" stroke-linejoin="miter" fill="none" stroke="#000000" d="M28.3468 2.98883V-2.98883"/>
<path transform="matrix(1.00002,0,0,-1.00003,71.96309,16.808114)" stroke-width=".3985" stroke-linecap="butt" stroke-miterlimit="10" stroke-linejoin="miter" fill="none" stroke="#000000" d="M99.21382 2.98883V-2.98883"/>
<path transform="matrix(1.00002,0,0,-1.00003,71.96309,16.808114)" stroke-width=".3985" stroke-linecap="butt" stroke-miterlimit="10" stroke-linejoin="miter" fill="none" stroke="#000000" d="M-42.5202 0V-2.98883"/>
<use data-text="&#x2212;" xlink:href="#font_3_1" transform="matrix(9.962799,0,0,-9.962899,23.077118,29.737502)"/>
<use data-text="3" xlink:href="#font_4_3" transform="matrix(9.962799,0,0,-9.962899,30.826264,29.737502)"/>
<path transform="matrix(1.00002,0,0,-1.00003,71.96309,16.808114)" stroke-width=".3985" stroke-linecap="butt" stroke-miterlimit="10" stroke-linejoin="miter" fill="none" stroke="#000000" d="M28.3468 0V-2.98883"/>
<use data-text="2" xlink:href="#font_4_2" transform="matrix(9.962799,0,0,-9.962899,97.81961,29.737502)"/>
<path transform="matrix(1.00002,0,0,-1.00003,71.96309,16.808114)" stroke-width=".3985" stroke-linecap="butt" stroke-miterlimit="10" stroke-linejoin="miter" fill="none" stroke="#000000" d="M99.21382 0V-2.98883"/>
<use data-text="7" xlink:href="#font_4_4" transform="matrix(9.962799,0,0,-9.962899,168.68802,29.737502)"/>
<path transform="matrix(1.00002,0,0,-1.00003,71.96309,16.808114)" stroke-width=".3985" stroke-linecap="butt" stroke-miterlimit="10" stroke-linejoin="miter" fill="none" stroke="#000000" d=""/>
<use data-text="0" xlink:href="#font_5_1" transform="matrix(6.97394,0,0,-6.9740097,27.207192,6.682809)"/>
<path transform="matrix(1.00002,0,0,-1.00003,71.96309,16.808114)" stroke-width=".3985" stroke-linecap="butt" stroke-miterlimit="10" stroke-linejoin="miter" fill="none" stroke="#000000" d=""/>
<use data-text="0" xlink:href="#font_5_1" transform="matrix(6.97394,0,0,-6.9740097,168.94403,6.682809)"/>
<path transform="matrix(1.00002,0,0,-1.00003,71.96309,16.808114)" stroke-width=".3985" stroke-linecap="butt" stroke-miterlimit="10" stroke-linejoin="miter" fill="none" stroke="#000000" d=""/>
<use data-text="D" xlink:href="#font_6_46" transform="matrix(6.97394,0,0,-6.9740097,91.44448,6.682809)"/>
<use data-text="N" xlink:href="#font_6_76" transform="matrix(6.97394,0,0,-6.9740097,97.442058,6.682809)"/>
<use data-text="E" xlink:href="#font_6_49" transform="matrix(6.97394,0,0,-6.9740097,103.32108,6.682809)"/>
<path transform="matrix(1.00002,0,0,-1.00003,71.96309,16.808114)" stroke-width=".3985" stroke-linecap="butt" stroke-miterlimit="10" stroke-linejoin="miter" fill="none" stroke="#ff0000" d=""/>
<use data-text="+" xlink:href="#font_4_1" transform="matrix(9.962799,0,0,-9.962899,11.393875,9.468893)" fill="#ff0000"/>
<path transform="matrix(1.00002,0,0,-1.00003,71.96309,16.808114)" stroke-width=".3985" stroke-linecap="butt" stroke-miterlimit="10" stroke-linejoin="miter" fill="none" stroke="#ff0000" d=""/>
<use data-text="+" xlink:href="#font_4_1" transform="matrix(9.962799,0,0,-9.962899,195.65157,9.468893)" fill="#ff0000"/>
<path transform="matrix(1.00002,0,0,-1.00003,71.96309,16.808114)" stroke-width=".3985" stroke-linecap="butt" stroke-miterlimit="10" stroke-linejoin="miter" fill="none" stroke="#ff0000" d=""/>
<use data-text="&#x2212;" xlink:href="#font_3_1" transform="matrix(9.962799,0,0,-9.962899,68.08901,9.468893)" fill="#ff0000"/>
<path transform="matrix(1.00002,0,0,-1.00003,71.96309,16.808114)" stroke-width=".3985" stroke-linecap="butt" stroke-miterlimit="10" stroke-linejoin="miter" fill="none" stroke="#ff0000" d=""/>
<use data-text="&#x2212;" xlink:href="#font_3_1" transform="matrix(9.962799,0,0,-9.962899,138.95743,9.468893)" fill="#ff0000"/>
</svg>
