<svg xmlns="http://www.w3.org/2000/svg" xmlns:xlink="http://www.w3.org/1999/xlink" xmlns:inkscape="http://www.inkscape.org/namespaces/inkscape" version="1.1" width="204" height="177" viewBox="0 0 204 177">
<defs>
<path id="font_1_1" d="M.6589966 .23046875C.6759949 .23046875 .69400027 .23046875 .69400027 .25045777 .69400027 .27046205 .6759949 .27046205 .6589966 .27046205H.117996219C.100997928 .27046205 .08299255 .27046205 .08299255 .25045777 .08299255 .23046875 .100997928 .23046875 .117996219 .23046875H.6589966Z"/>
<path id="font_2_4" d="M.2899933 .35191346C.37199403 .37893678 .42999269 .4490509 .42999269 .52809146 .42999269 .6100464 .34199525 .6660156 .24598694 .6660156 .14498902 .6660156 .068984989 .60606387 .068984989 .53009036 .068984989 .49710084 .09098816 .47808839 .11999512 .47808839 .15098572 .47808839 .17098999 .50009158 .17098999 .5290985 .17098999 .57910159 .12399292 .57910159 .10899353 .57910159 .13999939 .62802127 .20599365 .64100649 .24198914 .64100649 .2829895 .64100649 .33799745 .6190338 .33799745 .5290985 .33799745 .51708987 .33599855 .45906068 .30999757 .4149933 .27999879 .36691285 .24598694 .36390687 .22099304 .36291505 .21299744 .36190797 .18899536 .35990907 .18199158 .35990907 .17399597 .35890199 .16699219 .35791017 .16699219 .3479004 .16699219 .33691407 .17399597 .33691407 .19099427 .33691407H.23498535C.31698609 .33691407 .35398866 .2686615 .35398866 .17037964 .35398866 .034469606 .2849884 .0055389406 .24099732 .0055389406 .19799805 .0055389406 .12298584 .022491456 .08799744 .08137512 .12298584 .07637024 .1539917 .09837341 .1539917 .1363678 .1539917 .17237854 .1269989 .19238281 .09799194 .19238281 .07398987 .19238281 .041992189 .17837525 .041992189 .1343689 .041992189 .043441774 .1349945-.022460938 .24398804-.022460938 .3659973-.022460938 .45700074 .06838989 .45700074 .17037964 .45700074 .252594 .3939972 .33088685 .2899933 .35191346Z"/>
<path id="font_2_3" d="M.1269989 .07699585 .23298645 .18003845C.3889923 .31811524 .44898988 .3721466 .44898988 .47216798 .44898988 .5860901 .35899354 .6660156 .23699951 .6660156 .12399292 .6660156 .049987794 .57411196 .049987794 .48516847 .049987794 .4291687 .099990848 .4291687 .102996829 .4291687 .11999512 .4291687 .15499878 .44117738 .15499878 .48217774 .15499878 .5081787 .13699341 .5341797 .101989749 .5341797 .09399414 .5341797 .09199524 .5341797 .08898926 .5331726 .11199951 .59806826 .1659851 .63500979 .22399903 .63500979 .31498719 .63500979 .35798646 .5541382 .35798646 .47216798 .35798646 .39215089 .30799867 .31311036 .25299073 .25108338L.06098938 .036987306C.049987794 .025985718 .049987794 .023986817 .049987794 0H.42099L.44898988 .17404175H.42399598C.4189911 .14402771 .4119873 .1000061 .4019928 .084991458 .394989 .07699585 .32899476 .07699585 .30699159 .07699585H.1269989Z"/>
<path id="font_2_2" d="M.2939911 .64004519C.2939911 .66400149 .2939911 .6660156 .2709961 .6660156 .20899964 .60227969 .12098694 .60227969 .08898926 .60227969V.57128909C.10899353 .57128909 .16799927 .57128909 .21998596 .5972748V.07902527C.21998596 .042999269 .21699524 .0309906 .1269989 .0309906H.09498596V0C.12998963 .0029907227 .21699524 .0029907227 .25698854 .0029907227 .29699708 .0029907227 .38398744 .0029907227 .4189911 0V.0309906H.3869934C.29699708 .0309906 .2939911 .041992189 .2939911 .07902527V.64004519Z"/>
<path id="font_2_5" d="M.44898988 .20022583C.44898988 .3193512 .36698915 .41944886 .25898744 .41944886 .21099854 .41944886 .16799927 .40345765 .13198853 .36842347V.5637665C.1519928 .5577698 .18499756 .55078127 .21699524 .55078127 .33999635 .55078127 .4099884 .6417694 .4099884 .6547699 .4099884 .6607666 .40699769 .6657715 .3999939 .6657715 .39898683 .6657715 .39698792 .6657715 .3919983 .66278079 .37199403 .6537781 .32299806 .6337738 .2559967 .6337738 .21598816 .6337738 .16999817 .6407776 .12298584 .6617737 .114990238 .66477969 .11299133 .66477969 .11099243 .66477969 .100997928 .66477969 .100997928 .6567688 .100997928 .6407776V.34439088C.100997928 .32637025 .100997928 .31835938 .114990238 .31835938 .12199402 .31835938 .12399292 .32136537 .12799073 .32736207 .13899231 .3433838 .17599488 .39746095 .25698854 .39746095 .30899049 .39746095 .33399964 .35139466 .34199525 .33337403 .35798646 .29632569 .3600006 .25727845 .3600006 .20722962 .3600006 .17222595 .3600006 .11222839 .33599855 .07035828 .31199647 .031463624 .2749939 .0055389406 .22898865 .0055389406 .1559906 .0055389406 .09899902 .058380128 .08198547 .11723328 .084991458 .1162262 .08799744 .115234378 .09899902 .115234378 .13198853 .115234378 .14898682 .14022827 .14898682 .16423035 .14898682 .18823242 .13198853 .21322632 .09899902 .21322632 .084991458 .21322632 .049987794 .20622254 .049987794 .16023255 .049987794 .07434082 .11898804-.022460938 .23098755-.022460938 .34700013-.022460938 .44898988 .073349 .44898988 .20022583Z"/>
<path id="font_2_1" d="M.45999146 .31976319C.45999146 .39982606 .45498658 .47988893 .41999818 .5539398 .37399293 .65000918 .2919922 .6660156 .25 .6660156 .18998719 .6660156 .116989139 .64001467 .07598877 .54693606 .04399109 .47789 .038986207 .39982606 .038986207 .31976319 .038986207 .24472046 .042999269 .15464783 .083999637 .07859802 .1269989-.0024719239 .19999695-.022460938 .24899292-.022460938 .30299378-.022460938 .3789978-.0014648438 .4229889 .09359741 .45498658 .16265869 .45999146 .2407074 .45999146 .31976319M.24899292-.00047302247C.20999146-.00047302247 .15098572 .024551392 .1329956 .12062073 .12199402 .18066406 .12199402 .2727356 .12199402 .3317871 .12199402 .39582826 .12199402 .46188355 .12998963 .5159149 .14898682 .63500979 .22399903 .64401248 .24899292 .64401248 .28199769 .64401248 .34799195 .6259918 .36698915 .52693179 .3769989 .47088624 .3769989 .39482118 .3769989 .3317871 .3769989 .25672914 .3769989 .18867493 .3659973 .12461853 .35099793 .029556275 .2939911-.00047302247 .24899292-.00047302247Z"/>
<clipPath id="clip_3">
<path transform="matrix(1.00003,0,0,-1.00003,6.582779,163.19841)" d="M0 0H194.27216V161.39604H0Z"/>
</clipPath>
<path id="font_4_2" d="M.48599244 .38136292C.48999024 .39537049 .48999024 .39736939 .48999024 .40437318 .48999024 .42237855 .47599793 .43138124 .46099855 .43138124 .45098878 .43138124 .43499757 .42536927 .42599488 .41036988 .42399598 .405365 .41600038 .37435914 .4119873 .35635377 .40499879 .33035279 .397995 .30334474 .3919983 .27633668L.34700013 .09628296C.34298707 .08126831 .2999878 .011245728 .23399353 .011245728 .18299866 .011245728 .17199707 .055267335 .17199707 .0922699 .17199707 .1382904 .18899536 .20030213 .22299195 .28833009 .23899842 .3293457 .24299622 .3403473 .24299622 .36035157 .24299622 .405365 .21099854 .4423828 .16099549 .4423828 .06599426 .4423828 .0289917 .29733277 .0289917 .28833009 .0289917 .27833558 .038986207 .27833558 .040985109 .27833558 .050994874 .27833558 .051986696 .28033448 .056991579 .29634095 .083999637 .3903656 .12399292 .42037965 .1579895 .42037965 .1659851 .42037965 .18299866 .42037965 .18299866 .3883667 .18299866 .36335755 .17298889 .3373413 .1659851 .31834413 .12599182 .21231079 .10798645 .1552887 .10798645 .10827637 .10798645 .019256592 .17098999-.0107421879 .22999573-.0107421879 .2689972-.0107421879 .30299378 .0062561037 .33099366 .03425598 .31799317-.017745972 .30599977-.06674194 .2659912-.11973572 .23999024-.15385437 .20199585-.18309021 .1559906-.18309021 .14199829-.18309021 .09700012-.18005371 .07998657-.14074707 .09599304-.14074707 .10899353-.14074707 .12298584-.1287384 .1329956-.11973572 .14299011-.10673523 .14299011-.08773804 .14299011-.056747438 .115997318-.052734376 .10598755-.052734376 .08299255-.052734376 .049987794-.068740848 .049987794-.11773682 .049987794-.16796875 .09399414-.20507813 .1559906-.20507813 .25898744-.20507813 .3619995-.11373901 .3899994-.00074768069L.48599244 .38136292Z"/>
<path id="font_2_6" d="M.68699648 .32714845C.70199587 .32714845 .72099307 .32714845 .72099307 .34713746 .72099307 .36714173 .70199587 .36714173 .6879883 .36714173H.08898926C.07499695 .36714173 .055999757 .36714173 .055999757 .34713746 .055999757 .32714845 .07499695 .32714845 .08999634 .32714845H.68699648M.6879883 .13284302C.70199587 .13284302 .72099307 .13284302 .72099307 .15284729 .72099307 .17285156 .70199587 .17285156 .68699648 .17285156H.08999634C.07499695 .17285156 .055999757 .17285156 .055999757 .15284729 .055999757 .13284302 .07499695 .13284302 .08898926 .13284302H.6879883Z"/>
<path id="font_5_1" d="M.24899292 .10601807C.23899842 .072021488 .20599365 .018234253 .15499878 .018234253 .1519928 .018234253 .12199402 .018234253 .100997928 .03215027 .14199829 .04508972 .14498902 .08100891 .14498902 .087020877 .14498902 .10900879 .12799073 .12402344 .10499573 .12402344 .07699585 .12402344 .04798889 .10002136 .04798889 .0630188 .04798889 .01322937 .10398865-.009765625 .15299988-.009765625 .19898987-.009765625 .23999024 .019226075 .2649994 .061019899 .2889862 .008224487 .34399415-.009765625 .38398744-.009765625 .49899293-.009765625 .55999758 .11502075 .55999758 .14305115 .55999758 .15608216 .5469971 .15608216 .5439911 .15608216 .5299988 .15608216 .5289917 .15107727 .5249939 .13905335 .5039978 .07002258 .44400025 .018234253 .3880005 .018234253 .34799195 .018234253 .32699586 .04508972 .32699586 .08302307 .32699586 .10900879 .35099793 .20018006 .3789978 .31140138 .39898683 .38841249 .44400025 .4133911 .47698976 .4133911 .47898866 .4133911 .5099945 .4133911 .5309906 .39941407 .49899293 .39041139 .4869995 .3624115 .4869995 .34440614 .4869995 .32240296 .5039978 .30740357 .5269928 .30740357 .5499878 .30740357 .58299258 .32640077 .58299258 .3684082 .58299258 .4243927 .5189972 .44140626 .47898866 .44140626 .42900086 .44140626 .3889923 .4084015 .36698915 .3704071 .34899903 .4113922 .30299378 .44140626 .24699402 .44140626 .1349945 .44140626 .070999149 .31840516 .070999149 .2883606 .070999149 .27534486 .084991458 .27534486 .08799744 .27534486 .100997928 .27534486 .101989749 .27934266 .10699463 .29237367 .13198853 .3704071 .19499207 .4133911 .24398804 .4133911 .2769928 .4133911 .3039856 .395401 .3039856 .3474121 .3039856 .32740785 .2919922 .27734376 .2829895 .24327088L.24899292 .10601807Z"/>
<path id="font_4_1" d="M.33399964 .30233766C.33999635 .32835389 .36299134 .42037965 .43299867 .42037965 .43798829 .42037965 .46199037 .42037965 .48298646 .40734864 .45498658 .402359 .43499757 .37734986 .43499757 .35334779 .43499757 .33735658 .44599916 .31835938 .47299195 .31835938 .49499513 .31835938 .5269928 .3363495 .5269928 .37635804 .5269928 .42837525 .46798707 .4423828 .43399049 .4423828 .37599183 .4423828 .34098817 .38935853 .32899476 .36634828 .3039856 .43237306 .25 .4423828 .22099304 .4423828 .116989139 .4423828 .05999756 .3133545 .05999756 .28834535 .05999756 .27833558 .069992069 .27833558 .07199097 .27833558 .07998657 .27833558 .08299255 .28033448 .084991458 .28933717 .11898804 .39535523 .18499756 .42037965 .21899414 .42037965 .23799134 .42037965 .272995 .4113617 .272995 .35334779 .272995 .32235719 .2559967 .25532533 .21899414 .11528015 .20298767 .053268434 .16799927 .011245728 .12399292 .011245728 .117996219 .011245728 .09498596 .011245728 .07398987 .024276734 .09899902 .029266358 .12098694 .05027771 .12098694 .07827759 .12098694 .105270389 .09899902 .11328125 .083999637 .11328125 .053985597 .11328125 .0289917 .08728027 .0289917 .055267335 .0289917 .009246826 .07899475-.0107421879 .12298584-.0107421879 .18899536-.0107421879 .22499085 .059280397 .22799683 .0652771 .23999024 .028274537 .27598573-.0107421879 .33599855-.0107421879 .43899537-.0107421879 .49598695 .118270877 .49598695 .14328003 .49598695 .1532898 .4869995 .1532898 .48399354 .1532898 .47499085 .1532898 .47299195 .14929199 .47099305 .14228821 .43798829 .03527832 .36999513 .011245728 .33799745 .011245728 .29899598 .011245728 .2829895 .043273927 .2829895 .07727051 .2829895 .09927368 .2889862 .121276859 .2999878 .16529846L.33399964 .30233766Z"/>
</defs>
<path transform="matrix(1.00003,0,0,-1.00003,6.582779,163.19841)" stroke-width=".19925" stroke-linecap="butt" stroke-miterlimit="10" stroke-linejoin="miter" fill="none" stroke="#7f807f" d="M0-2.12569V2.12569M32.3787-2.12569V2.12569M64.75739-2.12569V2.12569M129.51477-2.12569V2.12569M161.89347-2.12569V2.12569M194.27216-2.12569V2.12569"/>
<path transform="matrix(1.00003,0,0,-1.00003,6.582779,163.19841)" stroke-width=".19925" stroke-linecap="butt" stroke-miterlimit="10" stroke-linejoin="miter" fill="none" stroke="#7f807f" d="M95.01018 47.22067H99.26195M95.01018 94.79373H99.26195M95.01018 142.3668H99.26195"/>
<path transform="matrix(1.00003,0,0,-1.00003,6.582779,163.19841)" stroke-width=".3985" stroke-linecap="butt" stroke-miterlimit="10" stroke-linejoin="miter" fill="none" stroke="#000000" d="M0 0H192.27964"/>
<path transform="matrix(1.00003,0,0,-1.00003,198.8682,163.19841)" d="M1.99252 0-1.19551 1.59401 0 0-1.19551-1.59401"/>
<path transform="matrix(1.00003,0,0,-1.00003,6.582779,163.19841)" stroke-width=".3985" stroke-linecap="butt" stroke-miterlimit="10" stroke-linejoin="miter" fill="none" stroke="#000000" d="M97.13608 0V159.40352"/>
<path transform="matrix(0,-1.00003,-1.00003,-0,103.72177,3.7901)" d="M1.99252 0-1.19551 1.59401 0 0-1.19551-1.59401"/>
<use data-text="&#x2212;" xlink:href="#font_1_1" transform="matrix(9.962899,0,0,-9.962899,.21759033,175.26477)"/>
<use data-text="3" xlink:href="#font_2_4" transform="matrix(9.962899,0,0,-9.962899,7.96682,175.26477)"/>
<use data-text="&#x2212;" xlink:href="#font_1_1" transform="matrix(9.962899,0,0,-9.962899,32.597566,175.26477)"/>
<use data-text="2" xlink:href="#font_2_3" transform="matrix(9.962899,0,0,-9.962899,40.346796,175.26477)"/>
<use data-text="&#x2212;" xlink:href="#font_1_1" transform="matrix(9.962899,0,0,-9.962899,64.97653,175.26477)"/>
<use data-text="1" xlink:href="#font_2_2" transform="matrix(9.962899,0,0,-9.962899,72.72576,175.26477)"/>
<use data-text="1" xlink:href="#font_2_2" transform="matrix(9.962899,0,0,-9.962899,133.6106,175.26477)"/>
<use data-text="2" xlink:href="#font_2_3" transform="matrix(9.962899,0,0,-9.962899,165.99057,175.26477)"/>
<use data-text="3" xlink:href="#font_2_4" transform="matrix(9.962899,0,0,-9.962899,198.36956,175.26477)"/>
<use data-text="5" xlink:href="#font_2_5" transform="matrix(9.962899,0,0,-9.962899,93.09438,119.18709)"/>
<use data-text="1" xlink:href="#font_2_2" transform="matrix(9.962899,0,0,-9.962899,88.11323,71.61166)"/>
<use data-text="0" xlink:href="#font_2_1" transform="matrix(9.962899,0,0,-9.962899,93.09467,71.61166)"/>
<use data-text="1" xlink:href="#font_2_2" transform="matrix(9.962899,0,0,-9.962899,88.11323,24.037232)"/>
<use data-text="5" xlink:href="#font_2_5" transform="matrix(9.962899,0,0,-9.962899,93.09467,24.037232)"/>
<g clip-path="url(#clip_3)">
<path transform="matrix(1.00003,0,0,-1.00003,6.582779,163.19841)" stroke-width="1.59404" stroke-linecap="butt" stroke-miterlimit="10" stroke-linejoin="miter" fill="none" stroke="#0000ff" d="M0 .83693 .78018 .8571 1.5604 .87718 2.3406 .89801 3.12082 .91893 3.90103 .94092 4.68124 .9628 5.46146 .98459 6.24165 1.00754 7.02187 1.03026 7.80208 1.05312 8.58229 1.07689 9.3625 1.10077 10.1427 1.1255 10.92291 1.15025 11.70313 1.17592 12.48332 1.20161 13.26353 1.22731 14.04375 1.25404 14.82396 1.28165 15.60417 1.30923 16.38438 1.33682 17.1646 1.36537 17.9448 1.39381 18.725 1.42331 19.5052 1.45375 20.28542 1.4843 21.06563 1.51476 21.84584 1.54616 22.62605 1.5785 23.40627 1.61084 24.18646 1.64415 24.96667 1.67755 25.74689 1.71179 26.5271 1.74692 27.30731 1.7822 28.08752 1.81834 28.86772 1.8545 29.64792 1.89171 30.42813 1.92969 31.20834 1.96776 31.98856 2.00684 32.76877 2.0467 33.54898 2.08762 34.3292 2.12863 35.1094 2.17041 35.8896 2.21237 36.66982 2.25603 37.45003 2.29988 38.23022 2.3446 39.01044 2.38933 39.79065 2.43596 40.57086 2.48256 41.35107 2.5312 42.13127 2.57971 42.91148 2.62814 43.6917 2.67867 44.47191 2.73006 45.25212 2.78151 46.03233 2.8348 46.81255 2.88809 47.59273 2.94318 48.37294 2.99835 49.15315 3.05458 49.93336 3.11263 50.71358 3.17076 51.49379 3.22968 52.274 3.29066 53.05421 3.35146 53.83441 3.41434 54.61462 3.47723 55.39484 3.54182 56.17505 3.60759 56.95525 3.6741 57.73546 3.74173 58.51567 3.8111 59.29587 3.88066 60.07608 3.9521 60.8563 4.02528 61.6365 4.09854 62.41672 4.17378 63.19693 4.24983 63.97714 4.32689 64.75735 4.4049 65.53755 4.48587 66.31775 4.56781 67.09796 4.65057 67.87817 4.73535 68.65839 4.82088 69.4386 4.90758 70.21881 4.99606 70.99902 5.08635 71.77924 5.17786 72.55945 5.27103 73.33965 5.36627 74.11986 5.46246 74.90007 5.56036 75.68028 5.6594 76.46048 5.76123 77.24069 5.86397 78.0209 5.96863 78.80112 6.0752 79.58133 6.18282 80.36154 6.29318 81.14174 6.40556 81.92195 6.51877 82.70216 6.63495 83.48238 6.75293 84.26259 6.87186 85.0428 6.99364 85.823 7.11732 86.60321 7.24294 87.38342 7.37137 88.16364 7.50096 88.94383 7.63322 89.72404 7.76833 90.50426 7.90439 91.28447 8.04424 92.06468 8.18517 92.8449 8.32883 93.6251 8.47556 94.40532 8.62387 95.18552 8.77516 95.96573 8.92845 96.74594 9.08458 97.52615 9.24194 98.30637 9.4035 99.08656 9.56772 99.86678 9.7348 100.64699 9.90465 101.4272 10.07733 102.20741 10.25296 102.98763 10.43147 103.76784 10.61319 104.54803 10.79768 105.32825 10.9856 106.10846 11.17645 106.88866 11.37074 107.66887 11.56798 108.44908 11.76883 109.2293 11.97293 110.0095 12.18024 110.78972 12.39139 111.56993 12.60593 112.35014 12.82439 113.13036 13.04626 113.91055 13.27205 114.69075 13.50125 115.47096 13.73456 116.25117 13.97185 117.03139 14.21295 117.8116 14.45815 118.59181 14.70752 119.37202 14.96107 120.15224 15.21893 120.93245 15.48134 121.71266 15.74776 122.49286 16.01929 123.27306 16.29486 124.05327 16.57515 124.83348 16.86002 125.6137 17.14992 126.3939 17.44478 127.17412 17.7444 127.95433 18.04924 128.73455 18.35915 129.51476 18.67426 130.29496 18.99461 131.07517 19.3204 131.85538 19.6517 132.63558 19.98851 133.41579 20.33113 134.196 20.67946 134.97621 21.03369 135.75641 21.39363 136.53662 21.76024 137.31684 22.13243 138.09705 22.5114 138.87726 22.896 139.65747 23.28781 140.43769 23.68571 141.2179 24.09035 141.99808 24.50206 142.77829 24.92023 143.5585 25.3463 144.33872 25.77892 145.11893 26.21915 145.89914 26.66626 146.67935 27.12172 147.45955 27.58441 148.23976 28.0551 149.01998 28.53273 149.80019 29.01883 150.5804 29.51445 151.3606 30.01663 152.14081 30.5289 152.92102 31.04802 153.70122 31.57751 154.48143 32.11499 155.26165 32.66188 156.04186 33.21773 156.82207 33.7827 157.60228 34.35806 158.38249 34.94226 159.1627 35.53662 159.9429 36.1409 160.72312 36.75555 161.50331 37.38068 162.28353 38.01585 163.06374 38.6619 163.84395 39.31917 164.62416 39.98805 165.40436 40.66672 166.18457 41.35721 166.96479 42.05919 167.745 42.77422 168.5252 43.50046 169.30542 44.23851 170.08563 44.98969 170.86583 45.75333 171.64603 46.53021 172.42624 47.31952 173.20645 48.12228 173.98667 48.93777 174.76688 49.76889 175.54709 50.61253 176.3273 51.47133 177.1075 52.34325 177.88771 53.23161 178.66793 54.13399 179.44814 55.05063 180.22834 55.98363 181.00855 56.93262 181.78876 57.89693 182.56897 58.87769 183.34917 59.87567 184.12938 60.88861 184.90959 61.92113 185.6898 62.97011 186.47002 64.03642 187.25023 65.12071 188.03044 66.22449 188.81064 67.34447 189.59084 68.48393 190.37105 69.6431 191.15126 70.82243 191.93148 72.02176 192.71169 73.24066 193.4919 74.4791 194.27211 75.73892"/>
<use data-text="y" xlink:href="#font_4_2" transform="matrix(9.962899,0,0,-9.962899,155.29026,148.01596)" fill="#0000ff"/>
<use data-text="=" xlink:href="#font_2_6" transform="matrix(9.962899,0,0,-9.962899,163.2995,148.01596)" fill="#0000ff"/>
<use data-text="2" xlink:href="#font_2_3" transform="matrix(9.962899,0,0,-9.962899,173.8004,148.01596)" fill="#0000ff"/>
<use data-text="x" xlink:href="#font_5_1" transform="matrix(6.9740097,0,0,-6.9740097,178.79697,144.40085)" fill="#0000ff"/>
<path transform="matrix(1.00003,0,0,-1.00003,6.582779,163.19841)" stroke-width="1.59404" stroke-linecap="butt" stroke-miterlimit="10" stroke-linejoin="miter" fill="none" stroke="#ff0000" d="M0 0 .78018 .00945 1.5604 .01917 2.3406 .02913 3.12082 .03937 3.90103 .04988 4.68124 .06067 5.46146 .07175 6.24165 .08313 7.02187 .09482 7.80208 .10681 8.58229 .11911 9.3625 .13177 10.1427 .14478 10.92291 .15811 11.70313 .17178 12.48332 .18587 13.26353 .20029 14.04375 .21512 14.82396 .23035 15.60417 .24597 16.38438 .26204 17.1646 .27852 17.9448 .29544 18.725 .3128 19.5052 .33067 20.28542 .34898 21.06563 .3678 21.84584 .38713 22.62605 .40697 23.40627 .42734 24.18646 .44826 24.96667 .46971 25.74689 .49178 26.5271 .51443 27.30731 .53769 28.08752 .56157 28.86772 .58609 29.64792 .61058 30.42813 .63731 31.20834 .663 31.98856 .6906 32.76877 .71922 33.54898 .74768 34.3292 .77708 35.1094 .80762 35.8896 .83807 36.66982 .87042 37.45003 .90286 38.23022 .93712 39.01044 .97137 39.79065 1.00648 40.57086 1.04369 41.35107 1.0808 42.13127 1.11969 42.91148 1.15881 43.6917 1.19972 44.47191 1.24063 45.25212 1.28355 46.03233 1.32721 46.81255 1.37297 47.59273 1.41951 48.37294 1.46613 49.15315 1.51561 49.93336 1.56517 50.71358 1.61656 51.49379 1.66985 52.274 1.72415 53.05421 1.78029 53.83441 1.83739 54.61462 1.89543 55.39484 1.95631 56.17505 2.01816 56.95525 2.08202 57.73546 2.1466 58.51567 2.21426 59.29587 2.28278 60.07608 2.35316 60.8563 2.42653 61.6365 2.50075 62.41672 2.5778 63.19693 2.65575 63.97714 2.7368 64.75735 2.8191 65.53755 2.90416 66.31775 2.9917 67.09796 3.0822 67.87817 3.17343 68.65839 3.26868 69.4386 3.36592 70.21881 3.46571 70.99902 3.56754 71.77924 3.67323 72.55945 3.78075 73.33965 3.89206 74.11986 4.00539 74.90007 4.12233 75.68028 4.24335 76.46048 4.366 77.24069 4.49263 78.0209 4.62299 78.80112 4.75629 79.58133 4.8933 80.36154 5.03412 81.14174 5.17873 81.92195 5.32727 82.70216 5.47958 83.48238 5.63562 84.26259 5.79652 85.0428 5.96114 85.823 6.13039 86.60321 6.30458 87.38342 6.48347 88.16364 6.66624 88.94383 6.85474 89.72404 7.04796 90.50426 7.24683 91.28447 7.45055 92.06468 7.65987 92.8449 7.8749 93.6251 8.09573 94.40532 8.32216 95.18552 8.5545 95.96573 8.79333 96.74594 9.03882 97.52615 9.28876 98.30637 9.54736 99.08656 9.81302 99.86678 10.0857 100.64699 10.36563 101.4272 10.65324 102.20741 10.94849 102.98763 11.25163 103.76784 11.56267 104.54803 11.88234 105.32825 12.2106 106.10846 12.5477 106.88866 12.89357 107.66887 13.24893 108.44908 13.6141 109.2293 13.98851 110.0095 14.37308 110.78972 14.76814 111.56993 15.17354 112.35014 15.59029 113.13036 16.01797 113.91055 16.45717 114.69075 16.90797 115.47096 17.37065 116.25117 17.84639 117.03139 18.33467 117.8116 18.83582 118.59181 19.35066 119.37202 19.8792 120.15224 20.4221 120.93245 20.97955 121.71266 21.55156 122.49286 22.13881 123.27306 22.74205 124.05327 23.36182 124.83348 23.99788 125.6137 24.65085 126.3939 25.32193 127.17412 26.01079 127.95433 26.71764 128.73455 27.44379 129.51476 28.18954 130.29496 28.95528 131.07517 29.74136 131.85538 30.54907 132.63558 31.3777 133.41579 32.22926 134.196 33.10327 134.97621 34.00029 135.75641 34.92162 136.53662 35.8683 137.31684 36.84033 138.09705 37.83717 138.87726 38.8619 139.65747 39.91354 140.43769 40.99307 141.2179 42.10333 141.99808 43.24165 142.77829 44.41139 143.5585 45.61223 144.33872 46.84541 145.11893 48.11151 145.89914 49.41103 146.67935 50.74622 147.45955 52.11688 148.23976 53.52486 149.01998 54.96938 149.80019 56.45404 150.5804 57.9777 151.3606 59.54353 152.14081 61.14912 152.92102 62.79817 153.70122 64.4933 154.48143 66.23257 155.26165 68.01952 156.04186 69.85309 156.82207 71.73697 157.60228 73.67026 158.38249 75.6549 159.1627 77.69531 159.9429 79.78862 160.72312 81.93893 161.50331 84.14555 162.28353 86.41289 163.06374 88.74141 163.84395 91.13156 164.62416 93.58444 165.40436 96.10771 166.18457 98.69377 166.96479 101.35121 167.745 104.08 168.5252 106.88016 169.30542 109.75928 170.08563 112.71071 170.86583 115.74207 171.64603 118.85715 172.42624 122.05406 173.20645 125.33852 173.98667 128.71144 174.76688 132.1719 175.54709 135.72751 176.3273 139.37638 177.1075 143.12609 177.88771 146.97475 178.66793 150.92806 179.44814 154.98415 180.22834 159.1525 181.00855 163.43218 181.78876 167.82411 182.56897 172.33405 183.34917 176.96482 184.12938 181.72402 184.90959 186.60787 185.6898 191.62398 186.47002 196.77329 187.25023 202.06246 188.03044 207.49245 188.81064 213.0661 189.59084 218.792 190.37105 224.66823 191.15126 230.70716 191.93148 236.90592 192.71169 243.2693 193.4919 249.803 194.27211 256.5127"/>
<use data-text="y" xlink:href="#font_4_2" transform="matrix(9.962899,0,0,-9.962899,151.21314,13.226913)" fill="#ff0000"/>
<use data-text="=" xlink:href="#font_2_6" transform="matrix(9.962899,0,0,-9.962899,159.22238,13.226913)" fill="#ff0000"/>
<use data-text="3" xlink:href="#font_2_4" transform="matrix(9.962899,0,0,-9.962899,169.72328,13.226913)" fill="#ff0000"/>
<use data-text="x" xlink:href="#font_5_1" transform="matrix(6.9740097,0,0,-6.9740097,174.71985,9.611809)" fill="#ff0000"/>
</g>
<use data-text="x" xlink:href="#font_4_1" transform="matrix(9.962899,0,0,-9.962899,191.68134,159.6783)"/>
<use data-text="y" xlink:href="#font_4_2" transform="matrix(9.962899,0,0,-9.962899,107.2608,9.581802)"/>
</svg>
