<svg xmlns="http://www.w3.org/2000/svg" xmlns:xlink="http://www.w3.org/1999/xlink" xmlns:inkscape="http://www.inkscape.org/namespaces/inkscape" version="1.1" width="204" height="177" viewBox="0 0 204 177">
<defs>
<path id="font_1_1" d="M.6589966 .23046875C.6759949 .23046875 .69400027 .23046875 .69400027 .25045777 .69400027 .27046205 .6759949 .27046205 .6589966 .27046205H.117996219C.100997928 .27046205 .08299255 .27046205 .08299255 .25045777 .08299255 .23046875 .100997928 .23046875 .117996219 .23046875H.6589966Z"/>
<path id="font_2_4" d="M.2899933 .35191346C.37199403 .37893678 .42999269 .4490509 .42999269 .52809146 .42999269 .6100464 .34199525 .6660156 .24598694 .6660156 .14498902 .6660156 .068984989 .60606387 .068984989 .53009036 .068984989 .49710084 .09098816 .47808839 .11999512 .47808839 .15098572 .47808839 .17098999 .50009158 .17098999 .5290985 .17098999 .57910159 .12399292 .57910159 .10899353 .57910159 .13999939 .62802127 .20599365 .64100649 .24198914 .64100649 .2829895 .64100649 .33799745 .6190338 .33799745 .5290985 .33799745 .51708987 .33599855 .45906068 .30999757 .4149933 .27999879 .36691285 .24598694 .36390687 .22099304 .36291505 .21299744 .36190797 .18899536 .35990907 .18199158 .35990907 .17399597 .35890199 .16699219 .35791017 .16699219 .3479004 .16699219 .33691407 .17399597 .33691407 .19099427 .33691407H.23498535C.31698609 .33691407 .35398866 .2686615 .35398866 .17037964 .35398866 .034469606 .2849884 .0055389406 .24099732 .0055389406 .19799805 .0055389406 .12298584 .022491456 .08799744 .08137512 .12298584 .07637024 .1539917 .09837341 .1539917 .1363678 .1539917 .17237854 .1269989 .19238281 .09799194 .19238281 .07398987 .19238281 .041992189 .17837525 .041992189 .1343689 .041992189 .043441774 .1349945-.022460938 .24398804-.022460938 .3659973-.022460938 .45700074 .06838989 .45700074 .17037964 .45700074 .252594 .3939972 .33088685 .2899933 .35191346Z"/>
<path id="font_2_3" d="M.1269989 .07699585 .23298645 .18003845C.3889923 .31811524 .44898988 .3721466 .44898988 .47216798 .44898988 .5860901 .35899354 .6660156 .23699951 .6660156 .12399292 .6660156 .049987794 .57411196 .049987794 .48516847 .049987794 .4291687 .099990848 .4291687 .102996829 .4291687 .11999512 .4291687 .15499878 .44117738 .15499878 .48217774 .15499878 .5081787 .13699341 .5341797 .101989749 .5341797 .09399414 .5341797 .09199524 .5341797 .08898926 .5331726 .11199951 .59806826 .1659851 .63500979 .22399903 .63500979 .31498719 .63500979 .35798646 .5541382 .35798646 .47216798 .35798646 .39215089 .30799867 .31311036 .25299073 .25108338L.06098938 .036987306C.049987794 .025985718 .049987794 .023986817 .049987794 0H.42099L.44898988 .17404175H.42399598C.4189911 .14402771 .4119873 .1000061 .4019928 .084991458 .394989 .07699585 .32899476 .07699585 .30699159 .07699585H.1269989Z"/>
<path id="font_2_2" d="M.2939911 .64004519C.2939911 .66400149 .2939911 .6660156 .2709961 .6660156 .20899964 .60227969 .12098694 .60227969 .08898926 .60227969V.57128909C.10899353 .57128909 .16799927 .57128909 .21998596 .5972748V.07902527C.21998596 .042999269 .21699524 .0309906 .1269989 .0309906H.09498596V0C.12998963 .0029907227 .21699524 .0029907227 .25698854 .0029907227 .29699708 .0029907227 .38398744 .0029907227 .4189911 0V.0309906H.3869934C.29699708 .0309906 .2939911 .041992189 .2939911 .07902527V.64004519Z"/>
<path id="font_2_5" d="M.44898988 .20022583C.44898988 .3193512 .36698915 .41944886 .25898744 .41944886 .21099854 .41944886 .16799927 .40345765 .13198853 .36842347V.5637665C.1519928 .5577698 .18499756 .55078127 .21699524 .55078127 .33999635 .55078127 .4099884 .6417694 .4099884 .6547699 .4099884 .6607666 .40699769 .6657715 .3999939 .6657715 .39898683 .6657715 .39698792 .6657715 .3919983 .66278079 .37199403 .6537781 .32299806 .6337738 .2559967 .6337738 .21598816 .6337738 .16999817 .6407776 .12298584 .6617737 .114990238 .66477969 .11299133 .66477969 .11099243 .66477969 .100997928 .66477969 .100997928 .6567688 .100997928 .6407776V.34439088C.100997928 .32637025 .100997928 .31835938 .114990238 .31835938 .12199402 .31835938 .12399292 .32136537 .12799073 .32736207 .13899231 .3433838 .17599488 .39746095 .25698854 .39746095 .30899049 .39746095 .33399964 .35139466 .34199525 .33337403 .35798646 .29632569 .3600006 .25727845 .3600006 .20722962 .3600006 .17222595 .3600006 .11222839 .33599855 .07035828 .31199647 .031463624 .2749939 .0055389406 .22898865 .0055389406 .1559906 .0055389406 .09899902 .058380128 .08198547 .11723328 .084991458 .1162262 .08799744 .115234378 .09899902 .115234378 .13198853 .115234378 .14898682 .14022827 .14898682 .16423035 .14898682 .18823242 .13198853 .21322632 .09899902 .21322632 .084991458 .21322632 .049987794 .20622254 .049987794 .16023255 .049987794 .07434082 .11898804-.022460938 .23098755-.022460938 .34700013-.022460938 .44898988 .073349 .44898988 .20022583Z"/>
<path id="font_2_1" d="M.45999146 .31976319C.45999146 .39982606 .45498658 .47988893 .41999818 .5539398 .37399293 .65000918 .2919922 .6660156 .25 .6660156 .18998719 .6660156 .116989139 .64001467 .07598877 .54693606 .04399109 .47789 .038986207 .39982606 .038986207 .31976319 .038986207 .24472046 .042999269 .15464783 .083999637 .07859802 .1269989-.0024719239 .19999695-.022460938 .24899292-.022460938 .30299378-.022460938 .3789978-.0014648438 .4229889 .09359741 .45498658 .16265869 .45999146 .2407074 .45999146 .31976319M.24899292-.00047302247C.20999146-.00047302247 .15098572 .024551392 .1329956 .12062073 .12199402 .18066406 .12199402 .2727356 .12199402 .3317871 .12199402 .39582826 .12199402 .46188355 .12998963 .5159149 .14898682 .63500979 .22399903 .64401248 .24899292 .64401248 .28199769 .64401248 .34799195 .6259918 .36698915 .52693179 .3769989 .47088624 .3769989 .39482118 .3769989 .3317871 .3769989 .25672914 .3769989 .18867493 .3659973 .12461853 .35099793 .029556275 .2939911-.00047302247 .24899292-.00047302247Z"/>
<clipPath id="clip_3">
<path transform="matrix(1.00003,0,0,-1.00003,6.582779,163.19841)" d="M0 0H194.27216V161.39617H0Z"/>
</clipPath>
<path id="font_4_2" d="M.48599244 .38136292C.48999024 .39537049 .48999024 .39736939 .48999024 .40437318 .48999024 .42237855 .47599793 .43138124 .46099855 .43138124 .45098878 .43138124 .43499757 .42536927 .42599488 .41036988 .42399598 .405365 .41600038 .37435914 .4119873 .35635377 .40499879 .33035279 .397995 .30334474 .3919983 .27633668L.34700013 .09628296C.34298707 .08126831 .2999878 .011245728 .23399353 .011245728 .18299866 .011245728 .17199707 .055267335 .17199707 .0922699 .17199707 .1382904 .18899536 .20030213 .22299195 .28833009 .23899842 .3293457 .24299622 .3403473 .24299622 .36035157 .24299622 .405365 .21099854 .4423828 .16099549 .4423828 .06599426 .4423828 .0289917 .29733277 .0289917 .28833009 .0289917 .27833558 .038986207 .27833558 .040985109 .27833558 .050994874 .27833558 .051986696 .28033448 .056991579 .29634095 .083999637 .3903656 .12399292 .42037965 .1579895 .42037965 .1659851 .42037965 .18299866 .42037965 .18299866 .3883667 .18299866 .36335755 .17298889 .3373413 .1659851 .31834413 .12599182 .21231079 .10798645 .1552887 .10798645 .10827637 .10798645 .019256592 .17098999-.0107421879 .22999573-.0107421879 .2689972-.0107421879 .30299378 .0062561037 .33099366 .03425598 .31799317-.017745972 .30599977-.06674194 .2659912-.11973572 .23999024-.15385437 .20199585-.18309021 .1559906-.18309021 .14199829-.18309021 .09700012-.18005371 .07998657-.14074707 .09599304-.14074707 .10899353-.14074707 .12298584-.1287384 .1329956-.11973572 .14299011-.10673523 .14299011-.08773804 .14299011-.056747438 .115997318-.052734376 .10598755-.052734376 .08299255-.052734376 .049987794-.068740848 .049987794-.11773682 .049987794-.16796875 .09399414-.20507813 .1559906-.20507813 .25898744-.20507813 .3619995-.11373901 .3899994-.00074768069L.48599244 .38136292Z"/>
<path id="font_2_6" d="M.68699648 .32714845C.70199587 .32714845 .72099307 .32714845 .72099307 .34713746 .72099307 .36714173 .70199587 .36714173 .6879883 .36714173H.08898926C.07499695 .36714173 .055999757 .36714173 .055999757 .34713746 .055999757 .32714845 .07499695 .32714845 .08999634 .32714845H.68699648M.6879883 .13284302C.70199587 .13284302 .72099307 .13284302 .72099307 .15284729 .72099307 .17285156 .70199587 .17285156 .68699648 .17285156H.08999634C.07499695 .17285156 .055999757 .17285156 .055999757 .15284729 .055999757 .13284302 .07499695 .13284302 .08898926 .13284302H.6879883Z"/>
<path id="font_5_1" d="M.24899292 .10601807C.23899842 .072021488 .20599365 .018234253 .15499878 .018234253 .1519928 .018234253 .12199402 .018234253 .100997928 .03215027 .14199829 .04508972 .14498902 .08100891 .14498902 .087020877 .14498902 .10900879 .12799073 .12402344 .10499573 .12402344 .07699585 .12402344 .04798889 .10002136 .04798889 .0630188 .04798889 .01322937 .10398865-.009765625 .15299988-.009765625 .19898987-.009765625 .23999024 .019226075 .2649994 .061019899 .2889862 .008224487 .34399415-.009765625 .38398744-.009765625 .49899293-.009765625 .55999758 .11502075 .55999758 .14305115 .55999758 .15608216 .5469971 .15608216 .5439911 .15608216 .5299988 .15608216 .5289917 .15107727 .5249939 .13905335 .5039978 .07002258 .44400025 .018234253 .3880005 .018234253 .34799195 .018234253 .32699586 .04508972 .32699586 .08302307 .32699586 .10900879 .35099793 .20018006 .3789978 .31140138 .39898683 .38841249 .44400025 .4133911 .47698976 .4133911 .47898866 .4133911 .5099945 .4133911 .5309906 .39941407 .49899293 .39041139 .4869995 .3624115 .4869995 .34440614 .4869995 .32240296 .5039978 .30740357 .5269928 .30740357 .5499878 .30740357 .58299258 .32640077 .58299258 .3684082 .58299258 .4243927 .5189972 .44140626 .47898866 .44140626 .42900086 .44140626 .3889923 .4084015 .36698915 .3704071 .34899903 .4113922 .30299378 .44140626 .24699402 .44140626 .1349945 .44140626 .070999149 .31840516 .070999149 .2883606 .070999149 .27534486 .084991458 .27534486 .08799744 .27534486 .100997928 .27534486 .101989749 .27934266 .10699463 .29237367 .13198853 .3704071 .19499207 .4133911 .24398804 .4133911 .2769928 .4133911 .3039856 .395401 .3039856 .3474121 .3039856 .32740785 .2919922 .27734376 .2829895 .24327088L.24899292 .10601807Z"/>
<path id="font_6_1" d="M.41299439-1.1491852C.41299439-1.1451874 .41099549-1.1431885 .40899659-1.1401825 .36299134-1.0911713 .29499818-1.0101624 .25299073-.84713748 .22999573-.7561188 .22099304-.65309146 .22099304-.56007388 .22099304-.2970276 .28399659-.11299133 .4039917 .017044068 .41299439 .026031495 .41299439 .028030396 .41299439 .030029297 .41299439 .040039064 .40499879 .040039064 .40098573 .040039064 .38598634 .040039064 .33198548-.019973755 .31900025-.034973146 .21699524-.1559906 .1519928-.33602906 .1519928-.5590668 .1519928-.7010956 .1769867-.9021454 .30799867-1.071167 .31799317-1.0831757 .3829956-1.1591797 .40098573-1.1591797 .40499879-1.1591797 .41299439-1.1591797 .41299439-1.1491852Z"/>
<path id="font_7_1" d="M.33499146 .63612368C.33499146 .6630554 .33299256 .6640625 .30499269 .6640625 .24099732 .6014404 .1499939 .6004486 .10899353 .6004486V.5644531C.1329956 .5644531 .19898987 .5644531 .2539978 .592453V.08203125C.2539978 .04899597 .2539978 .035995485 .1539917 .035995485H.115997318V0C.13398743 .0009918213 .25698854 .0039978029 .2939911 .0039978029 .32499696 .0039978029 .45098878 .0009918213 .47299195 0V.035995485H.43499757C.33499146 .035995485 .33499146 .04899597 .33499146 .08203125V.63612368Z"/>
<path id="font_7_2" d="M.272995 .33428956C.35099793 .33428956 .40699769 .2803192 .40699769 .1733551 .40699769 .04940796 .33499146 .012466431 .2769928 .012466431 .23699951 .012466431 .14898682 .0234375 .10699463 .082351688 .1539917 .084350589 .16499329 .11735535 .16499329 .13835144 .16499329 .17034912 .14099121 .19335938 .10998535 .19335938 .08198547 .19335938 .053985597 .17634583 .053985597 .13534546 .053985597 .041412355 .1579895-.01953125 .2789917-.01953125 .41799928-.01953125 .5139923 .07336426 .5139923 .1733551 .5139923 .2513275 .44999696 .32929994 .33999635 .35229493 .44499208 .39024354 .48298646 .4650879 .48298646 .5260773 .48298646 .60505679 .3919983 .6640625 .2809906 .6640625 .16999817 .6640625 .084991458 .61006167 .084991458 .5300751 .084991458 .49606324 .10699463 .47706605 .13699341 .47706605 .16799927 .47706605 .18798828 .5000763 .18798828 .5280762 .18798828 .5570679 .16799927 .57806399 .13699341 .5800781 .17199707 .62405398 .24099732 .63505557 .27799989 .63505557 .32299806 .63505557 .38598634 .6130676 .38598634 .5260773 .38598634 .48406983 .37199403 .43814088 .34599305 .4072113 .31298829 .36927796 .2849884 .3672943 .23498535 .36428834 .20999146 .3623047 .20799256 .3623047 .20298767 .3612976 .20098877 .3612976 .19299317 .3592987 .19299317 .34829713 .19299317 .33428956 .20199585 .33428956 .21899414 .33428956H.272995Z"/>
<path id="font_6_2" d="M.30499269-.56007388C.30499269-.41804505 .27999879-.2170105 .14898682-.047973634 .13899231-.035964967 .07398987 .040039064 .055999757 .040039064 .050994874 .040039064 .04399109 .038024904 .04399109 .030029297 .04399109 .026031495 .04598999 .023025513 .049987794 .02003479 .09799194-.031967164 .16299439-.11299133 .20399475-.27201844 .22698975-.3630371 .23599243-.4660492 .23599243-.5590668 .23599243-.6600952 .22698975-.7621155 .20098877-.86013796 .16299439-1.0001679 .10398865-1.0801697 .052993776-1.1361847 .04399109-1.1451874 .04399109-1.1471863 .04399109-1.1491852 .04399109-1.1571808 .050994874-1.1591797 .055999757-1.1591797 .070999149-1.1591797 .12599182-1.098175 .13798523-1.0841827 .23999024-.96315 .30499269-.7831116 .30499269-.56007388Z"/>
<path id="font_4_1" d="M.33399964 .30233766C.33999635 .32835389 .36299134 .42037965 .43299867 .42037965 .43798829 .42037965 .46199037 .42037965 .48298646 .40734864 .45498658 .402359 .43499757 .37734986 .43499757 .35334779 .43499757 .33735658 .44599916 .31835938 .47299195 .31835938 .49499513 .31835938 .5269928 .3363495 .5269928 .37635804 .5269928 .42837525 .46798707 .4423828 .43399049 .4423828 .37599183 .4423828 .34098817 .38935853 .32899476 .36634828 .3039856 .43237306 .25 .4423828 .22099304 .4423828 .116989139 .4423828 .05999756 .3133545 .05999756 .28834535 .05999756 .27833558 .069992069 .27833558 .07199097 .27833558 .07998657 .27833558 .08299255 .28033448 .084991458 .28933717 .11898804 .39535523 .18499756 .42037965 .21899414 .42037965 .23799134 .42037965 .272995 .4113617 .272995 .35334779 .272995 .32235719 .2559967 .25532533 .21899414 .11528015 .20298767 .053268434 .16799927 .011245728 .12399292 .011245728 .117996219 .011245728 .09498596 .011245728 .07398987 .024276734 .09899902 .029266358 .12098694 .05027771 .12098694 .07827759 .12098694 .105270389 .09899902 .11328125 .083999637 .11328125 .053985597 .11328125 .0289917 .08728027 .0289917 .055267335 .0289917 .009246826 .07899475-.0107421879 .12298584-.0107421879 .18899536-.0107421879 .22499085 .059280397 .22799683 .0652771 .23999024 .028274537 .27598573-.0107421879 .33599855-.0107421879 .43899537-.0107421879 .49598695 .118270877 .49598695 .14328003 .49598695 .1532898 .4869995 .1532898 .48399354 .1532898 .47499085 .1532898 .47299195 .14929199 .47099305 .14228821 .43798829 .03527832 .36999513 .011245728 .33799745 .011245728 .29899598 .011245728 .2829895 .043273927 .2829895 .07727051 .2829895 .09927368 .2889862 .121276859 .2999878 .16529846L.33399964 .30233766Z"/>
</defs>
<path transform="matrix(1.00003,0,0,-1.00003,6.582779,163.19841)" stroke-width=".19925" stroke-linecap="butt" stroke-miterlimit="10" stroke-linejoin="miter" fill="none" stroke="#7f807f" d="M0-2.12569V2.12569M32.3787-2.12569V2.12569M64.75739-2.12569V2.12569M129.51477-2.12569V2.12569M161.89347-2.12569V2.12569M194.27216-2.12569V2.12569"/>
<path transform="matrix(1.00003,0,0,-1.00003,6.582779,163.19841)" stroke-width=".19925" stroke-linecap="butt" stroke-miterlimit="10" stroke-linejoin="miter" fill="none" stroke="#7f807f" d="M95.01018 47.2208H99.26195M95.01018 94.79385H99.26195M95.01018 142.36693H99.26195"/>
<path transform="matrix(1.00003,0,0,-1.00003,6.582779,163.19841)" stroke-width=".3985" stroke-linecap="butt" stroke-miterlimit="10" stroke-linejoin="miter" fill="none" stroke="#000000" d="M0 0H192.27964"/>
<path transform="matrix(1.00003,0,0,-1.00003,198.8682,163.19841)" d="M1.99252 0-1.19551 1.59401 0 0-1.19551-1.59401"/>
<path transform="matrix(1.00003,0,0,-1.00003,6.582779,163.19841)" stroke-width=".3985" stroke-linecap="butt" stroke-miterlimit="10" stroke-linejoin="miter" fill="none" stroke="#000000" d="M97.13608 0V159.40364"/>
<path transform="matrix(0,-1.00003,-1.00003,-0,103.72177,3.789978)" d="M1.99252 0-1.19551 1.59401 0 0-1.19551-1.59401"/>
<use data-text="&#x2212;" xlink:href="#font_1_1" transform="matrix(9.962899,0,0,-9.962899,.21759033,175.26477)"/>
<use data-text="3" xlink:href="#font_2_4" transform="matrix(9.962899,0,0,-9.962899,7.96682,175.26477)"/>
<use data-text="&#x2212;" xlink:href="#font_1_1" transform="matrix(9.962899,0,0,-9.962899,32.597566,175.26477)"/>
<use data-text="2" xlink:href="#font_2_3" transform="matrix(9.962899,0,0,-9.962899,40.346796,175.26477)"/>
<use data-text="&#x2212;" xlink:href="#font_1_1" transform="matrix(9.962899,0,0,-9.962899,64.97653,175.26477)"/>
<use data-text="1" xlink:href="#font_2_2" transform="matrix(9.962899,0,0,-9.962899,72.72576,175.26477)"/>
<use data-text="1" xlink:href="#font_2_2" transform="matrix(9.962899,0,0,-9.962899,133.6106,175.26477)"/>
<use data-text="2" xlink:href="#font_2_3" transform="matrix(9.962899,0,0,-9.962899,165.99057,175.26477)"/>
<use data-text="3" xlink:href="#font_2_4" transform="matrix(9.962899,0,0,-9.962899,198.36956,175.26477)"/>
<use data-text="5" xlink:href="#font_2_5" transform="matrix(9.962899,0,0,-9.962899,93.09438,119.18608)"/>
<use data-text="1" xlink:href="#font_2_2" transform="matrix(9.962899,0,0,-9.962899,88.11323,71.61166)"/>
<use data-text="0" xlink:href="#font_2_1" transform="matrix(9.962899,0,0,-9.962899,93.09467,71.61166)"/>
<use data-text="1" xlink:href="#font_2_2" transform="matrix(9.962899,0,0,-9.962899,88.11323,24.037232)"/>
<use data-text="5" xlink:href="#font_2_5" transform="matrix(9.962899,0,0,-9.962899,93.09467,24.037232)"/>
<g clip-path="url(#clip_3)">
<path transform="matrix(1.00003,0,0,-1.00003,6.582779,163.19841)" stroke-width="1.59404" stroke-linecap="butt" stroke-miterlimit="10" stroke-linejoin="miter" fill="none" stroke="#0000ff" d="M0 .83704 .78018 .85721 1.5604 .87729 2.3406 .89813 3.12082 .91905 3.90103 .94104 4.68124 .96292 5.46146 .9847 6.24165 1.00764 7.02187 1.03038 7.80208 1.05322 8.58229 1.077 9.3625 1.10088 10.1427 1.12563 10.92291 1.15036 11.70313 1.17604 12.48332 1.20174 13.26353 1.22742 14.04375 1.25417 14.82396 1.28177 15.60417 1.30936 16.38438 1.33694 17.1646 1.3655 17.9448 1.39394 18.725 1.42343 19.5052 1.45387 20.28542 1.48442 21.06563 1.51486 21.84584 1.54628 22.62605 1.57861 23.40627 1.61096 24.18646 1.64427 24.96667 1.67766 25.74689 1.7119 26.5271 1.74702 27.30731 1.78232 28.08752 1.81847 28.86772 1.85463 29.64792 1.89183 30.42813 1.9298 31.20834 1.96786 31.98856 2.00696 32.76877 2.04683 33.54898 2.08774 34.3292 2.12875 35.1094 2.17052 35.8896 2.21248 36.66982 2.25615 37.45003 2.3 38.23022 2.34473 39.01044 2.38945 39.79065 2.43608 40.57086 2.48268 41.35107 2.53131 42.13127 2.57983 42.91148 2.62827 43.6917 2.67879 44.47191 2.73016 45.25212 2.78163 46.03233 2.83492 46.81255 2.88821 47.59273 2.9433 48.37294 2.99847 49.15315 3.0547 49.93336 3.11275 50.71358 3.17088 51.49379 3.22977 52.274 3.29077 53.05421 3.35158 53.83441 3.41444 54.61462 3.47734 55.39484 3.54195 56.17505 3.6077 56.95525 3.67421 57.73546 3.74185 58.51567 3.81122 59.29587 3.88077 60.07608 3.95222 60.8563 4.02539 61.6365 4.09865 62.41672 4.1739 63.19693 4.24994 63.97714 4.32701 64.75735 4.40503 65.53755 4.486 66.31775 4.56792 67.09796 4.65068 67.87817 4.73547 68.65839 4.821 69.4386 4.9077 70.21881 4.99617 70.99902 5.08647 71.77924 5.17798 72.55945 5.27113 73.33965 5.36638 74.11986 5.46257 74.90007 5.56049 75.68028 5.65952 76.46048 5.76134 77.24069 5.86407 78.0209 5.96875 78.80112 6.07532 79.58133 6.18292 80.36154 6.29329 81.14174 6.40567 81.92195 6.51888 82.70216 6.63504 83.48238 6.75305 84.26259 6.87196 85.0428 6.99376 85.823 7.11745 86.60321 7.24306 87.38342 7.37149 88.16364 7.50107 88.94383 7.63333 89.72404 7.76845 90.50426 7.9045 91.28447 8.04436 92.06468 8.18527 92.8449 8.32895 93.6251 8.47568 94.40532 8.624 95.18552 8.77527 95.96573 8.92856 96.74594 9.0847 97.52615 9.24207 98.30637 9.40361 99.08656 9.56784 99.86678 9.73492 100.64699 9.90477 101.4272 10.07745 102.20741 10.25307 102.98763 10.43158 103.76784 10.6133 104.54803 10.7978 105.32825 10.9857 106.10846 11.17657 106.88866 11.37086 107.66887 11.5681 108.44908 11.76895 109.2293 11.97304 110.0095 12.18036 110.78972 12.39151 111.56993 12.60605 112.35014 12.82451 113.13036 13.04639 113.91055 13.27217 114.69075 13.50137 115.47096 13.73468 116.25117 13.97197 117.03139 14.21307 117.8116 14.45825 118.59181 14.70763 119.37202 14.9612 120.15224 15.21906 120.93245 15.48146 121.71266 15.74786 122.49286 16.01941 123.27306 16.29497 124.05327 16.57527 124.83348 16.86012 125.6137 17.15004 126.3939 17.44489 127.17412 17.74452 127.95433 18.04935 128.73455 18.35925 129.51476 18.67438 130.29496 18.99472 131.07517 19.32053 131.85538 19.65181 132.63558 19.98863 133.41579 20.33124 134.196 20.67958 134.97621 21.0338 135.75641 21.39374 136.53662 21.76035 137.31684 22.13255 138.09705 22.51152 138.87726 22.8961 139.65747 23.28792 140.43769 23.68584 141.2179 24.09047 141.99808 24.50218 142.77829 24.92033 143.5585 25.3464 144.33872 25.77904 145.11893 26.21927 145.89914 26.66638 146.67935 27.12183 147.45955 27.58453 148.23976 28.0552 149.01998 28.53285 149.80019 29.01894 150.5804 29.51457 151.3606 30.01675 152.14081 30.52902 152.92102 31.04813 153.70122 31.57764 154.48143 32.1151 155.26165 32.662 156.04186 33.21785 156.82207 33.78282 157.60228 34.35817 158.38249 34.94237 159.1627 35.53674 159.9429 36.141 160.72312 36.75568 161.50331 37.38078 162.28353 38.01598 163.06374 38.662 163.84395 39.31929 164.62416 39.98816 165.40436 40.66684 166.18457 41.35732 166.96479 42.0593 167.745 42.77434 168.5252 43.50058 169.30542 44.23863 170.08563 44.98979 170.86583 45.75343 171.64603 46.53032 172.42624 47.31964 173.20645 48.12239 173.98667 48.9379 174.76688 49.769 175.54709 50.61266 176.3273 51.47145 177.1075 52.34335 177.88771 53.23174 178.66793 54.13411 179.44814 55.05075 180.22834 55.98375 181.00855 56.93274 181.78876 57.89705 182.56897 58.8778 183.34917 59.8758 184.12938 60.88872 184.90959 61.92123 185.6898 62.97023 186.47002 64.03653 187.25023 65.12083 188.03044 66.22461 188.81064 67.34459 189.59084 68.48405 190.37105 69.64322 191.15126 70.82254 191.93148 72.02187 192.71169 73.24078 193.4919 74.47922 194.27211 75.73903"/>
<use data-text="y" xlink:href="#font_4_2" transform="matrix(9.962899,0,0,-9.962899,155.29026,148.01596)" fill="#0000ff"/>
<use data-text="=" xlink:href="#font_2_6" transform="matrix(9.962899,0,0,-9.962899,163.2995,148.01596)" fill="#0000ff"/>
<use data-text="2" xlink:href="#font_2_3" transform="matrix(9.962899,0,0,-9.962899,173.8004,148.01596)" fill="#0000ff"/>
<use data-text="x" xlink:href="#font_5_1" transform="matrix(6.9740097,0,0,-6.9740097,178.79697,144.40085)" fill="#0000ff"/>
<path transform="matrix(1.00003,0,0,-1.00003,6.582779,163.19841)" stroke-width="1.59404" stroke-linecap="butt" stroke-miterlimit="10" stroke-linejoin="miter" fill="none" stroke="#ff0000" d="M0 256.5423 .78018 249.89824 1.5604 243.36457 2.3406 236.99738 3.12082 230.79386 3.90103 224.75873 4.68124 218.87584 5.46146 213.14614 6.24165 207.56678 7.02187 202.13202 7.80208 196.84096 8.58229 191.68784 9.3625 186.67363 10.1427 181.78787 10.92291 177.02866 11.70313 172.39601 12.48332 167.8813 13.26353 163.48746 14.04375 159.20494 14.82396 155.03658 15.60417 150.97766 16.38438 147.02147 17.1646 143.17092 17.9448 139.42311 18.725 135.76854 19.5052 132.21294 20.28542 128.75057 21.06563 125.37762 21.84584 122.09224 22.62605 118.89247 23.40627 115.77834 24.18646 112.74509 24.96667 109.79079 25.74689 106.91261 26.5271 104.10866 27.30731 101.37894 28.08752 98.7215 28.86772 96.13351 29.64792 93.61052 30.42813 91.1552 31.20834 88.76474 31.98856 86.43526 32.76877 84.1685 33.54898 81.95961 34.3292 79.80995 35.1094 77.71503 35.8896 75.67462 36.66982 73.68777 37.45003 71.75327 38.23022 69.86995 39.01044 68.03458 39.79065 66.24802 40.57086 64.50818 41.35107 62.81372 42.13127 61.16331 42.91148 59.55629 43.6917 57.99075 44.47191 56.46642 45.25212 54.98235 46.03233 53.53648 46.81255 52.12825 47.59273 50.75642 48.37294 49.422 49.15315 48.12077 49.93336 46.85448 50.71358 45.62071 51.49379 44.42035 52.274 43.24995 53.05421 42.11096 53.83441 41.00108 54.61462 39.92079 55.39484 38.86867 56.17505 37.84442 56.95525 36.84604 57.73546 35.87338 58.51567 34.92714 59.29587 34.00566 60.07608 33.10796 60.8563 32.23375 61.6365 31.38219 62.41672 30.55319 63.19693 29.74586 63.97714 28.9594 64.75735 28.19156 65.53755 27.4478 66.31775 26.72118 67.09796 26.01413 67.87817 25.3248 68.65839 24.65393 69.4386 24.00046 70.21881 23.36432 70.99902 22.74443 71.77924 22.1416 72.55945 21.5537 73.33965 20.98157 74.11986 20.42392 74.90007 19.8811 75.68028 19.35228 76.46048 18.83754 77.24069 18.33652 78.0209 17.84793 78.80112 17.3723 79.58133 16.90923 80.36154 16.45815 81.14174 16.01913 81.92195 15.59126 82.70216 15.17471 83.48238 14.76929 84.26259 14.37405 85.0428 13.98947 85.823 13.61479 86.60321 13.2498 87.38342 12.89426 88.16364 12.5483 88.94383 12.2111 89.72404 11.88275 90.50426 11.56316 91.28447 11.25194 92.06468 10.94879 92.8449 10.65346 93.6251 10.36603 94.40532 10.086 95.18552 9.81332 95.96573 9.54767 96.74594 9.28905 97.52615 9.03893 98.30637 8.79346 99.08656 8.55463 99.86678 8.32228 100.64699 8.0948 101.4272 7.87502 102.20741 7.65997 102.98763 7.45065 103.76784 7.24695 104.54803 7.04808 105.32825 6.85484 106.10846 6.66635 106.88866 6.48273 107.66887 6.3047 108.44908 6.13051 109.2293 5.96124 110.0095 5.79558 110.78972 5.63574 111.56993 5.47865 112.35014 5.32632 113.13036 5.17798 113.91055 5.03319 114.69075 4.89342 115.47096 4.7564 116.25117 4.62207 117.03139 4.49274 117.8116 4.36612 118.59181 4.24242 119.37202 4.12245 120.15224 4.00551 120.93245 3.89124 121.71266 3.78087 122.49286 3.6723 123.27306 3.56764 124.05327 3.46478 124.83348 3.36497 125.6137 3.26782 126.3939 3.17355 127.17412 3.08145 127.95433 2.99182 128.73455 2.90428 129.51476 2.8196 130.29496 2.73691 131.07517 2.65587 131.85538 2.57687 132.63558 2.50087 133.41579 2.4256 134.196 2.35329 134.97621 2.28288 135.75641 2.21333 136.53662 2.14673 137.31684 2.08107 138.09705 2.01732 138.87726 1.9555 139.65747 1.89554 140.43769 1.83646 141.2179 1.77937 141.99808 1.72427 142.77829 1.66995 143.5585 1.61667 144.33872 1.56529 145.11893 1.51486 145.89914 1.46623 146.67935 1.41878 147.45955 1.3731 148.23976 1.32733 149.01998 1.28366 149.80019 1.24075 150.5804 1.19879 151.3606 1.15894 152.14081 1.11894 152.92102 1.0809 153.70122 1.04276 154.48143 1.0066 155.26165 .97148 156.04186 .93619 156.82207 .90298 157.60228 .87053 158.38249 .83818 159.1627 .80688 159.9429 .77634 160.72312 .74684 161.50331 .7183 162.28353 .6907 163.06374 .66312 163.84395 .63638 164.62416 .61069 165.40436 .58594 166.18457 .56143 166.96479 .53755 167.745 .51431 168.5252 .49165 169.30542 .4696 170.08563 .44814 170.86583 .42722 171.64603 .40685 172.42624 .38701 173.20645 .36769 173.98667 .34888 174.76688 .33058 175.54709 .31273 176.3273 .29535 177.1075 .27844 177.88771 .26195 178.66793 .24591 179.44814 .23027 180.22834 .21504 181.00855 .20021 181.78876 .18579 182.56897 .17172 183.34917 .15805 184.12938 .1447 184.90959 .13171 185.6898 .11908 186.47002 .10677 187.25023 .09477 188.03044 .08308 188.81064 .07172 189.59084 .06064 190.37105 .04984 191.15126 .03934 191.93148 .0291 192.71169 .01913 193.4919 .00943 194.27211 0"/>
<use data-text="y" xlink:href="#font_4_2" transform="matrix(9.962899,0,0,-9.962899,42.254854,67.85755)" fill="#ff0000"/>
<use data-text="=" xlink:href="#font_2_6" transform="matrix(9.962899,0,0,-9.962899,50.26409,67.85755)" fill="#ff0000"/>
<use data-text="(" xlink:href="#font_6_1" transform="matrix(9.962899,0,0,-9.962899,60.78041,59.787309)" fill="#ff0000"/>
<use data-text="1" xlink:href="#font_7_1" transform="matrix(6.9740097,0,0,-6.9740097,66.54258,63.935434)" fill="#ff0000"/>
<path transform="matrix(1.00003,0,0,-1.00003,-60.01622,-63.12838)" stroke-width=".3985" stroke-linecap="butt" stroke-miterlimit="10" stroke-linejoin="miter" fill="none" stroke="#ff0000" d="M126.555-128.492H130.526"/>
<use data-text="3" xlink:href="#font_7_2" transform="matrix(6.9740097,0,0,-6.9740097,66.54258,71.29366)" fill="#ff0000"/>
<use data-text=")" xlink:href="#font_6_2" transform="matrix(9.962899,0,0,-9.962899,71.70973,59.787317)" fill="#ff0000"/>
<use data-text="x" xlink:href="#font_5_1" transform="matrix(6.9740097,0,0,-6.9740097,76.27586,61.85238)" fill="#ff0000"/>
</g>
<use data-text="x" xlink:href="#font_4_1" transform="matrix(9.962899,0,0,-9.962899,191.68134,159.6783)"/>
<use data-text="y" xlink:href="#font_4_2" transform="matrix(9.962899,0,0,-9.962899,107.2608,9.581802)"/>
</svg>
