<svg xmlns="http://www.w3.org/2000/svg" xmlns:xlink="http://www.w3.org/1999/xlink" xmlns:inkscape="http://www.inkscape.org/namespaces/inkscape" version="1.1" width="179" height="32" viewBox="0 0 179 32">
<defs>
<path id="font_1_2" d="M.2869873 .68333438C.2869873 .6843262 .2869873 .69433596 .27398683 .69433596 .25099183 .69433596 .17799378 .6863251 .1519928 .6843262 .14399719 .68333438 .1329956 .6823273 .1329956 .6643219 .1329956 .6523285 .14199829 .6523285 .15699768 .6523285 .20498657 .6523285 .20698548 .6453247 .20698548 .6353302L.20399475 .6153412 .05899048 .039260866C.054992677 .025253296 .054992677 .023254395 .054992677 .01725769 .054992677-.0057525637 .07499695-.0107421879 .083999637-.0107421879 .099990848-.0107421879 .115997318 .0012512207 .12098694 .015258789L.13999939 .091278079 .1619873 .18130493C.16799927 .2033081 .17399597 .22531128 .1789856 .24832154 .18099976 .25431825 .18899536 .28733827 .18998719 .29333497 .19299317 .30233766 .22399903 .35835267 .2579956 .38536073 .27999879 .4013672 .31098939 .42037965 .35398866 .42037965 .39698792 .42037965 .4079895 .3863678 .4079895 .35035707 .4079895 .29634095 .36999513 .18730164 .34599305 .12628174 .33799745 .103271488 .33299256 .091278079 .33299256 .0712738 .33299256 .024261475 .36799623-.0107421879 .4149933-.0107421879 .5089874-.0107421879 .54599 .13528443 .54599 .14329529 .54599 .1532898 .5369873 .1532898 .5339966 .1532898 .5239868 .1532898 .5239868 .15029907 .5189972 .13528443 .5039978 .08227539 .47200013 .011245728 .4169922 .011245728 .3999939 .011245728 .3929901 .021255494 .3929901 .044265748 .3929901 .0692749 .4019928 .09327698 .41099549 .11528015 .4269867 .15829468 .47200013 .2773285 .47200013 .3353424 .47200013 .4003601 .43199159 .4423828 .35699464 .4423828 .2939911 .4423828 .24598694 .41137696 .20899964 .36535646L.2869873 .68333438Z"/>
<path id="font_2_2" d="M.2899933 .4720459C.2979889 .4890442 .29899598 .49705506 .29899598 .5040436 .29899598 .53504946 .2709961 .5590515 .23999024 .5590515 .20199585 .5590515 .18998719 .52804568 .18499756 .51205447L.052993776 .07901001C.051986696 .07701111 .04798889 .06401062 .04798889 .06300354 .04798889 .05101013 .07899475 .041015626 .08699036 .041015626 .09399414 .041015626 .09498596 .043014528 .101989749 .058013917L.2899933 .4720459Z"/>
<path id="font_3_1" d="M.6589966 .23046875C.6759949 .23046875 .69400027 .23046875 .69400027 .25045777 .69400027 .27046205 .6759949 .27046205 .6589966 .27046205H.117996219C.100997928 .27046205 .08299255 .27046205 .08299255 .25045777 .08299255 .23046875 .100997928 .23046875 .117996219 .23046875H.6589966Z"/>
<path id="font_4_3" d="M.2939911 .64004519C.2939911 .66400149 .2939911 .6660156 .2709961 .6660156 .20899964 .60227969 .12098694 .60227969 .08898926 .60227969V.57128909C.10899353 .57128909 .16799927 .57128909 .21998596 .5972748V.07902527C.21998596 .042999269 .21699524 .0309906 .1269989 .0309906H.09498596V0C.12998963 .0029907227 .21699524 .0029907227 .25698854 .0029907227 .29699708 .0029907227 .38398744 .0029907227 .4189911 0V.0309906H.3869934C.29699708 .0309906 .2939911 .041992189 .2939911 .07902527V.64004519Z"/>
<path id="font_4_2" d="M.45999146 .31976319C.45999146 .39982606 .45498658 .47988893 .41999818 .5539398 .37399293 .65000918 .2919922 .6660156 .25 .6660156 .18998719 .6660156 .116989139 .64001467 .07598877 .54693606 .04399109 .47789 .038986207 .39982606 .038986207 .31976319 .038986207 .24472046 .042999269 .15464783 .083999637 .07859802 .1269989-.0024719239 .19999695-.022460938 .24899292-.022460938 .30299378-.022460938 .3789978-.0014648438 .4229889 .09359741 .45498658 .16265869 .45999146 .2407074 .45999146 .31976319M.24899292-.00047302247C.20999146-.00047302247 .15098572 .024551392 .1329956 .12062073 .12199402 .18066406 .12199402 .2727356 .12199402 .3317871 .12199402 .39582826 .12199402 .46188355 .12998963 .5159149 .14898682 .63500979 .22399903 .64401248 .24899292 .64401248 .28199769 .64401248 .34799195 .6259918 .36698915 .52693179 .3769989 .47088624 .3769989 .39482118 .3769989 .3317871 .3769989 .25672914 .3769989 .18867493 .3659973 .12461853 .35099793 .029556275 .2939911-.00047302247 .24899292-.00047302247Z"/>
<path id="font_1_1" d="M.19198609 .052993776C.19198609 .08198547 .16799927 .10598755 .13899231 .10598755 .10998535 .10598755 .085998538 .08198547 .085998538 .052993776 .085998538 .023986817 .10998535 0 .13899231 0 .16799927 0 .19198609 .023986817 .19198609 .052993776Z"/>
<path id="font_4_5" d="M.2899933 .35191346C.37199403 .37893678 .42999269 .4490509 .42999269 .52809146 .42999269 .6100464 .34199525 .6660156 .24598694 .6660156 .14498902 .6660156 .068984989 .60606387 .068984989 .53009036 .068984989 .49710084 .09098816 .47808839 .11999512 .47808839 .15098572 .47808839 .17098999 .50009158 .17098999 .5290985 .17098999 .57910159 .12399292 .57910159 .10899353 .57910159 .13999939 .62802127 .20599365 .64100649 .24198914 .64100649 .2829895 .64100649 .33799745 .6190338 .33799745 .5290985 .33799745 .51708987 .33599855 .45906068 .30999757 .4149933 .27999879 .36691285 .24598694 .36390687 .22099304 .36291505 .21299744 .36190797 .18899536 .35990907 .18199158 .35990907 .17399597 .35890199 .16699219 .35791017 .16699219 .3479004 .16699219 .33691407 .17399597 .33691407 .19099427 .33691407H.23498535C.31698609 .33691407 .35398866 .2686615 .35398866 .17037964 .35398866 .034469606 .2849884 .0055389406 .24099732 .0055389406 .19799805 .0055389406 .12298584 .022491456 .08799744 .08137512 .12298584 .07637024 .1539917 .09837341 .1539917 .1363678 .1539917 .17237854 .1269989 .19238281 .09799194 .19238281 .07398987 .19238281 .041992189 .17837525 .041992189 .1343689 .041992189 .043441774 .1349945-.022460938 .24398804-.022460938 .3659973-.022460938 .45700074 .06838989 .45700074 .17037964 .45700074 .252594 .3939972 .33088685 .2899933 .35191346Z"/>
<path id="font_4_4" d="M.1269989 .07699585 .23298645 .18003845C.3889923 .31811524 .44898988 .3721466 .44898988 .47216798 .44898988 .5860901 .35899354 .6660156 .23699951 .6660156 .12399292 .6660156 .049987794 .57411196 .049987794 .48516847 .049987794 .4291687 .099990848 .4291687 .102996829 .4291687 .11999512 .4291687 .15499878 .44117738 .15499878 .48217774 .15499878 .5081787 .13699341 .5341797 .101989749 .5341797 .09399414 .5341797 .09199524 .5341797 .08898926 .5331726 .11199951 .59806826 .1659851 .63500979 .22399903 .63500979 .31498719 .63500979 .35798646 .5541382 .35798646 .47216798 .35798646 .39215089 .30799867 .31311036 .25299073 .25108338L.06098938 .036987306C.049987794 .025985718 .049987794 .023986817 .049987794 0H.42099L.44898988 .17404175H.42399598C.4189911 .14402771 .4119873 .1000061 .4019928 .084991458 .394989 .07699585 .32899476 .07699585 .30699159 .07699585H.1269989Z"/>
<path id="font_2_1" d="M.8149872 .47825624C.8149872 .5122528 .8009949 .5152588 .7979889 .5152588 .7879944 .5152588 .7819977 .49925233 .7809906 .48825074 .7799988 .46725465 .7769928 .43218995 .73399356 .39904786 .71398928 .38397218 .67900088 .36488343 .6299896 .36488343 .56999209 .36488343 .5209961 .39302064 .46199037 .43118287 .3909912 .47825624 .33299256 .5162506 .2619934 .5162506 .1619873 .5162506 .07699585 .44023133 .07699585 .33389283 .07699585 .29888917 .09098816 .29689027 .09399414 .29689027 .10499573 .29689027 .10998535 .31489564 .11099243 .32389833 .11199951 .3448944 .114990238 .3799591 .1579895 .4131012 .17799378 .42817689 .21299744 .44726563 .2619934 .44726563 .32199098 .44726563 .37098695 .41912843 .42999269 .3809662 .5009918 .33389283 .5589905 .29589845 .6299896 .29589845 .7299957 .29589845 .8149872 .37191773 .8149872 .47825624M.8149872 .21394348C.8149872 .24694824 .8019867 .25094605 .7979889 .25094605 .7879944 .25094605 .7819977 .23394776 .7809906 .22393799 .7799988 .2029419 .7769928 .16799927 .73399356 .13510132 .71398928 .120162967 .67900088 .10121155 .6299896 .10121155 .56999209 .10121155 .5209961 .12911988 .46199037 .16699219 .3909912 .21394348 .33299256 .25195313 .2619934 .25195313 .1619873 .25195313 .07699585 .17596436 .07699585 .07022095 .07699585 .035217287 .09098816 .033218385 .09399414 .033218385 .10499573 .033218385 .10998535 .051223756 .11099243 .06022644 .11199951 .081222537 .114990238 .11616516 .1579895 .14906311 .17799378 .16400147 .21299744 .18295288 .2619934 .18295288 .32199098 .18295288 .37098695 .15504456 .42999269 .11717224 .5009918 .07022095 .5589905 .032226564 .6299896 .032226564 .7299957 .032226564 .8149872 .10820007 .8149872 .21394348Z"/>
<path id="font_5_1" d="M.5159912 .31925965C.5159912 .42918397 .5029907 .50813296 .45700074 .5780945 .42599488 .62405398 .3639984 .6640625 .28399659 .6640625 .051986696 .6640625 .051986696 .39120484 .051986696 .31925965 .051986696 .2472992 .051986696-.01953125 .28399659-.01953125 .5159912-.01953125 .5159912 .2472992 .5159912 .31925965M.28399659 .008468628C.23799134 .008468628 .1769867 .035446168 .15699768 .117385867 .14299011 .17634583 .14299011 .25830079 .14299011 .33224488 .14299011 .40519715 .14299011 .4811554 .1579895 .53611758 .1789856 .6150665 .24299622 .63604739 .28399659 .63604739 .33799745 .63604739 .3899994 .6030731 .4079895 .545105 .42399598 .4911499 .4249878 .41918946 .4249878 .33224488 .4249878 .25830079 .4249878 .18434143 .4119873 .12138367 .3919983 .030441285 .32398988 .008468628 .28399659 .008468628Z"/>
<path id="font_6_46" d="M.78900149 .33580018C.78900149 .52568057 .6380005 .6826172 .45199586 .6826172H.057998659V.64660647H.08198547C.15899658 .64660647 .16099549 .63661196 .16099549 .6016388V.080963138C.16099549 .04698181 .15899658 .035995485 .08198547 .035995485H.057998659V0H.45199586C.6359863 0 .78900149 .1479187 .78900149 .33580018M.6859894 .33580018C.6859894 .21987915 .6569977 .15991211 .621994 .11793518 .57699587 .066970828 .5049896 .035995485 .4249878 .035995485H.2999878C.25299073 .035614015 .2519989 .04360962 .2519989 .07461548V.607605C.2519989 .63861086 .25299073 .64660647 .2999878 .64660647H.42399598C.5089874 .64660647 .58299258 .6116028 .6289978 .5526123 .66999819 .49861146 .6859894 .42260743 .6859894 .3356018V.33580018Z"/>
<path id="font_6_76" d="M.7859955 .64660647V.6826172C.7449951 .6796112 .7049866 .6786041 .6639862 .6786041 .6230011 .6786041 .58299258 .6796112 .5419922 .6826172V.64660647C.644989 .64660647 .644989 .6016388 .644989 .57466128V.15092469L.26098634 .66760256C.25 .6816101 .24899292 .6826172 .22898865 .6826172H.055999757V.64660647H.085998538C.1289978 .64660647 .1539917 .6416168 .15899658 .64060977V.107940677C.15899658 .080963138 .15899658 .035995485 .055999757 .035995485V0C.09700012 .0029907227 .13699341 .0039978029 .17799378 .0039978029 .21899414 .0039978029 .25898744 .0029907227 .2999878 0V.035995485C.19699097 .035995485 .19699097 .080963138 .19699097 .107940677V.6126251L.6409912 .01499939C.651001 .0009918213 .6519928 0 .6639862 0 .68299868 0 .68299868 .008987427 .68299868 .027999878V.57466128C.68299868 .6016388 .68299868 .64660647 .7859955 .64660647Z"/>
<path id="font_6_49" d="M.7279968 .26296998H.69400027C.66799929 .11198425 .644989 .035995485 .45999146 .035995485H.3019867C.25498963 .035995485 .2539978 .04399109 .2539978 .07498169V.33496095H.35499574C.45599366 .33496095 .47099305 .30496217 .47099305 .2179718H.5049896V.48783876H.47099305C.47099305 .40092469 .45599366 .37095643 .35499574 .37095643H.2539978V.6037445C.2539978 .6347046 .25498963 .6427002 .3019867 .6427002H.45199586C.6159973 .6427002 .644989 .58872988 .6629944 .4487915H.69699099L.6669922 .67871096H.055999757V.6427002H.07998657C.15699768 .6427002 .15899658 .6327057 .15899658 .59773257V.08097839C.15899658 .04698181 .15699768 .035995485 .07998657 .035995485H.055999757V0H.68299868L.7279968 .26296998Z"/>
<path id="font_4_1" d="M.40899659 .23046875H.6879883C.70199587 .23046875 .72099307 .23046875 .72099307 .25045777 .72099307 .27046205 .70199587 .27046205 .6879883 .27046205H.40899659V.5500183C.40899659 .56399539 .40899659 .5830078 .3889923 .5830078 .36898805 .5830078 .36898805 .56399539 .36898805 .5500183V.27046205H.08898926C.07499695 .27046205 .055999757 .27046205 .055999757 .25045777 .055999757 .23046875 .07499695 .23046875 .08898926 .23046875H.36898805V-.05000305C.36898805-.06401062 .36898805-.08300781 .3889923-.08300781 .40899659-.08300781 .40899659-.06401062 .40899659-.05000305V.23046875Z"/>
</defs>
<path transform="matrix(1.00006,0,0,-1.00003,79.05366,16.808114)" stroke-width=".3985" stroke-linecap="butt" stroke-miterlimit="10" stroke-linejoin="miter" fill="none" stroke="#000000" d="M-74.36717 0H81.45387"/>
<path transform="matrix(-1.00006,-0,0,1.00003,4.6820299,16.808114)" d="M3.58653 0C2.52383 .19925 .797 .797-.3985 1.49438V-1.49438C.797-.797 2.52383-.19925 3.58653 0"/>
<path transform="matrix(1.00006,0,0,-1.00003,160.51242,16.808114)" d="M3.58653 0C2.52383 .19925 .797 .797-.3985 1.49438V-1.49438C.797-.797 2.52383-.19925 3.58653 0"/>
<use data-text="h" xlink:href="#font_1_2" transform="matrix(9.963197,0,0,-9.962899,167.61896,20.553225)"/>
<use data-text="&#x2032;" xlink:href="#font_2_2" transform="matrix(6.9742186,0,0,-6.9740097,173.35932,16.937117)"/>
<use data-text="&#x2032;" xlink:href="#font_2_2" transform="matrix(6.9742186,0,0,-6.9740097,175.65384,16.937117)"/>
<path transform="matrix(1.00006,0,0,-1.00003,79.05366,16.808114)" stroke-width=".3985" stroke-linecap="butt" stroke-miterlimit="10" stroke-linejoin="miter" fill="none" stroke="#000000" d="M-28.3468 2.98883V-2.98883"/>
<path transform="matrix(1.00006,0,0,-1.00003,79.05366,16.808114)" stroke-width=".3985" stroke-linecap="butt" stroke-miterlimit="10" stroke-linejoin="miter" fill="none" stroke="#000000" d="M8.50412 2.98883V-2.98883"/>
<path transform="matrix(1.00006,0,0,-1.00003,79.05366,16.808114)" stroke-width=".3985" stroke-linecap="butt" stroke-miterlimit="10" stroke-linejoin="miter" fill="none" stroke="#000000" d="M28.3468 2.98883V-2.98883"/>
<path transform="matrix(1.00006,0,0,-1.00003,79.05366,16.808114)" stroke-width=".3985" stroke-linecap="butt" stroke-miterlimit="10" stroke-linejoin="miter" fill="none" stroke="#000000" d="M56.69362 2.98883V-2.98883"/>
<path transform="matrix(1.00006,0,0,-1.00003,79.05366,16.808114)" stroke-width=".3985" stroke-linecap="butt" stroke-miterlimit="10" stroke-linejoin="miter" fill="none" stroke="#000000" d="M-28.3468 0V-2.98883"/>
<use data-text="&#x2212;" xlink:href="#font_3_1" transform="matrix(9.963197,0,0,-9.962899,44.33957,29.737502)"/>
<use data-text="1" xlink:href="#font_4_3" transform="matrix(9.963197,0,0,-9.962899,52.088029,29.737502)"/>
<path transform="matrix(1.00006,0,0,-1.00003,79.05366,16.808114)" stroke-width=".3985" stroke-linecap="butt" stroke-miterlimit="10" stroke-linejoin="miter" fill="none" stroke="#000000" d="M8.50412 0V-2.98883"/>
<use data-text="0" xlink:href="#font_4_2" transform="matrix(9.963197,0,0,-9.962899,81.19279,29.737502)"/>
<use data-text="." xlink:href="#font_1_1" transform="matrix(9.963197,0,0,-9.962899,86.17408,29.737502)"/>
<use data-text="3" xlink:href="#font_4_5" transform="matrix(9.963197,0,0,-9.962899,88.941249,29.737502)"/>
<path transform="matrix(1.00006,0,0,-1.00003,79.05366,16.808114)" stroke-width=".3985" stroke-linecap="butt" stroke-miterlimit="10" stroke-linejoin="miter" fill="none" stroke="#000000" d="M28.3468 0V-2.98883"/>
<use data-text="1" xlink:href="#font_4_3" transform="matrix(9.963197,0,0,-9.962899,104.91121,29.737502)"/>
<path transform="matrix(1.00006,0,0,-1.00003,79.05366,16.808114)" stroke-width=".3985" stroke-linecap="butt" stroke-miterlimit="10" stroke-linejoin="miter" fill="none" stroke="#000000" d="M56.69362 0V-2.98883"/>
<use data-text="2" xlink:href="#font_4_4" transform="matrix(9.963197,0,0,-9.962899,133.2599,29.737502)"/>
<path transform="matrix(1.00006,0,0,-1.00003,79.05366,16.808114)" stroke-width=".3985" stroke-linecap="butt" stroke-miterlimit="10" stroke-linejoin="miter" fill="none" stroke="#000000" d=""/>
<use data-text="&#x2248;" xlink:href="#font_2_1" transform="matrix(6.9742186,0,0,-6.9740097,82.20985,6.682809)"/>
<use data-text="0" xlink:href="#font_5_1" transform="matrix(6.9742186,0,0,-6.9740097,88.43621,6.682809)"/>
<path transform="matrix(1.00006,0,0,-1.00003,79.05366,16.808114)" stroke-width=".3985" stroke-linecap="butt" stroke-miterlimit="10" stroke-linejoin="miter" fill="none" stroke="#000000" d=""/>
<use data-text="D" xlink:href="#font_6_46" transform="matrix(6.9742186,0,0,-6.9740097,41.839418,6.682809)"/>
<use data-text="N" xlink:href="#font_6_76" transform="matrix(6.9742186,0,0,-6.9740097,47.83725,6.682809)"/>
<use data-text="E" xlink:href="#font_6_49" transform="matrix(6.9742186,0,0,-6.9740097,53.716524,6.682809)"/>
<path transform="matrix(1.00006,0,0,-1.00003,79.05366,16.808114)" stroke-width=".3985" stroke-linecap="butt" stroke-miterlimit="10" stroke-linejoin="miter" fill="none" stroke="#000000" d=""/>
<use data-text="D" xlink:href="#font_6_46" transform="matrix(6.9742186,0,0,-6.9740097,98.53581,6.682809)"/>
<use data-text="N" xlink:href="#font_6_76" transform="matrix(6.9742186,0,0,-6.9740097,104.533649,6.682809)"/>
<use data-text="E" xlink:href="#font_6_49" transform="matrix(6.9742186,0,0,-6.9740097,110.41292,6.682809)"/>
<path transform="matrix(1.00006,0,0,-1.00003,79.05366,16.808114)" stroke-width=".3985" stroke-linecap="butt" stroke-miterlimit="10" stroke-linejoin="miter" fill="none" stroke="#000000" d=""/>
<use data-text="D" xlink:href="#font_6_46" transform="matrix(6.9742186,0,0,-6.9740097,126.88452,6.682809)"/>
<use data-text="N" xlink:href="#font_6_76" transform="matrix(6.9742186,0,0,-6.9740097,132.88236,6.682809)"/>
<use data-text="E" xlink:href="#font_6_49" transform="matrix(6.9742186,0,0,-6.9740097,138.76163,6.682809)"/>
<path transform="matrix(1.00006,0,0,-1.00003,79.05366,16.808114)" stroke-width=".3985" stroke-linecap="butt" stroke-miterlimit="10" stroke-linejoin="miter" fill="none" stroke="#ff0000" d=""/>
<use data-text="+" xlink:href="#font_4_1" transform="matrix(9.963197,0,0,-9.962899,69.50909,9.468893)" fill="#ff0000"/>
<path transform="matrix(1.00006,0,0,-1.00003,79.05366,16.808114)" stroke-width=".3985" stroke-linecap="butt" stroke-miterlimit="10" stroke-linejoin="miter" fill="none" stroke="#ff0000" d=""/>
<use data-text="+" xlink:href="#font_4_1" transform="matrix(9.963197,0,0,-9.962899,146.05068,9.468893)" fill="#ff0000"/>
<path transform="matrix(1.00006,0,0,-1.00003,79.05366,16.808114)" stroke-width=".3985" stroke-linecap="butt" stroke-miterlimit="10" stroke-linejoin="miter" fill="none" stroke="#ff0000" d=""/>
<use data-text="&#x2212;" xlink:href="#font_3_1" transform="matrix(9.963197,0,0,-9.962899,18.482026,9.468893)" fill="#ff0000"/>
<path transform="matrix(1.00006,0,0,-1.00003,79.05366,16.808114)" stroke-width=".3985" stroke-linecap="butt" stroke-miterlimit="10" stroke-linejoin="miter" fill="none" stroke="#ff0000" d=""/>
<use data-text="&#x2212;" xlink:href="#font_3_1" transform="matrix(9.963197,0,0,-9.962899,92.188449,9.468893)" fill="#ff0000"/>
<path transform="matrix(1.00006,0,0,-1.00003,79.05366,16.808114)" stroke-width=".3985" stroke-linecap="butt" stroke-miterlimit="10" stroke-linejoin="miter" fill="none" stroke="#ff0000" d=""/>
<use data-text="&#x2212;" xlink:href="#font_3_1" transform="matrix(9.963197,0,0,-9.962899,117.70197,9.468893)" fill="#ff0000"/>
</svg>
